<svg width="58" height="47" viewBox="0 0 58 47" fill="none" xmlns="http://www.w3.org/2000/svg">
<path fill-rule="evenodd" clip-rule="evenodd" d="M23.2032 3.8439C22.9787 3.98875 22.7174 4.05931 22.4524 4.04074V4.04445C19.4087 4.04445 16.8912 6.24309 16.8692 7.5541C16.8692 8.20033 17.3734 8.50115 18.0543 8.62743C20.3766 9.02853 21.6611 9.94958 23.4424 12.7833C24.7822 14.8687 26.4585 17.5061 27.4918 19.1318C28.0282 19.9758 28.3913 20.5471 28.4441 20.6271C28.6686 20.9725 28.7938 21.0096 28.9594 21.0096C29.125 21.0096 29.2575 20.9762 29.4931 20.6271C29.5443 20.5435 29.9408 19.923 30.5209 19.0151C31.5647 17.3813 33.2031 14.817 34.4948 12.7759C36.324 9.93101 37.5643 9.02481 39.8829 8.62371C40.5712 8.49744 41.068 8.19661 41.068 7.55039C41.068 6.24309 38.5653 4.04074 35.5032 4.04074C35.2382 4.05931 34.9732 3.98875 34.7524 3.8439C34.5316 3.69906 34.3623 3.48365 34.2703 3.23111C33.7624 2.25435 33.0005 1.43729 32.0694 0.869057C31.1382 0.300828 30.0672 0 28.9778 0C27.8884 0 26.8174 0.300828 25.8862 0.869057C24.9514 1.441 24.1896 2.25435 23.6853 3.23111C23.597 3.48365 23.424 3.69906 23.2032 3.8439ZM21.2526 15.1899C18.7425 11.242 15.6289 9.96815 12.6919 9.96815H12.6882C8.77957 9.96815 7.36628 12.0405 7.36628 12.8836C7.36628 13.2253 7.54662 13.5298 8.13917 13.5298C10.9253 13.5298 12.6772 15.1973 14.0352 17.4294C15.3933 19.6652 22.1469 30.6064 22.2352 30.7327C22.2757 30.8144 22.3383 30.8886 22.4156 30.9369C22.4966 30.9889 22.5849 31.0149 22.6769 31.0149C22.7726 31.0149 22.8646 30.9889 22.9456 30.9406C23.0265 30.8924 23.0965 30.8218 23.1406 30.7401C23.2363 30.5841 26.7953 24.9352 26.88 24.8164C26.9536 24.7087 26.994 24.5824 26.9977 24.4524C26.994 24.3261 26.9572 24.2036 26.8836 24.1033C26.8174 23.9808 22.5297 17.1917 21.2526 15.1899ZM20.3693 46.346C21.1164 46.7768 21.9629 46.9996 22.8241 46.9996C23.6853 47.0107 24.5355 46.7916 25.2863 46.3608C26.0371 45.9337 26.6591 45.3098 27.0934 44.5558C28.0798 42.97 42.5549 19.6615 43.9093 17.4331C45.2637 15.2048 47.0119 13.5335 49.8017 13.5335C50.3943 13.5335 50.5783 13.229 50.5783 12.8873C50.5783 12.0442 49.1466 9.97186 45.238 9.97186C42.2899 9.97186 39.1873 11.2457 36.6773 15.1936C35.3891 17.1917 25.4041 33.0761 23.2915 36.4781C23.1995 36.6378 23.0192 36.8903 22.7652 36.8903C22.5113 36.8903 22.3825 36.7343 22.2205 36.4781C17.9365 29.7113 12.195 20.5825 12.195 20.5825C9.8469 16.8018 7.13073 15.8807 4.79734 15.8807C1.70209 15.8807 -0.00195312 17.5037 -0.00195312 18.577C-0.00195312 18.9595 0.163666 19.3718 0.899754 19.3718C2.76205 19.3718 3.46134 20.3485 5.51502 23.6911C7.07185 26.1534 18.5658 44.5447 18.5658 44.5447C19.0001 45.2949 19.6221 45.9151 20.3693 46.346ZM52.4774 23.6911C54.5348 20.3485 55.2304 19.3718 57.0927 19.3718H57.0963C57.8251 19.3718 57.998 18.9595 57.998 18.577C57.998 17.5037 56.294 15.8807 53.1988 15.8807C50.8727 15.8807 48.175 16.8018 45.8011 20.5825C45.8011 20.5825 31.2523 43.6682 31.1566 43.8316C31.0131 43.9876 30.9211 44.1807 30.888 44.3887C30.9211 44.5967 31.0131 44.7861 31.1566 44.9347C31.6204 45.5772 32.2313 46.0971 32.9343 46.4574C33.6372 46.8139 34.4138 46.9996 35.2014 46.9996C36.059 47.0033 36.9055 46.7768 37.6526 46.346C38.3997 45.9151 39.0217 45.2949 39.456 44.5447C39.456 44.5447 50.9537 26.1534 52.4774 23.6911Z" fill="#D5C9BE"/>
</svg>
