<svg width="32" height="32" viewBox="0 0 32 32" fill="none" xmlns="http://www.w3.org/2000/svg">
<g clip-path="url(#clip0_65_1273)">
<path d="M12.0013 15.9987C10.9465 15.9987 9.91533 16.3115 9.03826 16.8975C8.1612 17.4836 7.47761 18.3165 7.07395 19.2911C6.67028 20.2656 6.56466 21.3379 6.77045 22.3725C6.97624 23.4071 7.48419 24.3574 8.23007 25.1033C8.97595 25.8491 9.92626 26.3571 10.9608 26.5629C11.9954 26.7687 13.0677 26.6631 14.0423 26.2594C15.0168 25.8557 15.8498 25.1721 16.4358 24.2951C17.0218 23.418 17.3346 22.3869 17.3346 21.332V5.33203C17.3346 7.10014 18.037 8.79583 19.2873 10.0461C20.5375 11.2963 22.2332 11.9987 24.0013 11.9987" stroke="#D5C9BE" stroke-width="2" stroke-linecap="round" stroke-linejoin="round"/>
</g>
<defs>
<clipPath id="clip0_65_1273">
<rect width="32" height="32" fill="white"/>
</clipPath>
</defs>
</svg>
