<svg xmlns="http://www.w3.org/2000/svg" width="22" height="30"><path fill-rule="evenodd" fill="#50AFF9" d="M20.311 17.259c-.886 1.914-2.12 3.984-3.667 6.154-2.627 3.684-5.293 6.425-5.319 6.452a.46.46 0 01-.65 0c-.027-.027-2.692-2.768-5.319-6.452-1.547-2.17-2.781-4.24-3.667-6.154C.568 14.84 0 12.657 0 10.773 0 4.832 4.935 0 11 0s11 4.832 11 10.773c0 1.884-.568 4.067-1.689 6.486zM11 .88C5.43.88.899 5.318.899 10.773c0 3.172 1.794 7.365 5.187 12.126A61.528 61.528 0 0011 28.913a61.528 61.528 0 004.914-6.014c3.393-4.761 5.187-8.954 5.187-12.126C21.101 5.318 16.569.88 11 .88zm0 18.318c-4.743 0-8.602-3.78-8.602-8.425 0-4.645 3.859-8.425 8.602-8.425 1.421 0 2.83.347 4.074 1.003.218.115.3.383.182.596a.453.453 0 01-.609.179A7.844 7.844 0 0011 3.229c-4.248 0-7.703 3.384-7.703 7.544S6.753 18.317 11 18.317s7.703-3.384 7.703-7.544c0-2.091-.854-4.035-2.403-5.475a.433.433 0 01-.017-.622.455.455 0 01.635-.017c1.731 1.607 2.684 3.779 2.684 6.114 0 4.645-3.859 8.425-8.602 8.425zm3.824-8.481c-.327.363-.395.439-.227.802.769 1.656.337 3.816-.269 4.738-.248.378-.534.569-.848.569-.616 0-.794-.682-1.02-1.545-.325-1.243-.659-2.271-1.46-2.271-.801 0-1.135 1.028-1.46 2.271-.226.863-.404 1.545-1.02 1.545-.314 0-.6-.191-.848-.569-.607-.922-1.038-3.082-.27-4.738.169-.363.101-.439-.226-.802-.42-.467-1.054-1.172-1.054-2.832 0-1.537 1.336-2.695 3.107-2.695.64 0 1.267.242 1.776.678a2.72 2.72 0 011.766-.678c1.771 0 3.107 1.158 3.107 2.695 0 1.66-.635 2.365-1.054 2.832zM12.771 6.07c-.52 0-1.038.259-1.42.709l-.015.016-.064.089c-.307.432-.654.921-1.689.921a.445.445 0 01-.45-.44c0-.244.202-.441.45-.441.48 0 .634-.115.837-.385-.347-.298-.774-.469-1.192-.469-1.279 0-2.207.764-2.207 1.815 0 1.327.46 1.839.83 2.25.365.406.779.866.37 1.749-.325.699-.415 1.644-.247 2.594.117.661.324 1.118.476 1.338.074-.201.154-.508.218-.753.306-1.169.767-2.934 2.332-2.934 1.564 0 2.026 1.766 2.331 2.934.064.245.145.552.219.753.151-.22.358-.677.475-1.338.168-.949.078-1.895-.246-2.594-.41-.883.004-1.343.37-1.749.37-.411.829-.923.829-2.25 0-1.051-.928-1.815-2.207-1.815z"/></svg>