<svg xmlns="http://www.w3.org/2000/svg" width="32" height="28"><path fill-rule="evenodd" fill="#50AFF9" d="M30.019 22.669h-1.055v4.737a.528.528 0 01-.899.373l-5.112-5.11H11.057a1.58 1.58 0 01-1.578-1.578v-5.265h-.835l-5.112 5.109a.526.526 0 01-.899-.372v-4.738H1.578A1.58 1.58 0 010 14.248V1.611C0 .741.708.033 1.578.033H20.54c.87 0 1.578.708 1.578 1.578v5.265h7.9c.87 0 1.579.708 1.579 1.578v12.637a1.58 1.58 0 01-1.578 1.578zM21.065 1.611a.526.526 0 00-.525-.525H1.578a.526.526 0 00-.525.525v12.637c0 .289.236.525.525.525H3.16c.29 0 .526.235.526.526v3.993l4.368-4.365a.524.524 0 01.372-.154h1.053V8.454c0-.87.708-1.578 1.578-1.578h10.008V1.611zm9.479 6.843a.526.526 0 00-.525-.525H11.057a.526.526 0 00-.525.525v12.637c0 .29.236.525.525.525h12.114c.14 0 .274.055.373.154l4.367 4.366v-3.993c0-.292.236-.527.527-.527h1.581a.526.526 0 00.525-.525V8.454zm-3.686 8.951a2.636 2.636 0 01-2.633-2.632 2.635 2.635 0 012.633-2.632 2.635 2.635 0 012.633 2.632 2.636 2.636 0 01-2.633 2.632zm0-4.212c-.871 0-1.58.709-1.58 1.58 0 .87.709 1.579 1.58 1.579.871 0 1.58-.709 1.58-1.579 0-.871-.709-1.58-1.58-1.58zm-6.32 4.212a2.636 2.636 0 01-2.633-2.632 2.635 2.635 0 012.633-2.632 2.635 2.635 0 012.633 2.632 2.636 2.636 0 01-2.633 2.632zm0-4.212c-.871 0-1.58.709-1.58 1.58 0 .87.709 1.579 1.58 1.579.871 0 1.58-.709 1.58-1.579 0-.871-.709-1.58-1.58-1.58zm-6.319 4.212a2.636 2.636 0 01-2.633-2.632 2.635 2.635 0 012.633-2.632 2.635 2.635 0 012.633 2.632 2.636 2.636 0 01-2.633 2.632zm0-4.212c-.871 0-1.58.709-1.58 1.58 0 .87.709 1.579 1.58 1.579.871 0 1.58-.709 1.58-1.579 0-.871-.709-1.58-1.58-1.58z"/></svg>