<svg xmlns="http://www.w3.org/2000/svg" width="45" height="46"><path fill-rule="evenodd" fill="#6EB8E8" d="M41.916 6.368l-.572 2.133 1.424.38a2.203 2.203 0 011.631 2.329 2.205 2.205 0 01-2.029 1.994L39.093 25.41a2.157 2.157 0 01-1.96 1.613l-.228.848a2.211 2.211 0 01-2.708 1.562l-1.043 3.897h10.811a.735.735 0 110 1.47H24.914a9.71 9.71 0 00-.32 1.544 33.058 33.058 0 01-.876 5.143c-.342 1.269-.984 3.642-3.111 3.642-.62 0-2.508 0-3.742-8.841-.24-1.693-.923-1.876-1.28-1.923-.359.048-1.039.234-1.278 1.925-1.235 8.839-3.122 8.839-3.742 8.839-2.127 0-2.768-2.373-3.113-3.647a32.61 32.61 0 01-.874-5.137 9.701 9.701 0 00-.321-1.545H1.215a.736.736 0 110-1.47H5.74a14.6 14.6 0 00-.578-1.206c-.252-.473-.53-.928-.805-1.383a17.4 17.4 0 01-1.418-2.678c-1.342-3.406-1.698-8.071 1.311-10.946 2.904-2.783 8.045-2.887 11.336-.345 3.289-2.542 8.43-2.439 11.335.345 3.007 2.875 2.651 7.54 1.312 10.945a17.555 17.555 0 01-1.416 2.677c-.276.455-.553.911-.807 1.385-.22.411-.408.811-.579 1.206h6.198l1.147-4.276a2.206 2.206 0 01-1.563-2.703l.222-.839a2.174 2.174 0 01-.885-2.382l3.278-12.199a2.196 2.196 0 01-.764-2.742 2.206 2.206 0 012.586-1.2l1.424.381.572-2.133a2.204 2.204 0 01-1.563-2.702A2.211 2.211 0 0138.79.977l4.271 1.127a2.207 2.207 0 11-1.145 4.264zM25.555 29.977a16.27 16.27 0 001.305-2.452c1.165-2.962 1.525-6.973-.958-9.346-2.288-2.19-6.437-2.322-9.155-.435 1.051.946 2.958 2.896 3.602 5.085a.736.736 0 01-.707.942.736.736 0 01-.709-.528c-.751-2.552-3.77-4.916-3.8-4.94-.009-.006-.012-.017-.02-.023-.008-.007-.018-.008-.025-.015-2.658-2.421-7.336-2.46-9.819-.087-2.482 2.374-2.123 6.385-.958 9.348.363.853.799 1.674 1.302 2.454.29.478.58.957.845 1.454a13.157 13.157 0 011.581 4.743 31.08 31.08 0 00.831 4.914c.336 1.242.77 2.565 1.691 2.565.405-.05 1.498-1.966 2.281-7.574.277-1.954 1.17-3.028 2.654-3.192.029 0 .059.003.088.008a.478.478 0 01.084-.008c1.483.164 2.377 1.237 2.654 3.191.784 5.613 1.878 7.526 2.284 7.574.921 0 1.355-1.322 1.689-2.56.406-1.616.683-3.261.832-4.921a13.153 13.153 0 011.581-4.741c.266-.5.557-.978.847-1.456zm7.154-2.685a.737.737 0 00.447.343l1.425.381a.736.736 0 00.901-.52l.192-.71-2.848-.763-.191.709v.003a.733.733 0 00.074.557zm2.595-9.768a.728.728 0 01-.192-.025l-1.423-.38-.382 1.42 1.424.381a.734.734 0 11-.382 1.42l-1.424-.381-.381 1.422 1.423.38a.736.736 0 11-.381 1.42l-1.424-.38-.191.71a.736.736 0 00.521.901l4.275 1.142a.74.74 0 00.903-.521l3.243-12.071-2.845-.765-2.854-.76-.381 1.42 1.423.381a.736.736 0 11-.381 1.42l-1.424-.38-.381 1.421 1.424.38a.735.735 0 01-.19 1.445zm-.036-9.115a.734.734 0 10-.381 1.421l7.119 1.903a.735.735 0 10.381-1.421l-7.119-1.903zm5.226-2.413l-1.424-.38-.572 2.132 1.424.38.572-2.132zm2.19-2.46l-4.275-1.142a.738.738 0 00-.829.342.736.736 0 00.447 1.078l.713.191 2.85.76.712.191a.738.738 0 00.903-.9.734.734 0 00-.521-.52zM8.081 19.758a3.574 3.574 0 00-1.661 3.861.732.732 0 01-.722.887.735.735 0 01-.724-.583 5.036 5.036 0 012.399-5.454.737.737 0 01.708 1.289z"/></svg>