<svg xmlns="http://www.w3.org/2000/svg" width="28" height="18"><defs><filter id="a"><feFlood flood-color="#151617" flood-opacity="1" result="floodOut"/><feComposite operator="atop" in="floodOut" in2="SourceGraphic" result="compOut"/><feBlend in="compOut" in2="SourceGraphic"/></filter></defs><g filter="url(#a)"><path fill-rule="evenodd" fill="#151617" d="M26.918 9.99H1.087c-.604 0-1.094-.447-1.094-.999S.483 7.99 1.087 7.99h25.831c.605 0 1.095.449 1.095 1.001 0 .552-.49.999-1.095.999zm0-7.998H1.087c-.604 0-1.094-.448-1.094-1s.49-.999 1.094-.999h25.831c.605 0 1.095.447 1.095.999s-.49 1-1.095 1zM1.087 15.988h25.831c.605 0 1.095.45 1.095 1.001 0 .553-.49 1-1.095 1H1.087c-.604 0-1.094-.447-1.094-1 0-.551.49-1.001 1.094-1.001z"/></g></svg>