<svg xmlns="http://www.w3.org/2000/svg" width="50" height="28"><path fill-rule="evenodd" fill="#6EB8E8" d="M49.116 12.828c1.19-3.062 1.499-7.261-1.189-9.861C45.364.484 40.856.352 37.911 2.553 34.968.352 30.459.484 27.897 2.966c-1.987 1.921-2.333 4.707-1.903 7.273-.333 0-.654.008-.999.008s-.667-.006-1-.008c.432-2.562.083-5.352-1.902-7.272C19.53.484 15.022.352 12.078 2.553 9.134.352 4.626.484 2.063 2.966-.622 5.567-.311 9.766.88 12.828c.348.83.766 1.63 1.25 2.388l.04.074H.837a.837.837 0 00-.833.841c0 .464.373.84.833.84h2.254c.487.976.809 2.027.951 3.111a29.56 29.56 0 00.767 4.557c.291 1.092.897 3.362 2.898 3.362.643 0 2.351 0 3.451-7.958.183-1.309.644-1.487.927-1.532.281.045.742.223.926 1.53 1.099 7.96 2.807 7.96 3.45 7.96 2 0 2.607-2.27 2.897-3.352.375-1.499.632-3.025.769-4.564a9.783 9.783 0 01.955-3.114h7.839c.488.976.809 2.027.952 3.111a29.56 29.56 0 00.767 4.557c.291 1.092.897 3.362 2.897 3.362.644 0 2.352 0 3.451-7.958.183-1.309.644-1.487.927-1.532.282.045.743.223.926 1.53 1.1 7.96 2.808 7.96 3.451 7.96 2 0 2.607-2.27 2.896-3.352.375-1.499.632-3.025.77-4.564a9.792 9.792 0 01.951-3.114h2.25c.46 0 .833-.376.833-.84a.837.837 0 00-.833-.841h-1.333l.042-.074c.483-.759.9-1.558 1.248-2.388zm-24.118-.9c.479 0 .933-.007 1.397-.011.096.312.198.618.313.911.347.83.765 1.63 1.249 2.388l.04.074h-5.998l.042-.074c.484-.758.902-1.558 1.25-2.388.114-.294.216-.599.312-.911.462.004.916.011 1.395.011zm-6.526 7.96a28.56 28.56 0 01-.722 4.312c-.274 1.024-.621 2.115-1.226 2.127-.288-.144-1.184-1.598-1.864-6.525-.318-2.27-1.524-2.871-2.481-2.979a.965.965 0 00-.094.009 1.093 1.093 0 00-.097-.009c-.957.108-2.167.712-2.482 2.98-.679 4.928-1.575 6.38-1.8 6.512-.667 0-1.015-1.093-1.29-2.121a28.218 28.218 0 01-.719-4.302 11.802 11.802 0 00-1.319-4.084c-.028-.056-.049-.109-.079-.168-.234-.443-.489-.869-.743-1.294a14.07 14.07 0 01-1.124-2.131c-.948-2.438-1.308-6.005.792-8.033 2.1-2.03 6.05-1.993 8.3.079.034.025.07.047.108.066a.824.824 0 00.143.084c.05.018.101.03.154.038a.522.522 0 00.313 0 .835.835 0 00.153-.038.824.824 0 00.143-.084.742.742 0 00.108-.066c2.25-2.071 6.204-2.109 8.301-.078 1.577 1.522 1.766 3.912 1.361 6.04a138.63 138.63 0 01-6.474-.261V7.725a.837.837 0 00-.833-.841H9.168a.837.837 0 00-.833.841v1.513c-2.569-.344-3.953-.645-3.985-.652a.83.83 0 00-.806.245.848.848 0 00-.183.83c.093.29.332.506.628.567.134.03 1.621.355 4.346.715v2.666c0 .464.373.841.833.841H15c.46 0 .833-.377.833-.841V11.65c1.81.113 3.823.199 6.021.244-.039.107-.076.216-.116.319-.315.741-.69 1.454-1.124 2.132-.255.424-.51.85-.743 1.293-.029.055-.05.106-.078.16v.01a11.715 11.715 0 00-1.321 4.08zm-8.471-8.745c1.216.139 2.6.274 4.166.393v1.233h-4.166v-1.626zm0-1.699v-.879h4.166v1.277a109.598 109.598 0 01-4.166-.398zm34.298 10.444a28.31 28.31 0 01-.722 4.312c-.273 1.024-.621 2.115-1.226 2.127-.288-.144-1.184-1.598-1.863-6.525-.319-2.27-1.525-2.871-2.482-2.979-.031.002-.063.004-.095.009a1.038 1.038 0 00-.096-.009c-.957.108-2.166.712-2.481 2.98-.68 4.928-1.576 6.38-1.8 6.512-.667 0-1.016-1.093-1.291-2.121a28.344 28.344 0 01-.72-4.302 11.777 11.777 0 00-1.317-4.084c-.029-.056-.049-.109-.079-.168a26.502 26.502 0 00-.745-1.294 14.34 14.34 0 01-1.123-2.131c-.04-.104-.078-.212-.116-.32 2.197-.044 4.21-.13 6.02-.244v1.958c0 .464.373.841.833.841h5.832a.838.838 0 00.834-.841v-2.667c2.724-.36 4.211-.685 4.346-.715a.843.843 0 00.444-1.396.828.828 0 00-.806-.246c-.032.007-1.416.308-3.984.652V7.725a.838.838 0 00-.834-.841h-5.833a.837.837 0 00-.833.841V9.96c-1.937.125-4.095.219-6.474.262-.404-2.129-.215-4.519 1.362-6.042 2.094-2.028 6.049-1.992 8.3.08a.747.747 0 00.109.065.88.88 0 00.141.085c.051.017.103.03.156.037a.516.516 0 00.311 0 .691.691 0 00.154-.037.847.847 0 00.142-.085.821.821 0 00.11-.066c2.25-2.071 6.203-2.109 8.301-.079 2.097 2.03 1.738 5.596.791 8.032-.314.741-.69 1.455-1.124 2.132-.255.424-.51.851-.743 1.293-.029.054-.05.107-.078.16l-.004.01a11.74 11.74 0 00-1.317 4.081zM39.994 9.444c-1.207.14-2.598.277-4.165.398V8.565h4.165v.879zm0 1.699v1.626h-4.165v-1.233c1.565-.119 2.95-.254 4.165-.393z"/></svg>