<svg xmlns="http://www.w3.org/2000/svg" width="15" height="12"><path fill-rule="evenodd" fill="#FFDA00" d="M13.787 5.471a.898.898 0 00.248-.957.961.961 0 00-.793-.635l-3.257-.451a.192.192 0 01-.148-.101L8.38.519a.983.983 0 00-.88-.521c-.377 0-.714.2-.881.521L5.162 3.327a.192.192 0 01-.147.101l-3.258.451a.963.963 0 00-.793.635.897.897 0 00.249.957L3.57 7.656a.181.181 0 01.056.165l-.556 3.085a.908.908 0 00.391.914c.304.21.7.238 1.034.071l2.913-1.456a.203.203 0 01.183 0l2.914 1.456a1.027 1.027 0 001.034-.071.909.909 0 00.39-.914l-.556-3.085a.181.181 0 01.056-.165l2.358-2.185z"/></svg>