<svg xmlns="http://www.w3.org/2000/svg" width="38" height="39"><path fill-rule="evenodd" fill="#6EB8E8" d="M27.161 18.51c4.834-.011 8.96 3.58 9.74 8.473.78 4.894-2.018 9.646-6.603 11.215-4.585 1.568-9.601-.509-11.841-4.904-2.239-4.394-1.038-9.807 2.834-12.775a10.8 10.8 0 01-1.899-2.652c-.289.006-.576.006-.863.006a63.92 63.92 0 01-6.018-.28 11.988 11.988 0 01-.718 1.541 11.31 11.31 0 01-4.985 4.604c-.437.213-.893.403-1.351.593-1.485.616-2.887 1.202-3.688 2.523a3.885 3.885 0 00-.034 3.767c.731 1.333 2.392 1.85 3.625 1.776 2.512-.16 4.984-1.693 7.782-4.824a.605.605 0 01.871-.039.645.645 0 01.038.894c-1.905 2.131-4.87 4.993-8.615 5.232-.106.01-.215.01-.324.01-1.797.053-3.488-.868-4.451-2.425a5.143 5.143 0 01.061-5.057c1.011-1.67 2.667-2.361 4.27-3.029a25.6 25.6 0 001.29-.565 10.06 10.06 0 004.443-4.093c.187-.337.355-.685.504-1.042C5.305 16.749.648 15.14.648 12.69V6.617c-.01-.515.253-.994.688-1.251.2-.818.913-1.396 1.736-1.407h.085a1.798 1.798 0 011.616 1.072 2.337 2.337 0 011.362-.439h.802a2.4 2.4 0 011.862.885 2.35 2.35 0 011.036-.253h1.357a2.32 2.32 0 011.171.326V4.378c.019-1.698 1.173-3.161 2.788-3.534a3.354 3.354 0 013.003.969 3.48 3.48 0 01.992 2.458v1.911c.356-.211.76-.323 1.171-.325h1.973a2.342 2.342 0 011.524.569 2.385 2.385 0 012.053-1.202h1.356c.36.003.715.09 1.039.253a2.4 2.4 0 011.859-.885h.802c.487 0 .963.153 1.363.438a1.799 1.799 0 011.616-1.071h.085a1.824 1.824 0 011.735 1.407c.435.257.699.736.689 1.251v6.073c0 3.111-7.527 4.867-15.61 5.143a9.436 9.436 0 001.541 1.977 9.611 9.611 0 014.819-1.3zM3.731 5.869a.614.614 0 00-.574-.645h-.085a.615.615 0 00-.575.645v1.147c0 .076.014.739.48.739.408 0 .754-.495.754-1.081v-.805zm3.206-.012h-.802c-.647 0-1.171.538-1.171 1.202v2.55c-.016.365.123.721.383.972.259.251.612.374.967.337H6.4c.373.001.734-.123 1.03-.354V7.692c0-.499.148-.987.425-1.397a1.203 1.203 0 00-.918-.438zm.751 6.014c-.4.204-.841.311-1.288.313h-.086a2.433 2.433 0 01-1.836-.713 2.565 2.565 0 01-.747-1.862v-.766a1.708 1.708 0 01-.754.177c-.407.007-.8-.149-1.096-.435v4.105c0 1.231 3.601 2.833 9.791 3.546.33-1.131.537-2.295.617-3.472a3.173 3.173 0 01-1.955.685h-.095c-1.087.07-2.103-.559-2.551-1.578zm4.675-4.179c0-.664-.525-1.202-1.171-1.202H9.835c-.647 0-1.172.538-1.172 1.202v2.983a1.5 1.5 0 00.458 1.118c.301.288.708.43 1.118.391h.095c1.118-.004 2.025-.932 2.029-2.08V7.692zm5.55-3.421a2.248 2.248 0 00-.779-1.702 2.13 2.13 0 00-1.772-.478c-1.021.272-1.742 1.206-1.766 2.287v1.804c.357-.211.76-.323 1.172-.325h1.973c.411.002.815.114 1.172.325V4.271zm0 4.053c0-.318-.124-.624-.344-.849a1.154 1.154 0 00-.828-.353h-1.973c-.647 0-1.172.539-1.172 1.202v3.86c0 .345 0 1.265 1.85 1.265h.106c1.302-.001 2.358-1.083 2.361-2.419V8.324zm.195 5.291a3.538 3.538 0 01-2.556 1.1h-.106a3.669 3.669 0 01-2.072-.512 16.408 16.408 0 01-.45 2.165c1.704.154 3.576.244 5.605.244v-.004l.313-.002c-.35-.967-.596-1.97-.734-2.991zm5.354-5.291c0-.663-.525-1.202-1.172-1.202h-1.973c-.647 0-1.171.539-1.171 1.202v2.588c0 .064.006.122.006.186.037 1.308 1.079 2.348 2.354 2.351h.106c1.85 0 1.85-.92 1.85-1.265v-3.86zm4.933-.632c0-.664-.525-1.202-1.172-1.202h-1.356c-.647 0-1.172.538-1.172 1.202v2.41c.003 1.148.91 2.078 2.029 2.082h.095c.409.039.816-.103 1.117-.39.301-.288.468-.695.459-1.117V7.692zm3.699-.614a1.223 1.223 0 00-.338-.861 1.16 1.16 0 00-.833-.36h-.802c-.354.003-.69.165-.918.443.276.409.425.894.425 1.392v2.869c.296.232.657.357 1.03.357h.086c.355.037.708-.086.967-.337.26-.251.399-.607.383-.972V7.078zm2.467-1.209a.614.614 0 00-.574-.645h-.085a.613.613 0 00-.574.645v.805c0 .586.345 1.081.753 1.081.466 0 .48-.663.48-.739V5.869zm.616 6.821V8.585a1.538 1.538 0 01-1.096.435 1.7 1.7 0 01-.753-.177v.766c.012.7-.258 1.374-.748 1.862a2.432 2.432 0 01-1.836.713h-.086a2.866 2.866 0 01-1.288-.313c-.448 1.019-1.464 1.648-2.551 1.578h-.095a3.179 3.179 0 01-2.07-.782c-.144.849-.751 2.048-3.042 2.048h-.106a3.502 3.502 0 01-2.084-.69c.158.88.41 1.739.752 2.562 9.337-.228 15.003-2.351 15.003-3.897zm-14.12 9.68c-2.468 2.533-3.207 6.343-1.871 9.653 1.336 3.31 4.484 5.468 7.975 5.468 4.766-.005 8.628-3.968 8.633-8.858 0-3.582-2.103-6.812-5.329-8.183-3.226-1.371-6.939-.613-9.408 1.92zm12.346 1.758c.347.356.542.838.542 1.342 0 .503-.195.986-.542 1.342l-7.399 7.592a1.828 1.828 0 01-1.309.556c-.49 0-.961-.2-1.307-.556l-2.467-2.53a1.924 1.924 0 01-.542-1.343c0-.503.195-.985.542-1.342a1.861 1.861 0 012.616 0l1.158 1.188 6.091-6.249a1.86 1.86 0 012.617 0zm-9.144 7.591l-1.594-1.635a.607.607 0 00-.6-.172.622.622 0 00-.44.451.644.644 0 00.168.616l2.466 2.53a.622.622 0 00.872 0l7.399-7.592a.638.638 0 00.181-.447.638.638 0 00-.181-.449.622.622 0 00-.872 0l-6.527 6.698a.606.606 0 01-.872 0z"/></svg>