<svg xmlns="http://www.w3.org/2000/svg" width="36" height="36"><path fill-rule="evenodd" fill="#6EB8E8" d="M32.642 21.212L27.02 26.32c-.25.228-.576.355-.915.355-.023 0-.047-.006-.07-.006a32.39 32.39 0 01-.861 4.693c-.384 1.429-1.105 4.103-3.402 4.103-1.802 0-3.196-3.44-4.142-10.225-.324-2.285-1.328-2.474-1.805-2.529-.413.048-1.454.194-1.784 2.531-.946 6.783-2.34 10.223-4.142 10.223-2.297 0-3.018-2.674-3.404-4.109a38.313 38.313 0 01-1.027-6.042 14.146 14.146 0 00-1.706-5.095c-.3-.563-.636-1.119-.962-1.657a20.676 20.676 0 01-1.653-3.124C-.402 11.489-.823 6.091 2.631 2.783c3.389-3.252 9.43-3.328 13.205-.262A10.747 10.747 0 0125.369.71c.059-.045.121-.087.18-.134l.192-.155a.588.588 0 01.733 0l.193.155a17.505 17.505 0 008.036 3.586.585.585 0 01.489.578v10.714a7.794 7.794 0 01-2.55 5.758zM16.231 3.727a.588.588 0 01-.791 0C12.195.767 6.482.721 3.443 3.629.405 6.537.83 11.415 2.236 15.009c.436 1.025.96 2.011 1.564 2.946.338.551.683 1.121.998 1.712a15.31 15.31 0 011.836 5.517c.177 1.976.509 3.936.991 5.862.425 1.573.984 3.246 2.274 3.246.586 0 1.964-1.925 2.98-9.213.305-2.17 1.278-3.362 2.886-3.538a.665.665 0 01.141 0c1.608.178 2.579 1.368 2.886 3.536 1.017 7.29 2.393 9.215 2.98 9.215 1.29 0 1.849-1.673 2.276-3.241.419-1.634.713-3.296.88-4.975l-5.356-4.865a7.788 7.788 0 01-2.548-5.757V4.74c0-.286.207-.531.489-.578a17.502 17.502 0 006.582-2.552 9.417 9.417 0 00-7.864 2.117zm17.788 1.502a18.665 18.665 0 01-7.911-3.601 18.67 18.67 0 01-7.912 3.601v10.223a6.62 6.62 0 002.165 4.889l5.622 5.109a.183.183 0 00.25 0l5.622-5.107a6.618 6.618 0 002.164-4.889V5.229zm-7.517 18.395a.587.587 0 01-.789 0l-4.565-4.147a5.448 5.448 0 01-1.781-4.023V6.623c0-.264.178-.496.434-.565a19.817 19.817 0 005.977-2.742.589.589 0 01.658 0 19.82 19.82 0 005.977 2.743c.255.069.433.3.433.565v8.83a5.448 5.448 0 01-1.778 4.023l-4.566 4.147zm5.171-16.556a21.025 21.025 0 01-5.567-2.563 20.964 20.964 0 01-5.567 2.563v8.387a4.27 4.27 0 001.397 3.155l4.172 3.788 4.169-3.788a4.27 4.27 0 001.396-3.156V7.068zm-6.941 10.811h-.098a1.748 1.748 0 01-1.244-.515l-1.759-1.758a1.755 1.755 0 010-2.488 1.805 1.805 0 012.488 0l.369.371 3.465-4.328a1.762 1.762 0 013.029.45c.228.591.12 1.259-.282 1.748l-4.692 5.862c-.312.391-.776.63-1.276.658zm5.176-7.685a.586.586 0 00-1.042-.302l-3.871 4.839v-.001a.584.584 0 01-.873.049l-.833-.833a.588.588 0 10-.829.83l1.759 1.758c.11.111.26.172.415.172h.032a.587.587 0 00.424-.219l4.693-5.862a.588.588 0 00.125-.431zM13.489 9.086a4.696 4.696 0 00-4.692 4.69.586.586 0 01-1.173 0 4.697 4.697 0 00-4.693-4.69.586.586 0 110-1.172 4.697 4.697 0 004.693-4.69.586.586 0 011.173 0 4.696 4.696 0 004.692 4.69.586.586 0 110 1.172zM8.21 5.778A5.903 5.903 0 015.487 8.5a5.899 5.899 0 012.723 2.722A5.903 5.903 0 0110.933 8.5 5.908 5.908 0 018.21 5.778z"/></svg>