<svg xmlns="http://www.w3.org/2000/svg" width="15" height="12"><path fill-rule="evenodd" fill="#9D9BAE" d="M13.786 5.471a.897.897 0 00.249-.957.966.966 0 00-.793-.636l-3.257-.45a.194.194 0 01-.148-.101L8.38.519a.982.982 0 00-.88-.52c-.377 0-.714.2-.881.52L5.162 3.327a.192.192 0 01-.147.101l-3.258.45a.966.966 0 00-.792.636.895.895 0 00.248.957L3.57 7.656a.181.181 0 01.057.165l-.557 3.085a.908.908 0 00.391.914c.304.21.701.237 1.034.071l2.913-1.457a.21.21 0 01.183 0l2.914 1.457a1.027 1.027 0 001.034-.071.909.909 0 00.39-.914l-.556-3.085a.18.18 0 01.056-.165l2.357-2.185z"/></svg>