<svg xmlns="http://www.w3.org/2000/svg" width="31" height="31"><path fill-rule="evenodd" fill="#50AFF9" d="M30.728 21.512l-3.645 6.283C25.936 29.772 23.818 31 21.556 31H2.395c-1.088 0-1.973-.898-1.973-2.001 0-1.102.885-1.999 1.973-1.999h.274a2.01 2.01 0 01-.274-1v-4a6.5 6.5 0 014.296-6.129 4.01 4.01 0 01-1.83-3.372c0-2.205 1.77-4 3.945-4 .375 0 .735.057 1.078.156a7.59 7.59 0 01-.091-1.156c0-4.135 3.318-7.5 7.397-7.5 4.079 0 7.398 3.365 7.398 7.5a7.462 7.462 0 01-1.521 4.534c1.69.226 3 1.693 3 3.466a3.506 3.506 0 01-1.626 2.965c.122.065.244.128.36.206a3.97 3.97 0 011.634 2.352l.891-1.536a1.976 1.976 0 011.701-.986c.35 0 .696.095.999.275a2.019 2.019 0 01.702 2.737zM3.381 22v2.277c.292-.171.626-.277.987-.277h.329l2.573-1.957a5.13 5.13 0 013.087-1.044c1.019 0 2.006.304 2.854.876l1.02.691V22c0-3.033-2.434-5.5-5.425-5.5-2.991 0-5.425 2.467-5.425 5.5zm12.605 3H4.368a.994.994 0 00-.987 1c0 .55.442.998.984 1h11.272a1.762 1.762 0 01-.173-.751c0-.489.201-.931.522-1.249zm3.275-10.316A7.176 7.176 0 0117.19 15a7.262 7.262 0 01-4.544-1.595 4.007 4.007 0 01-1.725 2.466A6.5 6.5 0 0115.217 22v1.232l1.136.768h.204l2.774-4.219a3.95 3.95 0 011.448-1.322 3.511 3.511 0 01-1.518-3.775zM14.575 24l-1.911-1.293A4.108 4.108 0 0010.357 22a4.15 4.15 0 00-2.496.843L6.34 24h8.235zM8.806 9.5c-1.632 0-2.959 1.345-2.959 2.999 0 1.655 1.327 3 2.959 3 1.632 0 2.959-1.345 2.959-3 0-1.654-1.327-2.999-2.959-2.999zm14.795-2.001C23.601 3.916 20.725 1 17.19 1c-3.535 0-6.411 2.916-6.411 6.499 0 .565.078 1.128.224 1.68a4.014 4.014 0 011.732 2.981A6.308 6.308 0 0017.19 14c.925 0 1.823-.207 2.674-.606a3.457 3.457 0 011.803-1.257 6.48 6.48 0 001.934-4.638zm1.48 8c0-1.378-1.106-2.5-2.466-2.5s-2.466 1.122-2.466 2.5c0 1.379 1.106 2.5 2.466 2.5s2.466-1.121 2.466-2.5zm.434 5.913a2.98 2.98 0 00-1.261-1.909 2.935 2.935 0 00-4.102.833L17.414 24.5h3.517c.258 0 .501-.14.634-.364l1.12-1.894.846.515-1.12 1.893c-.311.524-.877.85-1.48.85H17.19a.745.745 0 00-.74.749c0 .414.332.751.74.751h4.366c.87 0 1.685-.472 2.125-1.233l1.838-3.168.008-.06a3.046 3.046 0 00-.012-1.127zm4.013-1.774a1.007 1.007 0 00-1.352.355l-3.643 6.281a3.458 3.458 0 01-2.927 1.722v.003H2.395a.994.994 0 00-.986 1A.994.994 0 002.395 30h19.161a5.432 5.432 0 004.676-2.712l3.645-6.283a1.008 1.008 0 00-.349-1.367zM21.434 8.903a6.283 6.283 0 00-1.691 3.204 1.1 1.1 0 01-1.073.892c-.52 0-.972-.374-1.074-.892l-.299-1.52c-.021-.101-.193-.102-.213.001l-.3 1.519a1.1 1.1 0 01-1.073.892c-.52 0-.972-.374-1.074-.891a6.275 6.275 0 00-1.691-3.204l-.219-.222a3.329 3.329 0 01-.962-2.354C11.765 4.492 13.238 3 15.048 3h.374l.433.439A1.89 1.89 0 0017.19 4c.497 0 .984-.205 1.335-.561L18.959 3h.373c1.811 0 3.283 1.492 3.283 3.328 0 .889-.341 1.725-.962 2.354l-.219.221zM19.367 4l-.144.146a2.874 2.874 0 01-2.033.853c-.756 0-1.497-.31-2.032-.853L15.013 4c-1.25.019-2.262 1.056-2.262 2.328 0 .622.239 1.207.673 1.646l.219.223a7.27 7.27 0 011.961 3.714c.02.103.193.103.213 0l.3-1.519A1.1 1.1 0 0117.19 9.5c.52 0 .972.375 1.074.891l.299 1.52c.02.102.193.102.213 0a7.288 7.288 0 011.961-3.715l.219-.221a2.33 2.33 0 00.673-1.647c0-1.272-1.012-2.309-2.262-2.328z"/></svg>