<svg xmlns="http://www.w3.org/2000/svg" width="31" height="31"><path fill-rule="evenodd" fill="#50AFF9" d="M30.164 27.363l-.974 2.65a1.515 1.515 0 01-1.422.987 1.503 1.503 0 01-1.479-1.174l-.615-2.742a.748.748 0 00-.737-.584.75.75 0 00-.737.584l-.615 2.742a1.502 1.502 0 01-1.679 1.158V31H0l1.666-5.275c.291-.922.8-1.747 1.459-2.424-1.166-.444-1.754-1.535-1.918-2.18l-.078-.311.253-.2a6.109 6.109 0 002.336-4.812V9c0-4.963 4.08-9.001 9.094-9.001h1.352a4.93 4.93 0 014.6 3.111 4.88 4.88 0 013.142 4.552v8.136a6.11 6.11 0 001.489 3.991c.484.217.915.548 1.24.977l.303.4.303-.4A3.226 3.226 0 0127.8 19.5c1.765 0 3.2 1.42 3.2 3.166 0 1.607-.281 3.187-.836 4.697zM20.331 30h.348l-.53-1.445.182 1.445zm-7.014 0h5.996l-.434-3.439.555-.069a13.42 13.42 0 01-.459-2.269l-2.228 1.323 2.139 1.587-2.855 1.131-.375-.929 1.186-.47-1.903-1.412 2.802-1.663-.645-1.594-.932-.142-2.444 6.048.926-.367.375.929-1.704.674V30zm5.568-7.528c-.027-.004-.054-.012-.081-.016l-.548-.084.705 1.744c-.052-.48-.086-.964-.086-1.45 0-.065.006-.13.01-.194zm-4.158-7.801a10.85 10.85 0 00-3.829 0l-4.072.732c.443 2.88 2.954 5.096 5.986 5.096 3.032 0 5.544-2.216 5.986-5.096l-4.071-.732zm4.148-.27V9.736c0-1.097-.568-2.09-1.498-2.655A6.555 6.555 0 0114.022 8H8.77c-1.114 0-2.02.897-2.02 1.999v4.402l3.968-.715a11.886 11.886 0 014.189 0l3.968.715zm-3.537 7.002v-.373a7.08 7.08 0 01-2.526.47c-.891 0-1.74-.171-2.526-.47v.373l2.526 6.25 2.526-6.25zm-5.877.651l-.933.142-.644 1.594 2.801 1.663-1.881 1.397 3.048 1.12-2.391-5.916zM2.63 26.023L1.374 30h3.919l.45-3.563 1.003.125L6.312 30h5.995v-.795l-5.59-2.056 2.16-1.603-2.251-1.337.743-1.837-.548.084c-1.956.297-3.601 1.698-4.191 3.567zm-.34-4.863c.194.447.706 1.264 1.803 1.327a6.25 6.25 0 012.574-1.019l2.609-.397v-.518a7.022 7.022 0 01-3.378-4.588 2.502 2.502 0 01-1.169-.478v.311A7.093 7.093 0 012.29 21.16zm3.47-6.246c-.008-.138-.021-.275-.021-.414v-2.408a1.5 1.5 0 00-1.01 1.408c0 .658.434 1.213 1.031 1.414zm15.135-7.253a3.883 3.883 0 00-2.686-3.687l-.239-.079-.08-.237A3.918 3.918 0 0014.164 1h-1.352C8.355 1 4.729 4.589 4.729 9v2.512a2.52 2.52 0 011.01-.462V9.999C5.739 8.345 7.099 7 8.77 7h5.252a5.534 5.534 0 003.056-.916l.244-.161.262.129a4.092 4.092 0 012.301 3.684v1.314c.375.075.715.241 1.01.462V7.661zm-1.01 4.431V14.5c0 .139-.013.276-.021.414a1.499 1.499 0 001.032-1.414 1.5 1.5 0 00-1.011-1.408zm1.011 3.706v-.311a2.517 2.517 0 01-1.169.478 7.026 7.026 0 01-3.378 4.588v.518l2.608.397c.05.007.098.02.147.028a3.198 3.198 0 012.837-1.99 7.097 7.097 0 01-1.045-3.708zm6.904 4.701a2.21 2.21 0 00-1.751.867l-1.112 1.467-1.111-1.467a2.213 2.213 0 00-1.752-.867c-1.207 0-2.189.973-2.189 2.167 0 1.491.26 2.955.775 4.355l.974 2.651a.505.505 0 00.965-.063l.616-2.742a1.749 1.749 0 011.722-1.367c.833 0 1.542.562 1.724 1.367l.615 2.742a.503.503 0 00.964.063l.974-2.651c.515-1.4.776-2.865.776-4.355 0-1.194-.983-2.167-2.19-2.167zm-11.704-10.5c.696 0 1.263.561 1.263 1.25 0 .69-.567 1.25-1.263 1.25s-1.263-.56-1.263-1.25c0-.689.567-1.25 1.263-1.25zm0 1.501c.14 0 .253-.112.253-.251a.25.25 0 00-.253-.249.251.251 0 00-.253.249c0 .139.114.251.253.251zm-6.568.999c-.696 0-1.263-.56-1.263-1.25 0-.689.567-1.25 1.263-1.25.697 0 1.263.561 1.263 1.25 0 .69-.566 1.25-1.263 1.25zm0-1.499a.25.25 0 100 .5c.14 0 .253-.112.253-.251A.25.25 0 009.528 11z"/></svg>