<svg xmlns="http://www.w3.org/2000/svg" width="62.5" height="8.875"><path d="M.011 8.643h2.376l.588-4.584 1.332 4.584h1.632l1.332-4.584.588 4.584h2.376L9.011.243H6.539l-1.416 4.92L3.707.243H1.235zm10.608 0h2.64l.468-1.452h2.736l.456 1.452h2.64l-2.976-8.4h-2.976zm4.476-6.264l.9 2.964h-1.8zm6.611 6.264h2.472V2.259h1.848V.243h-6.168v2.016h1.848v6.384zm4.62 0h2.64l.468-1.452h2.736l.456 1.452h2.64L32.29.243h-2.971zm4.476-6.264l.9 2.964h-1.8zm5.436 6.264h3.192a3.944 3.944 0 003.324-1.29 4.639 4.639 0 001-2.91q0-.252-.054-.822a3.81 3.81 0 00-.342-1.206A3.87 3.87 0 0042.104.921a4.385 4.385 0 00-2.67-.678h-3.192v8.4zm2.472-2.016V2.259h.144a2.738 2.738 0 011.686.5 1.971 1.971 0 01.666 1.686 2.058 2.058 0 01-.42 1.428 2.1 2.1 0 01-.936.612 2.268 2.268 0 01-.54.12q-.264.024-.456.024h-.144zm10.62 2.256l.12-.012a4.241 4.241 0 003.378-1.332 4.6 4.6 0 001.134-3.1 4.654 4.654 0 00-1.134-3.1A4.18 4.18 0 0049.45.001h-.12a4.18 4.18 0 00-3.378 1.338 4.654 4.654 0 00-1.134 3.1 4.6 4.6 0 001.152 3.108 4.2 4.2 0 003.36 1.332zm.048-2.016a1.6 1.6 0 01-.54-.1 2.169 2.169 0 01-1.014-.714 3.05 3.05 0 010-3.228 2.169 2.169 0 011.014-.714 1.553 1.553 0 01.276-.072 1.68 1.68 0 01.276-.024 1.313 1.313 0 01.246.024q.126.024.258.06a2.175 2.175 0 011.044.7 3.051 3.051 0 01.006 3.276 2.136 2.136 0 01-1.05.7 1.276 1.276 0 01-.264.066 1.867 1.867 0 01-.252.018zm6.024 1.776h2.472v-2.58l1.656 2.58h2.964l-2.352-3.36a.234.234 0 01.048-.018.234.234 0 00.048-.018 3.036 3.036 0 001.146-.81 2.4 2.4 0 00.522-1.674 2.218 2.218 0 00-.462-1.524A2.8 2.8 0 0060.43.495a2.891 2.891 0 00-.888-.222q-.42-.03-.54-.03h-3.6v8.4zm2.472-4.62V2.091h.456a1.081 1.081 0 01.828.264 1.021 1.021 0 01.276.576v.216a1.016 1.016 0 01-.264.6 1.07 1.07 0 01-.84.276h-.456z" fill="#6eb8e8" fill-rule="evenodd"/></svg>