<svg xmlns="http://www.w3.org/2000/svg" width="116" height="116" viewBox="0 0 116 116">
    <path fill="#B1C3D5" fill-rule="evenodd" d="M68.227 88.258l7.21 4.992c-.554 2.773-2.218 4.946-4.992 6.518-2.773 1.571-5.916 2.357-9.43 2.357h-24.96a7.95 7.95 0 0 0-3.606.832l-14.699 12.48v-13.312h-4.438c-3.697 0-6.84-1.063-9.43-3.19C1.295 96.81 0 94.083 0 90.755V54.977c0-3.513 1.248-6.472 3.744-8.875 2.496-2.404 5.5-3.606 9.014-3.606h.555v28.012c0 4.622 1.756 8.505 5.269 11.648 3.513 3.143 7.673 4.715 12.48 4.715h32.45c1.664 0 3.235.462 4.715 1.387zM97.902.063c4.808 0 8.922 1.617 12.342 4.853 3.42 3.236 5.131 7.165 5.131 11.787v46.594c0 4.622-1.71 8.551-5.13 11.787-3.421 3.236-7.535 4.853-12.343 4.853h-4.715v17.75l-20.8-16.64c-.74-.74-2.311-1.11-4.715-1.11H39.66c-4.807 0-8.921-1.617-12.342-4.853-3.42-3.236-5.13-7.165-5.13-11.787V16.703c0-4.807 1.386-8.782 4.16-11.926C29.12 1.634 32.91.062 37.718.062h60.184z"/>
</svg>
