<svg xmlns="http://www.w3.org/2000/svg" width="22" height="7" viewBox="0 0 22 7">
    <path fill="#B1C3D5" fill-rule="evenodd" d="M19.314 6.082h-.58c-.014 0-.028-.007-.043-.021a.352.352 0 0 0-.086-.022 2.631 2.631 0 0 1-.859-.28 2.647 2.647 0 0 1-.709-.536 2.853 2.853 0 0 1-.494-.73 2.237 2.237 0 0 1-.215-.86c-.057-.673.09-1.268.44-1.783.351-.516.842-.867 1.472-1.053.043-.014.093-.029.15-.043.058-.014.119-.029.183-.043.065-.014.118-.029.161-.043h.623l.086.043a2.68 2.68 0 0 1 1.45.698c.409.38.67.849.785 1.407l.064.258v.623a.233.233 0 0 1-.043.086 2.604 2.604 0 0 1-.687 1.429c-.373.394-.831.655-1.375.784l-.194.065a.588.588 0 0 1-.129.021zM2.814.668h.58c.015 0 .03.007.043.021l.086.022c.416.057.792.2 1.128.43.337.229.61.519.817.87.207.35.318.727.333 1.128a2.77 2.77 0 0 1-.462 1.772 2.6 2.6 0 0 1-1.472 1.064c-.043 0-.2.035-.472.107h-.58a.165.165 0 0 1-.065-.021.165.165 0 0 0-.064-.022C1.583 5.84.852 5.194.494 4.105a3.375 3.375 0 0 1-.043-.14 1.069 1.069 0 0 1-.032-.16.417.417 0 0 0-.032-.13v-.6l.021-.022a.352.352 0 0 0 .022-.086c.057-.373.179-.713.365-1.02a2.56 2.56 0 0 1 .72-.774c.293-.208.626-.355.999-.44.057-.015.157-.036.3-.065zm7.95 0h.601l.054.021c.036.015.06.022.075.022.616.1 1.142.383 1.58.849.436.465.669.999.697 1.6.03.688-.143 1.293-.515 1.816a2.547 2.547 0 0 1-1.504 1.02 5.45 5.45 0 0 0-.387.086h-.601c-.015 0-.029-.007-.043-.021l-.086-.022a2.583 2.583 0 0 1-1.58-.838c-.436-.472-.669-1.01-.698-1.611a2.835 2.835 0 0 1 .065-.784c.057-.251.143-.487.258-.71.114-.221.254-.422.419-.6.164-.18.354-.33.569-.452.215-.122.451-.218.709-.29a5.45 5.45 0 0 0 .387-.086z"/>
</svg>
