<svg xmlns="http://www.w3.org/2000/svg" width="22" height="23" viewBox="0 0 22 23">
    <path fill="#4A90E2" fill-rule="evenodd" d="M16.521 2.232a10.782 10.782 0 0 1 4.007 3.997C21.51 7.919 22 9.759 22 11.75c0 1.99-.49 3.831-1.472 5.521a10.863 10.863 0 0 1-4.007 4.007c-1.69.981-3.53 1.472-5.521 1.472-1.99 0-3.831-.49-5.521-1.472a10.863 10.863 0 0 1-4.007-4.007C.49 15.581 0 13.741 0 11.75c0-1.99.49-3.831 1.472-5.521a10.863 10.863 0 0 1 4.007-4.007C7.169 1.24 9.009.75 11 .75c1.99 0 3.831.494 5.521 1.482zM15.404 15.08l-3.308-3.33 3.308-3.33a.752.752 0 0 0 .011-1.085.746.746 0 0 0-.548-.226.803.803 0 0 0-.558.215L11 10.654l-3.309-3.33a.803.803 0 0 0-.558-.215.746.746 0 0 0-.548.226.746.746 0 0 0-.226.548c0 .215.08.394.237.537l3.308 3.33-3.308 3.33a.696.696 0 0 0-.237.537c0 .215.076.398.226.548.15.15.333.226.548.226a.803.803 0 0 0 .558-.215L11 12.846l3.309 3.33a.803.803 0 0 0 .558.215.746.746 0 0 0 .548-.226.746.746 0 0 0 .226-.548.696.696 0 0 0-.237-.537z"/>
</svg>
