<?xml version="1.0" encoding="utf-8"?>
<!-- Generator: Adobe Illustrator 18.1.1, SVG Export Plug-In . SVG Version: 6.00 Build 0)  -->
<svg version="1.1" xmlns="http://www.w3.org/2000/svg" xmlns:xlink="http://www.w3.org/1999/xlink" x="0px" y="0px"
	 viewBox="0 0 210 185" enable-background="new 0 0 210 185" xml:space="preserve">
<g id="Layer_1">
</g>
<g id="Layer_2">
	<g>
		<g>
			<g>
				<path fill-rule="evenodd" clip-rule="evenodd" d="M101.8,59.3L101.8,59.3L101.8,59.3c-0.5-0.1-1.5,0.6-2.3,1.1
					c-0.3,0.2-0.6,0.4-0.8,0.6c0.8,0.1,1.4,0.2,1.6,0.5c0.1,0.1,0.2,0.3,0.2,0.4c0,0.2-0.1,0.3-0.2,0.5c-0.3,0.4-1,0.7-1.7,0.8
					c0.1,0.2,0.1,0.4,0.1,0.6c0,0.2-0.1,0.4-0.2,0.7v0l0,0c-0.2,0.4-0.5,0.7-0.7,1.1c-0.2,0.3-0.5,0.7-0.8,1
					c-0.2,0.3-0.5,0.6-0.7,0.9c-0.3,0.3-0.5,0.6-0.8,0.8c-0.2,0.2-0.4,0.5-0.7,0.7c-0.6,0.6-1.1,1.2-1.7,1.7l0,0l0,0
					c-0.5,0.5-1.1,0.9-1.7,1.3c-0.6,0.4-1.2,0.8-1.7,1.3c0,0.1-0.1,0.1-0.1,0.2c-0.1,0.1-0.2,0.2-0.2,0.3l0,0c0,0.1-0.1,0.1-0.1,0.2
					C89.1,74,89,74.1,89,74.2l0,0l0,0.1c-0.1,0.5-0.1,0.8-0.7,1l0,0h0c-0.8,0-1.4,0.2-1.9,0.6c-0.5,0.4-1,0.9-1.5,1.4v0
					c-1,1.1-1.8,2.1-2.3,3.2l0,0c-0.5,1.1-0.8,2.2-1.1,3.7l0,0.1c-0.1,0.7-0.2,1.4-0.9,1.8h0h0c-0.9,0.3-1.7-0.1-2.4-0.6
					c-0.7-0.6-1.3-1.3-1.7-1.9l0,0c-0.7-1-0.1-1.5,0.4-2c0.3-0.2,0.5-0.4,0.5-0.6c-0.1-0.1-0.1-0.1-0.2-0.2
					c-0.2-0.1-0.4-0.3-0.4-0.5c-0.1-1-0.5-1.1-1.1-1.3c-0.2,0-0.3-0.1-0.5-0.2c0.3,0.3,0.5,0.7,0.8,1.1l0,0v0l0,0
					c0.2,0.4,0.4,0.9,0.5,1.4c0,0.2,0,0.4-0.1,0.6l0,0c-0.1,0.2-0.2,0.3-0.4,0.4l0,0c-0.1,0.1-0.3,0.1-0.5,0.1h0
					c-0.4,0-0.7,0-1.1-0.1c-0.3,0-0.6-0.1-0.9-0.1c0.2,0.1,0.3,0.2,0.5,0.4l0,0c0.3,0.3,0.6,0.7,0.8,1c0.2,0.4,0.2,0.8-0.2,1.2
					l-0.1,0.2l0,0c-0.2,0.3-0.5,0.6-0.6,0.9c-0.2,0.4-0.1,0.7,0.6,1h0l0,0c0.1,0,0.2,0.1,0.3,0.1c0.1,0,0.2,0.1,0.4,0.1
					c0.6,0.2,1.3,0.3,2,0.4l0.1,0l0,0c0.3,0,0.5,0.1,0.8,0.2l0,0c0.5,0.2,0.9,0.3,1.4,0.3c0.5,0,0.9-0.2,1.3-0.3l0,0h0
					c0.2,0,0.3-0.1,0.5-0.1c0.2-0.1,0.5-0.1,0.8-0.1l0,0h0c1.3,0.2,1.1,1.3,1,2.3c0,0.1,0,0.2,0,0.2l0,0l0,0c0,0.3,0.2,0.6,0.4,0.8
					l0,0l0.1,0.1c0.1,0.1,0.2,0.2,0.3,0.2c0.1,0.1,0.2,0.2,0.3,0.2c0.5,0.4,1.1,0.7,1.7,1l0,0l0,0l0.1,0c0.1,0.1,0.2,0.1,0.3,0.3
					c0.1,0.1,0.2,0.2,0.2,0.2c0.7,0.7,1.3,1.2,2.5,0.8h0h0c0.9-0.2,1.8-0.3,2.7-0.5c0.6-0.1,1.2-0.2,1.8-0.3c0.1,0,0.2,0,0.3,0
					c0.1,0,0.2,0,0.3,0h0h0c0.5,0,0.9,0,1.2,0.1c0.4,0.1,0.6,0.3,0.9,0.8c0.2,0.3,0.3,0.4,0.5,0.5l0,0c0.2,0.1,0.4,0.1,0.7,0.1h0
					l0,0c0.5,0,0.9,0,1.4,0c0.5,0,1,0,1.4,0.2c0.4,0.1,0.7,0.4,0.9,0.6c0.1,0.1,0.1,0.2,0.1,0.3c0,0.1,0,0.2-0.1,0.3l0,0
					c-0.1,0.1-0.3,0.2-0.6,0.2h0c-0.7,0.1-1.3,0.1-2,0.1c-0.8,0-1.6,0-2.3,0.1c-0.5,0.1-1,0-1.5-0.1c-0.2-0.1-0.4-0.2-0.5-0.3l0,0
					c-0.1-0.1-0.2-0.3-0.1-0.5c0-0.2,0.2-0.4,0.4-0.6c-0.1-0.1-0.2-0.1-0.4-0.1c-0.2,0-0.4,0-0.6-0.1c-1.2,0-3,0.3-3.6,0.6
					c-0.2,0.1-0.3,0.2-0.4,0.3c-0.2,0.2-0.3,0.3-0.7,0.1c-0.3,0-0.5,0.1-0.8,0.1c-0.3,0-0.6,0-0.8,0h0h0c-0.2,0-0.3,0-0.5,0
					c-0.2,0-0.4,0-0.5,0l0,0l0,0c-0.2-0.2-0.3-0.3-0.4-0.5c-0.1-0.2-0.3-0.3-0.4-0.5c-0.2-0.2-0.4-0.3-0.5-0.5
					c-0.2-0.2-0.4-0.3-0.6-0.4l0,0c-0.8-0.4-1.2-0.7-1.8-1.2l0,0l-0.1-0.1C82.2,92.2,82.1,92,82,92c-0.2-0.2-0.5-0.4-0.7-0.6l0,0
					c-0.5-0.6-0.4-0.9-0.2-1.6l0,0c0-0.1,0.1-0.2,0.1-0.2c0,0-0.2,0.1-0.3,0.1c-0.6,0.2-1.8,0.5-3.1,0.3c-0.4-0.1-0.6-0.2-0.7-0.3
					c-0.2-0.1-0.4-0.3-0.8-0.3c-0.1,0-0.1,0-0.2,0c-0.1,0-0.1,0-0.2,0c-0.4-0.1-0.8-0.3-1-0.5c-0.1,0-0.1-0.1-0.2-0.1
					c-0.1,0-0.2,0-0.3,0c-0.6,0.1-1.1,0.1-1.5,0c-0.4-0.1-0.7-0.3-0.9-0.6c-0.2-0.3-0.2-0.6-0.2-1.1c0-0.5,0.3-1.1,0.7-1.8
					c0.1-0.2,0.2-0.3,0.2-0.5c0.1-0.2,0.1-0.3,0.2-0.5c-0.1-0.2-0.4-0.5-0.7-0.7c-0.2-0.2-0.5-0.4-0.7-0.6c-0.7-0.9-0.5-1.4,0-1.7
					c0.5-0.3,1.3-0.4,2-0.5l0,0c0.2,0,0.5,0,0.7,0c0.1,0,0.2,0,0.2,0l-0.1-0.1l-0.1-0.1C73.9,80,73.5,79.5,73,79
					c-0.4-0.4-0.7-0.8-1.1-1.3h0c-0.3-0.4-0.4-0.8-0.4-1c0-0.2,0.1-0.4,0.2-0.5c0.1-0.1,0.3-0.1,0.6-0.1c0.5,0,1.2,0.2,1.8,0.4l0,0
					h0c0.4,0.1,0.8,0.3,1.3,0.4c0.7,0.2,1.4,0.4,2,0.7c0.5,0.2,0.8,0.5,1,0.9c0.2,0.3,0.3,0.8,0.3,1.3c0,0.1,0.1,0.2,0.1,0.3
					c0,0.1,0.1,0.2,0.1,0.3l0,0l0.4,0.7c0.1,0,0.2,0.1,0.3,0.4c0.1,0.3,0.3,0.6,0.4,1.2c0.1-0.2,0.2-0.6,0.3-1.1
					c0.1-0.6,0.3-1.2,0.4-1.6c0.4-1,1-1.9,1.7-2.6c0.7-0.8,1.5-1.5,2.4-2.1h0c0.3-0.2,0.7-0.4,1-0.6c0.5-0.3,1-0.6,1.5-1
					c0.3-0.3,0.5-0.6,0.7-0.9c0.2-0.3,0.3-0.5,0.5-0.7c0.3-0.4,0.7-0.7,1-1c0.4-0.3,0.8-0.7,1.3-1c0.2-0.2,0.4-0.3,0.6-0.4
					c0.3-0.3,0.7-0.5,1-0.8c0.3-0.3,0.6-0.6,0.9-0.9l0,0l0,0c0.2-0.3,0.5-0.6,0.7-0.8c0.6-0.8,1.3-1.6,2-2.3
					c0.1-0.1,0.1-0.2,0.2-0.3c0.1-0.1,0.1-0.2,0.1-0.2c-0.3-0.2-0.5-0.4-0.5-0.7c0-0.2,0-0.4,0.1-0.8c-0.4-0.1-0.6-0.2-0.8-0.3
					c-0.2-0.1-0.3-0.3-0.4-0.5c0-0.2,0-0.4,0.1-0.6c0.1-0.2,0.3-0.5,0.6-0.7l0,0c0.5-0.3,1-0.5,1.5-0.8c0.6-0.2,1.3-0.5,1.9-1
					l0.2-0.1c1-0.7,1.5-1.2,2.8-1.2c0.8,0,1.3-0.1,1.7-0.3c0.4-0.2,0.8-0.7,1.3-1.3l0,0c0.3-0.5,0.4-1.3,0.5-1.9l0,0
					c0,0,0,0.1,0,0.1v0v0c-0.2,0.3-0.5,0.6-0.8,0.7c-0.2,0.1-0.3,0.1-0.5,0.1c-0.2,0-0.3-0.1-0.4-0.2c-0.1-0.1-0.2-0.3-0.2-0.5l0,0
					c0-0.4-0.1-0.7-0.2-0.9l0,0c-0.1-0.3-0.2-0.5-0.5-0.7c-0.2,0.1-0.5,0.2-0.7,0.2c-0.2,0.1-0.4,0.1-0.7,0.2v0l0,0
					c-0.3,0-0.4,0.1-0.6,0.1c-0.2,0-0.4,0-0.6,0h0l0,0c-0.5,0-0.9-0.1-1.3-0.2l0,0c-0.1,0-0.1-0.1-0.2-0.1c-0.3-0.2-0.5-0.4-0.7-0.7
					c-0.1,0.1-0.2,0.2-0.3,0.3l0,0l0,0l0,0h0l0,0c-0.1,0-0.2,0.1-0.3,0.1c-0.1,0-0.2,0.1-0.3,0.1c-0.6,0.1-1.2-0.1-1.6-0.5l0,0l0,0
					l0,0c0,0-0.1-0.1-0.1-0.1l0,0c0-0.1-0.1-0.1-0.1-0.2c-0.1-0.3-0.1-0.6,0.1-0.9c-0.3,0-0.5-0.1-0.7-0.1c-0.1-0.1-0.2-0.1-0.3-0.2
					c-0.1-0.1-0.1-0.2-0.1-0.4c0-0.2,0.1-0.5,0.2-0.8c-0.2-0.1-0.4-0.3-0.6-0.5c-0.1-0.2-0.2-0.4-0.1-0.7v0l0,0v0l0,0
					c0,0,0-0.1,0-0.1c0,0,0,0,0,0l0,0c0,0,0,0,0,0h0l0,0c-0.2-0.2-0.4-0.3-0.5-0.5C93,47.3,93,47.1,93,46.9c0-0.2,0.2-0.5,0.3-0.7
					c0.4-0.5,0.9-0.9,1.3-1.2c-0.2-0.2-0.3-0.4-0.4-0.6c-0.1-0.2-0.1-0.5-0.1-0.7c0.1-0.2,0.2-0.4,0.4-0.6c0.2-0.2,0.5-0.4,0.9-0.6
					l0,0h0l0,0c0.1,0,0.2-0.1,0.2-0.1c0.1,0,0.2-0.1,0.3-0.1c0.5-0.1,1.1-0.3,1.5-0.3l0.1,0l0,0c0.3,0,0.4,0,0.6-0.4l0,0
					c0.3-0.5,0.4-0.7,0.4-0.9c-0.1-0.2-0.4-0.4-0.9-0.6l0,0l0,0c-0.3-0.2-0.5-0.4-0.6-0.6c-0.1-0.2-0.1-0.4-0.1-0.5
					c0-0.2,0.1-0.3,0.2-0.5c0.1-0.1,0.2-0.2,0.4-0.2h0l0.5-0.1l0.1,0l0,0l0,0c0-0.1,0-0.2-0.1-0.3l0,0v0l0,0v0l-0.1-0.2l0,0l0,0
					c0-0.3,0.1-0.3,0.1-0.4l0,0l0,0c0,0,0,0-0.1,0.1l0,0c-0.1,0.1-0.2,0.2-0.4,0.4v0l0,0h0l0,0c-0.3,0.2-0.5,0.3-0.8,0.3
					c-0.2,0-0.3,0-0.4-0.1c-0.1-0.1-0.2-0.2-0.3-0.4l0,0c-0.1-0.2-0.1-0.5,0.1-0.9c0.3-1,1.4-3.3,2.9-4.9c0.6-0.7,1.3-1.3,2-1.6
					c0.7-0.3,1.4-0.3,2.1,0.1c0.5,0.3,0.9,0.8,1.4,1.5c0,0.1,0.1,0.1,0.1,0.2c0.1,0.2,0.2,0.3,0.2,0.3c0.1,0,0.2,0,0.5-0.1l0,0
					l0.1,0l0,0h0c0.6-0.1,1.2-0.1,1.8,0l0.1,0c0.3,0,0.7,0.1,1,0.1l0,0c0.3,0,0.7,0.1,1,0.2h0.1c0-0.1,0.1-0.2,0.1-0.4
					c0-0.1,0.1-0.3,0.1-0.4c0.1-0.4,0.2-0.7,0.4-1.1c0.1-0.4,0.3-0.7,0.4-1l0,0c0-0.1,0.1-0.1,0.1-0.2l0,0c0-0.1,0.1-0.1,0.1-0.2
					l0,0c0.2-0.4,0.6-0.7,0.9-1c0.2-0.1,0.3-0.3,0.4-0.4c0.1-0.1,0.3-0.3,0.4-0.4l0,0c0.3-0.3,0.7-0.7,1.1-1
					c0.4-0.3,0.8-0.6,1.2-0.9h0c0.4-0.2,0.8-0.3,1-0.2c0.1,0,0.3,0.1,0.4,0.1c0.1,0.1,0.2,0.2,0.3,0.3c0.2,0.3,0.2,0.6,0.1,1.1
					c-0.1,0.5-0.1,1-0.2,1.5c0,0.3,0,0.6-0.1,0.9l0,0l0,0l0,0c-0.1,0.8-0.8,1.7-1.5,2.6c-0.5,0.6-0.9,1.1-1.3,1.7l0,0.1l0,0
					c-0.1,0.3-0.2,0.6,0.3,0.8c0.6,0.2,0.6,0.7,0.6,1.2c0,0.1,0,0.3,0,0.4v0c0,0.2,0,0.3,0.1,0.5c0,0.2,0.1,0.3,0.1,0.5
					c0.2,0.8,0.4,1.7,0.7,2.5c0.1,0.4,0.3,0.7,0.4,1.1c0.1,0.3,0.3,0.7,0.5,1c0.2,0.4,0.4,0.8,0.6,1.2c0.2,0.4,0.4,0.8,0.6,1.2
					c0.2,0.4,0.4,0.9,0.5,1.3c0.2,0.4,0.3,0.9,0.4,1.3c0.3,1.1,0.7,2.2,1,3.3c0.4,1.1,0.7,2.2,1.1,3.2l0,0c0.4,1.3,0.8,2.6,1.1,3.9
					c0.3,1.3,0.5,2.6,0.6,4l0,0c0,0.5,0,1.1-0.1,1.6c0,0.5-0.1,1.1-0.2,1.6c0,0.2,0,0.4,0.1,0.6c0.1,0.2,0.2,0.4,0.3,0.5
					c0.4,0.5,0.7,0.9,0.9,1.4c0.2,0.5,0.3,1,0.3,1.6l0,0c0,0.1,0,0.2,0.1,0.2c0,0,0,0,0.1,0c0,0,0.1,0,0.1,0c0.1,0,0.1,0,0.2,0
					c0.7,0,1.1,0,1.2,0.9l0,0v0c-0.1,0.7-0.4,0.8-1,0.9c-0.2,0-0.3,0.1-0.5,0.1l0.3,0.1l0.4,0.1l0,0l0,0c0.3,0.2,0.4,0.5,0.5,0.7
					c0.1,0.2,0,0.4,0,0.6c-0.1,0.2-0.2,0.3-0.4,0.4c-0.2,0.1-0.5,0.2-0.9,0.2l0,0c-0.3,0-0.5,0-0.8-0.1c-0.2,0-0.5,0-0.7,0
					c-0.1,0.3,0,0.8,0,1.2c0,0.2,0,0.4,0,0.6v0l0,0c-0.2,0.2-0.3,0.3-0.5,0.5c-0.2,0.2-0.3,0.3-0.4,0.5l0,0v0l0,0
					c-0.1,0.1-0.2,0.2-0.3,0.3c-0.1,0.1-0.1,0.2-0.2,0.3l0,0c-0.3,0.6-0.5,1.3-0.5,2c0,0.2,0,0.5,0,0.7c0,0.9,0,1.8-0.2,2.7l0,0v0
					c0,0.1-0.1,0.3-0.1,0.4c0,0.1-0.1,0.3-0.1,0.4c-0.1,0.3-0.1,0.5-0.1,0.8v0h0c0,0.2,0,0.4,0,0.7c0,0.2,0,0.4,0,0.7
					c0,0.3,0,0.7-0.1,1c-0.1,0.3-0.1,0.7-0.2,1c-0.1,0.5-0.2,1.1-0.3,1.6c-0.1,0.6-0.3,1.1-0.4,1.7v0c0,0.1-0.1,0.3-0.1,0.4
					c-0.1,0.4-0.2,0.7-0.4,1.1l0,0l0,0c-0.2,0.3-0.4,0.4-0.6,0.5c-0.1,0-0.2,0-0.3,0c-0.1,0-0.2-0.1-0.3-0.2
					c-0.1-0.2-0.2-0.5-0.1-0.8l0,0c0.2-1.1,0.5-2.2,0.6-3.3c0.2-1.1,0.2-2.2,0.2-3.4l0,0v0l0,0c0-0.1,0-0.1,0-0.1l0,0
					c0,0,0-0.1,0-0.1c0-0.2,0-0.5,0-0.7v0v0l0,0c0-0.1,0-0.2,0.1-0.3c0-0.1,0-0.2,0-0.3c0.1-0.3,0.1-0.6,0.2-0.9
					c0.1-0.3,0.1-0.6,0.2-0.9v0c0-0.5,0-1,0-1.6c0-0.3,0-0.5,0-0.7l0,0l0,0v0c0.2-1.3,0.3-2.1,1.1-3.2l0,0h0
					c0.2-0.2,0.2-0.3,0.3-0.4c0-0.1,0.1-0.1,0.1-0.2l0,0c0-0.2,0.1-0.4,0.1-0.6c0.1-0.7,0.2-1.3,0.5-1.9l0,0
					c0.1-0.2,0.3-0.4,0.5-0.5c0.2-0.1,0.3-0.2,0.6-0.2c-0.1-0.1-0.1-0.3-0.1-0.5c0-0.2,0-0.5,0.1-0.7c0.1-0.2,0.2-0.4,0.3-0.5
					c0.1-0.1,0.1-0.1,0.2-0.1c0-0.1,0-0.3,0-0.5c0-0.5,0-1-0.2-1.4c-0.2,0.2-0.4,0.2-0.6,0.3c-0.3,0.1-0.5,0-0.6-0.1
					c-0.2-0.1-0.3-0.4-0.4-0.6c-0.2-0.5-0.2-1.1-0.2-1.5v0v0l0,0c0-1.1,0.2-2.1,0.3-3.2c0.1-0.5,0.1-1,0.2-1.5l0,0v0
					c0.3-1.9-0.5-4.4-1.1-6.4c-0.1-0.2-0.1-0.4-0.2-0.6v0l0,0c-0.3-1.1-0.7-2.2-1.1-3.2l0,0c-0.4-1.2-0.8-2.4-1.2-3.6
					c-0.4-1.2-1-2.3-1.5-3.5c-0.2-0.4-0.4-0.7-0.6-1.1l-0.1-0.1c-0.3-0.6-0.6-1.1-0.8-1.7c-0.3-0.7-0.5-1.4-0.7-2.1
					c-0.2-0.7-0.4-1.5-0.7-2.2l0,0c-0.2-0.5-0.3-0.9-0.4-1.4c-0.1-0.5-0.1-0.9,0.1-1.4h0l0,0c0.1-0.3,0.2-0.6,0.4-0.8
					c0.1-0.2,0.3-0.5,0.5-0.7c0.3-0.4,0.5-0.7,0.8-1.1c0.3-0.4,0.6-0.7,0.8-1c0.3-0.4,0.3-0.7,0.3-1.1c0-0.1,0-0.2,0-0.3
					c-0.2,0.3-0.5,0.5-0.8,0.8c-0.4,0.4-0.9,0.9-1.2,1.3l0,0c-0.1,0.1-0.1,0.3-0.2,0.4c-0.4,0.8-0.9,1.8-1.1,2.6
					c0,0.2-0.1,0.3-0.2,0.5l0,0c-0.2,0.3-0.4,0.6-0.6,0.7c-0.3,0.1-0.6,0.2-1,0.1c-0.2,0-0.3-0.1-0.5-0.2c-0.3-0.1-0.6-0.1-0.8-0.2
					c-0.3,0-0.6-0.1-0.8-0.1l0,0c-0.6,0-1.1,0.1-1.7,0.2c-0.5,0.1-1,0.2-1.4,0.2c0.2,0.3,0.3,0.6,0.3,0.8c0,0.3-0.1,0.6-0.3,0.9v0
					c-0.2,0.3-0.5,0.5-0.8,0.7c-0.3,0.2-0.6,0.3-0.9,0.5h0l0,0h0c-0.1,0-0.2,0.1-0.4,0.1c-0.1,0.1-0.2,0.1-0.4,0.2
					c-0.6,0.3-1.1,0.9-1.5,1.4l0,0l0,0c-0.1,0.2-0.2,0.4-0.2,0.5c0.1,0.1,0.2,0.2,0.3,0.2v0c0.1,0.1,0.2,0.2,0.2,0.3
					c0.3,0.6,0,1.6-0.2,2.1v0l0,0l-0.1,0.1c-0.6,1-0.9,1.4-2.3,1.6c-0.2,0-0.4,0.1-0.6,0.1l0,0c-0.2,0-0.3,0.1-0.5,0.1
					c0.4,0.2,0.6,0.3,0.7,0.5c0.1,0.2,0.1,0.4,0.1,0.5c-0.1,0.2-0.2,0.3-0.4,0.5c-0.4,0.3-1,0.6-1.5,0.7c0.1,0.1,0.1,0.1,0.2,0.2
					c0.1,0.1,0.1,0.1,0.2,0.2c0-0.1,0.1-0.1,0.1-0.2c0.1-0.1,0.1-0.1,0.2-0.1c0.4-0.2,0.9-0.2,1.3-0.1c0.2,0,0.3,0.2,0.5,0.3
					c0.1,0.1,0.2,0.2,0.4,0.2l0,0c0.2,0.1,0.4,0,0.6,0l0,0c0.1,0,0.1,0,0.2,0h0l0,0l0,0c0.1,0,0.1,0,0.2,0c0.3-0.1,0.6-0.1,0.9-0.1
					c0.1,0,0.2,0.1,0.3,0.2c0,0,0.1,0.1,0.1,0.1l0,0l0,0v0l0,0c0.1,0.1,0.2,0.2,0.2,0.3c0.1,0.1,0.1,0.2,0.2,0.4
					c0.3,0.7,0.4,1.5,0.2,2.1l0,0l0,0c-0.1,0.2-0.2,0.3-0.4,0.4c-0.1,0.1-0.3,0.1-0.5,0.1l0,0l0,0c-0.1,0-0.3-0.1-0.4-0.1
					c-0.2-0.1-0.4-0.1-0.6-0.2h0c-0.2,0-0.3,0-0.4,0c-0.1,0-0.1,0.1,0,0.4l0,0l0,0c0,0,0,0.1,0,0.1c0,0,0,0.1,0.1,0.1
					c0.1,0.2,0.3,0.4,0.4,0.5v0l0,0h0c0.1,0.1,0.1,0.1,0.2,0.1c0.1,0,0.2,0.1,0.2,0.1c0.5,0.1,1-0.1,1.4-0.2l0,0
					c0.1-0.1,0.3-0.2,0.4-0.2c0.1-0.1,0.3-0.2,0.4-0.3v0h0l0,0c0.1,0,0.2-0.1,0.3-0.1c0.1,0,0.2,0,0.3,0c0.5,0,0.9,0.3,1.2,0.7
					l0.2,0.2c0.1-0.3,0.5-0.4,0.8-0.4c0.2,0,0.5,0,0.8,0.1c-0.1,0-0.1-0.1-0.1-0.1c-0.2-0.2-0.3-0.4-0.3-0.6c0-0.2,0-0.4,0.2-0.6
					c0.1-0.1,0.1-0.1,0.2-0.2c0.2-0.2,0.4-0.2,0.6-0.2c0.2,0,0.4,0.1,0.6,0.2l0,0l0,0l0.1,0.1l0.1,0.1l0,0l0-0.2v0l0,0l0.1-0.1
					c0.1-0.1,0.1-0.2,0.2-0.2c0,0,0,0,0-0.1l0,0l0,0c-0.2-0.3-0.2-0.5-0.2-0.7l0-0.1l0,0l0,0l0.1,0l0.4-0.1
					c-0.1-0.1-0.1-0.3-0.2-0.4c0-0.1,0-0.1,0-0.2l0,0l0,0h0c0.1,0,0.1,0,0.2-0.1c0.1,0,0.2-0.1,0.4-0.1c0.1,0,0.2,0,0.3,0
					c0.2,0,0.3,0,0.4-0.3h0l0,0c0,0,0.1-0.1,0.1-0.1c0,0-0.1,0-0.1,0h0h0c-0.4-0.1-0.7-0.3-0.8-0.5c-0.1-0.1-0.1-0.3-0.1-0.4
					c0-0.1,0.1-0.3,0.2-0.4c0.2-0.2,0.5-0.4,0.9-0.4c0.4,0,0.7,0,1,0.1c0.3,0.1,0.6,0.3,0.9,0.4v0h0c0.1,0.1,0.2,0.2,0.3,0.4
					c0,0.1,0.1,0.3,0.1,0.4v0l0,0c0,0,0,0.1,0,0.2c0,0,0.1,0.1,0.1,0.1c0.2,0.5,0,0.7-0.4,1l0,0c0.1,0.1,0.1,0.2,0.2,0.2
					c0.1,0.2,0.1,0.4,0,0.5l0,0c-0.1,0.2-0.2,0.3-0.3,0.4c-0.2,0.2-0.4,0.3-0.6,0.4c0.1,0.1,0.2,0.4,0.3,0.7c0,0.2,0,0.3-0.1,0.5
					c-0.1,0.2-0.1,0.3-0.3,0.4c-0.2,0.2-0.5,0.2-0.9,0.2c0,0.3-0.1,0.6-0.1,0.8v0v0v0l0,0c0,0.1,0,0.2-0.1,0.3
					c-0.1,0.4-0.2,0.8-0.4,1.1l0,0c-0.2,0.3-0.4,0.4-0.7,0.3c-0.2,0-0.4-0.2-0.6-0.3c0,0.2-0.1,0.3-0.1,0.5
					c-0.1,0.2-0.1,0.4-0.2,0.6c-0.3,1.1-0.8,2.3-1.4,3.1v0l0,0c-0.7,0.6-1.2,1-1.9,1.3C103.3,59.3,102.6,59.3,101.8,59.3L101.8,59.3
					L101.8,59.3L101.8,59.3z M93.4,67.8L93.4,67.8L93.4,67.8L93.4,67.8z M118.9,86.2L118.9,86.2L118.9,86.2L118.9,86.2z M105.8,39.2
					L105.8,39.2c-0.3-0.8-0.5-1.5-1.2-1.9c-0.5-0.3-0.9-0.2-1.1,0.2c-0.4,0.6-0.5,1.7-0.5,2.1c-0.4,0.1-0.7,0.2-1,0.4
					c-0.2,0.1-0.3,0.2-0.3,0.4l0,0c-0.1,0.1-0.1,0.3,0,0.5c0.1,0.1,0.2,0.3,0.5,0.5c-0.2,0.3-0.3,0.6-0.2,0.8c0,0.3,0.1,0.6,0.4,0.8
					c0.4,0.3,0.8,0.7,1.3,1c0.5,0.2,1.1,0.3,1.5-0.2l0,0l0,0c0.2-0.3,0.2-0.5,0.2-0.7c0-0.2-0.2-0.4-0.3-0.7c0,0,0.1,0,0.1,0
					c0.1,0,0.3,0.1,0.4,0.1l0,0l0,0l0,0l0.1,0c0.2,0,0.3,0.1,0.4,0.1l0.6,0h0l0,0c0.2-0.1,0.4-0.1,0.6-0.2c0.2-0.1,0.3-0.2,0.5-0.4
					c0.3-0.3,0.4-0.9,0.3-1.4c0-0.3-0.1-0.5-0.2-0.7c-0.1-0.2-0.3-0.4-0.5-0.4c-0.2-0.1-0.4-0.1-0.7,0c-0.4,0.2-0.5,0.7-0.7,1.1
					c0,0.1,0,0.1-0.1,0.2c-0.1-0.3-0.1-0.6-0.2-1l0,0l-0.1-0.2L105.8,39.2L105.8,39.2z M106.2,40.6L106.2,40.6L106.2,40.6
					L106.2,40.6L106.2,40.6z M107.9,41.8L107.9,41.8L107.9,41.8L107.9,41.8z M101.7,35.3c-0.7-0.3-1.9,0.3-2.6,0.8
					c-0.2,0.2-0.4,0.3-0.5,0.4c-0.1,0.1-0.2,0.2-0.2,0.3c0,0,0,0.1,0.1,0.1h0.3h0l0,0l0.4,0c0.1-0.1,0.2-0.1,0.3-0.2
					c0.1-0.1,0.2-0.2,0.2-0.3l0,0c0.1-0.1,0.2-0.2,0.4-0.3c0.1-0.1,0.3-0.2,0.4-0.3v0h0c0.3-0.2,0.5-0.3,0.8-0.4
					C101.5,35.4,101.6,35.4,101.7,35.3L101.7,35.3z M102.3,33.8c-0.1-0.2,0-0.4,0.1-0.6c0.1-0.2,0.3-0.3,0.5-0.5c0,0,0,0,0,0l0,0
					c0,0,0,0-0.1-0.1l0,0l0,0c-0.4-0.5-0.7-0.6-1.1-0.6c-0.3,0-0.7,0.3-1.1,0.7l0,0v0c-0.4,0.3-0.7,0.7-0.9,1.1
					c0.1,0,0.2-0.1,0.3-0.1c0.1,0,0.3,0,0.4,0c0.5-0.1,0.9-0.1,1.3,0C101.9,33.7,102.1,33.7,102.3,33.8L102.3,33.8z M80,83.3
					c-0.5,0.3-0.9,0.1-1.3,0l-0.1,0c0.1,0.1,0.2,0.2,0.2,0.2c0.3,0.3,0.5,0.5,0.7,0.6C79.7,84.1,79.8,83.9,80,83.3z"/>
			</g>
			<path fill-rule="evenodd" clip-rule="evenodd" fill="#EC008C" d="M99.4,98.6c-0.5,0-0.9-0.2-1.3-0.4c-0.1,0-0.1-0.1-0.2-0.1l0,0
				l0,0c-0.5-0.2-1-0.9-1.3-1.4l-0.1-0.2c-0.3-0.4-0.4-0.7-0.5-0.9c0-0.1-0.1-0.3-0.2-0.3c0-0.1-0.1-0.1-0.1-0.2
				c-0.2-0.2-0.5-0.5-1-1.5c-0.1-0.2-0.2-0.3-0.3-0.4l0,0c-0.1-0.1-0.2-0.3-0.4-0.4c-1.4-1.4-1-2-0.7-2.6c0.3-0.4,0.5-0.7,0.1-1.3
				l0,0l0,0l0,0l0,0c0-0.1-0.1-0.1-0.1-0.1l0,0c0,0-0.1-0.1-0.1-0.1c-0.2-0.1-0.5-0.1-0.7-0.1c-0.2,0-0.3,0.1-0.4,0.1
				c-0.1,0.1-0.3,0.2-0.4,0.3l0,0v0c-0.1,0.1-0.1,0.1-0.2,0.2c-0.1,0.1-0.1,0.2-0.2,0.3c-0.4,0.5-0.8,1.2-1.2,1.8
				c-0.4,0.9-0.7,1.5-0.8,1.9c-0.1,0.4-0.2,0.6-0.4,0.9c-0.3,0.4,0.1,1,0.4,1.4c0.1,0.1,0.2,0.3,0.2,0.3l0,0l0,0h0
				c0.2,0.3,0.6,0.7,1,1.1c0.4,0.4,0.8,0.7,0.9,0.9c0.1,0.2,0,0.3-0.2,0.4l0,0h0c-0.1,0.1-0.3,0.1-0.4,0.1c-0.1,0-0.3,0.1-0.4,0.1
				l0,0c-0.7,0.2-1.3,0.2-1.7,0l0,0l0,0l0,0c-0.3-0.2-0.6-0.3-1-0.5l0,0c-1.4-0.6-2.4-1.1-2.3-2.7l0.1-1.1l0.1-0.8v0
				c0-0.4,0.1-1,0.2-1.7c0.1-1.3,0.3-2.7,0.3-3.6c0-0.4,0.2-0.5,0.6-0.7l0,0l0.1,0c0.5-0.3,1-0.6,1.4-1c0.4-0.4,0.7-0.9,0.9-1.4
				c0.6-1.6,0.2-2.9-0.3-4.1c-0.3-0.8-0.6-1.7-0.6-2.7l0,0v0l0,0c0-0.2,0.1-0.4,0.1-0.6c0.1-0.3,0.2-0.7,0.1-1.1c0,0,0-0.1,0-0.1
				c0-0.3-0.1-0.6-0.2-0.9C88.1,75,88,74.7,88,74.5c0-1.9,0-3.4,0-5c0-0.5,0-1.1,0-1.7c0.1-2.9,0.3-4.2,0.6-5.5
				c0.2-0.9,0.4-1.8,0.5-3.3l0,0c0.1-1,0.1-2.1,0.1-3.7c0-1.5-0.1-3.5-0.2-5.9c0-0.6-0.3-2-0.6-3.6c-0.3-1.6-0.7-3.5-1-4.9
				c-0.2-1-0.2-1.8,0-2.3c0.1-0.2,0.2-0.4,0.3-0.4c0.2-0.1,0.3-0.1,0.6,0c0.4,0.2,0.9,0.6,1.5,1.4c1.8,2.4,2.6,5.3,2.8,8.3
				c0.2,3-0.1,6.2-0.4,9.3l0,0l0,0c0,0.3-0.2,0.9-0.4,1.8c-0.5,2.3-1.4,6.1-1.7,9.1v0l0,0.3c0,0.4-0.1,0.7-0.1,1.1l0,0
				c-0.1,1.7,0.1,3.2,2.2,3.3h0c0.1,0,0.2,0,0.3,0c0.1,0,0.3-0.1,0.4-0.1c0.7-0.2,1.6-0.7,2-1.1c1.2-1.1,2.5-1.8,3.8-2.1
				c1.4-0.4,2.8-0.4,4.1-0.1c1.3,0.3,2.5,0.9,3.6,1.8c1.1,1,2.1,2.3,2.6,4l0,0h0l0,0c0.3,0.9,1,2.1,1.6,3.1c0.1,0.3,0.3,0.5,0.4,0.7
				c0.5,0.9,1.1,0.9,2.2,1l0.2,0l0,0c0.2,0,0.4,0,0.5,0l0,0c0.1,0,0.2,0,0.4,0c0.3-0.1,0.5-0.4,0.6-0.8c0.1-0.4,0.3-1,0.9-1.5l0,0
				l0,0c0.7-0.6,0.6-1.6,0.6-2.4c0-0.5,0-0.9,0.1-1.1c0.2-0.2,0.7,0.1,1.8,1.1l0,0c0,0,0,0.1,0.1,0.1c0.4,0.4,0.7,1,1,1.5
				c0.2,0.4,0.4,0.6,0.4,0.6c0.6,0,1.1,0.1,1.7,0.1c0.6,0.1,1.1,0.2,1.7,0.4c0.9,0.3,1.3,0.1,2-0.2l0.1,0l0,0l0,0v0
				c0.3-0.1,0.5-0.2,0.8-0.2c0.2,0,0.4-0.1,0.5-0.1l0,0c0.5-0.2,0.8-0.3,0.9-0.3c0.2,0,0.2,0.2,0.1,0.4l0,0l0,0
				c0,0.1-0.1,0.2-0.1,0.3c-0.2,0.4-0.4,0.9-0.7,1.4l0,0v0c-0.1,0.1-0.2,0.2-0.4,0.3c-0.1,0-0.1,0-0.1,0.1c-0.1,0-0.1,0.1-0.1,0.2
				c0,0.1-0.1,0.2-0.2,0.3l0,0h0c-0.1,0.1-0.3,0.2-0.4,0.3c-0.1,0.1-0.3,0.2-0.3,0.3l0,0c-0.6,1-1.1,1.9-1.1,1.9l0,0h0
				c0,0-0.3,0.2-0.5,0.5c-0.3,0.3-0.8,0.7-1,0.9v0c-0.6,0.3-1.2,0.7-1.8,0.9c-0.6,0.3-1.2,0.5-1.8,0.5c-0.2,0-0.4,0-0.5-0.1
				c-0.2-0.1-0.4-0.2-0.8-0.1l0,0h0c0,0-0.1,0-0.1,0c-0.2,0-0.4,0-0.5,0.2c-0.5,0.6-1,1.1-1.6,1.5c-0.6,0.5-1.1,0.9-1.5,1.5l0,0l0,0
				l0,0c-0.2,0.3-0.7,0.6-1.2,0.8c-0.5,0.3-1.1,0.6-1.4,1c-0.1,0.1-0.1,0.2-0.2,0.3c-0.1,0.1-0.1,0.2-0.2,0.3l0,0c0,0,0,0-0.1,0.1
				c-0.6,0.7-0.9,1.8-0.8,2.8c0.1,1,0.5,1.9,1.4,2.5l0,0l0.1,0c0.8,0.6,1.6,0.7,2.1,0.8c0.4,0.1,0.6,0.1,0.7,0.3
				c0.1,0.2,0.3,0.5,0.2,0.7c-0.1,0.2-0.4,0.4-1.2,0.4h0c-0.3,0-0.7,0.1-1,0.1c-0.5,0.1-1,0.2-1.5,0.2c-0.4,0-0.7-0.1-0.9-0.3
				c-0.2-0.2-0.4-0.4-0.5-0.7l0,0v0l0,0c-0.3-0.6-0.7-1.3-1.1-1.9c-0.3-0.4-0.5-0.8-0.8-1.2l0,0v0c-0.1-0.2-0.1-0.5,0-0.7
				c0-0.3,0.1-0.5-0.1-0.6l0,0c-0.1,0-0.1,0-0.2,0.1c-0.1,0.1-0.1,0.4-0.1,0.6l0,0c0,0.2,0,0.4,0,0.5l0,0c-0.1,0.2,0,0.5,0,0.7
				c0,0.2,0.1,0.5,0.2,0.7v0l0,0c0,0.1,0.1,0.2,0.1,0.3c0,0.2,0,0.4,0.2,0.4c0.5,0.3,0.5,0.5,0.5,0.7l0,0c-0.1,0.1-0.3,0.2-0.5,0.3
				l0,0h0c-0.2,0.1-0.4,0.1-0.6,0.1c-0.2,0-0.4,0.1-0.5,0.1c-0.9,0.1-1.5-0.1-1.8-0.5l0,0c-0.1-0.2-0.2-0.3-0.2-0.5
				c0-0.2,0-0.4,0-0.7c0-0.4,0.2-0.6,0.4-0.9c0.1-0.2,0.2-0.3,0.2-0.4c0-0.2,0-0.4,0-0.6c0-0.2,0-0.4,0-0.7v0l0,0
				c0-0.4-0.1-0.7-0.1-1c0-0.1-0.1-0.3-0.1-0.4c0-0.2-0.1-0.4-0.2-0.6l0,0c0-0.1-0.1-0.2-0.1-0.4c-0.1-0.3-0.1-0.5,0-0.8
				c0.1-0.3,0.3-0.7,0.5-1.3c0.1-0.3,0.1-0.5,0-0.6c-0.1-0.2-0.3-0.3-0.5-0.4c-1.3-0.6-1.8-1.8-2.2-2.7c-0.3-0.7-0.6-1.2-1-1.4
				c-0.4-0.1-0.8-0.2-1.1-0.1c-0.2,0-0.3,0.1-0.5,0.1c-0.1,0.1-0.2,0.2-0.2,0.3l0,0c0,0.1,0,0.2,0,0.3c0.1,0.8,0.3,1.4,0.6,2.1
				c0.2,0.6,0.4,1.2,0.5,1.8c0.1,0.6,0.1,1.1,0,1.8c-0.1,0.6-0.4,1.3-1,2l0,0c-0.8,1-0.9,1.9-0.6,2.6c0.2,0.7,0.8,1.4,1.3,1.8
				c0.1,0.1,0.2,0.1,0.5,0.2c0.4,0.1,0.9,0.2,1.4,0.7c0.1,0.1,0.2,0.3,0.3,0.4c0.1,0.2,0,0.4-0.2,0.5c-0.2,0.1-0.4,0.3-0.7,0.3
				C100.6,98.5,99.8,98.6,99.4,98.6z"/>
		</g>
		<g>
			<path d="M46.9,132c-1,0.3-2,0.6-2.9,0.7c-1,0.1-1.9,0.2-2.9,0.2c-3.1,0-5.8-0.9-7.9-2.6c-2.5-2-3.7-4.9-3.7-8.7
				c0-3.7,1.2-6.6,3.6-8.6c2.2-1.9,5.2-2.9,8.9-2.9c1,0,1.8,0.1,2.5,0.2c0.7,0.1,1.5,0.3,2.4,0.6l-0.2,3.8c-0.7-0.3-1.4-0.5-2.1-0.6
				c-0.7-0.1-1.5-0.2-2.3-0.2c-2.5,0-4.4,0.7-5.8,2.1c-1.4,1.4-2.1,3.3-2.1,5.6c0,2.5,0.8,4.5,2.3,5.8c1.4,1.2,3.2,1.8,5.4,1.8
				c0.9,0,1.8-0.1,2.5-0.3c0.7-0.2,1.5-0.4,2.2-0.7L46.9,132z"/>
			<path d="M63.4,132.7h-4.2v-2.4c-0.4,0.7-0.9,1.2-1.4,1.6c-1,0.7-2.3,1.1-3.8,1.1c-2,0-3.5-0.5-4.5-1.5c-0.9-0.9-1.4-2.1-1.4-3.5
				c0-1.5,0.5-2.7,1.5-3.6c1.4-1.3,3.6-1.9,6.7-1.9h2.4h0.4l0-0.7c0-1.2-0.5-2-1.6-2.4c-0.6-0.3-1.3-0.4-2.1-0.4
				c-0.9,0-1.8,0.1-2.6,0.3c-0.8,0.2-1.7,0.6-2.7,1.1V117c0.9-0.4,1.9-0.7,2.9-0.8c1-0.2,2.1-0.3,3.1-0.3c3,0,5,0.7,6.2,2.2
				c0.8,1,1.1,2.3,1.1,4.1V132.7z M59.1,125.6v-0.4h-0.7c-1.8,0-3.1,0.1-3.8,0.3c-1.4,0.4-2,1.2-2,2.4c0,0.6,0.2,1.1,0.6,1.5
				c0.4,0.4,1.1,0.6,2,0.6c1.1,0,2-0.3,2.6-0.9C58.6,128.4,59.1,127.2,59.1,125.6z"/>
			<path d="M76,132.6c-0.4,0.1-1,0.2-1.7,0.3c-0.7,0.1-1.2,0.1-1.7,0.1c-1.6,0-2.8-0.4-3.6-1.3c-0.8-0.9-1.2-2.1-1.2-3.8v-8.5h-3.3
				v-3.2h3.3v-3.3l4.3-1.4v4.7H76v3.2h-3.8v7.5c0,1.2,0.2,2,0.5,2.4c0.3,0.3,0.9,0.5,1.6,0.5c0.3,0,0.6,0,0.8-0.1
				c0.2,0,0.5-0.1,0.9-0.2V132.6z"/>
			<path d="M89.8,127.9c0,1.4-0.5,2.6-1.5,3.5c-1.1,1-2.8,1.6-4.9,1.6c-0.8,0-1.8-0.1-2.7-0.3c-1-0.2-1.9-0.4-2.8-0.7l0.2-3.4
				c0.8,0.3,1.6,0.6,2.4,0.8c0.8,0.2,1.6,0.3,2.3,0.3c1,0,1.7-0.2,2.2-0.6c0.4-0.3,0.5-0.7,0.5-1.1c0-0.8-0.6-1.5-1.8-1.9
				c-0.7-0.3-1.3-0.5-2-0.8c-1.1-0.5-2-1-2.5-1.6c-0.6-0.7-1-1.7-1-2.8c0-1.2,0.4-2.3,1.2-3.1c1.1-1.2,2.7-1.8,4.8-1.8
				c0.9,0,1.8,0,2.5,0.1c0.8,0.1,1.7,0.3,2.8,0.6l-0.4,3.1c-0.7-0.3-1.4-0.5-2-0.6c-0.7-0.1-1.2-0.2-1.7-0.2c-1.2,0-2,0.2-2.5,0.7
				c-0.3,0.3-0.4,0.6-0.4,1c0,0.6,0.3,1.1,1,1.4c0.2,0.1,0.9,0.4,2.1,0.8c1.2,0.4,2.1,0.9,2.8,1.5C89.3,125.3,89.8,126.4,89.8,127.9
				z"/>
			<path fill="#EC008C" d="M113.1,132.7h-5.2l-1.3-1.5c-1,0.7-2,1.2-3,1.5c-1,0.3-2.2,0.4-3.5,0.4c-2.5,0-4.5-0.7-5.9-2.1
				c-1.3-1.3-1.9-2.9-1.9-4.9c0-1.3,0.4-2.5,1.3-3.6c0.9-1.1,2-1.8,3.4-2.3c-0.9-1-1.6-1.8-2-2.5c-0.5-0.9-0.8-1.7-0.8-2.6
				c0-1.3,0.4-2.4,1.3-3.3c1.1-1.3,2.8-1.9,5.1-1.9c2.3,0,4,0.5,5.2,1.6c1,0.9,1.6,2.1,1.6,3.5c0,1.5-0.6,2.8-1.7,4
				c-0.8,0.8-1.7,1.4-2.8,1.9l4.2,4.7c0.6-0.8,0.9-1.7,1.1-2.7c0.1-0.7,0.2-1.5,0.2-2.3h3.9c0,1.4-0.2,2.6-0.6,3.9
				c-0.5,1.5-1.3,2.9-2.3,4L113.1,132.7z M104.3,128.5l-5.1-5.6c-0.9,0.4-1.6,0.9-2.1,1.6c-0.4,0.6-0.6,1.2-0.6,1.9
				c0,1,0.3,1.8,1,2.5c0.7,0.7,1.6,1,2.7,1c0.8,0,1.5-0.1,2.2-0.4C103.1,129.3,103.7,128.9,104.3,128.5z M103.3,115.1
				c0-0.6-0.2-1.1-0.7-1.5c-0.5-0.4-1-0.6-1.7-0.6c-0.6,0-1.2,0.2-1.6,0.5c-0.5,0.3-0.7,0.8-0.7,1.4c0,0.4,0.1,0.8,0.3,1.2
				c0.2,0.4,0.6,0.9,1.1,1.5l0.7,0.7c0.7-0.3,1.3-0.7,1.8-1.2C103,116.5,103.3,115.8,103.3,115.1z"/>
			<path d="M135.3,121.6c0,3.1-0.7,5.6-2.2,7.4c-2,2.5-5.3,3.8-9.9,3.8h-7v-22.3h7c1.9,0,3.5,0.2,4.9,0.6c2.1,0.6,3.8,1.6,5,3.1
				C134.5,115.9,135.3,118.4,135.3,121.6z M130.5,121.6c0-2.4-0.6-4.2-1.9-5.5c-1.3-1.3-3.1-1.9-5.4-1.9h-2.6V129h2.6
				c1.6,0,3-0.3,4.1-1C129.5,126.7,130.5,124.6,130.5,121.6z"/>
			<path d="M153.9,124.5c0,2.7-0.8,4.8-2.4,6.3c-1.6,1.5-3.6,2.2-6.2,2.2c-2.5,0-4.6-0.7-6.1-2.2c-1.6-1.5-2.4-3.6-2.4-6.3
				c0-2.7,0.8-4.8,2.4-6.3c1.6-1.5,3.6-2.2,6.2-2.2c2.5,0,4.6,0.7,6.1,2.2C153.1,119.7,153.9,121.8,153.9,124.5z M149.3,124.5
				c0-1.6-0.4-2.9-1.1-3.9c-0.7-1-1.7-1.5-2.9-1.5c-1.1,0-2,0.4-2.7,1.2c-0.9,1-1.3,2.3-1.3,4.1c0,1.8,0.4,3.1,1.3,4.1
				c0.7,0.8,1.7,1.3,2.7,1.3c1.2,0,2.2-0.5,2.9-1.5C149,127.4,149.3,126.1,149.3,124.5z"/>
			<path d="M171.6,131.4c0,1.2-0.1,2.2-0.3,3c-0.4,1.6-1.1,2.8-2.2,3.6c-1.4,1.2-3.4,1.8-5.9,1.8c-1,0-2-0.1-3-0.2
				c-1-0.1-2-0.5-3.2-0.9l0.4-3.6c0.8,0.4,1.6,0.7,2.5,1c0.9,0.3,1.8,0.4,2.6,0.4c1.5,0,2.7-0.4,3.5-1.2c0.8-0.8,1.2-1.9,1.2-3.2
				v-2.2c-0.4,0.8-0.9,1.4-1.4,1.8c-1,0.8-2.2,1.2-3.7,1.2c-2.3,0-4.1-0.9-5.3-2.7c-1-1.5-1.5-3.3-1.5-5.6c0-2.5,0.6-4.6,1.9-6.1
				c1.3-1.5,2.9-2.3,4.9-2.3c1.1,0,2.1,0.2,3,0.5c1.1,0.5,1.9,1.3,2.4,2.3l0.1-2.8h4.1V131.4z M167.3,124.1c0-1.4-0.4-2.5-1.1-3.3
				c-0.7-0.8-1.7-1.2-2.9-1.2c-1.1,0-2,0.5-2.6,1.4c-0.6,0.9-0.9,2.1-0.9,3.4c0,1.8,0.4,3.2,1.3,4c0.6,0.6,1.5,0.9,2.5,0.9
				c1,0,1.9-0.4,2.6-1.3C166.9,127.1,167.3,125.8,167.3,124.1z"/>
			<path d="M186,127.9c0,1.4-0.5,2.6-1.5,3.5c-1.1,1-2.8,1.6-4.9,1.6c-0.8,0-1.8-0.1-2.7-0.3c-1-0.2-1.9-0.4-2.8-0.7l0.2-3.4
				c0.8,0.3,1.6,0.6,2.4,0.8c0.8,0.2,1.6,0.3,2.3,0.3c1,0,1.7-0.2,2.2-0.6c0.4-0.3,0.5-0.7,0.5-1.1c0-0.8-0.6-1.5-1.8-1.9
				c-0.7-0.3-1.3-0.5-2-0.8c-1.1-0.5-2-1-2.5-1.6c-0.6-0.7-1-1.7-1-2.8c0-1.2,0.4-2.3,1.2-3.1c1.1-1.2,2.7-1.8,4.8-1.8
				c0.9,0,1.8,0,2.5,0.1c0.8,0.1,1.7,0.3,2.8,0.6l-0.4,3.1c-0.7-0.3-1.4-0.5-2-0.6c-0.7-0.1-1.2-0.2-1.7-0.2c-1.2,0-2,0.2-2.5,0.7
				c-0.3,0.3-0.4,0.6-0.4,1c0,0.6,0.3,1.1,1,1.4c0.2,0.1,0.9,0.4,2.1,0.8c1.2,0.4,2.1,0.9,2.8,1.5C185.5,125.3,186,126.4,186,127.9z
				"/>
		</g>
		<g>
			<path d="M32.9,141.1h-1.8v-1H36v1h-1.9v5.5h-1.2V141.1z"/>
			<path d="M43.1,143.3c0,2.2-1.3,3.4-3.1,3.4c-1.8,0-3-1.4-3-3.3c0-2,1.3-3.4,3.1-3.4C42,140,43.1,141.4,43.1,143.3z M38.3,143.4
				c0,1.3,0.7,2.4,1.8,2.4c1.1,0,1.8-1.1,1.8-2.4c0-1.2-0.6-2.4-1.8-2.4C38.9,140.9,38.3,142,38.3,143.4z"/>
			<path d="M44.9,140.2c0.4-0.1,1.1-0.1,1.7-0.1c0.9,0,1.4,0.1,1.8,0.4c0.4,0.2,0.7,0.7,0.7,1.2c0,0.6-0.4,1.1-1.1,1.4v0
				c0.7,0.2,1.3,0.7,1.3,1.6c0,0.6-0.2,1-0.6,1.3c-0.5,0.4-1.2,0.6-2.4,0.6c-0.6,0-1.1,0-1.4-0.1V140.2z M46.1,142.8h0.6
				c0.8,0,1.3-0.4,1.3-0.9c0-0.6-0.5-0.9-1.2-0.9c-0.3,0-0.5,0-0.7,0V142.8z M46.1,145.7c0.2,0,0.4,0,0.6,0c0.8,0,1.4-0.3,1.4-1.1
				c0-0.8-0.7-1.1-1.5-1.1h-0.6V145.7z"/>
			<path d="M52.4,144.7l-0.6,1.8h-1.2l2.1-6.4h1.5l2.1,6.4H55l-0.6-1.8H52.4z M54.3,143.8l-0.5-1.6c-0.1-0.4-0.2-0.8-0.3-1.2h0
				c-0.1,0.4-0.2,0.8-0.3,1.2l-0.5,1.6H54.3z"/>
			<path d="M58,140.2c0.4-0.1,1-0.1,1.8-0.1c0.9,0,1.5,0.2,1.9,0.5c0.4,0.3,0.6,0.8,0.6,1.4c0,0.6-0.2,1.1-0.5,1.5
				c-0.5,0.5-1.2,0.7-2,0.7c-0.2,0-0.4,0-0.6,0v2.4H58V140.2z M59.1,143.2c0.2,0,0.3,0.1,0.6,0.1c0.9,0,1.4-0.4,1.4-1.2
				c0-0.7-0.5-1.1-1.3-1.1c-0.3,0-0.6,0-0.7,0.1V143.2z"/>
			<path d="M65.2,140.1v2.3c0.2,0,0.5-0.1,0.7-0.1c1.3,0,2.5,0.6,2.5,2.1c0,0.6-0.2,1.1-0.5,1.4c-0.6,0.6-1.6,0.8-2.5,0.8
				c-0.6,0-1.1,0-1.4-0.1v-6.4H65.2z M65.2,145.7c0.1,0,0.3,0,0.6,0c0.8,0,1.5-0.4,1.5-1.3c0-0.8-0.8-1.2-1.5-1.2
				c-0.2,0-0.4,0-0.6,0V145.7z M70.2,140.1v6.4h-1.2v-6.4H70.2z"/>
			<path d="M80,140.1v5.5l0.6,0l-0.1,2.5h-0.9l-0.1-1.6h-3.9l-0.1,1.6h-0.9l-0.1-2.5l0.5,0c0.2-0.4,0.5-0.9,0.6-1.4
				c0.2-0.7,0.3-1.5,0.3-2.4v-1.7H80z M77.2,142.1c0,0.9-0.1,1.7-0.3,2.3c-0.1,0.4-0.3,0.8-0.5,1.1h2.5v-4.5h-1.7V142.1z"/>
			<path d="M87.2,140.1v6.4H86v-5.5h-1.8v1.7c0,1.5-0.1,2.9-1.1,3.5c-0.3,0.2-0.7,0.3-1.1,0.3l-0.2-0.9c0.3,0,0.6-0.2,0.7-0.3
				c0.4-0.4,0.5-1.5,0.5-2.5v-2.8H87.2z"/>
			<path d="M88.8,146.6c0.1-0.2,0.2-0.4,0.3-0.7c0.3-0.7,0.4-1.6,0.9-2.1c0.1-0.1,0.3-0.3,0.5-0.3v0c-0.8-0.1-1.4-0.7-1.4-1.6
				c0-0.6,0.2-1,0.6-1.3c0.4-0.4,1.2-0.5,2-0.5c0.6,0,1.3,0.1,1.7,0.1v6.4h-1.2v-2.6h-0.5c-0.3,0-0.6,0.1-0.8,0.3
				c-0.4,0.4-0.6,1.3-0.8,1.9c-0.1,0.2-0.1,0.3-0.2,0.5H88.8z M92.4,141c-0.1,0-0.4-0.1-0.7-0.1c-0.7,0-1.3,0.3-1.3,1
				c0,0.7,0.6,1.1,1.4,1.1c0.2,0,0.5,0,0.6,0V141z"/>
			<path d="M99.2,140.1l1.8,2.8h0.2v-2.8h1.1v2.8h0.2l1.8-2.8h1.4l-2.2,2.9c0.9,0.1,1.3,0.7,1.6,1.6c0.2,0.6,0.4,1.3,0.6,1.9h-1.2
				c-0.2-0.4-0.3-1-0.5-1.5c-0.2-0.8-0.6-1.3-1.5-1.3h-0.2v2.8h-1.1v-2.8h-0.3c-0.9,0-1.2,0.6-1.5,1.3c-0.1,0.5-0.3,1-0.5,1.5h-1.2
				c0.3-0.6,0.4-1.3,0.7-1.9c0.3-0.9,0.7-1.5,1.6-1.6l-2.2-2.9H99.2z"/>
			<path d="M108.4,140.1v2.3c0,1,0,2-0.1,2.8l0,0c0.3-0.7,0.7-1.5,1.2-2.2l1.7-2.9h1.2v6.4h-1.1v-2.3c0-1,0-1.8,0.1-2.7h0
				c-0.3,0.7-0.7,1.5-1.1,2.2l-1.6,2.7h-1.3v-6.4H108.4z"/>
			<path d="M114.5,140.2c0.4-0.1,1.1-0.1,1.7-0.1c0.9,0,1.4,0.1,1.8,0.4c0.4,0.2,0.7,0.7,0.7,1.2c0,0.6-0.4,1.1-1.1,1.4v0
				c0.7,0.2,1.3,0.7,1.3,1.6c0,0.6-0.2,1-0.6,1.3c-0.5,0.4-1.2,0.6-2.4,0.6c-0.6,0-1.1,0-1.4-0.1V140.2z M115.7,142.8h0.6
				c0.8,0,1.3-0.4,1.3-0.9c0-0.6-0.5-0.9-1.2-0.9c-0.3,0-0.5,0-0.7,0V142.8z M115.7,145.7c0.2,0,0.4,0,0.6,0c0.8,0,1.4-0.3,1.4-1.1
				c0-0.8-0.7-1.1-1.5-1.1h-0.6V145.7z"/>
			<path d="M126.5,143.3c0,2.2-1.3,3.4-3.1,3.4c-1.8,0-3-1.4-3-3.3c0-2,1.3-3.4,3.1-3.4C125.4,140,126.5,141.4,126.5,143.3z
				 M121.7,143.4c0,1.3,0.7,2.4,1.8,2.4c1.1,0,1.8-1.1,1.8-2.4c0-1.2-0.6-2.4-1.8-2.4C122.3,140.9,121.7,142,121.7,143.4z"/>
			<path d="M129.5,141.1h-1.8v-1h4.9v1h-1.9v5.5h-1.2V141.1z"/>
			<path d="M135.3,140.1v2.6h2.7v-2.6h1.2v6.4H138v-2.8h-2.7v2.8h-1.2v-6.4H135.3z"/>
			<path d="M142.4,140.1v2.3c0.2,0,0.5-0.1,0.7-0.1c1.3,0,2.5,0.6,2.5,2.1c0,0.6-0.2,1.1-0.5,1.4c-0.6,0.6-1.6,0.8-2.5,0.8
				c-0.6,0-1.1,0-1.4-0.1v-6.4H142.4z M142.4,145.7c0.1,0,0.3,0,0.6,0c0.8,0,1.5-0.4,1.5-1.3c0-0.8-0.8-1.2-1.5-1.2
				c-0.2,0-0.4,0-0.6,0V145.7z M147.5,140.1v6.4h-1.2v-6.4H147.5z"/>
			<path d="M153.1,146.6l-0.7-1.3c-0.3-0.5-0.5-0.8-0.6-1.2h0c-0.2,0.4-0.3,0.7-0.6,1.2l-0.6,1.3h-1.3l1.9-3.3l-1.8-3.2h1.4l0.7,1.3
				c0.2,0.4,0.4,0.7,0.5,1.1h0c0.2-0.4,0.3-0.7,0.5-1.1l0.7-1.3h1.3l-1.9,3.1l2,3.3H153.1z"/>
		</g>
	</g>
</g>
</svg>
