<?xml version="1.0" encoding="utf-8"?>
<!-- Generator: Adobe Illustrator 18.1.1, SVG Export Plug-In . SVG Version: 6.00 Build 0)  -->
<svg version="1.1" id="Layer_1" xmlns="http://www.w3.org/2000/svg" xmlns:xlink="http://www.w3.org/1999/xlink" x="0px" y="0px"
	 viewBox="0 0 300 150" enable-background="new 0 0 300 150" xml:space="preserve">
<g>
	<path fill-rule="evenodd" clip-rule="evenodd" fill="#F37021" d="M23.5,31.5c-0.5-0.9-0.9-1.6-1.3-2.2c-0.4-0.5-0.8-0.8-1.4-0.8
		c-0.6,0-1.1,0.5-1.7,1.4c-0.6,1-1,1.8-1.3,2.5c0,0.1-0.3,0.7-0.9,1.9c-0.6,1.2-1.1,2.3-1.5,3.2c-0.4,1-0.8,1.9-1.2,3
		c-0.3,1-0.5,1.9-0.5,2.5c0,0.5,0.1,0.8,0.4,1c0.3,0.2,0.7,0.3,1.3,0.5c0.6,0.2,1.1,0.4,1.4,0.7c0.3,0.3,0.5,0.7,0.5,1.4
		c0,2.3-2.7,3.4-8.2,3.4c-2.5,0-4.4-0.1-5.6-0.4c-1.3-0.3-2.1-0.7-2.5-1.1c-0.4-0.5-0.6-1-0.6-1.7c0-0.8,0.2-1.3,0.5-1.5
		c0.4-0.2,1-0.6,2-1c1-0.4,1.7-0.9,2.1-1.4c0.7-0.8,1.8-2.8,3.2-6l3.5-7.6c0.9-2.1,1.6-3.7,2.1-4.9c0.5-1.2,0.9-2.5,1.3-4
		c0.4-1.5,0.6-2.9,0.6-4.2c0-2.1,0.5-3.7,1.6-4.9c1.1-1.2,2.8-1.8,5.1-1.8c2.1,0,4,0.8,5.5,2.4c1.5,1.6,3,3.7,4.5,6.2
		c0.3,0.5,1.2,2.4,2.7,5.5c1.5,3.2,3,6.5,4.6,10c1.6,3.5,2.7,6.1,3.5,7.7c0.4,1,0.9,1.6,1.4,2c0.5,0.4,1.1,0.6,1.7,0.8
		c0.7,0.2,1.1,0.4,1.4,0.6c0.3,0.2,0.4,0.7,0.4,1.4c0,1.1-0.6,2-1.7,2.6c-1.1,0.6-2.4,1-3.9,1.1c-1.5,0.2-3.2,0.2-5.1,0.2
		c-3.3,0-5.7-0.1-7.4-0.2c-1.6-0.1-2.9-0.4-3.9-0.9c-1-0.5-1.5-1.3-1.5-2.4c0-0.6,0.2-1,0.5-1.3c0.3-0.3,0.7-0.5,1.3-0.8
		c0.6-0.2,1-0.4,1.3-0.6c0.3-0.2,0.4-0.5,0.4-0.9c0-0.4-0.7-2.3-2.1-5.7C24.6,33.9,23.8,32,23.5,31.5L23.5,31.5L23.5,31.5z
		 M62.9,36.7H75c1.1,0,1.9-0.3,2.5-0.8c0.6-0.6,0.9-1.7,0.9-3.3c0-1.1-0.3-2.3-0.9-3.6c-0.6-1.3-1.4-2.6-2.5-3.8
		c-1.1-1.2-2.5-2.2-4.3-2.9c-1.7-0.8-3.7-1.1-6-1.1C62,21,59.4,21.7,57,23c-2.4,1.3-4.3,3-5.7,5.3c-1.4,2.3-2.1,4.8-2.1,7.6
		c0,2.5,0.6,4.8,1.8,7c1.2,2.2,2.9,4,5.2,5.3c2.3,1.4,5,2,8.2,2c1.7,0,3.6-0.3,5.6-1c2-0.7,3.7-1.6,5.1-2.7c1.4-1.1,2.1-2.4,2.1-3.7
		c0-0.6-0.2-1.2-0.7-1.8c-0.5-0.6-1-1-1.5-1c-0.3,0-0.8,0.3-1.7,0.8c-0.9,0.5-1.7,0.9-2.6,1.3c-0.9,0.3-1.9,0.5-3.1,0.5
		c-0.9,0-1.8-0.2-2.8-0.7c-1-0.5-1.8-1.1-2.5-1.9c-0.7-0.8-1-1.6-1-2.5c0-0.3,0.1-0.6,0.3-0.6C61.9,36.7,62.3,36.7,62.9,36.7
		L62.9,36.7z M67.7,29.7L67.7,29.7c0,0.7-0.2,1.1-0.5,1.4c-0.4,0.2-0.9,0.3-1.6,0.3h-1.2c-0.2,0-0.4,0-0.7,0c-0.3,0-0.6,0-0.7,0
		c-1.3,0-2-0.5-2-1.6c0-0.9,0.3-1.8,1-2.5c0.7-0.8,1.5-1.2,2.3-1.2c1,0,1.8,0.3,2.4,1C67.4,27.8,67.7,28.6,67.7,29.7L67.7,29.7z
		 M112.2,33.8l3.2,7.2c1.1,2.4,1.9,4.2,2.5,5.2c0.6,1,1,1.6,1.2,1.9c0.3,0.2,0.6,0.4,1,0.4c0.6,0,1.1-0.5,1.7-1.4
		c0.6-1,1.2-2.3,2-4.1c0.8-1.8,1.2-2.9,1.3-3.1c0.6-1.3,1.1-2.5,1.6-3.6c0.5-1.1,1.1-2.1,1.6-2.9c0.5-0.8,1.1-1.2,1.6-1.2
		c0.7,0,1.1,1.4,1.1,4.1c0,1.2-0.1,2.5-0.2,3.8c-0.1,1.4-0.2,2.2-0.3,2.6c-0.1,0.4-0.2,0.7-0.5,0.9c-0.2,0.2-0.6,0.6-1.1,1
		c-0.5,0.4-0.8,0.7-1,1.1c-0.2,0.3-0.3,0.7-0.3,1.1c0,1.4,0.9,2.3,2.8,2.7c1.9,0.4,4.2,0.6,7.1,0.6c2.8,0,5.2-0.2,7.1-0.7
		c2-0.4,3-1.4,3-2.9c0-0.5-0.1-1-0.4-1.2c-0.2-0.3-0.7-0.6-1.2-1c-0.6-0.4-1-0.9-1.4-1.4c-0.3-0.5-0.5-1.2-0.5-2.1
		c-0.4-8.3-0.6-12.4-0.6-12.1c0-1.4,0.1-3.4,0.3-5.9c0.2-2.5,0.4-4.1,0.6-4.7c0.2-0.5,0.6-1.1,1.3-1.8c0.7-0.7,1.2-1.1,1.4-1.4
		c0.2-0.3,0.3-0.7,0.3-1.4c0-2.4-2.7-3.7-8-3.7c-1.8,0-3.2,0.1-4.3,0.3c-1.1,0.2-1.9,0.6-2.5,1.1c-0.6,0.5-1.2,1.3-1.8,2.3
		c-0.6,1.1-1.2,2.1-1.7,3.1c-0.3,0.6-1,1.9-1.9,4c-0.9,2-1.7,3.5-2.3,4.5c-0.6,1-1.2,1.5-1.7,1.5c-0.7-0.2-1.5-1-2.4-2.5
		c-0.9-1.4-1.9-3.4-3.1-5.9c-1.2-2.5-2-4-2.3-4.6c-0.7-1.2-1.1-1.9-1.3-2.2c-0.2-0.3-0.5-0.6-0.9-0.9c-0.5-0.3-1.1-0.5-2.1-0.7
		c-0.9-0.1-2.2-0.2-3.8-0.2c-2.7,0-4.9,0.3-6.8,0.9c-1.9,0.6-2.8,1.6-2.8,3.1c0,0.6,0.2,1.2,0.6,1.5c0.4,0.4,1,0.8,1.8,1.2
		c0.8,0.4,1.2,0.8,1.4,1.1c0.6,1.2,0.8,3.3,0.8,6.3c0,3.7-0.1,6.8-0.3,9.5c-0.2,2.7-0.4,5.5-0.7,8.4c-0.1,1-0.3,1.8-0.7,2.2
		c-0.3,0.4-0.8,0.7-1.4,0.9c-0.6,0.2-1,0.4-1.3,0.7c-0.3,0.2-0.4,0.7-0.4,1.4c0,2,2.3,3.1,7,3.1c5.4,0,8.1-1.1,8.1-3.3
		c0-0.8-0.4-1.4-1.2-1.7c-0.8-0.4-1.4-0.8-1.8-1.2c-0.4-0.4-0.6-1.5-0.6-3.2c0-0.2,0-0.7-0.1-1.6c0-0.9-0.1-1.7-0.1-2.3
		c0-3.5,0.4-5.2,1.3-5.2c0.4,0,0.8,0.2,1.1,0.7C111.6,32.6,111.9,33.1,112.2,33.8L112.2,33.8z M172,44.5l3.3-9.1
		c1.1-3,2.1-5.2,2.9-6.6c0.4-0.7,0.9-1.2,1.4-1.5c0.5-0.3,1.1-0.7,1.9-1c0.7-0.3,1.2-0.6,1.6-1c0.3-0.3,0.5-0.9,0.5-1.6
		c0-1.1-0.6-1.9-1.9-2.2c-1.3-0.4-2.6-0.6-4.1-0.6c-1.7,0-3.3,0.2-4.9,0.7c-1.6,0.5-2.3,1.3-2.3,2.6c0,0.4,0.1,0.7,0.2,1
		c0.1,0.2,0.3,0.5,0.6,0.8c0.3,0.3,0.5,0.7,0.7,1c0.2,0.3,0.2,0.8,0.2,1.4c0,0.9-0.3,1.9-0.9,3.2c-0.6,1.3-1.2,1.9-2,1.9
		c-0.3,0-0.8-0.4-1.3-1.1c-0.6-0.7-1-1.6-1.5-2.5c-0.4-1-0.6-1.8-0.6-2.4c0-0.3,0.1-0.6,0.1-0.7c0.1-0.2,0.2-0.4,0.5-0.8
		c0.2-0.4,0.4-0.7,0.5-0.9c0.1-0.2,0.1-0.5,0.1-0.9c0-1.4-0.7-2.3-2.2-2.7c-1.5-0.4-3.1-0.7-4.9-0.7c-3.6,0-6.3,0.2-8.2,0.6
		c-1.9,0.4-3.1,0.9-3.7,1.5c-0.5,0.6-0.8,1.2-0.8,2c0,0.6,0.1,1,0.4,1.3c0.3,0.3,0.8,0.6,1.4,0.9c0.7,0.3,1.2,0.6,1.5,0.8
		c0.3,0.2,0.6,0.6,0.8,1.1l7.8,16.3c1.2,2.4,1.8,4.1,1.8,5c0,2.3-5,8.6-9.7,15.8c-7.7,11.9-17.4,26.3-17.1,42.4
		c0.3,19.9,19,34.7,38.2,28.5c11.5-3.7,20.7-14.3,20-27.5c-0.6-10.5-7.2-19.8-17.7-21.9c-7.9-1.6-16.1,1.3-19.8,7
		c-2.6,4.1-3.5,9-2.6,13.2c0.3,1.4,0.9,2.8,1.7,4.1c1,1.6,2.3,3,3.7,4c0.9,0.6,1.8,1.1,2.7,1.3c1.6,0.5,3.2,0.4,4.6,0
		c1.3-0.4,2.4-1.3,3.1-2.3c3.6-3.3-2.9-12.2,2.5-14.7c5.4-2.5,9.7,7.3,8.7,12.5c-1.5,7.9-8,12-15.7,12c-11.3-0.1-18.1-7.9-18-19
		c0.1-12.8,6.3-25.7,12.6-36.6c3.3-5.6,6.8-11.1,10.4-17.3C169.8,49.9,171,47.4,172,44.5L172,44.5z M188.9,38.5v3.1
		c0,4.9-0.3,7.9-0.8,9c-0.3,0.6-0.8,1.1-1.5,1.5c-0.8,0.4-1.2,0.7-1.4,0.9c-0.2,0.2-0.3,0.6-0.3,1.3c0,0.9,0.6,1.8,1.8,2.7
		c1.2,0.9,2.8,1.6,4.8,2.1c2,0.5,4.3,0.8,6.7,0.8c1.7,0,3.4-0.2,4.9-0.7c1.5-0.5,2.3-1.4,2.3-2.8c0-0.6-0.1-1-0.4-1.3
		c-0.2-0.2-0.7-0.6-1.3-0.9c-0.6-0.4-1.1-0.8-1.4-1.3c-0.3-0.5-0.5-1.2-0.5-2.1c0-1.2,0.3-1.8,0.9-1.8c0.1,0,0.5,0.1,1.3,0.4
		c0.7,0.3,1.5,0.5,2.2,0.7c0.7,0.2,1.4,0.3,2.2,0.3c1.9,0,3.7-0.4,5.4-1.3c1.7-0.9,3.1-2,4.3-3.5c1.2-1.5,2.1-3.2,2.8-5
		c0.6-1.8,0.9-3.7,0.9-5.6c0-2.2-0.4-4.4-1.3-6.6c-0.9-2.1-2.2-3.9-3.9-5.2c-1.7-1.3-3.7-2-6-2c-1.3,0-2.6,0.2-3.6,0.6
		c-1.1,0.4-2.1,0.9-3.1,1.5c-1,0.6-1.5,0.9-1.7,0.9c-0.4,0-0.6-0.4-0.6-1.2c0-0.7-0.1-1.1-0.3-1.3c-0.2-0.2-0.6-0.3-1.3-0.3
		c-1.1,0-2.5,0.2-4.3,0.5c-1.8,0.4-3.5,0.8-5.2,1.4c-1.7,0.6-3.2,1.3-4.3,2.1c-1.2,0.8-1.7,1.7-1.7,2.6c0,0.9,0.2,1.6,0.7,2
		c0.4,0.4,1,0.6,1.8,0.8c0.7,0.2,1.2,0.3,1.3,0.4C188.7,31.5,188.9,33.9,188.9,38.5L188.9,38.5z M204.1,29.3L204.1,29.3
		c1.1,0,1.9,0.4,2.5,1.1c0.6,0.7,1,1.7,1.2,2.7c0.2,1.1,0.3,2.2,0.3,3.2c0,4.3-1.3,6.4-3.9,6.4c-1,0-1.7-0.2-2.2-0.6
		c-0.4-0.4-0.7-1-0.7-1.9c0-3.4,0.1-5.8,0.2-7.3c0.2-1.5,0.4-2.5,0.8-2.9C202.8,29.5,203.4,29.3,204.1,29.3L204.1,29.3z M227.8,38.5
		v3.1c0,4.9-0.3,7.9-0.8,9c-0.3,0.6-0.8,1.1-1.5,1.5c-0.8,0.4-1.2,0.7-1.5,0.9c-0.2,0.2-0.3,0.6-0.3,1.3c0,0.9,0.6,1.8,1.8,2.7
		c1.2,0.9,2.8,1.6,4.8,2.1c2,0.5,4.3,0.8,6.7,0.8c1.7,0,3.4-0.2,4.9-0.7c1.5-0.5,2.3-1.4,2.3-2.8c0-0.6-0.1-1-0.4-1.3
		c-0.2-0.2-0.7-0.6-1.3-0.9c-0.6-0.4-1.1-0.8-1.4-1.3c-0.3-0.5-0.4-1.2-0.4-2.1c0-1.2,0.3-1.8,0.9-1.8c0.1,0,0.5,0.1,1.3,0.4
		c0.8,0.3,1.5,0.5,2.2,0.7c0.7,0.2,1.5,0.3,2.2,0.3c1.9,0,3.8-0.4,5.4-1.3c1.6-0.9,3.1-2,4.3-3.5c1.2-1.5,2.1-3.2,2.8-5
		c0.6-1.8,1-3.7,1-5.6c0-2.2-0.4-4.4-1.3-6.6c-0.9-2.1-2.2-3.9-3.9-5.2c-1.7-1.3-3.7-2-6-2c-1.3,0-2.6,0.2-3.6,0.6
		c-1.1,0.4-2.1,0.9-3.1,1.5c-1,0.6-1.6,0.9-1.7,0.9c-0.4,0-0.6-0.4-0.6-1.2c0-0.7-0.1-1.1-0.3-1.3c-0.2-0.2-0.6-0.3-1.3-0.3
		c-1.1,0-2.5,0.2-4.3,0.5c-1.7,0.4-3.5,0.8-5.2,1.4c-1.7,0.6-3.2,1.3-4.3,2.1c-1.2,0.8-1.7,1.7-1.7,2.6c0,0.9,0.2,1.6,0.7,2
		c0.4,0.4,1,0.6,1.7,0.8c0.7,0.2,1.2,0.3,1.3,0.4C227.5,31.5,227.8,33.9,227.8,38.5L227.8,38.5z M243,29.3L243,29.3
		c1.1,0,1.9,0.4,2.5,1.1c0.6,0.7,1,1.7,1.2,2.7c0.2,1.1,0.3,2.2,0.3,3.2c0,4.3-1.3,6.4-3.9,6.4c-1,0-1.7-0.2-2.1-0.6
		c-0.4-0.4-0.7-1-0.7-1.9c0-3.4,0.1-5.8,0.2-7.3c0.2-1.5,0.4-2.5,0.8-2.9C241.7,29.5,242.3,29.3,243,29.3L243,29.3z M266.6,38.5v3.1
		c0,4.9-0.3,7.9-0.8,9c-0.3,0.6-0.8,1.1-1.5,1.5c-0.8,0.4-1.2,0.7-1.4,0.9c-0.2,0.2-0.3,0.6-0.3,1.3c0,0.9,0.6,1.8,1.8,2.7
		c1.2,0.9,2.8,1.6,4.9,2.1c2,0.5,4.2,0.8,6.6,0.8c1.7,0,3.4-0.2,4.9-0.7c1.6-0.5,2.3-1.4,2.3-2.8c0-0.6-0.1-1-0.4-1.3
		c-0.2-0.2-0.7-0.6-1.3-0.9c-0.6-0.4-1.1-0.8-1.4-1.3c-0.3-0.5-0.5-1.2-0.5-2.1c0-1.2,0.3-1.8,0.9-1.8c0.1,0,0.5,0.1,1.3,0.4
		c0.8,0.3,1.5,0.5,2.2,0.7c0.7,0.2,1.5,0.3,2.2,0.3c1.9,0,3.7-0.4,5.4-1.3c1.7-0.9,3.1-2,4.3-3.5c1.2-1.5,2.1-3.2,2.8-5
		c0.6-1.8,1-3.7,1-5.6c0-2.2-0.4-4.4-1.3-6.6c-0.9-2.1-2.2-3.9-3.9-5.2c-1.7-1.3-3.7-2-6-2c-1.3,0-2.6,0.2-3.6,0.6
		c-1.1,0.4-2.1,0.9-3.1,1.5c-1,0.6-1.5,0.9-1.7,0.9c-0.4,0-0.6-0.4-0.6-1.2c0-0.7-0.1-1.1-0.3-1.3c-0.2-0.2-0.6-0.3-1.3-0.3
		c-1.1,0-2.5,0.2-4.3,0.5c-1.7,0.4-3.5,0.8-5.2,1.4c-1.7,0.6-3.2,1.3-4.3,2.1c-1.2,0.8-1.7,1.7-1.7,2.6c0,0.9,0.2,1.6,0.6,2
		c0.4,0.4,1,0.6,1.8,0.8c0.7,0.2,1.2,0.3,1.3,0.4C266.4,31.5,266.6,33.9,266.6,38.5L266.6,38.5z M281.9,29.3L281.9,29.3
		c1.1,0,1.9,0.4,2.5,1.1c0.6,0.7,1,1.7,1.2,2.7c0.2,1.1,0.3,2.2,0.3,3.2c0,4.3-1.3,6.4-3.9,6.4c-1,0-1.7-0.2-2.2-0.6
		c-0.4-0.4-0.7-1-0.7-1.9c0-3.4,0.1-5.8,0.2-7.3c0.2-1.5,0.4-2.5,0.8-2.9C280.6,29.5,281.2,29.3,281.9,29.3L281.9,29.3z M84.8,26.1
		c1,1.5,1.9,2.3,2.5,2.5c0.8-0.3,0.6-0.2,1.8-1.1c1.2-0.8,5.2-11.8,3.9-16.8c-0.2-0.5-0.5-1.1-0.9-1.6c-1.5-2-3.4-2.7-5.9-2
		c-0.5,0.1-1,0.3-1.5,0.5c-1.9,0.9-2.2,1.7-2.9,3.6C81.3,14.4,82.1,21,84.8,26.1z"/>
	<path fill="#F37021" d="M5.3,59.9l0.1,0.9c-0.2-0.1-0.4-0.1-0.6-0.1c-0.2,0-0.4-0.1-0.6-0.1c-0.9,0-1.6,0.3-2.1,0.8
		c-0.5,0.5-0.7,1.3-0.7,2.2c0,1,0.2,1.7,0.7,2.2c0.4,0.5,1,0.8,1.8,0.8c0.3,0,0.6,0,0.8-0.1c0.3-0.1,0.6-0.2,0.9-0.3l-0.1,0.9
		c-0.3,0.1-0.6,0.2-0.8,0.3c-0.3,0-0.6,0.1-0.9,0.1c-1,0-1.9-0.3-2.5-1c-0.6-0.7-0.9-1.5-0.9-2.7c0-1.3,0.3-2.3,1-3
		C2,60.2,2.9,59.8,4,59.8c0.3,0,0.5,0,0.7,0C4.9,59.8,5.1,59.9,5.3,59.9z M13.2,63.7h-5c0,1,0.2,1.8,0.7,2.3
		c0.4,0.5,1.1,0.7,1.9,0.7c0.3,0,0.7,0,1-0.1c0.3-0.1,0.7-0.2,1-0.3l0,0.8c-0.4,0.2-0.7,0.3-1.1,0.3c-0.3,0.1-0.7,0.1-1,0.1
		c-1.1,0-2-0.3-2.6-1c-0.6-0.7-0.9-1.6-0.9-2.9c0-1.2,0.3-2.2,0.8-2.9c0.6-0.7,1.3-1.1,2.3-1.1c0.9,0,1.7,0.3,2.2,1
		c0.5,0.7,0.8,1.6,0.8,2.8V63.7z M12.1,62.9c0-0.8-0.2-1.4-0.5-1.8c-0.3-0.4-0.8-0.6-1.4-0.6c-0.6,0-1.1,0.2-1.4,0.6
		c-0.4,0.4-0.6,1-0.6,1.8H12.1z M14.7,59.9h5.4l0.2,0.9c-0.2,0-0.4,0-0.8-0.1c-0.3,0-0.8,0-1.5,0c0,0.1,0,0.1,0,0.3
		c0,1.1,0,1.8,0,2.3c0,0.8,0,1.6,0,2.3c0,0.7,0.1,1.3,0.1,1.9h-1.3c0.1-0.6,0.1-1.2,0.1-1.9c0-0.7,0-1.4,0-2.3c0-0.4,0-1.1,0-2.2
		c0-0.2,0-0.3,0-0.4c-0.7,0-1.2,0-1.5,0c-0.3,0-0.6,0-0.7,0.1L14.7,59.9z M22,59.9h1.2c0,0.6-0.1,1.1-0.1,1.6c0,0.5,0,1,0,1.4h0.9
		c1.2,0,2.2,0.2,2.7,0.5c0.6,0.3,0.8,0.9,0.8,1.7c0,0.7-0.3,1.3-0.8,1.7c-0.5,0.4-1.3,0.6-2.3,0.6H22c0-0.6,0.1-1.2,0.1-1.8
		c0-0.6,0-1.3,0-1.9c0-0.7,0-1.3,0-1.9C22.1,61.1,22.1,60.5,22,59.9z M23.2,66.6c0.2,0,0.4,0,0.6,0c0.2,0,0.4,0,0.5,0
		c0.9,0,1.5-0.1,1.8-0.3c0.4-0.2,0.6-0.6,0.6-1.1c0-0.5-0.2-0.9-0.6-1.1c-0.4-0.2-1.1-0.3-2-0.3c-0.2,0-0.4,0-0.5,0
		c-0.1,0-0.2,0-0.4,0c0,0.9,0,1.5,0,1.9C23.2,66,23.2,66.3,23.2,66.6z M36.6,63.4c0.6,0.1,1.1,0.3,1.4,0.7c0.3,0.3,0.5,0.7,0.5,1.3
		c0,0.7-0.3,1.2-0.9,1.6c-0.6,0.4-1.3,0.6-2.2,0.6c-0.5,0-0.9-0.1-1.4-0.2c-0.4-0.1-0.8-0.2-1.3-0.4l0.2-1c0.3,0.2,0.7,0.4,1.1,0.5
		c0.4,0.1,0.8,0.2,1.3,0.2c0.7,0,1.2-0.1,1.6-0.4c0.4-0.3,0.6-0.6,0.6-1.1c0-0.4-0.2-0.8-0.5-1c-0.3-0.2-0.8-0.3-1.5-0.3
		c-0.1,0-0.2,0-0.4,0c-0.1,0-0.3,0-0.4,0l0.1-0.8c0,0,0.1,0,0.1,0c0.1,0,0.1,0,0.1,0c0.6,0,1.1-0.1,1.5-0.4c0.4-0.2,0.5-0.6,0.5-1
		c0-0.4-0.1-0.6-0.4-0.8c-0.3-0.2-0.7-0.3-1.2-0.3c-0.3,0-0.6,0.1-1,0.2c-0.3,0.1-0.7,0.3-1,0.5l-0.2-0.9c0.4-0.2,0.8-0.3,1.2-0.4
		c0.4-0.1,0.8-0.2,1.2-0.2c0.8,0,1.3,0.2,1.8,0.5c0.4,0.3,0.6,0.8,0.6,1.3c0,0.4-0.1,0.7-0.4,1C37.4,63,37,63.2,36.6,63.4z
		 M43.6,59.7c1.1,0,2,0.3,2.6,1c0.6,0.7,0.9,1.7,0.9,2.9c0,1.3-0.3,2.2-0.9,2.9c-0.6,0.7-1.5,1-2.6,1c-1.1,0-1.9-0.3-2.5-1
		c-0.6-0.7-0.9-1.7-0.9-2.9c0-1.3,0.3-2.2,0.9-2.9C41.7,60,42.6,59.7,43.6,59.7z M43.6,60.5c-0.8,0-1.4,0.3-1.8,0.8
		c-0.4,0.5-0.6,1.3-0.6,2.3c0,1,0.2,1.8,0.6,2.4c0.4,0.5,1,0.8,1.8,0.8c0.8,0,1.4-0.3,1.8-0.8c0.4-0.5,0.6-1.3,0.6-2.4
		c0-1-0.2-1.8-0.6-2.4C45,60.8,44.4,60.5,43.6,60.5z M52.4,59.7c1.1,0,1.9,0.3,2.6,1c0.6,0.7,0.9,1.7,0.9,2.9c0,1.3-0.3,2.2-0.9,2.9
		c-0.6,0.7-1.5,1-2.5,1c-1.1,0-1.9-0.3-2.5-1c-0.6-0.7-0.9-1.7-0.9-2.9c0-1.3,0.3-2.2,0.9-2.9C50.5,60,51.3,59.7,52.4,59.7z
		 M52.4,60.5c-0.8,0-1.4,0.3-1.8,0.8c-0.4,0.5-0.6,1.3-0.6,2.3c0,1,0.2,1.8,0.6,2.4c0.4,0.5,1,0.8,1.8,0.8c0.8,0,1.4-0.3,1.8-0.8
		c0.4-0.5,0.6-1.3,0.6-2.4c0-1-0.2-1.8-0.6-2.4C53.8,60.8,53.2,60.5,52.4,60.5z M58.6,59.9h1.8c0.3,1.1,0.6,2.1,0.9,3
		c0.3,0.9,0.6,1.8,0.9,2.7c0.3-1,0.6-2,0.9-2.9c0.3-1,0.5-1.9,0.7-2.8h1.8c0,1.2,0.2,2.4,0.3,3.6c0.2,1.2,0.4,2.5,0.7,3.8h-1.2
		c0-0.8-0.1-1.7-0.3-2.8c-0.1-1.1-0.3-2.5-0.5-4.1c-0.5,1.4-0.8,2.7-1.2,3.8c-0.3,1.1-0.6,2.2-0.8,3.1h-0.9c-0.5-1.6-0.9-2.9-1.2-4
		c-0.4-1.1-0.7-2.1-1.1-3c-0.2,1.5-0.4,2.9-0.5,4.1c-0.1,1.2-0.2,2.2-0.3,2.9h-1.1c0.3-1.4,0.5-2.7,0.6-4
		C58.4,62.2,58.5,61,58.6,59.9z M75,66.9l-0.1,0.5c-0.1,0-0.3,0.1-0.4,0.1c-0.2,0-0.3,0-0.4,0c-0.3,0-0.6-0.1-0.8-0.3
		c-0.2-0.2-0.3-0.4-0.4-0.7c-0.4,0.3-0.8,0.6-1.3,0.8c-0.4,0.2-0.9,0.3-1.3,0.3c-0.6,0-1.1-0.2-1.5-0.5c-0.3-0.4-0.5-0.8-0.5-1.5
		c0-0.8,0.4-1.5,1.1-2c0.8-0.5,1.9-0.7,3.3-0.8v-0.2c0-0.7-0.1-1.1-0.4-1.4c-0.3-0.3-0.7-0.4-1.4-0.4c-0.4,0-0.7,0.1-1,0.1
		c-0.3,0.1-0.6,0.2-0.9,0.4l-0.1-1c0.3-0.1,0.6-0.2,1-0.3c0.3-0.1,0.7-0.1,1.1-0.1c0.6,0,1,0.1,1.4,0.3c0.4,0.2,0.7,0.4,0.9,0.8
		c0.1,0.2,0.2,0.5,0.3,0.8c0.1,0.3,0.1,0.8,0.1,1.4v1v0.3c0,1.1,0.1,1.8,0.2,2.1c0.1,0.3,0.4,0.4,0.8,0.4
		C74.9,66.9,74.9,66.9,75,66.9C75,66.9,75,66.9,75,66.9z M72.9,63.4c-1.1,0-2,0.2-2.6,0.6c-0.6,0.4-0.9,0.9-0.9,1.5
		c0,0.4,0.1,0.7,0.4,0.9c0.2,0.2,0.6,0.3,1,0.3c0.4,0,0.7-0.1,1.1-0.2c0.4-0.1,0.7-0.3,1.1-0.6c0-0.2,0-0.4-0.1-0.7
		c0-0.3,0-0.6,0-1.1V63.4z M77.9,66.5c0,0.6,0,1.2,0,1.9c0,0.7,0.1,1.4,0.2,2.3h-1.4c0.1-0.6,0.1-1.5,0.2-2.5c0-1,0-2.2,0-3.5
		c0-1.1,0-2.1-0.1-2.9c0-0.8-0.1-1.5-0.2-2c0,0,0,0,0.1,0c0,0,0.1,0,0.1,0c0.1,0,0.2,0,0.3,0c0.1,0,0.2,0,0.3-0.1l0.4,1
		c0.5-0.4,0.9-0.7,1.4-0.9c0.4-0.2,0.8-0.3,1.2-0.3c0.9,0,1.6,0.4,2.2,1.1c0.6,0.7,0.8,1.7,0.8,2.9c0,1.2-0.3,2.1-0.9,2.9
		c-0.6,0.7-1.4,1.1-2.3,1.1c-0.5,0-0.9-0.1-1.3-0.3C78.6,67.2,78.2,66.9,77.9,66.5z M78,61.4c0,0.3,0,0.6,0,0.9c0,0.3,0,0.6,0,0.9
		c0,1.4,0.2,2.3,0.5,2.8c0.3,0.5,0.9,0.8,1.6,0.8c0.7,0,1.3-0.3,1.7-0.8c0.4-0.5,0.6-1.3,0.6-2.3c0-1-0.2-1.8-0.6-2.4
		c-0.4-0.6-0.9-0.9-1.6-0.9c-0.3,0-0.7,0.1-1.1,0.2C78.7,60.9,78.3,61.1,78,61.4z M85.7,59.9h1.2c0,0.5-0.1,1.1-0.1,1.7
		c0,0.6,0,1.1,0,1.7c0.7-0.7,1.2-1.3,1.7-1.9c0.5-0.6,0.8-1.1,1-1.5h1.4l-0.2,0.2c-1.5,1.6-2.4,2.6-2.8,3.2c0.3,0.2,0.9,0.8,1.7,1.8
		c0.8,1,1.5,1.7,2.2,2.3h-1.6c-0.6-0.9-1.2-1.7-1.8-2.4c-0.6-0.7-1.1-1.2-1.6-1.5c0,0.5,0,1.1,0,1.8c0,0.7,0,1.3,0.1,2.1h-1.2
		c0-0.5,0.1-1.1,0.1-1.7c0-0.6,0-1.3,0-2.1c0-0.7,0-1.4,0-2C85.8,61,85.7,60.4,85.7,59.9z M98.7,63.7h-5c0,1,0.2,1.8,0.6,2.3
		c0.4,0.5,1.1,0.7,1.9,0.7c0.3,0,0.7,0,1-0.1c0.4-0.1,0.7-0.2,1-0.3l-0.1,0.8c-0.4,0.2-0.7,0.3-1.1,0.3c-0.3,0.1-0.7,0.1-1,0.1
		c-1.2,0-2-0.3-2.6-1c-0.6-0.7-0.9-1.6-0.9-2.9c0-1.2,0.3-2.2,0.8-2.9c0.6-0.7,1.3-1.1,2.3-1.1c0.9,0,1.7,0.3,2.2,1
		c0.5,0.7,0.8,1.6,0.8,2.8V63.7z M97.6,62.9c0-0.8-0.2-1.4-0.5-1.8c-0.3-0.4-0.8-0.6-1.4-0.6c-0.6,0-1.1,0.2-1.4,0.6
		c-0.3,0.4-0.6,1-0.6,1.8H97.6z M100.1,59.9h5.4l0.2,0.9c-0.2,0-0.4,0-0.8-0.1c-0.3,0-0.8,0-1.5,0c0,0.1,0,0.1,0,0.3
		c0,1.1,0,1.8,0,2.3c0,0.8,0,1.6,0,2.3c0,0.7,0.1,1.3,0.1,1.9h-1.3c0-0.6,0.1-1.2,0.1-1.9c0-0.7,0-1.4,0-2.3c0-0.4,0-1.1,0-2.2
		c0-0.2,0-0.3,0-0.4c-0.7,0-1.2,0-1.5,0c-0.3,0-0.6,0-0.8,0.1L100.1,59.9z M110.4,59.7c1.1,0,1.9,0.3,2.5,1c0.6,0.7,0.9,1.7,0.9,2.9
		c0,1.3-0.3,2.2-0.9,2.9c-0.6,0.7-1.5,1-2.5,1c-1.1,0-1.9-0.3-2.5-1c-0.6-0.7-0.9-1.7-0.9-2.9c0-1.3,0.3-2.2,0.9-2.9
		C108.5,60,109.3,59.7,110.4,59.7z M110.4,60.5c-0.8,0-1.4,0.3-1.8,0.8c-0.4,0.5-0.6,1.3-0.6,2.3c0,1,0.2,1.8,0.6,2.4
		c0.4,0.5,1,0.8,1.8,0.8c0.8,0,1.4-0.3,1.8-0.8c0.4-0.5,0.6-1.3,0.6-2.4c0-1-0.2-1.8-0.6-2.4C111.8,60.8,111.2,60.5,110.4,60.5z
		 M116.1,59.9h1.9c1.2,0,2.1,0.1,2.6,0.4c0.5,0.3,0.7,0.7,0.7,1.3c0,0.5-0.1,0.8-0.4,1.1c-0.3,0.3-0.6,0.5-1.1,0.5
		c0.6,0.1,1.1,0.3,1.4,0.7c0.3,0.3,0.5,0.8,0.5,1.3c0,0.7-0.3,1.2-0.8,1.6c-0.5,0.4-1.3,0.6-2.2,0.6h-2.6c0-0.6,0.1-1.2,0.1-1.8
		c0-0.6,0-1.3,0-1.9c0-0.7,0-1.3,0-1.9C116.2,61.1,116.2,60.5,116.1,59.9z M117.2,66.6c0.2,0,0.4,0,0.6,0c0.2,0,0.3,0,0.5,0
		c0.9,0,1.5-0.1,1.9-0.3c0.4-0.2,0.6-0.6,0.6-1.1c0-0.6-0.2-1-0.6-1.2c-0.4-0.3-1.1-0.4-2-0.4c-0.2,0-0.4,0-0.8,0h0
		c0,0.9,0,1.5,0,1.9C117.2,66,117.2,66.3,117.2,66.6z M117.2,60.7c0,0.2,0,0.8,0,1.5c0,0.3,0,0.6,0,0.7c0.1,0,0.2,0,0.3,0
		c0.1,0,0.2,0,0.5,0c0.8,0,1.4-0.1,1.8-0.3c0.4-0.2,0.5-0.5,0.5-0.9c0-0.4-0.2-0.7-0.5-0.9c-0.4-0.2-1-0.3-1.8-0.3
		c-0.2,0-0.4,0-0.5,0C117.4,60.7,117.3,60.7,117.2,60.7z"/>
</g>
</svg>
