<?xml version="1.0" encoding="utf-8"?>
<!-- Generator: Adobe Illustrator 18.1.1, SVG Export Plug-In . SVG Version: 6.00 Build 0)  -->
<svg version="1.1"
	 id="svg43" xmlns:rdf="http://www.w3.org/1999/02/22-rdf-syntax-ns#" xmlns:cc="http://creativecommons.org/ns#" xmlns:svg="http://www.w3.org/2000/svg" xmlns:dc="http://purl.org/dc/elements/1.1/"
	 xmlns="http://www.w3.org/2000/svg" xmlns:xlink="http://www.w3.org/1999/xlink" x="0px" y="0px"
	 viewBox="465.8 -195.7 511.5 511.3" enable-background="new 465.8 -195.7 511.5 511.3" xml:space="preserve">
<g id="Layer1000">
	<path id="path2" fill="#7AB71A" d="M721.6-195.7c141.2,0,255.7,114.5,255.7,255.7S862.8,315.8,721.6,315.8S465.8,201.3,465.8,60
		S580.3-195.7,721.6-195.7C721.6-195.7,721.6-195.7,721.6-195.7z"/>
	<path id="path4" fill="#7AB71A" d="M721.6-150.8C838-150.8,932.4-56.4,932.4,60S838,270.8,721.6,270.8S510.8,176.4,510.8,60
		C510.8-56.4,605.1-150.8,721.6-150.8C721.6-150.8,721.6-150.8,721.6-150.8z"/>
	<path id="path6" fill="#FFCF00" d="M721.6-161.4c61.2,0,116.5,24.8,156.6,64.9C918.2-56.5,943-1.1,943,60s-24.8,116.5-64.9,156.6
		c-40.1,40.1-95.4,64.9-156.6,64.9S605.1,256.7,565,216.6c-40.1-40.1-64.9-95.4-64.9-156.6S524.9-56.5,565-96.6
		C605.1-136.7,660.4-161.4,721.6-161.4L721.6-161.4z M863.1-81.5c-36.2-36.2-86.3-58.6-141.5-58.6S616.3-117.7,580-81.5
		C543.8-45.3,521.4,4.7,521.4,60s22.4,105.3,58.6,141.5c36.2,36.2,86.3,58.6,141.5,58.6s105.3-22.4,141.5-58.6
		c36.2-36.2,58.6-86.3,58.6-141.5S899.3-45.3,863.1-81.5L863.1-81.5z"/>
	<path id="path8" fill="#C10F4A" d="M668.4-120.2c12.3-1.6,19.4,4.9,21.3,19.7l0.2,1.2c0.2,1.9,0.1,3.6-0.6,5.1
		c0.1,0.8,0.6,1.2,1.4,1.1l-0.1,8.7l0.6,4.9c3.8,9.5,5.8,15.5,6.1,18c-5.2,6.5-9.8,10-13.6,10.5l-1.2,0.2c-1.6,0.2-2.7-1.7-3.3-5.8
		l-1.2,0.2l-9.2,6.2c-12.6-0.9-19.8-8.2-21.7-22.1c2.8-6,6.8-10.6,11.9-14.1l6.2-0.8c6,0.9,9.4,1.3,10.1,1.2l-0.8-6.2
		c-0.1-0.8,0.2-1.3,1.1-1.4c-2.3-4.7-4.3-6.9-5.9-6.7c-4.1,6-7.8,9.4-11.1,10.2l-0.2-1.2l-2.3,1.6c-4.9,0.6-7.7-1.5-8.3-6.4
		c3-12.9,8.4-19.9,16-20.9C663.6-118.7,665.1-119.8,668.4-120.2L668.4-120.2z M652.4-99.3L652.4-99.3l0.2,1.2l2.5-0.3l0.6-5.1
		C654.4-103.4,653.3-102,652.4-99.3z M661-71.7L661-71.7c0.6,4.9,3.4,7,8.4,6.4l1.2-0.2c1.2-0.2,2.3-1.6,3.2-4.2
		c-0.5-4.1-2.5-6.3-5.8-6.7C663.1-74.9,660.8-73.4,661-71.7z M679.2-114.1L679.2-114.1l0.2,1.2l2.6,0.9l-0.2-1.2L679.2-114.1z"/>
	<path id="path10" fill="#C10F4A" d="M769.2-119l7.3,1.7l6.2,6.6c-0.2,0.9-0.9,2-2.1,3.4c-4.5,19.4-3.7,36.3,2.4,50.7l-0.3,1.2
		c-1.3,5.8-7.2,8.7-17.4,8.8l-1.3-0.3c-1.7-0.6-3.3-4.9-4.7-12.7l1.2,0.3c-0.8-3.7-1.1-6.3-0.7-7.9l1.2,0.3
		c-0.5-1.4-0.4-3.9,0.5-7.6l-1.3-0.3c-8.8,13.4-15,19.8-18.5,18.9c-3-0.7-5.5-8.1-7.7-22.4l-2.4-0.6c-2.2,9.6-6.8,16.2-13.6,20
		l-3.7-0.9c-9.5-3.4-13.7-7.4-12.6-11.9c8.7-6.6,17.5-18.8,26.4-36.3c2.6-11.4,5.2-16.8,7.6-16.3l8.6,2c4.6,2.3,6,7.4,4.2,15.2
		c-0.5,2.2-0.5,9.5,0.1,21.9c1.6,0.4,7.6-10.7,18-33.2L769.2-119z M744.3-117L744.3-117c0.4,1.8,0.6,3.1,0.4,3.9l1.2,0.3l0.6-2.4
		L744.3-117z M777.3-109.4L777.3-109.4l-0.6,2.4l1.2,0.3l0.6-2.4L777.3-109.4z M777-58L777-58l-1.1,4.9l1.3,0.3l2.3-4.6L777-58z"/>
	<path id="path12" fill="#C10F4A" d="M867.2-72l0.4,4.4l-1.1,2.1c-4.4,1.8-11.5,9.9-21.3,24.2c-3.7,10.3-6,19.6-6.8,27.9
		c-6.7,0-12.1-1-16.1-3.2l-2.1-1.1c-3-1.6-0.6-11.3,7.4-29l-1.1-0.6c-12.3,7.1-22.9,11.5-31.7,13.2l-3.2-1.7l-8.4-7.3
		c18.6-22.8,29.7-37.5,33.2-44c5.8-0.5,10.4,0.2,14,2.1l1,0.6l-1.2,4.8l-1.1-0.6l0,2.7c-0.9,1.6-2,2.9-3.4,3.7l0,2.7
		c-4.4,6.4-7.2,9.9-8.5,10.6l2.1,1.1l17-8.8c8.7-7.2,15.4-9.6,20.2-7C861.9-74,865.5-73,867.2-72L867.2-72z M861.2-71.1L861.2-71.1
		c-0.5,1.6-0.2,2.6,1,3.3l1.1-2.1L861.2-71.1z"/>
	<path id="path14" fill="#C10F4A" d="M617.7,122.7c-3,8.8-2.7,20.3,0.8,34.5l1,0.8c12.9-9.9,19.5-14.7,19.9-14.4
		c4.2,3.4,6.4,7.4,6.5,11.7c-10.4,12.7-26.4,21.7-47.9,27c-6.6,1.1-12.5,1.1-17.7,0.1c-3-2.5-2.5-8.5,1.7-18
		c12.3,0.4,18.9,0.9,19.7,1.6l0.8-1c0.5-0.7-2.6-10.7-9.3-30.2c-0.9-5.4-0.4-9.3,1.5-11.7C608.6,121.7,616.3,121.5,617.7,122.7
		L617.7,122.7z M610.8,125.1L610.8,125.1l-2.5,1.1l2.9,2.4C612.2,127.3,612.1,126.2,610.8,125.1z M639.2,151.5L639.2,151.5
		c-0.9,1.5-0.8,2.7,0.3,3.6l1,0.8c1.1-1.3,1-2.5-0.3-3.6L639.2,151.5z"/>
	<path id="path16" fill="#C10F4A" d="M673,167.4c12.3,5.1,19.4,12.5,21.4,22.1l-2.1,8.4l-0.5,1.2c-5.1,8.5-8.9,12.3-11.3,11.3
		l-5.7-2.4c-2.9-3.6-4.2-5.9-3.8-6.9c2.5-3.9,4.1-6.7,4.9-8.6c1.6-3.8,0.5-6.5-3.3-8c-6.8-2.8-13.6,1.9-20.5,14.1
		c-1.2,11.9,1.6,19.2,8.2,22l4.5,1.9l11.9-3l2.2,0.9c2.9,3.5,4.2,5.8,3.8,6.9l-0.9,2.2c-10.5,7.2-20.4,8.8-29.9,4.9l-6.8-2.8
		c-7.9-3.3-13.6-10.9-17.1-23c0-8.5,1-15.2,3-20c6.4-15.5,17.1-23,32-22.6L673,167.4z M651.1,184.8L651.1,184.8l-1.9,4.5l1.2,0.5
		c0.5-1.2,1.9-2.3,4.2-3.6L651.1,184.8z M684.9,180.2L684.9,180.2c-0.4,1.6,0.1,2.7,1.4,3.2l1.2,0.5l0.9-2.2L684.9,180.2z
		 M673.6,223.4L673.6,223.4l-0.5,1.2l3.4,1.4l2.1-1.8l-1.2-0.5C675.7,223.8,674.5,223.8,673.6,223.4z"/>
	<path id="path18" fill="#C10F4A" d="M726.2,182c12.4,0,18.6,7.4,18.6,22.3v1.2c0,1.9-0.4,3.6-1.2,5c0,0.8,0.4,1.2,1.2,1.2l-1.2,8.6
		v5c2.5,9.9,3.7,16.1,3.7,18.6c-6,5.8-11,8.6-14.9,8.6h-1.2c-1.7,0-2.5-2.1-2.5-6.2h-1.2l-9.9,5c-12.4-2.5-18.6-10.7-18.6-24.8
		c3.6-5.5,8.1-9.7,13.6-12.4h6.2c5.9,1.7,9.2,2.5,9.9,2.5v-6.2c0-0.8,0.4-1.2,1.2-1.2c-1.7-4.9-3.4-7.4-5-7.4
		c-4.8,5.4-9,8.3-12.4,8.6v-1.2l-2.5,1.2c-4.9,0-7.4-2.5-7.4-7.4c4.7-12.4,10.9-18.6,18.5-18.6C721.2,182.9,722.8,182,726.2,182
		L726.2,182z M707.6,200.6L707.6,200.6v1.2h2.5l1.2-5C710.1,196.9,708.9,198.1,707.6,200.6z M712.5,229.1L712.5,229.1
		c0,4.9,2.5,7.4,7.5,7.4h1.2c1.2,0,2.4-1.2,3.7-3.7c0-4.1-1.6-6.6-4.9-7.4C715,226.2,712.5,227.5,712.5,229.1z M736.1,189.4
		L736.1,189.4v1.2l2.5,1.2v-1.2L736.1,189.4z"/>
	<path id="path20" fill="#C10F4A" d="M786.6,162.4l6.9-3l8.9,1.6c0.4,0.8,0.5,2.1,0.4,3.9c8,18.2,18.7,31.3,32.2,39.3l0.5,1.1
		c2.4,5.5-0.5,11.3-8.7,17.5l-1.2,0.5c-1.8,0.5-5.6-1.9-11.4-7.3l1.1-0.5c-2.9-2.5-4.7-4.4-5.3-5.9l1.1-0.5
		c-1.3-0.8-2.6-2.9-4.2-6.4l-1.2,0.5c1,16-0.2,24.8-3.6,26.2c-2.8,1.2-9.3-3.2-19.5-13.4l-2.3,1c3.9,9,4.3,17.1,1,24.2l-3.5,1.5
		c-9.6,2.9-15.4,2.3-17.3-2c3-10.5,2.9-25.5-0.5-44.9c-4.7-10.7-5.9-16.6-3.6-17.6l8.1-3.5c5.1-0.9,9.2,2.3,12.4,9.7
		c0.9,2,5.2,7.9,13.1,17.5c1.5-0.7-0.3-13.1-5.4-37.4L786.6,162.4z M767.8,178.8L767.8,178.8c1.4,1.1,2.3,2.1,2.6,2.9l1.1-0.5
		l-1-2.3L767.8,178.8z M798.8,165.2L798.8,165.2l1,2.3l1.1-0.5l-1-2.3L798.8,165.2z M829.2,206.7L829.2,206.7l2,4.6l1.2-0.5
		l-0.9-5.1L829.2,206.7z"/>
	<path id="path22" fill="#C10F4A" d="M835.2,108.5l4.4,0.5l1.9,1.5c0.9,4.7,7.5,13.2,19.7,25.5c9.4,5.6,18.1,9.6,26.1,12
		c-1.3,6.6-3.3,11.7-6.2,15.2l-1.5,1.9c-2.2,2.6-11.2-1.6-27.1-12.8l-0.8,1c4.6,13.5,6.8,24.7,6.8,33.7l-2.3,2.8l-8.8,6.9
		c-18.8-22.7-31-36.4-36.7-41.1c0.6-5.8,2.2-10.2,4.8-13.3l0.7-0.9l4.5,2.1l-0.8,1l2.7,0.6c1.4,1.2,2.4,2.5,3,4l2.7,0.6
		c5.4,5.5,8.4,9,8.8,10.3l1.5-1.9l-5.3-18.4c-5.4-9.9-6.4-16.9-2.9-21.2C832.2,113.4,833.9,110,835.2,108.5L835.2,108.5z
		 M834.9,114.5L834.9,114.5c1.4,0.8,2.6,0.7,3.4-0.3l-1.9-1.5L834.9,114.5z"/>
	<g id="Layer1001">
		<g id="Layer1002">
			<path id="path24" fill="#FFCF00" d="M706,59.2l-3.8,6.4l2.8,0.1c-0.4,0.5-0.6,1-0.8,1.3c-1.1,1.9-3.1,6.8-3.5,7.7l-4.1,9.9
				l3.8-1.6l-7.4,14.6C683,86.6,677,72.1,677,56.1c0-33.3,26-60.5,58.8-62.6l0.1,1.4c-2.3,2.6-4.9,7-4.9,13.3c0,1.1,0.1,1.9,0.1,2.6
				c-0.9,0-2.2,0.1-3.6,0.3c-2.6,0.4-4.5,1.7-6,2.6c-0.3,0.2-0.8,0.5-1.1,0.7c-2.2-0.3-7.2-0.9-11.1-0.9c-2.5,0-4.3,0.2-5.6,0.8
				c-1.7,0.7-3,2.1-3.9,4.3c-1.8,4.6-1.8,14.3,0,18c1.1,2.4,3.9,4,9.4,7.1c1.7,0.9,4.4,2.4,6.2,3.7c-1.2,1.1-2.6,2.5-3.9,3.9
				C708.4,55.1,706.1,59,706,59.2L706,59.2z"/>
			<g id="Layer1003">
				<path id="path26" fill="#AEC800" d="M730.2,57.7c2.9-0.1,5.5-0.6,7.7-1.3l-1,2.5l-22.5,54.6c-6.2-2.7-11.8-6.5-16.7-10.9
					l11.5-28l-4.4,1.8c0.1-0.3,2.3-5.5,3.2-7.2c1-1.7,5.5-7.6,5.5-7.6l-2.2-0.1l-1.5-0.1c0,0,2.1-3.6,5.1-7.1l0.8-1.6
					c0.1,0.1,0.3,0.2,0.4,0.3c2.8,1.8,8.1,4.8,13.6,4.8C730,57.8,730.1,57.7,730.2,57.7z"/>
				<path id="path28" fill="#AEC800" d="M752.1,21.9l-11.9,28.8c-2,0.9-5.7,2.4-10.1,2.6c-3.9,0.1-8.1-2-10.6-3.5
					c0.8-0.8,1.5-1.4,1.8-1.8c0.6-0.9-0.1-1.9-1.5-3.1c-4.2-3.5-14.6-8-15.7-10.2c-1.5-3-1.4-15.1,1.5-16.3c0.9-0.3,2.3-0.5,4-0.5
					c4,0,9.2,0.7,11,0.9c0.1,0,0.2,0,0.3,0c2.2,0,4.4-3,7.4-3.4c3.6-0.5,5.6,0.1,6.6-1c1.6-1.8,0.8-2.8,0.8-6.3
					c0-2.4,0.5-4.4,1.1-6.1c1.8-4.5,5.1-6.6,5.1-6.6L752.1,21.9z"/>
			</g>
			<path id="path31" fill="#1D4D91" d="M741.2,65l14.3-34.6l4.6,11.7c0.9,0.1,7,1.2,10.1,2.6c3.3,1.6,2.8,6.2,4.4,7.4
				c1.7,1.2,3.1,1.6,4,2c0.8,0.5,1.9,4.4,1.8,7.1c-0.2,2.7-2.7,5.9-5,6.6c-2.3,0.6-3.3,1.8-3.3,3.7c0,0.4,0,0.8,0.1,1.3
				c-0.8,0.3-7.8,2.9-15.6,1.5C748.8,73,743,67.1,741.2,65L741.2,65z"/>
			<path id="path33" fill="#1D4D91" d="M782.1,102.5c-11.1,10.2-25.9,16.5-42.2,16.5h-0.2c-0.8,0-1.5,0-2.3-0.1
				c-0.8,0-1.6-0.1-2.4-0.1c-0.3,0-0.5,0-0.8-0.1c-0.6,0-1.3-0.1-1.9-0.2c-0.6-0.1-1.2-0.1-1.9-0.3c-0.4-0.1-0.9-0.1-1.3-0.2
				c-2.1-0.4-4.2-0.9-6.3-1.4c-0.9-0.2-1.8-0.5-2.7-0.8l0,0l19.1-46.2c3,3,8.8,7.8,16.4,9.2c2,0.4,3.9,0.5,5.6,0.5
				c5.9,0,10.5-1.5,12-2.1c0.5,0.9,3.5,6.3,4.8,9.2c1.6,3.6,3.4,10.2,3.5,10.6l-2.4-1C779.2,95.9,780.8,99.4,782.1,102.5
				L782.1,102.5z"/>
		</g>
		<g id="Layer1004">
			<path id="path36" fill="#C10F4A" d="M789.2,121.6l-2.5-6.7c-0.6-1.5-2.3-2.1-3.8-1.4c-58.2,31.3-90.3-3.9-98.7-12.5
				c-9-9.3-35.2-67.6,12.8-101.8c11.8-8.5,23.7-12.4,34.8-13.6c3.1-0.3,5.1-3.5,4-6.5l-2.9-7.8c-0.8-2-2.8-3.3-4.9-3.1
				c-46.7,4-82.1,42.2-82.1,88.3c0,49.4,40,87.5,92.7,87.5c19,0,34.6-5,47.2-12.5C789.2,129.6,790.6,125.4,789.2,121.6L789.2,121.6z
				 M691-3.1L691-3.1c-31,22.3-28.3,57.6-28.1,60.2C655.7,16.4,690-2.5,691-3.1L691-3.1z M655.5,69.5L655.5,69.5
				c3.3,17.2,13.5,28.2,13.5,28.2C656,90.3,655.5,69.5,655.5,69.5z"/>
		</g>
	</g>
	<path id="path40" fill="#C10F4A" d="M601-83.4c11.9-6,22.1-6.6,30.7-1.8l5,7.1l0.6,1.1c3.2,9.4,3.6,14.7,1.2,15.9l-5.5,2.8
		c-4.6-0.1-7.2-0.6-7.7-1.6c-1.3-4.4-2.4-7.5-3.3-9.3c-1.9-3.7-4.6-4.6-8.3-2.7c-6.5,3.3-7.4,11.6-2.6,24.7
		c8.3,8.6,15.6,11.3,22,8.1l4.4-2.2l5.5-11l2.2-1.1c4.6,0.1,7.1,0.6,7.7,1.6l1.1,2.2c-1.4,12.6-6.6,21.3-15.8,25.9l-6.5,3.3
		c-7.7,3.9-17.2,3.2-28.6-2.1c-6.5-5.6-10.9-10.7-13.3-15.3c-7.6-14.9-6.3-27.9,3.7-39L601-83.4z M600-55.4L600-55.4l2.2,4.4
		l1.1-0.6c-0.6-1.1-0.6-2.9,0-5.5L600-55.4z M618.5-84.1L618.5-84.1c1,1.3,2.1,1.7,3.3,1l1.1-0.6l-1.1-2.2L618.5-84.1z M644-47.4
		L644-47.4l0.6,1.1l3.3-1.7l0-2.8l-1.1,0.6C645.7-48.7,644.8-47.8,644-47.4z"/>
</g>
</svg>
