<?xml version="1.0" encoding="utf-8"?>
<!-- Generator: Adobe Illustrator 18.1.1, SVG Export Plug-In . SVG Version: 6.00 Build 0)  -->
<svg version="1.1" id="_x31_" xmlns="http://www.w3.org/2000/svg" xmlns:xlink="http://www.w3.org/1999/xlink" x="0px" y="0px"
	 viewBox="0 0 566.9 264.6" enable-background="new 0 0 566.9 264.6" xml:space="preserve">
<g>
	<g>
		
			<rect x="0" y="0" fill-rule="evenodd" clip-rule="evenodd" fill="#E3000F" stroke="#000000" stroke-width="0.5669" stroke-miterlimit="22.9256" width="566.9" height="264.6"/>
		<g>
			<path fill-rule="evenodd" clip-rule="evenodd" d="M514,159.4c6.9-6.3,10.4-14.2,9.2-21.3c-0.9-5.5-4.4-9.9-9.9-12.3
				c-2.3-1-4.6-1.6-6.9-1.6c-8.5,0-13.9,7-17.6,11.7c-0.8,1.1-1.6,2.1-2.3,2.8c-0.5,0.6-1,1.1-1.4,1.6c-1,1.2-1.2,1.4-1.8,1.5
				c-0.7-0.3-1.9-0.7-3-1.2c-52.3-21.5-94-27.1-164.9-27.1c-51.7,0-102.5,5.4-151,16c-36.2,7.9-59.8,16.4-65.9,19
				c-1.9,0.8-4.5,1.9-5.8,1.9c-1,0-2.2-1-5.2-3.5c-1.7-1.8-13-12.7-25.5-12.7c-1.6,0-3.2,0.2-4.7,0.5c-7.6,1.8-12.9,8-13.8,16.2
				c-0.9,8.3,2.9,15.9,9.6,19.1c2.1,1,3.9,1.8,5.4,2.5c6.1,2.7,6.3,2.8,6.6,6.3c0.1,1.3-0.6,2.4-2.6,5c-3,3.8-7.5,9.7-5.8,20
				c1.5,9.3,7.2,14.4,22,12.4c14.7-2,22.4-21.6,23.8-22.5c28.4-19.3,124-40.8,215.6-40.8c31.2,0,58.8,2.5,82,7.5
				c0.4,0.1,0.8,0.1,1.1,0.1c2.7,0,4.9-2.3,4.9-5c0-0.6-0.1-1.2-0.3-1.8c0.1-0.4,0.4-1.1,0.8-1.6c0.3-0.3,0.4-0.3,0.4-0.3
				c0.1,0,0.7,0.1,1.7,0.7c0.8,0.6,1.8,0.8,2.7,0.8c0,0,0,0,0,0c2.8,0,5-2.2,5-5c0-0.7-0.1-1.3-0.4-1.9c-0.1-0.2-0.1-0.4-0.1-0.5
				c0.2,0,0.5-0.1,0.9-0.1c2.4,0,5.3,1.3,6.3,2.9c0.3,0.5,0.5,1,0.1,2c-0.7,1.6-0.5,3.6,0.6,5c1.1,1.4,2.8,2.2,4.6,2
				c0.2,0,0.3,0,0.5,0c0.8,0,1.4,0.5,1.9,1.2c-7.2,0.4-12.2,7.6-13.2,9.3c-2,2.8-2.5,6.3-1.1,9c0.9,1.7,3.1,4.6,8.7,4.6
				c1.6,0,3.5-0.3,5.5-0.8c0.4-0.1,0.9-0.2,1.3-0.4c-0.2,1.2-0.2,2.4,0.3,3.5c0.9,2.5,3.3,4.1,6,4.1c1.1,0,2.1-0.2,3.1-0.7
				c5.1-2,8-4.6,8.6-7.6c0.4-2.1-0.3-4.2-1.9-5.7c-0.9-0.9-2.8-2.7-5.6-2.7c-0.2,0-0.4,0-0.7,0c0.2-0.8,0.4-1.7,0.4-2.5
				c0-0.5,0-1-0.1-1.5c25.9,4.2,39,15.4,39.3,15.9c3.4,5.8,8.9,16.2,17.6,16.2c4.3,0,8.6,1,13.1-2.9c7.6-6.6,4.4-23.4,2.3-28.7
				C512.4,162.3,512.3,160.9,514,159.4z"/>
			<path fill-rule="evenodd" clip-rule="evenodd" fill="#FFFFFF" d="M84.2,148.3c0,0-13.1-13.9-25.6-11c-12.5,2.9-13.2,21.2-3.2,26
				c10,4.8,14.2,4.7,14.9,12.8c0.7,8.1-10.8,10.5-8.4,24.6c2.3,14.2,23.8,9.1,29.8-1.8c2.8-5,3.5-8.5,8.2-11.7
				c40.9-27.7,202-55.4,301.4-34c-1.6-2.8,2.4-12.3,10.3-7.1c-4.6-13.1,21.6-7.5,16.4,4.3c7.8-1,9.1,8.6,9.1,8.6s42.3,8.7,48.8,19.7
				c6.5,11,13.3,20.4,23.1,12c9.8-8.4-7.7-28.8,1.6-37.2c9.3-8.4,11.2-20.6,0.7-25.4c-10.6-4.8-16.7,7.1-21,11.8
				c-2.6,2.8-3.3,4.7-7.4,4.7c-2.8,0-45.3-28.3-167.3-28.3c-122.1,0-206,30.8-214.8,34.6C91.8,154.7,90.5,153.7,84.2,148.3
				L84.2,148.3z M421.9,168.7c0,0,5.3-8.8,11.5-6.8c6.2,1.9,5.3,9.9-3.7,12.1C420.7,176.2,419.6,171.8,421.9,168.7L421.9,168.7z
				 M439.6,180.8c-2.5,1.2-4-1.3-0.8-4c3.2-2.6,3.6-3.3,5.9-1.1C447.1,177.9,439.6,180.8,439.6,180.8z"/>
			<path fill-rule="evenodd" clip-rule="evenodd" d="M222.2,74c-1.2-2.8-3.2-5.4-5.7-7.6c-1-7.1-2.4-14.4-8.3-14.4
				c-3.5,0-6,2.8-8.3,7.3c-1.6-0.2-3.2-0.3-4.8-0.3c-5.3,0-10.6,1-15.6,3.1c-1.2,0.5-2.4,1.1-3.6,1.7c-1.4-1.2-2.6-2.1-3.7-2.7
				c0.1-0.3,0.1-0.5,0.1-0.8c0.3-4.2-4.1-6.3-5.7-7.1c-1.1-0.5-2-1-2.9-1.5c-1.8-1.1-3.6-2.2-6.3-2.2c-2.7,0-5.6,1.1-10.8,4.1
				c-4.9,2.9-6.6,6.6-7.2,9.1c-0.6,2.7-0.3,5.3,0.4,7.5c-1.4,0.3-2.9,0.8-4.3,1.2c-2,0.7-4,1.5-5.8,2.5c-0.6-1.7-1.5-3.4-3-4.9
				c-1.8-1.9-5.1-4.1-10.7-4.1l-0.1,0c-10.2,0.1-12.7,1.8-15.6,7.1c-0.5,0.9-1,1.8-1.7,2.8c-0.5,0.8-1.3,2-1.8,3.5
				c-0.7-1.1-1.7-2.2-3-3C90,73.1,85.1,73.4,83,76c-1.1,1.4-1.3,3.8-0.6,6.1c-1.8,1.2-5.8,4.3-8.4,9.1c-1.6,3-1.9,6.1-0.9,9
				c1.6,4.7,6,7.5,8.6,8.7l0,0c0.3,0.2,0.7,0.3,1,0.4c1.9,0.4,3.8-0.5,4.7-2.1c0,0,0.8-1.5,2.4-3.5c0.8-0.8,1.6-1.6,2.4-2.4
				c1.6-0.7,2.9-0.8,3.6-0.8c0.7,0,1.1,0.1,1.2,0.2c0.1,0.1,0.1,0.1,0.1,0.1c-0.1,0.6-1.5,2.4-4.5,3c-0.6,0.1-1.1,0.3-1.6,0.7
				c-2.4,1.7-3.4,5-2.4,8.5c0.5,1.6,1.2,3,2.3,4c-4.2,1.6-7.1,5.8-7.8,9.7c-1,5,1.2,9.3,5.6,11c2.2,0.8,4.7,1.3,7.7,1.3
				c10,0,22.9-5.1,27.7-13.4c2.3,0.7,5,1,7.9,1c9.8,0,21.4-4,28.9-10.1c2.9-2.4,5.4-5.3,7.4-8.5c1.6,1.6,3.5,3,5.5,4
				c3.3,1.7,7.4,2.6,12.2,2.6c0,0,0,0,0,0c10.5,0,22.5-4.4,29.2-10.8C223.8,95.6,226.6,83.8,222.2,74L222.2,74z M114.6,88.6
				L114.6,88.6c0,0,0,0.1-0.1,0.1c-0.4-0.6-0.9-1.1-1.4-1.6c-0.8-0.8-1.8-1.5-2.9-2.1c0.3-0.1,0.6-0.2,1-0.2
				c1.6-0.4,2.8-0.6,3.8-0.6c0.9,0,1.3,0,1.7,0.9C115.9,86.2,115.2,87.4,114.6,88.6L114.6,88.6z M156.7,70.1L156.7,70.1
				c0.5-0.4,1.7-1.1,4.1-1.8c0.3-0.1,0.6-0.2,0.9-0.3c0,1.2,0.2,2.6,0.5,4.2C160.5,71.3,158.6,70.6,156.7,70.1z"/>
			<path fill-rule="evenodd" clip-rule="evenodd" d="M510.4,87l-0.9-1.8l-1.9-0.7c-10.2-3.8-19.9-6.1-29.2-8.4
				c-4.5-1.1-9.2-2.2-13.9-3.5l-1.9-0.5l-1.7,0.9c-0.3,0.2-0.6,0.4-0.9,0.6c-0.7-3-2-5.7-3.9-7.7c-3.6-3.9-8.7-6-14.7-6
				c-5.8,0-11.3,1.9-14.6,3.8c-0.9,0.5-1.8,1.1-2.7,1.8c-0.1-0.3-0.2-0.6-0.3-0.9c-1.8-4.8-7.6-7.7-15.5-7.7c-4.8,0-9.4,1.1-13.2,3
				c-1.9,1-3.5,2.1-5,3.2l0.7-2l-1.7-2.2c-3.3-4.3-9.6-4.8-12.2-4.8c-1.8,0-5.3,0.2-8,1.8l-1.9,1.1l-0.1,0.6
				c-2.8-3.5-7.6-6-14.9-6.2l-0.3,0c-2.8,0-5,0.6-7.1,1.3c-0.9-1-1.8-1.6-2.3-2l-0.3-0.2l-2.7-0.7c-1.7-0.2-3.1-0.2-4.4-0.2
				c-2.8,0-6.8,0.3-9.8,2.8l-1.7,1.4l-0.1,2.2c0,0.6-0.1,1.1-0.1,1.7c-0.6-1.5-1.4-2.9-2.4-4.2c-3.7-4.9-11.3-7.9-20.2-7.9
				c-8.8,0-16.5,2.9-20.5,7.8c-0.4,0.5-0.7,1-1,1.5c-0.1-0.4-0.3-1.1-0.3-1.1c-1.2-3.9-1.5-5.9-6.6-3.4c-5.1,2.5-11.2,6.6-15.6,10.5
				c-1.9,1.7-3.7,3.3-5.6,4.7c-0.2-0.3-0.4-0.5-0.6-0.8c-3.2-4.4-7.1-9.8-14.5-11.6c0,0-3.7-2.2-5.7,2.9
				c-2.1,5.1-10.1,28.2-12.9,43.2l-0.6,3.3l2.9,1.8c3.2,2,6.6,2.9,10.4,2.9c1.6,0,3.3-0.2,5-0.5l2.7-0.5l1-2.5
				c1.8-4.5,2.6-9.5,3.4-14.4c0.1-0.6,0.2-1.3,0.3-1.9c1.8,2,4,4.2,7.6,5.1l1.9,0.5l1.7-0.9c1.7-0.9,3.1-2,4.4-3.3
				c-0.1,2.4-0.1,4.8,0,7.4l0.2,3.6l3.5,1c1.5,0.4,3.2,0.6,5,0.6c5.7,0,10.8-2.1,12.7-3l1.1-0.5c2.6,2,5.8,3,9.5,3c0,0,0,0,0,0
				c4.3,0,8.9-1.4,12.9-3.5l0.5,1.4l2.5,0.7c2.6,0.7,5.4,1.4,8.6,1.4c1.6,0,3.1-0.2,4.7-0.5l-0.6,6l3.8,2c2.4,1.2,5.4,1.9,8.3,1.9
				c3.2,0,6.1-0.8,8.2-2.4l1.3-0.9l0.5-1.5c1.4-4.3,2.2-12.2,2.2-12.6c0.8,0.1,1.6,0.1,2.3,0.1c6.5,0,12.5-3.2,16.9-7.7
				c-0.4,3.8-0.5,7.6-0.4,11.2l0.1,2.7l2.3,1.4c2.2,1.4,5.2,2.1,8.8,2.1c2.1,0,4.5-0.3,6.5-0.7l1.9-0.4l1.1-1.6
				c1.3-1.8,1.8-3.9,2.1-6c4.3,7,11,14.9,19,14.9c2.7,0,6.3-0.9,9.6-4.7c3.3,8,10.2,12.6,19.5,12.6c0.5,0,1.1,0,1.6,0
				c3.6-0.2,12.4-2.8,15-9.4c0.8-2.1,1.6-6.2-2.1-11c2.9-0.2,5.4-0.7,7.5-1.4l2-0.7l0.5-1c2,0.9,4.3,1.2,6.8,1.5
				c0.6,0.1,1.1,0.1,1.7,0.2c-0.7,2.1-1.5,4.2-2.4,6.3c-1.9,4.9-3.9,10.1-5.4,16.1l-0.8,3.2l2.6,2c3.8,2.9,9.4,3.9,13,3.9
				c1.7,0,3.3-0.2,4.5-0.6l2.5-0.8l0.8-2.5c2.1-7.1,4.6-15,7.7-21.9c0.1,0,0.2,0.1,0.3,0.1c4.2,1.8,9,3.9,13.7,3.9l1.2,0l1.1-0.5
				C509.6,101.6,512.9,92.1,510.4,87L510.4,87z M407.8,85.6L407.8,85.6c-2.1-1.9-4.2-3.7-5.8-5.6c2.2-0.7,4.4-1,6.8-1
				c1.7,0,3.4,0.2,5.3,0.5l0.1,0c-1.2,3.1-2.1,6.3-2.5,9.6C410.4,87.9,409.1,86.7,407.8,85.6z"/>
			<path fill-rule="evenodd" clip-rule="evenodd" fill="#FFFFFF" d="M250,69.9c8.9-5,13.9-13.2,24.2-17.2
				c2.9,11.2,2.2,25.8,3.1,38.9c-3.5,1.6-9.5,3.4-14.3,2.1c-0.4-7.6,0.7-14.1,0.7-21.6c-4.2,2-6.8,10.5-12.4,13.3
				c-5.5-1.4-6.6-7.8-12.2-9.3c-2.1,7.6-2.3,16.5-5.1,23.5c-5.3,1-9,0.1-11.9-1.7c2.8-14.8,7-28.9,12.6-42.2
				C242.6,57.5,245.4,64.8,250,69.9L250,69.9z M415.2,72.2c-8.8-1.6-14.9,0.3-20.2,3.2c3.3,8.2,12.5,12.5,17.4,19.5
				c-9.4,18-24.1-4.8-27.5-14.4c-6.3-0.3-3.4,10.4-6.1,14.3c-2.9,0.6-8.6,1.2-11.7-0.8c-0.4-11.5,2.4-25.3,4.7-36.1
				c3.3-1.9,11.3-1.5,13.8,1.7c-1.6,4.1-2.3,9.3-4,13.3c4.7,0.3,8.1-6.7,16.2-10.8C408.6,56.4,428.7,60.7,415.2,72.2L415.2,72.2z
				 M453.4,88c3.4-7.7,3.5-16.4-0.7-21c-6.8-7.3-18.5-3.9-23.2-1.3c-16.2,9-20,45.1,4.9,43.7c4-0.2,16.4-4.9,8.2-13.4
				c-4.9,4.3-17.5,2.7-14.3-7.3C436.8,88.5,446.6,90.5,453.4,88L453.4,88z M430.8,80.7c1.9-4.6,6.9-8.3,12.9-4.4
				C445,83.2,436.1,80.6,430.8,80.7L430.8,80.7L430.8,80.7z M506.3,87c1.3,2.7-0.9,9.1-3.6,10.4c-5.2-0.1-11.6-3.7-16.6-5.5
				c-3.9,7.9-7,17.3-9.9,26.9c-3,1-9.6,0-13-2.5c2.5-10.1,6.5-17.6,9.3-27.1c-4.8-2-10.6-1.4-13.4-3c-0.5-3.8,1.6-9.4,4.4-10.9
				C478.3,79.2,491.5,81.4,506.3,87L506.3,87z M338.5,83.7c0,0.4,0.1,0.8,0.7,0.7c20.5,8.8,40.1-29.7,12.9-30.4
				c-4.1,0-6.7,1.5-10.5,3.2c0.8-2.7-0.5-3.7-1.9-4.7c-4.6-0.5-8.8-0.5-11.1,1.4c-0.7,17.6-4.5,47.6-4.5,47.6
				c3.4,1.7,9.1,2.1,12,0.1C336.1,101.6,337.7,88.6,338.5,83.7L338.5,83.7z M339.1,75.3c-0.4-7.5,2.9-11.3,10.7-10.3
				C353.8,71.7,346.2,80,339.1,75.3L339.1,75.3L339.1,75.3z M318.3,93.2c-4,0.8-7.3,0.2-10.9-0.8c-0.6-1.6-0.9-3.5-0.6-5.9
				c-5,4.8-18.4,11.1-24.8,3.6c-1.9-14.4,9.2-21.1,24.2-18.6c1.7-5.4,0.3-11.4-4.3-12.4c-8.5-1.7-7.3,7.1-12.1,7.9
				c-3.4,0.6-6.7-1.7-7.3-5c-3.1-15.4,27.2-17.9,34.7-8C323.2,62,320.1,77.9,318.3,93.2L318.3,93.2z M294.9,83.3L294.9,83.3
				c4.3,1.6,9.8-0.7,11.1-3.9C303.3,75.4,294,77.8,294.9,83.3z"/>
			<path fill-rule="evenodd" clip-rule="evenodd" fill="#FFDD00" d="M218.1,73.1c-1.2-2.6-3.1-5-5.6-6.9c-0.2-0.2-0.5-0.3-0.7-0.4
				c-0.6-0.4-1.3-0.7-1.9-1c-1.3-0.7-2.7-1.3-4-1.9c0.8-1.3,1.6-2.5,2.4-3.8c0.6,1.6,1.3,3.2,1.9,4.7c0.1,0,0.1,0,0.2,0
				c0.6,0.2,1.2,0.3,1.8,0.5c-1.5-10-3.6-16.5-9.9-2.8c-6.4-1.4-14-1-21.2,2c-2.2,0.9-4.1,1.9-5.8,3c-11-10.6-10.1-2.8-7.7,7.5
				c0.3,0.5,1.1,2.7,1.3,3.3c0.4,1.3,0.5,2.6,0.5,3.8c0.1,2.5-0.3,5-0.8,7.4c-0.1-2.4-0.4-4.8-1.1-7.1c-0.3-1.1-0.8-2.2-1.4-3.1
				c-0.8-1.2-1.8-2.3-3.7-3.8c-2.6-2-6-3.2-10-3.7c-1.7-4.9,0.3-7.6,7.1-9.7c7.7-2.3,11.6-3.7,5.2-6.8c-6.4-3-5.8-5.7-15.9,0.2
				c-10.1,6-2.7,16.3-2.7,16.3s-5.5,0.8-9.2,2c-4.2,1.4-7.7,3.4-10.6,5.6l0,0c0,0,1.2-12-10.5-12c-11.7,0.2-9.8,2.1-13.8,8
				c-4,5.9,0.1,5.2,7.9,3.2c7.4-1.9,10.4-0.2,11.3,5.6c-1.3,1.5-2.3,3.1-3,4.5c-2.3,4.5-3.8,10.8-3.3,16.7c-0.6-0.3-1.3-0.6-1.9-0.8
				c-1.4-0.4-2.8-0.6-5-0.8c1.5-1.8,2.7-2.8,3.6-4.4c2-3.4,0.8-8.4-1.8-10.9c-3.8-3.7-11.8-4.3-19.7-0.9c0,0-2.9,2.2-2.9,1.1
				c0-1.1,2.3-1.4,2.3-1.3C87.7,86,86.1,87.5,83,84c-12.9,9-4.2,17.4,0.7,19.1c-0.5-0.8-0.7-1.7-0.8-2.7c0-0.5,0-1,0-1.4
				c0,0,0,0,0,0c0,0,0,0,0,0c0.1-0.8,0.4-1.7,0.8-2.4c0.7-1.2,1.8-2.2,3-3c1.2-0.8,2.5-1.3,3.9-1.6c-1.2,0.7-2.3,1.4-3.3,2.3
				c-1,0.8-1.9,1.7-2.5,2.8c-0.3,0.6-0.6,1.1-0.7,1.7c5.1-1.3,10.7-7.9,15.3-4.1c4.1,3.5,0.4,9.4-6.2,10.8c-1.8,1.2-0.7,6.3,1.8,6.5
				c1.4,0.1,3-0.8,4.7-1c2.8-0.4,6.7-0.2,7.5,2.1c0.8,2.1-0.3,5.6-2.4,6.9c-3.4,2.1-6.8-1.1-9.1-1.7c-8.5-2-11.6,12.3-2.9,13.6
				c8.9,1.3,23.3-3.6,27.3-11.5c-0.1-0.1-0.2-0.2-0.3-0.3c-0.5-0.5-0.9-1.1-1.3-1.6c-0.1-0.1-0.1-0.2-0.2-0.3
				c-1.5,2.1-3.4,4-5.6,5.5c-2.2,1.5-4.7,2.7-7.2,3.5c-1.3,0.4-2.6,0.6-3.9,0.8c-0.7,0.1-1.3,0.1-2,0.1c-0.7,0-1.3,0-1.9-0.1
				c1.3-0.3,2.5-0.6,3.8-1c1.2-0.4,2.4-0.8,3.6-1.3c2.3-1,4.5-2.2,6.6-3.6c2-1.4,3.9-3.1,5.6-5c0.1-0.1,0.2-0.2,0.3-0.3
				c-0.3-0.6-0.5-1.2-0.7-1.8c-0.9-2.4-1.3-4.8-1.5-7.2c0.8,2.3,1.9,4.5,3.2,6.4c0.7,1,1.4,1.9,2.2,2.6c0.4,0.4,0.8,0.7,1.3,1h0
				c0.4,0.2,0.7,0.4,1.1,0.5c0,0,0,0,0,0c0,0,0,0,0,0c0.1,0,0,0,0,0c0,0,0,0,0,0c0,0,0,0,0,0c9.1,3.9,25.5-0.3,34.5-7.6
				c4.4-3.6,7.6-8.4,9.4-13.4c1.9,3.4,4.7,6.4,8.4,8.4c9.5,5,27.8,0.7,36.4-7.4C219.2,91.2,221.8,81.4,218.1,73.1L218.1,73.1z
				 M106.5,75.8L106.5,75.8c0.8-1.1,1.9-5.5,8.3-5.2c6.5,0.3,8.4,10.6,8.4,10.6C118.2,70.8,105.7,76.9,106.5,75.8L106.5,75.8z
				 M149.7,70.9L149.7,70.9c0,0-5.5-13,4.6-14.7c10.1-1.6,10.3,2.8,3.1,4.6C150.2,62.8,150,63.4,149.7,70.9L149.7,70.9z M168.7,73.3
				L168.7,73.3c-1.6-4,0.2-8.1,0.2-8.1c0.9,1.1,1.9,2.3,2.8,3.4C170.8,70.3,169.7,71.8,168.7,73.3z"/>
			<path fill-rule="evenodd" clip-rule="evenodd" d="M144.4,110.9c-0.8,0.3-1.6,0.6-2.4,0.8c-1.1-0.8-2-1.8-2.7-2.9
				c-0.7-1.2-1.2-2.6-1.5-4c-0.3-1.4-0.3-2.8-0.3-4.2c0-0.7,0.1-1.4,0.2-2.1c0.1-0.7,0.2-1.4,0.4-2c2.1-2.2,11.3-6.7,5.8-7.6
				c-3.7-0.6-7.6,0.8-10.1,2c0.8-1.1,1.3-2.5,1.6-4c0.6-4-1.5-7.5-4.7-7.7c-3.2-0.2-8.4,4.3-8.9,8.3c-0.5,4,3.8,6,6.9,6.2
				c0.5,0,0.9,0,1.4-0.1c-1.3,2.4,3,3.9,5.7,4.1c0,0.2,0,0.5,0,0.7c0,0.8,0,1.5,0.1,2.3c0.1,1.5,0.4,3,0.9,4.4
				c0.5,1.4,1.2,2.8,2.1,4c0.8,1.1,1.6,1.8,2.9,2.7c-1.9,0.6-3.6,0.9-5.6,1.2c-1.4,0.2-2.9,0.3-4.4,0.4c-1.5,0.1-3,0.1-4.5,0
				c0.7,0.3,1.4,0.5,2.1,0.7c0.7,0.2,1.5,0.3,2.2,0.4c1.5,0.2,3,0.3,4.6,0.2c3.1-0.1,6.1-0.7,9.1-1.8c2.9-1.1,5.6-2.7,8-4.6
				c2.4-1.9,4.4-4.2,5.9-6.7c-2.3,1.9-4.6,3.8-7,5.4C149.7,108.6,147.1,109.9,144.4,110.9L144.4,110.9z M128.4,105.2
				c0.1,0.4-0.1,0.9-0.6,1c-0.4,0.1-0.9-0.1-1-0.5c-0.1-0.4,0.1-0.9,0.6-1C127.8,104.6,128.3,104.8,128.4,105.2L128.4,105.2z
				 M182.4,90.8c0.1,0.4-0.2,0.8-0.7,0.9c-0.5,0.1-0.9-0.2-1-0.6c-0.1-0.4,0.2-0.8,0.7-0.9C181.9,90.1,182.3,90.4,182.4,90.8
				L182.4,90.8z M179.8,94.1c0.1,0.4-0.2,0.8-0.7,0.9c-0.4,0.1-0.9-0.2-1-0.6c-0.1-0.4,0.2-0.8,0.7-0.9
				C179.2,93.4,179.7,93.7,179.8,94.1L179.8,94.1z M133.2,104.6c0.1,0.4-0.1,0.9-0.6,1c-0.4,0.1-0.9-0.1-1-0.5
				c-0.1-0.4,0.1-0.9,0.6-1C132.6,104,133.1,104.2,133.2,104.6L133.2,104.6z M130.8,108.2c0.1,0.4-0.1,0.9-0.6,1
				c-0.4,0.1-0.9-0.1-1-0.5c-0.1-0.4,0.1-0.9,0.6-1C130.3,107.5,130.7,107.8,130.8,108.2L130.8,108.2z M202.6,86
				c0.1,0.4-0.2,0.8-0.7,0.9c-0.5,0.1-0.9-0.2-1-0.6c-0.1-0.4,0.2-0.8,0.7-0.9C202.1,85.3,202.5,85.6,202.6,86L202.6,86z
				 M147.9,103.3c0.1,0.4-0.2,0.8-0.6,1c-0.4,0.1-0.9-0.1-1-0.5c-0.1-0.4,0.2-0.8,0.6-1C147.3,102.7,147.8,102.9,147.9,103.3
				L147.9,103.3z M201.4,89.3c0.1,0.4-0.2,0.8-0.7,0.9c-0.5,0.1-0.9-0.2-1-0.6c-0.1-0.4,0.2-0.8,0.7-0.9
				C200.9,88.6,201.4,88.9,201.4,89.3L201.4,89.3z M198.1,87.1c0.1,0.4-0.2,0.8-0.7,0.9c-0.5,0.1-0.9-0.2-1-0.6
				c-0.1-0.4,0.2-0.8,0.7-0.9C197.6,86.4,198,86.7,198.1,87.1L198.1,87.1z M152.5,99.8c0.1,0.4-0.2,0.8-0.6,1
				c-0.4,0.1-0.9-0.1-1-0.5c-0.1-0.4,0.2-0.8,0.6-1C151.9,99.2,152.3,99.4,152.5,99.8L152.5,99.8z M177.2,90.3
				c0.1,0.4-0.2,0.8-0.7,0.9c-0.5,0.1-0.9-0.2-1-0.6c-0.1-0.4,0.2-0.8,0.7-0.9C176.7,89.6,177.1,89.9,177.2,90.3L177.2,90.3z
				 M148.9,97.9c0.1,0.4-0.2,0.8-0.6,1c-0.4,0.1-0.9-0.1-1-0.5c-0.1-0.4,0.2-0.8,0.6-1C148.3,97.3,148.8,97.5,148.9,97.9L148.9,97.9
				z M193.3,84.7c-0.2-1.3-2.8-1.9-5.7-1.3c-2.9,0.6-5.1,2.1-4.8,3.4c0.3,1.3,2.8,1.8,5.7,1.3c-0.1,1.9-0.2,3.7-0.8,5.4
				c-0.5,1.7-1.5,3.2-2.8,4.3c-1.3,1.1-3,1.8-4.8,2c-0.9,0.1-1.8,0-2.5-0.4c-0.4-0.2-0.7-0.4-0.9-0.8c-0.2-0.4-0.3-0.8-0.3-1.3
				c-0.2,0.4-0.3,1-0.2,1.5c0.1,0.5,0.4,1,0.8,1.4c0.4,0.4,0.9,0.6,1.4,0.8c0.5,0.2,1.1,0.3,1.6,0.3c2.2,0.1,4.4-0.6,6.1-2
				c0.4-0.4,0.8-0.7,1.2-1.2c0.3-0.4,0.6-0.9,0.9-1.3c0.5-0.9,0.8-1.8,1-2.7c0.1,0.3,0.1,0.5,0.2,0.8c0.4,1.1,1,2.2,1.9,3.1
				c0.9,0.9,2.2,1.5,3.5,1.8c0.7,0.2,1.3,0.2,2,0.2c0.7,0,1.3-0.1,2-0.2c2.6-0.5,4.9-1.8,6.7-3.6c0.9-0.9,1.6-1.9,2.1-3
				c0.5-1.1,0.8-2.3,0.8-3.4c-0.8,2.2-2.2,4-4,5.4c-1.7,1.4-3.8,2.4-5.9,2.8c-1.1,0.2-2.2,0.2-3.2,0.1c-1-0.2-2-0.6-2.8-1.2
				c-0.8-0.6-1.5-1.4-2.1-2.4c-0.4-0.6-0.7-1.3-1-2.1c0-1.5-0.3-2.9-0.9-4.2C191.3,87.4,193.5,86,193.3,84.7L193.3,84.7z
				 M145.8,86.9c-3.5-2.7-4.4-9.2-2.1-11.7c2.3-2.4,7.1-2.2,10.5,0.6c3.4,2.7,4.3,6.9,2,9.3C153.9,87.5,149.3,89.6,145.8,86.9
				L145.8,86.9z M181.7,84c-3.3,0.7-6.2-2.2-6.5-6.6c-0.3-4.3,2.3-8.4,5.7-9.1c2.3-0.5,5.3,1.3,7,3.7c0.7-2.9,2.7-5.3,5.2-5.7
				c3.2-0.6,7.8,3.4,7.9,7.5c0.1,4-4.3,6.5-7.4,7.1c-1.9,0.3-3.6-0.5-4.7-2.1C187.7,81.7,184.3,83.5,181.7,84z"/>
			<path fill-rule="evenodd" clip-rule="evenodd" fill="#FFFFFF" d="M189.1,74.6c0.1,3.1,2.4,5.2,5,4.7c2.7-0.5,4.7-3.4,4.7-6.5
				c-0.1-3.1-2.3-5.2-5-4.7C191.1,68.6,189,71.5,189.1,74.6L189.1,74.6z M131.9,93.7c0.7-0.7,1.5-1.2,2.4-1.7
				c0.9-0.5,1.8-0.8,2.7-1.1c0.9-0.3,1.9-0.5,2.8-0.7c0.9-0.2,1.9-0.3,2.9-0.3c-0.9,0.4-1.8,0.6-2.7,0.9c-0.9,0.3-1.8,0.6-2.7,0.9
				c-0.9,0.3-1.8,0.6-2.7,0.9C133.7,92.9,132.8,93.3,131.9,93.7L131.9,93.7z M152.4,77.7c1.7,2.3,1.5,5.2-0.5,6.5
				c-2,1.3-5,0.5-6.8-1.7c-1.8-2.3-1.6-5.2,0.4-6.6C147.6,74.6,150.7,75.4,152.4,77.7L152.4,77.7z M133.7,86
				c0.4-2.8-1.2-5.1-3.6-5.3c-2.4-0.2-4.7,2-5.1,4.8c-0.4,2.8,1.3,5.1,3.7,5.3C131,90.9,133.3,88.8,133.7,86L133.7,86z M92.1,77.5
				c2,2.1,2,5.1,0,6.6c-1.9,1.5-5.1,1.1-7.1-1c-2-2.1-2.1-5-0.1-6.6C86.9,75,90.1,75.4,92.1,77.5L92.1,77.5z M176.5,76.7
				c0.2,3.3,2.6,5.4,5.3,4.9c2.7-0.6,4.9-3.6,4.7-6.9c-0.1-3.3-2.5-5.5-5.3-4.9C178.4,70.3,176.3,73.4,176.5,76.7L176.5,76.7z
				 M88.8,79.4c-1.1-0.7-2.5-0.5-3.3,0.4c-0.7,0.9-0.4,2.1,0.6,2.8c1.1,0.7,2.5,0.5,3.3-0.4C90.1,81.3,89.9,80,88.8,79.4L88.8,79.4z
				 M132.6,86.7c-0.2,1.4-1.3,2.5-2.4,2.5c-1.1-0.1-1.9-1.3-1.7-2.7c0.2-1.4,1.3-2.6,2.4-2.5C132.1,84,132.9,85.2,132.6,86.7
				L132.6,86.7z M149.4,79.4c-1.1-0.9-2.7-1-3.5-0.2c-0.8,0.8-0.5,2.2,0.7,3.1c1.2,0.9,2.7,1,3.5,0.2
				C150.8,81.7,150.5,80.3,149.4,79.4L149.4,79.4z M180.2,75.2c0-1.5,1.1-3,2.3-3.3c1.3-0.3,2.3,0.8,2.2,2.3c0,1.5-1.1,3-2.3,3.3
				C181.2,77.8,180.2,76.8,180.2,75.2L180.2,75.2z M190.2,73.7c0.1-1.7,1.3-3.3,2.7-3.5c1.4-0.3,2.5,0.9,2.5,2.6
				c-0.1,1.7-1.3,3.3-2.7,3.5C191.3,76.5,190.2,75.4,190.2,73.7z"/>
			<path fill-rule="evenodd" clip-rule="evenodd" d="M123.3,162c0.4,1,0.4,2-0.1,2.8c-0.4,0.8-1.2,1.5-2.3,1.9l-5.9,2.2l-4.2-11.6
				l5.7-2.1c1.1-0.4,2.1-0.4,2.9-0.1c0.9,0.3,1.5,1,1.8,2c0.4,1.1,0.2,2.1-0.6,3c0.7,0.1,1.2,0.3,1.6,0.6
				C122.7,160.9,123,161.4,123.3,162L123.3,162z M393.4,142.5l-1.7-4l-2.8,3.3l-3.7-0.5l5.1-5.6l-3.2-6.6l3.7,0.5l1.5,3.8l2.6-3.2
				l3.7,0.5l-4.9,5.4l3.3,6.9L393.4,142.5L393.4,142.5z M373.4,136c-0.1,0.6-0.2,1.1-0.4,1.6c-0.2,0.5-0.6,0.8-1,1.2
				c-0.4,0.3-0.9,0.5-1.4,0.7c-0.5,0.1-1.1,0.2-1.7,0.1L363,139l1.2-12.3l3.1,0.3l-0.4,4.5l2.8,0.3c0.6,0.1,1.2,0.2,1.6,0.4
				c0.5,0.2,0.9,0.5,1.2,0.9c0.3,0.4,0.6,0.8,0.7,1.3C373.4,134.9,373.5,135.4,373.4,136L373.4,136z M366.6,133.8L366.6,133.8
				l-0.3,3.1l2.3,0.2c0.5,0,0.9-0.1,1.2-0.3c0.3-0.2,0.5-0.6,0.5-1.1c0-0.5-0.1-0.8-0.3-1.1c-0.3-0.3-0.6-0.5-1.2-0.5L366.6,133.8
				L366.6,133.8z M374.5,140.1L374.5,140.1l1.2-12.3l3.1,0.3l-1.2,12.3L374.5,140.1L374.5,140.1z M350.8,138.2l0.3-4.9l-4-0.2
				l-0.3,4.9l-3.1-0.2l0.6-12.3l3.1,0.2l-0.2,4.7l4,0.2l0.2-4.7l3.1,0.2l-0.6,12.3L350.8,138.2L350.8,138.2z M332.6,127.9l-0.2,9.6
				l-3.1-0.1l0.2-9.6l-3.6-0.1l0.1-2.7l10.3,0.2l-0.1,2.7L332.6,127.9L332.6,127.9z M318.6,131.1c0,0.6,0,1.2-0.1,1.7
				c0,0.5-0.1,0.9-0.2,1.3c-0.1,0.4-0.2,0.7-0.4,1c-0.2,0.3-0.4,0.6-0.6,0.9c-1,1-2.2,1.5-3.8,1.6c-1.6,0-2.9-0.5-3.8-1.5
				c-0.3-0.3-0.5-0.6-0.7-0.9c-0.2-0.3-0.3-0.7-0.4-1c-0.1-0.4-0.2-0.8-0.2-1.3c-0.1-0.5-0.1-1-0.1-1.6c0-0.6,0-1.2,0.1-1.6
				c0-0.5,0.1-0.9,0.2-1.3c0.1-0.4,0.3-0.7,0.4-1c0.2-0.3,0.4-0.6,0.6-0.9c1-1,2.2-1.5,3.8-1.5c1.6,0,2.9,0.5,3.9,1.5
				c0.5,0.5,0.9,1.2,1.1,1.9C318.5,129,318.6,129.9,318.6,131.1L318.6,131.1z M315.6,131.2L315.6,131.2c0-0.4,0-0.8-0.1-1.2
				c0-0.4-0.1-0.8-0.3-1.1c-0.1-0.3-0.4-0.6-0.7-0.8c-0.3-0.2-0.7-0.3-1.2-0.3c-0.5,0-0.9,0.1-1.2,0.4c-0.3,0.2-0.5,0.5-0.6,0.9
				c-0.1,0.4-0.2,0.8-0.2,1.2c0,0.4,0,0.8,0,1.2c0,1.2,0.2,2,0.5,2.6c0.3,0.5,0.9,0.8,1.6,0.8c0.5,0,0.9-0.1,1.2-0.3
				c0.3-0.2,0.5-0.5,0.6-0.8c0.1-0.3,0.2-0.7,0.3-1.1C315.6,132,315.6,131.6,315.6,131.2L315.6,131.2z M299.9,134.1
				c0,1.1-0.3,2-0.9,2.6c-0.7,0.7-1.6,1-2.7,1.1l-6.3,0.2l-0.4-12.3l6.1-0.2c1.2,0,2.1,0.2,2.8,0.8c0.7,0.6,1.1,1.4,1.1,2.4
				c0,1.1-0.4,2-1.5,2.7c0.6,0.3,1.1,0.7,1.4,1.1C299.7,132.9,299.8,133.4,299.9,134.1L299.9,134.1z M292.6,127.8L292.6,127.8
				l0.1,2.6l2.3-0.1c1,0,1.5-0.5,1.4-1.4c0-0.9-0.5-1.3-1.5-1.2L292.6,127.8L292.6,127.8z M296.8,134L296.8,134c0-0.5-0.2-0.8-0.4-1
				c-0.3-0.2-0.7-0.3-1.2-0.3l-2.4,0.1l0.1,2.9l2.4-0.1c0.5,0,0.9-0.2,1.1-0.4C296.7,134.8,296.8,134.5,296.8,134L296.8,134z
				 M277.6,138.6l-0.5-7.5l-3.9,7.8l-3.1,0.2l-0.8-12.3l3.1-0.2l0.5,7.3l3.9-7.6l3.1-0.2l0.8,12.3L277.6,138.6L277.6,138.6z
				 M244.6,141.3l3.7-7l-4.6-5.4l3.5-0.3l4.3,5.5l-0.5-5.8l3.1-0.3l0.5,5.8l3.3-6.2l3.5-0.3l-3.5,6.1l4.9,6.2l-3.6,0.3l-4.6-6
				l0.6,6.4l-3.1,0.3l-0.6-6.4l-3.4,6.8L244.6,141.3L244.6,141.3z M215.8,144.9l1.8-5.3c-0.7-0.2-1.3-0.5-1.8-1
				c-0.5-0.5-0.8-1.2-0.9-2.1c-0.1-0.6,0-1.1,0.1-1.6c0.1-0.5,0.4-0.9,0.7-1.3c0.3-0.4,0.7-0.7,1.2-1c0.5-0.3,1-0.4,1.6-0.5l5.9-0.8
				l1.7,12.2l-3.1,0.4l-0.6-4.3l-1.6,0.2l-1.4,4.6L215.8,144.9L215.8,144.9z M221.7,134.2L221.7,134.2l-2.4,0.3
				c-0.5,0.1-0.9,0.3-1.1,0.6c-0.3,0.3-0.3,0.7-0.3,1.2c0.1,0.4,0.3,0.8,0.6,1c0.3,0.2,0.7,0.3,1.2,0.2l2.4-0.3L221.7,134.2
				L221.7,134.2z M204.6,146.6l-1.5-9.5l-2.9,0.5l0.5,2.9c0.2,1.3,0.3,2.4,0.3,3.3c0,0.9-0.2,1.6-0.4,2.1c-0.3,0.6-0.6,1-1.1,1.2
				c-0.5,0.3-1,0.5-1.6,0.6l-1.4,0.2l-0.4-2.7l0.4-0.1c0.2,0,0.5-0.1,0.7-0.2c0.2-0.1,0.4-0.3,0.6-0.6c0.1-0.3,0.2-0.8,0.2-1.4
				c0-0.6-0.1-1.5-0.2-2.6l-0.8-4.9l8.9-1.4l2,12.2L204.6,146.6L204.6,146.6z M187.5,152.6l-0.6-3L180,151l0.6,3l-2.9,0.6l-1.1-5.7
				l1.2-0.2c0.1-0.3,0.2-0.6,0.3-1c0.1-0.4,0.1-0.8,0.2-1.3c0-0.5,0-1,0-1.6c-0.1-0.6-0.2-1.3-0.3-2.1l-0.7-3.7l8.7-1.7l1.8,9.4
				l1.5-0.3l1.1,5.7L187.5,152.6L187.5,152.6z M183.4,140.5L183.4,140.5l-2.8,0.5l0.3,1.6c0.2,1.2,0.4,2.3,0.4,3.1
				c0,0.8-0.1,1.6-0.3,2.3l3.7-0.7L183.4,140.5L183.4,140.5z M150.2,152.4c0.5,1.8,1.7,2.4,3.4,2c0.5-0.1,0.9-0.3,1.3-0.6
				c0.2-0.1,0.4-0.3,0.5-0.5c0.1-0.2,0.3-0.4,0.5-0.7l2.3,1.3c-0.2,0.3-0.3,0.5-0.5,0.7c-0.1,0.2-0.3,0.4-0.4,0.5
				c-0.1,0.1-0.3,0.3-0.4,0.4c-0.1,0.1-0.3,0.2-0.5,0.4c-0.3,0.2-0.7,0.4-1.1,0.6c-0.4,0.2-0.8,0.3-1.3,0.4
				c-3.7,0.9-6.1-0.7-7.1-4.8c-0.2-0.9-0.3-1.8-0.3-2.6c0.1-0.8,0.2-1.5,0.6-2.2c0.3-0.6,0.8-1.2,1.3-1.6c0.6-0.4,1.3-0.8,2.1-1
				c0.8-0.2,1.5-0.2,2.3-0.1c0.7,0.1,1.4,0.4,1.9,0.7c0.6,0.4,1.1,0.9,1.5,1.5c0.4,0.6,0.7,1.4,1,2.3l0.3,1.3L150.2,152.4
				L150.2,152.4z M154.3,149.2L154.3,149.2c-0.3-0.8-0.6-1.4-1.1-1.7c-0.5-0.3-1.1-0.4-1.8-0.2c-0.7,0.2-1.2,0.5-1.5,1.1
				c-0.3,0.5-0.3,1.2-0.2,2.1L154.3,149.2L154.3,149.2z M140.9,158.7c-0.2,0.5-0.5,0.8-0.6,1c-0.2,0.2-0.4,0.4-0.7,0.7
				c-0.5,0.5-1.2,0.8-2.1,1.1c-1.7,0.5-3.2,0.4-4.4-0.4c-1.2-0.8-2.2-2.2-2.7-4.2c-0.6-1.9-0.5-3.5,0.1-4.8c0.6-1.3,1.8-2.2,3.5-2.7
				c0.8-0.2,1.6-0.3,2.3-0.2c0.4,0,0.7,0.1,0.9,0.2c0.3,0.1,0.6,0.2,1.1,0.5l-1.4,2.6c-0.5-0.2-0.8-0.4-1.1-0.4
				c-0.3-0.1-0.7,0-1,0.1c-1.6,0.5-2,1.8-1.3,4.1c0.7,2.3,1.8,3.2,3.4,2.7c0.4-0.1,0.7-0.3,0.9-0.5c0.2-0.2,0.5-0.5,0.7-1
				L140.9,158.7L140.9,158.7z M114.4,158.3L114.4,158.3l0.9,2.4l2.2-0.8c0.9-0.3,1.3-0.9,1-1.7c-0.3-0.8-0.9-1-1.8-0.7L114.4,158.3
				L114.4,158.3z M120.3,162.9L120.3,162.9c-0.2-0.4-0.4-0.7-0.7-0.9c-0.3-0.1-0.7-0.1-1.2,0l-2.3,0.8l1,2.7l2.3-0.8
				c0.5-0.2,0.8-0.4,0.9-0.8C120.5,163.7,120.5,163.3,120.3,162.9z"/>
		</g>
	</g>
</g>
</svg>
