<?xml version="1.0" encoding="utf-8"?>
<!-- Generator: Adobe Illustrator 18.1.1, SVG Export Plug-In . SVG Version: 6.00 Build 0)  -->
<svg version="1.1" id="Слой_1" xmlns="http://www.w3.org/2000/svg" xmlns:xlink="http://www.w3.org/1999/xlink" x="0px" y="0px"
	 viewBox="0 0 2136.2 1629.2" enable-background="new 0 0 2136.2 1629.2" xml:space="preserve">
<g>
	<g>
		<defs>
			<path id="SVGID_1_" d="M806.9,798.3c0,0,49.2-2.8,74.1,4.8c0,0,17.7-9.6,46.5-8.3c0,0,62.4-25.9,107.5,28.1
				c0,0,18.1-36.9,53.9-37.7c35.8-0.8,63.2,33.2,81.4,92.5c0,0,31.3-87.9,75.6-90.2c0,0,11.1-1,17.3,6.4
				c6.2,7.4,97.9-52.9,97.9-52.9l40.7-106.3l44.1-68.3l-40.4-95.2l-69-5.6l-92-45.7l9.9-82.4l-81.3-64.9l-84-89.4l-112.2-46.9
				l-68.8,55.6l-52.3,52.7l-21.4,76.8l1.6,107.5c0,0-2.3,119.3-2.3,119.1c0-0.2-72.5,55.1-72.5,55.1l-122.1,74.1l-82,51.9l-2.7,61.6
				l49,8.2l61.3,4.2l43.5,2.4l73.1-5.9L806.9,798.3z"/>
		</defs>
		<clipPath id="SVGID_2_">
			<use xlink:href="#SVGID_1_"  overflow="visible"/>
		</clipPath>
		<path clip-path="url(#SVGID_2_)" fill="#FFFFFF" d="M1350.4,616.8c0,0,6.8-11.1,17.6-10.8c10.8,0.3,9,13.9,6.8,15.1
			C1372.7,622.3,1349.8,623.5,1350.4,616.8z"/>
		<path clip-path="url(#SVGID_2_)" fill="#231F20" d="M1365.4,623.3c-4.4,0-12.3-0.5-15.1-3.5c-0.8-0.9-1.2-2-1.1-3.1l0-0.3l0.1-0.2
			c0.3-0.5,7.3-11.8,18.7-11.4c4.8,0.1,8.1,2.7,9.2,7.3c1,4,0.1,9-1.9,10.2C1374.1,622.9,1369.4,623.3,1365.4,623.3z M1351.7,617.1
			c0,0.3,0.2,0.6,0.4,1c1.5,1.7,6.6,2.7,13.3,2.7c4.8,0,8.2-0.5,8.8-0.8c0.6-0.5,1.7-4.6,0.5-8.2c-1-3-3.3-4.5-6.7-4.6l-0.4,0
			C1358.8,607.2,1352.7,615.5,1351.7,617.1z"/>
		<path clip-path="url(#SVGID_2_)" fill="#EE3130" d="M1337.8,622.5c0,0,32.7-34.9,78.8-53.7l-51.3-25.3l-109.6,14.2l-73.9,26.6
			l-57.6,3.7l-7.7,19.8l31.2,26.6l98.3,32.4c0,0,58.9-19.8,60.5-20.7C1307.8,645.1,1337.8,622.5,1337.8,622.5z"/>
		<path clip-path="url(#SVGID_2_)" fill="#FFFFFF" d="M1270.2,643.5c0,0-10.2-10.8,4.3-19.2c14.5-8.3,22.2,3.1,21,11.4
			C1294.3,644.1,1270.2,643.5,1270.2,643.5z"/>
		<path clip-path="url(#SVGID_2_)" fill="#231F20" d="M1271.3,644.7c-0.7,0-1.1,0-1.1,0l-0.5,0l-0.4-0.4c-0.2-0.2-4.6-4.9-3.7-10.8
			c0.6-4,3.4-7.4,8.3-10.2c3.5-2,6.9-3.1,10.1-3.1c3.8,0,7,1.5,9.4,4.3c2.7,3.1,3.9,7.5,3.3,11.5
			C1295.6,643.9,1278.5,644.7,1271.3,644.7z M1270.8,642.3c0.1,0,0.3,0,0.5,0c10.2,0,22.3-1.7,23-6.7c0.5-3.3-0.6-7-2.8-9.5
			c-1.3-1.6-3.8-3.4-7.6-3.4c-2.7,0-5.7,0.9-8.8,2.7c-4.2,2.4-6.6,5.3-7.1,8.4C1267.5,637.7,1269.9,641.1,1270.8,642.3z"/>
		<path clip-path="url(#SVGID_2_)" fill="#CDCECE" d="M1012.2,583.1c0,0,23.8-29,60-42c36.1-13,5.4-14.8-2.1-16.7
			c0,0-30.3,0-24.5-23.2c5.9-23.2,23.5-20.4,35.2-11.1s32.4,53.4,32.4,23.8c0-29.7,0.3-45.7,23.2-37.7c22.9,8,11.4,26.3-4.6,34.9
			c-16.1,8.6-8.6,17.5-8.6,17.5s56.2-0.5,93.6,10.3c37.4,10.8,117.1-38.3,117.1-38.3s8.6-3.1,8-13.9c-0.6-10.8,13.3-5.9,13.6,2.2
			c0.3,8,9.3,10.2,13,0.9c3.7-9.3,13.9-6.8,11.7,0c-2.2,6.8,0.9,13,7.7,15.4c6.8,2.5,20.7,16.2,23.2,23.4c2.5,7.2,3.4,23.3,3.4,23.3
			s-0.6,7.4,4.3,11.7c4.9,4.3-4.9,16.4-14.2,6.5c-9.3-9.9-70.1-30.6-114,10.2c-43.9,40.8-47.9,43.2-97,31.2
			c-49.1-12-63.3-28.4-74.4-9c0,0,33.4-0.9,39.2,15.3c5.9,16.2,55,46.5,97,28.6c42-17.9,83.1-35.5,112.1-28.7
			c29,6.8,4.3,15.8,4.3,15.8s-6.8,2.6-10.8,18.5c-4,15.8-18.2,29.1-33,31.6c-14.8,2.5-38-5.9-42.6-10.5c-4.6-4.6-7.1-4.3-7.1-4.3
			s-35.2,15.4-55.6,13.3l-13-0.9l79.4,72.9l-18.2,131.9l-104.4,47.9l-75.4-105l-60.8,51.6L1012.2,583.1z"/>
		<path clip-path="url(#SVGID_2_)" fill="#231F20" d="M1165.9,935.2l-75.2-104.8l-61.7,52.3l-0.1-2.5l-18-297.6l0.3-0.4
			c0.2-0.3,24.5-29.4,60.5-42.4c15.9-5.7,16.5-8.5,16.4-9c-0.2-2.1-9.6-3.7-13.7-4.4c-1.8-0.3-3.4-0.6-4.5-0.9
			c-1.8,0-16.4-0.5-23.1-9c-3.2-4.1-4-9.4-2.4-15.7c4.2-16.4,13.9-18.9,19.3-18.9c5.8,0,12.1,2.5,17.9,7.1c4,3.2,9,10.3,13.9,17.1
			c5.2,7.4,11.6,16.5,14.5,16.5c1,0,2.1-2.3,2.1-8.9c0-23.8,0-41,14.4-41c2.9,0,6.3,0.7,10.4,2.1c10.7,3.8,13.3,9.5,13.7,13.6
			c0.7,9.1-8.6,18.4-18.1,23.5c-5.6,3-8.9,6.4-9.6,9.9c-0.5,2.5,0.5,4.4,1,5.2l0.6,0c9.5,0,58.7,0.5,92.7,10.3
			c3.5,1,7.5,1.5,11.9,1.5c39.3,0,103.5-39.3,104.2-39.7l0.2-0.1c0.3-0.1,7.8-3,7.2-12.7c-0.1-2.5,0.4-4.5,1.7-5.8
			c1-1.1,2.5-1.7,4.2-1.7c4.5,0,10,4.2,10.2,9.6c0.1,3.4,2.1,5.8,4.7,5.8c2.4,0,4.6-2,5.9-5.3c2-5,5.8-6.8,8.6-6.8
			c2,0,3.8,0.8,4.8,2.3c1.1,1.5,1.3,3.4,0.7,5.4c-2,6.2,0.8,11.7,7,13.9c7.3,2.7,21.4,16.9,23.9,24.1c2.5,7.3,3.4,22.9,3.5,23.6
			l0,0.1l0,0.1c0,0.1-0.5,6.9,3.9,10.7c1.7,1.5,2.2,3.9,1.3,6.4c-1.1,2.9-4.3,6.1-8.8,6.1c-2.1,0-5.2-0.7-8.4-4.2
			c-4.3-4.6-23.9-13.7-49.6-13.7c-16.8,0-41.3,4.2-62.6,24c-30.3,28.1-41.7,37.9-61.1,37.9c-9.3,0-20.2-2.2-37-6.4
			c-16-3.9-28.3-8.3-38.1-11.8c-10-3.6-17.2-6.1-22.7-6.1c-4.7,0-8.1,1.9-11.2,6.5c7.6,0.1,33,1.7,38.2,16.1
			c4.1,11.4,33.9,33.3,68.1,33.3c9.7,0,18.8-1.8,27.2-5.4l0.6-0.2c36.3-15.5,70.5-30.1,98.2-30.1c5.1,0,9.8,0.5,14.2,1.5
			c10.1,2.4,14.9,5.2,15.1,8.8c0.3,5.2-9.5,8.9-10.6,9.3c0,0-6.3,2.8-10,17.6c-4.1,16.2-18.4,29.9-34,32.5c-1.9,0.3-3.9,0.5-6.1,0.5
			c-14.5,0-33.1-6.8-37.6-11.3c-3.4-3.4-5.5-3.9-6-4c-3.2,1.4-31.7,13.5-51.7,13.5c-1.5,0-3-0.1-4.3-0.2l-9.4-0.7l77.2,70.9
			l-0.1,0.6l-18.3,132.6l-0.6,0.3L1165.9,935.2z M1091.2,826.8l75.6,105.3l102.9-47.2l18-130.6l-81.5-74.9l16.5,1.2
			c1.3,0.1,2.7,0.2,4.1,0.2c20.2,0,50.6-13.3,50.9-13.4l0.4-0.1l0.2,0c1,0,3.6,0.5,7.9,4.7c3.6,3.6,21.3,10.6,35.9,10.6
			c2.1,0,4-0.1,5.7-0.4c14.4-2.4,28.2-15.6,32.1-30.7c4.1-16.3,11.3-19.2,11.6-19.3c3-1.1,9.2-4.2,9-6.8c-0.1-1.1-1.5-3.8-13.2-6.6
			c-4.1-1-8.7-1.5-13.6-1.5c-27.1,0-61.2,14.5-97.2,29.9l-0.6,0.2c-8.7,3.7-18.2,5.6-28.2,5.6c-33,0-65.5-21.2-70.4-34.9
			c-5-13.8-31.8-14.5-37.1-14.5c-0.6,0-1,0-1,0l-2.2,0.1l1.1-1.9c3.8-6.7,8.3-9.6,14.4-9.6c5.9,0,13.3,2.6,23.5,6.3
			c9.8,3.5,21.9,7.8,37.8,11.7c16.6,4.1,27.4,6.3,36.4,6.3c18.5,0,29-8.9,59.4-37.2c21.9-20.3,47.1-24.6,64.3-24.6
			c24.7,0,45.7,8.4,51.4,14.5c2.1,2.2,4.4,3.4,6.6,3.4c3.1,0,5.6-2.3,6.5-4.5c0.3-0.7,0.7-2.5-0.6-3.6c-5.1-4.5-4.8-11.7-4.7-12.7
			c-0.1-1.2-1-16.2-3.3-22.9c-2.3-6.6-15.7-20.2-22.4-22.6c-7.4-2.7-10.8-9.5-8.5-17c0.4-1.3,0.3-2.4-0.3-3.2
			c-0.6-0.8-1.6-1.3-2.8-1.3c-2,0-4.7,1.4-6.3,5.3c-1.7,4.3-4.8,6.9-8.2,6.9c-3.4,0-7-2.8-7.2-8.2c-0.1-3.9-4.4-7.2-7.7-7.2
			c-1,0-1.8,0.3-2.4,0.9c-0.8,0.8-1.1,2.2-1,4c0.6,10.8-7.5,14.6-8.7,15.1c-3.7,2.3-65.7,40-105.4,40c-4.7,0-8.9-0.5-12.6-1.6
			c-33.7-9.8-82.6-10.3-92-10.3l-1.8,0l-0.4-0.4c-0.1-0.1-2.7-3.3-1.8-7.7c0.8-4.3,4.5-8.2,10.8-11.6c10.4-5.6,17.4-14.3,16.8-21.2
			c-0.4-4.9-4.5-8.8-12-11.5c-3.8-1.3-6.9-2-9.6-2c-11.4,0-12,13.2-12,38.5c0,4.9-0.5,11.3-4.5,11.3c-3.9,0-8.8-6.6-16.5-17.6
			c-4.7-6.7-9.6-13.6-13.4-16.6c-5.3-4.2-11.2-6.5-16.4-6.5c-8.2,0-14.1,5.9-16.9,17c-1.4,5.5-0.7,10.1,2,13.5
			c6.2,8,21.2,8.1,21.3,8.1l0.3,0c1.1,0.3,2.7,0.5,4.5,0.8c8.7,1.5,15.4,2.9,15.7,6.6c0.2,2.4-1.8,5.7-18,11.5
			c-33.2,11.9-56.2,37.9-59.1,41.3l17.8,294.2L1091.2,826.8z"/>
		<path clip-path="url(#SVGID_2_)" fill="#9B9B9B" d="M1017.4,592.9c0,0,3-2.3,8.3-6.2c2.7-2,5.9-4.3,9.6-7c3.8-2.7,8-5.7,12.7-8.8
			c4.7-3.1,9.9-6.5,15.6-9.7c2.9-1.5,5.8-3.2,9.1-4.3c0.8-0.3,1.7-0.5,2.5-0.7c0.9-0.2,1.7-0.4,2.6-0.5c1.7-0.3,3.5-0.4,5.4-0.3
			c1.8,0.1,3.7,0.5,5.4,1.5c0.8,0.5,1.6,1.3,1.9,2.3c0.4,1,0.4,2,0.2,3c-0.4,1.9-1.3,3.6-2.3,5.2c-1.1,1.6-2.2,3-3.5,4.4
			c-2.5,2.8-5.4,5.3-8.3,7.7c-1.4,1.2-2.8,2.5-4.3,3.7c-1.4,1.3-2.7,2.6-4.1,3.9c-5.4,5.3-10.3,11-14.6,17c-2,3.1-4.2,6.1-5.9,9.3
			c-0.4,0.8-0.9,1.6-1.3,2.4l-0.7,1.2l-0.6,1.2c-0.8,1.6-1.5,3.2-2.3,4.8c-0.4,0.8-0.7,1.6-1,2.4c-0.3,0.8-0.6,1.6-0.9,2.4
			c-0.3,0.8-0.6,1.6-0.9,2.4l-0.5,1.2l-0.4,1.2c-0.5,1.6-1,3.2-1.4,4.8c-0.2,0.8-0.5,1.6-0.7,2.4c-0.2,0.8-0.3,1.6-0.5,2.4
			c-0.3,1.6-0.7,3.1-1,4.7c-0.2,0.8-0.3,1.5-0.4,2.3c-0.1,0.8-0.2,1.5-0.3,2.3c-0.2,1.5-0.4,3-0.5,4.5c-0.1,0.7-0.1,1.5-0.1,2.2
			c0,0.7,0,1.4-0.1,2.1c0,1.4-0.1,2.8-0.1,4.1c0,0.7-0.1,1.3-0.1,2c0,0.7,0.1,1.3,0.1,2c0.1,2.6,0.3,5,0.4,7.3
			c0.2,2.3,0.6,4.4,0.8,6.4c0.3,2,0.4,3.8,0.8,5.4c1.4,6.5,2.2,10.1,2.2,10.1s-0.9-3.7-2.4-10.1c-0.4-1.6-0.6-3.4-0.9-5.4
			c-0.3-2-0.7-4.1-0.9-6.4c-0.2-2.3-0.3-4.8-0.5-7.3C1033.6,667.7,1017.4,592.9,1017.4,592.9z"/>
		<path clip-path="url(#SVGID_2_)" fill="#231F20" d="M1029.2,677.1c0,0,1.4,1,3.5,3c2.1,2,5.2,4.9,8.3,8.9c3.1,3.9,6.4,8.9,9,14.7
			c1.3,2.9,2.5,6,3.3,9.2c0.8,3.2,1.4,6.6,1.6,10c0.2,3.4,0.1,6.9-0.4,10.1c-0.4,3.3-1,6.6-1.9,9.6c-0.9,3.1-2.1,6-3.8,8.5
			c-0.9,1.2-1.8,2.4-2.9,3.3c-1.1,0.9-2.4,1.6-3.6,2c-1.3,0.4-2.6,0.6-3.8,0.5c-1.2-0.1-2.3-0.3-3.3-0.6c-2-0.6-3.6-1.4-4.9-2.2
			c-1.3-0.8-2.2-1.5-2.8-2c-0.6-0.5-0.9-0.8-0.9-0.8s0.3,0.2,1,0.7c0.7,0.4,1.6,1,2.9,1.7c1.3,0.6,2.9,1.3,4.9,1.7
			c1.9,0.4,4.2,0.4,6.4-0.4c1.1-0.4,2.1-1.1,3.1-1.9c0.9-0.9,1.7-1.9,2.5-3c1.4-2.3,2.5-5.1,3.2-8.1c0.8-3,1.2-6.1,1.6-9.3
			c0.4-3.2,0.5-6.5,0.3-9.7c-0.2-3.3-0.7-6.5-1.5-9.6c-0.8-3.1-1.8-6.1-3-9c-2.4-5.7-5.4-10.7-8.2-14.7c-2.9-4.1-5.5-7.3-7.5-9.4
			C1030.4,678.3,1029.2,677.1,1029.2,677.1z"/>
		<path clip-path="url(#SVGID_2_)" fill="#231F20" d="M1131.5,811.7c-9.9-54-83.6-58.3-84.3-58.4l0.1-2.5c0.2,0,19.2,1,39.3,8.9
			c26.7,10.5,43.1,28.3,47.3,51.5L1131.5,811.7z"/>
		<path clip-path="url(#SVGID_2_)" fill="#231F20" d="M1210.2,683.2l-0.3,0c-0.9-0.2-21.2-5.6-30.4-9.6c-8.9-3.9-24.7-3.9-24.8-3.9
			l-0.2,0c-0.4-0.1-37.6-5.6-40.8-32.1c-5-0.1-24.5-1.4-25.8-14.1c-0.1-0.7,0.4-1.3,1.1-1.4c0.7-0.1,1.3,0.4,1.4,1.1
			c1.3,12,24.3,11.9,24.5,11.9l1.2,0l0.1,1.2c2,25,36.8,30.7,38.7,31c1.5,0,16.6,0.2,25.7,4.1c9.1,3.9,29.9,9.5,30.1,9.5
			c0.7,0.2,1.1,0.9,0.9,1.5C1211.3,682.8,1210.8,683.2,1210.2,683.2z"/>
		
			<ellipse transform="matrix(0.9659 0.259 -0.259 0.9659 177.5145 -289.472)" clip-path="url(#SVGID_2_)" fill="#FFFFFF" cx="1187.3" cy="528.9" rx="13.2" ry="10.6"/>
		<path clip-path="url(#SVGID_2_)" fill="#231F20" d="M1188.8,541c-1.5,0-3-0.2-4.5-0.6c-3.7-1-6.8-3.1-8.9-5.9
			c-2.1-2.9-2.8-6.2-2-9.3c1.3-5,6.4-8.3,12.5-8.3c1.5,0,3,0.2,4.5,0.6c3.7,1,6.8,3.1,8.9,5.9c2.1,2.9,2.8,6.2,2,9.3
			C1200,537.6,1194.9,541,1188.8,541z M1185.9,519.4c-5,0-9.1,2.6-10.1,6.5c-0.6,2.4-0.1,4.9,1.6,7.2c1.7,2.4,4.4,4.1,7.6,5
			c1.3,0.3,2.6,0.5,3.9,0.5c5,0,9.1-2.6,10.1-6.5c0.6-2.4,0.1-4.9-1.6-7.2c-1.7-2.4-4.4-4.1-7.6-5
			C1188.5,519.6,1187.2,519.4,1185.9,519.4z"/>
		<circle clip-path="url(#SVGID_2_)" fill="#231F20" cx="1190.8" cy="523.1" r="4.9"/>
		<path clip-path="url(#SVGID_2_)" fill="#FFFFFF" d="M1302.8,570.3c0,0,7.7-21,28.4-8.3c0,0,4.6,15.8-9.6,20.1
			C1307.4,586.3,1302.8,577.4,1302.8,570.3z"/>
		<path clip-path="url(#SVGID_2_)" fill="#231F20" d="M1314.8,584.4c-9.2,0-13.3-7.1-13.3-14.1V570l0.1-0.2
			c0.2-0.5,5-13.2,17.2-13.2c4,0,8.4,1.4,13,4.2l0.4,0.2l0.1,0.5c0.1,0.2,4.8,17-10.4,21.6C1319.4,584,1317,584.4,1314.8,584.4z
			 M1304,570.5c0.1,5.3,2.9,11.4,10.8,11.4c1.9,0,4.1-0.4,6.5-1.1c11.8-3.6,9.5-15.6,8.9-18.1c-4-2.4-7.8-3.6-11.3-3.6
			C1309.1,559.1,1304.6,569,1304,570.5z"/>
		<path clip-path="url(#SVGID_2_)" fill="#FFFFFF" d="M1383.9,577.1c0,0,6.6-18.2,24.3-7.2c0,0,4,13.6-8.2,17.4
			C1387.9,591,1383.9,583.2,1383.9,577.1z"/>
		<path clip-path="url(#SVGID_2_)" fill="#231F20" d="M1394.2,589.5c-8,0-11.5-6.2-11.5-12.4v-0.2l0.1-0.2
			c0.2-0.5,4.3-11.5,14.9-11.5c3.5,0,7.3,1.2,11.2,3.7l0.4,0.2l0.1,0.5c0,0.1,4.1,14.8-9,18.9
			C1398.2,589.1,1396.1,589.5,1394.2,589.5z M1385.1,577.3c0.1,4.5,2.5,9.7,9,9.7c1.6,0,3.5-0.3,5.5-0.9c9.8-3,8-13.1,7.5-15.4
			c-3.4-2-6.6-3.1-9.5-3.1C1389.5,567.6,1385.7,575.9,1385.1,577.3z"/>
		<ellipse clip-path="url(#SVGID_2_)" fill="#FFFFFF" cx="1163.9" cy="527.2" rx="16.8" ry="12.5"/>
		<path clip-path="url(#SVGID_2_)" fill="#231F20" d="M1163.9,541c-10,0-18.1-6.2-18.1-13.7s8.1-13.7,18.1-13.7
			c10,0,18.1,6.2,18.1,13.7S1173.9,541,1163.9,541z M1163.9,516c-8.6,0-15.6,5.1-15.6,11.3c0,6.2,7,11.3,15.6,11.3
			c8.6,0,15.6-5.1,15.6-11.3C1179.5,521,1172.5,516,1163.9,516z"/>
		<circle clip-path="url(#SVGID_2_)" fill="#231F20" cx="1166.2" cy="519.7" r="4.9"/>
		<path clip-path="url(#SVGID_2_)" fill="#EAB649" d="M973.3,297.5c0,0-41.4,24.1-73.8-4.5c-32.4-28.7,1.5-57.4,1.5-57.4
			s16.1-18.8,40.2,4.3C965.3,263,1000.8,283.8,973.3,297.5z"/>
		<path clip-path="url(#SVGID_2_)" fill="#231F20" d="M936.9,308.2c-14.6,0-27.4-4.8-38.2-14.4c-9.7-8.6-14.6-18-14.4-28.1
			c0.2-17.2,14.6-30,15.9-31.1c0.8-0.9,7.1-7.6,17.4-7.6c8,0,16.2,4,24.4,11.9c4.9,4.8,10.4,9.4,15.7,13.9c15,12.9,28,24,26.7,34
			c-0.6,4.6-4,8.4-10.6,11.7C973.3,299,957.1,308.2,936.9,308.2z M917.6,229.6c-9.7,0-15.6,6.7-15.6,6.8l-0.1,0.1
			c-0.1,0.1-15,12.9-15.1,29.3c-0.1,9.3,4.5,18.1,13.6,26.2c10.3,9.1,22.6,13.7,36.6,13.7c19.6,0,35.7-9.2,35.8-9.3
			c5.8-2.9,8.8-6.1,9.3-9.8c1.1-8.7-12-19.9-25.9-31.8c-5.3-4.5-10.8-9.2-15.8-14C932.6,233.3,925,229.6,917.6,229.6z"/>
		<path clip-path="url(#SVGID_2_)" fill="#EAB649" d="M1044.8,277.6c0,0,28.6,18.9,47.4-7.4c18.8-26.3,0.3-46,0-46
			s-10.5-21.3-56.2,39.9C990.3,325.2,1044.8,277.6,1044.8,277.6z"/>
		<path clip-path="url(#SVGID_2_)" fill="#231F20" d="M1019.1,296.5L1019.1,296.5c-1.4,0-2.1-0.8-2.3-1.3
			c-1.1-2.2,0.2-7.7,18.2-31.9c21.5-28.7,38.8-43.9,50.1-43.9c2.3,0,5.6,0.7,8,3.9l0,0c1.6,1.3,4.1,5.4,4.9,7
			c3.8,7.4,8.3,22.6-4.7,40.6c-6.9,9.6-15.8,14.5-26.5,14.5c-10.4,0-19.2-4.7-21.8-6.3C1040.9,282.6,1024.5,296.5,1019.1,296.5z
			 M1019,294l0.1,0c3.7,0,17.2-10.6,24.9-17.3l0.7-0.6l0.8,0.5c0.1,0.1,9.8,6.4,21.3,6.4c9.8,0,18.1-4.5,24.5-13.4
			c17.9-25,1.1-43.4,0.3-44.3c-0.2-0.1-0.3-0.3-0.4-0.5c-1.4-1.9-3.4-2.9-6-2.9c-7.3,0-21.5,7.5-48.1,43
			C1019.1,288.7,1018.8,293.3,1019,294z"/>
		<path clip-path="url(#SVGID_2_)" fill="#FA961D" d="M973.6,300.8c0,0,12.7-24,12.7-48.4c0-24.4-10.2-8.6-12.7-22.5
			c-2.5-13.9,21-72.6,31.5-55.9c10.5,16.7-9.3,42.3-7.4,55.6c1.9,13.3,1.9,63.2,1.9,63.2L973.6,300.8z"/>
		<path clip-path="url(#SVGID_2_)" fill="#231F20" d="M971.1,302.9l1.4-2.6c0.1-0.2,12.5-24,12.5-47.8c0-13-2.8-13.7-5.7-14.3
			c-2.5-0.6-5.7-1.3-6.9-8c-1.9-10.6,9.9-42.9,19.9-54.9c3-3.6,5.9-5.4,8.4-5.4c2.1,0,3.9,1.2,5.4,3.5c6.7,10.7,1.7,24.6-2.7,36.9
			c-2.7,7.4-5.2,14.4-4.5,19.2c1.8,13.2,1.9,61.3,1.9,63.3l0,0.9L971.1,302.9z M1000.7,172.3c-1.8,0-4,1.6-6.5,4.6
			c-10.2,12.2-21,43.8-19.4,52.9c0.9,5.1,2.7,5.5,5,6c4.3,1,7.7,2.8,7.7,16.7c0,19.8-8.3,39.4-11.5,46.3l22.4-7
			c0-6.8-0.2-50-1.9-62.1c-0.8-5.5,1.9-12.7,4.6-20.4c4.2-11.7,9.1-25,2.9-34.7C1003,173.1,1001.9,172.3,1000.7,172.3z"/>
		<path clip-path="url(#SVGID_2_)" fill="#FA961D" d="M1010.9,272.4l10.2-45.9c0,0,2.5-4.6-3.7-17.4c-6.2-12.9,9.3-39,21.6-33.4
			c12.4,5.7,17.6,15.9,15.3,26.1c-2.3,10.2-25.7,18.7-23,44.2c2.7,25.5,6.5,35.6,6.5,35.6l-25.6-7.6"/>
		<path clip-path="url(#SVGID_2_)" fill="#231F20" d="M1039.8,283.5l-28-8.3l0.7-2.4l23.4,6.9c-1.3-4.3-3.9-14.7-5.9-33.6
			c-1.8-17.3,8.1-27.2,15.4-34.4c3.7-3.7,7-7,7.7-10.1c2.3-10-3.3-19.5-14.6-24.7c-4.9-2.3-9.7,1.6-12.1,4
			c-6.7,6.8-11.6,19.9-7.9,27.7c5.8,12.1,4.3,17.2,3.8,18.4l-10.2,45.8l-2.4-0.5l10.2-46.1l0.1-0.2c0,0,2-4.4-3.7-16.3
			c-4.3-8.8,0.9-22.9,8.3-30.5c4.9-5,10.3-6.6,14.9-4.5c12.4,5.7,18.5,16.2,16,27.5c-0.9,3.9-4.3,7.3-8.4,11.4
			c-7.3,7.3-16.3,16.3-14.7,32.4c2.6,25,6.4,35.2,6.5,35.3L1039.8,283.5z"/>
		<path clip-path="url(#SVGID_2_)" fill="#F8951D" d="M1045.3,840.6c0,0-15.4-90.6-13-130.3c2.5-39.6-1.2-123.8-4.3-140.9
			c-3.1-17.1,1.9-136.6,8.6-146.7c6.8-10.2,19.8-55.3,16.1-65.2c-3.7-9.9-21-96.7-57.4-83.2c-36.4,13.4-46.7,57.9-49.9,82
			c-3.2,24.1-7.9,245.9-7.9,245.9l12.9,243.4L1045.3,840.6z"/>
		<path clip-path="url(#SVGID_2_)" fill="#231F20" d="M949.1,846.8l-12.9-244.6c0-2.3,4.8-222.2,7.9-246.1
			c3.3-25.2,14.4-69.6,50.7-83c2.7-1,5.4-1.5,8-1.5c27.6,0,42.5,54.4,48.8,77.6c1,3.6,1.8,6.5,2.3,7.8c3.8,10.2-9.1,55.7-16.2,66.3
			c-6.4,9.5-11.8,127.4-8.5,145.8c3.2,17.9,6.8,102.1,4.3,141.2c-2.4,39,12.8,129.1,13,130l0.2,1.4L949.1,846.8z M1002.8,274.1
			c-2.3,0-4.7,0.4-7.1,1.3c-35.1,13-45.9,56.3-49.1,81c-3.1,23.7-7.9,243.5-7.9,245.7l12.8,242.1l92.4-4.8
			c-1.9-11.5-15-92.5-12.8-129.2c2.4-39-1.1-122.8-4.3-140.6c-3.1-17.1,1.5-136.7,8.8-147.6c6.7-10.1,19.5-54.6,15.9-64
			c-0.5-1.4-1.3-4.2-2.3-8C1043.6,329.1,1028.6,274.1,1002.8,274.1z"/>
		<g clip-path="url(#SVGID_2_)">
			<defs>
				<path id="SVGID_3_" d="M1045.3,842.4c0,0-15.4-90.6-13-130.3c2.5-39.6-1.2-123.8-4.3-140.9c-3.1-17.1,1.9-136.6,8.6-146.7
					c6.8-10.2,19.8-55.3,16.1-65.2c-3.7-9.9-21-96.7-57.4-83.2c-36.4,13.4-46.7,57.9-49.9,82c-3.2,24.1-7.9,245.9-7.9,245.9
					l12.9,243.4L1045.3,842.4z"/>
			</defs>
			<clipPath id="SVGID_4_">
				<use xlink:href="#SVGID_3_"  overflow="visible"/>
			</clipPath>
			<polygon clip-path="url(#SVGID_4_)" fill="#723516" points="1041.3,423.2 1026.9,423.2 1021.6,402 1031.4,389 1054.3,389 			"/>
			<polygon clip-path="url(#SVGID_4_)" fill="#723516" points="1021.6,379.2 1010.9,398.1 982.6,400.6 971.5,366.6 			"/>
			<polygon clip-path="url(#SVGID_4_)" fill="#723516" points="945.1,342.7 969.9,400.6 969.9,413.3 955.3,447.7 938.2,452.3 
				931.1,382.5 			"/>
			<polygon clip-path="url(#SVGID_4_)" fill="#723516" points="984.5,414.2 975,441.1 996.5,455.2 1013.5,433.9 1009,410.9 			"/>
			<polygon clip-path="url(#SVGID_4_)" fill="#723516" points="1039.7,442.6 1024.7,436 1006.9,461.5 1034.1,481.5 			"/>
			<polygon clip-path="url(#SVGID_4_)" fill="#723516" points="1033.9,492.2 1011.5,477.6 1013.5,503.7 1032.1,514.9 			"/>
			<polygon clip-path="url(#SVGID_4_)" fill="#723516" points="963.1,464 976.7,457.8 996.5,468.7 1001.8,500.2 982.5,521.4 
				955.9,485.2 			"/>
			<path clip-path="url(#SVGID_4_)" fill="#723516" d="M990.3,531.5l20.2-16.7l9.3,12.6l-2.3,27c0,0-17.9-5.8-18.7-6.2
				C997.9,547.8,990.3,531.5,990.3,531.5z"/>
			<polygon clip-path="url(#SVGID_4_)" fill="#723516" points="984.3,555.2 984.3,586.1 1016.8,604.4 1022.7,578.3 1012.7,560.8 			
				"/>
			<polygon clip-path="url(#SVGID_4_)" fill="#723516" points="969.1,544.5 973,587.1 950.9,635.5 932.8,559.1 939,533.6 			"/>
			<polygon clip-path="url(#SVGID_4_)" fill="#723516" points="982,604.4 969.7,637.6 980.2,682.1 1009.6,694.6 1021.1,656.5 
				1011.9,618.7 			"/>
			<polygon clip-path="url(#SVGID_4_)" fill="#723516" points="1035.2,659.8 1017.4,697.5 1018.9,718.7 1037.8,753.7 			"/>
			<polygon clip-path="url(#SVGID_4_)" fill="#723516" points="966.4,721.8 981.6,698.3 1007.1,708.4 1001.4,801.3 974.2,799 			"/>
			<polygon clip-path="url(#SVGID_4_)" fill="#723516" points="1040.7,788.9 1017.4,744.5 1010,807 1037.8,837.7 			"/>
		</g>
		<path clip-path="url(#SVGID_2_)" fill="#231F20" d="M949.1,846.8l-12.9-244.6c0-2.3,4.8-222.2,7.9-246.1
			c3.3-25.2,14.4-69.6,50.7-83c2.7-1,5.4-1.5,8-1.5c27.6,0,42.5,54.4,48.8,77.6c1,3.6,1.8,6.5,2.3,7.8c3.8,10.2-9.1,55.7-16.2,66.3
			c-6.4,9.5-11.8,127.4-8.5,145.8c3.2,17.9,6.8,102.1,4.3,141.2c-2.4,39,12.8,129.1,13,130l0.2,1.4L949.1,846.8z M1002.8,274.1
			c-2.3,0-4.7,0.4-7.1,1.3c-35.1,13-45.9,56.3-49.1,81c-3.1,23.7-7.9,243.5-7.9,245.7l12.8,242.1l92.4-4.8
			c-1.9-11.5-15-92.5-12.8-129.2c2.4-39-1.1-122.8-4.3-140.6c-3.1-17.1,1.5-136.7,8.8-147.6c6.7-10.1,19.5-54.6,15.9-64
			c-0.5-1.4-1.3-4.2-2.3-8C1043.6,329.1,1028.6,274.1,1002.8,274.1z"/>
		<path clip-path="url(#SVGID_2_)" fill="#F8951D" d="M970.2,371.4c0,0-46.3-37.6-2.5-79c43.8-41.4,102.8-11.5,102.8-11.5
			s31.8,7.3,53.9,7c22.1-0.3,72.8,22,92.7,43.3c19.9,21.3,39.4,60.5-17,60.2c-56.4-0.3-55.8-14-64.3,0c-8.5,14-24,22.3-35,22
			c-11-0.3-35.1-29-35.1-29s-6.2-15-26.1-4.8C1019.7,389.8,977.2,378.4,970.2,371.4z"/>
		<path clip-path="url(#SVGID_2_)" fill="#231F20" d="M1101.3,414.6c-0.2,0-0.4,0-0.7,0c-11.5-0.3-35-28.2-36-29.4l-0.2-0.3
			c-0.1-0.3-3.3-7.6-12.3-7.6c-3.6,0-7.6,1.1-12.1,3.4c-5.4,2.8-12.7,4.2-21.7,4.2c-19.6,0-43.3-6.9-49.1-12.6
			c-1.4-1.1-20.9-17.5-21.7-40.8c-0.5-14.1,5.9-27.5,19.2-40.1c15.6-14.8,34.9-22.3,57.1-22.3c24.8,0,45,9.6,46.9,10.5
			c2.3,0.5,31.2,7,52.1,7c0.5,0,0.9,0,1.4,0l0.5,0c21.9,0,72.9,22,93.1,43.7c12.5,13.4,24.9,33.9,18.8,47.8
			c-4.2,9.6-16.3,14.5-36.1,14.5l-0.7,0c-26.4-0.1-40.3-3.2-48.7-5c-3.4-0.7-5.8-1.3-7.6-1.3c-2.5,0-4,0.8-7,5.7
			C1127.8,406.8,1112.1,414.6,1101.3,414.6z M1066.7,383.7c6.7,7.9,25.5,28.2,34.1,28.4c0.2,0,0.4,0,0.6,0c9.9,0,24.9-7.5,33.3-21.4
			c2.8-4.6,4.9-6.9,9.1-6.9c2.1,0,4.6,0.6,8.2,1.3c8.2,1.8,22,4.8,48.1,5l0.7,0c18.7,0,30.1-4.4,33.8-13
			c5.5-12.7-6.4-32.3-18.4-45.1c-19.8-21.3-69.8-42.9-91.3-42.9l-0.5,0c-0.5,0-1,0-1.4,0c-21.9,0-52.5-7-52.8-7l-0.3-0.1
			c-0.2-0.1-20.7-10.3-46-10.3c-21.6,0-40.3,7.3-55.4,21.6c-12.7,12-18.9,24.9-18.4,38.2c0.8,22.5,20.7,38.8,20.9,39l0.1,0.1
			c4.7,4.7,27.8,11.9,47.3,11.9c8.6,0,15.5-1.3,20.6-3.9c4.8-2.4,9.2-3.7,13.2-3.7C1062.1,374.8,1066.1,382.4,1066.7,383.7z"/>
		<path clip-path="url(#SVGID_2_)" fill="#231F20" d="M1049.6,365.8c0,0,0.3-0.2,0.8-0.5c0.5-0.3,1.2-0.8,2-1.3
			c0.4-0.3,0.8-0.6,1.3-0.9c0.5-0.3,0.9-0.6,1.4-0.9c0.5-0.3,1-0.7,1.5-1c0.5-0.3,1.1-0.7,1.6-1c0.5-0.3,1.1-0.7,1.6-1
			c0.5-0.4,1-0.7,1.5-1c0.5-0.3,1-0.6,1.5-0.9c0.5-0.3,0.9-0.6,1.3-0.8c1.7-1,2.9-1.5,2.9-1.5s-0.7,1.1-2,2.6
			c-0.3,0.4-0.7,0.8-1.1,1.2c-0.4,0.4-0.9,0.8-1.3,1.2c-0.5,0.4-1,0.8-1.5,1.2c-0.5,0.4-1.1,0.7-1.6,1.1c-0.6,0.3-1.1,0.7-1.7,1
			c-0.6,0.3-1.2,0.6-1.7,0.8c-0.6,0.3-1.1,0.5-1.7,0.7c-0.5,0.2-1.1,0.4-1.5,0.5c-1,0.2-1.8,0.4-2.4,0.5
			C1049.9,365.9,1049.6,365.8,1049.6,365.8z"/>
		<path clip-path="url(#SVGID_2_)" fill="#231F20" d="M1044.6,364.3c0,0,0.4-0.2,1.1-0.6c0.7-0.4,1.7-1,2.8-1.7
			c0.6-0.4,1.2-0.8,1.8-1.2c0.7-0.4,1.3-0.9,2-1.3c0.7-0.5,1.4-0.9,2.2-1.4c0.7-0.5,1.5-1,2.2-1.5c0.7-0.5,1.5-1,2.2-1.5
			c0.7-0.5,1.4-1,2.1-1.5c0.7-0.5,1.4-0.9,2-1.3c0.6-0.4,1.2-0.9,1.8-1.3c2.2-1.6,3.9-2.5,3.9-2.5s-1.1,1.5-2.9,3.5
			c-0.5,0.5-1,1.1-1.5,1.6c-0.6,0.5-1.2,1.1-1.9,1.6c-0.7,0.6-1.3,1.1-2,1.7c-0.7,0.6-1.5,1.1-2.3,1.6c-0.8,0.5-1.5,1-2.3,1.5
			c-0.8,0.4-1.6,0.8-2.4,1.2c-0.8,0.4-1.5,0.8-2.3,1c-0.7,0.3-1.4,0.6-2.1,0.8c-1.3,0.4-2.4,0.7-3.2,0.9
			C1045.1,364.2,1044.6,364.3,1044.6,364.3z"/>
		<path clip-path="url(#SVGID_2_)" fill="#231F20" d="M1145.4,386.2c-3-0.6-73.6-15.6-90-26.4l1.4-2.1c16,10.6,88.4,25.9,89.1,26.1
			L1145.4,386.2z"/>
		<path clip-path="url(#SVGID_2_)" fill="#231F20" d="M1177.7,350.7c0,0,2-16.5,10.4-14.6c8.4,1.9,8.8-2.8,8.8-2.8
			s5.8-7.1,10.8,10.2c0,0-9.8-3.7-10.8,3.1c-0.9,6.8-8.8,1.9-8.8,1.9s-6.4-2.8-10.4,4"/>
		
			<ellipse transform="matrix(0.4324 -0.9017 0.9017 0.4324 344.2178 1099.5026)" clip-path="url(#SVGID_2_)" fill="#FFFFFF" cx="1045.4" cy="276.3" rx="15.2" ry="21.9"/>
		<path clip-path="url(#SVGID_2_)" fill="#231F20" d="M1051.3,294.2c-4.3,0-8.7-1.1-12.9-3.1c-5.5-2.6-10-6.6-12.6-11.2
			c-2.7-4.7-3.1-9.6-1.2-13.6c2.4-4.9,8-7.9,15.1-7.9c4.3,0,8.7,1.1,12.9,3.1c11.5,5.5,17.7,16.7,13.8,24.8
			C1064,291.3,1058.3,294.2,1051.3,294.2z M1039.6,260.9c-6.1,0-10.9,2.4-12.8,6.5c-1.6,3.3-1.2,7.3,1.1,11.3
			c2.4,4.2,6.5,7.8,11.5,10.2c3.9,1.9,8,2.8,11.9,2.8c6.1,0,10.9-2.4,12.8-6.5c3.3-6.9-2.3-16.6-12.6-21.5
			C1047.6,261.9,1043.5,260.9,1039.6,260.9z"/>
		
			<ellipse transform="matrix(0.4324 -0.9017 0.9017 0.4324 326.2821 1079.3212)" clip-path="url(#SVGID_2_)" fill="#FFFFFF" cx="1020.5" cy="280.5" rx="16.5" ry="22"/>
		<path clip-path="url(#SVGID_2_)" fill="#231F20" d="M1025.1,299.4c-4.1,0-8.4-1-12.3-2.9c-11.6-5.5-17.5-17.2-13.3-26.1
			c2.7-5.5,8.8-8.9,16.3-8.9c4.1,0,8.4,1,12.3,2.9c5.5,2.7,10,6.8,12.5,11.6c2.6,5,2.9,10.1,0.8,14.4
			C1038.8,296.1,1032.7,299.4,1025.1,299.4z M1015.8,264c-6.6,0-11.8,2.8-14.1,7.5c-3.6,7.6,1.8,17.8,12.1,22.8
			c3.6,1.7,7.5,2.7,11.3,2.7c6.6,0,11.8-2.8,14.1-7.5c1.7-3.6,1.5-8-0.7-12.2c-2.3-4.4-6.3-8.1-11.4-10.6
			C1023.4,265,1019.5,264,1015.8,264z"/>
		<circle clip-path="url(#SVGID_2_)" fill="#231F20" cx="1025.7" cy="287" r="6.3"/>
		<circle clip-path="url(#SVGID_2_)" fill="#231F20" cx="1055" cy="283.2" r="6.3"/>
		<path clip-path="url(#SVGID_2_)" fill="#231F20" d="M899.5,406c0,0-34-40.8-24.1-57.1c9.9-16.4,4.3-18.2,31.2,51.6L899.5,406z"/>
		<path clip-path="url(#SVGID_2_)" fill="#231F20" d="M903.8,402.1c0,0-15.6-47.8-2.4-60.8c13.2-13,9.2-16.2,10,57.4L903.8,402.1z"
			/>
		<path clip-path="url(#SVGID_2_)" fill="#CFD0D0" d="M976.7,808c0,0-22.9-215.6-50-307.9l17.9-67.6c0,0-1.9-35.3-40.2-33.5
			c-38.3,1.9-22.9,82.9-22.9,82.9s38.3,117.4,30.3,231c-8,113.6,11.1,122.2,11.1,122.2L976.7,808z"/>
		<path clip-path="url(#SVGID_2_)" fill="#231F20" d="M923,836.6l-0.5-0.2c-0.8-0.4-19.8-10.3-11.8-123.4
			c7.9-112-29.8-229.3-30.2-230.5l0-0.2c-0.4-2.2-10.1-54.2,6.7-75.5c4.4-5.6,10.2-8.5,17.3-8.9c39.1-1.9,41.4,34.3,41.4,34.6l0,0.2
			l0,0.2L928,500.1c26.9,91.6,49.8,305.7,50,307.8l0.1,0.8L923,836.6z M882.8,481.7c1.2,3.6,38.2,120.1,30.3,231.4
			c-7.1,100.4,7.3,118.3,10,120.7l52.3-26.5c-1.6-14.9-23.9-218.6-49.9-306.9l-0.1-0.3l0.1-0.3l17.9-67.4c-0.2-3-3.3-33.8-38.8-32.1
			c-6.4,0.3-11.6,3-15.5,8C873.2,428.4,882.4,479.4,882.8,481.7z"/>
		<path clip-path="url(#SVGID_2_)" fill="#F5EA00" d="M893.3,499.9c0,0,20.9,9.6,26.5,33.7c5.6,24.1,44.2,13.6,39.5,0
			c-4.6-13.6-66.2-34.9-66.2-34.9"/>
		<path clip-path="url(#SVGID_2_)" fill="#231F20" d="M939.3,549.2c-2.3,0-4.7-0.3-6.8-0.9c-7.3-2-12.3-7.1-14-14.5
			c-5.4-23.2-25.6-32.7-25.8-32.8l0.5-1c-0.2-0.1-0.4-0.1-0.6-0.2l0.8-2.3c2.5,0.9,62.2,21.7,67,35.7c1.1,3.1,0.2,6.4-2.4,9.1
			C954.1,546.6,946.6,549.2,939.3,549.2z M900,502.5c6.8,4.8,17.2,14.5,21,30.8c1.9,8.2,7.7,11.4,12.2,12.6c8.9,2.4,19-0.9,23.1-5.3
			c1.4-1.5,2.8-3.8,1.8-6.6C954.9,524.6,919.9,509.9,900,502.5z"/>
		<path clip-path="url(#SVGID_2_)" fill="#F5EA00" d="M1008.2,562.8c0,0,13.3-0.9,13-5.9c-0.3-4.9-2.8-6.8-6.5-6.8
			c-3.7,0-9.6-4.3-15.1-12c-5.6-7.7-34.3-40.8-26.3-49.1c8-8.3,1.2-22.5-8.6-26.6c-9.9-4-71.7-3.1-86.5,2.8
			c-14.8,5.9-15.4,25.3-12,34.6c3.4,9.3,23.2,8,29.3,8.3c6.2,0.3,14.5,2.2,19.5,11.4c4.9,9.3,31.8,21,40.2,24.7
			C963.4,548,980.4,564.3,1008.2,562.8z"/>
		<path clip-path="url(#SVGID_2_)" fill="#231F20" d="M1004.6,564.1L1004.6,564.1c-20,0-33.9-8.9-43.2-14.8c-2.7-1.7-5-3.2-6.8-4
			l-0.7-0.3c-15-6.7-35.6-16.5-40.1-25c-3.6-6.8-9.7-10.3-18.4-10.8c-0.8,0-1.9-0.1-3.2-0.1c-8.4-0.1-24-0.3-27.2-9.1
			c-3.4-9.2-3.1-29.9,12.7-36.2c9.2-3.7,35.4-5.3,55.8-5.3c15.9,0,27.7,0.9,31.6,2.5c6.1,2.5,11.2,8.6,12.6,15.2
			c1.1,5.1-0.2,9.8-3.5,13.3c-6,6.2,13.8,31.4,22.2,42.1c1.8,2.3,3.3,4.2,4.2,5.4c5.7,8,11.2,11.5,14.1,11.5c3.3,0,7.3,1.4,7.7,8
			c0.4,5.9-11.7,7-14.1,7.2C1007,564.1,1005.8,564.1,1004.6,564.1z M933.6,461.2c-20.2,0-46,1.6-54.9,5.1
			c-14.3,5.7-14.4,24.6-11.3,33c2.6,7.2,17.1,7.4,24.9,7.5c1.3,0,2.4,0,3.3,0.1c9.7,0.5,16.4,4.4,20.5,12.1
			c4.6,8.6,30.4,20.1,38.9,23.9l0.7,0.3c2,0.9,4.3,2.4,7.1,4.1c9,5.7,22.6,14.4,41.9,14.4h0c1.2,0,2.4,0,3.6-0.1
			c4.8-0.3,12-2,11.8-4.6c-0.2-3.9-1.9-5.6-5.3-5.6c-4.4,0-10.6-4.8-16.1-12.6c-0.9-1.2-2.3-3-4.1-5.3c-14.3-18.2-29-38.2-22-45.4
			c2.8-2.9,3.8-6.8,2.9-11.1c-1.2-5.8-5.8-11.3-11.1-13.5C960.6,462.1,948.9,461.2,933.6,461.2z"/>
		<polygon clip-path="url(#SVGID_2_)" fill="#F8951D" points="822,807.4 810.2,783.3 806.9,767.5 886.4,734.1 918.1,812.8 
			825.7,814.8 		"/>
		<path clip-path="url(#SVGID_2_)" fill="#231F20" d="M824.9,816.1l-4.1-8.1L809,783.6l-3.5-16.9l81.6-34.2L920,814L824.9,816.1z
			 M811.4,782.9l11.7,24l3.4,6.7l89.9-2l-30.6-75.8l-77.4,32.5L811.4,782.9z"/>
		<path clip-path="url(#SVGID_2_)" fill="#723516" d="M770.4,755.5l-56,16.5c0,0-48,36.2-56,8.9c-8-27.4,56-25.3,56-25.3l56-6.2
			V755.5z"/>
		<path clip-path="url(#SVGID_2_)" fill="#231F20" d="M671.2,792.9c-7.8,0-12.8-3.7-15-11.1c-1.5-5-0.8-9.4,2-13.1
			c9.3-12.5,39.6-13.8,52.2-13.8c1.6,0,2.6,0,2.9,0l57.3-6.3v8.5L714,773.7C711.5,775.6,687.8,792.9,671.2,792.9z M710.5,757.3
			c-9.5,0-41.3,0.9-50.2,12.8c-2.3,3.1-2.9,6.7-1.6,11c1.8,6.3,6,9.3,12.6,9.3c16.3,0,41.2-18.7,41.5-18.8l0.2-0.1l0.2-0.1
			l55.1-16.2v-3.9l-54.7,6l-0.1,0C713.4,757.4,712.3,757.3,710.5,757.3z"/>
		<path clip-path="url(#SVGID_2_)" fill="#F8951D" d="M842.5,675c0,0,42.8,5.4,45.1,42c2.3,36.7-9.9,63.6-63.8,57.2
			c-53.9-6.4-55.2-17.9-55.2-17.9l-49.8,8.2c0,0-75.8,19.4-93.9,18.5c-18.1-0.8-40.2-1.2-43.9-26.6c-3.7-25.3,60.7-58.9,74.5-62.4
			c13.8-3.5,80.7-19.2,124.4-16.1C823.6,681.2,842.5,675,842.5,675z"/>
		<path clip-path="url(#SVGID_2_)" fill="#231F20" d="M626.1,784.4c-0.4,0-0.9,0-1.3,0l-1.2-0.1c-17.8-0.8-40-1.8-43.8-27.6
			c-3.9-27,63.1-60.6,75.5-63.8c2.7-0.7,65.6-16.5,112.5-16.5c4.3,0,8.4,0.1,12.2,0.4c8.1,0.6,15.9,0.9,23.2,0.9
			c26.6,0,38.8-3.9,38.9-3.9l0.3-0.1l0.3,0c0.4,0.1,43.9,5.9,46.2,43.2c1.3,21.3-2.5,36.5-11.6,46.2c-8.3,8.8-21.3,13.3-38.6,13.3
			c-4.6,0-9.7-0.3-15-0.9c-45.2-5.3-54.1-14.3-55.8-17.8l-48.8,8.1C716.1,766.5,646,784.4,626.1,784.4z M767.8,678.9
			c-46.7,0-109.3,15.8-111.9,16.4c-13.7,3.5-77.2,36.6-73.6,61c3.5,23.8,23.7,24.7,41.5,25.5l1.2,0.1c17.8,0.8,92.8-18.3,93.5-18.5
			l51.2-8.5l0.1,1.3c0,0,2.8,10.8,54.1,16.8c5.2,0.6,10.2,0.9,14.7,0.9c16.8,0,28.9-4.1,36.8-12.5c8.7-9.2,12.3-23.7,11-44.4
			c-2.1-33.7-40.3-40.3-43.8-40.8c-2,0.6-14.3,3.9-39.4,3.9h0c-7.4,0-15.2-0.3-23.4-0.9C776.1,679,772,678.9,767.8,678.9z"/>
		<path clip-path="url(#SVGID_2_)" fill="#231F20" d="M728.7,746c0,0-28.4-55.4-63.8-52.9c0,0,11.9-39.7,74.1,46.9l2.5,4.3
			L728.7,746z"/>
		
			<linearGradient id="SVGID_5_" gradientUnits="userSpaceOnUse" x1="380.2883" y1="2245.2622" x2="381.2883" y2="2245.2622" gradientTransform="matrix(29.8575 0 0 29.8575 -10585.209 -66287.3594)">
			<stop  offset="0" style="stop-color:#F15A29"/>
			<stop  offset="0.3339" style="stop-color:#F15D28"/>
			<stop  offset="0.5625" style="stop-color:#F26627"/>
			<stop  offset="0.7597" style="stop-color:#F47524"/>
			<stop  offset="0.9381" style="stop-color:#F68B20"/>
			<stop  offset="1" style="stop-color:#F7941E"/>
		</linearGradient>
		<path clip-path="url(#SVGID_2_)" fill="url(#SVGID_5_)" d="M769.2,756.1c0.6,0,16.1-2.7,29.9-11.1"/>
		<path clip-path="url(#SVGID_2_)" fill="#231F20" d="M769.2,757.4l-0.1-2.5c0.1,0,15.4-2.4,29.3-10.9l1.3,2.1
			C786,754.5,770.2,757.4,769.2,757.4z"/>
		<path clip-path="url(#SVGID_2_)" fill="#231F20" d="M789.4,738.7c0,0,0.3,0.2,0.8,0.6c0.5,0.4,1.2,0.9,2.1,1.5
			c0.4,0.3,0.9,0.6,1.4,1c0.5,0.3,1,0.7,1.6,1.1c1.1,0.8,2.2,1.5,3.4,2.3c0.6,0.4,1.1,0.8,1.7,1.2c0.6,0.4,1.1,0.8,1.6,1.2
			c0.5,0.4,1,0.8,1.5,1.2c0.5,0.4,0.9,0.7,1.4,1c1.7,1.3,2.7,2.4,2.7,2.4s-1.4-0.4-3.4-1.2c-1-0.4-2.2-0.9-3.3-1.6
			c-0.6-0.3-1.2-0.7-1.8-1c-0.6-0.4-1.2-0.8-1.8-1.2c-0.6-0.4-1.2-0.9-1.7-1.3c-0.6-0.4-1.1-0.9-1.6-1.4c-1-0.9-1.9-1.8-2.6-2.7
			c-0.4-0.4-0.6-0.8-0.9-1.2c-0.3-0.4-0.5-0.7-0.6-1C789.5,739.1,789.4,738.7,789.4,738.7z"/>
		<path clip-path="url(#SVGID_2_)" fill="#231F20" d="M809,753.1l-1.7-0.4c-0.1,0-1.5-0.4-3.5-1.2c-1.3-0.5-2.4-1-3.4-1.6
			c-0.2-0.1-0.4-0.2-0.6-0.4c-0.4-0.2-0.8-0.4-1.2-0.7c-0.5-0.3-1.1-0.7-1.8-1.2l-0.2-0.2c-0.5-0.4-1-0.8-1.5-1.1
			c-0.4-0.3-0.8-0.7-1.2-1c-0.1-0.1-0.3-0.3-0.4-0.4c-1-0.8-1.9-1.8-2.6-2.7c-0.3-0.4-0.6-0.7-0.8-1.1l-0.1-0.1
			c-0.3-0.4-0.5-0.7-0.7-1c-0.3-0.6-0.5-0.9-0.5-1l-0.6-1.6l1.4,1c0,0,0.3,0.2,0.8,0.6c0.5,0.4,1.2,0.9,2.1,1.5
			c0.4,0.3,0.9,0.6,1.4,1c0.2,0.1,0.3,0.2,0.5,0.3c0.3,0.2,0.7,0.5,1,0.7c0.5,0.4,1,0.7,1.6,1.1c0.6,0.4,1.2,0.8,1.8,1.2
			c0.6,0.4,1.1,0.8,1.7,1.2c0.4,0.3,0.7,0.5,1.1,0.8c0.2,0.1,0.4,0.3,0.6,0.4c0.3,0.2,0.6,0.4,0.9,0.7c0.2,0.2,0.4,0.3,0.6,0.5
			c0.5,0.4,1,0.7,1.4,1.1c1.7,1.3,2.7,2.4,2.7,2.5L809,753.1z M790.9,740.4L790.9,740.4c0.2,0.3,0.5,0.7,0.8,1
			c0.7,0.9,1.6,1.8,2.5,2.6c0.1,0.1,0.3,0.3,0.4,0.4c0.4,0.3,0.7,0.7,1.1,0.9c0.5,0.4,1,0.8,1.5,1.1l0.2,0.2
			c0.6,0.5,1.2,0.8,1.7,1.2c0.4,0.2,0.8,0.5,1.2,0.7c0.2,0.1,0.4,0.2,0.6,0.4c1,0.6,2,1.1,3.2,1.6c0.5,0.2,0.9,0.4,1.3,0.5
			c-0.3-0.3-0.7-0.6-1-0.9c-0.4-0.3-0.9-0.7-1.3-1c-0.2-0.2-0.5-0.3-0.7-0.5c-0.3-0.2-0.5-0.4-0.8-0.6c-0.2-0.1-0.4-0.3-0.6-0.4
			c-0.3-0.3-0.7-0.5-1-0.8c-0.6-0.4-1.2-0.8-1.7-1.2c-0.6-0.4-1.2-0.8-1.7-1.2c-0.6-0.4-1.1-0.7-1.6-1.1c-0.3-0.2-0.7-0.5-1-0.7
			c-0.2-0.1-0.4-0.2-0.6-0.4c-0.5-0.4-1-0.7-1.4-1C791.6,740.9,791.3,740.6,790.9,740.4z"/>
		<path clip-path="url(#SVGID_2_)" fill="#231F20" d="M788.8,733.7c0,0,0.4,0.3,1,0.8c0.3,0.3,0.7,0.5,1.2,0.9
			c0.5,0.3,1,0.7,1.6,1.1c0.6,0.4,1.2,0.8,1.8,1.3c0.7,0.5,1.4,0.9,2.1,1.4c1.4,1,3,2,4.5,3.1c0.8,0.6,1.5,1.1,2.3,1.6
			c0.8,0.5,1.5,1,2.2,1.6c0.7,0.5,1.4,1,2.1,1.5c0.7,0.4,1.3,0.9,1.9,1.3c2.3,1.7,3.7,3,3.7,3s-1.8-0.6-4.5-1.7
			c-1.3-0.6-2.8-1.3-4.4-2.2c-0.8-0.5-1.6-0.9-2.4-1.4c-0.8-0.5-1.6-1-2.4-1.6c-0.8-0.6-1.5-1.1-2.3-1.7c-0.8-0.5-1.5-1.2-2.1-1.8
			c-0.7-0.6-1.3-1.2-1.9-1.7c-0.6-0.6-1.1-1.2-1.6-1.7c-0.5-0.5-0.9-1-1.3-1.5c-0.4-0.5-0.7-0.9-0.9-1.2
			C789,734.1,788.8,733.7,788.8,733.7z"/>
		<path clip-path="url(#SVGID_2_)" fill="#231F20" d="M815.3,752.5l-2.2-0.7c-0.1,0-1.9-0.6-4.5-1.8c-1.7-0.7-3.1-1.4-4.4-2.2
			c-0.3-0.2-0.5-0.3-0.8-0.5c-0.5-0.3-1.1-0.6-1.6-0.9c-0.8-0.4-1.6-1-2.4-1.6l-2.3-1.7c-0.6-0.4-1.1-0.9-1.7-1.3l-0.5-0.4
			c-0.7-0.6-1.4-1.2-1.9-1.8c-0.6-0.6-1.1-1.2-1.6-1.7c-0.4-0.5-0.8-0.9-1.2-1.4l-0.1-0.2c-0.3-0.4-0.7-0.9-0.9-1.3
			c-0.5-0.7-0.7-1.2-0.7-1.2l-1-2.1l1.8,1.4c0,0,0.4,0.3,1,0.8c0.2,0.2,0.4,0.3,0.6,0.5c0.2,0.1,0.4,0.3,0.6,0.4l0.4,0.3
			c0.4,0.3,0.7,0.6,1.2,0.8c0.6,0.4,1.2,0.9,1.9,1.3c0.2,0.1,0.5,0.3,0.7,0.5c0.5,0.3,0.9,0.6,1.4,1c0.7,0.6,1.5,1.1,2.4,1.6
			c0.7,0.5,1.4,1,2.2,1.5c0.7,0.6,1.5,1.1,2.3,1.6c0.5,0.3,1,0.7,1.5,1c0.3,0.2,0.5,0.4,0.8,0.5c0.4,0.3,0.7,0.5,1.1,0.8
			c0.3,0.2,0.6,0.5,1,0.7c0.7,0.5,1.3,0.9,1.9,1.3c2.3,1.7,3.7,3,3.8,3L815.3,752.5z M790.9,735.9L790.9,735.9
			c0.3,0.4,0.7,0.9,1.1,1.3c0.5,0.5,1,1.1,1.6,1.7c0.5,0.5,1.2,1.1,1.9,1.7l0.5,0.5c0.5,0.4,1,0.9,1.6,1.3l2.3,1.7
			c0.8,0.6,1.6,1.1,2.3,1.5c0.5,0.3,1,0.6,1.6,0.9c0.3,0.2,0.6,0.3,0.8,0.5c1.3,0.8,2.6,1.4,4.3,2.2c0.6,0.3,1.1,0.5,1.6,0.7
			c-0.4-0.3-0.9-0.7-1.4-1.1c-0.6-0.4-1.2-0.9-1.9-1.3c-0.3-0.2-0.7-0.5-1-0.7c-0.3-0.3-0.7-0.5-1.1-0.8c-0.3-0.2-0.5-0.4-0.8-0.6
			c-0.5-0.3-0.9-0.7-1.4-1c-0.8-0.5-1.6-1-2.3-1.6c-0.7-0.5-1.4-1-2.1-1.5c-0.8-0.6-1.6-1.1-2.4-1.7c-0.4-0.3-0.9-0.6-1.3-0.9
			c-0.2-0.2-0.5-0.3-0.7-0.5c-0.6-0.5-1.3-0.9-1.8-1.3c-0.4-0.3-0.8-0.6-1.2-0.9L790.9,735.9z"/>
		<path clip-path="url(#SVGID_2_)" fill="#723516" d="M780.8,666.9c0,0-4.7,0-8.4,3.9c-3.7,3.9-15.2-3.4-15.8-6
			c-0.5-2.6-4-5.3,19.3-13.5c23.3-8.2,26.6-11.9-0.4-9.1c-27,2.9-32.7,1.2-22-7.1c10.7-8.3,25-12.8,33-11.8c8,1,8.5-5.4,7.4-9.9
			c-1.1-4.5-5.2-12.1,6.1-15.2c11.3-3.1,19.2,12.8,20.2,15.9c1,3.1,6.2,14.6,7.4-7.6c1.2-22.2,19.6-13.8,22.9,1.6
			c3.3,15.4,3.7,24.7,8.2,3.3c4.5-21.4,21.2-7.8,23.9-4.1c2.7,3.7,8.2,14.1,7.8,25.2c-0.4,11.1,16.9,31,19.6,24.4
			c2.7-6.6,2.1-8,7.8-7.6c5.8,0.4,15.2,15.2,2.3,30.5c-13,15.2,2.3,8,6.5,6.4c4.2-1.6,12.2-6.2,21.1,4.5c8.9,10.7-5.8,16.5-5.8,16.5
			s-21.8,4.1,1.9,9.5c23.7,5.4,28.2,19.4,20,22.7c-8.2,3.3-18.7,0-18.7,0s-18.3-3.3,4.9,9.1s44.1,34.2,5.1,21.5
			c-38.9-12.7-2.7,6.9-2.7,6.9s31.1,38.9-14.8,10.4c0,0-17.7-13.9-6,13.5c11.7,27.4-16.3,7.2-16.3,7.2L872.5,719l-71.6-54.2
			L780.8,666.9z"/>
		<path clip-path="url(#SVGID_2_)" fill="#231F20" d="M930.8,816.2c-5.9,0-15.8-7.1-16.2-7.4l-0.3-0.2l-0.1-0.3l-42.7-88.5l-71-53.7
			l-19.6,2.1c0,0-4.3,0.1-7.5,3.5c-1,1-2.3,1.5-4,1.5c-5.2,0-13.3-5.2-13.9-8.1c0-0.2-0.1-0.4-0.2-0.6c-1.1-3.8-0.4-7,20.2-14.3
			c12.3-4.3,16.1-6.5,17.4-7.4c-0.6-0.1-1.7-0.2-3.6-0.2c-3.1,0-7.7,0.3-13.7,1c-8.2,0.9-14.3,1.3-18.6,1.3c-6.1,0-9.1-0.9-9.8-2.9
			c-0.7-2,0.9-4.3,5.4-7.7c9.3-7.2,22.2-12.2,31.4-12.2c0.9,0,1.8,0.1,2.6,0.2c2.5,0.3,4.4-0.2,5.4-1.4c1.1-1.4,1.4-4,0.7-6.9
			c-0.1-0.6-0.3-1.2-0.5-1.8c-0.9-2.9-2-6.6-0.2-9.8c1.3-2.3,3.8-4,7.7-5c1.1-0.3,2.2-0.4,3.2-0.4c10.5,0,17.3,13.7,18.4,17.1
			c0.8,2.5,2.2,4.8,2.8,4.9c0,0,1.6-1,2.2-12.2c0.7-13.3,7.2-14.7,9.9-14.7c6.6,0,13.5,7.3,15.4,16.2c0.5,2.2,0.9,4.2,1.2,6.1
			c0.6,3.2,1.3,6.4,1.8,8c0.6-1.4,1.4-4.4,2.8-10.8c2.2-10.5,7.4-12.8,11.3-12.8c6.7,0,13.2,6.1,14.8,8.2c3,4.1,8.5,14.8,8.1,26
			c-0.2,5.9,5.1,14.9,10.3,20.2c3,3.1,5.2,4.2,6.2,4.2c0.3,0,0.5,0,0.7-0.5c0.4-1.1,0.8-2,1.1-2.8c1.4-3.8,2.1-5.7,6.3-5.7
			c0.5,0,1,0,1.7,0.1c3.1,0.2,6.5,3.4,8.4,7.9c1.6,3.7,4.2,13.5-5.3,24.6c-4.7,5.5-4.8,7.2-4.8,7.5c0,0,0.2,0,0.5,0
			c2,0,5.8-1.6,8.1-2.5c0.5-0.2,0.9-0.4,1.3-0.5c0.3-0.1,0.6-0.3,1-0.4c2.1-0.9,4.9-2,8.2-2c4.8,0,9.2,2.5,13.2,7.3
			c2.7,3.3,3.7,6.5,2.9,9.5c-1.5,5.8-8.8,8.8-9.1,8.9l-0.2,0.1c-4.4,0.8-8,2.4-8.2,3.2c0,0,0.4,1.7,10.1,3.9
			c16.4,3.7,24.2,11.7,24.7,17.9c0.3,3.2-1.4,5.9-4.5,7.1c-2.6,1-5.6,1.6-9,1.6c-5.3,0-9.8-1.3-10.5-1.5c-0.4-0.1-2.2-0.4-3.8-0.4
			c-0.6,0-1,0-1.3,0.1c0.6,0.8,2.9,2.8,10.9,7c12,6.4,28.9,18.6,27.4,24.8c-0.5,1.9-2.3,2.9-5.6,2.9c-3.8,0-9.7-1.3-17.6-3.9
			c-9.5-3.1-13.8-4-15.7-4.2c2.1,2,8.4,5.8,14,8.8l0.2,0.1l0.2,0.2c2.1,2.6,12.5,16.1,10.2,21c-0.4,0.9-1.4,1.9-3.6,1.9
			c-4,0-11.5-3.5-23.1-10.6l-0.1-0.1c-1.2-0.9-4.6-3.3-6.7-3.3c-0.6,0-0.8,0.2-0.9,0.4c-0.5,0.8-1.2,3.8,3.6,14.9
			c3.1,7.2,3.8,11.7,2.1,14.2C934.2,815.1,933.1,816.2,930.8,816.2z M916.3,807c2.9,2,10.4,6.7,14.5,6.7c1.3,0,1.7-0.5,2-0.8
			c0.6-0.9,1.2-3.7-2.3-11.8c-5.2-12.1-4.4-15.6-3.4-17.2c0.5-0.7,1.4-1.5,3-1.5c3.2,0,7.5,3.2,8.2,3.7
			c13.6,8.5,19.3,10.2,21.7,10.2c1.1,0,1.3-0.4,1.3-0.5c1.1-2.3-4.2-11.1-9.7-18.1c-16.5-8.9-15.9-11.1-15.7-12
			c0.2-0.6,0.7-1.4,2.5-1.4c2.5,0,8.1,1.4,17.1,4.3c7.7,2.5,13.4,3.8,16.9,3.8c1.8,0,3-0.4,3.2-1c0.8-3.2-11.1-14-26.2-22
			c-12.1-6.4-12.8-8.5-12.4-10c0.4-1.8,3-1.8,3.9-1.8c2,0,4.3,0.4,4.3,0.4l0.2,0c0,0,4.6,1.4,9.9,1.4c3.1,0,5.8-0.5,8.1-1.4
			c2.1-0.8,3.2-2.5,3-4.6c-0.4-5.2-7.7-12.3-22.8-15.7c-8.4-1.9-12-3.8-12-6.3c0.1-3.3,6.9-5,10.1-5.6c0.8-0.3,6.5-2.9,7.5-7.2
			c0.6-2.3-0.2-4.7-2.4-7.3c-3.6-4.3-7.3-6.4-11.3-6.4c-2.8,0-5.3,1-7.3,1.9c-0.4,0.2-0.7,0.3-1.1,0.4c-0.3,0.1-0.8,0.3-1.3,0.5
			c-2.6,1.1-6.6,2.7-9.1,2.7c-1.7,0-2.4-0.8-2.7-1.4c-0.6-1.3-0.4-3.5,5.2-10.1c8.5-10,6.2-18.7,4.9-22c-1.7-4-4.5-6.3-6.3-6.4
			c-0.6,0-1-0.1-1.5-0.1c-2.5,0-2.7,0.5-4,4.1c-0.3,0.8-0.7,1.8-1.1,2.9c-0.5,1.3-1.6,2.1-3,2.1c-2.6,0-5.8-2.7-8-5
			c-5.7-5.9-11.3-15.3-11-22c0.4-10.5-4.8-20.5-7.6-24.4c-1.5-2-7.4-7.2-12.8-7.2c-4.4,0-7.4,3.6-8.9,10.8
			c-2.6,12.2-3.6,13.5-5.3,13.5c-2,0-2.6-2.9-4.2-10.8c-0.4-1.8-0.8-3.9-1.2-6c-1.8-8.5-8.2-14.2-13-14.2c-4.3,0-7,4.5-7.5,12.4
			c-0.6,10.3-1.9,14.5-4.7,14.5c-2.7,0-4.6-5-5.1-6.6c-0.8-2.4-7.2-15.4-16.1-15.4c-0.9,0-1.7,0.1-2.6,0.4c-3.2,0.9-5.2,2.2-6.2,3.8
			c-1.3,2.3-0.4,5.3,0.4,7.9c0.2,0.7,0.4,1.4,0.6,2c0.4,1.8,1.1,6.1-1.1,9c-1.6,2-4.2,2.8-7.6,2.4c-0.7-0.1-1.4-0.1-2.3-0.1
			c-7.1,0-19.5,3.7-29.8,11.7c-4.9,3.8-4.6,4.9-4.6,5c0,0.1,0.5,1.2,7.4,1.2c4.2,0,10.2-0.4,18.3-1.3c6.1-0.6,10.7-1,13.9-1
			c3.7,0,6.2,0.4,6.5,2.1c0.3,1.8-1,3.7-19.4,10.3c-20,7.1-19.2,9.7-18.7,11.3c0.1,0.3,0.2,0.6,0.2,0.9c0.4,1.4,7.1,6.2,11.5,6.2
			c1,0,1.7-0.2,2.2-0.7c3.8-4,8.6-4.3,9.3-4.3l20.4-2.2l72.3,54.7l0.1,0.3L916.3,807z"/>
		<path clip-path="url(#SVGID_2_)" fill="#F8951D" d="M871.2,677.1c0,0-8.6,1-1.6-11.1c7-12.1,12.4-33.4,13.4-38.7
			c1-5.4,8-16.7,15.6-9.9c7.6,6.8,13.2,19.6,7.8,32.3C901,662.5,901.4,665.6,871.2,677.1z"/>
		<path clip-path="url(#SVGID_2_)" fill="#231F20" d="M870.7,678.4c-2,0-3.7-0.8-4.5-2.3c-1.3-2.3-0.6-5.8,2.3-10.7
			c6.7-11.7,12.1-32.2,13.2-38.3c0.9-4.7,5.7-13,12-13c2,0,3.9,0.8,5.7,2.4c8.1,7.2,13.7,20.4,8.1,33.7c-0.3,0.8-0.6,1.5-0.9,2.3
			c-4.5,11.1-6.1,14.8-35,25.8l-0.3,0.1C871.3,678.4,871.1,678.4,870.7,678.4z M893.7,616.5c-4.6,0-8.8,7.1-9.6,11
			c-1.2,6.3-6.6,27.2-13.5,39.1c-3.1,5.3-2.7,7.5-2.3,8.3c0.5,0.9,1.8,1,2.4,1l0.2,0c27.7-10.6,29.1-13.8,33.4-24.4
			c0.3-0.7,0.6-1.5,0.9-2.3c5.1-12.2-0.1-24.3-7.5-30.9C896.4,617.2,895,616.5,893.7,616.5z"/>
		<path clip-path="url(#SVGID_2_)" fill="#723516" d="M876.6,668c0,0-3.7-0.3,0.8-6.2c4.5-5.8,9.6-16.7,10.7-19.5
			c1.1-2.8,5.6-8.2,7.8-3.7c2.3,4.5,2.8,11.9-1.1,18.2C891,663.2,890.7,664.9,876.6,668z"/>
		<path clip-path="url(#SVGID_2_)" fill="#231F20" d="M876.7,669.2l-0.2,0c-0.2,0-1.7-0.2-2.3-1.7c-0.7-1.5,0.1-3.7,2.3-6.5
			c4.3-5.6,9.3-16,10.6-19.2c0.9-2.2,3.8-6.2,6.7-6.2c1,0,2.3,0.4,3.3,2.4c2.4,4.8,3,12.7-1.1,19.4l-0.7,1.1
			c-3.7,6-5.2,7.7-18.4,10.6L876.7,669.2z M893.8,638.2c-1.3,0-3.6,2.6-4.5,4.6c-1.3,3.3-6.4,14-10.9,19.8c-2.3,3-2,4-2,4l0.2,0.1
			c12.5-2.8,13.3-4.2,16.5-9.4l0.7-1.1c3.7-5.9,3.1-13,1-17C894.4,638.2,893.9,638.2,893.8,638.2z"/>
		
			<ellipse transform="matrix(0.6358 0.7719 -0.7719 0.6358 807.4185 -369.2274)" clip-path="url(#SVGID_2_)" fill="#FFFFFF" cx="794.9" cy="670.9" rx="10.7" ry="15.9"/>
		<path clip-path="url(#SVGID_2_)" fill="#231F20" d="M789.8,685.2c-3.4,0-6.2-1.2-8-3.4c-2.1-2.5-2.6-6.1-1.5-9.9
			c1.1-3.7,3.6-7.3,7.1-10.2c3.9-3.2,8.5-5.1,12.7-5.1c3.4,0,6.2,1.2,8,3.4c4.2,5.1,1.7,14.1-5.6,20.1
			C798.6,683.4,794,685.2,789.8,685.2z M800.1,659.1c-3.6,0-7.7,1.6-11.2,4.5c-3.1,2.5-5.3,5.7-6.3,8.9c-0.9,3.1-0.6,5.8,1,7.7
			c1.7,2.1,4.3,2.5,6.1,2.5c3.6,0,7.7-1.6,11.2-4.5c6.2-5.1,8.6-12.6,5.3-16.6C804.5,659.6,802,659.1,800.1,659.1z"/>
		<circle clip-path="url(#SVGID_2_)" fill="#231F20" cx="791.4" cy="674.4" r="3.5"/>
		
			<ellipse transform="matrix(0.925 -0.3801 0.3801 0.925 -195.6422 363.4794)" clip-path="url(#SVGID_2_)" fill="#FFFFFF" cx="822.6" cy="677.2" rx="21.7" ry="13"/>
		<path clip-path="url(#SVGID_2_)" fill="#231F20" d="M815.3,693c-6.9,0-12.1-2.6-13.9-7.1c-1.5-3.6-0.6-7.9,2.5-12.1
			c3-4,7.7-7.5,13.3-9.8c4.2-1.7,8.6-2.7,12.7-2.7c6.9,0,12.1,2.6,13.9,7.1c1.5,3.6,0.6,7.9-2.5,12.1c-3,4-7.7,7.5-13.3,9.8
			C823.8,692,819.4,693,815.3,693z M829.9,663.8c-3.8,0-7.8,0.9-11.8,2.5c-5.2,2.1-9.5,5.3-12.2,8.9c-2.6,3.5-3.4,6.9-2.2,9.7
			c1.4,3.5,5.8,5.5,11.6,5.5c3.8,0,7.8-0.9,11.8-2.5c5.2-2.1,9.5-5.3,12.2-8.9c2.6-3.5,3.4-6.9,2.2-9.7
			C840.1,665.9,835.8,663.8,829.9,663.8z"/>
		<ellipse clip-path="url(#SVGID_2_)" fill="#231F20" cx="813.4" cy="679" rx="4.7" ry="4"/>
		<ellipse clip-path="url(#SVGID_2_)" fill="#F8951D" cx="737.2" cy="756.5" rx="11.1" ry="15.1"/>
		<path clip-path="url(#SVGID_2_)" fill="#231F20" d="M737.2,772.9c-6.8,0-12.4-7.3-12.4-16.4s5.5-16.4,12.4-16.4
			c6.8,0,12.4,7.3,12.4,16.4S744.1,772.9,737.2,772.9z M737.2,742.6c-5.4,0-9.9,6.2-9.9,13.9c0,7.7,4.4,13.9,9.9,13.9
			s9.9-6.2,9.9-13.9C747.1,748.8,742.7,742.6,737.2,742.6z"/>
		<ellipse clip-path="url(#SVGID_2_)" fill="#FFFFFF" cx="941.6" cy="453.6" rx="13.1" ry="32.9"/>
		<path clip-path="url(#SVGID_2_)" fill="#231F20" d="M941.6,487.7c-8.1,0-14.4-15-14.4-34.1c0-19.1,6.3-34.1,14.4-34.1
			c8.1,0,14.4,15,14.4,34.1C956,472.7,949.7,487.7,941.6,487.7z M941.6,422c-5.7,0-11.9,12.7-11.9,31.6c0,18.9,6.2,31.6,11.9,31.6
			c5.7,0,11.9-12.7,11.9-31.6C953.5,434.7,947.4,422,941.6,422z"/>
		
			<ellipse transform="matrix(0.997 -7.718801e-02 7.718801e-02 0.997 -32.8874 72.2983)" clip-path="url(#SVGID_2_)" fill="#FFFFFF" cx="918.8" cy="461.6" rx="14.7" ry="34.6"/>
		<path clip-path="url(#SVGID_2_)" fill="#231F20" d="M921,497.4c-8.6,0-16.5-15.2-18-34.6c-0.7-9.4,0.1-18.3,2.5-25.2
			c2.4-7.2,6.2-11.4,10.6-11.8c8.8-0.7,17.1,14.7,18.6,34.5c1.6,20.1-4.2,36.3-13.1,37C921.4,497.4,921.2,497.4,921,497.4z
			 M916.6,428.3c-0.1,0-0.3,0-0.4,0c-3.3,0.3-6.4,3.9-8.5,10.1c-2.2,6.6-3,15.2-2.3,24.3c1.4,18.1,8.6,32.8,16,32.3
			c7.3-0.6,12.2-16.3,10.8-34.3C930.8,442.7,923.8,428.3,916.6,428.3z"/>
		<path clip-path="url(#SVGID_2_)" fill="#231F20" d="M914.5,461.9c-23.2,0-45.1-13.5-46.2-14.2c-0.9-0.5-1.1-1.7-0.6-2.6
			c0.5-0.9,1.7-1.1,2.6-0.6c0.3,0.2,31.6,19.5,57.7,11.8c11.6-3.4,20.6-11.8,26.7-24.8c0.4-0.9,1.5-1.3,2.5-0.9
			c0.9,0.4,1.3,1.5,0.9,2.5c-6.6,14-16.3,23.1-29,26.8C924.2,461.3,919.3,461.9,914.5,461.9z"/>
		<ellipse clip-path="url(#SVGID_2_)" fill="#231F20" cx="925.3" cy="465.9" rx="4" ry="7.5"/>
		<ellipse clip-path="url(#SVGID_2_)" fill="#231F20" cx="946.6" cy="453.7" rx="4" ry="7.5"/>
	</g>
	<path fill="#231F20" d="M284.1,650.7l3.5,3.9c0,0,5,7.8,10.7,5.7c6.1-2.3,10.4,6.2,10.8,10.6c0.4,4.4,0.5,20.1-0.9,27.1
		c-1.4,7-15.3,18.1-24.5,6.8c-9.2-11.3-26.6-33-26.6-33s-2-2.5-7.5-4.5c-4.2-1.5-11.7-3.9-10.3-17.2c0.6-6.6-3.7-29.2-7.4-34.6
		c-3.7-5.4-20.8-42.2-20.8-42.2s-4.5-9-3-15.7c1.6-7.2,14.5-13.1,14.5-13.1s10.3-3.9,15.8,8.6c5.5,12.6,22.2,51.9,22.2,51.9
		s1.6,5,11.3-1.5c9.8-6.5,34.6-25.6,34.6-25.6s-6.3-4.1-9.9-11.5c-3.6-7.4-17.6-34.5-17.6-34.5s-10.4-9.4-0.7-29
		c11.2-22.7,26.3,3.4,26.3,3.4l26.2,58.2c0,0,4.5,8,9.8,15.8c4.6,6.7-1.1,15.8,4,24.5c7,12,24.1,62.1,24.1,62.1s7.2,19.8-10,23.9
		c-10.7,2.6-14.2-4.2-15.2-5.9c-1-1.6-28.7-69.4-28.7-69.4s-2.9-7.2-11.1,0.5C295.3,623.5,277.7,638.5,284.1,650.7z"/>
	<path fill="#FF9A1E" d="M289.1,700.8c-3,0-7.7-1.3-12.7-7.4c-9.1-11.2-19.5-24.3-19.6-24.4c0,0-5.7-6-9.4-8.8
		c-4.5-3.3-6.8-8.1-6.9-14.4c-0.1-6.4-7.2-24.2-10.6-29.2c-3.7-5.4-21.7-40.7-22.4-42.3c-0.2-0.5-4.7-10.6,0.2-16.4
		c4.5-5.3,8.9-8.5,9.1-8.6c0.2-0.1,1.3-0.8,3.1-0.8c2.7,0,6.7,1.7,10.2,9.9c5.4,12.4,22.1,51.5,22.2,51.9c0.1,0.3,0.8,1.9,3.2,1.9
		c1.8,0,4.2-0.9,6.9-2.8c9.6-6.4,33.6-26.5,33.9-26.7c0.2-0.1,3.2-2.5,0.1-8.8c-3.5-7.1-16.8-33-17.6-34.4c-0.7-1-6.9-11.4-1.2-32.2
		c1.7-6,3.9-8.9,7-8.9c6.1,0,11.7,13.5,12.3,15l25.6,56.2v0c0,0,3.3,5.7,5.9,9c2.6,3.4,3,7.2,3.8,15.6l0.3,2.7
		c1,9.8,25.7,66.6,26,67.2c1.7,3.7,3.1,11.9-3.3,16.5c-1.6,1.1-3.2,1.7-4.8,1.7c-5.5,0-8.9-6.3-9.5-7.6
		c-0.9-1.8-29.9-69.1-31.1-71.9c0-0.1-1-2.3-3.2-2.3c-1.6,0-3.7,1.1-5.9,3.2l-0.1,0.1c-29.4,27.5-32.5,39.5-29.8,44.7l15.2,20.5
		c0.4,0.4,1.5,1.4,2.3,1.4c0.7,0,1.2-1.1,1.5-3.1c0.7-4.3,2.9-4.8,3.8-4.8c2.3,0,4.5,2.6,4.8,5.8c0.1,0.7,0.2,1.5,0.3,2.5
		c0.6,5.9,1.7,15.7,0.4,21.9C297.9,697.5,293.9,700.8,289.1,700.8z"/>
	<path fill="#231F20" d="M284.6,499.8c5.4,0,11.2,14.2,11.2,14.2l25.6,56.3c0,0,3.4,5.9,6.1,9.3c2.7,3.4,2.8,7.6,3.8,17.6
		c1,10.1,26,67.5,26,67.5s4.4,9.8-2.9,15c-1.5,1-2.8,1.5-4.1,1.5c-4.2,0-7.3-4.7-8.4-6.9c-0.9-1.7-31.1-71.9-31.1-71.9
		s-1.2-3.1-4.3-3.1c-1.7,0-3.9,0.9-6.8,3.6c-8.2,7.7-36.5,34.2-30.2,46.3l15.2,20.6c0,0,1.7,1.9,3.3,1.9c1.1,0,2.2-0.9,2.7-4.1
		c0.4-2.7,1.5-3.7,2.6-3.7c1.6,0,3.3,2.1,3.5,4.7c0.4,4.4,2.2,17,0.7,24c-0.8,3.9-4.2,7-8.6,7c-3.5,0-7.7-1.9-11.7-7
		c-9.2-11.3-19.6-24.4-19.6-24.4s-5.8-6.1-9.7-9c-3.6-2.7-6.3-6.8-6.4-13.4c-0.1-6.6-7.1-24.5-10.8-29.9
		c-3.7-5.4-22.3-42.1-22.3-42.1s-4.4-9.8,0-15c4.4-5.3,8.9-8.4,8.9-8.4s0.9-0.6,2.3-0.6c2.2,0,5.8,1.5,9.1,9.2
		c5.5,12.6,22.2,51.9,22.2,51.9s0.9,2.7,4.3,2.7c1.8,0,4.2-0.7,7.6-3c9.8-6.5,34-26.8,34-26.8s4-2.9,0.4-10.3
		c-3.6-7.4-17.6-34.5-17.6-34.5s-6.9-10.1-1-31.2C280.4,501.9,282.5,499.8,284.6,499.8 M284.6,497.3c-5.4,0-7.5,7.4-8.1,9.8
		c-5.8,20.8,0.4,31.6,1.3,33.1c1,1.9,14.1,27.3,17.5,34.3c2.4,5,0.6,7,0.3,7.2l-0.1,0.1l0,0c-0.2,0.2-24.2,20.3-33.8,26.6
		c-3.2,2.1-5.2,2.6-6.2,2.6c-1.4,0-1.9-0.7-2-1l0-0.1l0,0c-0.2-0.4-16.8-39.5-22.2-51.9c-3.8-8.8-8.3-10.6-11.4-10.6
		c-2.1,0-3.5,0.9-3.7,1l0,0l0,0c-0.2,0.1-4.7,3.4-9.3,8.9c-5.4,6.4-0.6,17.2-0.4,17.6l0,0l0,0c0.8,1.5,18.8,37,22.5,42.4
		c3.7,5.3,10.3,22.7,10.4,28.5c0.1,6.6,2.6,11.8,7.4,15.3c3.5,2.6,8.6,7.9,9.3,8.6c0.9,1.1,10.8,13.6,19.5,24.3
		c5.3,6.5,10.3,7.9,13.6,7.9c5.4,0,9.9-3.7,11-8.9c1.3-6.3,0.2-16.3-0.4-22.3c-0.1-1-0.2-1.8-0.3-2.5c-0.4-3.8-3-6.9-6-6.9
		c-1,0-4.2,0.4-5.1,5.8c-0.2,1.1-0.4,1.6-0.5,1.9c-0.3-0.2-0.9-0.6-1.2-0.9l-15-20.3c-1.9-4-0.5-14.9,29.6-43.1l0.1-0.1
		c2.7-2.5,4.3-2.9,5.1-2.9c1.4,0,2,1.5,2.1,1.5l0,0l0,0c3.1,7.2,30.3,70.2,31.1,72c0.7,1.4,4.4,8.3,10.6,8.3c1.9,0,3.8-0.7,5.6-1.9
		c7.1-5.1,5.5-14,3.7-18.1c-6.9-15.8-25.1-58.8-25.8-66.8c-0.1-0.9-0.2-1.8-0.3-2.7c-0.8-8.4-1.2-12.6-4.1-16.2
		c-2.3-3-5.4-8.1-5.8-8.9L298,513C296.5,509.3,291.1,497.3,284.6,497.3z"/>
	<path fill="#231F20" d="M419,503.9c0,0-17.6-5.4-27.2,14.1c-9.7,19.5-16.6,42.3-16.6,42.3s-1.9,4.8-1.6,10.4
		c0.3,5.6-4.6,13.5-5.3,16c-0.6,2.5-1.1,9.1,2.4,14.5c3.4,5.5,6.8,17,11.8,28.2c5.1,11.2,22.8,2.3,27.5-4.2c7-9.8,12-33.9,12-33.9
		s3.4-5.4,7,0.6c3.5,6,18.8,11,34.3-8.7c4.6-5.9,4.3-15.3,4.3-15.3s1.8-9.5,5.3-2.3c3.4,7.2,8.1,9.3,14,12.5
		c5.9,3.2,21.3,2.8,26.6-5.4c5.4-8.1,4.3-15.1,4.3-15.1s-0.9-7.1,3.4-1.1c4.3,6,17.8,6.7,27.4-8.3c8.5-13.1,9.1-23.4,17.5-15.5
		c8.4,7.9,26-12.8,30-18.3c4.1-5.6,6.1-18,2.7-25c-3.4-7-9.6-14.5-17.1-6.1c-7.5,8.4-6,14-6.9,3.9c-0.9-10.1-1.9-19.9-13.5-20.3
		c-11.6-0.4-23.2,6.5-23.7,14.1c-0.5,7.6,13.3,22.3,7.7,31.2c0,0-7.7,13.4-9.9-2.2c-2.2-15.6-4.3-37-13.7-36.4
		c-9.5,0.5-20.1-1.1-20.2,26.6c-0.1,27.7-4.2,36.4-5.9,18.7c-1.7-18.5-5.7-23.9-5.7-23.9s-6.1-10.2-13.5-9
		c-7.4,1.2-18.1,6.1-19.8,25.9c-1.7,19.8-5.3,60.3-16.1,36.1s-26.5-2.6-19-20.2C426,516.9,427.7,507.5,419,503.9z"/>
	<path fill="#FF9A1E" d="M408.6,509.9c0,0-9.2-6.7-18.4,12.8c-9.3,19.5-18.1,41.6-18.1,41.6s-1.9,4.8-1.5,10.4
		c0.3,5.6-4.4,13.5-5,16c-0.6,2.5-1,9.1,2.3,14.5c3.3,5.5,5.4,4,10.2,15.2c4.8,11.2,20.7,1,23.5-6.5c2.8-7.5,11.5-33.9,11.5-33.9
		s3.3-5.4,6.7,0.6c3.4,6,24.6,13.4,34-9.7c9.4-23.1,7.5-17.4,7.5-17.4s3.5-9.7,6.8-2.5c3.3,7.2,7.6,13.6,13.3,16.8
		c5.7,3.2,17.9-0.2,23.1-8.3c5.1-8.1,4.9-15.1,4.9-15.1s-0.8-7.1,3.3-1.1c4.1,6,20.6,11.4,28-4.6c7.4-16.1,6.4-25.3,14.4-17.4
		c8,7.9,23.4-4.1,27.3-9.7c3.9-5.6,7.3-11.2,4-18.2c-3.3-7-3.6-9-10.8-0.5c-7.2,8.4-11.3,8.4-12.1-1.6c-0.8-10.1-1.9-19.9-13-20.3
		c-11.1-0.4-13,8.1-13.5,15.8c-0.5,7.6,3.5,20.7-1.9,29.5c0,0-10.6,18.4-12.7,2.8c-2.1-15.6,0.6-40.9-8.4-40.4
		c-9.1,0.5-15.2,4.8-15.3,32.5c-0.1,27.7-8.3,44.2-13.4,27.2c-5-17-6.6-28.4-6.6-28.4s-2.6-18.7-9.7-17.5
		c-7.1,1.2-11.6,7.7-13.3,27.5c-1.6,19.8-16.1,58.2-26.5,34c-10.4-24.2-23.4-4.5-28.2,17.1c-4.8,21.6-12.3,26.4-8.2,7.7
		C396.7,560,417.3,517.7,408.6,509.9z"/>
	<path fill="#231F20" d="M385.1,626.6c-2.7,0-6.3-1-8.4-5.7c-3-6.9-4.8-8.8-6.6-10.7c-1.1-1.1-2.2-2.3-3.5-4.4
		c-3.3-5.4-3.2-12.2-2.4-15.5c0.2-0.8,0.8-2.1,1.5-3.6c1.5-3.3,3.8-8.4,3.6-12c-0.3-5.8,1.5-10.7,1.6-10.9c0.1-0.2,9-22.4,18.2-41.7
		c9.8-20.6,20.1-13.4,20.3-13.2l0.1,0.1c6.5,5.8-0.9,26.5-8,46.5c-3.2,9-6.2,17.5-7.5,23.5c-1.4,6.6-1.2,9.1-1,9.9
		c1.1-1.1,4.1-6.3,6.8-18.2c3.3-14.5,10.3-29.2,18.8-29.2c4.4,0,8.4,4,11.8,11.9c1.4,3.2,3.6,7,6.4,7h0c7.6,0,16.5-25.3,17.7-40.6
		c1.6-18.8,5.7-27.1,14.3-28.6c0.3-0.1,0.6-0.1,0.9-0.1c7.5,0,10,16.7,10.2,18.6c0,0.1,1.6,11.5,6.5,28.2c1.3,4.4,2.7,6,3.6,6
		c2.5,0,7.3-11.3,7.4-32.8c0.1-27.5,6.1-33.2,16.5-33.8c7.7-0.4,8.2,12.7,8.8,26.6c0.2,5.1,0.4,10.4,1,14.8c0.4,3.3,1.3,5.2,2.4,5.2
		c2.1,0,6-4.9,8-8.5c3.5-5.8,2.8-13.6,2.1-20.5c-0.3-3.1-0.6-6.1-0.4-8.5c0.3-5.2,1.1-17.4,14.8-16.9c12.4,0.5,13.4,12.1,14.2,21.4
		c0.2,2.5,0.8,6.7,2.7,6.7c0.9,0,3-0.7,7.3-5.7c3.9-4.5,5.7-6,7.5-6c2.2,0,3.3,2.3,4.9,5.8l0.5,1c3.5,7.5,0.1,13.5-4.1,19.5
		c-3.2,4.6-13.2,12.8-21.7,12.8c-3,0-5.5-1-7.5-3c-2.1-2.1-3.2-2.5-3.7-2.5c-1.3,0-2.5,3.4-4,7.6c-1.2,3.3-2.6,7.3-4.7,11.9
		c-4.5,9.8-12,11.3-16,11.3c-6.3,0-11.9-3.3-14.1-6.5c-0.5-0.7-0.8-1.1-1.1-1.4c0,0.5,0,1.1,0,1.7c0,0.4,0.2,7.6-5.1,15.9
		c-4.2,6.6-12.6,10.1-18.8,10.1c-2.3,0-4.3-0.5-5.9-1.3c-5.2-3-9.9-8.8-13.8-17.3c-0.7-1.5-1.3-1.9-1.5-1.9c-0.8,0-2.3,2.3-3,4.3
		l-0.2-0.1c-0.4,0.9-2,4.3-7.4,17.5c-5.8,14.4-15.8,16.5-21.2,16.5c-7,0-13.1-3.4-15-6.7c-0.8-1.4-1.7-2.2-2.4-2.2
		c-0.9,0-1.8,1-2.1,1.5c-0.7,2.2-8.8,26.6-11.5,33.8C400.5,619.8,392.1,626.6,385.1,626.6z M404.7,510c-3.2,0-8.2,2.3-13.4,13.2
		c-9.1,19.2-18,41.3-18.1,41.5c0,0-1.7,4.7-1.5,9.9c0.2,4.2-2.1,9.4-3.8,13.1c-0.6,1.4-1.2,2.6-1.3,3.2c-0.5,2-1.1,8.3,2.1,13.6
		c1.1,1.9,2.1,2.9,3.1,3.9c2,2,4,4.1,7.1,11.4c1.2,2.8,3.3,4.2,6.1,4.2c5.9,0,13.4-6,15.1-10.7c2.7-7.4,11.4-33.6,11.5-33.8l0.1-0.3
		c0.2-0.3,1.8-2.8,4.3-2.8c1.7,0,3.2,1.2,4.5,3.4c1.3,2.3,6.5,5.4,12.9,5.4c4.8,0,13.6-1.9,18.9-15c5.4-13.4,7-17.2,7.9-18.3
		c0.8-1.8,2.5-5,4.9-5c1.5,0,2.7,1.1,3.8,3.4c3.7,8.1,8,13.5,12.8,16.2c1.2,0.7,2.8,1,4.7,1c5.5,0,13-3.1,16.7-9
		c4.9-7.7,4.8-14.4,4.8-14.4c-0.1-0.8-0.3-3.1,0.7-4.2c0.4-0.4,0.8-0.6,1.3-0.6c1.1,0,2.1,0.9,3.5,2.9c1.8,2.6,6.7,5.4,12.1,5.4
		c4.2,0,10-1.7,13.8-9.9c2.1-4.5,3.5-8.5,4.6-11.7c2.1-5.8,3.3-9.3,6.3-9.3c1.5,0,3.2,1,5.5,3.2c1.5,1.5,3.5,2.3,5.8,2.3
		c7.5,0,16.7-7.7,19.6-11.8c3.9-5.5,6.9-10.6,3.9-17l-0.5-1c-1-2.1-2-4.3-2.7-4.3c-1.2,0-4.4,3.7-5.6,5.1c-3.8,4.5-6.7,6.6-9.1,6.6
		c-4.5,0-5-6.7-5.2-8.9c-0.9-11.3-2.2-18.8-11.8-19.1c-9.8-0.4-11.7,6.8-12.2,14.6c-0.2,2.3,0.1,5.1,0.4,8.1
		c0.7,7.3,1.5,15.5-2.4,22c-0.9,1.6-5.8,9.7-10.1,9.7h0c-2.6,0-4.2-2.5-4.8-7.4c-0.6-4.5-0.8-9.9-1-15.1
		c-0.4-11.4-0.9-24.2-5.9-24.2l-0.2,0c-7.7,0.4-14.1,3.1-14.2,31.3c-0.1,17.1-3.5,35.3-9.9,35.3c-2.4,0-4.4-2.5-5.9-7.8
		c-5-16.9-6.6-28.5-6.6-28.6c-0.9-6.4-3.8-16.5-7.8-16.5c-0.1,0-0.3,0-0.5,0c-5.3,0.9-10.5,4.8-12.3,26.4
		c-1.2,14.7-10,42.9-20.2,42.9h0c-3.3,0-6.2-2.9-8.6-8.5c-2.9-6.8-6.2-10.4-9.5-10.4c-5.9,0-12.8,11.5-16.4,27.3
		c-2.1,9.4-5.8,20.3-9.5,20.3c-0.6,0-1.1-0.3-1.5-0.8c-1.2-1.5-1.1-5.7,0.3-12.3c1.3-6.1,4.4-14.7,7.6-23.8
		c6.2-17.4,13.9-38.9,8.8-43.8C407.6,510.7,406.4,510,404.7,510z"/>
	<path fill="#231F20" d="M616.3,493.5c0,0-7.5-0.7-15.8-33.2c-8.3-32.6-6.7-40-6.7-40s-2.5-11.6-9.8-14.3c-7.3-2.7-5.7-13-5.7-13
		s3.5-19.9-0.7-23.9c-4.3-4-1.4-16.4,1.3-19.4c2.7-3,23.9-40.5,32.9,2.7c9.1,43.2,23.2,105.8,23.2,105.8S642.7,490.3,616.3,493.5z"
		/>
	<path fill="#231F20" d="M618.4,524.8c0,0-11-17-6.1-25.8c5-8.8,25.6-20.5,31.1-9.9c5.5,10.6,6,12.2,6,12.2s4.5,14.1-4.3,18.1
		C636.3,523.4,625.9,531.4,618.4,524.8z"/>
	<path fill="#231F20" d="M688.8,464.2c0,0-7.4-0.8-15.1-33.6c-7.7-32.7-5.8-40.1-5.8-40.1s-2.2-11.7-9.5-14.5
		c-7.2-2.8-5.4-13.1-5.4-13.1s3.9-19.9-0.2-23.9c-4.2-4.1-1.1-16.4,1.7-19.3c2.7-2.9,24.7-40,32.9,3.4c8.1,43.4,21,106.3,21,106.3
		S715.2,461.6,688.8,464.2z"/>
	<path fill="#231F20" d="M690.3,495.5c0,0-10.7-17.2-5.5-25.9c5.2-8.7,26-20,31.3-9.2c5.3,10.7,5.8,12.3,5.8,12.3s4.2,14.2-4.7,18
		C708.1,494.5,697.6,502.3,690.3,495.5z"/>
	<path fill="#231F20" d="M760.5,438.5c0,0-7.4-1.2-13.4-34.3c-6-33.1-3.8-40.4-3.8-40.4s-1.7-11.8-8.7-14.9
		c-7.1-3.2-4.8-13.3-4.8-13.3s4.9-19.6,0.9-23.9c-4-4.3-0.3-16.4,2.6-19.2c2.9-2.8,26.6-38.7,32.6,5c6,43.7,15.8,107.2,15.8,107.2
		S787,437.3,760.5,438.5z"/>
	<path fill="#231F20" d="M760.4,469.9c0,0-9.8-17.7-4.2-26.2c5.6-8.4,26.9-18.7,31.7-7.7c4.7,11,5.2,12.6,5.2,12.6
		s3.5,14.4-5.6,17.8C778.3,469.8,767.4,477.1,760.4,469.9z"/>
	<path fill="#FF9A1E" d="M614.7,484.5c0,0-6.5-0.6-13.7-30.9c-7.3-30.3-9.4-43.1-9.4-43.1s-2.2-10.8-8.5-13.3
		c-6.3-2.5-4.9-12-4.9-12s-0.5-9.7-4.2-13.4c-3.7-3.7,0.3-14.8,2.6-17.6c2.3-2.8,14.5-37.1,22.4,3.1c7.9,40.2,20.2,98.4,20.2,98.4
		S625.7,484.3,614.7,484.5z"/>
	<path fill="#231F20" d="M614.7,485.7L614.7,485.7c-1.3-0.1-7.8-2.2-14.9-31.8c-7.2-30-9.4-43-9.4-43.2c0-0.1-2.1-10.1-7.7-12.3
		c-6.8-2.7-5.9-12-5.7-13.2c-0.1-2.7-1.1-9.8-3.8-12.5c-4.4-4.4,0.1-16.3,2.5-19.3c0.3-0.3,0.9-1.6,1.6-2.9
		c3.5-7,7.4-13.9,12.2-13.9c4.7,0,8.1,6.5,10.8,20.4c7.8,39.7,20.1,97.8,20.2,98.4c0.2,0.8,4.7,21.1-0.8,27.9
		C618.4,484.9,616.8,485.7,614.7,485.7L614.7,485.7z M589.3,339.1c-3.7,0-7.9,8.4-10,12.5c-0.9,1.8-1.4,2.8-1.9,3.3
		c-2.3,2.8-5.7,13-2.7,15.9c4,4,4.5,13.8,4.5,14.3l0,0.1l0,0.1c0,0.1-1.2,8.6,4.2,10.7c6.9,2.7,9.2,13.7,9.3,14.2
		c0,0.2,2.2,13.2,9.4,43c6.3,26.4,12,29.6,12.7,29.9c1.2-0.1,2.1-0.5,2.8-1.5c3.9-5,1.5-20.4,0.3-25.9c-0.1-0.6-12.5-58.7-20.2-98.4
		C594.6,341.5,591.1,339.1,589.3,339.1z"/>
	<path fill="#FF9A1E" d="M613.8,514.3c0,0-4.3-7.7,0-15.9c4.3-8.2,13.7-13.9,18.5-4c4.8,9.9,2.3,5.7,2.3,5.7s5.7,7.7-2,11.4
		C624.9,515.2,620.3,520.4,613.8,514.3z"/>
	<path fill="#231F20" d="M619.8,518.4c-2.4,0-4.6-1-6.9-3.2l-0.2-0.3c-0.2-0.3-4.6-8.4,0-17.1c2.6-4.9,7.6-9.9,12.8-9.9
		c2.3,0,5.6,1,8,5.9c2.2,4.6,3,6.2,3.1,7c0.9,1.7,1.9,4.4,1.1,7.1c-0.6,2-2.1,3.6-4.4,4.7c-1.6,0.8-3,1.6-4.4,2.4
		C625.6,516.8,622.8,518.4,619.8,518.4z M614.8,513.5c1.7,1.6,3.4,2.4,5.1,2.4c2.3,0,4.8-1.4,7.7-3.1c1.4-0.8,2.9-1.7,4.6-2.5
		c1.7-0.8,2.8-1.9,3.2-3.2c0.7-2.2-0.6-4.7-1.2-5.7c-0.2-0.3-0.5-0.8-0.5-0.8l0.3-0.2c-0.3-0.7-1-2.3-2.6-5.6
		c-1.5-3-3.4-4.5-5.7-4.5c-3.6,0-7.9,3.5-10.6,8.6C611.2,505.8,614.3,512.4,614.8,513.5z"/>
	<path fill="#FF9A1E" d="M685.7,455.2c0,0-6.5-0.9-12.5-31.4c-6.1-30.5-7.7-43.4-7.7-43.4s-1.7-10.9-8-13.6
		c-6.2-2.7-4.5-12.2-4.5-12.2s-0.1-9.7-3.6-13.6c-3.6-3.8,0.9-14.8,3.3-17.5c2.4-2.7,15.9-36.5,22.3,4c6.3,40.4,16.4,99.1,16.4,99.1
		S696.7,455.4,685.7,455.2z"/>
	<path fill="#231F20" d="M685.9,456.4l-0.3,0c-1.2-0.2-7.6-2.5-13.6-32.4c-6-30.2-7.7-43.4-7.8-43.5c0-0.1-1.7-10.2-7.2-12.6
		c-6.7-2.9-5.4-12.2-5.2-13.5c0-2.7-0.7-9.8-3.3-12.6c-4.2-4.6,0.7-16.3,3.3-19.2c0.3-0.3,1-1.6,1.7-2.8c3.7-6.8,7.8-13.4,12.5-13.4
		c4.8,0,8,6.6,10.2,20.8c6.2,40,16.3,98.5,16.4,99.1c0.2,0.8,3.8,21.1-1.8,27.8C689.5,455.6,687.8,456.4,685.9,456.4z M665.9,308.9
		c-3.6,0-8.2,8.2-10.3,12.1c-1,1.8-1.5,2.8-2,3.3c-2.4,2.7-6.2,12.7-3.3,15.8c3.8,4.1,4,14,4,14.4l0,0.1l0,0.1
		c0,0.1-1.5,8.6,3.8,10.9c6.8,3,8.6,14.1,8.7,14.5c0,0.2,1.7,13.3,7.7,43.4c5.3,26.7,10.9,30.1,11.5,30.4c1.2,0,2.2-0.5,2.9-1.4
		c4-4.9,2.3-20.3,1.2-25.8c-0.1-0.6-10.2-59.1-16.4-99.1C671.1,311.3,667.7,308.9,665.9,308.9z"/>
	<path fill="#FF9A1E" d="M683.6,484.9c0,0-4-7.9,0.6-15.9c4.6-8,14.3-13.4,18.7-3.3c4.4,10.1,2.1,5.8,2.1,5.8s5.4,7.9-2.4,11.3
		C694.7,486.3,689.9,491.3,683.6,484.9z"/>
	<path fill="#231F20" d="M689.9,489.2c-2.5,0-4.8-1.1-7.1-3.5l-0.2-0.3c-0.2-0.3-4.3-8.6,0.6-17.1c2.7-4.7,7.7-9.4,12.8-9.4
		c2.4,0,5.8,1.1,8,6.2c2,4.7,2.7,6.3,2.8,7.1c0.8,1.7,1.7,4.5,0.8,7.2c-0.7,2-2.2,3.5-4.6,4.5c-1.6,0.7-3.1,1.5-4.5,2.2
		C695.4,487.8,692.7,489.2,689.9,489.2z M684.7,484.2c1.7,1.8,3.4,2.6,5.2,2.6c2.3,0,4.7-1.3,7.6-2.8c1.5-0.8,3-1.5,4.7-2.3
		c1.7-0.7,2.8-1.8,3.3-3.1c0.7-2.2-0.4-4.7-1-5.8c-0.2-0.3-0.5-0.8-0.5-0.8l0.3-0.2c-0.3-0.7-0.9-2.3-2.4-5.7
		c-1.4-3.2-3.3-4.8-5.8-4.8c-3.5,0-7.9,3.4-10.7,8.2C681.4,476.4,684.2,483.1,684.7,484.2z"/>
	<path fill="#FF9A1E" d="M759.8,431c0,0-6.4-1.1-11.5-31.8c-5.1-30.7-6.3-43.6-6.3-43.6s-1.4-10.9-7.5-13.9
		c-6.1-2.9-4.1-12.4-4.1-12.4s0.2-9.7-3.2-13.7c-3.4-4,1.4-14.8,3.9-17.4c2.5-2.6,17.1-35.9,22.1,4.7c5,40.6,13.2,99.6,13.2,99.6
		S770.8,431.6,759.8,431z"/>
	<path fill="#231F20" d="M760.2,432.2c-0.1,0-0.3,0-0.4,0l-0.1,0c-1.2-0.2-7.5-2.7-12.5-32.8c-5-30.4-6.3-43.6-6.3-43.7
		c0-0.1-1.4-10.3-6.8-12.9c-6.6-3.1-5-12.4-4.8-13.6c0-2.7-0.4-9.8-2.9-12.8c-4.1-4.7,1.2-16.3,3.9-19c0.3-0.3,1-1.5,1.8-2.8
		c3.9-6.6,8.1-13,12.8-13c4.9,0,7.9,6.7,9.7,21.1c4.9,40.1,13.1,99,13.2,99.5c0.1,0.8,3.1,21-2.6,27.6
		C763.7,431.5,762.1,432.2,760.2,432.2z M760.1,429.8c1.2,0,2.2-0.4,3-1.4c4.1-4.8,2.9-20.2,2-25.7c-0.1-0.6-8.2-59.4-13.2-99.6
		c-2-16.5-5.4-18.9-7.3-18.9c-3.6,0-8.4,7.9-10.7,11.8c-1.1,1.8-1.6,2.7-2.1,3.2c-2.5,2.6-6.6,12.5-3.8,15.7
		c3.7,4.3,3.5,14.1,3.5,14.5l0,0.2c0,0.1-1.8,8.5,3.4,11c6.7,3.2,8.2,14.3,8.2,14.8c0,0.2,1.3,13.3,6.3,43.6
		C754,425.8,759.4,429.4,760.1,429.8z"/>
	<path fill="#FF9A1E" d="M756.8,460.7c0,0-3.8-8,1.1-15.9c4.9-7.9,14.7-12.9,18.8-2.7c4.1,10.2,1.9,5.9,1.9,5.9s5.1,8.1-2.8,11.3
		C767.8,462.4,762.8,467.3,756.8,460.7z"/>
	<path fill="#231F20" d="M763.1,465.2c-2.6,0-5-1.2-7.3-3.7l-0.2-0.3c-0.2-0.4-4-8.7,1.2-17c3.4-5.4,8.5-9,12.9-9
		c2.5,0,6,1.1,8.1,6.5c1.9,4.7,2.5,6.4,2.6,7.1c0.8,1.7,1.6,4.6,0.6,7.2c-0.7,2-2.4,3.4-4.8,4.4c-1.6,0.6-3.1,1.4-4.6,2.1
		C768.6,463.9,765.9,465.2,763.1,465.2z M757.8,460c1.7,1.9,3.4,2.7,5.3,2.7c2.2,0,4.6-1.2,7.5-2.5c1.5-0.7,3-1.4,4.7-2.1
		c1.7-0.7,2.9-1.7,3.4-3c0.8-2.1-0.2-4.7-0.8-5.8c-0.2-0.3-0.4-0.8-0.4-0.8l0.3-0.2c-0.3-0.7-0.8-2.4-2.2-5.8
		c-1.3-3.3-3.3-4.9-5.8-4.9c-3.5,0-7.9,3.2-10.8,7.8C754.9,452,757.4,458.9,757.8,460z"/>
	<path fill="#231F20" d="M1486.2,880.3l8-59.9c0,0,1.5-9.4,13.9-6.4c12.4,3,38.2,4.3,38.2,4.3s18.7,5.2,16.2,21.3
		c-2.5,16.1-13,97.7-13,97.7s-8.3,97.8,18.2,8.2c26.6-89.6,30-106.3,30-106.3s2.2-9,14.2-7.1c12,1.9,24.6,3.9,24.6,3.9
		s18.3,7.2,15.5,22.1c-2.8,14.8-16.1,110-16.1,110s-5.6,75.1,17.9-1.5c23.5-76.6,31.5-110,31.5-110s1.9-7.4,13-5.9
		c11.1,1.5,38.5,7.5,38.5,7.5s17.8,7,13.7,19.7c-4,12.7-63.3,190.9-63.3,190.9s-4,12.4-20.7,9.3c-16.7-3.1-167.4-36.4-167.4-36.4
		L1486.2,880.3z"/>
	<path fill="#EE3286" d="M1473.6,873.5l8-59.9c0,0,1.5-9.4,13.9-6.4c12.4,3,45.7,8.9,45.7,8.9s11.1,0.6,8.6,16.7
		c-2.5,16.1-13,97.7-13,97.7s-8.3,97.8,18.2,8.2c26.6-89.6,30-106.3,30-106.3s2.2-9,14.2-7.1c12,1.9,35.2,9.6,35.2,9.6
		s7.7,1.5,4.9,16.4c-2.8,14.8-16.1,110-16.1,110s-5.6,75.1,17.9-1.5s31.5-110,31.5-110s1.9-7.4,13-5.9c11.1,1.5,48.2,12.4,48.2,12.4
		s8,2.2,4,14.8s-60.2,185.3-60.2,185.3s-4,12.4-20.7,9.3c-16.7-3.1-167.4-36.4-167.4-36.4L1473.6,873.5z"/>
	<path fill="#231F20" d="M1523.3,1025.4c0,0-2.8-91.7-33.7-167.4c-30.9-75.7-73.9-54.4-98.5-20.7c-12.3,16.9-63.3,132.8-63.3,132.8
		s-17.3,61.5,2.5,79.1c19.8,17.6,56.5,18.5,56.8-13.6c0.3-32.1,20.1-22.5,20.1-22.5c39.8,10.8,29.8,13.3,31.1,26.3
		c1.2,13-8.2,27.1,38.8,31.1C1523.9,1074.5,1523.3,1025.4,1523.3,1025.4z M1427.6,972c-19.5-1.5-33.4,1.2-25.6-27.5
		c7.7-28.7,10.2-30.9,10.2-30.9s15.4-18.8,21.6,3.7S1447,973.6,1427.6,972z"/>
	<path fill="#6653A3" d="M1511,1010.3c0,0-5.6-84.6-36.4-160.3c-30.9-75.7-80-41.7-92.7-25c-12.7,16.7-63.3,132.8-63.3,132.8
		s-17.3,61.5,2.5,79.1c19.8,17.6,53.4,18.8,53.7-13.3c0.3-32.1,23.2-22.9,23.2-22.9c40.8,7.4,40.2,16.1,41.4,29
		c1.2,13-14.5,24.1,32.4,28.1C1518.7,1061.9,1511,1010.3,1511,1010.3z M1418.3,959.7c-19.5-1.5-33.4,1.2-25.6-27.5
		c7.7-28.7,10.2-30.9,10.2-30.9s15.4-18.8,21.6,3.7C1430.7,927.5,1437.8,961.2,1418.3,959.7z"/>
	<path fill="#231F20" d="M1153.9,993.9c0,0,50.8-153.6,86.7-176.7c35.8-23.2,76.4,27.9,97.4,104.8c21,76.9,24.8,147.7-27.9,145.1
		c-35.3-1.7-40,6.5-44-31.5c-4-38-7.1-57.8-10.5-66.4c-3.4-8.6-7.8-37.4-18.7-12.4c-10.8,25-17.9,68-17.9,68l-5.9,24.1
		c0,0-5.6,18.6-30.8,12.7C1182.3,1061.6,1117.5,1061.6,1153.9,993.9z"/>
	<path fill="#7CD2F3" d="M1158.5,932.5c0,0,32.1-104.4,68-127.6c35.8-23.2,73.2,26.9,94.2,103.8c21,76.9,38.6,145.8-14.2,146.1
		c-52.8,0.3-38.6,3.1-42.6-34.9c-4-38-8.3-66.7-11.7-75.4c-3.4-8.6-18.5-25-29.3,0c-10.8,25-17.9,68-17.9,68l-5.9,24.1
		c0,0-0.3,17-33,9.6C1166,1046.1,1129.2,993.6,1158.5,932.5z"/>
	<path fill="#231F20" d="M1182.5,938.9c-18.6-52.4-33.6-139.3-88.5-144.5s-78.3,103.6-96.6,176.1c-18.3,72.5,35.6,84.8,35.6,84.8
		c49,11.4,103.1,5.8,132.9-5.5C1195.6,1038.4,1201.1,991.3,1182.5,938.9z M1118.4,981.9c-16.6,8.4-65.9,5.2-39.2-60.8
		c0,0,14.7-50.7,36.2-13C1137,945.8,1135,973.4,1118.4,981.9z"/>
	<path fill="#FFF200" d="M1169.8,936.3c-17.6-49.9-31.8-132.4-83.7-137.3c-51.9-4.9-74.1,98.5-91.4,167.4
		c-17.3,68.9,33.7,80.6,33.7,80.6c46.3,10.8,97.6,5.6,125.7-5.3C1182.2,1030.9,1187.4,986.1,1169.8,936.3z M1101.7,974.8
		c-15.8,8-62.4,4.9-37.1-57.8c0,0,13.9-48.2,34.3-12.4C1119.3,940.5,1117.5,966.8,1101.7,974.8z"/>
	<path fill="#231F20" d="M1031.3,833.1C993,781.2,938,806.5,938,806.5c-54.7-1.5-50.7,31-50.7,31s14.3,183.6,19.3,206.7
		c4.9,23.2,47.1,13.5,67.8,10.1c20.7-3.4,16.7-16.5,16.7-16.5c-10.7-30-11.7-80.2-11.7-80.2c32.7-7.4,49.1-25.3,49.1-25.3
		S1069.6,885,1031.3,833.1z M980.6,901.1c-8,3.7-16.1,10.5-24.1-20.4c0,0-10.8-29.3,2.8-35.2c13.6-5.9,35.2,3.7,39.2,19.5
		C1002.6,880.7,988.7,897.4,980.6,901.1z"/>
	<path fill="#00A452" d="M1022.6,831.5c-38.3-51.9-93.3-26.6-93.3-26.6c-54.7-1.5-55.9,21.3-55.9,21.3s24.7,183.2,29.7,206.3
		c4.9,23.2,36.8,13.9,57.4,10.5c20.7-3.4,14.6-15.4,14.6-15.4c-10.7-30-9.7-81.2-9.7-81.2c32.7-7.4,49.1-25.3,49.1-25.3
		S1060.9,883.4,1022.6,831.5z M966.7,889.9c-8,3.7-16.1,10.5-24.1-20.4c0,0-10.8-29.3,2.8-35.2c13.6-5.9,35.2,3.7,39.2,19.5
		C988.7,869.5,974.8,886.1,966.7,889.9z"/>
	<path fill="#231F20" d="M757.7,1022c0,0,4.9-158.5,7.4-186.9c2.5-28.4,30.9-25.5,62.4-25.6c31.5-0.1,76.8,1.2,77.7,20.4
		c0.9,19.2,0.3,39.8-15.8,39.2c-16.1-0.6-58.4-15.1-62.7,13c-4.3,28.1,2.2,34,21,30.9c18.8-3.1,20.1,11.5,19.8,20.2
		c-0.3,8.7,3.1,22.7-12.7,23.1c-15.8,0.4-31.7-0.6-27.4,27.5c4.3,28.1,22.2,18.5,24.1,18.5s30.2-8.3,38.8-6.8
		c8.6,1.5,17,17.6,17.9,32.7c0.9,15.1-0.3,25.3-29.3,28.1c-36.7,3.5-100.9,3.1-100.9,3.1s-14.5,1.2-18.5-4.3
		C755.6,1049.6,757.7,1022,757.7,1022z"/>
	<path fill="#E069A5" d="M757,1010.3c0,0-2.5-149.2,0-177.6c2.5-28.4,30.9-25.5,62.4-25.6c31.5-0.1,74.4,0.2,75.4,19.4
		c0.9,19.2-0.9,31.5-17,30.9c-16.1-0.6-58.4-15.1-62.7,13c-4.3,28.1,7.1,44.8,25.9,41.7c18.8-3.1,18.2,10.2,17.9,18.8
		c-0.3,8.6-4,11.9-19.8,12.3c-15.8,0.4-26.9,13.3-22.5,41.4c4.3,28.1,22.2,18.5,24.1,18.5c1.9,0,36.8-9.9,45.4-8.3
		c8.6,1.5,11.4,6.5,12.4,21.6c0.9,15.1,5.6,25.6-31.2,28.1c-36.8,2.5-89.9,3.1-89.9,3.1s-14.5,1.2-18.5-4.3
		C754.8,1037.8,757,1010.3,757,1010.3z"/>
	<path fill="#231F20" d="M798.9,976.5c-9-44-64.9-56.1-64.9-56.1c31.8-26.5,22.2-56.8,8.3-79.1c-13.9-22.3-51.6-24.6-51.6-24.6
		s-34.9,2.2-55.6,3.8c-20.7,1.6-16.7,19.8-16.7,19.8l10.5,197.8l-6.5,17.2l13.1,14.5c0,0,43.7-1,45.8-1c2.2,0,12.3,0.7,16.6-2.4
		c4.3-3.2,8.5-3.1,8.5-3.1h5.6C775.1,1062,807.9,1020.5,798.9,976.5z M682.8,857.2c0,0,20.2-3.5,23,15.2
		c2.8,18.7-19.3,18.5-19.3,18.5L682.8,857.2z M697.4,996.9c-2-12.1-4-48-4-48c0.5-0.4,44.6,9.3,44.9,34.3
		C738.7,1008.2,699.5,1009,697.4,996.9z"/>
	<path fill="#F7931D" d="M790.7,965.8c-9-42.6-64.9-54.4-64.9-54.4c31.8-25.6,22.2-55,8.3-76.6c-13.9-21.6-51.6-23.8-51.6-23.8
		s-34.9,2.2-55.6,3.7c-20.7,1.5-16.7,19.2-16.7,19.2l10.5,191.5l1.7,29.8c0,0,48.5-0.1,50.7-0.1c2.2,0,12.3,0.7,16.6-2.4
		c4.3-3.1,8.5-3,8.5-3h5.6C766.9,1048.6,799.6,1008.5,790.7,965.8z M674.5,850.3c0,0,20.2-3.4,23,14.7c2.8,18.1-19.3,17.9-19.3,17.9
		L674.5,850.3z M689.2,985.6c-2-11.7-4-46.5-4-46.5c0.5-0.4,44.6,9,44.9,33.2C730.4,996.6,691.2,997.3,689.2,985.6z"/>
	<path fill="#231F20" d="M455.1,880.1c0,0,18.3-37,54.8-50.6c36.4-13.6,80.3,0.6,100.1,27c19.8,26.3,2.5,64.1,0,68.5
		c0,0,47.6,12.7,48.5,65c0.9,52.3-55,79.6-63.9,81.9c-9,2.2-86.2,23.5-117.7-44.4l-1.9-5.4c0,0-8.1-15.5,1.1-23.1
		c9.3-7.6,25.3-20,41.1-26c15.8-6,19.5,14.6,25,22.3c8.9,12.4,24.5,21,41.6,8.2c5.3-4,7.5-15.6,2.7-20.5
		c-7.1-7.2-15.1-14.1-31.5-14.1c-20.8,0-34-10.8-37.1-22c-3.1-11.2,0-15.8,17.9-16.4c17.9-0.6,31.7-11.5,28.6-24.8
		c-3.1-13.3-17.2-33.5-40.3-18.6c-23.2,14.9-20.7,31.1-45.7,19C453.4,893.8,455.1,880.1,455.1,880.1"/>
	<path fill="#EB3132" d="M451.8,872.8c0,0,13.6-35.5,50-48.8c36.4-13.3,80.3,0.6,100.1,26.3c19.8,25.6,2.5,62.4,0,66.7
		c0,0,47.6,12.4,48.5,63.3c0.9,51-55,77.5-63.9,79.7s-86.2,22.9-117.7-43.2l-1.9-5.3c0,0-4.3-5.6,4.9-13
		c9.3-7.4,25.3-19.5,41.1-25.3c15.8-5.9,18.2,16.8,24,24.1c7.5,9.6,23.8,20.8,41.5,8.3c15.7-11.1,6.2-32,1.3-36.8
		c-7.1-7-18.3-11.7-34.7-12.4c-16.4-0.6-28.1-3.8-31.2-14.7c-3.1-10.9-4-19,13.9-19.6c17.9-0.6,31.8-19.8,28.7-32.7
		c-3.1-13-22.5-28.1-45.7-13.6c-23.2,14.5-20.7,30.3-45.7,18.5C440.1,882.6,451.8,872.8,451.8,872.8"/>
	<path fill="#231F20" d="M1594.5,805.6c-0.3,0-0.6-0.1-0.8-0.3c-16.3-13.6-22.9-26.5-23.1-27c-0.3-0.6-0.1-1.4,0.5-1.7
		c0.6-0.3,1.4-0.1,1.7,0.5c0.1,0.1,6.7,13,22.5,26.2c0.5,0.4,0.6,1.2,0.2,1.7C1595.2,805.5,1594.8,805.6,1594.5,805.6z"/>
	<path fill="#231F20" d="M1585.4,807c-0.3,0-0.7-0.1-0.9-0.4c-11.5-13.5-15.8-26.8-15.9-27.3c-0.2-0.7,0.2-1.3,0.8-1.5
		c0.7-0.2,1.3,0.2,1.5,0.8c0,0.1,4.3,13.4,15.5,26.5c0.4,0.5,0.4,1.3-0.1,1.7C1586,807,1585.7,807,1585.4,807z"/>
	<path fill="#231F20" d="M1573.4,776.1c0,0,1.6,1.2,4.1,3.1c0.6,0.4,1.3,0.9,2,1.5c0.7,0.5,1.4,1.1,2.2,1.6c0.8,0.6,1.6,1.1,2.3,1.8
		c0.8,0.6,1.6,1.2,2.5,1.8c0.8,0.6,1.6,1.2,2.4,1.8c0.8,0.6,1.6,1.2,2.4,1.7c0.8,0.6,1.5,1.1,2.2,1.7c0.7,0.5,1.4,1,2,1.5
		c2.5,1.8,4,3.2,4,3.2s-2-0.7-4.8-2c-0.7-0.3-1.5-0.7-2.2-1.1c-0.8-0.4-1.6-0.9-2.4-1.4c-0.8-0.5-1.7-1-2.5-1.6
		c-0.9-0.5-1.7-1.2-2.5-1.8c-0.8-0.6-1.6-1.2-2.5-1.9c-0.8-0.6-1.5-1.3-2.3-2c-1.5-1.3-2.7-2.6-3.8-3.7c-0.5-0.6-1-1.1-1.4-1.6
		c-0.4-0.5-0.7-0.9-1-1.3C1573.6,776.6,1573.4,776.1,1573.4,776.1z"/>
	<path fill="#F8951D" d="M1327.1,706.3c0,0,31.2-12.5,59-13.1l3.7,13.1c0,0,100.1-26.2,173,25.2c0,0,28.4,16.7,20.4,45.4
		c0,0-6.2,10.8-3.3,23.2c2.9,12.4-7.8,20.4-18.9,9.5c-11.1-10.9-13.8-9.9-18.3,3.1c-4.5,13-15.6,4.9-17.5,2.1s-6.8-12.3-13,1
		c-6.2,13.4-17.9,0.6-19.8-5.4c-1.9-6-7.8-4.5-13.2,1c-5.4,5.6-15-1.6-15.4-11.3c-0.4-9.7-8-2.3-9.9-1.6c-1.9,0.6-8,0.4-11.9-9.1
		c-3.9-9.5-16.9-10.5-29.2-6.8c-12.4,3.7-75.6,31.7-85.6-14.2C1317.1,722.5,1327.1,706.3,1327.1,706.3z"/>
	<path fill="#231F20" d="M1505,822.9c-6.5,0-12.5-8-13.8-12.1c-0.6-2-1.7-3-3.4-3c-2.1,0-5,1.7-7.8,4.5c-1.5,1.5-3.3,2.3-5.3,2.3
		c-5.5,0-11.9-6.2-12.2-14.4c-0.1-2.5-0.7-3.8-1.8-3.8c-1.3,0-3.3,1.3-4.6,2.1c-0.8,0.5-1.4,0.9-1.9,1.1c-0.5,0.2-1.2,0.3-1.9,0.3
		c-2.2,0-7.9-1-11.6-10c-2.9-7-10.9-8-15.5-8c-3.8,0-8,0.7-12.2,1.9c-1.2,0.4-3,1-5.3,1.8c-10,3.5-28.6,10.1-45.6,10.1
		c-20.1,0-32.3-9.1-36.2-27c-10-45.9-0.3-62.3,0.2-63l0.2-0.3l0.4-0.2c0.3-0.1,31.7-12.6,59.4-13.2l1,0l3.6,12.9
		c5.4-1.3,29-6.4,59.3-6.4c31,0,75.9,5.6,113.5,32.1c0.2,0.1,29.1,17.4,20.9,46.8l-0.1,0.3c-0.1,0.1-5.9,10.6-3.2,22.3
		c1.1,4.8,0.4,9.3-2.1,12.4c-1.9,2.4-4.6,3.7-7.6,3.7c-3.7,0-7.6-1.9-11.3-5.5c-3.6-3.5-7.6-7.1-10.1-7.1c-2.1,0-3.7,2.6-6.2,9.7
		c-2.3,6.6-6.2,8-9.1,8c-4.6,0-9.3-3.6-10.6-5.7l-0.4-0.6c-1-1.7-3-4.8-5-4.8c-1.7,0-3.6,2.2-5.5,6.3
		C1510.7,821.7,1507.4,822.9,1505,822.9z M1487.8,805.3c2.7,0,4.8,1.7,5.7,4.7c1.1,3.6,6.6,10.4,11.4,10.4c2.4,0,4.4-1.7,6-5.2
		c2.4-5.2,4.9-7.7,7.7-7.7c3.4,0,5.7,3.7,7.1,5.9l0.4,0.6c0.8,1.3,4.6,4.5,8.5,4.5c3,0,5.3-2.1,6.8-6.3c2.6-7.4,4.7-11.4,8.6-11.4
		c2.8,0,6,2.1,11.8,7.8c3.2,3.1,6.5,4.8,9.5,4.8c2.3,0,4.3-1,5.7-2.8c2-2.5,2.6-6.3,1.6-10.3c-2.8-12.1,2.6-22.6,3.3-24
		c7.5-27.4-19.6-43.7-19.9-43.9c-37.2-26.2-81.5-31.7-112.2-31.7c-34.1,0-59.6,6.6-59.8,6.6l-1.2,0.3l-3.8-13.3
		c-25.3,0.8-53.5,11.4-57.2,12.8c-1.3,2.5-8.6,19.6,0.3,60.8c3.6,16.6,15,25.1,33.8,25.1c16.6,0,34.9-6.5,44.8-10
		c2.3-0.8,4.1-1.4,5.4-1.8c4.5-1.3,8.9-2,13-2c8.9,0,15.2,3.4,17.8,9.6c3.3,7.9,8,8.5,9.3,8.5c0.6,0,1-0.1,1.1-0.1
		c0.2-0.1,0.9-0.5,1.4-0.8c1.6-1.1,3.9-2.5,5.9-2.5c1.8,0,4,1.1,4.2,6.1c0.3,6.8,5.5,12.1,9.8,12.1c1.4,0,2.6-0.5,3.5-1.6
		C1481.6,807.2,1484.9,805.3,1487.8,805.3z"/>
	<path fill="#FFFFFF" d="M1558.2,744.1l24.3-1.5c0,0,3.6,7.2,2.1,13.4c-1.4,6.2-8.7,6.4-8.7,6.4h-12.1l-5.6-5.8v-11.9"/>
	<path fill="#231F20" d="M1579,755c-1,1.6-5.6,7.4-6.8,2.5c-1.2-4.9-3.5-2.9-3.5-2.9s-4.7,10.7-7.2,2.9c-2.5-7.8,7.4-13,9.3-10.4
		c1.9,2.6,4.7,6.2,8.4,1.9c1.7-2,3.4-2.1,4.8-1.7c-1.8-8.1-7.5-16.8-22.7-18.2c-25.3-2.5-22.7,15.4-2.5,32.5
		c20.2,17.1,25.1-1.4,25.1-1.4c0.3-1,0.5-2.5,0.6-4.2C1582.7,754.5,1579.7,753.7,1579,755z"/>
	<path fill="#231F20" d="M1440.2,789c-0.1-0.3-1.7-6.7-1.4-13.9c-8.6-0.2-55.3-1.3-66.3-9.3l1.4-2c11.3,8.1,65.7,8.8,66.2,8.8l1.3,0
		l-0.1,1.3c-0.6,7.3,1.2,14.3,1.2,14.4L1440.2,789z"/>
	
		<ellipse transform="matrix(0.7802 -0.6255 0.6255 0.7802 -128.6651 1026.0062)" fill="#FFFFFF" cx="1395.6" cy="696.1" rx="12.5" ry="18"/>
	<path fill="#231F20" d="M1400.7,713.4c-5.4,0-11.5-3.3-15.8-8.7c-6.6-8.3-7.2-18.9-1.3-23.6c1.9-1.5,4.3-2.3,6.9-2.3
		c5.5,0,11.5,3.3,15.8,8.7c6.6,8.3,7.2,18.9,1.3,23.6C1405.8,712.6,1403.4,713.4,1400.7,713.4z M1390.5,681.2
		c-2.1,0-3.9,0.6-5.4,1.8c-4.9,3.9-4.1,12.9,1.7,20.1c3.9,4.8,9.2,7.8,13.9,7.8c2.1,0,3.9-0.6,5.4-1.8c4.9-3.9,4.1-12.9-1.7-20.1
		C1400.6,684.2,1395.3,681.2,1390.5,681.2z"/>
	<circle fill="#231F20" cx="1405.2" cy="698.7" r="5.4"/>
	
		<ellipse transform="matrix(0.7802 -0.6255 0.6255 0.7802 -137.7018 1016.244)" fill="#FFFFFF" cx="1377.2" cy="704.1" rx="14.1" ry="18.8"/>
	<path fill="#231F20" d="M1381.7,722.5c-5.9,0-12-3.3-16.4-8.8c-3.3-4.1-5.2-9-5.4-13.7c-0.2-4.8,1.5-8.9,4.8-11.5
		c2.2-1.8,5-2.7,8.1-2.7c5.9,0,12,3.3,16.4,8.8c3.3,4.1,5.2,9,5.4,13.7c0.2,4.8-1.5,8.9-4.8,11.5
		C1387.6,721.5,1384.8,722.5,1381.7,722.5z M1372.8,688.2c-2.5,0-4.8,0.8-6.6,2.2c-2.6,2.1-4,5.5-3.9,9.5c0.1,4.2,1.9,8.5,4.8,12.2
		c3.9,4.8,9.4,7.9,14.5,7.9c2.5,0,4.8-0.8,6.6-2.2c2.6-2.1,4-5.5,3.9-9.5c-0.1-4.2-1.9-8.5-4.8-12.2
		C1383.4,691.2,1377.8,688.2,1372.8,688.2z"/>
	<circle fill="#231F20" cx="1385.1" cy="707.1" r="5.4"/>
	
		<linearGradient id="SVGID_6_" gradientUnits="userSpaceOnUse" x1="380.265" y1="2245.2449" x2="381.265" y2="2245.2449" gradientTransform="matrix(-17.6846 3.9738 3.9738 17.6846 -810.6342 -40452.2773)">
		<stop  offset="0" style="stop-color:#F15A29"/>
		<stop  offset="0.3339" style="stop-color:#F15D28"/>
		<stop  offset="0.5625" style="stop-color:#F26627"/>
		<stop  offset="0.7597" style="stop-color:#F47524"/>
		<stop  offset="0.9381" style="stop-color:#F68B20"/>
		<stop  offset="1" style="stop-color:#F7941E"/>
	</linearGradient>
	<path fill="url(#SVGID_6_)" d="M1385.2,758.5c0,0-2.8,6.3-14.7,17.1"/>
	<path fill="#231F20" d="M1385.2,758.5c0,0-0.1,0.4-0.2,1c-0.1,0.3-0.2,0.7-0.4,1.1c-0.2,0.4-0.3,0.9-0.6,1.4
		c-0.5,1-1.1,2.1-1.9,3.2c-0.4,0.6-0.8,1.1-1.2,1.7c-0.4,0.6-0.9,1.1-1.4,1.6c-0.5,0.5-1,1.1-1.5,1.6c-0.5,0.5-1,1-1.5,1.4
		c-1,0.9-2,1.7-2.9,2.3c-1.8,1.3-3.1,1.9-3.1,1.9s0.8-1.3,2.1-2.9c0.3-0.4,0.7-0.9,1.1-1.3c0.4-0.5,0.8-1,1.2-1.5
		c0.4-0.5,0.9-1,1.3-1.5c0.5-0.5,0.9-1,1.4-1.6c0.9-1.1,1.9-2,2.8-3c0.4-0.5,0.9-0.9,1.3-1.4c0.4-0.5,0.8-0.9,1.1-1.3
		c0.7-0.8,1.3-1.4,1.7-1.9C1385,758.8,1385.2,758.5,1385.2,758.5z"/>
	
		<linearGradient id="SVGID_7_" gradientUnits="userSpaceOnUse" x1="380.2744" y1="2245.2627" x2="381.2744" y2="2245.2627" gradientTransform="matrix(-23.8729 5.3643 5.3643 23.8729 -1582.8181 -54878.6992)">
		<stop  offset="0" style="stop-color:#F15A29"/>
		<stop  offset="0.3339" style="stop-color:#F15D28"/>
		<stop  offset="0.5625" style="stop-color:#F26627"/>
		<stop  offset="0.7597" style="stop-color:#F47524"/>
		<stop  offset="0.9381" style="stop-color:#F68B20"/>
		<stop  offset="1" style="stop-color:#F7941E"/>
	</linearGradient>
	<path fill="url(#SVGID_7_)" d="M1381.3,753.5c0,0-3.8,8.4-20,22.6"/>
	<path fill="#231F20" d="M1381.3,753.5c0,0-0.1,0.5-0.4,1.3c-0.1,0.4-0.4,0.9-0.6,1.4c-0.3,0.5-0.5,1.1-0.9,1.8
		c-0.4,0.6-0.8,1.3-1.2,2c-0.5,0.7-1,1.4-1.5,2.1c-0.5,0.7-1.1,1.5-1.7,2.2c-0.6,0.7-1.3,1.4-1.9,2.1c-0.6,0.7-1.3,1.4-2,2
		c-0.7,0.7-1.4,1.3-2,1.9c-1.3,1.2-2.6,2.3-3.8,3.1c-2.3,1.7-4,2.7-4,2.7s1.1-1.6,3-3.7c0.5-0.5,1-1.1,1.5-1.7
		c0.6-0.6,1.1-1.3,1.7-1.9c0.6-0.6,1.2-1.3,1.8-2c0.6-0.7,1.3-1.3,1.9-2.1c1.2-1.4,2.6-2.7,3.7-4c0.6-0.7,1.2-1.3,1.7-1.9
		c0.5-0.6,1-1.2,1.5-1.7c0.5-0.5,0.9-1,1.3-1.4c0.4-0.4,0.7-0.8,1-1.1C1381,753.9,1381.3,753.5,1381.3,753.5z"/>
	<path fill="#723516" d="M1293.9,879.7c0,0-43.4,3.7-44.6-27.8c-1.2-31.5,4.3-67.3,13.6-92.7c9.3-25.3,21.6-66.7,57.4-65.5
		c35.8,1.2,24.1,32.8,19.8,59c-4.3,26.2-2.9,77.8-2.7,86C1337.7,847,1340.4,882.8,1293.9,879.7z"/>
	<path fill="#231F20" d="M1299.4,881.2c-1.8,0-3.6-0.1-5.5-0.2c-0.4,0-1.9,0.1-4.1,0.1c-9.5,0-40.6-2.1-41.7-29.1
		c-1.2-31.1,4-66.8,13.7-93.1c0.6-1.6,1.2-3.3,1.8-5.1c9.3-25.8,22-61.2,55.2-61.2c0.5,0,1.1,0,1.6,0c10.3,0.4,17.3,3.1,21.6,8.5
		c7.6,9.6,4.4,25.8,1.4,41.4c-0.7,3.5-1.4,7.1-2,10.6c-4,24.5-3.1,71.8-2.7,85.8l0,0.8c0.2,5.7,0.7,20.8-9.3,31.2
		C1322.8,877.7,1312.7,881.2,1299.4,881.2z M1293.9,878.5L1293.9,878.5c15.4,1,26.7-2.2,33.8-9.5c9.3-9.6,8.8-24,8.6-29.4l0-0.8
		c-0.4-14-1.4-61.5,2.7-86.2c0.6-3.5,1.3-7.1,2-10.7c3-15.1,6-30.7-0.9-39.4c-3.8-4.7-10.2-7.2-19.7-7.5
		c-32.6-1.1-45.2,34-54.4,59.6c-0.6,1.8-1.2,3.5-1.8,5.1c-9.4,25.7-14.7,61.9-13.5,92.2c0.9,24.1,27.7,26.7,39.2,26.7
		C1292.3,878.6,1293.8,878.5,1293.9,878.5L1293.9,878.5z"/>
	<path fill="#231F20" d="M1551.5,775.2c0,0-0.3,0.4-1,1c-0.3,0.3-0.7,0.7-1.2,1.1c-0.5,0.4-1,0.9-1.6,1.3c-1.2,0.9-2.7,2-4.4,3
		c-0.8,0.5-1.7,1-2.6,1.5c-0.9,0.5-1.8,0.9-2.8,1.4c-0.9,0.4-1.9,0.9-2.8,1.3c-0.9,0.4-1.9,0.7-2.8,1.1c-0.9,0.4-1.8,0.6-2.6,0.9
		c-0.8,0.3-1.7,0.5-2.4,0.7c-3,0.8-5,1.1-5,1.1s1.8-1.1,4.5-2.4c0.7-0.3,1.4-0.7,2.2-1.1c0.8-0.4,1.6-0.8,2.5-1.2
		c0.9-0.4,1.7-0.9,2.7-1.2c0.9-0.4,1.8-0.9,2.7-1.3c0.9-0.4,1.8-0.9,2.7-1.3c0.9-0.5,1.8-0.9,2.6-1.3c0.8-0.4,1.7-0.8,2.5-1.2
		c0.8-0.4,1.5-0.8,2.2-1.1C1549.6,776.1,1551.5,775.2,1551.5,775.2z"/>
	<path fill="#231F20" d="M1552.9,777.2c0,0-0.3,0.5-0.8,1.3c-0.5,0.8-1.3,2-2.4,3.3c-0.5,0.6-1.1,1.3-1.8,2
		c-0.6,0.7-1.3,1.5-2.1,2.2c-0.8,0.7-1.5,1.5-2.4,2.2c-0.8,0.7-1.7,1.4-2.6,2.1c-0.9,0.7-1.8,1.4-2.6,2c-0.9,0.6-1.8,1.2-2.7,1.7
		c-0.9,0.6-1.7,1.1-2.6,1.6c-0.8,0.5-1.7,0.9-2.4,1.2c-3,1.5-5.1,2.2-5.1,2.2s1.7-1.5,4.3-3.4c0.7-0.5,1.4-1,2.1-1.6
		c0.7-0.6,1.5-1.2,2.3-1.8c0.8-0.6,1.6-1.3,2.5-1.9c0.8-0.7,1.7-1.4,2.5-2c0.9-0.7,1.8-1.3,2.6-2c0.8-0.7,1.6-1.3,2.4-2
		c0.8-0.6,1.6-1.3,2.3-1.9c0.7-0.6,1.4-1.2,2-1.7c1.2-1.1,2.3-2,3-2.6C1552.5,777.6,1552.9,777.2,1552.9,777.2z"/>
	<path fill="#231F20" d="M1554.6,778.7c0,0-0.1,0.5-0.5,1.3c-0.2,0.4-0.3,0.9-0.6,1.4c-0.3,0.5-0.6,1.2-0.9,1.8
		c-0.3,0.7-0.8,1.4-1.2,2.1c-0.5,0.7-0.9,1.5-1.5,2.3c-0.6,0.7-1.1,1.5-1.7,2.3c-0.6,0.8-1.2,1.5-1.9,2.3c-0.7,0.7-1.3,1.5-2,2.2
		c-0.7,0.7-1.4,1.3-2.1,2c-0.7,0.6-1.4,1.2-2,1.8c-0.6,0.6-1.3,1-1.9,1.5c-2.4,1.7-4.2,2.7-4.2,2.7s1.2-1.6,3.2-3.7
		c0.5-0.5,1.1-1.1,1.6-1.7c0.5-0.6,1.1-1.3,1.7-2c0.6-0.7,1.2-1.4,1.9-2.1c0.6-0.7,1.2-1.5,1.9-2.2c0.6-0.7,1.3-1.4,1.9-2.2
		c0.6-0.7,1.2-1.4,1.8-2.1c0.6-0.7,1.1-1.4,1.7-2c0.5-0.6,1.1-1.2,1.5-1.8c0.9-1.1,1.7-2.1,2.3-2.7
		C1554.3,779,1554.6,778.7,1554.6,778.7z"/>
	<path fill="#231F20" d="M1546.2,805.2l-0.3,0c-0.7-0.2-1.1-0.8-0.9-1.5c3.6-13.6,7.6-15.2,11.9-16.9c2-0.8,4-1.6,6.1-3.8
		c6.5-6.7,4.4-17.3,4.4-17.4c-0.1-0.7,0.3-1.3,1-1.5c0.7-0.1,1.3,0.3,1.5,1c0.1,0.5,2.3,12-5.1,19.6c-2.5,2.6-4.9,3.5-7,4.4
		c-3.8,1.5-7.1,2.8-10.4,15.2C1547.3,804.8,1546.8,805.2,1546.2,805.2z"/>
	<path fill="#231F20" d="M1577.3,794.4c-0.2,0-0.3,0-0.5-0.1c-1.2-0.5-11.3-5.2-13.9-9.1c-0.4-0.6-0.2-1.3,0.3-1.7
		c0.6-0.4,1.3-0.2,1.7,0.3c1.9,2.8,9.9,6.9,12.9,8.2c0.6,0.3,0.9,1,0.6,1.6C1578.2,794.2,1577.8,794.4,1577.3,794.4z"/>
	<path fill="#231F20" d="M1552,802.1c-2.4,0-4.2-0.2-4.4-0.3c-0.7-0.1-1.1-0.7-1.1-1.4c0.1-0.7,0.7-1.1,1.4-1.1
		c0.2,0,18.5,2.4,22.3-9.5c0.2-0.6,0.9-1,1.6-0.8c0.6,0.2,1,0.9,0.8,1.6C1569.5,800.6,1558.3,802.1,1552,802.1z"/>
	<path fill="#231F20" d="M1554.6,789.1c0,0,3.9,3.4,14.6,0l-5.6-3.8L1554.6,789.1z"/>
	<path fill="#F89821" d="M164.1,1162.1c0,0,7.1-0.3,20.3-1c6.6-0.3,14.8-0.6,24.4-1.1c9.6-0.4,20.7-0.9,33.1-1.3
		c24.8-1,54.8-2.1,89.3-3.3c17.3-0.6,35.6-1.2,55-1.8c19.4-0.6,39.7-1.2,60.9-1.8c21.2-0.6,43.4-1.2,66.3-1.8
		c22.9-0.5,46.6-1.1,70.9-1.7c24.3-0.5,49.4-1,74.9-1.6c12.8-0.3,25.7-0.5,38.8-0.7c13-0.2,26.2-0.5,39.5-0.7
		c6.6-0.1,13.3-0.2,20-0.3c6.7-0.1,13.4-0.2,20.2-0.3c13.5-0.2,27.1-0.4,40.8-0.6c13.7-0.2,27.4-0.4,41.3-0.5
		c13.8-0.1,27.7-0.3,41.7-0.4c14-0.1,28-0.3,42-0.4c14.1-0.1,28.2-0.2,42.3-0.3c28.2-0.2,56.6-0.4,85-0.5c28.4-0.1,56.7-0.2,85-0.3
		c14.1,0,28.2,0,42.3,0c14.1,0,28.1,0,42,0c27.9,0,55.7,0.2,83,0.3c13.7,0.1,27.3,0.2,40.8,0.2c13.5,0.1,26.9,0.2,40.2,0.3
		c26.6,0.3,52.8,0.5,78.4,0.9c25.6,0.4,50.7,0.7,75.1,1.2c12.2,0.2,24.2,0.5,36.1,0.7c11.9,0.2,23.5,0.4,35,0.7
		c11.5,0.3,22.8,0.6,33.9,0.8c11.1,0.3,22,0.5,32.6,0.9c10.7,0.3,21.1,0.6,31.3,0.9c10.2,0.3,20.2,0.6,29.9,1
		c9.7,0.4,19.2,0.7,28.4,1c9.2,0.3,18.1,0.6,26.8,1.1c17.4,0.8,33.6,1.5,48.6,2.2c15,0.8,28.8,1.6,41.3,2.3
		c12.5,0.8,23.7,1.6,33.4,2.2c9.7,0.6,18,1.4,24.7,1.9c13.4,1.2,20.6,1.8,20.6,1.8c13.5,1.2,22.5,7.6,20.2,14.4
		c-2.1,6.3-13.2,10.7-25.4,10.4l-1,0c0,0-6.9-0.2-19.9-0.4c-12.9-0.4-32.2-0.5-56.6-0.9c-12.3-0.1-25.9-0.2-40.7-0.2
		c-14.8,0-30.9-0.1-48-0.1c-17.2,0-35.4,0-54.7,0.1c-19.3,0.1-39.6,0.1-60.7,0.2c-42.4,0.2-88.2,0.5-136.8,0.8
		c-48.6,0.3-99.8,0.7-152.8,1c-13.3,0.1-26.6,0.2-40.1,0.3c-13.5,0.1-27,0.2-40.7,0.2c-27.3,0.2-54.9,0.4-82.7,0.6
		c-55.7,0.3-112.3,0.7-168.8,1c-28.3,0.1-56.6,0.3-84.8,0.4c-28.2,0.2-56.3,0.2-84.1,0.3c-27.9,0.1-55.5,0.2-82.8,0.2
		c-13.7,0-27.2,0.1-40.7,0.1c-6.7,0-13.5,0-20.1,0.1c-6.7,0-13.4,0-20,0c-26.5,0-52.6,0-78.2,0c-25.5,0-50.5-0.1-74.9-0.1
		c-24.3-0.1-48-0.1-70.9-0.2c-22.9-0.1-45-0.2-66.3-0.3c-21.2-0.1-41.6-0.3-61-0.4c-19.4-0.2-37.7-0.3-55-0.4
		c-34.5-0.3-64.6-0.7-89.4-1c-24.8-0.3-44.3-0.6-57.6-0.9c-13.3-0.2-20.4-0.4-20.4-0.4l0,0c-13.7-0.3-24.3-6.1-23.8-13
		C142.1,1167.7,151.9,1162.7,164.1,1162.1z"/>
	<path d="M196.3,1283.2c0.5,0,0.9,0,1.3,0c0.4,0,0.8,0,1.1,0c1.3,0.3,2.4,0.9,3.4,1.9c1,1,1.5,2.1,1.5,3.4c0,1.1-0.4,1.9-1.2,2.4
		c-0.8,0.5-2.1,0.7-3.8,0.7c-0.5,0-1.1-0.2-1.7-0.5c-0.6-0.4-1-0.5-1.1-0.5c-1,0.1-1.8,0.6-2.3,1.6c-0.6,1-1,3.9-1.3,8.7
		c-0.2,2.4,0.3,4.2,1.7,5.2c1.3,1,3.4,1.5,6.1,1.5c2.5,0,5-0.6,7.6-1.7c2.5-1.2,5.1-2.8,7.7-4.9c3.3-2.7,4.8-4,4.7-4
		c-0.1,0.1-0.1,0.1,0.1,0c0.5-0.1,1-0.2,1.6-0.2c0.6,0,1.2,0,1.7,0.2c0.6,0.3,1.2,0.7,1.7,1.2c0.5,0.5,0.7,1.1,0.7,1.6
		c-0.1,0.8-0.3,1.5-0.6,2.1c-0.3,0.6-1.7,2-3.9,4c-5,4.4-8.8,7-11.4,8c-2.6,1-5.4,1.4-8.4,1.4c-5.6,0-10.1-1.3-13.3-3.8
		c-3.3-2.5-5-6.8-5.2-12.9c-0.1-0.4-0.1-0.8-0.1-1.1c0-0.3,0-0.6,0.1-0.8c0.3-4.2,1.5-7.4,3.6-9.5
		C188.4,1285.1,191.7,1283.8,196.3,1283.2z"/>
	<path d="M302.5,1311.9c-1.7,0.6-3,1.1-3.9,1.3c-0.9,0.2-1.7,0.3-2.3,0.3c-1.4,0-2.6-0.4-3.6-1.3c-0.9-0.8-1.4-2-1.4-3.4
		c0-0.2,0-0.3,0-0.2c0,0.1,2.2-1.2,6.6-3.8c-0.8-1.4-1.5-3.1-1.9-5.1c-0.4-2-0.6-3.9-0.6-5.9c-0.1-3.9,1.2-7.1,3.8-9.8
		c2.6-2.7,5-3.8,7.2-3.2c3.1,0.9,5.5,2.3,7.2,4.3c1.7,2,2.5,4.6,2.5,7.9c0,2.7-0.6,5.1-1.7,7.1c-1.1,2-2.9,4.2-5.3,6.4
		c1.2,1.1,3.3,2.1,6.1,2.9c2.9,0.9,5.2,1.3,7.1,1.3c4.2,0.1,7.7-0.8,10.5-2.6c2.9-1.8,4.8-2.8,5.9-3.1c0.5-0.1,1.1-0.2,1.6-0.2
		c0.5,0,1,0.1,1.5,0.2c0.7,0.3,1.3,0.6,1.7,1s0.7,0.8,0.7,1.2c0,1-0.4,2-1.3,3c-0.8,1-2.7,2.2-5.7,3.7c-4.3,2.1-7.7,3.4-10.2,3.8
		c-2.5,0.4-5.6,0.6-9.4,0.6c-2.9,0-5.9-0.6-8.9-1.9C305.8,1315.2,303.7,1313.7,302.5,1311.9z M304.9,1301.2c0.5-1.4,0.9-2.5,1.3-3.1
		c0.4-0.7,0.7-1.2,0.7-1.5c0-1.2-0.2-2.6-0.5-4.3c-0.3-1.7-0.6-2.6-0.9-2.6c-0.2,0-0.6,0.5-1,1.4c-0.5,0.9-0.8,1.7-0.9,2.4
		c-0.2,0.4-0.2,0.9-0.2,1.3c0,0.4,0.1,1,0.2,1.5c0.1,0.8,0.2,1.6,0.5,2.4C304.3,1299.7,304.5,1300.5,304.9,1301.2z"/>
	<path d="M414.4,1292.8c1.1,0,2,0.1,2.7,0.4c0.7,0.3,1.8,3.1,3.4,8.3c0,0.3,0.1,0.7,0.3,1c0.2,0.4,0.3,0.8,0.3,1.3
		c0.2,1,0.2,1.6,0.3,1.8c0,0.2,0.1,0.2,0.3,0.2v0.1l2.4-3.4c0.7-1,1.4-1.8,2.2-2.7c0.8-0.8,2.8-2.2,6-4.3c4.1-2.6,6.7-4,7.9-4.2
		c1.2-0.3,2.2-0.3,3.1,0c2.8,0.9,4.3,1.4,4.3,1.4c0.1,0.1,1.3,2.8,3.5,8.1c0,0.2,0.2,0.5,0.5,1c0.3,0.5,0.5,0.9,0.7,1.3
		c0.3,1.5,0.4,2.2,0.3,2.2v0c0.2,0.1,1.7-1.4,4.7-4.5c3-3.1,6.6-4.9,10.7-5.5c3.1-0.4,5.5,0,7.1,1.1c1.6,1.1,2.5,2.9,2.6,5.3
		c0,0.4,0,0.9-0.1,1.6c0,0.7,0,1.2,0.1,1.5c0,1.2,0.1,2.2,0.3,3c0.2,0.9,0.5,1.5,0.9,1.8c2.1,2.2,3.1,3.5,3.1,3.7
		c0,0.2,0.1,0.3,0.1,0.4c0,0.7-0.6,1.6-1.9,2.7c-1.3,1.1-2.2,1.6-2.9,1.6h-1.8l-5.9-3.5c-1.9-1-2.9-1.7-3-2.2
		c-0.1-0.4-0.2-1-0.2-1.8c0-0.3,0.2-0.8,0.7-1.3c0.5-0.6,0.7-1,0.7-1.3c0-0.1,0-0.5-0.1-1.1c-0.1-0.6-0.1-1.1,0-1.6
		c0.1-1.3,0.1-2.1,0-2.1h-0.1c0,0-1.5,1.3-4.5,4l-9.5,8.3h-1.6c-1.1,0-1.6,0-1.6,0c0,0-2.4-4.2-7.1-12.6c-0.2-0.1-0.5-0.4-1-0.9
		c-0.5-0.5-0.8-0.9-1-1.4c-0.5-0.8-0.7-1.3-0.7-1.3l-0.2-0.1c-0.4,0-1.1,0.7-2.1,2.2c-0.4,0.4-0.9,0.7-1.4,1c-0.6,0.3-1,0.7-1.4,1.1
		c-0.6,0.8-1,1.3-1.2,1.5c-0.2,0.2-0.4,0.4-0.6,0.7c-0.8,0.8-1.4,1.3-1.6,1.6c-0.2,0.3-0.5,0.6-0.8,1c-2.6,3.4-3.9,5.1-3.8,5.1
		l-0.1,0c-1.2,1.4-2.3,2.4-3.3,2.9c-1,0.5-2.1,0.8-3.2,0.8c-2.4,0-4.1-0.5-5.2-1.5c-1.1-1-2.1-4.1-3-9.2l-0.9-4.6l-0.1-0.3
		c-0.6-1.3-1-2.4-1.2-3.1c-0.2-0.7-0.3-1.4-0.3-2.2c0-1,0.3-1.9,1-2.5C412.1,1293.3,413.1,1292.9,414.4,1292.8z M470.3,1271.9
		c0.8,0,1.5,0.2,1.9,0.6c0.5,0.4,0.7,0.9,0.7,1.6c0,2.3-3.2,5.1-9.7,8.2c-6.5,3.2-12,4.8-16.6,5c-0.2,0.1-0.6,0.1-1,0
		c-0.5,0-0.8,0-1,0c-1.2,0.1-2.4,0.3-3.4,0.6c-1.1,0.3-2.7,0.4-4.8,0.4c-1.8,0.1-3.2-0.2-4-0.8c-0.9-0.6-1.3-1.5-1.2-2.7
		c0-1.3,0.6-2.4,1.7-3c1.1-0.7,3.9-1,8.3-0.9c3.3,0.1,8.9-1.3,16.8-4.4C465.7,1273.5,469.9,1271.9,470.3,1271.9z"/>
	<path d="M566.8,1296.8c2-2.4,4.3-4.2,7.1-5.4c2.7-1.3,5.3-1.9,7.6-1.9c3.1,0,5.6,1,7.6,2.9c1.9,1.9,2.9,4.3,3,7
		c0,5.3-1.6,9.9-4.7,13.7c-3.2,3.8-7.6,5.7-13.3,5.7c-4.1,0-7.9-0.9-11.3-2.7c-3.5-1.8-5.2-4.1-5.2-6.9c0-0.4,0-1.1,0-2
		c0-0.9,0-1.5,0.1-2c0-2.6,0-3.9-0.1-3.9h0.1c0-0.4,0.2-1.1,0.5-2.2c0.3-1.1,0.5-1.9,0.5-2.5c0-2.1-0.2-4.3-0.7-6.7
		c-0.5-2.4-0.7-3.9-0.7-4.4c0-0.1,0.1-0.3,0.2-0.5c0.2-0.2,0.2-0.4,0.2-0.5c0-0.2-0.2-0.5-0.5-1c-0.3-0.4-0.5-0.8-0.5-1.2
		c-0.1-1.2,0.4-2.2,1.5-2.9c1.1-0.7,2.4-1.1,4-1.1c1,0.1,1.9,0.3,2.8,0.8c0.9,0.5,1.3,1,1.4,1.5c0,0.2,0,0.5-0.1,0.9
		c-0.1,0.4-0.1,0.7-0.1,0.9c0,0.3,0.1,0.8,0.2,1.3c0.1,0.5,0.2,0.9,0.2,1.2c0,0.6,0,1.4-0.1,2.5c0,1.1-0.1,1.8-0.1,2.4
		c0,0.2,0,0.4,0,0.6c0,0.2,0,0.4,0.1,0.4v0.2c0,0.1,0,0.3,0,0.5c0,0.1,0,0.2,0,0.3l0.1,0.2c0,0.1,0,0.4,0.1,0.8
		c0.1,0.4,0.1,0.7,0.1,0.9c0,0.5,0,1-0.1,1.5C566.8,1296.1,566.8,1296.5,566.8,1296.8z M573.6,1311.3c1.7,0,3.5-0.9,5.6-2.6
		c2.1-1.7,3.3-3.3,3.6-4.9c0-0.1,0-0.2,0-0.3c0-0.2,0-0.8,0-1.8c-0.2-1.5-0.5-2.6-1-3.2c-0.5-0.6-1.2-0.9-2.2-1
		c-1.5,0.1-4,1.3-7.3,3.7c-3.3,2.4-5,4.3-5,5.6c-0.1,1.7,0.4,2.9,1.5,3.5C569.9,1311.1,571.5,1311.3,573.6,1311.3z"/>
	<path d="M785.4,1283.6c2.1,1.1,3.4,2.2,3.9,3.4c0.5,1.2,0.3,2.6-0.6,4.2c-0.7,1.3-2.1,2.9-4.1,4.5s-3,2.6-3,2.7
		c-0.1,0.1,0.6,0.3,2.1,0.5c1.4,0.2,2.9,0.6,4.3,1c4,1.4,6.8,3.4,8.5,6c1.7,2.6,2.5,5.7,2.5,9.5c-0.2,2.8-1.4,7-3.8,12.5
		c-2.4,5.5-4.8,10-7.4,13.4c-2.3,3-5.3,5.6-9,7.7c-3.7,2.1-7,3.1-9.9,3.1c-4,0-7.4-1.1-10-3.3c-2.6-2.2-4.9-5.7-6.9-10.5
		c-0.3-1-0.8-3-1.4-6.2c-0.6-3.1-0.9-5.3-0.9-6.4c0-1.2,0.5-2.4,1.5-3.5c1-1.1,2.1-1.6,3.4-1.6c1.8,0,3,0.4,3.8,1.3
		c0.8,0.9,1.1,2.7,1.1,5.3c0,0.4-0.1,1-0.4,1.8c-0.3,0.8-0.4,1.5-0.4,1.9c0,3.2,1.1,6.4,3.2,9.4c2.1,3.1,4.8,4.5,7.9,4.1l5-0.7
		l6.3-8.4c5.6-7.8,8.6-12.5,8.8-14c0.3-1.5,0.4-3.3,0.5-5.4c0-3.7-1-6.5-3.1-8.2c-2.1-1.8-5.4-2.7-9.9-2.7c-0.3,0-0.7,0-1.3,0.1
		c-0.5,0.1-1,0.1-1.3,0c-3,0-4.8-0.1-5.4-0.3c-0.6-0.2-0.9-0.5-0.9-1c0-1.1,0.3-2.3,1-3.6c0.7-1.3,1.7-2.5,3-3.8c4-3.9,6-5.8,6-6
		c0.1-0.1,0.1-0.3,0.1-0.4c0-0.3-0.3-0.7-1-1c-0.7-0.4-1.3-0.5-1.8-0.5c-1.5,0-3.6,0.5-6.1,1.4c-2.5,0.9-4.4,1.4-5.6,1.4
		c-0.6,0.1-1.1-0.2-1.5-0.7c-0.4-0.5-0.6-1.1-0.6-1.7c0-2.1,1.3-3.9,4-5.3c2.7-1.4,6.5-2.1,11.5-2.1c1.9,0,3.3,0.1,4.3,0.3
		C782.9,1282.5,784.1,1283,785.4,1283.6z"/>
	<path d="M891.1,1282.1c1.9,0.1,3.3,0.2,4.2,0.5c0.9,0.3,3.2,1.8,6.9,4.7c2.9,2.3,4.9,4.4,5.9,6.3c1.1,1.9,1.7,4,2.1,6.5
		c0.5,5.3-1.5,9.9-6.1,13.8c-4.6,3.9-9.4,5.9-14.5,5.9c-3.6,0-6.7-0.8-9.1-2.3c-2.4-1.5-4.1-3.7-4.9-6.7c-0.6-1.8-1.1-4-1.4-6.6
		c-0.3-2.6-0.4-4.5-0.1-5.7c1-5,3-9,5.9-12C882.9,1283.5,886.7,1282,891.1,1282.1z M890.8,1289.8c-2.3,0-4.4,1.6-6.2,4.9
		c-1.9,3.2-2.1,6.1-0.9,8.5c0.1,0.3,0.4,0.8,1.1,1.7c0.6,0.9,1,1.6,1,2.1c0,0.3-0.1,0.7-0.3,1.3c-0.2,0.5-0.3,0.9-0.3,1.2
		c0,0.6,0.4,1.2,1.1,1.7c0.8,0.5,1.6,0.8,2.4,0.8c2.5,0,4.9-0.8,7.1-2.3c2.2-1.5,3.9-3.8,5-6.8c1.1-2.8,0.2-5.6-2.6-8.6
		C895.4,1291.2,892.9,1289.8,890.8,1289.8z"/>
	<path d="M1002.6,1282.1c1.9,0.1,3.3,0.2,4.2,0.5c0.9,0.3,3.2,1.8,6.9,4.7c2.9,2.3,4.9,4.4,5.9,6.3c1.1,1.9,1.7,4,2.1,6.5
		c0.5,5.3-1.5,9.9-6.1,13.8c-4.6,3.9-9.4,5.9-14.5,5.9c-3.6,0-6.7-0.8-9.1-2.3c-2.4-1.5-4.1-3.7-4.9-6.7c-0.6-1.8-1.1-4-1.4-6.6
		c-0.3-2.6-0.4-4.5-0.1-5.7c1-5,3-9,5.9-12C994.3,1283.5,998.1,1282,1002.6,1282.1z M1002.2,1289.8c-2.3,0-4.4,1.6-6.2,4.9
		c-1.9,3.2-2.1,6.1-0.9,8.5c0.1,0.3,0.4,0.8,1.1,1.7c0.6,0.9,1,1.6,1,2.1c0,0.3-0.1,0.7-0.3,1.3c-0.2,0.5-0.3,0.9-0.3,1.2
		c0,0.6,0.4,1.2,1.1,1.7c0.8,0.5,1.6,0.8,2.4,0.8c2.5,0,4.9-0.8,7.1-2.3c2.2-1.5,3.9-3.8,5-6.8c1.1-2.8,0.2-5.6-2.6-8.6
		C1006.8,1291.2,1004.3,1289.8,1002.2,1289.8z"/>
	<path d="M1126,1283.7c2.1,0.1,3.6,0.4,4.5,1.1c0.9,0.7,1.3,2.5,1.4,5.3c0,1.2,0,2.3-0.1,3.5c-0.1,1.2-0.2,2.5-0.3,3.9
		c-0.4,2.8-0.6,4.1-0.5,4l0.1,0c-0.1,0.2-0.1,0.6-0.1,1.2c0,0.6,0,1,0,1.3c-0.1,0.1-0.1,0.4-0.2,0.7c0,0.4-0.1,0.6-0.1,0.8l-0.1,0.9
		h0.1c0.2,0,0.8-0.8,1.8-2.3c1-1.5,1.9-2.8,2.8-3.9c0.6-0.8,1.2-1.6,1.8-2.4c0.6-0.8,1.6-2.4,3-4.6c0.2-0.4,0.5-0.8,0.7-1.2
		c0.2-0.3,0.5-0.6,0.7-1c0.2-0.2,0.5-0.6,1.1-1.3c0.6-0.7,1-1.2,1.3-1.7c0.7-1.1,1.3-1.7,2-2c0.6-0.2,1.6-0.3,2.9-0.3
		c1.4,0.1,2.5,0.3,3.2,0.8c0.7,0.5,1.3,5.1,1.8,13.8c0,0.4,0,0.8,0,1.2s0,1.2,0,2.5c-0.1,2.3,0.2,3.9,0.9,4.7
		c0.7,0.8,1.9,1.3,3.5,1.3c0.5,0,1.3-0.2,2.6-0.6c1.3-0.4,2.5-0.9,3.7-1.6c4.3-2.1,6.3-3.2,6.1-3.2c-0.2,0-0.2,0-0.1,0
		c2.4,0.2,3.6,1.4,3.5,3.5c-0.1,2.2-1.5,3.9-4.3,5.2c-4.5,2.1-7.5,3.3-9,3.7c-1.5,0.4-3.1,0.6-4.8,0.6c-3.3,0-5.9-0.9-7.8-2.7
		c-1.9-1.8-2.8-4.7-2.9-8.9c-0.2-4.4-0.3-6.6-0.3-6.6l-0.2,0.1c0,0.1-0.9,1.6-2.6,4.5c-0.2,0.3-0.2,0.4-0.2,0.3c0,0-1.7,2.1-5.1,6.3
		c-3.1,3.8-5.2,5.8-6.2,6.2c-1,0.3-2,0.5-3,0.5c-1.9,0-3.3-0.5-4.2-1.4c-0.9-0.9-1.3-2.4-1.2-4.5c0-0.2,0-0.6-0.1-1.3
		c0-0.7,0-1.2,0.1-1.6c0-0.2,0-0.6,0.1-1.3c0-0.6,0.1-1.2,0.1-1.5c0-0.3,0-0.8-0.1-1.5c-0.1-0.7-0.1-1.2-0.1-1.6
		c0-0.8,0.2-2.2,0.6-4c0.4-1.8,0.6-3.2,0.6-4.2c0-0.6-0.1-1-0.3-1.3c-0.2-0.3-0.6-0.4-1.2-0.4c-0.2,0-0.3,0-0.3,0.1
		c-0.1,0.1-1.2,3.7-3.4,10.9c-1.4,4.6-3.4,8-5.9,10.5c-2.5,2.4-5.3,3.6-8.3,3.6c-2.3-0.1-4.2-0.7-5.6-1.8c-1.5-1.1-2.2-2.6-2.1-4.5
		c0-1,0.4-2,1.2-2.8c0.8-0.8,1.7-1.3,2.8-1.3c1.2,0,2.1,0.4,2.7,1.2c0.6,0.8,1.3,1.2,2.1,1.2c1.1,0,2.4-1.1,3.6-3.4
		c1.3-2.3,2.5-5.4,3.6-9.3c1.8-6.8,3.7-10.8,5.8-11.9C1119.8,1284.2,1122.5,1283.6,1126,1283.7z"/>
	<path d="M1258,1280.1c0.8,0,1.6,0.1,2.4,0.2c0.8,0.2,2.6,1.2,5.6,3.1c1.4,1,2.2,1.7,2.3,1.9c0.1,0.2,0.2,0.5,0.2,0.9
		c0,0.8,0,1.2,0.1,1.3c0,0.1,0.1,0.2,0.3,0.2c0.2,0,0.9-0.2,1.9-0.5c1.1-0.4,2-0.5,2.7-0.5c1.3,0,2.4,1.1,3.4,3.3
		c0.9,2.2,1.4,4.7,1.4,7.4c0,0.4,0,1.1-0.1,1.8c0,0.8-0.1,1.3-0.1,1.6c0,0.3,0.2,0.7,0.6,1.4c0.4,0.7,0.6,1.6,0.5,2.7
		c-0.2,0.8-0.2,1.3-0.2,1.6c0,0.3,0.1,0.5,0.2,0.7c0.1,0.4,0.4,1.1,0.9,2.2c0.5,1.1,0.9,1.7,1.1,2c1.5,2.1,2.3,3.2,2.3,3.2l0.1,0.1
		c-0.1,2.4-0.4,3.8-0.9,4.3c-0.5,0.5-1.3,0.7-2.3,0.7c-1.1,0-1.9-0.1-2.5-0.2c-0.6-0.2-1.6-0.8-3-1.9c-1.7-1.3-2.5-2.1-2.6-2.1
		c0-0.1-0.1-0.4-0.1-1.2l0.1-0.8l-0.7-1.3c-0.2-0.3-0.4-0.6-0.5-1.2c-0.1-0.5-0.2-0.9-0.2-1.2c-0.2-0.2-0.4-0.5-0.7-1.1
		c-0.3-0.5-0.5-0.9-0.5-1.3c-0.2-0.3-0.2-0.8-0.1-1.4c0.1-0.6,0.1-1,0.1-1.2l-0.1-0.1l0.1-0.1v-0.4v-0.1c-0.1,0-0.2,0-0.3-0.1
		c-0.1-0.1-0.2-0.1-0.3-0.1l-0.2,0c-0.1,0-0.3,0.1-0.6,0.2c-0.3,0.2-0.6,0.3-1,0.4c-0.3,0.1-1.1,0.1-2.3,0c-0.9,0-1.5,0.1-1.8,0.3
		c-0.3,0.2-0.6,0.9-1.1,2.1c-0.5,1.3-1.7,2.5-3.5,3.7c-1.8,1.2-3.3,2.2-4.3,3.1c-1.1,0.8-2,1.4-2.8,1.8c-0.8,0.4-2.1,0.5-4,0.5
		c-2.4,0-4.6-0.8-6.4-2.3c-1.8-1.5-2.7-3.2-2.6-5.1c0-0.5,0.2-1.5,0.7-2.9c0.5-1.4,0.8-2.7,1.1-3.9c0.5-2.1,0.8-3.9,1.1-5.5
		c0.3-1.6,1.2-3.8,2.8-6.5c2.1-3.5,4.2-6.2,6.3-7.9C1252.9,1281,1255.3,1280.1,1258,1280.1z M1257.4,1288.3
		c-0.5,0.1-0.8,0.1-1.1,0.2c-0.3,0.1-2.3,3-5.9,8.9c-0.5,0.9-1,2.5-1.4,4.7c-0.4,2.2-0.6,4.3-0.5,6.1c-0.1,0.2-0.1,0.3-0.1,0.3
		l0.2,0c1.2,0,3.7-2.1,7.5-6.2c3.8-4.1,5.7-6.8,5.7-8l-0.1-0.2c0-0.1-0.2-0.5-0.5-1.3l-0.1,0c0,0-0.2-0.7-0.6-2.3
		c-0.2-0.6-0.7-1.2-1.4-1.7C1258.5,1288.6,1257.9,1288.3,1257.4,1288.3z"/>
	<path d="M1365.9,1290c0.7,0,1.4,0.2,2.2,0.6c0.8,0.4,1.3,0.8,1.7,1.3c0.2,0.3,0.2,0.6,0.3,1c0,0.3-0.1,1.3-0.3,3.1
		c-0.2,0.5-0.2,1.2-0.3,2.1c0,0.9-0.1,1.5-0.1,1.8c-0.1,0.2-0.1,0.4-0.2,0.7c0,0.3-0.1,0.5-0.1,0.6c-0.1,0.3-0.1,0.5-0.1,0.5l0.1,0
		c0.1,0,2.2-1.7,6.3-5c2.4-1.9,4.4-3.1,6.1-3.6c1.7-0.5,3.9-0.9,6.6-1.3c3.3-0.4,6.1,0.5,8.5,2.6c2.4,2.1,3.6,4.2,3.6,6.4
		c-0.1,0.9-0.3,1.8-0.6,2.7c-0.3,0.9-2.1,3.7-5.4,8.4c-1.9,2.7-3.7,4.4-5.5,5c-1.7,0.6-4,1-6.6,1.3c-0.8,0.1-2.4-0.2-4.8-0.9
		c-2.4-0.7-4.8-1.6-7.3-2.7c-0.8,1.3-1.4,3.5-1.9,6.5c-0.5,3-0.9,6.7-1.1,11.3c-0.1,0.1-0.1,0-0.1-0.1c0-0.1,0.1,2.4,0.1,7.5
		c-0.1,3-0.6,5.3-1.5,7c-1,1.7-2,2.6-3.1,2.7c-1.2,0-2.7-0.4-4.3-1.2c-1.7-0.8-2.5-1.5-2.5-2.3c0-0.2,0.1-0.5,0.2-0.9
		c0.1-0.4,0.2-0.7,0.2-0.9c0-0.8-0.2-1.5-0.7-2.1c-0.5-0.6-0.7-1.6-0.7-3c0-1.9,0.4-3.5,1.1-4.8c0.8-1.3,1.2-2.6,1.4-3.8
		c0-0.2,0-0.4,0-0.6c0-0.2,0-0.4,0-0.6c-0.2-1.9-0.3-3.1-0.2-3.5c0.1-0.4,0.5-1,1.2-1.7c0.5-0.5,0.8-0.9,0.9-1.2
		c0.2-0.3,0.2-0.6,0.2-0.9c0.1-0.6,0.1-1.5,0.1-2.5c0-1,0-2.4,0.1-4c0.1-1.6,0.3-3.7,0.6-6.2c0.3-2.5,0.5-4.3,0.5-5.4
		c0-0.6-0.1-1.6-0.2-3c-0.2-1.4-0.2-2.4-0.2-3.1c0-2.2,0.6-4.1,1.9-5.6C1363.2,1290.7,1364.5,1290,1365.9,1290z M1374.9,1308.1
		c0.5,0.4,1.6,0.9,3.3,1.5c1.7,0.5,3,0.8,3.9,0.6c1.1-0.1,2.5-0.9,4.3-2.4c1.8-1.5,2.8-2.8,3-4v-0.2v-1.6c-0.1-0.7-0.2-1.2-0.5-1.3
		c-0.3-0.2-0.7-0.3-1.3-0.4c-2.8,0-4.8,0.6-5.9,1.8c-1.1,1.2-2.2,2.2-3.2,3c-1.2,0.9-2,1.5-2.4,1.9
		C1375.7,1307.3,1375.3,1307.7,1374.9,1308.1z"/>
	<path d="M1481.9,1284.8c0.3,0.3,0.5,0.6,0.7,1.1c0.2,0.4,0.3,1.6,0.3,3.4c0,1-0.1,2.3-0.2,3.8c-0.2,1.5-0.2,2.5-0.2,3.1
		c-0.1,0.6-0.1,1.2-0.1,1.7c0,0.5,0,0.9,0.1,1.3c0,1,0.2,2.5,0.5,4.5c0.3,2,0.6,3,0.9,3c-0.2,0.1,0.3-0.5,1.3-1.6
		c0.2-0.3,0.6-0.5,1-0.8c0.5-0.3,0.8-0.5,0.9-0.6c0.7-0.6,1.2-1.8,1.7-3.6c0.4-1.7,2.6-4,6.4-6.8c3.6-2.6,6.1-4.3,7.6-5
		c1.5-0.7,2.7-0.9,3.6-0.6c0.7,0.3,1.5,0.9,2.3,1.8c0.9,0.9,1.3,1.7,1.3,2.4c0,0.5-0.2,1-0.5,1.5c-0.3,0.5-2.8,2.1-7.2,5
		c-2.2,1.4-3.5,2.5-3.8,3.2c-0.3,0.7-0.5,1.7-0.5,2.7c-0.1,2.1,0.5,3.7,1.6,4.7c1.1,1,2.9,1.5,5.2,1.5c1.1,0,2.2-0.1,3.4-0.3
		c1.2-0.2,2.5-0.6,3.9-1.2c1.1-0.4,2-0.8,2.8-1.3c0.8-0.5,1.7-1.1,2.6-1.8c1.3-1,2.4-1.7,3.4-2c1-0.3,2-0.3,3,0
		c0.7,0.3,1.3,0.8,1.8,1.5c0.5,0.7,0.7,1.4,0.7,2.1c0,0.6-0.6,1.4-1.8,2.4c-1.2,1-3.1,2.3-5.6,4c-2.3,1.4-4.7,2.5-7.2,3.2
		c-2.5,0.7-5.8,1.1-9.6,1.1c-1.1,0-2.8-0.4-5-1.1c-2.2-0.7-3.6-1.4-4.3-2.1c-2.2-1.8-3.4-2.7-3.5-2.7c-0.1,0-0.2,0-0.3-0.1
		c-0.4,0-0.7,0.1-1,0.3c-0.3,0.2-0.9,0.8-1.7,1.8c-0.8,1-1.7,1.7-2.6,2.2c-0.9,0.5-1.8,0.8-2.7,0.8c-1.2,0-2.2-0.3-3.1-1
		c-0.8-0.6-1.7-3-2.5-7.1c-0.2-0.5-0.5-1.4-1-2.6c-0.5-1.2-0.7-2.1-0.7-2.7c-0.1-0.4-0.1-1.1,0-2c0.1-0.9,0.1-1.5,0.1-1.8
		c0-0.3-0.1-0.8-0.2-1.4c-0.2-0.6-0.2-1.1-0.2-1.4c0-0.6,0.1-1.4,0.2-2.4c0.2-1,0.3-1.7,0.3-2.2v-0.2c0-0.1,0-0.9,0-2.4
		c-0.1-2.1,0.2-3.5,0.7-4.5c0.6-0.9,1.9-1.4,3.9-1.4c1,0,1.7,0,2.2,0.1C1481.2,1284.5,1481.6,1284.6,1481.9,1284.8z"/>
	<path d="M1597.9,1311.9c-1.7,0.6-3,1.1-3.9,1.3c-0.9,0.2-1.7,0.3-2.3,0.3c-1.4,0-2.6-0.4-3.6-1.3c-0.9-0.8-1.4-2-1.4-3.4
		c0-0.2,0-0.3,0-0.2c0,0.1,2.2-1.2,6.6-3.8c-0.8-1.4-1.5-3.1-1.9-5.1c-0.4-2-0.6-3.9-0.6-5.9c-0.1-3.9,1.2-7.1,3.8-9.8
		c2.6-2.7,5-3.8,7.2-3.2c3.1,0.9,5.5,2.3,7.2,4.3c1.7,2,2.5,4.6,2.5,7.9c0,2.7-0.6,5.1-1.7,7.1c-1.1,2-2.9,4.2-5.3,6.4
		c1.2,1.1,3.2,2.1,6.1,2.9c2.9,0.9,5.2,1.3,7.1,1.3c4.2,0.1,7.7-0.8,10.5-2.6c2.9-1.8,4.8-2.8,5.9-3.1c0.5-0.1,1.1-0.2,1.6-0.2
		c0.5,0,1,0.1,1.5,0.2c0.7,0.3,1.3,0.6,1.7,1c0.5,0.4,0.7,0.8,0.7,1.2c0,1-0.4,2-1.3,3c-0.8,1-2.7,2.2-5.7,3.7
		c-4.3,2.1-7.7,3.4-10.2,3.8c-2.5,0.4-5.6,0.6-9.4,0.6c-2.9,0-5.9-0.6-8.9-1.9C1601.2,1315.2,1599.1,1313.7,1597.9,1311.9z
		 M1600.2,1301.2c0.5-1.4,0.9-2.5,1.3-3.1c0.4-0.7,0.7-1.2,0.7-1.5c0-1.2-0.2-2.6-0.5-4.3c-0.3-1.7-0.6-2.6-0.9-2.6
		c-0.2,0-0.6,0.5-1,1.4c-0.5,0.9-0.8,1.7-0.9,2.4c-0.2,0.4-0.2,0.9-0.2,1.3c0,0.4,0.1,1,0.2,1.5c0.1,0.8,0.2,1.6,0.5,2.4
		C1599.7,1299.7,1599.9,1300.5,1600.2,1301.2z"/>
	<path d="M1709.8,1292.8c1.1,0,2,0.1,2.7,0.4c0.7,0.3,1.8,3.1,3.4,8.3c0,0.3,0.1,0.7,0.3,1c0.2,0.4,0.3,0.8,0.3,1.3
		c0.2,1,0.2,1.6,0.3,1.8c0,0.2,0.1,0.2,0.3,0.2v0.1l2.4-3.4c0.7-1,1.4-1.8,2.2-2.7c0.8-0.8,2.8-2.2,6-4.3c4.1-2.6,6.7-4,7.9-4.2
		c1.2-0.3,2.2-0.3,3.1,0c2.8,0.9,4.3,1.4,4.3,1.4c0.1,0.1,1.3,2.8,3.5,8.1c0,0.2,0.2,0.5,0.5,1c0.3,0.5,0.5,0.9,0.7,1.3
		c0.3,1.5,0.4,2.2,0.3,2.2v0c0.2,0.1,1.7-1.4,4.7-4.5c3-3.1,6.6-4.9,10.7-5.5c3.1-0.4,5.5,0,7.1,1.1c1.6,1.1,2.5,2.9,2.6,5.3
		c0,0.4,0,0.9-0.1,1.6c0,0.7,0,1.2,0.1,1.5c0,1.2,0.1,2.2,0.3,3c0.2,0.9,0.5,1.5,0.9,1.8c2.1,2.2,3.1,3.5,3.1,3.7
		c0,0.2,0.1,0.3,0.1,0.4c0,0.7-0.6,1.6-1.9,2.7c-1.3,1.1-2.2,1.6-2.9,1.6h-1.8l-5.9-3.5c-1.9-1-2.9-1.7-3-2.2
		c-0.1-0.4-0.2-1-0.2-1.8c0-0.3,0.2-0.8,0.7-1.3c0.5-0.6,0.7-1,0.7-1.3c0-0.1,0-0.5-0.1-1.1c-0.1-0.6-0.1-1.1,0-1.6
		c0.1-1.3,0.1-2.1,0-2.1h-0.1c0,0-1.5,1.3-4.5,4l-9.5,8.3h-1.6c-1.1,0-1.6,0-1.6,0c0,0-2.4-4.2-7.1-12.6c-0.2-0.1-0.5-0.4-1-0.9
		c-0.5-0.5-0.8-0.9-1-1.4c-0.5-0.8-0.7-1.3-0.7-1.3l-0.2-0.1c-0.4,0-1.1,0.7-2.1,2.2c-0.4,0.4-0.9,0.7-1.4,1c-0.6,0.3-1,0.7-1.4,1.1
		c-0.6,0.8-1,1.3-1.2,1.5c-0.2,0.2-0.4,0.4-0.6,0.7c-0.8,0.8-1.4,1.3-1.6,1.6c-0.2,0.3-0.5,0.6-0.8,1c-2.6,3.4-3.9,5.1-3.8,5.1
		l-0.1,0c-1.2,1.4-2.3,2.4-3.3,2.9c-1,0.5-2.1,0.8-3.2,0.8c-2.4,0-4.1-0.5-5.2-1.5c-1.1-1-2.1-4.1-3-9.2l-0.9-4.6l-0.1-0.3
		c-0.6-1.3-1-2.4-1.2-3.1c-0.2-0.7-0.3-1.4-0.3-2.2c0-1,0.3-1.9,1-2.5C1707.5,1293.3,1708.5,1292.9,1709.8,1292.8z M1765.7,1271.9
		c0.8,0,1.5,0.2,1.9,0.6c0.5,0.4,0.7,0.9,0.7,1.6c0,2.3-3.2,5.1-9.7,8.2c-6.5,3.2-12,4.8-16.6,5c-0.2,0.1-0.6,0.1-1,0
		c-0.5,0-0.8,0-1,0c-1.2,0.1-2.4,0.3-3.4,0.6c-1.1,0.3-2.7,0.4-4.8,0.4c-1.8,0.1-3.2-0.2-4-0.8c-0.9-0.6-1.3-1.5-1.2-2.7
		c0-1.3,0.6-2.4,1.7-3c1.1-0.7,3.9-1,8.3-0.9c3.3,0.1,8.9-1.3,16.8-4.4C1761.1,1273.5,1765.3,1271.9,1765.7,1271.9z"/>
	<path d="M1870.6,1282.1c1.9,0.1,3.3,0.2,4.2,0.5c0.9,0.3,3.2,1.8,6.9,4.7c2.9,2.3,4.9,4.4,5.9,6.3c1.1,1.9,1.7,4,2.1,6.5
		c0.5,5.3-1.5,9.9-6.1,13.8c-4.6,3.9-9.4,5.9-14.5,5.9c-3.6,0-6.7-0.8-9.1-2.3c-2.4-1.5-4.1-3.7-4.9-6.7c-0.6-1.8-1.1-4-1.4-6.6
		c-0.3-2.6-0.4-4.5-0.1-5.7c1-5,3-9,5.9-12C1862.4,1283.5,1866.2,1282,1870.6,1282.1z M1870.3,1289.8c-2.3,0-4.4,1.6-6.2,4.9
		c-1.9,3.2-2.1,6.1-0.9,8.5c0.1,0.3,0.4,0.8,1.1,1.7c0.6,0.9,1,1.6,1,2.1c0,0.3-0.1,0.7-0.3,1.3c-0.2,0.5-0.3,0.9-0.3,1.2
		c0,0.6,0.4,1.2,1.1,1.7c0.8,0.5,1.6,0.8,2.4,0.8c2.5,0,4.9-0.8,7.1-2.3c2.2-1.5,3.9-3.8,5-6.8c1.1-2.8,0.2-5.6-2.6-8.6
		C1874.9,1291.2,1872.4,1289.8,1870.3,1289.8z"/>
	<path d="M1993,1245.5c3.6,0,6.6,1.3,9,3.9c2.3,2.6,3.5,5.7,3.5,9.3c0,5.7-2.5,11.1-7.6,16c-5.1,4.9-11.8,8.7-20.2,11.2
		c-0.2,0.8-0.3,2-0.5,3.7c-0.2,1.7-0.2,2.8-0.2,3.4v0.2c0,0.1,0.1,0.4,0.3,1c0.2,0.6,0.3,1.3,0.5,2c0.2,0.7,0.5,1.7,0.9,2.9
		c0.9,3.9,2.3,6.7,4.1,8.5c1.8,1.7,4.3,2.6,7.3,2.6c3.4,0,6-0.8,7.6-2.3c1.7-1.5,2.5-3.7,2.5-6.7c0-2.5-0.9-4.6-2.8-6.2
		c-1.9-1.6-3.9-2.5-6.2-2.5c-0.5,0-1.3,0.2-2.3,0.5c-1,0.3-1.7,0.6-2.1,0.9c-0.5,0.3-1,1.1-1.8,2.2c-0.7,1.2-1.6,1.7-2.6,1.7
		c-1.6,0-2.7-0.4-3.3-1.1c-0.6-0.7-0.9-1.8-0.9-3.3c0-2.6,1.4-4.6,4.2-6.2c2.8-1.6,6-2.4,9.8-2.4c5.6,0,9.9,1.6,12.9,4.8
		c3,3.2,4.4,7.2,4.4,12.2c0,5.2-1.7,9.2-5.2,12c-3.5,2.8-8.5,4.3-14.9,4.3c-5.3,0-9.8-1.7-13.5-5.2c-3.7-3.4-5.9-7.2-6.7-11.4
		c-1.1-5.7-1.6-8.9-1.6-9.9c0-0.9,0.1-2.3,0.2-4.1c-5.6,0.1-10.1-0.4-13.6-1.5c-3.5-1.1-5.3-2.7-5.3-4.7c0-1.4,0.5-2.9,1.4-4.5
		c0.9-1.6,2-2.4,3.3-2.4c1,0,1.9,0.6,2.8,1.7c0.9,1.1,2.2,1.9,4,2.4c2.6,0.7,4.4,1.1,5.5,1.1c1.1,0,2.2-0.1,3.5-0.4
		c1.6-12,4.4-20.6,8.3-25.9C1981.5,1248.2,1986.6,1245.5,1993,1245.5z M1979.2,1277.3c4.8-1.9,8.7-4.5,11.7-7.8
		c3-3.2,4.5-6.3,4.6-9.3c0-2-0.4-3.6-1.1-5c-0.7-1.3-1.7-2-2.8-2c-1.8,0-3.5,1-5,2.9C1985.1,1258.2,1982.6,1265.2,1979.2,1277.3z"/>
</g>
</svg>
