<?xml version="1.0" standalone="no"?>
<!DOCTYPE svg PUBLIC "-//W3C//DTD SVG 1.1//EN" "http://www.w3.org/Graphics/SVG/1.1/DTD/svg11.dtd" >
<svg xmlns="http://www.w3.org/2000/svg" xmlns:xlink="http://www.w3.org/1999/xlink" version="1.1">
<metadata>
Copyright   : Copyright 2015 Luc(as) de Groot. All rights reserved. Published by LucasFonts.com
Designer    : Luc(as) de Groot
Foundry     : LucasFonts
Foundry URL : http://lucasfonts.com
</metadata>
<defs>
<font id="CorpidE3SCd_500_" horiz-adv-x="1024" >
<font-face units-per-em="2048" ascent="1596" descent="-452" />
<missing-glyph horiz-adv-x="497" />
<glyph unicode="fb" horiz-adv-x="1707" d="M764 1400q-26 4 -50 6t-47 4t-43 3t-40 1q-44 0 -77.5 -10t-57 -27.5t-39 -42t-24.5 -55.5t-12.5 -66.5t-3.5 -74.5v-94h214v-140h-214v-904h-179v904h-148v140h148v86q0 66 8.5 123.5t27 105t48.5 84.5t74.5 62.5t103.5 39t135 13.5q44 0 89 -2.5t90 -6.5t89 -9.5 t86 -11.5v-621q32 39 66.5 69t72 50t80.5 31t94 11q64 0 116 -19t92.5 -52t69.5 -80t48 -103t28 -121t9 -135q0 -78 -12.5 -151t-38 -137t-65 -116t-93.5 -90t-123 -58q-68 -21 -154 -21q-46 0 -94 4.5t-94 12t-92 18.5t-88 25v1355zM942 168q22 -10 46 -17.5t49.5 -13 t52.5 -8t56 -2.5q72 0 125 28.5t88 82t52 131t17 175.5q0 47 -4 93.5t-13.5 88t-25 77t-39 61.5t-55.5 41q-31 15 -73 15q-35 0 -67.5 -9.5t-65.5 -31t-67 -57.5q-36 -36 -76 -89v-565z" />
<glyph unicode="fh" horiz-adv-x="1717" d="M1396 0v633q0 42 -3.5 80t-12 69.5t-22.5 56.5t-34 43t-47 27t-61 9q-40 0 -74 -11t-66 -33t-64 -56t-70 -81v-737h-178v1400q-26 4 -50 6t-47 4t-43 3t-40 1q-44 0 -77.5 -10t-57 -28t-39 -43t-24.5 -55.5t-12.5 -66t-3.5 -75.5v-92h214v-140h-214v-904h-179v904h-148 v140h148v86q0 66 8.5 123t27 105t48.5 85t74.5 62t103.5 39t135 14q44 0 89 -2.5t90 -6.5t89 -9.5t86 -11.5v-626q34 40 68 71t72 52t80 32t92 11q59 0 105.5 -14.5t82.5 -41t61 -62.5t41 -81t23.5 -96t7.5 -105v-668h-179z" />
<glyph unicode="fj" horiz-adv-x="1092" d="M856 1250q-26 0 -48 9t-38.5 25t-25.5 39t-9 49t9 48.5t25.5 39t38.5 25.5t48 9q27 0 48.5 -9.5t37.5 -26t25 -38.5t9 -48t-9 -49t-25 -39t-38 -25t-48 -9zM551 -295h87q32 0 56.5 12.5t40 40.5t23.5 73t8 107v966h-396v-904h-179v904h-148v140h148v101q0 63 6 118 t19.5 100.5t36.5 81.5t57 60.5t80 37.5t106 13q21 0 36.5 -0.5t29.5 -2t27 -3.5t27 -6v-130h-78q-39 0 -67 -9.5t-46.5 -26t-29.5 -39.5t-16.5 -52t-7 -62t-1.5 -69v-112h574v-1086q0 -81 -9 -142t-26 -106t-41.5 -75t-55 -47.5t-67.5 -25.5t-79 -8q-16 0 -31.5 1t-31 3 t-30.5 5t-27 7z" />
<glyph unicode="fk" horiz-adv-x="1599" d="M1353 0l-335 534l-76 -78v-456h-178v1400q-26 4 -50 6t-47 4t-43 3t-40 1q-44 0 -77.5 -10t-57 -27.5t-39 -42t-24.5 -55.5t-12.5 -66.5t-3.5 -74.5v-94h214v-140h-214v-904h-179v904h-148v140h148v86q0 66 8.5 123.5t27 105t48.5 84.5t74.5 62.5t103.5 39t135 13.5 q44 0 89 -2.5t90 -6.5t89 -9.5t86 -11.5v-888q90 98 180 200q92 102 180 204h224l-378 -385l422 -659h-217z" />
<glyph unicode="ff" horiz-adv-x="1204" d="M766 0v904h-396v-904h-179v904h-148v140h148v101q0 63 6 118t19.5 100.5t36.5 81.5t57 60.5t80 37.5t106 13q20 0 37 -0.5t32.5 -2t30.5 -3.5q14 -2 28 -6v-130h-86q-40 0 -68 -10t-47 -27t-29.5 -40.5t-16 -52t-6.5 -61.5t-1 -67v-112h396v101q0 63 6 118t20 100.5 t36.5 81.5t57 60.5t80.5 37.5t106 13q20 0 37 -0.5t32.5 -2t30.5 -3.5q14 -2 27 -6v-130h-85q-40 0 -68 -10t-47 -27t-30 -40.5t-16 -52t-6 -61.5t-1 -67v-112h220v-140h-220v-904h-180z" />
<glyph unicode="fi" horiz-adv-x="1096" d="M854 1250q-26 0 -48 9t-38 25t-25.5 39t-9.5 49t9.5 48.5t25.5 38.5t38 25.5t48 9.5t48 -9.5t38 -25.5t25 -38.5t9 -48.5t-9 -49t-25 -39t-38 -25t-48 -9zM766 0v904h-396v-904h-179v904h-148v140h148v101q0 63 6 118t19.5 100.5t36.5 81.5t57 60.5t80 37.5t106 13 q19 0 35 -0.5t30.5 -2t27.5 -3.5t26 -6v-130h-77q-40 0 -68 -10t-47 -27t-29.5 -40.5t-16 -52t-6.5 -61.5t-1 -67v-112h574v-1044h-178z" />
<glyph unicode="fl" horiz-adv-x="1128" d="M1090 0q-11 -3 -24.5 -5.5t-29 -4.5t-32 -3t-34.5 -1q-45 0 -83 11t-65.5 36t-43.5 67t-16 103v1197q-26 4 -50 6t-46 4t-43 3t-41 1q-44 0 -77 -10t-56.5 -27.5t-39 -42t-24.5 -55.5t-12 -66.5t-3 -74.5v-94h214v-140h-214v-904h-179v904h-148v140h148v86q0 66 8 123.5 t26.5 105t48.5 84.5t74 62.5t103 39t136 13.5q44 0 89.5 -2.5t89.5 -6.5t88 -9.5t86 -11.5v-1281q0 -26 4 -47.5t13 -36t24 -22t37 -7.5h72v-134z" />
<glyph unicode="ffi" horiz-adv-x="1672" d="M1428 1250q-26 0 -48 9t-38 25.5t-25 39t-9 48.5t9 48t25 38.5t38 26t48 9.5t48.5 -9.5t39 -26t25.5 -38.5t9 -48t-9 -48.5t-25.5 -39t-39 -25.5t-48.5 -9zM1342 0v904h-396v-904h-180v904h-396v-904h-179v904h-148v140h148v101q0 63 6 118t19.5 100.5t36.5 81.5t57 60.5 t80 37.5t106 13q20 0 37 -0.5t32.5 -2t30.5 -3.5q14 -2 28 -6v-130h-86q-40 0 -68 -10t-47 -27t-29.5 -40.5t-16 -52t-6.5 -61.5t-1 -67v-112h396v101q0 63 6 118t20 100.5t36.5 81.5t57 60.5t80.5 37.5t106 13q20 0 36 -0.5t31 -2t29 -3.5t28 -6v-130h-82q-40 0 -68 -10 t-47 -27t-30 -40.5t-16 -52t-6 -61.5t-1 -67v-112h574v-1044h-178z" />
<glyph unicode="ffl" horiz-adv-x="1706" d="M1667 0q-11 -3 -24.5 -5.5t-29 -4.5t-32 -3t-33.5 -1q-45 0 -83.5 11t-66 36t-43 67t-15.5 103v1197q-26 4 -50.5 6t-47 4t-43.5 3t-40 1q-44 0 -77.5 -10t-56.5 -27.5t-39 -42t-25 -55.5t-12 -66.5t-3 -74.5v-94h214v-140h-214v-904h-180v904h-396v-904h-179v904h-148 v140h148v101q0 63 6 118t19.5 100.5t36.5 81.5t57 60.5t80 37.5t106 13q20 0 37 -0.5t32.5 -2t30.5 -3.5q14 -2 28 -6v-130h-86q-40 0 -68 -10t-47 -27t-29.5 -40.5t-16 -52t-6.5 -61.5t-1 -67v-112h396v86q0 66 8.5 123.5t27 105t49 84.5t74.5 62.5t103 38.5q60 14 136 14 q44 0 89 -2.5t90 -6.5t88.5 -9.5t86.5 -11.5v-1281q0 -26 4 -47.5t13 -36t24 -22t37 -7.5h71v-134z" />
<glyph unicode=" "  horiz-adv-x="497" />
<glyph unicode="&#x09;" horiz-adv-x="497" />
<glyph unicode="&#xa0;" horiz-adv-x="497" />
<glyph unicode="!" horiz-adv-x="663" d="M292 381l-24 1155h201l-24 -1155h-153zM368 -22q-26 0 -48.5 10t-39 27t-26.5 40t-10 50t10 50t27 40t39 27t48 10t49 -10t40 -27t26 -40t9 -49q0 -28 -9 -51t-26 -40t-40 -27t-49 -10z" />
<glyph unicode="&#x22;" horiz-adv-x="822" d="M520 968l-26 568h183l-25 -568h-132zM160 968l-25 568h182l-25 -568h-132z" />
<glyph unicode="#" d="M552 0l46 408h-239l-46 -408h-147l46 408h-145v135h159l42 365h-150v136h164l44 386h147l-43 -386h239l43 386h146l-43 -386h145v-136h-160l-41 -365h147v-135h-162l-46 -408h-146zM654 908h-240l-40 -365h238z" />
<glyph unicode="$" d="M448 -238v239q-42 0 -83 4.5t-81 13t-79 21t-77 27.5l36 153q35 -16 71 -28.5t74 -21t78.5 -13.5t82.5 -5q54 0 99 16t77 44t49 68t17 86q0 40 -9 71t-26 55t-42 43t-58 35t-73 32t-86 33q-42 16 -79.5 33.5t-70 38.5t-58.5 48t-44.5 60t-29 74t-10.5 92q0 44 10.5 84.5 t30 77.5t47.5 68t63.5 55t78 40.5t92.5 23.5v216h141v-210q30 -2 60.5 -7t60 -12t58 -16t52.5 -20l-38 -141q-27 12 -57.5 21t-62.5 15t-64 10t-62 4q-56 0 -97 -16t-68 -42t-39.5 -60t-12.5 -72q0 -34 8.5 -60.5t24.5 -48t39.5 -38.5t54 -32.5t66.5 -30.5q38 -14 80 -30 t82 -33t75 -39.5t63.5 -50t49 -63.5t32.5 -82t12 -102q0 -52 -12 -97.5t-33 -84t-50 -69.5t-64 -55t-75 -41t-83 -27v-254h-141z" />
<glyph unicode="%" horiz-adv-x="1540" d="M366 704q-78 0 -132 26t-89 73.5t-51 116.5t-16 156q0 90 20 160t58 118t94 73t128 25q76 0 130 -25t89 -72t52 -116.5t17 -158.5q0 -61 -9.5 -112.5t-27 -93.5t-43.5 -73.5t-59 -53t-74 -32.5t-87 -11zM1162 -22q-77 0 -131.5 25.5t-89 73.5t-50.5 117t-16 156 q0 90 19.5 160t58 118t94 73t127.5 25q76 0 130.5 -25t90 -72.5t51.5 -116.5t16 -158q0 -61 -9 -112.5t-27 -93.5t-43 -74t-59 -53t-74.5 -32t-87.5 -11zM372 820q38 0 65 18t44 51t25 81t8 108q0 74 -10 123t-28.5 79t-45 43t-59.5 13q-38 0 -65.5 -18t-44 -51t-23.5 -81 q-8 -48 -8 -108q0 -70 9 -119t27 -80t45 -45t61 -14zM1170 94q38 0 65 18t43.5 51t23.5 81q8 48 8 108q0 74 -10 123t-28 79t-44.5 43t-59.5 13q-39 0 -65.5 -18t-43.5 -51t-25 -81t-8 -108q0 -70 9.5 -119t28 -80t45 -45t61.5 -14zM246 9l930 1481l110 -69l-929 -1479z" />
<glyph unicode="&#x26;" horiz-adv-x="1340" d="M1194 -26q-31 24 -61.5 48l-61 48t-60 48t-57.5 48q-38 -43 -83.5 -78.5t-97 -59.5t-109.5 -38q-60 -13 -124 -13q-67 0 -124 12.5t-104.5 35.5t-83.5 56t-61 74t-38 90t-13 104q0 65 15.5 121.5t45.5 107t73.5 95.5t101.5 87q-33 44 -59.5 90t-45.5 91t-29.5 90 t-10.5 87q0 75 23.5 136.5t67.5 105.5t106 68t138 24q44 0 85 -8.5t77 -26t64 -42.5t48.5 -58t32 -73t11.5 -86q0 -36 -6 -70.5t-20 -67t-35.5 -64.5t-53 -65t-74.5 -67.5t-97 -72.5q22 -27 47 -56t53 -58.5t58.5 -60t62 -61.5t64.5 -61t67 -58q20 42 35 88t25 97t15 105 t5 110h168q0 -73 -9 -141.5t-25 -132t-38 -120.5q-24 -58 -52 -108q28 -23 57.5 -46.5t59.5 -46.5t61 -46.5t63 -47.5zM488 858q56 40 94 75t62 69t35 68t11 71q0 24 -4 46.5t-12 42.5t-20.5 36t-30 28t-39.5 19t-50 7q-38 0 -68 -15t-49 -41t-29 -60.5t-10 -72.5 q0 -29 6 -59t20 -63t34 -70t50 -81zM444 648q-35 -30 -61.5 -62t-44.5 -66t-27 -70t-9 -76q0 -60 18 -107t52.5 -79t83 -49t110.5 -17q42 0 80 10t72 29t64 45q30 24 54 56q-36 31 -72 63.5t-71 65.5t-69 66t-65.5 66t-61 64t-53.5 61z" />
<glyph unicode="'" horiz-adv-x="455" d="M160 968l-25 568h185l-25 -568h-135z" />
<glyph unicode="(" horiz-adv-x="622" d="M364 -395q-58 116 -102 236.5t-74 244.5t-45 251t-15 256q0 130 15 257.5t45 251.5t74 245t102 237l138 -54q-47 -112 -82.5 -227.5t-59.5 -233t-36 -236.5t-12 -237q0 -120 12 -239t36 -237t59.5 -233.5t82.5 -228.5z" />
<glyph unicode=")" horiz-adv-x="622" d="M120 -342q47 112 82.5 228t59.5 233t36 236t12 238q0 120 -12 239t-36 236.5t-59.5 233.5t-82.5 228l138 54q58 -116 102 -237t74 -245t45 -251t15 -255q0 -130 -15 -258t-45 -252t-74 -244t-102 -237z" />
<glyph unicode="*" d="M566 1066l32 -308h-172l33 306l-233 -182l-88 146l272 123l-272 127l88 146l233 -184l-33 308h172l-33 -308l233 184l88 -146l-272 -124l272 -126l-88 -146z" />
<glyph unicode="+" d="M432 158v403h-349v150h349v405h160v-405h349v-150h-349v-403h-160z" />
<glyph unicode="," horiz-adv-x="510" d="M53 -263q37 46 61 82.5t37 65.5t18.5 51t5.5 39q0 14 -3.5 25.5t-8 22.5t-10.5 21t-10.5 21t-8 24t-3.5 30q0 28 8.5 51.5t24.5 40.5t39 27t53 10q26 0 48.5 -10t39.5 -29.5t26.5 -48t9.5 -64.5q0 -38 -12.5 -85t-41 -102t-74.5 -116t-112 -127z" />
<glyph unicode="-" horiz-adv-x="550" d="M72 489v147h474v-147h-474z" />
<glyph unicode="&#x2010;" horiz-adv-x="550" d="M72 489v147h474v-147h-474z" />
<glyph unicode="&#xad;" horiz-adv-x="550" d="M72 489v147h474v-147h-474z" />
<glyph unicode="." horiz-adv-x="510" d="M255 -14q-28 0 -51.5 10.5t-40.5 28t-27 41.5t-10 52t10 52t27 42t41 28.5t52 10.5t51 -10.5t40 -28t27 -41.5t10 -52t-10 -52.5t-27 -42t-40.5 -28t-51.5 -10.5z" />
<glyph unicode="/" horiz-adv-x="800" d="M4 -263l622 1895l162 -46l-622 -1896z" />
<glyph unicode="0" d="M504 -24q-84 0 -149.5 24t-114.5 69t-83 110t-55 146.5t-30.5 178.5t-9.5 207q0 112 12 211.5t36 181.5t61 147t87.5 110t115.5 68.5t145 23.5q86 0 152 -24.5t115.5 -69.5t82.5 -110t54 -147t30 -178t9 -204q0 -112 -12 -211.5t-36 -182t-61 -147.5t-88 -110t-116 -69 t-145 -24zM514 124q46 0 83 16t65 48t49 80.5t34 113.5t20 146t7 179q0 100 -6 183.5t-19 150t-33 116.5t-49 83t-68 49.5t-87 16.5q-46 0 -82.5 -16t-65 -48t-49.5 -80t-34 -113t-20 -146t-7 -179q0 -100 6 -183t19 -150t33 -117t49 -83.5t67.5 -50t87.5 -16.5z" />
<glyph unicode="1" d="M175 0v150h309v1088l-275 -170l-59 114l354 252h163v-1284h247v-150h-739z" />
<glyph unicode="2" d="M96 0v144l261 304q56 66 100.5 124t78.5 110.5t57.5 100.5t38 93t21.5 88q7 44 7 86q0 59 -14 105t-43 78t-73.5 49t-105.5 17q-28 0 -59 -3.5t-64 -11.5t-69 -19.5t-75 -28.5l-31 147q42 17 83 30t82.5 22t85 13.5t88.5 4.5q100 0 174.5 -26.5t124.5 -75.5t75 -119.5 t25 -159.5q0 -54 -10.5 -109t-31 -110t-50 -111t-68 -114t-86.5 -118t-103 -124l-201 -232h614v-154h-832z" />
<glyph unicode="3" d="M85 144q33 -4 69 -7t72 -5t72 -3t68 -1q78 0 137 19t99 53t60 83t20 109q0 52 -13 92.5t-36 71t-55 51t-69 33t-78 18.5t-82 6h-109v142h98q79 0 139 20t100.5 55.5t61.5 84.5q21 50 21 108q0 52 -14 94t-42.5 72.5t-72 47t-103.5 16.5q-30 0 -64 -3.5t-70 -11t-73 -19.5 t-73 -28l-28 142q40 16 81 29t84 22t88 13.5t93 4.5q92 0 165 -25t122.5 -71.5t75.5 -113.5t26 -149q0 -62 -19.5 -117t-54 -100t-83 -77t-108.5 -46v-4q46 -5 85.5 -20t72 -37.5t59 -53.5t44 -68t27.5 -80t10 -90q0 -67 -16 -124t-47 -104t-76 -83t-102 -61t-126 -37.5 t-147 -12.5q-26 0 -61 1.5t-73.5 5.5t-78 9.5t-76.5 13.5v135z" />
<glyph unicode="4" d="M609 0v336h-561v148l476 946h266v-940h174v-154h-174v-336h-181zM609 1284h-3l-398 -794h401v794z" />
<glyph unicode="5" d="M101 144q26 -3 55.5 -6t63.5 -5.5t74.5 -3.5t87.5 -1q78 0 140 19t105 58t66 98.5t23 140.5q0 70 -19 121.5t-58.5 86t-100 51.5t-144.5 17q-34 0 -65 -2t-60 -5t-57 -6t-56 -5l12 728h652v-155h-490l-8 -415q16 2 33 3.5t35 2.5t38 1.5t43 0.5q72 0 133 -13.5t110 -39 t86.5 -61.5t62.5 -81t37 -99q13 -52 13 -112q0 -115 -35.5 -204.5t-102.5 -151.5t-163 -94.5t-215 -32.5q-26 0 -61.5 1.5t-75.5 5.5t-82 10q-41 4 -77 12v136z" />
<glyph unicode="6" d="M284 788q28 22 62 40t71 31.5t77 21t81 7.5q72 0 127 -17t96.5 -47.5t69.5 -71t45 -88t25 -98.5t8 -102q0 -64 -13 -124.5t-37 -115t-60.5 -99.5t-84.5 -78t-107.5 -52t-129.5 -19q-78 0 -139 22t-107 63t-78 101t-52 136t-29 167.5t-9 196.5q0 74 5 147t18 143t33 134 t50 119.5t70.5 101t93 78t117.5 50t145 17.5q32 0 66.5 -3t67.5 -10t63.5 -15t54.5 -18l-31 -136q-27 10 -55 17t-57 12.5t-59 8t-60 2.5q-60 0 -108 -19.5t-85.5 -54.5t-64 -83.5t-44.5 -106.5t-27 -123t-11 -133zM285 648q0 -98 7.5 -175t21 -135.5t34 -99.5t47 -66.5 t59 -37.5t72.5 -12q36 0 67.5 12t57.5 33t45.5 51t33.5 66t21 77t7 85q0 42 -5 81t-16 72t-28 60t-41.5 45.5t-56.5 29t-73 10.5q-31 0 -64.5 -7.5t-66.5 -20t-64 -30t-58 -38.5z" />
<glyph unicode="7" d="M256 32q13 23 27.5 51t29.5 60t31 68.5t32.5 76t33 83t32.5 89.5l288 814h-637v156h834v-152l-349 -946q-19 -50 -41.5 -99t-47.5 -96t-52 -91q-27 -42 -55 -82z" />
<glyph unicode="8" d="M359 728q-58 34 -103.5 73t-76.5 84t-47 97t-16 114q0 48 11.5 93t34 85t55.5 73t78 57t101.5 37t124.5 13q64 0 117.5 -12t96.5 -34t74.5 -52t52.5 -67t32 -79q10 -42 10 -86q0 -60 -17 -112t-50 -98t-80 -86q-47 -42 -107 -78q66 -36 121.5 -75.5t94.5 -86.5 t60.5 -102.5t21.5 -123.5q0 -90 -30 -161.5t-87.5 -121.5t-140 -76.5t-188.5 -26.5q-100 0 -179 21t-135 65t-86 110t-30 156q0 46 9 87t27 77t43 68t57 61t69.5 55.5t81.5 51.5zM515 822q44 26 81.5 56t65.5 65t43.5 74t15.5 87q0 50 -14.5 88t-41.5 65t-66 41t-89 14 q-54 0 -94 -16t-65.5 -44t-38 -66t-12.5 -82q0 -42 12 -79t38 -71t66.5 -67t98.5 -65zM492 652q-47 -30 -89.5 -62t-74 -68t-50 -79t-18.5 -95q0 -58 17 -101.5t49.5 -72t81 -42.5t110.5 -14q58 0 103 17t76 47t48 70q17 42 17 90q0 52 -17.5 93t-51 77t-84.5 70t-117 70z " />
<glyph unicode="9" d="M123 152q34 -8 68.5 -14t69.5 -10t68 -6t67 -2q59 0 106 17t83.5 48t63.5 76t46 102.5t29 126.5q10 70 14 149l-1 3q-28 -22 -62 -40t-71.5 -31t-77.5 -21t-81 -8q-68 0 -122 16t-95.5 44.5t-70.5 68t-47 86.5t-27 101t-9 110q0 62 12 122t36.5 114t60 100t83.5 79 t107 51.5t131 18.5q75 0 135 -19.5t106.5 -58.5t79.5 -96t54.5 -133t31.5 -171t10 -207q0 -84 -6.5 -162t-20.5 -149.5t-36.5 -135t-54 -116.5t-72.5 -95.5t-92.5 -72t-114.5 -45.5t-138 -16q-33 0 -68.5 2.5t-71.5 7t-71 11.5t-67 16zM736 783q0 96 -7 173t-21 135.5 t-34.5 99.5t-47 67t-59.5 38t-73 12t-73 -13t-59 -36t-45 -53.5t-31.5 -66t-18.5 -74.5t-6 -79q0 -42 4.5 -80.5t15.5 -72t28 -60.5t41.5 -46t57 -29t73.5 -10q31 0 64.5 7t67 19t64.5 29.5t59 39.5z" />
<glyph unicode=":" horiz-adv-x="547" d="M292 755q-28 0 -51.5 10.5t-41 28.5t-27 42t-9.5 52t9.5 52t27.5 42t41 28t51 10t51.5 -10t41 -28t27 -42t9.5 -52t-10 -52t-27.5 -42t-40.5 -28.5t-51 -10.5zM292 -14q-28 0 -51.5 10.5t-41 28t-27.5 41.5q-9 24 -9 52t9.5 52t27.5 42t41 28.5t51 10.5t51.5 -10.5 t41 -28t27 -41.5t9.5 -52t-10 -52.5t-27.5 -42t-40.5 -28t-51 -10.5z" />
<glyph unicode=";" horiz-adv-x="547" d="M292 755q-28 0 -51.5 10.5t-41 28.5t-27 42t-9.5 52t9.5 52t27.5 42t41 28t51 10t51.5 -10t41 -28t27 -42t9.5 -52t-10 -52t-27.5 -42t-40.5 -28.5t-51 -10.5zM90 -263q37 46 61 82.5t37.5 65.5t18.5 51t5 39q0 14 -3 25.5t-8 22.5t-11 21t-10.5 21t-8 24t-3.5 30 q0 28 9 51.5t25 40.5t39 27t52 10q26 0 48.5 -10t39.5 -29.5t27 -48t10 -64.5q0 -38 -13 -85t-41 -102t-74 -116t-113 -127z" />
<glyph unicode="&#x3c;" d="M83 560v153l827 463v-176l-664 -364l664 -360v-180z" />
<glyph unicode="=" d="M106 776v149h812v-149h-812zM106 349v149h812v-149h-812z" />
<glyph unicode="&#x3e;" d="M114 96v177l664 361l-664 363v179l827 -463v-153z" />
<glyph unicode="?" horiz-adv-x="856" d="M292 381q-9 76 -2.5 139.5t23.5 117.5t42.5 101t53 89t55.5 82t50 81t35.5 85t13.5 94q0 53 -12.5 96t-40.5 73.5t-73 47t-111 16.5q-55 0 -106.5 -4t-95.5 -10v138q26 6 56 11.5t59.5 8.5t57.5 5q27 2 51 2q111 0 189 -27t126.5 -74.5t70.5 -113.5q23 -67 23 -145 q0 -62 -14.5 -114.5t-38.5 -99.5t-53.5 -90.5t-60 -86.5t-58.5 -88t-48 -96t-30 -109.5t-4 -128.5h-158zM373 -22q-26 0 -48.5 10t-39.5 27t-26.5 40t-9.5 50t9.5 50t26.5 40t39.5 27t48.5 10t48.5 -10t39.5 -27t26.5 -40t9.5 -49q0 -28 -9.5 -51t-26.5 -40t-39.5 -27 t-48.5 -10z" />
<glyph unicode="@" horiz-adv-x="1615" d="M1424 -140q-56 -29 -111 -51t-115 -36.5t-125 -21.5t-139 -7q-116 0 -219 28t-189 80t-153.5 126t-114.5 166t-71.5 200t-24.5 228q0 138 27.5 257t78 217t123 173t161.5 127t192.5 78.5t217.5 26.5q74 0 136 -13t111.5 -36.5t87 -57.5t61.5 -76.5t37 -92t13 -105.5v-730 h-132l-17 121q-25 -28 -55 -54t-68 -46.5t-83 -32.5t-97 -12q-74 0 -133 20.5t-100 59t-62 94.5t-21 127q0 85 32 147t90 102.5t139 60t181 19.5h150v93q0 60 -15.5 110t-50 85.5t-91.5 55t-139 19.5q-84 0 -161 -21.5t-145 -63t-123 -103t-95 -141t-61.5 -178t-21.5 -212.5 q0 -98 18.5 -189t54.5 -169t90 -141.5t124 -108.5t156.5 -69.5t188.5 -24.5q54 0 107.5 6t105.5 18t104 31t103 47zM1232 820h-158q-63 0 -110.5 -13t-78.5 -37t-47 -59t-16 -81q0 -40 11 -72t32 -55t52 -35.5t72 -12.5q36 0 68.5 9.5t61.5 27.5t57 42t56 54v232z" />
<glyph unicode="A" horiz-adv-x="1227" d="M974 0q-12 46 -24 93t-24.5 95l-25 96t-26.5 94h-535q-14 -47 -27 -94.5t-25.5 -95.5t-24.5 -95.5t-24 -92.5h-190q52 190 106 374.5t112 363t118 351.5t124 341h210q68 -180 131 -359.5t120.5 -359t110 -357.5t99.5 -354h-205zM836 527q-20 68 -42.5 139.5t-45.5 143.5 t-47 144t-48 143q-6 18 -12 37t-12.5 38.5t-11.5 38.5t-11 35h-2q-6 -17 -12 -35.5t-12 -38t-12 -38t-12 -36.5q-24 -70 -47 -141.5t-45.5 -144t-44 -144.5t-42.5 -141h459z" />
<glyph unicode="B" horiz-adv-x="1086" d="M166 0v1430h346q68 0 124.5 -11t102 -32t79.5 -51t57.5 -70t35 -88t11.5 -102q0 -56 -12 -105t-33.5 -88t-53 -69t-71.5 -48q54 -12 100 -42t79 -75t52 -103t19 -126q0 -70 -16 -128t-45 -105t-71 -82t-93 -58t-111 -35t-127 -12h-373zM526 812q57 0 96.5 18t63.5 50 t35 76t11 95q0 35 -6 65.5t-18 56t-30.5 46.5t-44 35t-59.5 22t-76 8h-148v-472h176zM555 148q37 0 70 8t61 22t50.5 36t38 50t23.5 63t8 77q0 61 -16 110.5t-50 83.5t-87.5 53t-127.5 19h-175v-522h205z" />
<glyph unicode="C" horiz-adv-x="1073" d="M1028 63q-36 -18 -76 -33.5t-83 -26t-87 -16.5t-89 -6q-138 0 -248.5 46.5t-187 137.5t-117.5 225q-41 132 -41 306q0 116 18.5 217t54.5 184.5t87.5 149t118 110.5t146 68t171.5 23q45 0 87 -4.5t83 -14t80 -24.5t77 -34l-60 -146q-31 16 -63 27.5t-65 19.5t-67.5 12 t-71.5 4q-64 0 -118.5 -19t-98.5 -54t-77.5 -86t-56 -115t-34.5 -140t-12 -160q0 -140 29 -247t83 -179t132 -108.5t178 -36.5q36 0 71 5.5t68 14.5t63 21t58 26l48 -147v0z" />
<glyph unicode="D" horiz-adv-x="1288" d="M166 0v1430h405q101 0 186 -22t154.5 -63t122 -101.5t88.5 -138t54 -170.5t18 -201q0 -121 -20 -222.5t-57.5 -183t-93 -143t-127.5 -102.5t-159.5 -62t-189.5 -21h-381zM557 152q110 0 192.5 35t137.5 106t82 179t27 254q0 79 -10.5 150.5t-33.5 133.5t-58.5 111.5 t-84 85t-111 54.5t-140.5 19h-206v-1128h205z" />
<glyph unicode="E" horiz-adv-x="1005" d="M166 0v1430h711v-150h-525v-462h458v-148h-458v-519h533v-151h-719z" />
<glyph unicode="F" horiz-adv-x="927" d="M166 0v1430h682v-150h-496v-493h444v-149h-444v-638h-186z" />
<glyph unicode="G" horiz-adv-x="1264" d="M928 747h186v-693q-44 -18 -91.5 -32t-98 -23.5t-103 -15t-104.5 -5.5q-102 0 -187.5 23t-154.5 67t-121 107t-87 143t-53 176t-18 206q0 114 19 213.5t57 182.5t92 148.5t125 110.5t156 69t184 24q55 0 108 -8t103 -22.5t97 -36t91 -47.5l-64 -144q-39 24 -80.5 43 t-84.5 32t-87 20t-88 7q-73 0 -133.5 -19.5t-108.5 -56t-83.5 -88.5t-59.5 -116t-35.5 -139.5t-11.5 -158.5q0 -138 29 -246t85 -181t137 -111.5t182 -38.5q52 0 102 8q49 7 101 23v579z" />
<glyph unicode="H" horiz-adv-x="1276" d="M925 0v665h-573v-665h-186v1430h186v-606h573v606h185v-1430h-185z" />
<glyph unicode="I" horiz-adv-x="519" d="M166 0v1430h186v-1430h-186z" />
<glyph unicode="J" horiz-adv-x="630" d="M38 142h92q28 0 50 5t38.5 17t28 31.5t18.5 47.5t11 65.5t4 85.5v1036h185v-1022q0 -64 -5.5 -121t-18 -104t-34 -84t-54 -63t-77 -39.5t-103.5 -13.5q-15 0 -32.5 0.5t-35.5 2.5t-35.5 4.5t-31.5 6.5v145z" />
<glyph unicode="K" horiz-adv-x="1128" d="M868 0l-428 712l-88 -100v-612h-186v1430h186v-607q62 74 125 150t125.5 152t124.5 153q61 76 123 152h233l-513 -583l520 -847h-222z" />
<glyph unicode="L" horiz-adv-x="857" d="M166 0v1430h186v-1276h479v-154h-665z" />
<glyph unicode="M" horiz-adv-x="1704" d="M1368 0q-2 105 -4 209.5t-6 207t-10 204t-13 201.5t-16 199t-21 196h-2l-362 -1217h-182l-362 1217h-2q-8 -96 -17 -194.5t-15.5 -198.5t-12 -202.5t-9.5 -206t-7 -207.5t-3 -208h-175q2 116 5.5 234t9 237.5t13.5 239.5t18.5 240t23.5 239.5t28 239.5h269l338 -1143h4 l337 1143h267q15 -120 27 -240t22 -238.5t17.5 -237t13.5 -237t10 -237.5l4 -240h-188z" />
<glyph unicode="N" horiz-adv-x="1318" d="M906 0l-567 1184h-3v-1184h-170v1430h260l553 -1154h3v1154h170v-1430h-246z" />
<glyph unicode="O" horiz-adv-x="1405" d="M694 -24q-100 0 -182 23t-148 67t-116 108t-82.5 145t-49 178t-16.5 209q0 111 17.5 209.5t52 181.5t86.5 149t119 112t151 71t184 25q98 0 180 -24t148 -68.5t116 -108t84 -144.5t51 -177t17 -206q0 -112 -18 -211t-52 -183t-85 -150t-119 -111.5t-153 -70t-185 -24.5z M710 130q73 0 131 22t102 60.5t75.5 92t51 117t28.5 135.5t9 148q0 86 -9.5 163.5t-31 143.5t-54 119t-78.5 90t-106 57.5t-134 20.5q-72 0 -130 -21.5t-102 -60t-75 -91.5t-51 -116.5t-29 -135.5t-9 -146q0 -88 10 -166t31 -145t54 -120t79 -90t105 -57t133 -20z" />
<glyph unicode="P" horiz-adv-x="1059" d="M166 0v1430h346q46 0 88.5 -4t80.5 -14q68 -16 122.5 -51.5t92.5 -87t58 -118t20 -145.5q0 -108 -31 -193t-90 -145t-144 -91.5t-195 -31.5h-162v-549h-186zM526 698q62 0 109 21.5t78.5 61t47.5 94.5t16 121q0 50 -10.5 95t-31.5 80t-51 60t-68 35q-14 4 -28 7t-30 5 t-31 2.5t-29 0.5h-146v-583h174z" />
<glyph unicode="Q" horiz-adv-x="1407" d="M1278 -140l-222 233q-34 -28 -74 -49.5t-85 -36.5t-96 -23t-107 -8q-100 0 -182 23t-148 67t-116 108t-82.5 145t-49 178t-16.5 209q0 111 17.5 209.5t52 181.5t86.5 149t119 112t151 71t184 25q98 0 180 -24t148 -68.5t116 -108t84 -144.5t51 -177t17 -206 q0 -80 -9 -153t-27 -139.5t-44 -125t-62 -106.5l220 -232zM702 466l106 111l224 -235q19 34 33.5 75.5t23.5 88t14 96.5t5 103q0 86 -10 163.5t-31 143.5t-54 119t-79 90t-106 57.5t-134 20.5q-72 0 -130 -21.5t-102 -60t-75 -91.5t-51 -116.5t-29 -135.5t-9 -146 q0 -88 10 -166t31 -145t53.5 -120t78.5 -90t105.5 -57t133.5 -20q36 0 68 6t60.5 17t53.5 27t46 36z" />
<glyph unicode="R" horiz-adv-x="1084" d="M807 0l-308 640h-147v-640h-186v1430h354q70 0 129.5 -12t107 -35t84 -56t61 -74.5t36.5 -91.5q12 -51 12 -107q0 -52 -9 -97t-27 -82.5t-42 -68t-54 -55.5t-64.5 -43t-71.5 -30l344 -678h-219zM495 786q66 0 115 19t80.5 53t47 79t15.5 98q0 30 -5.5 60.5t-17.5 58 t-31.5 51t-47.5 40.5t-64.5 26.5t-84.5 9.5h-150v-495h143z" />
<glyph unicode="S" horiz-adv-x="928" d="M118 180q32 -12 65 -21t67.5 -15t69.5 -9t71 -3q65 0 114 17.5t81 49t48.5 75.5t16.5 98q0 36 -8.5 65.5t-23.5 55t-37 48t-51 43.5t-64 42.5t-77 44.5q-48 27 -88 54t-72 55.5t-56.5 59.5t-41 66.5t-24.5 76.5t-8 88q0 58 14 109t40.5 93.5t64 76t85 56.5t103 35.5 t118.5 12.5q30 0 63 -3t64.5 -8t61.5 -12t55 -16l-30 -150q-26 9 -52.5 16t-54.5 12t-56 7t-55 2q-56 0 -98.5 -17t-70.5 -45.5t-42 -66.5q-13 -39 -13 -81q0 -36 7.5 -65t22.5 -54t37 -47t49 -43t60 -41t70 -42q49 -28 91 -55.5t76 -56.5t60 -60.5t44 -67t27 -76t9 -88.5 q0 -67 -15 -124.5t-44 -103.5t-70 -82t-93 -60t-115 -37t-134 -13q-24 0 -48.5 1.5t-48.5 4t-48 6t-48 8.5t-47.5 11t-47.5 13z" />
<glyph unicode="T" horiz-adv-x="988" d="M401 0v1276h-379v154h945v-154h-379v-1276h-187z" />
<glyph unicode="U" horiz-adv-x="1307" d="M964 1430h180v-905q0 -136 -35 -239t-99 -171.5t-155 -103t-205 -34.5q-112 0 -202 32.5t-153 98.5t-97 165t-34 231v926h185v-912q0 -65 9.5 -119t28.5 -97t45.5 -75.5t60.5 -53.5t75.5 -32t87.5 -11q70 0 127.5 24.5t97 73t61.5 120.5t22 168v914z" />
<glyph unicode="V" horiz-adv-x="1189" d="M488 0q-68 180 -130 359t-119 358t-109 357t-100 356h206q22 -90 45 -180t49 -181.5t53 -183t55 -182t57 -180.5t59 -178l48 -153h2l51 160q44 135 86 271.5t81.5 271.5t75.5 269t68 266h193q-48 -178 -99.5 -355t-108.5 -355.5t-120 -358t-131 -361.5h-212z" />
<glyph unicode="W" horiz-adv-x="1863" d="M1202 0l-238 1020l-35 176h-3l-34 -175l-232 -1021h-238q-56 180 -105.5 360t-94.5 359t-84.5 357t-75.5 354h203q16 -89 34 -180t37.5 -182.5t40 -182.5t42.5 -182t44.5 -180t46.5 -175q4 -18 9 -38t10 -41t10 -41t8 -36h3l42 204l232 1034h222l242 -1034l42 -204h3 q4 18 9.5 40t10.5 44l10 44t10 40l46 180t44 179.5t41.5 179t39 178.5t36.5 177t33 176h189q-36 -177 -76.5 -354t-85.5 -355.5t-94.5 -358t-105.5 -362.5h-238z" />
<glyph unicode="X" horiz-adv-x="1142" d="M896 0l-330 604l-327 -604h-217l430 742l-390 688h220l296 -543l292 543h211l-390 -680l429 -750h-224z" />
<glyph unicode="Y" horiz-adv-x="1077" d="M446 0v610q-63 99 -121.5 200.5t-112.5 204.5t-104 207t-96 208h208q23 -56 47.5 -112t51 -112t54 -112t56.5 -110.5t60 -108t62 -104.5q30 51 59 105t57.5 109.5t55.5 112t53 112.5t49 111t44 109h195q-29 -67 -59.5 -135.5t-64 -136.5t-69 -137t-73.5 -137.5 t-80 -137.5q-42 -68 -86 -136v-610h-186z" />
<glyph unicode="Z" horiz-adv-x="955" d="M57 0v150l623 1128h-601v152h805v-149l-622 -1129h633v-152h-838z" />
<glyph unicode="[" horiz-adv-x="630" d="M184 -353v1901h352v-133h-185v-1635h185v-133h-352z" />
<glyph unicode="\" horiz-adv-x="800" d="M634 -310l-622 1894l164 48l621 -1894z" />
<glyph unicode="]" horiz-adv-x="630" d="M96 -353v133h184v1635h-184v133h351v-1901h-351z" />
<glyph unicode="^" d="M752 723l-236 569l-218 -569h-184l296 707h222l308 -707h-188z" />
<glyph unicode="_" d="M0 -452v136h1024v-136h-1024z" />
<glyph unicode="`" horiz-adv-x="503" d="M246 1197l-246 265l136 93l210 -284z" />
<glyph unicode="a" horiz-adv-x="998" d="M716 0l-14 114q-31 -31 -64.5 -56.5t-70.5 -43.5t-78.5 -28t-89.5 -10q-73 0 -131.5 20t-100 59t-63.5 95t-22 130q0 84 32.5 145.5t91 102t139.5 59.5t181 19h152v82q0 60 -11 105t-36 74.5t-67 44t-103 14.5q-34 0 -68.5 -4t-69.5 -12t-69.5 -19.5t-67.5 -25.5l-34 136 q36 15 77 27t84 21t87 14t88 5q68 0 122 -12.5t94.5 -35t69 -54t46.5 -69.5t26 -82q8 -43 8 -91v-724h-138zM678 480h-161q-63 0 -110 -13t-78 -37t-47 -60t-16 -81q0 -40 11 -72.5t32 -55t52 -35t73 -12.5q36 0 69 10t62 27.5t57 41.5q28 25 56 53v234z" />
<glyph unicode="b" horiz-adv-x="1090" d="M1001 558q0 -78 -12.5 -151t-38 -137t-65 -116t-93.5 -90t-123 -58.5t-153 -20.5q-46 0 -94 4.5t-94.5 12t-92 18.5t-87.5 25v1491h178v-629q32 39 66 69t72 50t81 31t93 11q64 0 116 -19t92.5 -52t70 -80t48 -103t27.5 -121t9 -135zM812 544q0 47 -4 93.5t-14 88 t-25.5 77t-39 61.5t-55.5 41t-72 15q-35 0 -67.5 -9.5t-65.5 -31t-68 -57.5t-75 -89v-565q22 -10 46 -17.5t49 -13t53 -7.5q28 -3 56 -3q72 0 124.5 28.5t87.5 82t52.5 131t17.5 175.5z" />
<glyph unicode="c" horiz-adv-x="841" d="M782 37q-35 -16 -69.5 -27t-67.5 -17.5t-65 -9.5t-63 -3q-112 0 -193.5 37.5t-134 106t-78 165.5t-25.5 216q0 134 33 238.5t92 175t142 107t185 36.5q32 0 63 -3t61 -9.5t59 -17t57 -24.5l-40 -136q-22 10 -45 18t-47 14t-49 9t-50 3q-72 0 -123.5 -28.5t-84.5 -80 t-48.5 -124.5t-15.5 -161q0 -98 17 -171.5t51.5 -122t85.5 -73.5t121 -25q28 0 53.5 3t50.5 8t49 13q25 9 49 20z" />
<glyph unicode="d" horiz-adv-x="1090" d="M804 0l-16 156q-37 -46 -73.5 -79.5t-76.5 -56t-85 -33.5t-97 -11q-65 0 -117.5 18.5t-93.5 52t-70 79.5t-48 103t-28 122t-9 135q0 76 12 148.5t37 136t63 116.5t90.5 91t120 59t149.5 21q27 0 52.5 -1.5t51 -4t50 -6.5t48.5 -10v500h179v-1536h-139zM764 874 q-44 20 -95 31t-110 11q-71 0 -123.5 -28t-87 -81.5t-52 -131t-17.5 -175.5q0 -47 4 -93.5t13.5 -88.5t25.5 -77.5t39.5 -61.5t55 -40.5t73.5 -14.5q24 0 46 4t43 13t43 23t44.5 35t46.5 49q23 26 51 62v564z" />
<glyph unicode="e" horiz-adv-x="1016" d="M894 32q-38 -12 -80 -22.5t-86.5 -18t-92 -11.5t-97.5 -4q-115 0 -199.5 34t-140 102t-83 169t-27.5 236q0 126 29 227.5t86 173.5t140 111t193 39q68 0 122.5 -16t97.5 -45t74.5 -70t51.5 -93t30 -113.5t10 -130.5q0 -8 -0.5 -20.5t-1 -27t-1 -28.5t-0.5 -27h-643 q0 -58 6 -108.5t20 -92.5t36.5 -74t55 -54.5t75.5 -34t99 -11.5q44 0 83.5 3.5t76.5 10t72.5 15.5t70.5 19zM742 626q2 70 -11 127t-41 96.5t-69 61t-96 21.5q-43 0 -78 -12.5t-62 -34.5t-47 -51.5t-34 -63.5t-21 -71t-7 -73h466z" />
<glyph unicode="f" horiz-adv-x="628" d="M191 0v904h-148v140h148v106q0 62 6 116t19.5 99t36.5 80.5t57 60t80 37.5t106 13q20 0 37 -0.5t33 -2t30 -3.5t28 -6v-130h-90q-40 0 -67 -10t-45 -27t-28.5 -40.5t-16 -52t-6.5 -61.5t-1 -67v-112h218v-140h-218v-904h-179z" />
<glyph unicode="g" horiz-adv-x="1090" d="M764 150q-36 -42 -71 -72t-73 -49.5t-78.5 -29t-86.5 -9.5q-65 0 -117.5 18t-93 51t-69.5 79t-48 102t-28 120t-9 134q0 76 12 148t38 135t65.5 115t93 89t123.5 57t154 20q44 0 92 -4t96 -12t93.5 -19t85.5 -25v-975q0 -82 -11 -148.5t-34.5 -119t-59.5 -90.5t-86.5 -63 t-116 -37t-147.5 -12q-28 0 -61.5 1.5t-68.5 4.5t-71.5 7.5t-70.5 11.5l6 133q30 -2 62 -4t65 -3.5t65 -2t64 -0.5q52 0 93.5 6t73.5 20.5t54.5 37.5t37 58t21 82t6.5 108v137zM764 876q-22 10 -46 17t-49 12.5t-52.5 8t-56.5 2.5q-70 0 -123 -28t-88 -80.5t-52.5 -128.5 t-17.5 -172q0 -46 4 -91.5t13.5 -86.5t25.5 -76t39 -61t56 -40t75 -14q35 0 67.5 9t64.5 30t66 57q34 35 74 87v555z" />
<glyph unicode="h" horiz-adv-x="1101" d="M780 0v633q0 42 -4 80t-12.5 69.5t-22.5 56.5t-34 43t-47 27t-61 9q-40 0 -73.5 -11t-65.5 -33t-64 -56t-70 -81v-737h-178v1536h178v-634q34 40 68 71t71.5 52t80 32t91.5 11q59 0 106 -14.5t82 -41t61 -62.5t42 -81t23 -96t7 -105v-668h-178z" />
<glyph unicode="i" horiz-adv-x="518" d="M273 1250q-26 0 -48.5 9t-38.5 25t-25 39t-9 49t9 48.5t25 38.5t38 25.5t49 9.5q26 0 48.5 -9.5t38.5 -25.5t25 -38.5t9 -48.5t-9 -49t-25 -39t-38.5 -25t-48.5 -9zM192 0v904h-154v140h333v-1044h-179z" />
<glyph unicode="j" horiz-adv-x="494" d="M258 1250q-26 0 -48.5 9t-38.5 25t-25 39t-9 49t9 48.5t25 38.5t38.5 25.5t48.5 9.5t48 -9.5t38 -25.5t25 -38.5t9 -48.5t-9 -49t-25 -39t-38 -25t-48 -9zM-46 -295h87q32 0 56 12.5t39.5 40.5t23.5 72.5t8 107.5v1106h179v-1086q0 -81 -9.5 -142t-26 -106t-41 -75 t-55.5 -47.5t-68 -25.5t-78 -8q-16 0 -31.5 1t-31.5 3t-31 5t-27 7z" />
<glyph unicode="k" horiz-adv-x="983" d="M736 0l-335 534l-75 -78v-456h-178v1536h178v-896q90 98 180.5 200t178.5 204h225l-378 -385l422 -659h-218z" />
<glyph unicode="l" horiz-adv-x="514" d="M475 -1q-10 -2 -23.5 -5t-29.5 -4.5t-32 -3.5q-16 -1 -34 -1q-45 0 -83.5 11t-66 36.5t-42.5 67.5q-16 40 -16 102v1334h178v-1290q0 -26 4 -47t13 -36t23.5 -23t36.5 -8h72v-133z" />
<glyph unicode="m" horiz-adv-x="1647" d="M1326 0v632q0 43 -2 80.5t-9 69.5t-18 57t-29 43t-43 27t-59 9q-38 0 -68.5 -11t-59 -33t-58.5 -56t-65 -81v-737h-177v632q0 42 -3 80t-9 70t-18 57t-29.5 43t-42.5 27t-58 9q-38 0 -69 -11t-60 -33t-58 -56t-65 -81v-737h-178v1044h138l20 -154q35 44 68.5 77.5t70 56 t77 33.5t90.5 11q54 0 97 -13t77 -37t58 -60t40 -84q38 50 74 87t73.5 60.5t79 35t91.5 11.5q59 0 104.5 -14.5t79 -41t56.5 -62.5t37 -81t20 -96t6 -105v-668h-179z" />
<glyph unicode="n" horiz-adv-x="1101" d="M780 0v633q0 64 -9 116.5t-30 90t-56 58t-86 20.5q-40 0 -73.5 -11t-65.5 -33t-64 -56t-70 -81v-737h-178v1044h138l20 -152q38 44 75 77t76 55t83 33t94 11q60 0 107 -14.5t83 -41t62 -62.5t42 -81t23 -96t7 -105v-668h-178z" />
<glyph unicode="o" horiz-adv-x="1100" d="M542 -24q-110 0 -194.5 37t-143 106t-88.5 168t-30 222q0 85 14 159.5t42 136.5t68 110.5t92.5 82.5t117 52t138.5 18q110 0 195 -37.5t143 -107t88 -169t30 -223.5q0 -84 -14 -157.5t-41 -135.5t-67.5 -110.5t-93 -82t-116.5 -51.5t-140 -18zM554 122q46 0 83.5 13 t68 37.5t52.5 59t37 77.5t23 93.5t8 107.5q0 60 -7 114t-22 100t-38 82.5t-54 62t-71 39.5q-40 13 -88 13q-68 0 -119 -28.5t-84.5 -80.5t-50.5 -123t-17 -157q0 -60 7.5 -114t21.5 -99.5t37 -82t54 -61.5t71 -39t88 -14z" />
<glyph unicode="p" horiz-adv-x="1090" d="M148 -425v1469h138l16 -157q37 46 74 79.5t77 56t84.5 34t96.5 11.5q65 0 117.5 -18.5t93.5 -52t70.5 -80t48.5 -103t28 -121.5t9 -135q0 -77 -12 -149.5t-37 -135.5t-63.5 -116t-90.5 -91t-119.5 -59t-149.5 -21q-28 0 -54.5 1.5t-52 5t-50 7.5t-46.5 9v-434h-178z M326 170q22 -10 45.5 -18t49 -14t53.5 -8.5t58 -2.5q71 0 123.5 28.5t87.5 81.5t52 131t17 176q0 47 -4 93.5t-14 88t-26 77t-39 61.5t-55 41t-74 15q-24 0 -45.5 -4t-43 -13t-43 -23.5t-44 -35t-47 -48.5t-51.5 -63v-563z" />
<glyph unicode="q" horiz-adv-x="1090" d="M764 -425v561q-36 -42 -71.5 -72t-73.5 -50t-79 -29t-88 -9q-64 0 -116 18.5t-92 52t-69.5 80t-48 103t-27.5 121.5t-9 134q0 78 12 151.5t37.5 137t65 116t93.5 90.5t123 58t155 20q44 0 92 -4t96 -12t93.5 -19t85.5 -25v-1423h-179zM764 876q-22 10 -46 17t-49 12.5 t-52.5 8t-56.5 2.5q-71 0 -123.5 -28t-87.5 -82t-52.5 -131t-17.5 -175q0 -47 4 -93.5t13.5 -88.5t25.5 -77.5t39 -61.5t55 -40.5t74 -14.5q23 0 44.5 4t43.5 13t44 23t44.5 35t47.5 49q24 26 50 62v566z" />
<glyph unicode="r" horiz-adv-x="706" d="M148 0v1044h139l19 -192q38 56 69 97t60.5 67.5t60 39t64.5 12.5q16 0 31 -1t29 -3.5t28 -6t29 -7.5l-26 -166q-10 4 -22.5 7t-25.5 5t-25 4q-14 1 -24 1q-16 0 -31 -5.5t-31 -16.5t-34 -28.5t-38 -42t-43 -55.5t-51 -69v-684h-178z" />
<glyph unicode="s" horiz-adv-x="796" d="M117 166q28 -10 58 -18.5t60.5 -14.5t59.5 -9.5t57 -3.5q44 0 77.5 10t56 29t34 45t11.5 60q0 33 -12 58.5t-32.5 46.5t-48.5 39t-59 34.5t-63.5 34t-63 37.5t-58.5 44t-48.5 55.5t-32.5 71t-12 89.5q0 44 10.5 82t31.5 71t51.5 59t70 44t86.5 28t101 10q24 0 50 -2 t53 -6t54 -10t53 -13l-23 -143q-24 8 -47.5 14t-47.5 10t-46.5 6t-42.5 2q-43 0 -74 -11t-52 -29.5t-31 -44t-10 -54.5q0 -33 12 -59t32.5 -46.5t48 -38t58.5 -34t64 -33.5t64 -37t59 -44.5t48.5 -56t32.5 -71t12 -90.5q0 -68 -25.5 -124t-72.5 -95.5t-115 -60.5t-153 -21 q-34 0 -67.5 3t-66.5 8.5t-65.5 13.5t-62.5 18z" />
<glyph unicode="t" horiz-adv-x="664" d="M592 2q-14 -4 -33 -7.5t-39 -6t-42 -3.5t-44 -1q-38 0 -70 5t-60 18t-49.5 33.5t-37 51t-23.5 70.5q-8 42 -8 94v648h-144v140h143l42 303h138v-303h227v-140h-227v-604q0 -38 4 -65t11.5 -46t19.5 -30t28.5 -17.5t37 -9t44.5 -2.5h82v-128z" />
<glyph unicode="u" horiz-adv-x="1101" d="M815 0l-20 152q-38 -45 -74.5 -78t-76 -54.5t-83 -32.5t-93.5 -11q-60 0 -108 14.5t-84 40.5t-61 62.5t-41 81.5t-24 95q-8 52 -8 106v668h179v-634q0 -42 4 -79.5t12.5 -69t22.5 -57t34 -43t47 -27t61 -9.5q40 0 74 11t65.5 33.5t64 56.5t69.5 80v738h179v-1044h-139z " />
<glyph unicode="v" horiz-adv-x="923" d="M366 0q-50 132 -95 263t-86 261t-77 260t-66 260h188q22 -92 45 -182t48 -178t51 -175t54 -173q12 -35 23 -72.5t19 -73.5h4q4 18 9 36.5t10.5 37.5t11 37.5t11.5 35.5q28 87 54 174.5t49.5 176t45 177.5t41.5 179h176q-32 -130 -68 -261t-76 -261.5t-85 -261t-95 -260.5 h-192z" />
<glyph unicode="w" horiz-adv-x="1495" d="M956 0l-180 698l-31 136h-3l-30 -136l-172 -698h-206q-43 130 -82.5 260.5t-75 261.5t-67 261.5t-57.5 260.5h186q16 -88 35 -176t39 -175t42 -173.5t44 -171.5q10 -42 22 -88t23 -90h3l40 174l174 700h188l180 -702l40 -172h4q11 44 21.5 90t21.5 89q22 86 43.5 172.5 t41.5 173.5t38 175t33 174h174q-28 -130 -60.5 -261t-68.5 -261t-76 -261t-83 -261h-201z" />
<glyph unicode="x" horiz-adv-x="964" d="M706 0l-226 422l-229 -422h-205l320 534l-298 510h208l212 -392l210 392h194l-291 -499l317 -545h-212z" />
<glyph unicode="y" horiz-adv-x="924" d="M57 -296h103q18 0 34 6t33 19t34 35t36 54.5t41 77t46 102.5q-30 73 -60 153.5t-61 166t-61 175t-58 181.5t-53 185t-47 185h188q22 -94 47 -185t51 -178.5t53 -173t55 -169.5q6 -18 12 -37t11.5 -38t10.5 -37q6 -18 11 -36h3q6 18 11 36t11 37l12 38q4 19 10 37 q26 84 51 171t47 176t42 179t38 180h176q-41 -176 -81.5 -328t-80 -282t-78 -238t-76.5 -196t-72.5 -155t-66.5 -117t-63.5 -83t-62.5 -54t-64 -29.5t-70 -8.5q-16 0 -32 1.5t-31 4.5t-28.5 6t-26.5 7z" />
<glyph unicode="z" horiz-adv-x="854" d="M84 0v144l468 752h-440v148h640v-144l-467 -752h497v-148h-698z" />
<glyph unicode="{" horiz-adv-x="650" d="M564 -350q-10 -2 -23 -3.5t-25.5 -3t-24 -2t-22.5 -0.5q-68 0 -112.5 23.5t-70.5 70.5t-36 118t-10 165v274q0 64 -10 113t-31 82t-53 50t-74 19v132q42 1 74 18t53 50.5t31 82.5t10 113v224q0 94 10.5 164.5t36.5 118t70.5 71t111.5 23.5q10 0 22 -0.5t24.5 -1.5 t24.5 -3q14 -2 24 -4v-129h-67q-16 0 -29.5 -4t-23.5 -14.5t-17 -27.5t-12 -45t-7 -66t-2 -88v-208q0 -40 -4 -78t-13 -73t-23 -66t-34 -55.5t-48 -41.5q-28 -18 -62 -25q34 -7 62 -24.5t48 -42t34 -55.5t23 -66.5t13 -74t4 -78.5v-257q0 -51 2 -89t7 -65.5t12 -45t17 -27.5 t23 -14t30 -4h67v-130z" />
<glyph unicode="|" d="M428 -425v1996h168v-1996h-168z" />
<glyph unicode="}" horiz-adv-x="647" d="M84 -220h66q17 0 29.5 4t23 14t18 27.5t12.5 45t7 65.5t2 89v257q0 40 4 78t12.5 73t23 66t34.5 55t47 41t62 25q-35 8 -62 25t-47 42t-34.5 56t-23 66.5t-12.5 74t-4 78.5v208q0 51 -2 88.5t-7 65.5t-12 45t-17.5 27.5t-23.5 14.5q-14 4 -30 4h-66v129q10 2 22 4t25 3 t25 1.5t22 0.5q68 0 113 -23.5t70.5 -70.5t35.5 -118t10 -165v-224q0 -64 10.5 -113.5t31.5 -82.5t53 -50t74 -18v-132q-42 -1 -74 -18.5t-53 -50.5t-31.5 -82t-10.5 -113v-274q0 -94 -10.5 -164t-36.5 -117.5t-70 -71.5t-112 -24q-10 0 -22 0.5t-25 2t-25 3t-22 3.5v130z " />
<glyph unicode="~" d="M960 1186q0 -78 -18.5 -142t-52 -108t-81.5 -68.5t-107 -24.5q-44 0 -78.5 12t-61.5 31.5t-48 44t-39 50.5q-19 24 -35 46.5t-33.5 39.5t-37.5 27t-46 10q-32 0 -55 -16t-37 -44t-20 -68t-7 -87h-137v21q0 78 18.5 140t52 106.5t81.5 69t106 24.5q44 0 78.5 -12t61 -31 t47.5 -43t41 -50q18 -24 34 -46t33.5 -39.5t37.5 -28t47 -10.5q32 0 54.5 16t36.5 45t20.5 68.5t6.5 87.5h138v-21z" />
<glyph unicode="&#xa1;" horiz-adv-x="663" d="M294 970q-26 0 -48 10t-39 27t-26.5 40t-9.5 50t9.5 50t26.5 40.5t39.5 27t48.5 9.5t48.5 -9.5t39.5 -26.5t26.5 -40.5t9.5 -49.5q0 -27 -9.5 -50.5t-26.5 -40.5t-40 -27t-49 -10zM194 -334l25 1156h152l24 -1156h-201z" />
<glyph unicode="&#xa2;" d="M524 0v196q-94 9 -166 48.5t-120.5 106.5t-74 158t-25.5 205q0 78 13 145t37.5 123t59 100.5t77.5 77t93 52.5t106 28v190h142v-186q24 -2 51 -6.5t56.5 -12.5t60.5 -20q30 -11 62 -27l-51 -136q-29 15 -58 26.5t-56.5 18.5t-54 11t-52.5 4q-72 0 -127 -26t-93 -74.5 t-58 -118t-20 -156.5q0 -98 20 -171t58.5 -121.5t93.5 -72.5t125 -24q27 0 56 3.5t59 11t62 18.5t64 27l39 -133q-31 -14 -62 -25.5t-60.5 -20.5t-58.5 -15q-28 -5 -56 -8v-196h-142z" />
<glyph unicode="&#xa3;" d="M125 0v142q28 32 51.5 66.5t42 71t31 77t19.5 87t7 98.5t-7 113h-175v135h151q-4 36 -8.5 71t-8.5 68t-6 66t-2 65q0 63 12 116.5t35 96.5t56.5 76t77 55.5t97.5 34t116 11.5q26 0 56.5 -2t62 -6t62.5 -9t60 -11v-143q-25 4 -53 8.5t-57 7.5t-58 4.5t-55 1.5 q-63 0 -107 -15t-71.5 -44.5t-40 -72.5t-12.5 -98q0 -38 2 -74t5.5 -70.5t7.5 -68.5q6 -34 10 -68h368v-135h-346q6 -81 2 -153t-20 -134.5t-45 -116t-69 -98.5h606v-153h-797z" />
<glyph unicode="&#xa4;" d="M802 30l-132 224q-16 -10 -36 -17.5t-41.5 -13t-44.5 -8.5t-47 -3q-21 0 -42 2.5t-41 7t-38 11t-34 14.5l-125 -217l-135 78l140 222q-24 27 -41 60.5t-28 71.5t-16 81t-5 91t6 91.5t17 83t28 73.5t40 62l-142 224l137 80l125 -214q16 10 35.5 17.5t41.5 13t46 8t48 2.5 t46.5 -2.5t43 -7.5t38.5 -13t34 -17l124 212l135 -77l-139 -220q20 -27 36 -58.5t27 -68.5t17 -80t6 -93q0 -46 -6 -89t-18 -82t-30 -74t-42 -63l148 -232zM514 348q52 0 91 21.5t65 60t39 90.5t13 114q0 44 -5 84.5t-17 74.5t-29 61.5t-41 46.5t-54 29.5t-68 10.5 q-52 0 -91.5 -21.5t-65.5 -59.5t-39.5 -91t-13.5 -117q0 -70 13 -126.5t39 -96t67 -60.5t97 -21z" />
<glyph unicode="&#xa5;" d="M605 226v-226h-182v226h-287v126h287v197h-287v125h287v57q-53 83 -103 168.5t-97 173t-91 176.5t-84 181h197q30 -73 62.5 -144.5t67.5 -141.5t73 -138t78 -133q24 41 47 85.5t46 90.5t44 93.5t42 95.5t40 96t36 96h195q-38 -87 -79.5 -174.5t-87.5 -174.5t-96.5 -174.5 t-107.5 -175.5v-57h287v-125h-287v-197h287v-126h-287z" />
<glyph unicode="&#xa6;" d="M428 811v785h168v-785h-168zM428 -425v797h168v-797h-168z" />
<glyph unicode="&#xa7;" horiz-adv-x="1047" d="M264 -232q16 -4 35 -7t39.5 -5t41 -3t40.5 -1q44 0 76 11.5t53 33t32 52t11 68.5t-13 75t-34.5 73.5t-50.5 72.5t-61.5 74t-67.5 78t-67.5 84t-62 92t-51 101t-34 113t-12.5 127q0 42 6 86.5t17 90.5t27 91t36 88t44 81q22 40 50 72q30 36 63 64t72 47.5t83 30t94 10.5 q18 0 38 -1.5t38.5 -3.5t36 -4.5t32.5 -4.5l-9 -138q-37 7 -72.5 11t-75.5 4q-46 0 -79 -12t-54 -35.5t-31 -57.5t-10 -80q0 -36 13 -71t35 -69t51 -69t62 -71t68 -75t68 -82t62 -91.5t51.5 -103t35.5 -116.5q12 -62 12 -134q0 -41 -5.5 -86t-16 -90.5t-25.5 -91t-35 -88 t-44.5 -80.5t-52.5 -70q-30 -36 -63.5 -63t-73 -46.5t-86 -29.5t-102.5 -10q-34 0 -71 4.5t-71 12.5zM320 1060q-7 -24 -12.5 -49.5t-9.5 -51.5t-6 -52.5t-2 -52.5q0 -74 16 -136t43.5 -116t63 -101t73 -91.5t75 -88.5t68.5 -91.5t54 -100.5t31 -115q6 22 13 46.5t12 52 t8 56.5t3 61q0 74 -17 136.5t-45 116.5t-64 101.5t-74 92t-76 88t-70 89.5t-54.5 96.5t-29.5 109.5z" />
<glyph unicode="&#xa8;" horiz-adv-x="704" d="M466 1272q-22 0 -41.5 8t-33 22t-21.5 33t-8 43q0 23 8 42t21.5 33t32.5 21q20 8 42 8t41 -7.5t32.5 -21.5t21 -33.5t7.5 -41.5q0 -23 -7.5 -42.5t-21 -33.5t-32.5 -22t-41 -8zM102 1272q-22 0 -41 8t-32.5 22t-21 33t-7.5 43q0 23 7.5 42t21 33t32.5 21.5t41 7.5 q23 0 42 -7.5t32.5 -21.5t21.5 -33.5t8 -41.5q0 -23 -8 -42.5t-21.5 -33.5t-32.5 -22t-42 -8z" />
<glyph unicode="&#xa9;" horiz-adv-x="1409" d="M702 -3q-90 0 -172.5 24.5t-152.5 69.5t-126.5 108t-96.5 140t-62 165q-21 90 -21 186q0 97 22 185.5t62.5 166t97.5 141t127 108t152 69t171 24.5q90 0 171 -24t150.5 -68.5t126.5 -107t97 -139.5t62 -166t22 -185t-22 -185.5t-62.5 -167t-97.5 -140.5t-127 -109 t-151 -70.5t-170 -24.5zM703 122q71 0 135 20t119 57t100 88.5t76.5 114.5t49 135.5t17.5 152.5q0 79 -17.5 151.5t-49 136t-76.5 116t-100.5 89.5t-120 57.5t-134.5 20.5q-71 0 -135.5 -20t-120.5 -56.5t-100.5 -88t-76 -114.5t-48.5 -136q-17 -72 -17 -152 q0 -78 17 -151.5t49 -137t77 -115.5t100.5 -89.5t120 -58t135.5 -20.5zM902 365q-22 -9 -45 -17t-47 -13t-49 -8t-51 -3q-71 0 -127.5 21.5t-95.5 65t-60 110.5t-21 159q0 95 24 166.5t68 118.5t104 71t132 24q22 0 43 -2.5t41 -7t40 -11.5t38 -15l-38 -120 q-15 7 -31.5 11.5t-32.5 8.5t-31 5t-27 1q-42 0 -74.5 -17t-53.5 -48t-31.5 -75t-10.5 -97q0 -54 10 -98t30 -75t52 -48q32 -16 78 -16q14 0 31 2t35 6t37 10t37 12z" />
<glyph unicode="&#xaa;" horiz-adv-x="824" d="M558 693l-14 87q-20 -24 -43 -43t-49 -33t-57 -22t-68 -8q-50 0 -92.5 14t-72.5 42t-47 69t-17 96q0 62 23 106.5t66 72.5t104 41t137 13h94v53q0 36 -8 63.5t-26 46t-46 27.5q-28 8 -68 8q-24 0 -50 -2.5t-51 -8t-49 -13.5t-46 -18l-26 113q26 11 55 20t61 15t64.5 9.5 t64.5 3.5q46 0 85.5 -7.5t70.5 -21.5t54 -35t38 -49t23 -62t8 -74v-503h-118zM122 383v135h554v-135h-554zM522 1022h-101q-42 0 -73 -7t-51 -22t-29.5 -37t-9.5 -52q0 -26 7 -47t20 -36t33 -23q18 -8 44 -8q24 0 45 7t40.5 19.5t38 30t36.5 39.5v136z" />
<glyph unicode="&#xab;" horiz-adv-x="1051" d="M734 138l-260 436l260 436l134 -57l-208 -379l208 -380zM364 114l-264 460l264 458l133 -56l-209 -402l209 -402z" />
<glyph unicode="&#xac;" d="M767 329v231h-693v150h850v-381h-157z" />
<glyph unicode="&#xae;" horiz-adv-x="1059" d="M528 665q-58 0 -112 15t-100 42.5t-83 66.5t-63 86.5t-41 103t-15 115.5q0 59 15 113.5t41.5 102t64 86.5t83.5 67t99 43.5t111 15.5q59 0 112.5 -15t99.5 -43t83 -66.5t63 -86t40.5 -102.5t14.5 -116q0 -58 -14.5 -112.5t-41.5 -102.5t-64 -87t-83.5 -67t-99 -43.5 t-110.5 -15.5zM528 761q46 0 86.5 12.5t74.5 34.5t61.5 52t46.5 67t29 78t10 83q0 48 -12 92t-32 81t-48.5 67.5t-63 52t-73 32.5t-79.5 11q-46 0 -86 -12t-74 -34t-61 -53t-46 -67t-29 -77t-10 -85q0 -48 11 -91t32 -80.5t49 -68t62.5 -51.5t73 -32.5t78.5 -11.5zM596 863 l-78 188h-35v-188h-101v471h160q34 0 63 -8.5t49 -25t31 -39.5t11 -53q0 -25 -6 -46.5t-16.5 -38.5t-25 -30t-32.5 -20l98 -210h-118zM516 1131q20 0 33.5 4.5t22.5 13.5t13.5 22t4.5 29q0 13 -4 23.5t-12 18t-22 10.5q-14 4 -32 4h-37v-125h33z" />
<glyph unicode="&#xaf;" horiz-adv-x="559" d="M0 1298v129h518v-129h-518z" />
<glyph unicode="&#xb0;" horiz-adv-x="692" d="M342 1002q-55 0 -100.5 18t-78 50t-50.5 77t-18 99q0 36 8.5 69t25 61t39.5 51t51.5 39t60.5 24q34 8 70 8q54 0 99 -17.5t78 -50t51 -77.5t18 -99t-19 -100t-53 -80t-81 -53t-101 -19zM347 1114q25 0 46 10.5t37 28.5t25 42.5t9 53.5q0 30 -9 55.5t-25 43.5t-38 28 t-48 10q-24 0 -46 -10t-38 -28t-25 -42.5t-9 -53.5q0 -30 9.5 -55.5t25.5 -43.5t38 -28.5t48 -10.5z" />
<glyph unicode="&#xb1;" d="M433 318v400h-346v150h346v401h158v-401h346v-150h-346v-400h-158zM94 0v150h836v-150h-836z" />
<glyph unicode="&#xb2;" horiz-adv-x="712" d="M72 793v111l200 210q40 42 69 79.5t48 74t28 72.5t9 76q0 38 -10 65.5t-29.5 44.5t-46.5 24q-28 8 -60 8q-22 0 -44 -2.5t-43.5 -7t-42 -11.5t-38.5 -15l-28 116q24 11 51.5 19.5t58 14.5t62.5 9t66 3q68 0 120.5 -16t88 -47.5t53.5 -77.5t18 -105q0 -34 -5 -65t-15 -61 t-26.5 -60t-39.5 -61t-53 -65q-29 -34 -67 -74l-124 -132h360v-127h-560z" />
<glyph unicode="&#xb3;" horiz-adv-x="709" d="M80 901q14 -3 33.5 -5t42.5 -3t49 -1q25 -1 53 -1q46 0 81 9.5t58.5 28t35 45t11.5 59.5q0 42 -15 71t-43 47.5t-68 26.5t-90 8h-64v113h71q46 0 82 10.5t60.5 29.5t37.5 46t13 59q0 29 -8.5 51.5t-26 37.5t-42.5 23t-59 8q-48 0 -93.5 -9t-88.5 -27l-27 114q29 10 59 18 t61 13t62 8t63 3q62 0 111 -15.5t84 -45t54 -70.5t19 -94q0 -40 -13 -73.5t-35 -60t-52 -44.5q-29 -17 -62 -27q40 -6 74.5 -24.5t59 -46.5t38.5 -65.5t14 -81.5q0 -60 -25 -109t-69.5 -84t-105.5 -54q-60 -19 -132 -19q-22 0 -50 1t-55.5 3.5t-54 6t-48.5 8.5v112z" />
<glyph unicode="&#xb4;" horiz-adv-x="549" d="M0 1266l212 289l138 -91l-252 -267z" />
<glyph unicode="&#xb5;" horiz-adv-x="1146" d="M1108 -2q-10 -3 -23 -5.5t-27 -4.5t-28 -3t-29 -1q-40 0 -74.5 10t-60.5 30.5t-44 52t-26 73.5q-36 -44 -72 -76t-73 -53.5t-77 -32t-86 -10.5q-26 0 -49.5 4t-44 13t-38.5 23t-32 36v-12v-30v-39v-39v-30v-12v-320h-176v1472h178v-634q0 -42 4 -79.5t13 -69t22.5 -57 t34 -43t47 -27t60.5 -9.5q40 0 73.5 11t65.5 33.5t64 56.5t70 80v738h178v-758q0 -46 7 -76.5t20 -48t34 -24.5t49 -7h40v-132z" />
<glyph unicode="&#xb6;" horiz-adv-x="1114" d="M804 -236v1520h-188v-1520h-157v828q-61 -3 -116.5 9.5t-102 38.5t-84.5 63.5t-64 85t-40 103.5t-14 118q0 58 13.5 111t39 100t62.5 85t84 66t102.5 43t118.5 15h500v-1666h-154z" />
<glyph unicode="&#xb7;" horiz-adv-x="510" d="M255 504q-28 0 -51.5 10t-40.5 28t-27 42t-10 52t10 52t27 42t41 28t52 10t51 -10t40 -28t27 -42t10 -52t-10 -52t-27 -42t-40.5 -28t-51.5 -10z" />
<glyph unicode="&#xb8;" horiz-adv-x="542" d="M239 0h143l44 -102q10 -22 17.5 -39t11 -31t5.5 -26t2 -23q0 -26 -11.5 -48t-36 -39t-63.5 -26.5t-93 -9.5q-23 0 -47.5 1.5t-47.5 5t-45 8t-40 10.5v108h174q14 0 24 1.5t17 4t10 8t3 12.5q0 4 -1 8.5t-2 10.5t-3 12.5t-5 13.5z" />
<glyph unicode="&#xb9;" horiz-adv-x="560" d="M238 793v706l-152 -87l-44 108l222 145h139v-872h-165z" />
<glyph unicode="&#xba;" horiz-adv-x="864" d="M422 674q-86 0 -150 26.5t-105 76t-61 118.5t-20 155q0 92 22.5 165t66.5 125t109 79t150 27q82 0 145 -26t105 -75.5t64 -119.5q21 -71 21 -157q0 -60 -10.5 -112t-30.5 -95.5t-49.5 -78t-68 -58.5t-86 -37t-102.5 -13zM144 383v135h578v-135h-578zM432 798 q45 0 77.5 20t54.5 54t32.5 80t10.5 99q0 59 -10.5 109t-32.5 86.5t-56 57t-82 20.5q-46 0 -79.5 -19t-55.5 -53t-32.5 -81t-10.5 -104q0 -64 10.5 -114t33 -84.5t57.5 -52.5t83 -18z" />
<glyph unicode="&#xbb;" horiz-adv-x="1051" d="M554 172l210 402l-210 402l134 56l264 -458l-264 -460zM184 194l207 380l-207 379l134 57l260 -436l-260 -436z" />
<glyph unicode="&#xbc;" horiz-adv-x="1325" d="M236 715v551l-152 -85l-42 110l226 142h134v-718h-166zM121 9l929 1481l112 -69l-930 -1479zM1031 0v138h-340v112l270 465h218v-456h112v-121h-112v-138h-148zM1031 607h-2l-202 -348h204v348z" />
<glyph unicode="&#xbd;" horiz-adv-x="1425" d="M236 715v551l-152 -85l-42 110l226 142h134v-718h-166zM121 9l929 1481l112 -69l-930 -1479zM827 0v111l179 171q40 38 65 69t40 57t20.5 50t5.5 49t-7 45t-21.5 33.5t-37.5 21t-53 7.5q-18 0 -37.5 -3t-39 -7t-38 -11t-36.5 -15l-29 112q24 10 50.5 19t55 15t58.5 10 q28 3 58 3q68 0 116.5 -15.5t79.5 -43.5t46 -66q14 -40 14 -86q0 -24 -3 -47.5t-11.5 -47t-22.5 -47.5t-35.5 -50.5t-51 -56t-68.5 -62.5l-94 -85h316v-130h-519z" />
<glyph unicode="&#xbe;" horiz-adv-x="1414" d="M79 817q12 -2 29.5 -4t37.5 -3t44 -1h50q37 0 66.5 7t49 20t30 33t10.5 46q0 36 -12.5 58.5t-35 36t-53 18.5t-67.5 5h-70v109h77q34 0 61 7.5t45.5 21.5t28.5 34.5t10 46.5q0 22 -7 38t-20 27t-33 16q-18 6 -44 6q-22 0 -43 -2t-42 -6t-41 -10t-38 -14l-30 104 q26 10 55.5 17.5t59 13t59.5 7.5t58 2q58 0 102 -12t73.5 -36.5t44.5 -59t15 -78.5q0 -32 -9 -60t-26 -49.5t-41.5 -37t-55.5 -21.5q40 -5 69.5 -21.5t48.5 -40.5t28.5 -54.5t9.5 -62.5q0 -40 -11 -72.5t-31.5 -57.5t-48 -43t-60.5 -29t-70.5 -17t-75.5 -6q-23 0 -48 1.5 t-50.5 4t-50.5 6.5t-48 8v104zM213 9l929 1481l112 -69l-930 -1479zM1120 0v138h-340v112l270 465h218v-456h112v-121h-112v-138h-148zM1120 607h-2l-202 -348h204v348z" />
<glyph unicode="&#xbf;" horiz-adv-x="856" d="M483 970q-26 0 -48.5 10t-39.5 27t-26.5 40t-9.5 50t9.5 50t26.5 40.5t39 26.5q24 10 50 10t48 -9.5t39 -26.5t26.5 -40.5t9.5 -49.5q0 -27 -9.5 -50.5t-26.5 -40.5t-39.5 -27t-48.5 -10zM732 -324q-26 -6 -56 -11.5t-59 -9t-57 -5.5t-52 -2q-111 0 -188.5 27t-126.5 75 t-71 114t-22 144q0 50 9 93t25.5 83t38 76t45 70.5t48 69t47.5 70t42 74t32 81.5t18.5 92t0.5 105h158q8 -62 5 -114.5t-13.5 -99t-27.5 -86.5t-37.5 -77t-43 -70.5t-44.5 -66t-41.5 -64.5t-35 -65.5t-24 -69.5t-8.5 -76q0 -54 12 -96.5t40 -73.5t73.5 -47t111.5 -16 q55 0 106 4t95 10v-138z" />
<glyph unicode="&#xc0;" horiz-adv-x="1227" d="M974 0q-12 46 -24 93t-24.5 95l-25 96t-26.5 94h-535q-14 -47 -27 -94.5t-25.5 -95.5t-24.5 -95.5t-24 -92.5h-190q52 190 106 374.5t112 363t118 351.5t124 341h210q68 -180 131 -359.5t120.5 -359t110 -357.5t99.5 -354h-205zM836 527q-20 68 -42.5 139.5t-45.5 143.5 t-47 144t-48 143q-6 18 -12 37t-12.5 38.5t-11.5 38.5t-11 35h-2q-6 -17 -12 -35.5t-12 -38t-12 -38t-12 -36.5q-24 -70 -47 -141.5t-45.5 -144t-44 -144.5t-42.5 -141h459zM331 1697l80 137l328 -196l-60 -101z" />
<glyph unicode="&#xc1;" horiz-adv-x="1227" d="M974 0q-12 46 -24 93t-24.5 95l-25 96t-26.5 94h-535q-14 -47 -27 -94.5t-25.5 -95.5t-24.5 -95.5t-24 -92.5h-190q52 190 106 374.5t112 363t118 351.5t124 341h210q68 -180 131 -359.5t120.5 -359t110 -357.5t99.5 -354h-205zM836 527q-20 68 -42.5 139.5t-45.5 143.5 t-47 144t-48 143q-6 18 -12 37t-12.5 38.5t-11.5 38.5t-11 35h-2q-6 -17 -12 -35.5t-12 -38t-12 -38t-12 -36.5q-24 -70 -47 -141.5t-45.5 -144t-44 -144.5t-42.5 -141h459zM544 1538l-60 100l328 197l80 -137z" />
<glyph unicode="&#xc2;" horiz-adv-x="1227" d="M974 0q-12 46 -24 93t-24.5 95l-25 96t-26.5 94h-535q-14 -47 -27 -94.5t-25.5 -95.5t-24.5 -95.5t-24 -92.5h-190q52 190 106 374.5t112 363t118 351.5t124 341h210q68 -180 131 -359.5t120.5 -359t110 -357.5t99.5 -354h-205zM836 527q-20 68 -42.5 139.5t-45.5 143.5 t-47 144t-48 143q-6 18 -12 37t-12.5 38.5t-11.5 38.5t-11 35h-2q-6 -17 -12 -35.5t-12 -38t-12 -38t-12 -36.5q-24 -70 -47 -141.5t-45.5 -144t-44 -144.5t-42.5 -141h459zM603 1668l-210 -130l-56 96l268 194l269 -192l-60 -98z" />
<glyph unicode="&#xc3;" horiz-adv-x="1227" d="M974 0q-12 46 -24 93t-24.5 95l-25 96t-26.5 94h-535q-14 -47 -27 -94.5t-25.5 -95.5t-24.5 -95.5t-24 -92.5h-190q52 190 106 374.5t112 363t118 351.5t124 341h210q68 -180 131 -359.5t120.5 -359t110 -357.5t99.5 -354h-205zM836 527q-20 68 -42.5 139.5t-45.5 143.5 t-47 144t-48 143q-6 18 -12 37t-12.5 38.5t-11.5 38.5t-11 35h-2q-6 -17 -12 -35.5t-12 -38t-12 -38t-12 -36.5q-24 -70 -47 -141.5t-45.5 -144t-44 -144.5t-42.5 -141h459zM925 1730q-14 -37 -35.5 -66.5t-49 -50.5t-59.5 -32t-66 -11q-30 0 -55 6t-44 15t-42.5 25t-35 23 t-28.5 12.5t-37 5.5q-16 0 -32 -6.5t-31 -19t-27.5 -30t-23.5 -40.5l-91 66q15 37 37 67t49 50.5t59 31.5t66 11q30 0 55 -6t43 -15.5t42 -24.5t36 -22t29 -13t37 -6q16 0 32 6.5t30.5 19t27.5 30.5q14 18 24 40z" />
<glyph unicode="&#xc4;" horiz-adv-x="1227" d="M974 0q-12 46 -24 93t-24.5 95l-25 96t-26.5 94h-535q-14 -47 -27 -94.5t-25.5 -95.5t-24.5 -95.5t-24 -92.5h-190q52 190 106 374.5t112 363t118 351.5t124 341h210q68 -180 131 -359.5t120.5 -359t110 -357.5t99.5 -354h-205zM836 527q-20 68 -42.5 139.5t-45.5 143.5 t-47 144t-48 143q-6 18 -12 37t-12.5 38.5t-11.5 38.5t-11 35h-2q-6 -17 -12 -35.5t-12 -38t-12 -38t-12 -36.5q-24 -70 -47 -141.5t-45.5 -144t-44 -144.5t-42.5 -141h459zM816 1549q-21 0 -39.5 8t-32 21.5t-21 32.5t-7.5 41t7.5 41t21 32.5t32 21.5t39.5 8q22 0 40.5 -8 t32 -21.5t21 -32.5t7.5 -41t-7.5 -41t-21 -32.5t-32 -21.5t-40.5 -8zM416 1549q-21 0 -39.5 8t-31.5 21.5t-21 32.5t-8 41t8 41t21 32.5t32 21.5t39 8q22 0 41 -8t32 -21.5t21 -32.5t8 -41t-8 -41t-21 -32.5t-32 -21.5t-41 -8z" />
<glyph unicode="&#xc5;" horiz-adv-x="1227" d="M974 0q-12 46 -24 93t-24.5 95l-25 96t-26.5 94h-535q-14 -47 -27 -94.5t-25.5 -95.5t-24.5 -95.5t-24 -92.5h-190q52 190 106 374.5t112 363t118 351.5t124 341h210q68 -180 131 -359.5t120.5 -359t110 -357.5t99.5 -354h-205zM836 527q-20 68 -42.5 139.5t-45.5 143.5 t-47 144t-48 143q-6 18 -12 37t-12.5 38.5t-11.5 38.5t-11 35h-2q-6 -17 -12 -35.5t-12 -38t-12 -38t-12 -36.5q-24 -70 -47 -141.5t-45.5 -144t-44 -144.5t-42.5 -141h459zM609 1510q-54 0 -95 15t-68.5 42t-41 64t-13.5 81q0 46 15.5 85t44.5 67.5t71 43.5q44 16 96 16 q50 0 91 -14t69 -41t43 -64t15 -83t-16 -84.5t-46 -67.5t-71.5 -44.5t-93.5 -15.5zM616 1598q22 0 40 9t30 25t18.5 37t6.5 45q0 26 -6.5 48.5t-18.5 38.5t-31 25t-43 9q-22 0 -40 -8.5t-30.5 -24t-19 -37t-6.5 -46.5q0 -28 6 -50t18 -38t31 -24.5t45 -8.5z" />
<glyph unicode="&#xc6;" horiz-adv-x="1610" d="M772 0v333h-457q-20 -46 -38.5 -89.5t-36.5 -85.5t-34 -82t-32 -76h-188q79 186 160.5 365t167 355.5t175 353t186.5 356.5h796v-150h-514v-462h457v-148h-457v-519h533v-151h-718zM772 1276h-6q-31 -61 -63.5 -124.5t-65 -129.5t-65.5 -133t-65.5 -135t-64.5 -136 l-64 -136h394v794z" />
<glyph unicode="&#xc7;" horiz-adv-x="1073" d="M601 -12q-74 8 -139.5 33t-121.5 66.5t-101 100t-76 134.5t-47.5 170t-16.5 204q0 116 18.5 217t54.5 184.5t87.5 149t118 110.5t146 68t171.5 23q45 0 87 -4.5t83 -14t80 -24.5t77 -34l-60 -145q-31 16 -63 28t-65 20t-67.5 12t-71.5 4q-64 0 -118.5 -19t-98.5 -55 t-77.5 -87t-56 -115t-34.5 -140t-12 -160q0 -140 29 -247t83 -179.5t132 -109t178 -36.5q36 0 71 5t68 14t63 21t58 26l48 -145q-32 -16 -66 -29.5t-69 -23.5t-72 -16.5t-74 -9.5l37 -86q10 -22 17 -39t11 -31t6 -26t2 -23q0 -26 -11.5 -48t-36 -39t-63.5 -26.5t-93 -9.5 q-24 0 -48 1.5t-47.5 5t-45 8t-39.5 10.5v108h174q14 0 24 1.5t16.5 4t10 8t3.5 12.5q0 4 -1 8.5t-2 10.5t-3 12.5t-5 13.5z" />
<glyph unicode="&#xc8;" horiz-adv-x="1005" d="M166 0v1430h711v-150h-525v-462h458v-148h-458v-519h533v-151h-719zM212 1697l80 137l328 -196l-60 -101z" />
<glyph unicode="&#xc9;" horiz-adv-x="1005" d="M166 0v1430h711v-150h-525v-462h458v-148h-458v-519h533v-151h-719zM485 1538l-60 100l328 197l80 -137z" />
<glyph unicode="&#xca;" horiz-adv-x="1005" d="M166 0v1430h711v-150h-525v-462h458v-148h-458v-519h533v-151h-719zM517 1668l-210 -130l-56 96l268 194l269 -192l-60 -98z" />
<glyph unicode="&#xcb;" horiz-adv-x="1005" d="M166 0v1430h711v-150h-525v-462h458v-148h-458v-519h533v-151h-719zM721 1549q-21 0 -39.5 8t-32 21.5t-21 32.5t-7.5 41t7.5 41t21 32.5t32 21.5t39.5 8q22 0 40.5 -8t32 -21.5t21 -32.5t7.5 -41t-7.5 -41t-21 -32.5t-32 -21.5t-40.5 -8zM321 1549q-21 0 -39.5 8 t-31.5 21.5t-21 32.5t-8 41t8 41t21 32.5t32 21.5t39 8q22 0 41 -8t32 -21.5t21 -32.5t8 -41t-8 -41t-21 -32.5t-32 -21.5t-41 -8z" />
<glyph unicode="&#xcc;" horiz-adv-x="519" d="M166 0v1430h186v-1430h-186zM-10 1697l80 137l328 -196l-60 -101z" />
<glyph unicode="&#xcd;" horiz-adv-x="519" d="M166 0v1430h186v-1430h-186zM175 1538l-60 100l328 197l80 -137z" />
<glyph unicode="&#xce;" horiz-adv-x="519" d="M166 0v1430h186v-1430h-186zM258 1668l-210 -130l-56 96l268 194l269 -192l-60 -98z" />
<glyph unicode="&#xcf;" horiz-adv-x="519" d="M166 0v1430h186v-1430h-186zM446 1549q-22 0 -40.5 8t-32 21.5t-21.5 32.5t-8 41t8 40.5t21.5 32.5t32 22t40.5 8t40 -8t31.5 -22t20.5 -33q8 -18 8 -40t-7.5 -41t-21 -32.5t-31.5 -21.5t-40 -8zM74 1549q-21 0 -39.5 8t-31.5 21.5t-21 32.5t-8 41t8 40.5t21 32.5t32 22 t39 8q22 0 41 -8t32 -22t21 -33q8 -18 8 -40t-8 -41t-21 -32.5t-32 -21.5t-41 -8z" />
<glyph unicode="&#xd0;" horiz-adv-x="1308" d="M187 0v658h-156v146h156v626h405q101 0 186 -22t154.5 -63t121.5 -101.5t88 -138t54 -170.5t18 -201q0 -121 -19.5 -222.5t-57 -183t-93.5 -143t-127.5 -102.5t-159 -62t-189.5 -21h-381zM578 152q110 0 192.5 35t137 106t82 179t27.5 254q0 79 -10.5 150.5t-33.5 133.5 t-58.5 111.5t-84 85t-111.5 54.5t-140 19h-207v-476h256v-146h-256v-506h206z" />
<glyph unicode="&#xd1;" horiz-adv-x="1318" d="M906 0l-567 1184h-3v-1184h-170v1430h260l553 -1154h3v1154h170v-1430h-246zM986 1730q-14 -37 -35.5 -66.5t-49 -50.5t-59.5 -32t-66 -11q-30 0 -55 6t-44 15t-42.5 25t-35 23t-28.5 12.5t-37 5.5q-16 0 -32 -6.5t-31 -19t-27.5 -30t-23.5 -40.5l-91 66q15 37 37 67 t49 50.5t59 31.5t66 11q30 0 55 -6t43 -15.5t42 -24.5t36 -22t29 -13t37 -6q16 0 32 6.5t30.5 19t27.5 30.5q14 18 24 40z" />
<glyph unicode="&#xd2;" horiz-adv-x="1405" d="M694 -24q-100 0 -182 23t-148 67t-116 108t-82.5 145t-49 178t-16.5 209q0 111 17.5 209.5t52 181.5t86.5 149t119 112t151 71t184 25q98 0 180 -24t148 -68.5t116 -108t84 -144.5t51 -177t17 -206q0 -112 -18 -211t-52 -183t-85 -150t-119 -111.5t-153 -70t-185 -24.5z M710 130q73 0 131 22t102 60.5t75.5 92t51 117t28.5 135.5t9 148q0 86 -9.5 163.5t-31 143.5t-54 119t-78.5 90t-106 57.5t-134 20.5q-72 0 -130 -21.5t-102 -60t-75 -91.5t-51 -116.5t-29 -135.5t-9 -146q0 -88 10 -166t31 -145t54 -120t79 -90t105 -57t133 -20zM394 1701 l80 137l328 -196l-60 -101z" />
<glyph unicode="&#xd3;" horiz-adv-x="1405" d="M694 -24q-100 0 -182 23t-148 67t-116 108t-82.5 145t-49 178t-16.5 209q0 111 17.5 209.5t52 181.5t86.5 149t119 112t151 71t184 25q98 0 180 -24t148 -68.5t116 -108t84 -144.5t51 -177t17 -206q0 -112 -18 -211t-52 -183t-85 -150t-119 -111.5t-153 -70t-185 -24.5z M710 130q73 0 131 22t102 60.5t75.5 92t51 117t28.5 135.5t9 148q0 86 -9.5 163.5t-31 143.5t-54 119t-78.5 90t-106 57.5t-134 20.5q-72 0 -130 -21.5t-102 -60t-75 -91.5t-51 -116.5t-29 -135.5t-9 -146q0 -88 10 -166t31 -145t54 -120t79 -90t105 -57t133 -20zM670 1542 l-60 100l328 197l80 -137z" />
<glyph unicode="&#xd4;" horiz-adv-x="1405" d="M694 -24q-100 0 -182 23t-148 67t-116 108t-82.5 145t-49 178t-16.5 209q0 111 17.5 209.5t52 181.5t86.5 149t119 112t151 71t184 25q98 0 180 -24t148 -68.5t116 -108t84 -144.5t51 -177t17 -206q0 -112 -18 -211t-52 -183t-85 -150t-119 -111.5t-153 -70t-185 -24.5z M710 130q73 0 131 22t102 60.5t75.5 92t51 117t28.5 135.5t9 148q0 86 -9.5 163.5t-31 143.5t-54 119t-78.5 90t-106 57.5t-134 20.5q-72 0 -130 -21.5t-102 -60t-75 -91.5t-51 -116.5t-29 -135.5t-9 -146q0 -88 10 -166t31 -145t54 -120t79 -90t105 -57t133 -20zM700 1672 l-210 -130l-56 96l268 194l269 -192l-60 -98z" />
<glyph unicode="&#xd5;" horiz-adv-x="1405" d="M694 -24q-100 0 -182 23t-148 67t-116 108t-82.5 145t-49 178t-16.5 209q0 111 17.5 209.5t52 181.5t86.5 149t119 112t151 71t184 25q98 0 180 -24t148 -68.5t116 -108t84 -144.5t51 -177t17 -206q0 -112 -18 -211t-52 -183t-85 -150t-119 -111.5t-153 -70t-185 -24.5z M710 130q73 0 131 22t102 60.5t75.5 92t51 117t28.5 135.5t9 148q0 86 -9.5 163.5t-31 143.5t-54 119t-78.5 90t-106 57.5t-134 20.5q-72 0 -130 -21.5t-102 -60t-75 -91.5t-51 -116.5t-29 -135.5t-9 -146q0 -88 10 -166t31 -145t54 -120t79 -90t105 -57t133 -20zM1022 1734 q-14 -37 -35.5 -66.5t-49 -50.5t-59.5 -32t-66 -11q-30 0 -55 6t-44 15t-42.5 25t-35 23t-28.5 12.5t-37 5.5q-16 0 -32 -6.5t-31 -19t-27.5 -30t-23.5 -40.5l-91 66q15 37 37 67t49 50.5t59 31.5t66 11q30 0 55 -6t43 -15.5t42 -24.5t36 -22t29 -13t37 -6q16 0 32 6.5 t30.5 19t27.5 30.5q14 18 24 40z" />
<glyph unicode="&#xd6;" horiz-adv-x="1405" d="M694 -24q-100 0 -182 23t-148 67t-116 108t-82.5 145t-49 178t-16.5 209q0 111 17.5 209.5t52 181.5t86.5 149t119 112t151 71t184 25q98 0 180 -24t148 -68.5t116 -108t84 -144.5t51 -177t17 -206q0 -112 -18 -211t-52 -183t-85 -150t-119 -111.5t-153 -70t-185 -24.5z M710 130q73 0 131 22t102 60.5t75.5 92t51 117t28.5 135.5t9 148q0 86 -9.5 163.5t-31 143.5t-54 119t-78.5 90t-106 57.5t-134 20.5q-72 0 -130 -21.5t-102 -60t-75 -91.5t-51 -116.5t-29 -135.5t-9 -146q0 -88 10 -166t31 -145t54 -120t79 -90t105 -57t133 -20zM902 1549 q-21 0 -39.5 8t-32 21.5t-21 32.5t-7.5 41t7.5 41t21 32.5t32 21.5t39.5 8q22 0 40.5 -8t32 -21.5t21 -32.5t7.5 -41t-7.5 -41t-21 -32.5t-32 -21.5t-40.5 -8zM502 1549q-21 0 -39.5 8t-31.5 21.5t-21 32.5t-8 41t8 41t21 32.5t32 21.5t39 8q22 0 41 -8t32 -21.5t21 -32.5 t8 -41t-8 -41t-21 -32.5t-32 -21.5t-41 -8z" />
<glyph unicode="&#xd7;" d="M832 192l-320 340l-320 -340l-106 102l325 342l-324 342l107 103l319 -339l319 337l106 -100l-324 -341l324 -344z" />
<glyph unicode="&#xd8;" horiz-adv-x="1404" d="M218 -148l112 232q-60 45 -104 108.5t-72 141.5t-41.5 170t-13.5 194q0 114 17.5 213.5t52.5 183.5t86 150.5t119.5 112.5t153 71t185.5 25q34 0 67.5 -4t64.5 -10.5t60 -16t56 -22.5l97 208l124 -56l-101 -217q38 -30 69.5 -68t56.5 -83.5t43 -97t30 -108.5t18 -118 t6 -127q0 -114 -17 -215t-51 -185t-86 -151t-120 -113t-153 -70t-187 -24q-34 0 -66.5 3t-63 9t-58 15t-52.5 19l-108 -226zM518 169q38 -22 86 -33t102 -11q76 0 135 21.5t105 60.5t77.5 94t52 120.5t29.5 140.5q9 76 9 156q0 42 -3 85t-8.5 84t-14.5 80t-21.5 74t-28.5 65 q-18 32 -38 56zM894 1256q-20 12 -43 20.5t-47.5 15t-51.5 9.5t-55 3q-75 0 -134.5 -21t-105 -60t-77.5 -93.5t-52 -120t-29 -140.5t-9 -154q0 -44 2.5 -87.5t8.5 -85.5t15.5 -82t22.5 -75.5t30.5 -67t39.5 -57.5z" />
<glyph unicode="&#xd9;" horiz-adv-x="1307" d="M964 1430h180v-905q0 -136 -35 -239t-99 -171.5t-155 -103t-205 -34.5q-112 0 -202 32.5t-153 98.5t-97 165t-34 231v926h185v-912q0 -65 9.5 -119t28.5 -97t45.5 -75.5t60.5 -53.5t75.5 -32t87.5 -11q70 0 127.5 24.5t97 73t61.5 120.5t22 168v914zM340 1697l80 137 l328 -196l-60 -101z" />
<glyph unicode="&#xda;" horiz-adv-x="1307" d="M964 1430h180v-905q0 -136 -35 -239t-99 -171.5t-155 -103t-205 -34.5q-112 0 -202 32.5t-153 98.5t-97 165t-34 231v926h185v-912q0 -65 9.5 -119t28.5 -97t45.5 -75.5t60.5 -53.5t75.5 -32t87.5 -11q70 0 127.5 24.5t97 73t61.5 120.5t22 168v914zM649 1538l-60 100 l328 197l80 -137z" />
<glyph unicode="&#xdb;" horiz-adv-x="1307" d="M964 1430h180v-905q0 -136 -35 -239t-99 -171.5t-155 -103t-205 -34.5q-112 0 -202 32.5t-153 98.5t-97 165t-34 231v926h185v-912q0 -65 9.5 -119t28.5 -97t45.5 -75.5t60.5 -53.5t75.5 -32t87.5 -11q70 0 127.5 24.5t97 73t61.5 120.5t22 168v914zM658 1668l-210 -130 l-56 96l268 194l269 -192l-60 -98z" />
<glyph unicode="&#xdc;" horiz-adv-x="1307" d="M964 1430h180v-905q0 -136 -35 -239t-99 -171.5t-155 -103t-205 -34.5q-112 0 -202 32.5t-153 98.5t-97 165t-34 231v926h185v-912q0 -65 9.5 -119t28.5 -97t45.5 -75.5t60.5 -53.5t75.5 -32t87.5 -11q70 0 127.5 24.5t97 73t61.5 120.5t22 168v914zM856 1549 q-21 0 -39.5 8t-32 21.5t-21 32.5t-7.5 41t7.5 41t21 32.5t32 21.5t39.5 8q22 0 40.5 -8t32 -21.5t21 -32.5t7.5 -41t-7.5 -41t-21 -32.5t-32 -21.5t-40.5 -8zM456 1549q-21 0 -39.5 8t-31.5 21.5t-21 32.5t-8 41t8 41t21 32.5t32 21.5t39 8q22 0 41 -8t32 -21.5t21 -32.5 t8 -41t-8 -41t-21 -32.5t-32 -21.5t-41 -8z" />
<glyph unicode="&#xdd;" horiz-adv-x="1077" d="M446 0v610q-63 99 -121.5 200.5t-112.5 204.5t-104 207t-96 208h208q23 -56 47.5 -112t51 -112t54 -112t56.5 -110.5t60 -108t62 -104.5q30 51 59 105t57.5 109.5t55.5 112t53 112.5t49 111t44 109h195q-29 -67 -59.5 -135.5t-64 -136.5t-69 -137t-73.5 -137.5 t-80 -137.5q-42 -68 -86 -136v-610h-186zM514 1538l-60 100l328 197l80 -137z" />
<glyph unicode="&#xde;" horiz-adv-x="1059" d="M166 0v1430h186v-243h150q23 0 46.5 -1t46.5 -3t45 -5.5t41 -7.5q68 -17 122.5 -52.5t92.5 -86.5t58 -118t20 -145q0 -108 -31 -194t-90 -145.5t-144 -91t-195 -31.5h-162v-306h-186zM526 454q62 0 109 22t78.5 61t47.5 94.5t16 122.5q0 50 -10.5 94.5t-31.5 80t-51 60 t-68 35.5q-14 4 -28 7t-30 4.5t-31 2t-29 0.5h-146v-584h174z" />
<glyph unicode="&#xdf;" horiz-adv-x="1084" d="M527 152q40 -16 78 -23q37 -7 77 -7q41 0 71.5 12.5t51.5 34t31 50.5t10 63q0 35 -10 63.5t-26 51.5t-38.5 42.5t-47.5 37.5t-51.5 36t-51 38.5t-47 43.5t-38.5 53t-26 67t-10 83q0 45 10 80.5t27 63.5t38 51t43.5 43.5t44 41t38.5 43.5t27 50t10 61q0 23 -5 45.5 t-14.5 42.5t-24.5 37t-35.5 29t-47.5 19t-59 7q-40 0 -72 -11t-57 -32t-43.5 -52t-30 -70t-17.5 -86t-6 -101v-1060h-178v1059q0 75 12 141t36 121t59 98t81.5 73.5t103.5 46.5t125 16q62 0 112.5 -12.5t90 -34.5t68 -52t47.5 -64t28 -70.5t9 -72.5q0 -48 -10.5 -85 t-27 -65.5t-38 -51t-44 -42t-43.5 -38.5t-38 -40.5t-27 -47.5t-10 -60q0 -33 9.5 -59t26 -48t39.5 -41t48 -37t52 -36t52 -39t47.5 -46t39 -56t26.5 -69.5t10 -86.5t-11 -90t-32 -78t-51 -64.5t-68 -48.5t-84 -31t-98 -11q-26 0 -50 2t-46.5 5t-44.5 9q-23 6 -45 14z" />
<glyph unicode="&#xe0;" horiz-adv-x="998" d="M716 0l-14 114q-31 -31 -64.5 -56.5t-70.5 -43.5t-78.5 -28t-89.5 -10q-73 0 -131.5 20t-100 59t-63.5 95t-22 130q0 84 32.5 145.5t91 102t139.5 59.5t181 19h152v82q0 60 -11 105t-36 74.5t-67 44t-103 14.5q-34 0 -68.5 -4t-69.5 -12t-69.5 -19.5t-67.5 -25.5l-34 136 q36 15 77 27t84 21t87 14t88 5q68 0 122 -12.5t94.5 -35t69 -54t46.5 -69.5t26 -82q8 -43 8 -91v-724h-138zM678 480h-161q-63 0 -110 -13t-78 -37t-47 -60t-16 -81q0 -40 11 -72.5t32 -55t52 -35t73 -12.5q36 0 69 10t62 27.5t57 41.5q28 25 56 53v234zM486 1197l-246 265 l136 93l210 -284z" />
<glyph unicode="&#xe1;" horiz-adv-x="998" d="M716 0l-14 114q-31 -31 -64.5 -56.5t-70.5 -43.5t-78.5 -28t-89.5 -10q-73 0 -131.5 20t-100 59t-63.5 95t-22 130q0 84 32.5 145.5t91 102t139.5 59.5t181 19h152v82q0 60 -11 105t-36 74.5t-67 44t-103 14.5q-34 0 -68.5 -4t-69.5 -12t-69.5 -19.5t-67.5 -25.5l-34 136 q36 15 77 27t84 21t87 14t88 5q68 0 122 -12.5t94.5 -35t69 -54t46.5 -69.5t26 -82q8 -43 8 -91v-724h-138zM678 480h-161q-63 0 -110 -13t-78 -37t-47 -60t-16 -81q0 -40 11 -72.5t32 -55t52 -35t73 -12.5q36 0 69 10t62 27.5t57 41.5q28 25 56 53v234zM386 1266l212 289 l138 -91l-252 -267z" />
<glyph unicode="&#xe2;" horiz-adv-x="998" d="M716 0l-14 114q-31 -31 -64.5 -56.5t-70.5 -43.5t-78.5 -28t-89.5 -10q-73 0 -131.5 20t-100 59t-63.5 95t-22 130q0 84 32.5 145.5t91 102t139.5 59.5t181 19h152v82q0 60 -11 105t-36 74.5t-67 44t-103 14.5q-34 0 -68.5 -4t-69.5 -12t-69.5 -19.5t-67.5 -25.5l-34 136 q36 15 77 27t84 21t87 14t88 5q68 0 122 -12.5t94.5 -35t69 -54t46.5 -69.5t26 -82q8 -43 8 -91v-724h-138zM678 480h-161q-63 0 -110 -13t-78 -37t-47 -60t-16 -81q0 -40 11 -72.5t32 -55t52 -35t73 -12.5q36 0 69 10t62 27.5t57 41.5q28 25 56 53v234zM491 1378l-191 -179 l-71 87l266 275l267 -273l-77 -89z" />
<glyph unicode="&#xe3;" horiz-adv-x="998" d="M716 0l-14 114q-31 -31 -64.5 -56.5t-70.5 -43.5t-78.5 -28t-89.5 -10q-73 0 -131.5 20t-100 59t-63.5 95t-22 130q0 84 32.5 145.5t91 102t139.5 59.5t181 19h152v82q0 60 -11 105t-36 74.5t-67 44t-103 14.5q-34 0 -68.5 -4t-69.5 -12t-69.5 -19.5t-67.5 -25.5l-34 136 q36 15 77 27t84 21t87 14t88 5q68 0 122 -12.5t94.5 -35t69 -54t46.5 -69.5t26 -82q8 -43 8 -91v-724h-138zM678 480h-161q-63 0 -110 -13t-78 -37t-47 -60t-16 -81q0 -40 11 -72.5t32 -55t52 -35t73 -12.5q36 0 69 10t62 27.5t57 41.5q28 25 56 53v234zM812 1430 q-14 -38 -35 -69t-47.5 -52t-57 -32.5t-64.5 -11.5q-30 0 -54 6t-42.5 15.5t-42 25.5t-35 23t-28 12.5t-36.5 5.5q-16 0 -32 -6.5t-30 -19t-27 -31t-23 -40.5l-86 68q15 38 36 68t47 51.5t56.5 33t64.5 11.5q30 0 54 -6t42.5 -15.5t42 -25t34.5 -22.5t28 -13t36 -6 q16 0 32 6t30.5 19t27.5 31t23 40z" />
<glyph unicode="&#xe4;" horiz-adv-x="998" d="M716 0l-14 114q-31 -31 -64.5 -56.5t-70.5 -43.5t-78.5 -28t-89.5 -10q-73 0 -131.5 20t-100 59t-63.5 95t-22 130q0 84 32.5 145.5t91 102t139.5 59.5t181 19h152v82q0 60 -11 105t-36 74.5t-67 44t-103 14.5q-34 0 -68.5 -4t-69.5 -12t-69.5 -19.5t-67.5 -25.5l-34 136 q36 15 77 27t84 21t87 14t88 5q68 0 122 -12.5t94.5 -35t69 -54t46.5 -69.5t26 -82q8 -43 8 -91v-724h-138zM678 480h-161q-63 0 -110 -13t-78 -37t-47 -60t-16 -81q0 -40 11 -72.5t32 -55t52 -35t73 -12.5q36 0 69 10t62 27.5t57 41.5q28 25 56 53v234zM682 1272 q-22 0 -41.5 8t-33 22t-21.5 33t-8 43q0 23 8 42t21.5 33t32.5 21q20 8 42 8t41 -7.5t32.5 -21.5t21 -33.5t7.5 -41.5q0 -23 -7.5 -42.5t-21 -33.5t-32.5 -22t-41 -8zM318 1272q-22 0 -41 8t-32.5 22t-21 33t-7.5 43q0 23 7.5 42t21 33t32.5 21.5t41 7.5q23 0 42 -7.5 t32.5 -21.5t21.5 -33.5t8 -41.5q0 -23 -8 -42.5t-21.5 -33.5t-32.5 -22t-42 -8z" />
<glyph unicode="&#xe5;" horiz-adv-x="998" d="M716 0l-14 114q-31 -31 -64.5 -56.5t-70.5 -43.5t-78.5 -28t-89.5 -10q-73 0 -131.5 20t-100 59t-63.5 95t-22 130q0 84 32.5 145.5t91 102t139.5 59.5t181 19h152v82q0 60 -11 105t-36 74.5t-67 44t-103 14.5q-34 0 -68.5 -4t-69.5 -12t-69.5 -19.5t-67.5 -25.5l-34 136 q36 15 77 27t84 21t87 14t88 5q68 0 122 -12.5t94.5 -35t69 -54t46.5 -69.5t26 -82q8 -43 8 -91v-724h-138zM678 480h-161q-63 0 -110 -13t-78 -37t-47 -60t-16 -81q0 -40 11 -72.5t32 -55t52 -35t73 -12.5q36 0 69 10t62 27.5t57 41.5q28 25 56 53v234zM490 1178 q-52 0 -93 15t-67.5 43.5t-40 67t-13.5 84.5q0 47 15 86.5t44 69.5t70 46t93 16q49 0 88.5 -15t67.5 -43t42.5 -66t14.5 -86q0 -46 -15.5 -86t-44.5 -70t-70 -46t-91 -16zM496 1270q22 0 40 9t29.5 25t17.5 38t6 46q0 28 -5.5 51t-17.5 39.5t-30.5 26t-43.5 9.5 q-22 0 -39.5 -9t-29.5 -25t-18.5 -37t-6.5 -47q0 -30 6 -53t17 -39t30 -25t45 -9z" />
<glyph unicode="&#xe6;" horiz-adv-x="1594" d="M1499 602q0 -10 -0.5 -24t-0.5 -29v-31q-2 -16 -2 -30h-643q0 -56 6.5 -105t20.5 -89.5t36 -72.5t55 -54.5t76 -33.5t98 -11q44 0 84 3.5t76.5 10t72.5 15.5q34 9 70 19l23 -138q-38 -12 -79.5 -22.5t-86.5 -18t-92 -11.5t-97 -4q-66 0 -123 12.5t-102 35.5t-79 56 q-34 32 -56 74q-40 -44 -80.5 -77.5t-84 -56t-91 -33.5t-102.5 -11q-74 0 -132 20t-99 59t-63 97t-22 133q0 84 32 146.5t89.5 103.5t138 61t176.5 20h158v72q0 60 -11 105t-36 74.5t-66 44t-103 14.5q-33 0 -67.5 -4t-69.5 -12t-69.5 -19.5t-67.5 -25.5l-34 136 q36 15 77 27t84 21t87 14t88 5q60 0 108.5 -11t86 -31t64.5 -49.5t45 -67.5q28 42 62.5 71.5t75 49t86.5 29t98 9.5q68 0 122 -15.5t97 -44t74 -70t52 -93t30.5 -113.5t9.5 -130zM1318 616q3 74 -9.5 133t-40.5 99.5t-70 62t-96 21.5q-43 0 -77.5 -12.5t-62.5 -35t-48 -52.5 t-33.5 -65t-20.5 -73q-6 -40 -8 -78h466v0zM676 488h-160q-64 0 -111 -13t-77.5 -38.5t-46 -61t-15.5 -81.5q0 -42 11 -75t32 -56t52 -36t71 -13q38 0 70 10t61.5 28t57 45t55.5 60v231z" />
<glyph unicode="&#xe7;" horiz-adv-x="841" d="M448 -14q-62 7 -113 27.5t-91 53t-69.5 77t-49 100t-29.5 121t-10 140.5q0 134 33 238.5t92 175t142 107t185 36.5q32 0 63 -3t61 -9.5t59 -17t57 -24.5l-40 -136q-22 10 -45 18t-47 14t-49 9t-50 3q-72 0 -123.5 -28.5t-84.5 -80t-48.5 -124.5t-15.5 -161 q0 -98 17 -171.5t51.5 -122t85.5 -73.5t121 -25q28 0 53.5 3t50.5 8t49 13q25 9 49 20l30 -137q-25 -12 -49.5 -20.5t-48.5 -14.5t-47 -10t-45 -8l38 -86q10 -22 17 -39t11 -31t5 -26t1 -23q0 -26 -11 -48t-36 -39t-63.5 -26.5t-93.5 -9.5q-23 0 -47.5 1.5t-47.5 5t-45 7.5 q-20 5 -38 11v108h173q14 0 24 1.5t16.5 4t9.5 8t3 12.5q0 4 -0.5 8.5t-2 10.5t-3.5 12.5t-4 13.5z" />
<glyph unicode="&#xe8;" horiz-adv-x="1016" d="M894 32q-38 -12 -80 -22.5t-86.5 -18t-92 -11.5t-97.5 -4q-115 0 -199.5 34t-140 102t-83 169t-27.5 236q0 126 29 227.5t86 173.5t140 111t193 39q68 0 122.5 -16t97.5 -45t74.5 -70t51.5 -93t30 -113.5t10 -130.5q0 -8 -0.5 -20.5t-1 -27t-1 -28.5t-0.5 -27h-643 q0 -58 6 -108.5t20 -92.5t36.5 -74t55 -54.5t75.5 -34t99 -11.5q44 0 83.5 3.5t76.5 10t72.5 15.5t70.5 19zM742 626q2 70 -11 127t-41 96.5t-69 61t-96 21.5q-43 0 -78 -12.5t-62 -34.5t-47 -51.5t-34 -63.5t-21 -71t-7 -73h466zM529 1197l-246 265l136 93l210 -284z" />
<glyph unicode="&#xe9;" horiz-adv-x="1016" d="M894 32q-38 -12 -80 -22.5t-86.5 -18t-92 -11.5t-97.5 -4q-115 0 -199.5 34t-140 102t-83 169t-27.5 236q0 126 29 227.5t86 173.5t140 111t193 39q68 0 122.5 -16t97.5 -45t74.5 -70t51.5 -93t30 -113.5t10 -130.5q0 -8 -0.5 -20.5t-1 -27t-1 -28.5t-0.5 -27h-643 q0 -58 6 -108.5t20 -92.5t36.5 -74t55 -54.5t75.5 -34t99 -11.5q44 0 83.5 3.5t76.5 10t72.5 15.5t70.5 19zM742 626q2 70 -11 127t-41 96.5t-69 61t-96 21.5q-43 0 -78 -12.5t-62 -34.5t-47 -51.5t-34 -63.5t-21 -71t-7 -73h466zM432 1266l212 289l138 -91l-252 -267z" />
<glyph unicode="&#xea;" horiz-adv-x="1016" d="M894 32q-38 -12 -80 -22.5t-86.5 -18t-92 -11.5t-97.5 -4q-115 0 -199.5 34t-140 102t-83 169t-27.5 236q0 126 29 227.5t86 173.5t140 111t193 39q68 0 122.5 -16t97.5 -45t74.5 -70t51.5 -93t30 -113.5t10 -130.5q0 -8 -0.5 -20.5t-1 -27t-1 -28.5t-0.5 -27h-643 q0 -58 6 -108.5t20 -92.5t36.5 -74t55 -54.5t75.5 -34t99 -11.5q44 0 83.5 3.5t76.5 10t72.5 15.5t70.5 19zM742 626q2 70 -11 127t-41 96.5t-69 61t-96 21.5q-43 0 -78 -12.5t-62 -34.5t-47 -51.5t-34 -63.5t-21 -71t-7 -73h466zM522 1378l-191 -179l-71 87l266 275 l267 -273l-77 -89z" />
<glyph unicode="&#xeb;" horiz-adv-x="1016" d="M894 32q-38 -12 -80 -22.5t-86.5 -18t-92 -11.5t-97.5 -4q-115 0 -199.5 34t-140 102t-83 169t-27.5 236q0 126 29 227.5t86 173.5t140 111t193 39q68 0 122.5 -16t97.5 -45t74.5 -70t51.5 -93t30 -113.5t10 -130.5q0 -8 -0.5 -20.5t-1 -27t-1 -28.5t-0.5 -27h-643 q0 -58 6 -108.5t20 -92.5t36.5 -74t55 -54.5t75.5 -34t99 -11.5q44 0 83.5 3.5t76.5 10t72.5 15.5t70.5 19zM742 626q2 70 -11 127t-41 96.5t-69 61t-96 21.5q-43 0 -78 -12.5t-62 -34.5t-47 -51.5t-34 -63.5t-21 -71t-7 -73h466zM710 1272q-22 0 -41.5 8t-33 22t-21.5 33 t-8 43q0 23 8 42t21.5 33t32.5 21q20 8 42 8t41 -7.5t32.5 -21.5t21 -33.5t7.5 -41.5q0 -23 -7.5 -42.5t-21 -33.5t-32.5 -22t-41 -8zM346 1272q-22 0 -41 8t-32.5 22t-21 33t-7.5 43q0 23 7.5 42t21 33t32.5 21.5t41 7.5q23 0 42 -7.5t32.5 -21.5t21.5 -33.5t8 -41.5 q0 -23 -8 -42.5t-21.5 -33.5t-32.5 -22t-42 -8z" />
<glyph unicode="&#xec;" horiz-adv-x="518" d="M192 0v904h-154v140h333v-1044h-179zM262 1197l-246 265l136 93l210 -284z" />
<glyph unicode="&#xed;" horiz-adv-x="518" d="M192 0v904h-154v140h333v-1044h-179zM126 1266l212 289l138 -91l-252 -267z" />
<glyph unicode="&#xee;" horiz-adv-x="518" d="M192 0v904h-154v140h333v-1044h-179zM258 1378l-191 -179l-71 87l266 275l267 -273l-77 -89z" />
<glyph unicode="&#xef;" horiz-adv-x="518" d="M192 0v904h-154v140h333v-1044h-179zM440 1272q-22 0 -41.5 8t-33 22t-21.5 33t-8 43q0 23 8 42t21.5 33t33 21.5t41.5 7.5t41 -7.5t32.5 -21.5t21 -33.5t7.5 -41.5q0 -23 -7.5 -42.5t-21 -33.5t-32.5 -22t-41 -8zM94 1272q-23 0 -42.5 8t-33 22t-21 33t-7.5 43 q0 23 7.5 42t21 33t32.5 21.5t43 7.5q22 0 41 -7.5t32 -21.5t21 -33.5t8 -41.5q0 -23 -8 -42.5t-21 -33.5t-32 -22t-41 -8z" />
<glyph unicode="&#xf0;" horiz-adv-x="1110" d="M744 1303q65 -89 113.5 -179.5t80.5 -183t48 -186.5t16 -192q0 -142 -32.5 -251t-93 -183.5t-147.5 -113t-197 -38.5q-74 0 -135 18t-110 51t-86 80.5t-61.5 106.5t-37 128.5t-12.5 148.5q0 80 14.5 151.5t41 132.5t66 109t89.5 82t109.5 52t129.5 18q23 0 44.5 -3 t43.5 -8.5t43.5 -15t43.5 -23.5q-13 30 -29 60t-34.5 61t-38 60.5t-41.5 57.5l-204 -84l-64 107l192 80q-16 20 -33.5 40t-35 39.5t-36.5 39t-38 39.5l177 57q16 -18 34 -36.5t35 -38t34 -40t33 -40.5l230 92l64 -108zM780 828q-31 22 -62 38t-60.5 26.5t-59 16t-57.5 5.5 q-46 0 -83.5 -14.5t-66.5 -41t-50 -62t-35 -78t-21 -89.5t-7 -96q0 -62 7 -117.5t21.5 -101t36.5 -82t51.5 -61.5t67.5 -38t84 -13q62 0 112 24t85.5 76t54.5 132t19 191q0 34 -2.5 69t-6.5 71t-11 72.5t-17 72.5z" />
<glyph unicode="&#xf1;" horiz-adv-x="1101" d="M780 0v633q0 64 -9 116.5t-30 90t-56 58t-86 20.5q-40 0 -73.5 -11t-65.5 -33t-64 -56t-70 -81v-737h-178v1044h138l20 -152q38 44 75 77t76 55t83 33t94 11q60 0 107 -14.5t83 -41t62 -62.5t42 -81t23 -96t7 -105v-668h-178zM875 1430q-14 -38 -35 -69t-47.5 -52 t-57 -32.5t-64.5 -11.5q-30 0 -54 6t-42.5 15.5t-42 25.5t-35 23t-28 12.5t-36.5 5.5q-16 0 -32 -6.5t-30 -19t-27 -31t-23 -40.5l-86 68q15 38 36 68t47 51.5t56.5 33t64.5 11.5q30 0 54 -6t42.5 -15.5t42 -25t34.5 -22.5t28 -13t36 -6q16 0 32 6t30.5 19t27.5 31t23 40z " />
<glyph unicode="&#xf2;" horiz-adv-x="1100" d="M542 -24q-110 0 -194.5 37t-143 106t-88.5 168t-30 222q0 85 14 159.5t42 136.5t68 110.5t92.5 82.5t117 52t138.5 18q110 0 195 -37.5t143 -107t88 -169t30 -223.5q0 -84 -14 -157.5t-41 -135.5t-67.5 -110.5t-93 -82t-116.5 -51.5t-140 -18zM554 122q46 0 83.5 13 t68 37.5t52.5 59t37 77.5t23 93.5t8 107.5q0 60 -7 114t-22 100t-38 82.5t-54 62t-71 39.5q-40 13 -88 13q-68 0 -119 -28.5t-84.5 -80.5t-50.5 -123t-17 -157q0 -60 7.5 -114t21.5 -99.5t37 -82t54 -61.5t71 -39t88 -14zM553 1197l-246 265l136 93l210 -284z" />
<glyph unicode="&#xf3;" horiz-adv-x="1100" d="M542 -24q-110 0 -194.5 37t-143 106t-88.5 168t-30 222q0 85 14 159.5t42 136.5t68 110.5t92.5 82.5t117 52t138.5 18q110 0 195 -37.5t143 -107t88 -169t30 -223.5q0 -84 -14 -157.5t-41 -135.5t-67.5 -110.5t-93 -82t-116.5 -51.5t-140 -18zM554 122q46 0 83.5 13 t68 37.5t52.5 59t37 77.5t23 93.5t8 107.5q0 60 -7 114t-22 100t-38 82.5t-54 62t-71 39.5q-40 13 -88 13q-68 0 -119 -28.5t-84.5 -80.5t-50.5 -123t-17 -157q0 -60 7.5 -114t21.5 -99.5t37 -82t54 -61.5t71 -39t88 -14zM442 1266l212 289l138 -91l-252 -267z" />
<glyph unicode="&#xf4;" horiz-adv-x="1100" d="M542 -24q-110 0 -194.5 37t-143 106t-88.5 168t-30 222q0 85 14 159.5t42 136.5t68 110.5t92.5 82.5t117 52t138.5 18q110 0 195 -37.5t143 -107t88 -169t30 -223.5q0 -84 -14 -157.5t-41 -135.5t-67.5 -110.5t-93 -82t-116.5 -51.5t-140 -18zM554 122q46 0 83.5 13 t68 37.5t52.5 59t37 77.5t23 93.5t8 107.5q0 60 -7 114t-22 100t-38 82.5t-54 62t-71 39.5q-40 13 -88 13q-68 0 -119 -28.5t-84.5 -80.5t-50.5 -123t-17 -157q0 -60 7.5 -114t21.5 -99.5t37 -82t54 -61.5t71 -39t88 -14zM547 1378l-191 -179l-71 87l266 275l267 -273 l-77 -89z" />
<glyph unicode="&#xf5;" horiz-adv-x="1100" d="M542 -24q-110 0 -194.5 37t-143 106t-88.5 168t-30 222q0 85 14 159.5t42 136.5t68 110.5t92.5 82.5t117 52t138.5 18q110 0 195 -37.5t143 -107t88 -169t30 -223.5q0 -84 -14 -157.5t-41 -135.5t-67.5 -110.5t-93 -82t-116.5 -51.5t-140 -18zM554 122q46 0 83.5 13 t68 37.5t52.5 59t37 77.5t23 93.5t8 107.5q0 60 -7 114t-22 100t-38 82.5t-54 62t-71 39.5q-40 13 -88 13q-68 0 -119 -28.5t-84.5 -80.5t-50.5 -123t-17 -157q0 -60 7.5 -114t21.5 -99.5t37 -82t54 -61.5t71 -39t88 -14zM872 1430q-14 -38 -35 -69t-47.5 -52t-57 -32.5 t-64.5 -11.5q-30 0 -54 6t-42.5 15.5t-42 25.5t-35 23t-28 12.5t-36.5 5.5q-16 0 -32 -6.5t-30 -19t-27 -31t-23 -40.5l-86 68q15 38 36 68t47 51.5t56.5 33t64.5 11.5q30 0 54 -6t42.5 -15.5t42 -25t34.5 -22.5t28 -13t36 -6q16 0 32 6t30.5 19t27.5 31t23 40z" />
<glyph unicode="&#xf6;" horiz-adv-x="1100" d="M542 -24q-110 0 -194.5 37t-143 106t-88.5 168t-30 222q0 85 14 159.5t42 136.5t68 110.5t92.5 82.5t117 52t138.5 18q110 0 195 -37.5t143 -107t88 -169t30 -223.5q0 -84 -14 -157.5t-41 -135.5t-67.5 -110.5t-93 -82t-116.5 -51.5t-140 -18zM554 122q46 0 83.5 13 t68 37.5t52.5 59t37 77.5t23 93.5t8 107.5q0 60 -7 114t-22 100t-38 82.5t-54 62t-71 39.5q-40 13 -88 13q-68 0 -119 -28.5t-84.5 -80.5t-50.5 -123t-17 -157q0 -60 7.5 -114t21.5 -99.5t37 -82t54 -61.5t71 -39t88 -14zM734 1272q-22 0 -41.5 8t-33 22t-21.5 33t-8 43 q0 23 8 42t21.5 33t32.5 21q20 8 42 8t41 -7.5t32.5 -21.5t21 -33.5t7.5 -41.5q0 -23 -7.5 -42.5t-21 -33.5t-32.5 -22t-41 -8zM370 1272q-22 0 -41 8t-32.5 22t-21 33t-7.5 43q0 23 7.5 42t21 33t32.5 21.5t41 7.5q23 0 42 -7.5t32.5 -21.5t21.5 -33.5t8 -41.5 q0 -23 -8 -42.5t-21.5 -33.5t-32.5 -22t-42 -8z" />
<glyph unicode="&#xf7;" d="M508 914q-26 0 -49 10t-40 27.5t-27 41t-10 50.5q0 26 10 49.5t27 40.5t40 27t49 10t49 -10t40 -27t27 -40t10 -50t-10 -50.5t-27 -41t-40 -27.5t-49 -10zM72 561v150h872v-150h-872zM508 104q-26 0 -49 10t-40 27t-27 40t-10 51q0 27 10 50t27 40.5t40 27.5t49 10 t49 -10t40 -27.5t27 -41t10 -49.5q0 -27 -10 -50.5t-27 -40.5t-40 -27t-49 -10z" />
<glyph unicode="&#xf8;" horiz-adv-x="1100" d="M172 -158l96 209q-49 34 -83.5 82.5t-56.5 107t-32 127t-10 142.5q0 85 14 159.5t42 136t68 110t92.5 82.5t117 52t138.5 18q22 0 45 -2t44 -5.5t41 -9t38 -11.5l96 208l112 -44l-100 -214q45 -32 78.5 -77.5t56.5 -103t34 -126.5t11 -149q0 -83 -14.5 -156.5t-42 -135.5 t-68.5 -111t-94 -83t-116.5 -52.5t-137.5 -18.5q-24 0 -46.5 1.5t-42.5 5t-39 8t-35 10.5l-96 -204zM439 138q12 -6 25 -10t27.5 -7t30.5 -4t34 -1q48 0 87 13.5t70 39t54.5 61.5t39 80t23.5 95t8 108q0 38 -3 72t-8 64t-12 55.5t-16 47.5t-20 40q-11 20 -23 34zM664 905 q-24 12 -54 18t-63 6q-72 0 -125.5 -29.5t-88.5 -82.5t-52 -126.5t-17 -160.5q0 -32 2 -63t6 -60.5t10.5 -56.5t15.5 -51.5t21 -45.5t27 -37z" />
<glyph unicode="&#xf9;" horiz-adv-x="1101" d="M815 0l-20 152q-38 -45 -74.5 -78t-76 -54.5t-83 -32.5t-93.5 -11q-60 0 -108 14.5t-84 40.5t-61 62.5t-41 81.5t-24 95q-8 52 -8 106v668h179v-634q0 -42 4 -79.5t12.5 -69t22.5 -57t34 -43t47 -27t61 -9.5q40 0 74 11t65.5 33.5t64 56.5t69.5 80v738h179v-1044h-139z M540 1197l-246 265l136 93l210 -284z" />
<glyph unicode="&#xfa;" horiz-adv-x="1101" d="M815 0l-20 152q-38 -45 -74.5 -78t-76 -54.5t-83 -32.5t-93.5 -11q-60 0 -108 14.5t-84 40.5t-61 62.5t-41 81.5t-24 95q-8 52 -8 106v668h179v-634q0 -42 4 -79.5t12.5 -69t22.5 -57t34 -43t47 -27t61 -9.5q40 0 74 11t65.5 33.5t64 56.5t69.5 80v738h179v-1044h-139z M446 1266l212 289l138 -91l-252 -267z" />
<glyph unicode="&#xfb;" horiz-adv-x="1101" d="M815 0l-20 152q-38 -45 -74.5 -78t-76 -54.5t-83 -32.5t-93.5 -11q-60 0 -108 14.5t-84 40.5t-61 62.5t-41 81.5t-24 95q-8 52 -8 106v668h179v-634q0 -42 4 -79.5t12.5 -69t22.5 -57t34 -43t47 -27t61 -9.5q40 0 74 11t65.5 33.5t64 56.5t69.5 80v738h179v-1044h-139z M547 1378l-191 -179l-71 87l266 275l267 -273l-77 -89z" />
<glyph unicode="&#xfc;" horiz-adv-x="1101" d="M815 0l-20 152q-38 -45 -74.5 -78t-76 -54.5t-83 -32.5t-93.5 -11q-60 0 -108 14.5t-84 40.5t-61 62.5t-41 81.5t-24 95q-8 52 -8 106v668h179v-634q0 -42 4 -79.5t12.5 -69t22.5 -57t34 -43t47 -27t61 -9.5q40 0 74 11t65.5 33.5t64 56.5t69.5 80v738h179v-1044h-139z M748 1272q-22 0 -41.5 8t-33 22t-21.5 33t-8 43q0 23 8 42t21.5 33t32.5 21q20 8 42 8t41 -7.5t32.5 -21.5t21 -33.5t7.5 -41.5q0 -23 -7.5 -42.5t-21 -33.5t-32.5 -22t-41 -8zM384 1272q-22 0 -41 8t-32.5 22t-21 33t-7.5 43q0 23 7.5 42t21 33t32.5 21.5t41 7.5 q23 0 42 -7.5t32.5 -21.5t21.5 -33.5t8 -41.5q0 -23 -8 -42.5t-21.5 -33.5t-32.5 -22t-42 -8z" />
<glyph unicode="&#xfd;" horiz-adv-x="924" d="M57 -296h103q18 0 34 6t33 19t34 35t36 54.5t41 77t46 102.5q-30 73 -60 153.5t-61 166t-61 175t-58 181.5t-53 185t-47 185h188q22 -94 47 -185t51 -178.5t53 -173t55 -169.5q6 -18 12 -37t11.5 -38t10.5 -37q6 -18 11 -36h3q6 18 11 36t11 37l12 38q4 19 10 37 q26 84 51 171t47 176t42 179t38 180h176q-41 -176 -81.5 -328t-80 -282t-78 -238t-76.5 -196t-72.5 -155t-66.5 -117t-63.5 -83t-62.5 -54t-64 -29.5t-70 -8.5q-16 0 -32 1.5t-31 4.5t-28.5 6t-26.5 7zM387 1266l212 289l138 -91l-252 -267z" />
<glyph unicode="&#xfe;" horiz-adv-x="1090" d="M148 -425v1961h178v-628q32 39 66 68.5t71.5 50t80 31t92.5 10.5q65 0 117.5 -19t92.5 -52t69.5 -80t48.5 -103t28 -121t9 -135q0 -76 -12 -148.5t-37 -136t-63.5 -116.5t-90.5 -91t-119.5 -59t-149.5 -21q-52 0 -103 5t-100 15v-431h-178zM326 170q22 -10 46 -18 t49.5 -14t53 -8.5t57.5 -2.5q71 0 123.5 28.5t87.5 81.5t52 131t17 176q0 47 -4 93.5t-14 88t-26 77t-39.5 61.5t-56 41t-74.5 15q-24 0 -45 -4t-43 -13t-43 -23t-44 -34.5t-47 -47.5q-24 -28 -50 -62v-566z" />
<glyph unicode="&#xff;" horiz-adv-x="924" d="M57 -296h103q18 0 34 6t33 19t34 35t36 54.5t41 77t46 102.5q-30 73 -60 153.5t-61 166t-61 175t-58 181.5t-53 185t-47 185h188q22 -94 47 -185t51 -178.5t53 -173t55 -169.5q6 -18 12 -37t11.5 -38t10.5 -37q6 -18 11 -36h3q6 18 11 36t11 37l12 38q4 19 10 37 q26 84 51 171t47 176t42 179t38 180h176q-41 -176 -81.5 -328t-80 -282t-78 -238t-76.5 -196t-72.5 -155t-66.5 -117t-63.5 -83t-62.5 -54t-64 -29.5t-70 -8.5q-16 0 -32 1.5t-31 4.5t-28.5 6t-26.5 7zM656 1272q-22 0 -41.5 8t-33 22t-21.5 33t-8 43q0 23 8 42t21.5 33 t32.5 21q20 8 42 8t41 -7.5t32.5 -21.5t21 -33.5t7.5 -41.5q0 -23 -7.5 -42.5t-21 -33.5t-32.5 -22t-41 -8zM292 1272q-22 0 -41 8t-32.5 22t-21 33t-7.5 43q0 23 7.5 42t21 33t32.5 21.5t41 7.5q23 0 42 -7.5t32.5 -21.5t21.5 -33.5t8 -41.5q0 -23 -8 -42.5t-21.5 -33.5 t-32.5 -22t-42 -8z" />
<glyph unicode="&#x100;" horiz-adv-x="1227" d="M974 0q-12 46 -24 93t-24.5 95l-25 96t-26.5 94h-535q-14 -47 -27 -94.5t-25.5 -95.5t-24.5 -95.5t-24 -92.5h-190q52 190 106 374.5t112 363t118 351.5t124 341h210q68 -180 131 -359.5t120.5 -359t110 -357.5t99.5 -354h-205zM836 527q-20 68 -42.5 139.5t-45.5 143.5 t-47 144t-48 143q-6 18 -12 37t-12.5 38.5t-11.5 38.5t-11 35h-2q-6 -17 -12 -35.5t-12 -38t-12 -38t-12 -36.5q-24 -70 -47 -141.5t-45.5 -144t-44 -144.5t-42.5 -141h459zM322 1598v130h573v-130h-573z" />
<glyph unicode="&#x101;" horiz-adv-x="998" d="M716 0l-14 114q-31 -31 -64.5 -56.5t-70.5 -43.5t-78.5 -28t-89.5 -10q-73 0 -131.5 20t-100 59t-63.5 95t-22 130q0 84 32.5 145.5t91 102t139.5 59.5t181 19h152v82q0 60 -11 105t-36 74.5t-67 44t-103 14.5q-34 0 -68.5 -4t-69.5 -12t-69.5 -19.5t-67.5 -25.5l-34 136 q36 15 77 27t84 21t87 14t88 5q68 0 122 -12.5t94.5 -35t69 -54t46.5 -69.5t26 -82q8 -43 8 -91v-724h-138zM678 480h-161q-63 0 -110 -13t-78 -37t-47 -60t-16 -81q0 -40 11 -72.5t32 -55t52 -35t73 -12.5q36 0 69 10t62 27.5t57 41.5q28 25 56 53v234zM240 1298v129h518 v-129h-518z" />
<glyph unicode="&#x102;" horiz-adv-x="1227" d="M974 0q-12 46 -24 93t-24.5 95l-25 96t-26.5 94h-535q-14 -47 -27 -94.5t-25.5 -95.5t-24.5 -95.5t-24 -92.5h-190q52 190 106 374.5t112 363t118 351.5t124 341h210q68 -180 131 -359.5t120.5 -359t110 -357.5t99.5 -354h-205zM836 527q-20 68 -42.5 139.5t-45.5 143.5 t-47 144t-48 143q-6 18 -12 37t-12.5 38.5t-11.5 38.5t-11 35h-2q-6 -17 -12 -35.5t-12 -38t-12 -38t-12 -36.5q-24 -70 -47 -141.5t-45.5 -144t-44 -144.5t-42.5 -141h459zM882 1822q0 -41 -7 -77.5t-22 -68t-38 -57t-53.5 -43.5t-69 -27.5t-86.5 -9.5t-87 10.5t-69 28.5 t-52 44t-36.5 57.5t-21.5 67.5q-7 35 -7 75h125q0 -36 10.5 -65t30 -50t47.5 -32t64 -11q32 0 59 9t47 28t31 49t11 72h124z" />
<glyph unicode="&#x103;" horiz-adv-x="998" d="M716 0l-14 114q-31 -31 -64.5 -56.5t-70.5 -43.5t-78.5 -28t-89.5 -10q-73 0 -131.5 20t-100 59t-63.5 95t-22 130q0 84 32.5 145.5t91 102t139.5 59.5t181 19h152v82q0 60 -11 105t-36 74.5t-67 44t-103 14.5q-34 0 -68.5 -4t-69.5 -12t-69.5 -19.5t-67.5 -25.5l-34 136 q36 15 77 27t84 21t87 14t88 5q68 0 122 -12.5t94.5 -35t69 -54t46.5 -69.5t26 -82q8 -43 8 -91v-724h-138zM678 480h-161q-63 0 -110 -13t-78 -37t-47 -60t-16 -81q0 -40 11 -72.5t32 -55t52 -35t73 -12.5q36 0 69 10t62 27.5t57 41.5q28 25 56 53v234zM765 1518 q0 -41 -6 -78.5t-19 -71t-33.5 -61.5t-50 -48.5t-68.5 -31.5t-87 -11q-49 0 -87.5 11t-67.5 32t-49 49.5t-32.5 62t-18 70.5t-5.5 77h118q0 -37 9 -68.5t27 -56t46 -38t64 -13.5q34 0 60.5 11.5t45 34t28 55.5t9.5 75h117z" />
<glyph unicode="&#x104;" horiz-adv-x="1227" d="M1248 -386q-16 -6 -36 -12t-41 -10t-44 -6t-45 -2q-60 0 -102 12t-69 34t-39 53.5t-12 70.5q0 32 9.5 64t28 64t45.5 61.5t62 56.5h-31q-12 46 -24 93t-24.5 95l-25 96t-26.5 94h-535q-14 -47 -27 -94.5t-25.5 -95.5t-24.5 -95.5t-24 -92.5h-190q52 190 106 374.5 t112 363t118 351.5t124 341h210q68 -180 131 -359.5t120.5 -359t110 -357.5t99.5 -354q-41 -29 -69.5 -57.5t-46 -55.5t-25.5 -51t-8 -45q0 -22 5 -38t15.5 -26.5t28 -16t43.5 -5.5q23 0 50 5q28 6 54 16zM836 527q-20 68 -42.5 139t-45.5 143.5t-46.5 144.5t-47.5 143 q-6 18 -12.5 37t-12.5 38.5t-11.5 38.5t-11.5 35h-2q-6 -17 -12 -35.5t-12 -38t-12 -38t-12 -36.5q-24 -70 -47 -141.5t-45.5 -144t-44 -144.5t-42.5 -141h459z" />
<glyph unicode="&#x105;" horiz-adv-x="998" d="M934 -386q-16 -6 -34.5 -11.5t-38.5 -9t-41.5 -6.5t-42.5 -3q-58 0 -98 12.5t-65 35t-36.5 53.5t-11.5 69q0 30 10 62t28 64t45 62t61 58l-8 120q-31 -32 -65.5 -58t-72.5 -45t-81 -30t-91 -11q-47 0 -88 9t-75.5 26.5t-61.5 43t-46 59.5t-29 76t-10 90q0 84 32.5 145.5 t91 102t139.5 59.5t181 19h152v82q0 60 -11 105t-36 74.5t-67 44t-103 14.5q-34 0 -68.5 -4t-69.5 -12t-69.5 -19.5t-67.5 -25.5l-34 136q36 15 77 27t84 21t87 14t88 5q68 0 122 -12.5t94.5 -35t69 -54t46.5 -69.5t26 -82q8 -43 8 -91v-724q-32 -29 -55 -57.5t-38 -55.5 t-23 -51t-8 -45q0 -22 5 -38t15 -27t26.5 -16.5t39.5 -5.5q12 0 23 1.5t23.5 4t25.5 6.5q12 2 24 8zM678 480h-161q-63 0 -110 -13t-78 -37t-47 -60t-16 -81q0 -40 11 -72.5t31 -55t50 -35t70 -12.5q37 0 70 11t63.5 29.5t59.5 43.5q29 26 57 54v228z" />
<glyph unicode="&#x106;" horiz-adv-x="1073" d="M1028 63q-36 -18 -76 -33.5t-83 -26t-87 -16.5t-89 -6q-138 0 -248.5 46.5t-187 137.5t-117.5 225q-41 132 -41 306q0 116 18.5 217t54.5 184.5t87.5 149t118 110.5t146 68t171.5 23q45 0 87 -4.5t83 -14t80 -24.5t77 -34l-60 -146q-31 16 -63 27.5t-65 19.5t-67.5 12 t-71.5 4q-64 0 -118.5 -19t-98.5 -54t-77.5 -86t-56 -115t-34.5 -140t-12 -160q0 -140 29 -247t83 -179t132 -108.5t178 -36.5q36 0 71 5.5t68 14.5t63 21t58 26l48 -147v0zM586 1542l-60 100l328 197l80 -137z" />
<glyph unicode="&#x107;" horiz-adv-x="841" d="M782 37q-35 -16 -69.5 -27t-67.5 -17.5t-65 -9.5t-63 -3q-112 0 -193.5 37.5t-134 106t-78 165.5t-25.5 216q0 134 33 238.5t92 175t142 107t185 36.5q32 0 63 -3t61 -9.5t59 -17t57 -24.5l-40 -136q-22 10 -45 18t-47 14t-49 9t-50 3q-72 0 -123.5 -28.5t-84.5 -80 t-48.5 -124.5t-15.5 -161q0 -98 17 -171.5t51.5 -122t85.5 -73.5t121 -25q28 0 53.5 3t50.5 8t49 13q25 9 49 20zM386 1266l212 289l138 -91l-252 -267z" />
<glyph unicode="&#x108;" horiz-adv-x="1073" d="M1028 63q-36 -18 -76 -33.5t-83 -26t-87 -16.5t-89 -6q-138 0 -248.5 46.5t-187 137.5t-117.5 225q-41 132 -41 306q0 116 18.5 217t54.5 184.5t87.5 149t118 110.5t146 68t171.5 23q45 0 87 -4.5t83 -14t80 -24.5t77 -34l-60 -146q-31 16 -63 27.5t-65 19.5t-67.5 12 t-71.5 4q-64 0 -118.5 -19t-98.5 -54t-77.5 -86t-56 -115t-34.5 -140t-12 -160q0 -140 29 -247t83 -179t132 -108.5t178 -36.5q36 0 71 5.5t68 14.5t63 21t58 26l48 -147v0zM672 1672l-210 -130l-56 96l268 194l269 -192l-60 -98z" />
<glyph unicode="&#x109;" horiz-adv-x="841" d="M782 37q-35 -16 -69.5 -27t-67.5 -17.5t-65 -9.5t-63 -3q-112 0 -193.5 37.5t-134 106t-78 165.5t-25.5 216q0 134 33 238.5t92 175t142 107t185 36.5q32 0 63 -3t61 -9.5t59 -17t57 -24.5l-40 -136q-22 10 -45 18t-47 14t-49 9t-50 3q-72 0 -123.5 -28.5t-84.5 -80 t-48.5 -124.5t-15.5 -161q0 -98 17 -171.5t51.5 -122t85.5 -73.5t121 -25q28 0 53.5 3t50.5 8t49 13q25 9 49 20zM507 1378l-191 -179l-71 87l266 275l267 -273l-77 -89z" />
<glyph unicode="&#x10a;" horiz-adv-x="1073" d="M1028 63q-36 -18 -76 -33.5t-83 -26t-87 -16.5t-89 -6q-138 0 -248.5 46.5t-187 137.5t-117.5 225q-41 132 -41 306q0 116 18.5 217t54.5 184.5t87.5 149t118 110.5t146 68t171.5 23q45 0 87 -4.5t83 -14t80 -24.5t77 -34l-60 -146q-31 16 -63 27.5t-65 19.5t-67.5 12 t-71.5 4q-64 0 -118.5 -19t-98.5 -54t-77.5 -86t-56 -115t-34.5 -140t-12 -160q0 -140 29 -247t83 -179t132 -108.5t178 -36.5q36 0 71 5.5t68 14.5t63 21t58 26l48 -147v0zM796 1658q0 -26 -9 -47t-25.5 -37t-39 -25t-48.5 -9t-48 9t-38.5 25t-25.5 38q-10 20 -10 46 t9.5 47.5t26 37t38.5 24.5t48 9t48.5 -9t39 -24.5t25.5 -37t9 -47.5z" />
<glyph unicode="&#x10b;" horiz-adv-x="841" d="M782 37q-35 -16 -69.5 -27t-67.5 -17.5t-65 -9.5t-63 -3q-112 0 -193.5 37.5t-134 106t-78 165.5t-25.5 216q0 134 33 238.5t92 175t142 107t185 36.5q32 0 63 -3t61 -9.5t59 -17t57 -24.5l-40 -136q-22 10 -45 18t-47 14t-49 9t-50 3q-72 0 -123.5 -28.5t-84.5 -80 t-48.5 -124.5t-15.5 -161q0 -98 17 -171.5t51.5 -122t85.5 -73.5t121 -25q28 0 53.5 3t50.5 8t49 13q25 9 49 20zM506 1251q-26 0 -48 9t-38 25.5t-25.5 38.5t-9.5 48t9.5 49t25.5 39t38 25t48 9t48 -9t38 -25t25 -38q9 -24 9 -50t-9 -48t-25 -38.5t-38 -25.5t-48 -9z" />
<glyph unicode="&#x10c;" horiz-adv-x="1073" d="M1028 63q-36 -18 -76 -33.5t-83 -26t-87 -16.5t-89 -6q-138 0 -248.5 46.5t-187 137.5t-117.5 225q-41 132 -41 306q0 116 18.5 217t54.5 184.5t87.5 149t118 110.5t146 68t171.5 23q45 0 87 -4.5t83 -14t80 -24.5t77 -34l-60 -146q-31 16 -63 27.5t-65 19.5t-67.5 12 t-71.5 4q-64 0 -118.5 -19t-98.5 -54t-77.5 -86t-56 -115t-34.5 -140t-12 -160q0 -140 29 -247t83 -179t132 -108.5t178 -36.5q36 0 71 5.5t68 14.5t63 21t58 26l48 -147v0zM662 1536l-268 191l60 97l211 -130l209 130l57 -94z" />
<glyph unicode="&#x10d;" horiz-adv-x="841" d="M782 37q-35 -16 -69.5 -27t-67.5 -17.5t-65 -9.5t-63 -3q-112 0 -193.5 37.5t-134 106t-78 165.5t-25.5 216q0 134 33 238.5t92 175t142 107t185 36.5q32 0 63 -3t61 -9.5t59 -17t57 -24.5l-40 -136q-22 10 -45 18t-47 14t-49 9t-50 3q-72 0 -123.5 -28.5t-84.5 -80 t-48.5 -124.5t-15.5 -161q0 -98 17 -171.5t51.5 -122t85.5 -73.5t121 -25q28 0 53.5 3t50.5 8t49 13q25 9 49 20zM221 1475l76 89l195 -179l191 179l72 -86l-267 -278z" />
<glyph unicode="&#x10e;" horiz-adv-x="1288" d="M166 0v1430h405q101 0 186 -22t154.5 -63t122 -101.5t88.5 -138t54 -170.5t18 -201q0 -121 -20 -222.5t-57.5 -183t-93 -143t-127.5 -102.5t-159.5 -62t-189.5 -21h-381zM557 152q110 0 192.5 35t137.5 106t82 179t27 254q0 79 -10.5 150.5t-33.5 133.5t-58.5 111.5 t-84 85t-111 54.5t-140.5 19h-206v-1128h205zM596 1532l-268 191l60 97l211 -130l209 130l57 -94z" />
<glyph unicode="&#x10f;" horiz-adv-x="1220" d="M804 0l-16 156q-37 -46 -73.5 -79.5t-76.5 -56t-85 -33.5t-97 -11q-65 0 -117.5 18.5t-93.5 52t-70 79.5t-48 103t-28 122t-9 135q0 76 12 148.5t37 136t63 116.5t90.5 91t120 59t149.5 21q27 0 52.5 -1.5t51 -4t50 -6.5t48.5 -10v500h179v-1536h-139zM764 874 q-44 20 -95 31t-110 11q-71 0 -123.5 -28t-87 -81.5t-52 -131t-17.5 -175.5q0 -47 4 -93.5t13.5 -88.5t25.5 -77.5t39.5 -61.5t55 -40.5t73.5 -14.5q24 0 46 4t43 13t43 23t44.5 35t46.5 49q23 26 51 62v564zM1032 1174l101 397l158 -32l-137 -386z" />
<glyph unicode="&#x110;" horiz-adv-x="1308" d="M187 0v658h-156v146h156v626h405q101 0 186 -22t154.5 -63t121.5 -101.5t88 -138t54 -170.5t18 -201q0 -121 -19.5 -222.5t-57 -183t-93.5 -143t-127.5 -102.5t-159 -62t-189.5 -21h-381zM578 152q110 0 192.5 35t137 106t82 179t27.5 254q0 79 -10.5 150.5t-33.5 133.5 t-58.5 111.5t-84 85t-111.5 54.5t-140 19h-207v-476h256v-146h-256v-506h206z" />
<glyph unicode="&#x111;" horiz-adv-x="1090" d="M804 0l-16 156q-37 -46 -73.5 -79.5t-76.5 -56t-85 -33.5t-97 -11q-65 0 -117.5 18.5t-93.5 52t-70 79.5t-48 103t-28 122t-9 135q0 76 12 148.5t37 136t63 116.5t90 90.5t119 58.5t149 21q27 0 53.5 -1.5t52 -4t50.5 -6.5q24 -3 48 -9v177h-220v135h220v188h179v-188 h143v-135h-143v-1213h-139zM764 874q-44 20 -95 31t-110 11q-71 0 -123.5 -28t-87 -81.5t-52 -131t-17.5 -175.5q0 -47 4 -93.5t13.5 -88.5t25.5 -77.5t39.5 -61.5t55 -40.5t73.5 -14.5q24 0 46 4t43 13t43 23t44.5 35t46.5 49q23 26 51 62v564z" />
<glyph unicode="&#x112;" horiz-adv-x="1005" d="M166 0v1430h711v-150h-525v-462h458v-148h-458v-519h533v-151h-719zM237 1598v130h573v-130h-573z" />
<glyph unicode="&#x113;" horiz-adv-x="1016" d="M894 32q-38 -12 -80 -22.5t-86.5 -18t-92 -11.5t-97.5 -4q-115 0 -199.5 34t-140 102t-83 169t-27.5 236q0 126 29 227.5t86 173.5t140 111t193 39q68 0 122.5 -16t97.5 -45t74.5 -70t51.5 -93t30 -113.5t10 -130.5q0 -8 -0.5 -20.5t-1 -27t-1 -28.5t-0.5 -27h-643 q0 -58 6 -108.5t20 -92.5t36.5 -74t55 -54.5t75.5 -34t99 -11.5q44 0 83.5 3.5t76.5 10t72.5 15.5t70.5 19zM742 626q2 70 -11 127t-41 96.5t-69 61t-96 21.5q-43 0 -78 -12.5t-62 -34.5t-47 -51.5t-34 -63.5t-21 -71t-7 -73h466zM260 1298v129h518v-129h-518z" />
<glyph unicode="&#x114;" horiz-adv-x="1005" d="M166 0v1430h711v-150h-525v-462h458v-148h-458v-519h533v-151h-719zM800 1822q0 -41 -7 -77.5t-22 -68t-38 -57t-53.5 -43.5t-69 -27.5t-86.5 -9.5t-87 10.5t-69 28.5t-52 44t-36.5 57.5t-21.5 67.5q-7 35 -7 75h125q0 -36 10.5 -65t30 -50t47.5 -32t64 -11q32 0 59 9 t47 28t31 49t11 72h124z" />
<glyph unicode="&#x115;" horiz-adv-x="1016" d="M894 32q-38 -12 -80 -22.5t-86.5 -18t-92 -11.5t-97.5 -4q-115 0 -199.5 34t-140 102t-83 169t-27.5 236q0 126 29 227.5t86 173.5t140 111t193 39q68 0 122.5 -16t97.5 -45t74.5 -70t51.5 -93t30 -113.5t10 -130.5q0 -8 -0.5 -20.5t-1 -27t-1 -28.5t-0.5 -27h-643 q0 -58 6 -108.5t20 -92.5t36.5 -74t55 -54.5t75.5 -34t99 -11.5q44 0 83.5 3.5t76.5 10t72.5 15.5t70.5 19zM742 626q2 70 -11 127t-41 96.5t-69 61t-96 21.5q-43 0 -78 -12.5t-62 -34.5t-47 -51.5t-34 -63.5t-21 -71t-7 -73h466zM770 1518q0 -41 -6 -78.5t-19 -71 t-33.5 -61.5t-50 -48.5t-68.5 -31.5t-87 -11q-49 0 -87.5 11t-67.5 32t-49 49.5t-32.5 62t-18 70.5t-5.5 77h118q0 -37 9 -68.5t27 -56t46 -38t64 -13.5q34 0 60.5 11.5t45 34t28 55.5t9.5 75h117z" />
<glyph unicode="&#x116;" horiz-adv-x="1005" d="M166 0v1430h711v-150h-525v-462h458v-148h-458v-519h533v-151h-719zM646 1658q0 -26 -9 -47t-25.5 -37t-39 -25t-48.5 -9t-48 9t-38.5 25t-25.5 38q-10 20 -10 46t9.5 47.5t26 37t38.5 24.5t48 9t48.5 -9t39 -24.5t25.5 -37t9 -47.5z" />
<glyph unicode="&#x117;" horiz-adv-x="1016" d="M894 32q-38 -12 -80 -22.5t-86.5 -18t-92 -11.5t-97.5 -4q-115 0 -199.5 34t-140 102t-83 169t-27.5 236q0 126 29 227.5t86 173.5t140 111t193 39q68 0 122.5 -16t97.5 -45t74.5 -70t51.5 -93t30 -113.5t10 -130.5q0 -8 -0.5 -20.5t-1 -27t-1 -28.5t-0.5 -27h-643 q0 -58 6 -108.5t20 -92.5t36.5 -74t55 -54.5t75.5 -34t99 -11.5q44 0 83.5 3.5t76.5 10t72.5 15.5t70.5 19zM742 626q2 70 -11 127t-41 96.5t-69 61t-96 21.5q-43 0 -78 -12.5t-62 -34.5t-47 -51.5t-34 -63.5t-21 -71t-7 -73h466zM518 1251q-26 0 -48 9t-38 25.5t-25.5 38.5 t-9.5 48t9.5 49t25.5 39t38 25t48 9t48 -9t38 -25t25 -38q9 -24 9 -50t-9 -48t-25 -38.5t-38 -25.5t-48 -9z" />
<glyph unicode="&#x118;" horiz-adv-x="1005" d="M958 -386q-16 -6 -35.5 -12t-41 -10t-43.5 -6t-45 -2q-60 0 -102.5 12t-69 34t-39 53.5t-12.5 70.5q0 32 10 64t28 64t44 61.5t60 56.5h-546v1430h711v-150h-525v-462h458v-148h-458v-519h533v-151q-40 -29 -67.5 -57.5t-45 -55.5t-25 -51t-7.5 -45q0 -22 5 -38t16 -26.5 t29 -16.5q16 -5 42 -5q24 0 51 5q27 6 53 16z" />
<glyph unicode="&#x119;" horiz-adv-x="1016" d="M898 -386q-16 -6 -35 -11.5t-39 -9t-41 -6.5t-43 -3q-58 0 -98 12.5t-65 35t-36 53.5t-11 69q0 29 9 59.5t25.5 60.5t40 59t52.5 53q-14 -3 -28.5 -4.5t-29 -2.5t-30 -2t-31.5 -1q-115 0 -199.5 34t-140 102t-83 169t-27.5 236q0 126 29 227.5t86 173.5t140 111t193 39 q68 0 122.5 -16t97.5 -45t74.5 -70t51.5 -93t30 -113.5t10 -130.5q0 -8 -0.5 -20.5t-1 -27t-1 -28.5t-0.5 -27h-643q0 -58 6 -108.5t20 -92.5t36.5 -74t55 -54.5t75.5 -34t99 -11.5q44 0 83.5 3.5t76.5 10t72.5 15.5t70.5 19l23 -138q-36 -14 -64.5 -33t-50.5 -40.5t-38 -45 t-26.5 -45.5t-15.5 -41.5t-5 -35.5q0 -22 5 -38t15 -27t26 -16.5t40 -5.5q11 0 22.5 1.5t23.5 4t25 6.5q13 2 25 8zM742 626q2 70 -11 127t-41 96.5t-69 61t-96 21.5q-43 0 -78 -12.5t-62 -34.5t-47 -51.5t-34 -63.5t-21 -71t-7 -73h466z" />
<glyph unicode="&#x11a;" horiz-adv-x="1005" d="M166 0v1430h711v-150h-525v-462h458v-148h-458v-519h533v-151h-719zM522 1532l-268 191l60 97l211 -130l209 130l57 -94z" />
<glyph unicode="&#x11b;" horiz-adv-x="1016" d="M894 32q-38 -12 -80 -22.5t-86.5 -18t-92 -11.5t-97.5 -4q-115 0 -199.5 34t-140 102t-83 169t-27.5 236q0 126 29 227.5t86 173.5t140 111t193 39q68 0 122.5 -16t97.5 -45t74.5 -70t51.5 -93t30 -113.5t10 -130.5q0 -8 -0.5 -20.5t-1 -27t-1 -28.5t-0.5 -27h-643 q0 -58 6 -108.5t20 -92.5t36.5 -74t55 -54.5t75.5 -34t99 -11.5q44 0 83.5 3.5t76.5 10t72.5 15.5t70.5 19zM742 626q2 70 -11 127t-41 96.5t-69 61t-96 21.5q-43 0 -78 -12.5t-62 -34.5t-47 -51.5t-34 -63.5t-21 -71t-7 -73h466zM250 1475l76 89l195 -179l191 179l72 -86 l-267 -278z" />
<glyph unicode="&#x11c;" horiz-adv-x="1264" d="M928 747h186v-693q-44 -18 -91.5 -32t-98 -23.5t-103 -15t-104.5 -5.5q-102 0 -187.5 23t-154.5 67t-121 107t-87 143t-53 176t-18 206q0 114 19 213.5t57 182.5t92 148.5t125 110.5t156 69t184 24q55 0 108 -8t103 -22.5t97 -36t91 -47.5l-64 -144q-39 24 -80.5 43 t-84.5 32t-87 20t-88 7q-73 0 -133.5 -19.5t-108.5 -56t-83.5 -88.5t-59.5 -116t-35.5 -139.5t-11.5 -158.5q0 -138 29 -246t85 -181t137 -111.5t182 -38.5q52 0 102 8q49 7 101 23v579zM694 1672l-210 -130l-56 96l268 194l269 -192l-60 -98z" />
<glyph unicode="&#x11d;" horiz-adv-x="1090" d="M764 150q-36 -42 -71 -72t-73 -49.5t-78.5 -29t-86.5 -9.5q-65 0 -117.5 18t-93 51t-69.5 79t-48 102t-28 120t-9 134q0 76 12 148t38 135t65.5 115t93 89t123.5 57t154 20q44 0 92 -4t96 -12t93.5 -19t85.5 -25v-975q0 -82 -11 -148.5t-34.5 -119t-59.5 -90.5t-86.5 -63 t-116 -37t-147.5 -12q-28 0 -61.5 1.5t-68.5 4.5t-71.5 7.5t-70.5 11.5l6 133q30 -2 62 -4t65 -3.5t65 -2t64 -0.5q52 0 93.5 6t73.5 20.5t54.5 37.5t37 58t21 82t6.5 108v137zM764 876q-22 10 -46 17t-49 12.5t-52.5 8t-56.5 2.5q-70 0 -123 -28t-88 -80.5t-52.5 -128.5 t-17.5 -172q0 -46 4 -91.5t13.5 -86.5t25.5 -76t39 -61t56 -40t75 -14q35 0 67.5 9t64.5 30t66 57q34 35 74 87v555zM541 1378l-191 -179l-71 87l266 275l267 -273l-77 -89z" />
<glyph unicode="&#x11e;" horiz-adv-x="1264" d="M928 747h186v-693q-44 -18 -91.5 -32t-98 -23.5t-103 -15t-104.5 -5.5q-102 0 -187.5 23t-154.5 67t-121 107t-87 143t-53 176t-18 206q0 114 19 213.5t57 182.5t92 148.5t125 110.5t156 69t184 24q55 0 108 -8t103 -22.5t97 -36t91 -47.5l-64 -144q-39 24 -80.5 43 t-84.5 32t-87 20t-88 7q-73 0 -133.5 -19.5t-108.5 -56t-83.5 -88.5t-59.5 -116t-35.5 -139.5t-11.5 -158.5q0 -138 29 -246t85 -181t137 -111.5t182 -38.5q52 0 102 8q49 7 101 23v579zM952 1834q0 -41 -7 -77.5t-22 -68t-38 -57t-53.5 -43.5t-69 -27.5t-86.5 -9.5 t-87 10.5t-69 28.5t-52 44t-36.5 57.5t-21.5 67.5q-7 35 -7 75h125q0 -36 10.5 -65t30 -50t47.5 -32t64 -11q32 0 59 9t47 28t31 49t11 72h124z" />
<glyph unicode="&#x11f;" horiz-adv-x="1090" d="M764 150q-36 -42 -71 -72t-73 -49.5t-78.5 -29t-86.5 -9.5q-65 0 -117.5 18t-93 51t-69.5 79t-48 102t-28 120t-9 134q0 76 12 148t38 135t65.5 115t93 89t123.5 57t154 20q44 0 92 -4t96 -12t93.5 -19t85.5 -25v-975q0 -82 -11 -148.5t-34.5 -119t-59.5 -90.5t-86.5 -63 t-116 -37t-147.5 -12q-28 0 -61.5 1.5t-68.5 4.5t-71.5 7.5t-70.5 11.5l6 133q30 -2 62 -4t65 -3.5t65 -2t64 -0.5q52 0 93.5 6t73.5 20.5t54.5 37.5t37 58t21 82t6.5 108v137zM764 876q-22 10 -46 17t-49 12.5t-52.5 8t-56.5 2.5q-70 0 -123 -28t-88 -80.5t-52.5 -128.5 t-17.5 -172q0 -46 4 -91.5t13.5 -86.5t25.5 -76t39 -61t56 -40t75 -14q35 0 67.5 9t64.5 30t66 57q34 35 74 87v555zM806 1518q0 -41 -6 -78.5t-19 -71t-33.5 -61.5t-50 -48.5t-68.5 -31.5t-87 -11q-49 0 -87.5 11t-67.5 32t-49 49.5t-32.5 62t-18 70.5t-5.5 77h118 q0 -37 9 -68.5t27 -56t46 -38t64 -13.5q34 0 60.5 11.5t45 34t28 55.5t9.5 75h117z" />
<glyph unicode="&#x120;" horiz-adv-x="1264" d="M928 747h186v-693q-44 -18 -91.5 -32t-98 -23.5t-103 -15t-104.5 -5.5q-102 0 -187.5 23t-154.5 67t-121 107t-87 143t-53 176t-18 206q0 114 19 213.5t57 182.5t92 148.5t125 110.5t156 69t184 24q55 0 108 -8t103 -22.5t97 -36t91 -47.5l-64 -144q-39 24 -80.5 43 t-84.5 32t-87 20t-88 7q-73 0 -133.5 -19.5t-108.5 -56t-83.5 -88.5t-59.5 -116t-35.5 -139.5t-11.5 -158.5q0 -138 29 -246t85 -181t137 -111.5t182 -38.5q52 0 102 8q49 7 101 23v579zM813 1658q0 -26 -9 -47t-25.5 -37t-39 -25t-48.5 -9t-48 9t-38.5 25t-25.5 38 q-10 20 -10 46t9.5 47.5t26 37t38.5 24.5t48 9t48.5 -9t39 -24.5t25.5 -37t9 -47.5z" />
<glyph unicode="&#x121;" horiz-adv-x="1090" d="M764 150q-36 -42 -71 -72t-73 -49.5t-78.5 -29t-86.5 -9.5q-65 0 -117.5 18t-93 51t-69.5 79t-48 102t-28 120t-9 134q0 76 12 148t38 135t65.5 115t93 89t123.5 57t154 20q44 0 92 -4t96 -12t93.5 -19t85.5 -25v-975q0 -82 -11 -148.5t-34.5 -119t-59.5 -90.5t-86.5 -63 t-116 -37t-147.5 -12q-28 0 -61.5 1.5t-68.5 4.5t-71.5 7.5t-70.5 11.5l6 133q30 -2 62 -4t65 -3.5t65 -2t64 -0.5q52 0 93.5 6t73.5 20.5t54.5 37.5t37 58t21 82t6.5 108v137zM764 876q-22 10 -46 17t-49 12.5t-52.5 8t-56.5 2.5q-70 0 -123 -28t-88 -80.5t-52.5 -128.5 t-17.5 -172q0 -46 4 -91.5t13.5 -86.5t25.5 -76t39 -61t56 -40t75 -14q35 0 67.5 9t64.5 30t66 57q34 35 74 87v555zM544 1254q-26 0 -48 9t-38 25.5t-25.5 38.5t-9.5 48t9.5 49t25.5 39t38 25t48 9t48 -9t38 -25t25 -38q9 -24 9 -50t-9 -48t-25 -38.5t-38 -25.5t-48 -9z " />
<glyph unicode="&#x122;" horiz-adv-x="1264" d="M928 747h186v-693q-44 -18 -91.5 -32t-98 -23.5t-103 -15t-104.5 -5.5q-102 0 -187.5 23t-154.5 67t-121 107t-87 143t-53 176t-18 206q0 114 19 213.5t57 182.5t92 148.5t125 110.5t156 69t184 24q55 0 108 -8t103 -22.5t97 -36t91 -47.5l-64 -144q-39 24 -80.5 43 t-84.5 32t-87 20t-88 7q-73 0 -133.5 -19.5t-108.5 -56t-83.5 -88.5t-59.5 -116t-35.5 -139.5t-11.5 -158.5q0 -138 29 -246t85 -181t137 -111.5t182 -38.5q52 0 102 8q49 7 101 23v579zM382 -332q51 0 84.5 6t55.5 16t35 24t21 30t15 31.5t16 30.5q8 12 16.5 20.5t19 14.5 t22.5 9q11 4 25 4q20 0 38 -7.5t31 -20t20 -30.5t7 -38q0 -28 -12 -53t-34 -46.5t-53 -38t-69 -28.5t-80.5 -18t-87.5 -6h-19t-18 0.5t-17 1t-16 0.5v98z" />
<glyph unicode="&#x123;" horiz-adv-x="1090" d="M764 150q-36 -42 -71 -72t-73 -49.5t-78.5 -29t-86.5 -9.5q-65 0 -117.5 18t-93 51t-69.5 79t-48 102t-28 120t-9 134q0 76 12 148t38 135t65.5 115t93 89t123.5 57t154 20q44 0 92 -4t96 -12t93.5 -19t85.5 -25v-975q0 -82 -11 -148.5t-34.5 -119t-59.5 -90.5t-86.5 -63 t-116 -37t-147.5 -12q-28 0 -61.5 1.5t-68.5 4.5t-71.5 7.5t-70.5 11.5l6 133q30 -2 62 -4t65 -3.5t65 -2t64 -0.5q52 0 93.5 6t73.5 20.5t54.5 37.5t37 58t21 82t6.5 108v137zM764 876q-22 10 -46 17t-49 12.5t-52.5 8t-56.5 2.5q-70 0 -123 -28t-88 -80.5t-52.5 -128.5 t-17.5 -172q0 -46 4 -91.5t13.5 -86.5t25.5 -76t39 -61t56 -40t75 -14q35 0 67.5 9t64.5 30t66 57q34 35 74 87v555zM844 1396q-38 0 -67 -3.5t-50 -10t-35.5 -15.5t-24.5 -19t-16.5 -22t-12 -23.5t-10.5 -23t-11 -21.5q-8 -12 -17 -21t-19 -15t-22 -9t-26 -3q-20 0 -37.5 7 t-30 20t-20.5 31t-8 38q0 28 12 53t34 46t53 38t68 29t80 18t90 6h19.5t18 -0.5l17 -1t15.5 -0.5v-98z" />
<glyph unicode="&#x124;" horiz-adv-x="1276" d="M925 0v665h-573v-665h-186v1430h186v-606h573v606h185v-1430h-185zM636 1668l-210 -130l-56 96l268 194l269 -192l-60 -98z" />
<glyph unicode="&#x125;" horiz-adv-x="1101" d="M780 0v633q0 42 -4 80t-12.5 69.5t-22.5 56.5t-34 43t-47 27t-61 9q-40 0 -73.5 -11t-65.5 -33t-64 -56t-70 -81v-737h-178v1536h178v-634q34 40 68 71t71.5 52t80 32t91.5 11q59 0 106 -14.5t82 -41t61 -62.5t42 -81t23 -96t7 -105v-668h-178zM548 1750l-210 -130 l-56 96l268 194l269 -192l-60 -98z" />
<glyph unicode="&#x126;" horiz-adv-x="1317" d="M945 0v649h-573v-649h-185v1060h-167v148h167v222h185v-222h573v222h186v-222h166v-148h-166v-1060h-186zM945 1060h-573v-262h573v262z" />
<glyph unicode="&#x127;" horiz-adv-x="1103" d="M782 0v632q0 42 -4 80t-12 70t-22 57t-34 42t-47 27t-61 10q-40 0 -74 -11t-66 -33.5t-64 -57t-70 -80.5v-736h-178v1228h-154v134h154v178h178v-178h277v-134h-277v-328q34 40 68 71t72 52t80 32t92 11q59 0 105.5 -14.5t82 -41t61 -62.5t41.5 -81t23.5 -96t7.5 -105 v-666h-179z" />
<glyph unicode="&#x128;" horiz-adv-x="519" d="M166 0v1430h186v-1430h-186zM588 1730q-14 -37 -35.5 -66.5t-49 -50.5t-59.5 -32t-66 -11q-30 0 -55 6t-44 15t-42.5 25t-35 23t-28.5 12.5t-37 5.5q-16 0 -32 -6.5t-31 -19t-27.5 -30t-23.5 -40.5l-91 66q15 37 37 67t49 50.5t59 31.5t66 11q30 0 55 -6t43 -15.5 t42 -24.5t36 -22t29 -13t37 -6q16 0 32 6.5t30.5 19t27.5 30.5q14 18 24 40z" />
<glyph unicode="&#x129;" horiz-adv-x="518" d="M192 0v904h-154v140h333v-1044h-179zM580 1430q-14 -38 -35 -69t-47.5 -52t-57 -32.5t-64.5 -11.5q-30 0 -54 6t-42.5 15.5t-42 25.5t-35 23t-28 12.5t-36.5 5.5q-16 0 -32 -6.5t-30 -19t-27 -31t-23 -40.5l-86 68q15 38 36 68t47 51.5t56.5 33t64.5 11.5q30 0 54 -6 t42.5 -15.5t42 -25t34.5 -22.5t28 -13t36 -6q16 0 32 6t30.5 19t27.5 31t23 40z" />
<glyph unicode="&#x12a;" horiz-adv-x="519" d="M166 0v1430h186v-1430h-186zM-26 1598v130h573v-130h-573z" />
<glyph unicode="&#x12b;" horiz-adv-x="518" d="M192 0v904h-154v140h333v-1044h-179zM-2 1298v129h518v-129h-518z" />
<glyph unicode="&#x12c;" horiz-adv-x="519" d="M166 0v1430h186v-1430h-186zM534 1822q0 -41 -7 -77.5t-22 -68t-38 -57t-53.5 -43.5t-69 -27.5t-86.5 -9.5t-87 10.5t-69 28.5t-52 44t-36.5 57.5t-21.5 67.5q-7 35 -7 75h125q0 -36 10.5 -65t30 -50t47.5 -32t64 -11q32 0 59 9t47 28t31 49t11 72h124z" />
<glyph unicode="&#x12d;" horiz-adv-x="518" d="M192 0v904h-154v140h333v-1044h-179zM521 1518q0 -41 -6 -78.5t-19 -71t-33.5 -61.5t-50 -48.5t-68.5 -31.5t-87 -11q-49 0 -87.5 11t-67.5 32t-49 49.5t-32.5 62t-18 70.5t-5.5 77h118q0 -37 9 -68.5t27 -56t46 -38t64 -13.5q34 0 60.5 11.5t45 34t28 55.5t9.5 75h117z " />
<glyph unicode="&#x12e;" horiz-adv-x="519" d="M434 -386q-16 -6 -36 -12t-41 -10t-44 -6t-45 -2q-60 0 -102 12t-69 34t-39 53.5t-12 70.5q0 32 9 64t26 63.5t42 61.5t55 57h-12v1430h186v-1430q-38 -29 -64 -57.5t-42 -55.5t-23 -51t-7 -45q0 -22 5 -38t15.5 -26.5t28 -16t43.5 -5.5q23 0 50 5q28 6 54 16z" />
<glyph unicode="&#x12f;" horiz-adv-x="518" d="M273 1250q-26 0 -48.5 9t-38.5 25t-25 39t-9 49t9 48.5t25 38.5t38 25.5t49 9.5q26 0 48.5 -9.5t38.5 -25.5t25 -38.5t9 -48.5t-9 -49t-25 -39t-38.5 -25t-48.5 -9zM452 -386q-16 -6 -35 -11.5t-39 -9t-41 -6.5t-43 -3q-58 0 -98 12.5t-65 35t-37 53.5t-12 69q0 30 10 62 t29 64t45 62t60 58h-34v904h-154v140h333v-1044q-32 -29 -55 -57.5t-38.5 -55.5t-23 -51t-7.5 -45q0 -22 4.5 -38t15.5 -27t27 -16.5t38 -5.5q12 0 24 1.5t24 4t24 6.5q12 2 26 8z" />
<glyph unicode="&#x130;" horiz-adv-x="519" d="M166 0v1430h186v-1430h-186zM382 1658q0 -26 -9 -47t-25.5 -37t-39 -25t-48.5 -9t-48 9t-38.5 25t-25.5 38q-10 20 -10 46t9.5 47.5t26 37t38.5 24.5t48 9t48.5 -9t39 -24.5t25.5 -37t9 -47.5z" />
<glyph unicode="&#x131;" horiz-adv-x="518" d="M192 0v904h-154v140h333v-1044h-179z" />
<glyph unicode="&#x132;" horiz-adv-x="1148" d="M166 0v1430h186v-1430h-186zM557 142h92q28 0 50 5t38.5 17t28 31.5t18.5 47.5t11 65.5t4 85.5v1036h185v-1022q0 -64 -5.5 -121t-18 -104t-34 -84t-54 -63t-77 -39.5t-103.5 -13.5q-15 0 -32.5 0.5t-35.5 2.5t-35.5 4.5t-31.5 6.5v145z" />
<glyph unicode="&#x133;" horiz-adv-x="989" d="M273 1250q-26 0 -48.5 9t-38.5 25t-25 39t-9 49t9 48.5t25 38.5t38 25.5t49 9.5q26 0 48.5 -9.5t38.5 -25.5t25 -38.5t9 -48.5t-9 -49t-25 -39t-38.5 -25t-48.5 -9zM192 0v904h-154v140h333v-1044h-179zM753 1250q-26 0 -48.5 9t-38.5 25t-25 39t-9 49t9 48.5t25 38.5 t38.5 25.5t48.5 9.5t48 -9.5t38 -25.5t25 -38.5t9 -48.5t-9 -49t-25 -39t-38 -25t-48 -9zM449 -295h87q32 0 56 12.5t39.5 40.5t23.5 72.5t8 107.5v1106h179v-1086q0 -81 -9.5 -142t-26 -106t-41 -75t-55.5 -47.5t-68 -25.5t-78 -8q-16 0 -31.5 1t-31.5 3t-31 5t-27 7z" />
<glyph unicode="&#x134;" horiz-adv-x="630" d="M38 142h92q28 0 50 5t38.5 17t28 31.5t18.5 47.5t11 65.5t4 85.5v1036h185v-1022q0 -64 -5.5 -121t-18 -104t-34 -84t-54 -63t-77 -39.5t-103.5 -13.5q-15 0 -32.5 0.5t-35.5 2.5t-35.5 4.5t-31.5 6.5v145zM369 1668l-210 -130l-56 96l268 194l269 -192l-60 -98z" />
<glyph unicode="&#x135;" horiz-adv-x="494" d="M-46 -295h87q32 0 56 12.5t39.5 40.5t23.5 72.5t8 107.5v1106h179v-1086q0 -81 -9.5 -142t-26 -106t-41 -75t-55.5 -47.5t-68 -25.5t-78 -8q-16 0 -31.5 1t-31.5 3t-31 5t-27 7zM256 1378l-191 -179l-71 87l266 275l267 -273l-77 -89z" />
<glyph unicode="&#x136;" horiz-adv-x="1128" d="M868 0l-428 712l-88 -100v-612h-186v1430h186v-607q62 74 125 150t125.5 152t124.5 153q61 76 123 152h233l-513 -583l520 -847h-222zM264 -332q51 0 84.5 6t55.5 16t35 24t21 30t15 31.5t16 30.5q8 12 16.5 20.5t19 14.5t22.5 9q11 4 25 4q20 0 38 -7.5t31 -20t20 -30.5 t7 -38q0 -28 -12 -53t-34 -46.5t-53 -38t-69 -28.5t-80.5 -18t-87.5 -6h-19t-18 0.5t-17 1t-16 0.5v98z" />
<glyph unicode="&#x137;" horiz-adv-x="983" d="M736 0l-335 534l-75 -78v-456h-178v1536h178v-896q90 98 180.5 200t178.5 204h225l-378 -385l422 -659h-218zM196 -332q51 0 84.5 6t55.5 16t35 24t21 30t15 31.5t16 30.5q8 12 16.5 20.5t19 14.5t22.5 9q11 4 25 4q20 0 38 -7.5t31 -20t20 -30.5t7 -38q0 -28 -12 -53 t-34 -46.5t-53 -38t-69 -28.5t-80.5 -18t-87.5 -6h-19t-18 0.5t-17 1t-16 0.5v98z" />
<glyph unicode="&#x138;" horiz-adv-x="974" d="M728 0l-327 518l-75 -78v-440h-178v1044h178v-418q46 50 92 102t93 105t93 106t90 105h226l-388 -400l414 -644h-218z" />
<glyph unicode="&#x139;" horiz-adv-x="857" d="M166 0v1430h186v-1276h479v-154h-665zM333 1538l-60 100l328 197l80 -137z" />
<glyph unicode="&#x13a;" horiz-adv-x="514" d="M475 -1q-10 -2 -23.5 -5t-29.5 -4.5t-32 -3.5q-16 -1 -34 -1q-45 0 -83.5 11t-66 36.5t-42.5 67.5q-16 40 -16 102v1334h178v-1290q0 -26 4 -47t13 -36t23.5 -23t36.5 -8h72v-133zM179 1632l-60 100l328 197l80 -137z" />
<glyph unicode="&#x13b;" horiz-adv-x="857" d="M166 0v1430h186v-1276h479v-154h-665zM196 -332q51 0 84.5 6t55.5 16t35 24t21 30t15 31.5t16 30.5q8 12 16.5 20.5t19 14.5t22.5 9q11 4 25 4q20 0 38 -7.5t31 -20t20 -30.5t7 -38q0 -28 -12 -53t-34 -46.5t-53 -38t-69 -28.5t-80.5 -18t-87.5 -6h-19t-18 0.5t-17 1 t-16 0.5v98z" />
<glyph unicode="&#x13c;" horiz-adv-x="514" d="M475 -1q-10 -2 -23.5 -5t-29.5 -4.5t-32 -3.5q-16 -1 -34 -1q-45 0 -83.5 11t-66 36.5t-42.5 67.5q-16 40 -16 102v1334h178v-1290q0 -26 4 -47t13 -36t23.5 -23t36.5 -8h72v-133zM23 -332q51 0 84.5 6t55.5 16t35 24t21 30t15 31.5t16 30.5q8 12 16.5 20.5t19 14.5 t22.5 9q11 4 25 4q20 0 38 -7.5t31 -20t20 -30.5t7 -38q0 -28 -12 -53t-34 -46.5t-53 -38t-69 -28.5t-80.5 -18t-87.5 -6h-19t-18 0.5t-17 1t-16 0.5v98z" />
<glyph unicode="&#x13d;" horiz-adv-x="877" d="M166 0v1430h186v-1276h479v-154h-665zM570 1174l101 397l158 -32l-137 -386z" />
<glyph unicode="&#x13e;" horiz-adv-x="603" d="M475 -1q-10 -2 -23.5 -5t-29.5 -4.5t-32 -3.5q-16 -1 -34 -1q-45 0 -83.5 11t-66 36.5t-42.5 67.5q-16 40 -16 102v1334h178v-1290q0 -26 4 -47t13 -36t23.5 -23t36.5 -8h72v-133zM414 1174l101 397l158 -32l-137 -386z" />
<glyph unicode="&#x13f;" d="M166 0v1430h186v-1276h479v-154h-665zM820 586q-28 0 -51.5 10t-40.5 28t-27 42t-10 52t10 52t27 42t41 28t52 10t51 -10t40 -28t27 -42t10 -52t-10 -52t-27 -42t-40.5 -28t-51.5 -10z" />
<glyph unicode="&#x140;" horiz-adv-x="941" d="M475 -1q-10 -2 -23.5 -5t-29.5 -4.5t-32 -3.5q-16 -1 -34 -1q-45 0 -83.5 11t-66 36.5t-42.5 67.5q-16 40 -16 102v1334h178v-1290q0 -26 4 -47t13 -36t23.5 -23t36.5 -8h72v-133zM685 504q-28 0 -51.5 10t-40.5 28t-27 42t-10 52t10 52t27 42t41 28t52 10t51 -10t40 -28 t27 -42t10 -52t-10 -52t-27 -42t-40.5 -28t-51.5 -10z" />
<glyph unicode="&#x141;" horiz-adv-x="876" d="M186 0v746l-129 -87l-43 127l172 113v531h186v-418l222 149l44 -126l-266 -176v-705h478v-154h-664z" />
<glyph unicode="&#x142;" horiz-adv-x="544" d="M494 -1q-10 -2 -24 -5t-29 -4.5t-32 -3t-35 -1.5q-44 0 -82.5 11t-66 36.5t-43.5 67.5q-16 40 -16 102v654l-107 -72l-41 124l148 98v530h179v-422l112 76l41 -124l-153 -102v-718q0 -26 3.5 -47t12.5 -36t24 -23t37 -8h72v-133z" />
<glyph unicode="&#x143;" horiz-adv-x="1318" d="M906 0l-567 1184h-3v-1184h-170v1430h260l553 -1154h3v1154h170v-1430h-246zM620 1538l-60 100l328 197l80 -137z" />
<glyph unicode="&#x144;" horiz-adv-x="1101" d="M780 0v633q0 64 -9 116.5t-30 90t-56 58t-86 20.5q-40 0 -73.5 -11t-65.5 -33t-64 -56t-70 -81v-737h-178v1044h138l20 -152q38 44 75 77t76 55t83 33t94 11q60 0 107 -14.5t83 -41t62 -62.5t42 -81t23 -96t7 -105v-668h-178zM482 1266l212 289l138 -91l-252 -267z" />
<glyph unicode="&#x145;" horiz-adv-x="1318" d="M906 0l-567 1184h-3v-1184h-170v1430h260l553 -1154h3v1154h170v-1430h-246zM355 -332q51 0 84.5 6t55.5 16t35 24t21 30t15 31.5t16 30.5q8 12 16.5 20.5t19 14.5t22.5 9q11 4 25 4q20 0 38 -7.5t31 -20t20 -30.5t7 -38q0 -28 -12 -53t-34 -46.5t-53 -38t-69 -28.5 t-80.5 -18t-87.5 -6h-19t-18 0.5t-17 1t-16 0.5v98z" />
<glyph unicode="&#x146;" horiz-adv-x="1101" d="M780 0v633q0 64 -9 116.5t-30 90t-56 58t-86 20.5q-40 0 -73.5 -11t-65.5 -33t-64 -56t-70 -81v-737h-178v1044h138l20 -152q38 44 75 77t76 55t83 33t94 11q60 0 107 -14.5t83 -41t62 -62.5t42 -81t23 -96t7 -105v-668h-178zM234 -332q51 0 84.5 6t55.5 16t35 24t21 30 t15 31.5t16 30.5q8 12 16.5 20.5t19 14.5t22.5 9q11 4 25 4q20 0 38 -7.5t31 -20t20 -30.5t7 -38q0 -28 -12 -53t-34 -46.5t-53 -38t-69 -28.5t-80.5 -18t-87.5 -6h-19t-18 0.5t-17 1t-16 0.5v98z" />
<glyph unicode="&#x147;" horiz-adv-x="1318" d="M906 0l-567 1184h-3v-1184h-170v1430h260l553 -1154h3v1154h170v-1430h-246zM663 1532l-268 191l60 97l211 -130l209 130l57 -94z" />
<glyph unicode="&#x148;" horiz-adv-x="1101" d="M780 0v633q0 64 -9 116.5t-30 90t-56 58t-86 20.5q-40 0 -73.5 -11t-65.5 -33t-64 -56t-70 -81v-737h-178v1044h138l20 -152q38 44 75 77t76 55t83 33t94 11q60 0 107 -14.5t83 -41t62 -62.5t42 -81t23 -96t7 -105v-668h-178zM291 1475l76 89l195 -179l191 179l72 -86 l-267 -278z" />
<glyph unicode="&#x149;" horiz-adv-x="1216" d="M0 1156q30 37 48.5 66.5t29.5 53t15.5 41t4.5 31.5q0 12 -3 21t-7 18t-8 17t-8 17t-6.5 19t-2.5 22q0 22 6.5 41t19.5 33t31 22t42 8q20 0 38 -8t31.5 -24t21 -38.5t7.5 -51.5q0 -31 -10 -68.5t-32.5 -80.5t-59 -92t-90.5 -103zM896 0v633q0 64 -9 116.5t-30 90t-56 58 t-86 20.5q-40 0 -73.5 -11t-65.5 -33t-64 -56t-70 -81v-737h-178v1044h138l20 -152q38 44 75 77t76 55t83 33t94 11q60 0 107 -14.5t83 -41t62 -62.5t42 -81t23 -96t7 -105v-668h-178z" />
<glyph unicode="&#x14a;" horiz-adv-x="1318" d="M726 -294h93q28 0 49.5 5t37.5 16.5t27.5 30t18.5 46.5t10 64q4 36 4 84v48h-60l-567 1184h-3v-1184h-170v1430h260l553 -1154h3v1154h170v-1458q0 -65 -6 -121.5t-19 -103t-35 -83t-54.5 -61t-77 -38t-101.5 -13.5q-16 0 -33.5 1t-34.5 3l-34 4t-31 6v140z" />
<glyph unicode="&#x14b;" horiz-adv-x="1101" d="M566 -295h86q32 0 56 12.5t40 40.5t24 72.5t8 107.5v695q0 64 -9 116.5t-30 90t-56 58t-86 20.5q-40 0 -73.5 -11t-65.5 -33t-64 -56t-70 -81v-737h-178v1044h138l20 -152q38 44 75 77t76 55t83 33t94 11q60 0 107 -14.5t83 -41t62 -62.5t42 -81t23 -96t7 -105v-710 q0 -81 -9 -142t-26 -106t-41 -75t-55 -47.5t-68 -25.5t-79 -8q-16 0 -31.5 1t-31 3t-30.5 5t-27 7z" />
<glyph unicode="&#x14c;" horiz-adv-x="1405" d="M694 -24q-100 0 -182 23t-148 67t-116 108t-82.5 145t-49 178t-16.5 209q0 111 17.5 209.5t52 181.5t86.5 149t119 112t151 71t184 25q98 0 180 -24t148 -68.5t116 -108t84 -144.5t51 -177t17 -206q0 -112 -18 -211t-52 -183t-85 -150t-119 -111.5t-153 -70t-185 -24.5z M710 130q73 0 131 22t102 60.5t75.5 92t51 117t28.5 135.5t9 148q0 86 -9.5 163.5t-31 143.5t-54 119t-78.5 90t-106 57.5t-134 20.5q-72 0 -130 -21.5t-102 -60t-75 -91.5t-51 -116.5t-29 -135.5t-9 -146q0 -88 10 -166t31 -145t54 -120t79 -90t105 -57t133 -20zM416 1602 v130h573v-130h-573z" />
<glyph unicode="&#x14d;" horiz-adv-x="1100" d="M542 -24q-110 0 -194.5 37t-143 106t-88.5 168t-30 222q0 85 14 159.5t42 136.5t68 110.5t92.5 82.5t117 52t138.5 18q110 0 195 -37.5t143 -107t88 -169t30 -223.5q0 -84 -14 -157.5t-41 -135.5t-67.5 -110.5t-93 -82t-116.5 -51.5t-140 -18zM554 122q46 0 83.5 13 t68 37.5t52.5 59t37 77.5t23 93.5t8 107.5q0 60 -7 114t-22 100t-38 82.5t-54 62t-71 39.5q-40 13 -88 13q-68 0 -119 -28.5t-84.5 -80.5t-50.5 -123t-17 -157q0 -60 7.5 -114t21.5 -99.5t37 -82t54 -61.5t71 -39t88 -14zM292 1298v129h518v-129h-518z" />
<glyph unicode="&#x14e;" horiz-adv-x="1405" d="M694 -24q-100 0 -182 23t-148 67t-116 108t-82.5 145t-49 178t-16.5 209q0 111 17.5 209.5t52 181.5t86.5 149t119 112t151 71t184 25q98 0 180 -24t148 -68.5t116 -108t84 -144.5t51 -177t17 -206q0 -112 -18 -211t-52 -183t-85 -150t-119 -111.5t-153 -70t-185 -24.5z M710 130q73 0 131 22t102 60.5t75.5 92t51 117t28.5 135.5t9 148q0 86 -9.5 163.5t-31 143.5t-54 119t-78.5 90t-106 57.5t-134 20.5q-72 0 -130 -21.5t-102 -60t-75 -91.5t-51 -116.5t-29 -135.5t-9 -146q0 -88 10 -166t31 -145t54 -120t79 -90t105 -57t133 -20zM976 1834 q0 -41 -7 -77.5t-22 -68t-38 -57t-53.5 -43.5t-69 -27.5t-86.5 -9.5t-87 10.5t-69 28.5t-52 44t-36.5 57.5t-21.5 67.5q-7 35 -7 75h125q0 -36 10.5 -65t30 -50t47.5 -32t64 -11q32 0 59 9t47 28t31 49t11 72h124z" />
<glyph unicode="&#x14f;" horiz-adv-x="1100" d="M542 -24q-110 0 -194.5 37t-143 106t-88.5 168t-30 222q0 85 14 159.5t42 136.5t68 110.5t92.5 82.5t117 52t138.5 18q110 0 195 -37.5t143 -107t88 -169t30 -223.5q0 -84 -14 -157.5t-41 -135.5t-67.5 -110.5t-93 -82t-116.5 -51.5t-140 -18zM554 122q46 0 83.5 13 t68 37.5t52.5 59t37 77.5t23 93.5t8 107.5q0 60 -7 114t-22 100t-38 82.5t-54 62t-71 39.5q-40 13 -88 13q-68 0 -119 -28.5t-84.5 -80.5t-50.5 -123t-17 -157q0 -60 7.5 -114t21.5 -99.5t37 -82t54 -61.5t71 -39t88 -14zM812 1518q0 -41 -6 -78.5t-19 -71t-33.5 -61.5 t-50 -48.5t-68.5 -31.5t-87 -11q-49 0 -87.5 11t-67.5 32t-49 49.5t-32.5 62t-18 70.5t-5.5 77h118q0 -37 9 -68.5t27 -56t46 -38t64 -13.5q34 0 60.5 11.5t45 34t28 55.5t9.5 75h117z" />
<glyph unicode="&#x150;" horiz-adv-x="1405" d="M694 -24q-100 0 -182 23t-148 67t-116 108t-82.5 145t-49 178t-16.5 209q0 111 17.5 209.5t52 181.5t86.5 149t119 112t151 71t184 25q98 0 180 -24t148 -68.5t116 -108t84 -144.5t51 -177t17 -206q0 -112 -18 -211t-52 -183t-85 -150t-119 -111.5t-153 -70t-185 -24.5z M710 130q73 0 131 22t102 60.5t75.5 92t51 117t28.5 135.5t9 148q0 86 -9.5 163.5t-31 143.5t-54 119t-78.5 90t-106 57.5t-134 20.5q-72 0 -130 -21.5t-102 -60t-75 -91.5t-51 -116.5t-29 -135.5t-9 -146q0 -88 10 -166t31 -145t54 -120t79 -90t105 -57t133 -20zM917 1534 l-97 66l255 296l128 -97zM521 1534l-96 67l238 299l128 -96z" />
<glyph unicode="&#x151;" horiz-adv-x="1100" d="M542 -24q-110 0 -194.5 37t-143 106t-88.5 168t-30 222q0 85 14 159.5t42 136.5t68 110.5t92.5 82.5t117 52t138.5 18q110 0 195 -37.5t143 -107t88 -169t30 -223.5q0 -84 -14 -157.5t-41 -135.5t-67.5 -110.5t-93 -82t-116.5 -51.5t-140 -18zM554 122q46 0 83.5 13 t68 37.5t52.5 59t37 77.5t23 93.5t8 107.5q0 60 -7 114t-22 100t-38 82.5t-54 62t-71 39.5q-40 13 -88 13q-68 0 -119 -28.5t-84.5 -80.5t-50.5 -123t-17 -157q0 -60 7.5 -114t21.5 -99.5t37 -82t54 -61.5t71 -39t88 -14zM669 1266l210 286l135 -88l-248 -264zM312 1265 l201 291l134 -89l-240 -267z" />
<glyph unicode="&#x152;" horiz-adv-x="1720" d="M896 0q-24 -4 -51 -8t-53 -7t-51 -5t-47 -2q-99 0 -181.5 22.5t-148.5 66t-115.5 106.5t-82.5 144t-50 179q-16 98 -16 210q0 111 17.5 209t52 181t86 149t119 112t151.5 70.5t184 24.5q22 0 47 -2t50 -5t49 -7t46 -8h690v-150h-526v-462h458v-148h-458v-519h534v-151 h-704zM882 1262q-40 16 -87 25.5t-99 9.5q-73 0 -131 -21.5t-102.5 -59.5t-75.5 -91t-51 -116t-29 -135t-9 -146q0 -88 10 -166.5t31 -144.5t54 -118.5t79 -89.5t106 -57t134 -20q25 0 48.5 3t44.5 7.5t40 11t37 12.5v1096z" />
<glyph unicode="&#x153;" horiz-adv-x="1751" d="M1628 32q-38 -12 -79 -22.5t-86 -18t-92 -11.5t-97 -4q-68 0 -124 12t-101 37t-81 63t-62 90q-30 -49 -68 -86.5t-84 -63.5t-100 -39t-114 -13q-76 0 -139 17t-113.5 50t-88 80t-62.5 106t-38 129.5t-13 150.5q0 85 14 159.5t42 136.5t68 110.5t92 82.5t116 52t140 18 q62 0 115.5 -13t99 -38.5t82.5 -63t65 -86.5q26 47 60 84t78 63t97 40t115 14q68 0 123 -16t98 -45t74 -70t51.5 -93t30 -113.5t9.5 -130.5v-20.5t-0.5 -27t-1 -28.5t-0.5 -27h-644q0 -88 15 -157.5t48.5 -117.5t89.5 -74q55 -26 139 -26q44 0 84 3.5t77 10t72 15.5t71 19z M1476 626q2 70 -11 127t-40.5 96.5t-69 61t-95.5 21.5q-43 0 -78 -12.5t-62.5 -34.5t-47.5 -51.5t-33 -63.5t-20 -71t-9 -73h466zM555 122q46 0 83.5 14t67.5 38t52.5 59t37.5 78t22.5 93t7.5 106q0 60 -7 114.5t-22 100t-38 82t-53.5 62t-70 39t-87.5 13.5 q-69 0 -120.5 -28.5t-85 -80.5t-50.5 -123t-17 -157q0 -62 7 -117t21.5 -100.5t37.5 -81t54 -60.5t70.5 -38t89.5 -13z" />
<glyph unicode="&#x154;" horiz-adv-x="1084" d="M807 0l-308 640h-147v-640h-186v1430h354q70 0 129.5 -12t107 -35t84 -56t61 -74.5t36.5 -91.5q12 -51 12 -107q0 -52 -9 -97t-27 -82.5t-42 -68t-54 -55.5t-64.5 -43t-71.5 -30l344 -678h-219zM495 786q66 0 115 19t80.5 53t47 79t15.5 98q0 30 -5.5 60.5t-17.5 58 t-31.5 51t-47.5 40.5t-64.5 26.5t-84.5 9.5h-150v-495h143zM455 1538l-60 100l328 197l80 -137z" />
<glyph unicode="&#x155;" horiz-adv-x="706" d="M148 0v1044h139l19 -192q38 56 69 97t60.5 67.5t60 39t64.5 12.5q16 0 31 -1t29 -3.5t28 -6t29 -7.5l-26 -166q-10 4 -22.5 7t-25.5 5t-25 4q-14 1 -24 1q-16 0 -31 -5.5t-31 -16.5t-34 -28.5t-38 -42t-43 -55.5t-51 -69v-684h-178zM298 1266l212 289l138 -91l-252 -267z " />
<glyph unicode="&#x156;" horiz-adv-x="1084" d="M807 0l-308 640h-147v-640h-186v1430h354q70 0 129.5 -12t107 -35t84 -56t61 -74.5t36.5 -91.5q12 -51 12 -107q0 -52 -9 -97t-27 -82.5t-42 -68t-54 -55.5t-64.5 -43t-71.5 -30l344 -678h-219zM495 786q66 0 115 19t80.5 53t47 79t15.5 98q0 30 -5.5 60.5t-17.5 58 t-31.5 51t-47.5 40.5t-64.5 26.5t-84.5 9.5h-150v-495h143zM248 -332q51 0 84.5 6t55.5 16t35 24t21 30t15 31.5t16 30.5q8 12 16.5 20.5t19 14.5t22.5 9q11 4 25 4q20 0 38 -7.5t31 -20t20 -30.5t7 -38q0 -28 -12 -53t-34 -46.5t-53 -38t-69 -28.5t-80.5 -18t-87.5 -6h-19 t-18 0.5t-17 1t-16 0.5v98z" />
<glyph unicode="&#x157;" horiz-adv-x="706" d="M148 0v1044h139l19 -192q38 56 69 97t60.5 67.5t60 39t64.5 12.5q16 0 31 -1t29 -3.5t28 -6t29 -7.5l-26 -166q-10 4 -22.5 7t-25.5 5t-25 4q-14 1 -24 1q-16 0 -31 -5.5t-31 -16.5t-34 -28.5t-38 -42t-43 -55.5t-51 -69v-684h-178zM-59 -332q51 0 84.5 6t55.5 16t35 24 t21 30t15 31.5t16 30.5q8 12 16.5 20.5t19 14.5t22.5 9q11 4 25 4q20 0 38 -7.5t31 -20t20 -30.5t7 -38q0 -28 -12 -53t-34 -46.5t-53 -38t-69 -28.5t-80.5 -18t-87.5 -6h-19t-18 0.5t-17 1t-16 0.5v98z" />
<glyph unicode="&#x158;" horiz-adv-x="1084" d="M807 0l-308 640h-147v-640h-186v1430h354q70 0 129.5 -12t107 -35t84 -56t61 -74.5t36.5 -91.5q12 -51 12 -107q0 -52 -9 -97t-27 -82.5t-42 -68t-54 -55.5t-64.5 -43t-71.5 -30l344 -678h-219zM495 786q66 0 115 19t80.5 53t47 79t15.5 98q0 30 -5.5 60.5t-17.5 58 t-31.5 51t-47.5 40.5t-64.5 26.5t-84.5 9.5h-150v-495h143zM499 1532l-268 191l60 97l211 -130l209 130l57 -94z" />
<glyph unicode="&#x159;" horiz-adv-x="706" d="M148 0v1044h139l19 -192q38 56 69 97t60.5 67.5t60 39t64.5 12.5q16 0 31 -1t29 -3.5t28 -6t29 -7.5l-26 -166q-10 4 -22.5 7t-25.5 5t-25 4q-14 1 -24 1q-16 0 -31 -5.5t-31 -16.5t-34 -28.5t-38 -42t-43 -55.5t-51 -69v-684h-178zM128 1475l76 89l195 -179l191 179 l72 -86l-267 -278z" />
<glyph unicode="&#x15a;" horiz-adv-x="928" d="M118 180q32 -12 65 -21t67.5 -15t69.5 -9t71 -3q65 0 114 17.5t81 49t48.5 75.5t16.5 98q0 36 -8.5 65.5t-23.5 55t-37 48t-51 43.5t-64 42.5t-77 44.5q-48 27 -88 54t-72 55.5t-56.5 59.5t-41 66.5t-24.5 76.5t-8 88q0 58 14 109t40.5 93.5t64 76t85 56.5t103 35.5 t118.5 12.5q30 0 63 -3t64.5 -8t61.5 -12t55 -16l-30 -150q-26 9 -52.5 16t-54.5 12t-56 7t-55 2q-56 0 -98.5 -17t-70.5 -45.5t-42 -66.5q-13 -39 -13 -81q0 -36 7.5 -65t22.5 -54t37 -47t49 -43t60 -41t70 -42q49 -28 91 -55.5t76 -56.5t60 -60.5t44 -67t27 -76t9 -88.5 q0 -67 -15 -124.5t-44 -103.5t-70 -82t-93 -60t-115 -37t-134 -13q-24 0 -48.5 1.5t-48.5 4t-48 6t-48 8.5t-47.5 11t-47.5 13zM404 1542l-60 100l328 197l80 -137z" />
<glyph unicode="&#x15b;" horiz-adv-x="796" d="M117 166q28 -10 58 -18.5t60.5 -14.5t59.5 -9.5t57 -3.5q44 0 77.5 10t56 29t34 45t11.5 60q0 33 -12 58.5t-32.5 46.5t-48.5 39t-59 34.5t-63.5 34t-63 37.5t-58.5 44t-48.5 55.5t-32.5 71t-12 89.5q0 44 10.5 82t31.5 71t51.5 59t70 44t86.5 28t101 10q24 0 50 -2 t53 -6t54 -10t53 -13l-23 -143q-24 8 -47.5 14t-47.5 10t-46.5 6t-42.5 2q-43 0 -74 -11t-52 -29.5t-31 -44t-10 -54.5q0 -33 12 -59t32.5 -46.5t48 -38t58.5 -34t64 -33.5t64 -37t59 -44.5t48.5 -56t32.5 -71t12 -90.5q0 -68 -25.5 -124t-72.5 -95.5t-115 -60.5t-153 -21 q-34 0 -67.5 3t-66.5 8.5t-65.5 13.5t-62.5 18zM307 1266l212 289l138 -91l-252 -267z" />
<glyph unicode="&#x15c;" horiz-adv-x="928" d="M118 180q32 -12 65 -21t67.5 -15t69.5 -9t71 -3q65 0 114 17.5t81 49t48.5 75.5t16.5 98q0 36 -8.5 65.5t-23.5 55t-37 48t-51 43.5t-64 42.5t-77 44.5q-48 27 -88 54t-72 55.5t-56.5 59.5t-41 66.5t-24.5 76.5t-8 88q0 58 14 109t40.5 93.5t64 76t85 56.5t103 35.5 t118.5 12.5q30 0 63 -3t64.5 -8t61.5 -12t55 -16l-30 -150q-26 9 -52.5 16t-54.5 12t-56 7t-55 2q-56 0 -98.5 -17t-70.5 -45.5t-42 -66.5q-13 -39 -13 -81q0 -36 7.5 -65t22.5 -54t37 -47t49 -43t60 -41t70 -42q49 -28 91 -55.5t76 -56.5t60 -60.5t44 -67t27 -76t9 -88.5 q0 -67 -15 -124.5t-44 -103.5t-70 -82t-93 -60t-115 -37t-134 -13q-24 0 -48.5 1.5t-48.5 4t-48 6t-48 8.5t-47.5 11t-47.5 13zM478 1672l-210 -130l-56 96l268 194l269 -192l-60 -98z" />
<glyph unicode="&#x15d;" horiz-adv-x="796" d="M117 166q28 -10 58 -18.5t60.5 -14.5t59.5 -9.5t57 -3.5q44 0 77.5 10t56 29t34 45t11.5 60q0 33 -12 58.5t-32.5 46.5t-48.5 39t-59 34.5t-63.5 34t-63 37.5t-58.5 44t-48.5 55.5t-32.5 71t-12 89.5q0 44 10.5 82t31.5 71t51.5 59t70 44t86.5 28t101 10q24 0 50 -2 t53 -6t54 -10t53 -13l-23 -143q-24 8 -47.5 14t-47.5 10t-46.5 6t-42.5 2q-43 0 -74 -11t-52 -29.5t-31 -44t-10 -54.5q0 -33 12 -59t32.5 -46.5t48 -38t58.5 -34t64 -33.5t64 -37t59 -44.5t48.5 -56t32.5 -71t12 -90.5q0 -68 -25.5 -124t-72.5 -95.5t-115 -60.5t-153 -21 q-34 0 -67.5 3t-66.5 8.5t-65.5 13.5t-62.5 18zM400 1378l-191 -179l-71 87l266 275l267 -273l-77 -89z" />
<glyph unicode="&#x15e;" horiz-adv-x="928" d="M385 -24h-15q-34 0 -69 3t-69.5 9t-69.5 14t-71 18l27 160q32 -12 65 -21t67.5 -15t69.5 -9t71 -3q65 0 114 17.5t81 49t48.5 75.5t16.5 98q0 36 -8.5 65.5t-23.5 55t-37 48t-51 43.5t-64 42.5t-77 44.5q-48 27 -88 54t-72 55.5t-56.5 59.5t-41 66.5t-24.5 76.5t-8 88 q0 58 14 109t40.5 93.5t64 76t85 56.5t103 35.5t118.5 12.5q30 0 63 -3t64.5 -8t61.5 -12t55 -16l-30 -150q-26 9 -52.5 16t-54.5 12t-56 7t-55 2q-56 0 -98.5 -17t-70.5 -45.5t-42 -66.5q-13 -39 -13 -81q0 -36 7.5 -65t22.5 -54t37 -47t49 -43t60 -41t70 -42 q49 -28 91 -55.5t76 -56.5t60 -60.5t44 -67t27 -76t9 -88.5q0 -52 -10 -100t-28.5 -89t-46 -75.5t-63.5 -62t-81 -47.5t-97 -30l38 -92q9 -21 15.5 -37.5t10.5 -31t6 -27t2 -26.5q0 -26 -12 -48t-38 -38.5t-65 -25.5t-92 -9q-25 0 -49 2t-46 5.5t-43 8.5t-40 11v106h176 q15 0 25 1.5t16.5 4.5t9.5 8q2 4 2 12t-2 20t-8 25z" />
<glyph unicode="&#x15f;" horiz-adv-x="796" d="M117 166q28 -10 58 -18.5t60.5 -14.5t59.5 -9.5t57 -3.5q44 0 77.5 10t56 29t34 45t11.5 60q0 33 -12 58.5t-32.5 46.5t-48.5 39t-59 34.5t-63.5 34t-63 37.5t-58.5 44t-48.5 55.5t-32.5 71t-12 89.5q0 44 10.5 82t31.5 71t51.5 59t70 44t86.5 28t101 10q24 0 50 -2 t53 -6t54 -10t53 -13l-23 -143q-24 8 -47.5 14t-47.5 10t-46.5 6t-42.5 2q-43 0 -74 -11t-52 -29.5t-31 -44t-10 -54.5q0 -33 12 -59t32.5 -46.5t48 -38t58.5 -34t64 -33.5t64 -37t59 -44.5t48.5 -56t32.5 -71t12 -90.5q0 -61 -19.5 -110t-54.5 -86t-83 -61t-106 -34l40 -88 q10 -22 17 -39t11 -31t5.5 -26t1.5 -23q0 -26 -11.5 -48t-36 -39t-63 -26.5t-93.5 -9.5q-24 0 -48 1.5t-47.5 5t-44.5 8t-39 10.5v108h174q14 0 24 1.5t16 4t9.5 8t3.5 12.5q0 4 -0.5 8.5t-2 10.5t-4 12.5t-4.5 13.5l-46 116q-31 2 -60.5 6t-58 9t-55.5 12t-53 16z" />
<glyph unicode="&#x160;" horiz-adv-x="928" d="M118 180q32 -12 65 -21t67.5 -15t69.5 -9t71 -3q65 0 114 17.5t81 49t48.5 75.5t16.5 98q0 36 -8.5 65.5t-23.5 55t-37 48t-51 43.5t-64 42.5t-77 44.5q-48 27 -88 54t-72 55.5t-56.5 59.5t-41 66.5t-24.5 76.5t-8 88q0 58 14 109t40.5 93.5t64 76t85 56.5t103 35.5 t118.5 12.5q30 0 63 -3t64.5 -8t61.5 -12t55 -16l-30 -150q-26 9 -52.5 16t-54.5 12t-56 7t-55 2q-56 0 -98.5 -17t-70.5 -45.5t-42 -66.5q-13 -39 -13 -81q0 -36 7.5 -65t22.5 -54t37 -47t49 -43t60 -41t70 -42q49 -28 91 -55.5t76 -56.5t60 -60.5t44 -67t27 -76t9 -88.5 q0 -67 -15 -124.5t-44 -103.5t-70 -82t-93 -60t-115 -37t-134 -13q-24 0 -48.5 1.5t-48.5 4t-48 6t-48 8.5t-47.5 11t-47.5 13zM469 1536l-268 191l60 97l211 -130l209 130l57 -94z" />
<glyph unicode="&#x161;" horiz-adv-x="796" d="M117 166q28 -10 58 -18.5t60.5 -14.5t59.5 -9.5t57 -3.5q44 0 77.5 10t56 29t34 45t11.5 60q0 33 -12 58.5t-32.5 46.5t-48.5 39t-59 34.5t-63.5 34t-63 37.5t-58.5 44t-48.5 55.5t-32.5 71t-12 89.5q0 44 10.5 82t31.5 71t51.5 59t70 44t86.5 28t101 10q24 0 50 -2 t53 -6t54 -10t53 -13l-23 -143q-24 8 -47.5 14t-47.5 10t-46.5 6t-42.5 2q-43 0 -74 -11t-52 -29.5t-31 -44t-10 -54.5q0 -33 12 -59t32.5 -46.5t48 -38t58.5 -34t64 -33.5t64 -37t59 -44.5t48.5 -56t32.5 -71t12 -90.5q0 -68 -25.5 -124t-72.5 -95.5t-115 -60.5t-153 -21 q-34 0 -67.5 3t-66.5 8.5t-65.5 13.5t-62.5 18zM136 1475l76 89l195 -179l191 179l72 -86l-267 -278z" />
<glyph unicode="&#x162;" horiz-adv-x="988" d="M401 0v1276h-379v154h945v-154h-379v-1276h-187zM168 -332q51 0 84.5 6t55.5 16t35 24t21 30t15 31.5t16 30.5q8 12 16.5 20.5t19 14.5t22.5 9q11 4 25 4q20 0 38 -7.5t31 -20t20 -30.5t7 -38q0 -28 -12 -53t-34 -46.5t-53 -38t-69 -28.5t-80.5 -18t-87.5 -6h-19t-18 0.5 t-17 1t-16 0.5v98z" />
<glyph unicode="&#x163;" horiz-adv-x="664" d="M592 2q-14 -4 -33 -7.5t-39 -6t-42 -3.5t-44 -1q-38 0 -70 5t-60 18t-49.5 33.5t-37 51t-23.5 70.5q-8 42 -8 94v648h-144v140h143l42 303h138v-303h227v-140h-227v-604q0 -38 4 -65t11.5 -46t19.5 -30t28.5 -17.5t37 -9t44.5 -2.5h82v-128zM78 -332q51 0 84.5 6t55.5 16 t35 24t21 30t15 31.5t16 30.5q8 12 16.5 20.5t19 14.5t22.5 9q11 4 25 4q20 0 38 -7.5t31 -20t20 -30.5t7 -38q0 -28 -12 -53t-34 -46.5t-53 -38t-69 -28.5t-80.5 -18t-87.5 -6h-19t-18 0.5t-17 1t-16 0.5v98z" />
<glyph unicode="&#x164;" horiz-adv-x="988" d="M401 0v1276h-379v154h945v-154h-379v-1276h-187zM494 1532l-268 191l60 97l211 -130l209 130l57 -94z" />
<glyph unicode="&#x165;" horiz-adv-x="701" d="M592 2q-14 -4 -33 -7.5t-39 -6t-42 -3.5t-44 -1q-38 0 -70 5t-60 18t-49.5 33.5t-37 51t-23.5 70.5q-8 42 -8 94v648h-144v140h143l42 303h138v-303h227v-140h-227v-604q0 -38 4 -65t11.5 -46t19.5 -30t28.5 -17.5t37 -9t44.5 -2.5h82v-128zM478 1174l101 397l158 -32 l-137 -386z" />
<glyph unicode="&#x166;" horiz-adv-x="988" d="M401 0v662h-215v148h215v466h-379v154h945v-154h-379v-466h214v-148h-214v-662h-187z" />
<glyph unicode="&#x167;" horiz-adv-x="664" d="M592 2q-14 -4 -33 -7.5t-39 -6t-42 -3.5t-44 -1q-38 0 -70 5t-60 18t-49.5 33.5t-37 51t-23.5 70.5q-8 42 -8 94v240h-126v128h126v280h-144v140h143l42 303h138v-303h227v-140h-227v-280h206v-128h-206v-208q0 -35 4 -60.5t12.5 -42.5t20.5 -28t28 -17t36 -8t44 -2h82 v-128z" />
<glyph unicode="&#x168;" horiz-adv-x="1307" d="M964 1430h180v-905q0 -136 -35 -239t-99 -171.5t-155 -103t-205 -34.5q-112 0 -202 32.5t-153 98.5t-97 165t-34 231v926h185v-912q0 -65 9.5 -119t28.5 -97t45.5 -75.5t60.5 -53.5t75.5 -32t87.5 -11q70 0 127.5 24.5t97 73t61.5 120.5t22 168v914zM982 1730 q-14 -37 -35.5 -66.5t-49 -50.5t-59.5 -32t-66 -11q-30 0 -55 6t-44 15t-42.5 25t-35 23t-28.5 12.5t-37 5.5q-16 0 -32 -6.5t-31 -19t-27.5 -30t-23.5 -40.5l-91 66q15 37 37 67t49 50.5t59 31.5t66 11q30 0 55 -6t43 -15.5t42 -24.5t36 -22t29 -13t37 -6q16 0 32 6.5 t30.5 19t27.5 30.5q14 18 24 40z" />
<glyph unicode="&#x169;" horiz-adv-x="1101" d="M815 0l-20 152q-38 -45 -74.5 -78t-76 -54.5t-83 -32.5t-93.5 -11q-60 0 -108 14.5t-84 40.5t-61 62.5t-41 81.5t-24 95q-8 52 -8 106v668h179v-634q0 -42 4 -79.5t12.5 -69t22.5 -57t34 -43t47 -27t61 -9.5q40 0 74 11t65.5 33.5t64 56.5t69.5 80v738h179v-1044h-139z M871 1430q-14 -38 -35 -69t-47.5 -52t-57 -32.5t-64.5 -11.5q-30 0 -54 6t-42.5 15.5t-42 25.5t-35 23t-28 12.5t-36.5 5.5q-16 0 -32 -6.5t-30 -19t-27 -31t-23 -40.5l-86 68q15 38 36 68t47 51.5t56.5 33t64.5 11.5q30 0 54 -6t42.5 -15.5t42 -25t34.5 -22.5t28 -13t36 -6 q16 0 32 6t30.5 19t27.5 31t23 40z" />
<glyph unicode="&#x16a;" horiz-adv-x="1307" d="M964 1430h180v-905q0 -136 -35 -239t-99 -171.5t-155 -103t-205 -34.5q-112 0 -202 32.5t-153 98.5t-97 165t-34 231v926h185v-912q0 -65 9.5 -119t28.5 -97t45.5 -75.5t60.5 -53.5t75.5 -32t87.5 -11q70 0 127.5 24.5t97 73t61.5 120.5t22 168v914zM367 1598v130h573 v-130h-573z" />
<glyph unicode="&#x16b;" horiz-adv-x="1101" d="M815 0l-20 152q-38 -45 -74.5 -78t-76 -54.5t-83 -32.5t-93.5 -11q-60 0 -108 14.5t-84 40.5t-61 62.5t-41 81.5t-24 95q-8 52 -8 106v668h179v-634q0 -42 4 -79.5t12.5 -69t22.5 -57t34 -43t47 -27t61 -9.5q40 0 74 11t65.5 33.5t64 56.5t69.5 80v738h179v-1044h-139z M291 1298v129h518v-129h-518z" />
<glyph unicode="&#x16c;" horiz-adv-x="1307" d="M964 1430h180v-905q0 -136 -35 -239t-99 -171.5t-155 -103t-205 -34.5q-112 0 -202 32.5t-153 98.5t-97 165t-34 231v926h185v-912q0 -65 9.5 -119t28.5 -97t45.5 -75.5t60.5 -53.5t75.5 -32t87.5 -11q70 0 127.5 24.5t97 73t61.5 120.5t22 168v914zM928 1822 q0 -41 -7 -77.5t-22 -68t-38 -57t-53.5 -43.5t-69 -27.5t-86.5 -9.5t-87 10.5t-69 28.5t-52 44t-36.5 57.5t-21.5 67.5q-7 35 -7 75h125q0 -36 10.5 -65t30 -50t47.5 -32t64 -11q32 0 59 9t47 28t31 49t11 72h124z" />
<glyph unicode="&#x16d;" horiz-adv-x="1101" d="M815 0l-20 152q-38 -45 -74.5 -78t-76 -54.5t-83 -32.5t-93.5 -11q-60 0 -108 14.5t-84 40.5t-61 62.5t-41 81.5t-24 95q-8 52 -8 106v668h179v-634q0 -42 4 -79.5t12.5 -69t22.5 -57t34 -43t47 -27t61 -9.5q40 0 74 11t65.5 33.5t64 56.5t69.5 80v738h179v-1044h-139z M813 1518q0 -41 -6 -78.5t-19 -71t-33.5 -61.5t-50 -48.5t-68.5 -31.5t-87 -11q-49 0 -87.5 11t-67.5 32t-49 49.5t-32.5 62t-18 70.5t-5.5 77h118q0 -37 9 -68.5t27 -56t46 -38t64 -13.5q34 0 60.5 11.5t45 34t28 55.5t9.5 75h117z" />
<glyph unicode="&#x16e;" horiz-adv-x="1307" d="M964 1430h180v-905q0 -136 -35 -239t-99 -171.5t-155 -103t-205 -34.5q-112 0 -202 32.5t-153 98.5t-97 165t-34 231v926h185v-912q0 -65 9.5 -119t28.5 -97t45.5 -75.5t60.5 -53.5t75.5 -32t87.5 -11q70 0 127.5 24.5t97 73t61.5 120.5t22 168v914zM649 1510 q-54 0 -95 15t-68.5 42t-41 64t-13.5 81q0 46 15.5 85t44.5 67.5t71 43.5q44 16 96 16q50 0 91 -14t69 -41t43 -64t15 -83t-16 -84.5t-46 -67.5t-71.5 -44.5t-93.5 -15.5zM656 1598q22 0 40 9t30 25t18.5 37t6.5 45q0 26 -6.5 48.5t-18.5 38.5t-31 25t-43 9q-22 0 -40 -8.5 t-30.5 -24t-19 -37t-6.5 -46.5q0 -28 6 -50t18 -38t31 -24.5t45 -8.5z" />
<glyph unicode="&#x16f;" horiz-adv-x="1101" d="M815 0l-20 152q-38 -45 -74.5 -78t-76 -54.5t-83 -32.5t-93.5 -11q-60 0 -108 14.5t-84 40.5t-61 62.5t-41 81.5t-24 95q-8 52 -8 106v668h179v-634q0 -42 4 -79.5t12.5 -69t22.5 -57t34 -43t47 -27t61 -9.5q40 0 74 11t65.5 33.5t64 56.5t69.5 80v738h179v-1044h-139z M544 1178q-52 0 -93 15t-67.5 43.5t-40 67t-13.5 84.5q0 47 15 86.5t44 69.5t70 46t93 16q49 0 88.5 -15t67.5 -43t42.5 -66t14.5 -86q0 -46 -15.5 -86t-44.5 -70t-70 -46t-91 -16zM550 1270q22 0 40 9t29.5 25t17.5 38t6 46q0 28 -5.5 51t-17.5 39.5t-30.5 26t-43.5 9.5 q-22 0 -39.5 -9t-29.5 -25t-18.5 -37t-6.5 -47q0 -30 6 -53t17 -39t30 -25t45 -9z" />
<glyph unicode="&#x170;" horiz-adv-x="1307" d="M964 1430h180v-905q0 -136 -35 -239t-99 -171.5t-155 -103t-205 -34.5q-112 0 -202 32.5t-153 98.5t-97 165t-34 231v926h185v-912q0 -65 9.5 -119t28.5 -97t45.5 -75.5t60.5 -53.5t75.5 -32t87.5 -11q70 0 127.5 24.5t97 73t61.5 120.5t22 168v914zM853 1530l-97 66 l255 296l128 -97zM457 1530l-96 67l238 299l128 -96z" />
<glyph unicode="&#x171;" horiz-adv-x="1101" d="M815 0l-20 152q-38 -45 -74.5 -78t-76 -54.5t-83 -32.5t-93.5 -11q-60 0 -108 14.5t-84 40.5t-61 62.5t-41 81.5t-24 95q-8 52 -8 106v668h179v-634q0 -42 4 -79.5t12.5 -69t22.5 -57t34 -43t47 -27t61 -9.5q40 0 74 11t65.5 33.5t64 56.5t69.5 80v738h179v-1044h-139z M624 1266l210 286l135 -88l-248 -264zM267 1265l201 291l134 -89l-240 -267z" />
<glyph unicode="&#x172;" horiz-adv-x="1307" d="M960 -386q-16 -6 -35.5 -12t-41 -10t-44 -6t-44.5 -2q-60 0 -102.5 12t-69 34t-39 53.5t-12.5 70.5q0 30 9 60t24 59t37 56q24 27 52 52q-6 -1 -12.5 -1.5l-13 -1t-12.5 -0.5q-6 -1 -12 -1q-110 1 -198.5 34t-151 98t-96.5 163t-34 230v928h185v-912q0 -65 9.5 -119 t28.5 -97t45.5 -75.5t60.5 -53.5t75.5 -32t87.5 -11q70 0 127.5 24.5t97 73t61.5 120.5t22 168v914h180v-906q0 -63 -8 -122t-25 -112t-44 -99.5t-64 -82.5q-18 -18 -37.5 -34t-40.5 -31t-41 -31t-38 -34q-30 -30 -50 -56t-32 -49.5t-17 -44t-5 -37.5q0 -22 5 -38t16 -26.5 t29 -16.5q16 -5 42 -5q23 0 50 5q28 6 54 16z" />
<glyph unicode="&#x173;" horiz-adv-x="1101" d="M1034 -386q-16 -6 -35 -11.5t-39 -9t-41 -6.5t-43 -3q-58 0 -97.5 12.5t-65 35t-36.5 53.5t-11 69q0 30 9.5 62t28 64t45.5 62t60 58l-14 152q-38 -45 -74.5 -78t-76 -54.5t-83 -32.5t-93.5 -11q-60 0 -108 14.5t-84 40.5t-61 62.5t-41 81.5t-24 95q-8 52 -8 106v668h179 v-634q0 -42 4 -79.5t12.5 -69t22.5 -57t34 -43t47 -27t61 -9.5q40 0 74 11t65.5 33.5t64 56.5t69.5 80v738h179v-1044q-32 -29 -55 -57.5t-38.5 -55.5t-23 -51t-7.5 -45q0 -22 5 -38t15 -27t26 -16.5t40 -5.5q12 0 23 1.5t23 4t25 6.5q13 2 25 8z" />
<glyph unicode="&#x174;" horiz-adv-x="1863" d="M1202 0l-238 1020l-35 176h-3l-34 -175l-232 -1021h-238q-56 180 -105.5 360t-94.5 359t-84.5 357t-75.5 354h203q16 -89 34 -180t37.5 -182.5t40 -182.5t42.5 -182t44.5 -180t46.5 -175q4 -18 9 -38t10 -41t10 -41t8 -36h3l42 204l232 1034h222l242 -1034l42 -204h3 q4 18 9.5 40t10.5 44l10 44t10 40l46 180t44 179.5t41.5 179t39 178.5t36.5 177t33 176h189q-36 -177 -76.5 -354t-85.5 -355.5t-94.5 -358t-105.5 -362.5h-238zM936 1668l-210 -130l-56 96l268 194l269 -192l-60 -98z" />
<glyph unicode="&#x175;" horiz-adv-x="1495" d="M948 0l-180 698l-31 136h-3l-30 -136l-172 -698h-206q-43 130 -82.5 260.5t-75 261.5t-67 261.5t-57.5 260.5h186q16 -88 35 -176t39 -175t42 -173.5t44 -171.5q10 -42 22 -88t23 -90h3l40 174l174 700h188l180 -702l40 -172h4q11 44 21.5 90t21.5 89q22 86 43.5 172.5 t41.5 173.5t38 175t33 174h174q-28 -130 -60.5 -261t-68.5 -261t-76 -261t-83 -261h-201zM752 1378l-191 -179l-71 87l266 275l267 -273l-77 -89z" />
<glyph unicode="&#x176;" horiz-adv-x="1077" d="M446 0v610q-63 99 -121.5 200.5t-112.5 204.5t-104 207t-96 208h208q23 -56 47.5 -112t51 -112t54 -112t56.5 -110.5t60 -108t62 -104.5q30 51 59 105t57.5 109.5t55.5 112t53 112.5t49 111t44 109h195q-29 -67 -59.5 -135.5t-64 -136.5t-69 -137t-73.5 -137.5 t-80 -137.5q-42 -68 -86 -136v-610h-186zM540 1668l-210 -130l-56 96l268 194l269 -192l-60 -98z" />
<glyph unicode="&#x177;" horiz-adv-x="924" d="M57 -296h103q18 0 34 6t33 19t34 35t36 54.5t41 77t46 102.5q-30 73 -60 153.5t-61 166t-61 175t-58 181.5t-53 185t-47 185h188q22 -94 47 -185t51 -178.5t53 -173t55 -169.5q6 -18 12 -37t11.5 -38t10.5 -37q6 -18 11 -36h3q6 18 11 36t11 37l12 38q4 19 10 37 q26 84 51 171t47 176t42 179t38 180h176q-41 -176 -81.5 -328t-80 -282t-78 -238t-76.5 -196t-72.5 -155t-66.5 -117t-63.5 -83t-62.5 -54t-64 -29.5t-70 -8.5q-16 0 -32 1.5t-31 4.5t-28.5 6t-26.5 7zM466 1378l-191 -179l-71 87l266 275l267 -273l-77 -89z" />
<glyph unicode="&#x178;" horiz-adv-x="1077" d="M446 0v610q-63 99 -121.5 200.5t-112.5 204.5t-104 207t-96 208h208q23 -56 47.5 -112t51 -112t54 -112t56.5 -110.5t60 -108t62 -104.5q30 51 59 105t57.5 109.5t55.5 112t53 112.5t49 111t44 109h195q-29 -67 -59.5 -135.5t-64 -136.5t-69 -137t-73.5 -137.5 t-80 -137.5q-42 -68 -86 -136v-610h-186zM742 1549q-21 0 -39.5 8t-32 21.5t-21 32.5t-7.5 41t7.5 41t21 32.5t32 21.5t39.5 8q22 0 40.5 -8t32 -21.5t21 -32.5t7.5 -41t-7.5 -41t-21 -32.5t-32 -21.5t-40.5 -8zM342 1549q-21 0 -39.5 8t-31.5 21.5t-21 32.5t-8 41t8 41 t21 32.5t32 21.5t39 8q22 0 41 -8t32 -21.5t21 -32.5t8 -41t-8 -41t-21 -32.5t-32 -21.5t-41 -8z" />
<glyph unicode="&#x179;" horiz-adv-x="955" d="M57 0v150l623 1128h-601v152h805v-149l-622 -1129h633v-152h-838zM440 1538l-60 100l328 197l80 -137z" />
<glyph unicode="&#x17a;" horiz-adv-x="854" d="M84 0v144l468 752h-440v148h640v-144l-467 -752h497v-148h-698zM338 1266l212 289l138 -91l-252 -267z" />
<glyph unicode="&#x17b;" horiz-adv-x="955" d="M57 0v150l623 1128h-601v152h805v-149l-622 -1129h633v-152h-838zM599 1658q0 -26 -9 -47t-25.5 -37t-39 -25t-48.5 -9t-48 9t-38.5 25t-25.5 38q-10 20 -10 46t9.5 47.5t26 37t38.5 24.5t48 9t48.5 -9t39 -24.5t25.5 -37t9 -47.5z" />
<glyph unicode="&#x17c;" horiz-adv-x="854" d="M84 0v144l468 752h-440v148h640v-144l-467 -752h497v-148h-698zM428 1251q-26 0 -48 9t-38 25.5t-25.5 38.5t-9.5 48t9.5 49t25.5 39t38 25t48 9t48 -9t38 -25t25 -38q9 -24 9 -50t-9 -48t-25 -38.5t-38 -25.5t-48 -9z" />
<glyph unicode="&#x17d;" horiz-adv-x="955" d="M57 0v150l623 1128h-601v152h805v-149l-622 -1129h633v-152h-838zM486 1532l-268 191l60 97l211 -130l209 130l57 -94z" />
<glyph unicode="&#x17e;" horiz-adv-x="854" d="M84 0v144l468 752h-440v148h640v-144l-467 -752h497v-148h-698zM166 1475l76 89l195 -179l191 179l72 -86l-267 -278z" />
<glyph unicode="&#x17f;" horiz-adv-x="480" d="M148 0v1150q0 62 6 116t19 99t36 80.5t57 60t80 37.5t107 13q20 0 37 -0.5t32.5 -2t29.5 -3.5t28 -6v-130h-88q-40 0 -67.5 -10t-46 -27t-28.5 -40.5t-15.5 -52t-7 -61.5t-1.5 -67v-1156h-178z" />
<glyph unicode="&#x192;" d="M38 -112h91q44 0 75.5 9t55 27t39 42t25 54t15 65t8.5 73l45 502h-242v139h254l20 217q5 56 14.5 110.5t26.5 103t43.5 89.5t66 71t94.5 46.5t129 16.5q16 0 31 -1t31 -2.5t32 -3.5t33 -5l-11 -131h-93q-43 0 -75 -10t-55 -28t-38 -42.5t-25 -55t-15.5 -65.5t-8.5 -73 l-22 -237h277v-139h-289l-41 -464q-5 -60 -14.5 -116.5t-27 -107t-44.5 -92.5t-68 -72t-99 -47t-134 -17q-14 0 -28 0.5t-28 2t-29 3.5t-30 5z" />
<glyph unicode="&#x1e6;" horiz-adv-x="1264" d="M928 747h186v-693q-44 -18 -91.5 -32t-98 -23.5t-103 -15t-104.5 -5.5q-102 0 -187.5 23t-154.5 67t-121 107t-87 143t-53 176t-18 206q0 114 19 213.5t57 182.5t92 148.5t125 110.5t156 69t184 24q55 0 108 -8t103 -22.5t97 -36t91 -47.5l-64 -144q-39 24 -80.5 43 t-84.5 32t-87 20t-88 7q-73 0 -133.5 -19.5t-108.5 -56t-83.5 -88.5t-59.5 -116t-35.5 -139.5t-11.5 -158.5q0 -138 29 -246t85 -181t137 -111.5t182 -38.5q52 0 102 8q49 7 101 23v579zM686 1536l-268 191l60 97l211 -130l209 130l57 -94z" />
<glyph unicode="&#x1e7;" horiz-adv-x="1090" d="M764 150q-36 -42 -71 -72t-73 -49.5t-78.5 -29t-86.5 -9.5q-65 0 -117.5 18t-93 51t-69.5 79t-48 102t-28 120t-9 134q0 76 12 148t38 135t65.5 115t93 89t123.5 57t154 20q44 0 92 -4t96 -12t93.5 -19t85.5 -25v-975q0 -82 -11 -148.5t-34.5 -119t-59.5 -90.5t-86.5 -63 t-116 -37t-147.5 -12q-28 0 -61.5 1.5t-68.5 4.5t-71.5 7.5t-70.5 11.5l6 133q30 -2 62 -4t65 -3.5t65 -2t64 -0.5q52 0 93.5 6t73.5 20.5t54.5 37.5t37 58t21 82t6.5 108v137zM764 876q-22 10 -46 17t-49 12.5t-52.5 8t-56.5 2.5q-70 0 -123 -28t-88 -80.5t-52.5 -128.5 t-17.5 -172q0 -46 4 -91.5t13.5 -86.5t25.5 -76t39 -61t56 -40t75 -14q35 0 67.5 9t64.5 30t66 57q34 35 74 87v555zM293 1475l76 89l195 -179l191 179l72 -86l-267 -278z" />
<glyph unicode="&#x1fa;" horiz-adv-x="1227" d="M974 0q-12 46 -24 93t-24.5 95l-25 96t-26.5 94h-535q-14 -47 -27 -94.5t-25.5 -95.5t-24.5 -95.5t-24 -92.5h-190q52 190 106 374.5t112 363t118 351.5t124 341h210q68 -180 131 -359.5t120.5 -359t110 -357.5t99.5 -354h-205zM836 527q-20 68 -42.5 139.5t-45.5 143.5 t-47 144t-48 143q-6 18 -12 37t-12.5 38.5t-11.5 38.5t-11 35h-2q-6 -17 -12 -35.5t-12 -38t-12 -38t-12 -36.5q-24 -70 -47 -141.5t-45.5 -144t-44 -144.5t-42.5 -141h459zM609 1468q-52 0 -89 12t-61 34t-35.5 52t-11.5 66q0 38 13.5 70t39.5 55t64.5 35t88.5 12 q33 0 60 -5t48.5 -14.5t38.5 -23.5t28 -31.5t16 -39.5t5 -47q0 -38 -13 -69.5t-39.5 -55.5t-64.5 -37t-88 -13zM616 1548q20 0 36 7t27 18t16 27t5 34q0 19 -5 35.5t-15.5 28.5t-27 18.5t-40.5 6.5q-21 0 -37 -6.5t-26.5 -17.5t-16.5 -27t-6 -34q0 -21 5 -37.5t16 -28.5 t28 -18t41 -6zM528 1826l-21 82l350 97l26 -111z" />
<glyph unicode="&#x1fb;" horiz-adv-x="998" d="M716 0l-14 114q-31 -31 -64.5 -56.5t-70.5 -43.5t-78.5 -28t-89.5 -10q-73 0 -131.5 20t-100 59t-63.5 95t-22 130q0 84 32.5 145.5t91 102t139.5 59.5t181 19h152v82q0 60 -11 105t-36 74.5t-67 44t-103 14.5q-34 0 -68.5 -4t-69.5 -12t-69.5 -19.5t-67.5 -25.5l-34 136 q36 15 77 27t84 21t87 14t88 5q68 0 122 -12.5t94.5 -35t69 -54t46.5 -69.5t26 -82q8 -43 8 -91v-724h-138zM678 480h-161q-63 0 -110 -13t-78 -37t-47 -60t-16 -81q0 -40 11 -72.5t32 -55t52 -35t73 -12.5q36 0 69 10t62 27.5t57 41.5q28 25 56 53v234zM497 1164 q-50 0 -86 15t-60 40.5t-35 60.5t-11 76q0 44 13 80.5t38.5 63t63 41.5t85.5 15q46 0 82 -14t60.5 -39t37 -60t12.5 -77q0 -43 -14 -80t-39.5 -64t-62 -42.5t-84.5 -15.5zM503 1254q21 0 36.5 8t26 22t16 33t5.5 41q0 23 -5.5 42.5t-16 34.5t-27 23t-39.5 8q-20 0 -36 -8 t-26.5 -21t-16 -32t-5.5 -40q0 -25 5 -45.5t15.5 -35t27 -22.5t40.5 -8zM415 1624l-40 96l328 140l46 -130z" />
<glyph unicode="&#x1fc;" horiz-adv-x="1610" d="M772 0v333h-457q-20 -46 -38.5 -89.5t-36.5 -85.5t-34 -82t-32 -76h-188q79 186 160.5 365t167 355.5t175 353t186.5 356.5h796v-150h-514v-462h457v-148h-457v-519h533v-151h-718zM772 1276h-6q-31 -61 -63.5 -124.5t-65 -129.5t-65.5 -133t-65.5 -135t-64.5 -136 l-64 -136h394v794zM936 1538l-60 100l328 197l80 -137z" />
<glyph unicode="&#x1fd;" horiz-adv-x="1594" d="M1499 602q0 -10 -0.5 -24t-0.5 -29v-31q-2 -16 -2 -30h-643q0 -56 6.5 -105t20.5 -89.5t36 -72.5t55 -54.5t76 -33.5t98 -11q44 0 84 3.5t76.5 10t72.5 15.5q34 9 70 19l23 -138q-38 -12 -79.5 -22.5t-86.5 -18t-92 -11.5t-97 -4q-66 0 -123 12.5t-102 35.5t-79 56 q-34 32 -56 74q-40 -44 -80.5 -77.5t-84 -56t-91 -33.5t-102.5 -11q-74 0 -132 20t-99 59t-63 97t-22 133q0 84 32 146.5t89.5 103.5t138 61t176.5 20h158v72q0 60 -11 105t-36 74.5t-66 44t-103 14.5q-33 0 -67.5 -4t-69.5 -12t-69.5 -19.5t-67.5 -25.5l-34 136 q36 15 77 27t84 21t87 14t88 5q60 0 108.5 -11t86 -31t64.5 -49.5t45 -67.5q28 42 62.5 71.5t75 49t86.5 29t98 9.5q68 0 122 -15.5t97 -44t74 -70t52 -93t30.5 -113.5t9.5 -130zM1318 616q3 74 -9.5 133t-40.5 99.5t-70 62t-96 21.5q-43 0 -77.5 -12.5t-62.5 -35t-48 -52.5 t-33.5 -65t-20.5 -73q-6 -40 -8 -78h466v0zM676 488h-160q-64 0 -111 -13t-77.5 -38.5t-46 -61t-15.5 -81.5q0 -42 11 -75t32 -56t52 -36t71 -13q38 0 70 10t61.5 28t57 45t55.5 60v231zM746 1266l212 289l138 -91l-252 -267z" />
<glyph unicode="&#x1fe;" horiz-adv-x="1404" d="M218 -148l112 232q-60 45 -104 108.5t-72 141.5t-41.5 170t-13.5 194q0 114 17.5 213.5t52.5 183.5t86 150.5t119.5 112.5t153 71t185.5 25q34 0 67.5 -4t64.5 -10.5t60 -16t56 -22.5l97 208l124 -56l-101 -217q38 -30 69.5 -68t56.5 -83.5t43 -97t30 -108.5t18 -118 t6 -127q0 -114 -17 -215t-51 -185t-86 -151t-120 -113t-153 -70t-187 -24q-34 0 -66.5 3t-63 9t-58 15t-52.5 19l-108 -226zM518 169q38 -22 86 -33t102 -11q76 0 135 21.5t105 60.5t77.5 94t52 120.5t29.5 140.5q9 76 9 156q0 42 -3 85t-8.5 84t-14.5 80t-21.5 74t-28.5 65 q-18 32 -38 56zM894 1256q-20 12 -43 20.5t-47.5 15t-51.5 9.5t-55 3q-75 0 -134.5 -21t-105 -60t-77.5 -93.5t-52 -120t-29 -140.5t-9 -154q0 -44 2.5 -87.5t8.5 -85.5t15.5 -82t22.5 -75.5t30.5 -67t39.5 -57.5zM644 1542l-60 100l328 197l80 -137z" />
<glyph unicode="&#x1ff;" horiz-adv-x="1100" d="M172 -158l96 209q-49 34 -83.5 82.5t-56.5 107t-32 127t-10 142.5q0 85 14 159.5t42 136t68 110t92.5 82.5t117 52t138.5 18q22 0 45 -2t44 -5.5t41 -9t38 -11.5l96 208l112 -44l-100 -214q45 -32 78.5 -77.5t56.5 -103t34 -126.5t11 -149q0 -83 -14.5 -156.5t-42 -135.5 t-68.5 -111t-94 -83t-116.5 -52.5t-137.5 -18.5q-24 0 -46.5 1.5t-42.5 5t-39 8t-35 10.5l-96 -204zM439 138q12 -6 25 -10t27.5 -7t30.5 -4t34 -1q48 0 87 13.5t70 39t54.5 61.5t39 80t23.5 95t8 108q0 38 -3 72t-8 64t-12 55.5t-16 47.5t-20 40q-11 20 -23 34zM664 905 q-24 12 -54 18t-63 6q-72 0 -125.5 -29.5t-88.5 -82.5t-52 -126.5t-17 -160.5q0 -32 2 -63t6 -60.5t10.5 -56.5t15.5 -51.5t21 -45.5t27 -37zM480 1266l212 289l138 -91l-252 -267z" />
<glyph unicode="&#x218;" horiz-adv-x="928" d="M118 180q32 -12 65 -21t67.5 -15t69.5 -9t71 -3q65 0 114 17.5t81 49t48.5 75.5t16.5 98q0 36 -8.5 65.5t-23.5 55t-37 48t-51 43.5t-64 42.5t-77 44.5q-48 27 -88 54t-72 55.5t-56.5 59.5t-41 66.5t-24.5 76.5t-8 88q0 58 14 109t40.5 93.5t64 76t85 56.5t103 35.5 t118.5 12.5q30 0 63 -3t64.5 -8t61.5 -12t55 -16l-30 -150q-26 9 -52.5 16t-54.5 12t-56 7t-55 2q-56 0 -98.5 -17t-70.5 -45.5t-42 -66.5q-13 -39 -13 -81q0 -36 7.5 -65t22.5 -54t37 -47t49 -43t60 -41t70 -42q49 -28 91 -55.5t76 -56.5t60 -60.5t44 -67t27 -76t9 -88.5 q0 -67 -15 -124.5t-44 -103.5t-70 -82t-93 -60t-115 -37t-134 -13q-24 0 -48.5 1.5t-48.5 4t-48 6t-48 8.5t-47.5 11t-47.5 13zM145 -332q51 0 84.5 6t55.5 16t35 24t21 30t15 31.5t16 30.5q8 12 16.5 20.5t19 14.5t22.5 9q11 4 25 4q20 0 38 -7.5t31 -20t20 -30.5t7 -38 q0 -28 -12 -53t-34 -46.5t-53 -38t-69 -28.5t-80.5 -18t-87.5 -6h-19t-18 0.5t-17 1t-16 0.5v98z" />
<glyph unicode="&#x219;" horiz-adv-x="796" d="M117 166q28 -10 58 -18.5t60.5 -14.5t59.5 -9.5t57 -3.5q44 0 77.5 10t56 29t34 45t11.5 60q0 33 -12 58.5t-32.5 46.5t-48.5 39t-59 34.5t-63.5 34t-63 37.5t-58.5 44t-48.5 55.5t-32.5 71t-12 89.5q0 44 10.5 82t31.5 71t51.5 59t70 44t86.5 28t101 10q24 0 50 -2 t53 -6t54 -10t53 -13l-23 -143q-24 8 -47.5 14t-47.5 10t-46.5 6t-42.5 2q-43 0 -74 -11t-52 -29.5t-31 -44t-10 -54.5q0 -33 12 -59t32.5 -46.5t48 -38t58.5 -34t64 -33.5t64 -37t59 -44.5t48.5 -56t32.5 -71t12 -90.5q0 -68 -25.5 -124t-72.5 -95.5t-115 -60.5t-153 -21 q-34 0 -67.5 3t-66.5 8.5t-65.5 13.5t-62.5 18zM87 -332q51 0 84.5 6t55.5 16t35 24t21 30t15 31.5t16 30.5q8 12 16.5 20.5t19 14.5t22.5 9q11 4 25 4q20 0 38 -7.5t31 -20t20 -30.5t7 -38q0 -28 -12 -53t-34 -46.5t-53 -38t-69 -28.5t-80.5 -18t-87.5 -6h-19t-18 0.5 t-17 1t-16 0.5v98z" />
<glyph unicode="&#x21a;" horiz-adv-x="988" d="M401 0v1276h-379v154h945v-154h-379v-1276h-187zM168 -332q51 0 84.5 6t55.5 16t35 24t21 30t15 31.5t16 30.5q8 12 16.5 20.5t19 14.5t22.5 9q11 4 25 4q20 0 38 -7.5t31 -20t20 -30.5t7 -38q0 -28 -12 -53t-34 -46.5t-53 -38t-69 -28.5t-80.5 -18t-87.5 -6h-19t-18 0.5 t-17 1t-16 0.5v98z" />
<glyph unicode="&#x21b;" horiz-adv-x="664" d="M592 2q-14 -4 -33 -7.5t-39 -6t-42 -3.5t-44 -1q-38 0 -70 5t-60 18t-49.5 33.5t-37 51t-23.5 70.5q-8 42 -8 94v648h-144v140h143l42 303h138v-303h227v-140h-227v-604q0 -38 4 -65t11.5 -46t19.5 -30t28.5 -17.5t37 -9t44.5 -2.5h82v-128zM78 -332q51 0 84.5 6t55.5 16 t35 24t21 30t15 31.5t16 30.5q8 12 16.5 20.5t19 14.5t22.5 9q11 4 25 4q20 0 38 -7.5t31 -20t20 -30.5t7 -38q0 -28 -12 -53t-34 -46.5t-53 -38t-69 -28.5t-80.5 -18t-87.5 -6h-19t-18 0.5t-17 1t-16 0.5v98z" />
<glyph unicode="&#x237;" horiz-adv-x="494" d="M-46 -295h87q32 0 56 12.5t39.5 40.5t23.5 72.5t8 107.5v1106h179v-1086q0 -81 -9.5 -142t-26 -106t-41 -75t-55.5 -47.5t-68 -25.5t-78 -8q-16 0 -31.5 1t-31.5 3t-31 5t-27 7z" />
<glyph unicode="&#x2bc;" horiz-adv-x="115" d="M0 1156q30 37 48.5 66.5t29.5 53t15.5 41t4.5 31.5q0 12 -3 21t-7 18t-8 17t-8 17t-6.5 19t-2.5 22q0 22 6.5 41t19.5 33t31 22t42 8q20 0 38 -8t31.5 -24t21 -38.5t7.5 -51.5q0 -31 -10 -68.5t-32.5 -80.5t-59 -92t-90.5 -103z" />
<glyph unicode="&#x2c6;" horiz-adv-x="662" d="M262 1378l-191 -179l-71 87l266 275l267 -273l-77 -89z" />
<glyph unicode="&#x2c7;" horiz-adv-x="662" d="M0 1475l76 89l195 -179l191 179l72 -86l-267 -278z" />
<glyph unicode="&#x2d8;" horiz-adv-x="549" d="M524 1518q0 -41 -6 -78.5t-19 -71t-33.5 -61.5t-50 -48.5t-68.5 -31.5t-87 -11q-49 0 -87.5 11t-67.5 32t-49 49.5t-32.5 62t-18 70.5t-5.5 77h118q0 -37 9 -68.5t27 -56t46 -38t64 -13.5q34 0 60.5 11.5t45 34t28 55.5t9.5 75h117z" />
<glyph unicode="&#x2d9;" horiz-adv-x="520" d="M260 1251q-26 0 -48 9t-38 25.5t-25.5 38.5t-9.5 48t9.5 49t25.5 39t38 25t48 9t48 -9t38 -25t25 -38q9 -24 9 -50t-9 -48t-25 -38.5t-38 -25.5t-48 -9z" />
<glyph unicode="&#x2da;" horiz-adv-x="503" d="M194 1178q-52 0 -93 15t-67.5 43.5t-40 67t-13.5 84.5q0 47 15 86.5t44 69.5t70 46t93 16q49 0 88.5 -15t67.5 -43t42.5 -66t14.5 -86q0 -46 -15.5 -86t-44.5 -70t-70 -46t-91 -16zM200 1270q22 0 40 9t29.5 25t17.5 38t6 46q0 28 -5.5 51t-17.5 39.5t-30.5 26t-43.5 9.5 q-22 0 -39.5 -9t-29.5 -25t-18.5 -37t-6.5 -47q0 -30 6 -53t17 -39t30 -25t45 -9z" />
<glyph unicode="&#x2db;" horiz-adv-x="542" d="M476 -386q-16 -6 -35 -11.5t-39 -9t-41 -6.5t-43 -3q-57 0 -97.5 12.5t-65.5 35t-36.5 53.5t-11.5 69q0 30 10 62t28.5 64t45.5 62t60 58h145q-32 -29 -55.5 -57.5t-39 -55.5t-22.5 -51t-7 -45q0 -22 4.5 -38t15 -27t26.5 -16.5t40 -5.5q11 0 22.5 1.5t23.5 4t24 6.5 q13 2 26 8z" />
<glyph unicode="&#x2dc;" horiz-adv-x="758" d="M640 1430q-14 -38 -35 -69t-47.5 -52t-57 -32.5t-64.5 -11.5q-30 0 -54 6t-42.5 15.5t-42 25.5t-35 23t-28 12.5t-36.5 5.5q-16 0 -32 -6.5t-30 -19t-27 -31t-23 -40.5l-86 68q15 38 36 68t47 51.5t56.5 33t64.5 11.5q30 0 54 -6t42.5 -15.5t42 -25t34.5 -22.5t28 -13 t36 -6q16 0 32 6t30.5 19t27.5 31t23 40z" />
<glyph unicode="&#x2dd;" horiz-adv-x="722" d="M358 1266l210 286l135 -88l-248 -264zM1 1265l201 291l134 -89l-240 -267z" />
<glyph unicode="&#x312;" horiz-adv-x="857" d="M733 1396q-38 0 -67 -3.5t-50 -10t-35.5 -15.5t-24.5 -19t-16.5 -22t-12 -23.5t-10.5 -23t-11 -21.5q-8 -12 -17 -21t-19 -15t-22 -9t-26 -3q-20 0 -37.5 7t-30 20t-20.5 31t-8 38q0 28 12 53t34 46t53 38t68 29t80 18t90 6h19.5t18 -0.5l17 -1t15.5 -0.5v-98z" />
<glyph unicode="&#x315;" horiz-adv-x="717" d="M300 1174l101 397l158 -32l-137 -386z" />
<glyph unicode="&#x326;" horiz-adv-x="861" d="M156 -332q51 0 84.5 6t55.5 16t35 24t21 30t15 31.5t16 30.5q8 12 16.5 20.5t19 14.5t22.5 9q11 4 25 4q20 0 38 -7.5t31 -20t20 -30.5t7 -38q0 -28 -12 -53t-34 -46.5t-53 -38t-69 -28.5t-80.5 -18t-87.5 -6h-19t-18 0.5t-17 1t-16 0.5v98z" />
<glyph unicode="&#x384;" horiz-adv-x="333" d="M62 1214l54 335l160 -17l-91 -331z" />
<glyph unicode="&#x385;" horiz-adv-x="695" d="M504 1284q-21 0 -38.5 7.5t-30.5 20.5t-20 30.5t-7 39.5q0 21 7 38.5t20 30.5t30.5 20.5t38.5 7.5q20 0 37.5 -7.5t30 -20.5t19.5 -30.5t7 -38.5q0 -22 -7 -39.5t-19.5 -30.5t-30 -20.5t-37.5 -7.5zM64 1284q-21 0 -38.5 7.5t-29.5 20.5t-19 30.5t-7 39.5q0 21 7 38.5 t19 30.5t30 20.5t38 7.5q21 0 38.5 -7.5t30.5 -20.5t20 -30.5t7 -38.5q0 -22 -7 -39.5t-20 -30.5t-30.5 -20.5t-38.5 -7.5zM184 1212l54 336l158 -16l-92 -333z" />
<glyph unicode="&#x386;" horiz-adv-x="1227" d="M974 0q-12 46 -24 93t-24.5 95l-25 96t-26.5 94h-535q-14 -47 -27 -94.5t-25.5 -95.5t-24.5 -95.5t-24 -92.5h-190q52 190 106 374.5t112 363t118 351.5t124 341h210q68 -180 131 -359.5t120.5 -359t110 -357.5t99.5 -354h-205zM836 527q-20 68 -42.5 139.5t-45.5 143.5 t-47 144t-48 143q-6 18 -12 37t-12.5 38.5t-11.5 38.5t-11 35h-2q-6 -17 -12 -35.5t-12 -38t-12 -38t-12 -36.5q-24 -70 -47 -141.5t-45.5 -144t-44 -144.5t-42.5 -141h459zM147 1214l54 335l160 -17l-91 -331z" />
<glyph unicode="&#x387;" horiz-adv-x="510" d="M255 924q-28 0 -51.5 10t-40.5 28t-27 42t-10 52t10 52t27 42t41 28t52 10t51 -10t40 -28t27 -42t10 -52t-10 -52t-27 -42t-40.5 -28t-51.5 -10z" />
<glyph unicode="&#x388;" horiz-adv-x="1005" d="M166 0v1430h711v-150h-525v-462h458v-148h-458v-519h533v-151h-719zM-140 1214l54 335l160 -17l-91 -331z" />
<glyph unicode="&#x389;" horiz-adv-x="1276" d="M925 0v665h-573v-665h-186v1430h186v-606h573v606h185v-1430h-185zM-143 1214l54 335l160 -17l-91 -331z" />
<glyph unicode="&#x38a;" horiz-adv-x="519" d="M166 0v1430h186v-1430h-186zM-143 1214l54 335l160 -17l-91 -331z" />
<glyph unicode="&#x38c;" horiz-adv-x="1405" d="M694 -24q-100 0 -182 23t-148 67t-116 108t-82.5 145t-49 178t-16.5 209q0 111 17.5 209.5t52 181.5t86.5 149t119 112t151 71t184 25q98 0 180 -24t148 -68.5t116 -108t84 -144.5t51 -177t17 -206q0 -112 -18 -211t-52 -183t-85 -150t-119 -111.5t-153 -70t-185 -24.5z M710 130q73 0 131 22t102 60.5t75.5 92t51 117t28.5 135.5t9 148q0 86 -9.5 163.5t-31 143.5t-54 119t-78.5 90t-106 57.5t-134 20.5q-72 0 -130 -21.5t-102 -60t-75 -91.5t-51 -116.5t-29 -135.5t-9 -146q0 -88 10 -166t31 -145t54 -120t79 -90t105 -57t133 -20zM-44 1214 l54 335l160 -17l-91 -331z" />
<glyph unicode="&#x38e;" horiz-adv-x="1077" d="M446 0v610q-63 99 -121.5 200.5t-112.5 204.5t-104 207t-96 208h208q23 -56 47.5 -112t51 -112t54 -112t56.5 -110.5t60 -108t62 -104.5q30 51 59 105t57.5 109.5t55.5 112t53 112.5t49 111t44 109h195q-29 -67 -59.5 -135.5t-64 -136.5t-69 -137t-73.5 -137.5 t-80 -137.5q-42 -68 -86 -136v-610h-186zM-254 1214l54 335l160 -17l-91 -331z" />
<glyph unicode="&#x38f;" horiz-adv-x="1417" d="M827 0v144q42 30 79.5 67.5t68.5 82.5t55 97.5t41 111.5t26 124t9 137q0 74 -9.5 142t-30 128t-52.5 108.5t-76 83t-101 54t-127 19.5t-127 -20.5t-100.5 -56.5t-75 -86t-51.5 -109t-30 -125t-10 -136t8.5 -135t24.5 -123.5t39.5 -111t54.5 -98t69 -84.5t82 -70v-144 h-510v144h314q-38 28 -73 67t-66 85.5t-56.5 100.5t-43.5 114t-28 125t-10 134q0 97 17.5 185t51.5 164t84.5 137.5t117 105.5t148.5 68t180 24q93 0 172.5 -21.5t144.5 -61.5t114.5 -98.5t83 -131.5t50.5 -162t17 -189q0 -67 -10 -132.5t-28 -127.5t-44 -119t-58 -106 t-69 -90t-77 -71h322v-144h-511zM-32 1214l54 335l160 -17l-91 -331z" />
<glyph unicode="&#x390;" horiz-adv-x="598" d="M562 0q-15 -4 -31.5 -7t-34 -5t-35.5 -3t-37 -1q-50 0 -92 12.5t-73 44t-49 83.5t-18 132v648h-154v140h333v-744q0 -38 4 -65t11.5 -46t18.5 -30t25 -17.5t31 -9t37 -2.5h64v-130zM514 1284q-21 0 -38.5 7.5t-30.5 20.5t-20 30.5t-7 39.5q0 21 7 38.5t20 30.5t30.5 20.5 t38.5 7.5q20 0 37.5 -7.5t30 -20.5t19.5 -30.5t7 -38.5q0 -22 -7 -39.5t-19.5 -30.5t-30 -20.5t-37.5 -7.5zM74 1284q-21 0 -38.5 7.5t-29.5 20.5t-19 30.5t-7 39.5q0 21 7 38.5t19 30.5t30 20.5t38 7.5q21 0 38.5 -7.5t30.5 -20.5t20 -30.5t7 -38.5q0 -22 -7 -39.5 t-20 -30.5t-30.5 -20.5t-38.5 -7.5zM194 1212l54 336l158 -16l-92 -333z" />
<glyph unicode="&#x391;" horiz-adv-x="1227" d="M974 0q-12 46 -24 93t-24.5 95l-25 96t-26.5 94h-535q-14 -47 -27 -94.5t-25.5 -95.5t-24.5 -95.5t-24 -92.5h-190q52 190 106 374.5t112 363t118 351.5t124 341h210q68 -180 131 -359.5t120.5 -359t110 -357.5t99.5 -354h-205zM836 527q-20 68 -42.5 139.5t-45.5 143.5 t-47 144t-48 143q-6 18 -12 37t-12.5 38.5t-11.5 38.5t-11 35h-2q-6 -17 -12 -35.5t-12 -38t-12 -38t-12 -36.5q-24 -70 -47 -141.5t-45.5 -144t-44 -144.5t-42.5 -141h459z" />
<glyph unicode="&#x392;" horiz-adv-x="1086" d="M166 0v1430h346q68 0 124.5 -11t102 -32t79.5 -51t57.5 -70t35 -88t11.5 -102q0 -56 -12 -105t-33.5 -88t-53 -69t-71.5 -48q54 -12 100 -42t79 -75t52 -103t19 -126q0 -70 -16 -128t-45 -105t-71 -82t-93 -58t-111 -35t-127 -12h-373zM526 812q57 0 96.5 18t63.5 50 t35 76t11 95q0 35 -6 65.5t-18 56t-30.5 46.5t-44 35t-59.5 22t-76 8h-148v-472h176zM555 148q37 0 70 8t61 22t50.5 36t38 50t23.5 63t8 77q0 61 -16 110.5t-50 83.5t-87.5 53t-127.5 19h-175v-522h205z" />
<glyph unicode="&#x393;" horiz-adv-x="857" d="M166 0v1430h650v-154h-464v-1276h-186z" />
<glyph unicode="&#x395;" horiz-adv-x="1005" d="M166 0v1430h711v-150h-525v-462h458v-148h-458v-519h533v-151h-719z" />
<glyph unicode="&#x396;" horiz-adv-x="955" d="M57 0v150l623 1128h-601v152h805v-149l-622 -1129h633v-152h-838z" />
<glyph unicode="&#x397;" horiz-adv-x="1276" d="M925 0v665h-573v-665h-186v1430h186v-606h573v606h185v-1430h-185z" />
<glyph unicode="&#x398;" horiz-adv-x="1408" d="M696 -24q-98 0 -181 23t-149.5 67t-116 107.5t-83 145t-50 178.5t-16.5 209q0 111 18 209.5t53 181.5t86.5 149t119.5 112t152 71t182 25q97 0 179.5 -24t149 -68t116.5 -108t84 -145t51 -177t17 -206q0 -112 -17 -211.5t-52 -183t-86.5 -149.5t-120 -112t-153 -70 t-183.5 -24zM712 130q72 0 130 21t103 59t77 91t53 117t30 136t9 151q0 88 -10 165.5t-32 143.5t-56 119t-80 90t-106 57t-134 20q-71 0 -129.5 -21t-103.5 -59t-77 -91t-52.5 -117t-29.5 -136q-10 -70 -10 -148q0 -90 10 -169t32 -145t55.5 -119t80 -90t106.5 -56t134 -19z M465 639v137h478v-137h-478z" />
<glyph unicode="&#x399;" horiz-adv-x="519" d="M166 0v1430h186v-1430h-186z" />
<glyph unicode="&#x39a;" horiz-adv-x="1128" d="M868 0l-428 712l-88 -100v-612h-186v1430h186v-607q62 74 125 150t125.5 152t124.5 153q61 76 123 152h233l-513 -583l520 -847h-222z" />
<glyph unicode="&#x39b;" horiz-adv-x="1223" d="M971 0q-22 88 -45.5 178t-48.5 181t-52 182.5t-55 182t-57 179.5t-60 181l-48 153h-2l-51 -159q-46 -142 -88 -277.5t-81.5 -271t-75 -268.5t-66.5 -261h-193q48 180 100 357t109 355t119.5 357t130.5 361h211q68 -176 130 -356t119 -358.5t109 -356t100 -359.5h-205z " />
<glyph unicode="&#x39c;" horiz-adv-x="1704" d="M1368 0q-2 105 -4 209.5t-6 207t-10 204t-13 201.5t-16 199t-21 196h-2l-362 -1217h-182l-362 1217h-2q-8 -96 -17 -194.5t-15.5 -198.5t-12 -202.5t-9.5 -206t-7 -207.5t-3 -208h-175q2 116 5.5 234t9 237.5t13.5 239.5t18.5 240t23.5 239.5t28 239.5h269l338 -1143h4 l337 1143h267q15 -120 27 -240t22 -238.5t17.5 -237t13.5 -237t10 -237.5l4 -240h-188z" />
<glyph unicode="&#x39d;" horiz-adv-x="1318" d="M906 0l-567 1184h-3v-1184h-170v1430h260l553 -1154h3v1154h170v-1430h-246z" />
<glyph unicode="&#x39e;" horiz-adv-x="954" d="M79 1274v156h797v-156h-797zM155 664v154h645v-154h-645zM79 0v156h797v-156h-797z" />
<glyph unicode="&#x39f;" horiz-adv-x="1405" d="M694 -24q-100 0 -182 23t-148 67t-116 108t-82.5 145t-49 178t-16.5 209q0 111 17.5 209.5t52 181.5t86.5 149t119 112t151 71t184 25q98 0 180 -24t148 -68.5t116 -108t84 -144.5t51 -177t17 -206q0 -112 -18 -211t-52 -183t-85 -150t-119 -111.5t-153 -70t-185 -24.5z M710 130q73 0 131 22t102 60.5t75.5 92t51 117t28.5 135.5t9 148q0 86 -9.5 163.5t-31 143.5t-54 119t-78.5 90t-106 57.5t-134 20.5q-72 0 -130 -21.5t-102 -60t-75 -91.5t-51 -116.5t-29 -135.5t-9 -146q0 -88 10 -166t31 -145t54 -120t79 -90t105 -57t133 -20z" />
<glyph unicode="&#x3a0;" horiz-adv-x="1276" d="M925 0v1276h-573v-1276h-186v1430h944v-1430h-185z" />
<glyph unicode="&#x3a1;" horiz-adv-x="1059" d="M166 0v1430h346q46 0 88.5 -4t80.5 -14q68 -16 122.5 -51.5t92.5 -87t58 -118t20 -145.5q0 -108 -31 -193t-90 -145t-144 -91.5t-195 -31.5h-162v-549h-186zM526 698q62 0 109 21.5t78.5 61t47.5 94.5t16 121q0 50 -10.5 95t-31.5 80t-51 60t-68 35q-14 4 -28 7t-30 5 t-31 2.5t-29 0.5h-146v-583h174z" />
<glyph unicode="&#x3a3;" horiz-adv-x="911" d="M65 0v150l382 584l-375 546v150h772v-152h-550l367 -534l-389 -592h572v-152h-779z" />
<glyph unicode="&#x3a4;" horiz-adv-x="988" d="M401 0v1276h-379v154h945v-154h-379v-1276h-187z" />
<glyph unicode="&#x3a5;" horiz-adv-x="1077" d="M446 0v610q-63 99 -121.5 200.5t-112.5 204.5t-104 207t-96 208h208q23 -56 47.5 -112t51 -112t54 -112t56.5 -110.5t60 -108t62 -104.5q30 51 59 105t57.5 109.5t55.5 112t53 112.5t49 111t44 109h195q-29 -67 -59.5 -135.5t-64 -136.5t-69 -137t-73.5 -137.5 t-80 -137.5q-42 -68 -86 -136v-610h-186z" />
<glyph unicode="&#x3a6;" horiz-adv-x="1512" d="M666 -216v216q-88 4 -164.5 28t-139 66t-111.5 102t-82.5 136.5t-51 170t-17.5 202.5q0 108 19 201.5t54 171.5t86 139t114 105.5t137 71.5q74 28 156 36v208h181v-209q66 -4 125.5 -18t111.5 -38.5t97 -59.5t81.5 -80t64.5 -99.5t47 -118t29 -136.5t10 -155 q0 -109 -19 -202.5t-54.5 -171t-85.5 -139t-113 -105.5t-137 -71t-157 -35v-216h-181zM668 1274q-60 -7 -112 -29.5t-93.5 -58.5t-73 -85t-53.5 -107t-32.5 -125t-10.5 -141q0 -86 10.5 -160.5t32 -136.5t53 -110.5t73.5 -84t93.5 -56t112.5 -26.5v1120zM845 154 q60 7 111.5 30.5t93.5 59.5t73.5 84t53 107t32.5 126t11 140q0 86 -11 160.5t-32 136.5t-53 111t-73.5 84t-93 56t-112.5 25v-1120z" />
<glyph unicode="&#x3a7;" horiz-adv-x="1142" d="M896 0l-330 604l-327 -604h-217l430 742l-390 688h220l296 -543l292 543h211l-390 -680l429 -750h-224z" />
<glyph unicode="&#x3a8;" horiz-adv-x="1483" d="M650 0v336q-99 4 -176 23t-134 51.5t-96 76.5t-62.5 97.5t-34.5 113.5t-11 128v604h184v-566q0 -52 6 -98.5t19.5 -86t38 -72.5t60.5 -57t87 -38t119 -18v936h184v-936q58 4 104 15t83 32t64 52t44 75t26 101.5t9 130.5v530h182v-549q0 -93 -16 -168.5t-48 -135 t-77 -103.5t-102 -73t-125 -45t-144 -20v-336h-184z" />
<glyph unicode="&#x3aa;" horiz-adv-x="519" d="M166 0v1430h186v-1430h-186zM446 1549q-22 0 -40.5 8t-32 21.5t-21.5 32.5t-8 41t8 40.5t21.5 32.5t32 22t40.5 8t40 -8t31.5 -22t20.5 -33q8 -18 8 -40t-7.5 -41t-21 -32.5t-31.5 -21.5t-40 -8zM74 1549q-21 0 -39.5 8t-31.5 21.5t-21 32.5t-8 41t8 40.5t21 32.5t32 22 t39 8q22 0 41 -8t32 -22t21 -33q8 -18 8 -40t-8 -41t-21 -32.5t-32 -21.5t-41 -8z" />
<glyph unicode="&#x3ab;" horiz-adv-x="1077" d="M446 0v610q-63 99 -121.5 200.5t-112.5 204.5t-104 207t-96 208h208q23 -56 47.5 -112t51 -112t54 -112t56.5 -110.5t60 -108t62 -104.5q30 51 59 105t57.5 109.5t55.5 112t53 112.5t49 111t44 109h195q-29 -67 -59.5 -135.5t-64 -136.5t-69 -137t-73.5 -137.5 t-80 -137.5q-42 -68 -86 -136v-610h-186zM742 1549q-21 0 -39.5 8t-32 21.5t-21 32.5t-7.5 41t7.5 41t21 32.5t32 21.5t39.5 8q22 0 40.5 -8t32 -21.5t21 -32.5t7.5 -41t-7.5 -41t-21 -32.5t-32 -21.5t-40.5 -8zM342 1549q-21 0 -39.5 8t-31.5 21.5t-21 32.5t-8 41t8 41 t21 32.5t32 21.5t39 8q22 0 41 -8t32 -21.5t21 -32.5t8 -41t-8 -41t-21 -32.5t-32 -21.5t-41 -8z" />
<glyph unicode="&#x3ac;" horiz-adv-x="1194" d="M1118 -1q-10 -3 -21.5 -6t-24.5 -5t-26.5 -3t-27.5 -1q-36 0 -63 8.5t-47 32t-34 63.5t-28 102q-12 -28 -29 -54t-39 -50t-50 -44t-61.5 -35t-73 -23t-84.5 -8q-98 0 -176 37t-133 106t-84.5 168t-29.5 222q0 85 14 159.5t41 136.5t66 110.5t88 82.5t109 52t128 18 q46 0 86 -9.5t73 -25t59 -37.5t46 -47t35 -52.5t24 -55.5q2 17 3.5 33t3 31l3 30t2.5 32t2 36t3 41h176q-7 -78 -14.5 -150t-16 -142t-18 -138t-18.5 -138q8 -79 16.5 -135.5t16.5 -95t16 -61t16.5 -34.5t18 -16t21.5 -4h32v-131zM540 122q62 0 111 27t83 77t52 122t18 162 q0 62 -7.5 117t-22.5 101t-37.5 82t-52.5 61t-67 37.5t-82 12.5q-64 0 -112.5 -28.5t-81 -80.5t-49.5 -123t-17 -157q0 -62 7.5 -116t22 -99.5t36.5 -81.5t51.5 -61t66.5 -38.5t81 -13.5zM463 1214l54 335l160 -17l-91 -331z" />
<glyph unicode="&#x3ad;" horiz-adv-x="858" d="M800 32q-34 -12 -72 -22t-79.5 -18t-87.5 -12q-47 -4 -97 -4q-53 0 -101.5 8t-91.5 24t-78 40t-60 57t-38.5 74t-13.5 92q0 52 16.5 95.5t44.5 77.5t66 58t82 34q-37 14 -67.5 36.5t-51.5 53t-32.5 67.5t-11.5 81q0 66 26.5 120t76 92.5t120 60t158.5 21.5q31 0 59.5 -2 t55.5 -6t52 -9t48 -11.5t43 -13.5q22 -8 40 -16l-36 -140q-28 12 -57 22.5t-61.5 18t-68 11.5t-73.5 4q-45 0 -81.5 -11t-62.5 -31t-40 -49.5t-14 -65.5q0 -34 11 -65t35 -54.5t62 -36.5t94 -13h165v-131h-166q-62 0 -107.5 -12.5t-75.5 -35.5t-45 -55t-15 -72 q0 -44 15.5 -77t44 -55t68.5 -34q42 -11 92 -11q38 0 74 3.5t71 11t69 17.5q34 11 68 23zM425 1214l54 335l160 -17l-91 -331z" />
<glyph unicode="&#x3ae;" horiz-adv-x="1101" d="M780 -425v1058q0 64 -9 116.5t-30 90t-56 58t-86 20.5q-40 0 -73.5 -11t-65.5 -33t-64 -56t-70 -81v-737h-178v1044h138l20 -152q38 44 75 77t76 55t83 33t94 11q60 0 107 -14.5t83 -41t62 -62.5t42 -81t23 -96t7 -105v-1093h-178zM474 1214l54 335l160 -17l-91 -331z " />
<glyph unicode="&#x3af;" horiz-adv-x="598" d="M562 0q-15 -4 -31.5 -7t-34 -5t-35.5 -3t-37 -1q-50 0 -92 12.5t-73 44t-49 83.5t-18 132v648h-154v140h333v-744q0 -38 4 -65t11.5 -46t18.5 -30t25 -17.5t31 -9t37 -2.5h64v-130zM192 1214l54 335l160 -17l-91 -331z" />
<glyph unicode="&#x3b0;" horiz-adv-x="1080" d="M142 1044h179v-636q0 -74 11.5 -127t37.5 -88t66.5 -52t98.5 -17q40 0 75 10t62.5 33t48.5 59t35 86t21.5 116t7.5 148q0 42 -0.5 81t-2.5 77t-5 75t-6 74.5t-7 77t-8 83.5h178q4 -40 8 -77.5t7.5 -74t6 -73.5t4.5 -75t3 -78t1 -84q0 -110 -14 -197.5t-40 -155 t-64.5 -115.5t-88 -78.5t-109.5 -45t-130 -14.5q-94 0 -165 24.5t-117.5 74.5t-70 126t-23.5 179v664zM766 1284q-21 0 -38.5 7.5t-30.5 20.5t-20 30.5t-7 39.5q0 21 7 38.5t20 30.5t30.5 20.5t38.5 7.5q20 0 37.5 -7.5t30 -20.5t19.5 -30.5t7 -38.5q0 -22 -7 -39.5 t-19.5 -30.5t-30 -20.5t-37.5 -7.5zM326 1284q-21 0 -38.5 7.5t-29.5 20.5t-19 30.5t-7 39.5q0 21 7 38.5t19 30.5t30 20.5t38 7.5q21 0 38.5 -7.5t30.5 -20.5t20 -30.5t7 -38.5q0 -22 -7 -39.5t-20 -30.5t-30.5 -20.5t-38.5 -7.5zM446 1212l54 336l158 -16l-92 -333z" />
<glyph unicode="&#x3b1;" horiz-adv-x="1194" d="M1118 -1q-10 -3 -21.5 -6t-24.5 -5t-26.5 -3t-27.5 -1q-36 0 -63 8.5t-47 32t-34 63.5t-28 102q-12 -28 -29 -54t-39 -50t-50 -44t-61.5 -35t-73 -23t-84.5 -8q-98 0 -176 37t-133 106t-84.5 168t-29.5 222q0 85 14 159.5t41 136.5t66 110.5t88 82.5t109 52t128 18 q46 0 86 -9.5t73 -25t59 -37.5t46 -47t35 -52.5t24 -55.5q2 17 3.5 33t3 31l3 30t2.5 32t2 36t3 41h176q-7 -78 -14.5 -150t-16 -142t-18 -138t-18.5 -138q8 -79 16.5 -135.5t16.5 -95t16 -61t16.5 -34.5t18 -16t21.5 -4h32v-131zM540 122q62 0 111 27t83 77t52 122t18 162 q0 62 -7.5 117t-22.5 101t-37.5 82t-52.5 61t-67 37.5t-82 12.5q-64 0 -112.5 -28.5t-81 -80.5t-49.5 -123t-17 -157q0 -62 7.5 -116t22 -99.5t36.5 -81.5t51.5 -61t66.5 -38.5t81 -13.5z" />
<glyph unicode="&#x3b2;" horiz-adv-x="1065" d="M148 -425v1500q0 74 11.5 138.5t35 117.5t57.5 94t79 68.5t100.5 42t121.5 14.5q94 0 162.5 -26.5t112.5 -74t65 -113.5t21 -146q0 -60 -12.5 -115t-36 -100.5t-56.5 -80t-75 -54.5q39 -10 73 -27t62.5 -41t51 -55t38 -69t23.5 -83t8 -98q0 -108 -30.5 -197t-89.5 -152.5 t-144.5 -98.5t-195.5 -35q-32 0 -60 3t-54 9.5t-48 15t-42 18.5v-455h-178zM462 732v144h32q39 0 72 11t59.5 30t46.5 46.5t34 60t21 69.5t7 77q0 53 -11 96t-34 73.5t-60 47t-91 16.5q-37 0 -66.5 -9.5t-53 -27.5t-41 -44t-28.5 -60t-17 -75t-6 -89v-910q26 -15 50.5 -25.5 t49 -18t49.5 -11t54 -3.5q42 0 79 10.5t67.5 30t54.5 47.5t40.5 64.5t25 80t8.5 93.5q0 65 -18 116t-55 86.5t-93 54.5t-130 19h-46z" />
<glyph unicode="&#x3b3;" horiz-adv-x="923" d="M334 -425l-16 281q-5 79 -17 161.5t-30.5 171.5t-43 185t-55 202t-67 222t-78.5 246h186q30 -94 53.5 -171t43 -141.5t34.5 -118t27.5 -100t22.5 -87.5l18 -80q5 -21 9 -39.5t7.5 -36.5t6.5 -36t6 -38h3q36 62 67 125t58.5 130t49 137t36.5 144t23 152t8 160h178 q0 -102 -13 -198t-38 -187t-60 -177t-77 -169t-91 -163t-101 -158q4 -54 7 -107t6.5 -104.5t6 -103t5.5 -102.5h-175z" />
<glyph unicode="&#x3b4;" horiz-adv-x="1052" d="M510 910q-41 -19 -74.5 -45.5t-60.5 -58.5t-46 -69t-31 -78t-18.5 -85t-6.5 -88q0 -53 7 -100.5t21.5 -88t35.5 -73t50 -55t66 -35t81 -12.5q62 0 110.5 26t81 72.5t49.5 111t17 142.5q0 52 -8 97.5t-23 85t-38 74.5t-54.5 66t-71 59t-87.5 54zM852 1356q-20 8 -40 15 t-41.5 13.5t-44 11.5t-46.5 8.5t-49.5 5.5t-52.5 2q-46 0 -79 -9.5t-54.5 -26.5t-32 -40.5t-10.5 -52.5q0 -24 6 -44.5t18.5 -39.5t32 -37t46 -38t61 -42t78.5 -48q51 -32 95.5 -64.5t81.5 -69t66.5 -78.5t49.5 -91t30.5 -106t10.5 -125q0 -79 -14 -148.5t-41 -127.5 t-66 -104t-89.5 -78t-112 -49t-132.5 -17q-68 0 -127.5 15.5t-108.5 45t-87 71.5t-63.5 96t-39 119.5t-13.5 140.5q0 52 7 104t22 102t38.5 96t56 88t75 79t95.5 67q-33 26 -61 53t-48.5 59t-31.5 70.5t-11 85.5q0 62 22.5 115t67 92t110.5 60.5t154 21.5q48 0 90 -4.5 t81.5 -11.5t75 -18t69.5 -23z" />
<glyph unicode="&#x3b5;" horiz-adv-x="858" d="M800 32q-34 -12 -72 -22t-79.5 -18t-87.5 -12q-47 -4 -97 -4q-53 0 -101.5 8t-91.5 24t-78 40t-60 57t-38.5 74t-13.5 92q0 52 16.5 95.5t44.5 77.5t66 58t82 34q-37 14 -67.5 36.5t-51.5 53t-32.5 67.5t-11.5 81q0 66 26.5 120t76 92.5t120 60t158.5 21.5q31 0 59.5 -2 t55.5 -6t52 -9t48 -11.5t43 -13.5q22 -8 40 -16l-36 -140q-28 12 -57 22.5t-61.5 18t-68 11.5t-73.5 4q-45 0 -81.5 -11t-62.5 -31t-40 -49.5t-14 -65.5q0 -34 11 -65t35 -54.5t62 -36.5t94 -13h165v-131h-166q-62 0 -107.5 -12.5t-75.5 -35.5t-45 -55t-15 -72 q0 -44 15.5 -77t44 -55t68.5 -34q42 -11 92 -11q38 0 74 3.5t71 11t69 17.5q34 11 68 23z" />
<glyph unicode="&#x3b6;" horiz-adv-x="736" d="M465 -388q24 38 43.5 70t33 61.5t21 58t7.5 60.5q0 28 -11.5 48.5t-37 38t-66.5 33.5t-100 34q-48 14 -87.5 32t-69.5 42t-51.5 55.5t-35 72t-20.5 90.5t-7 112q0 65 11 134.5t30 140t46 141t58 137t65 128.5t70 115.5t71 97.5t68 75h-388v147h599v-136q-46 -40 -90 -90 t-84 -108t-75 -122t-65 -130t-53 -132t-40 -130t-25.5 -123t-8.5 -111q0 -48 3.5 -85t11.5 -67t22.5 -52t35.5 -40t50.5 -32t67.5 -25q74 -23 127 -47t87 -53t50.5 -66.5t16.5 -87.5q0 -52 -11.5 -97.5t-30.5 -87.5t-45 -82t-56 -82z" />
<glyph unicode="&#x3b7;" horiz-adv-x="1101" d="M780 -425v1058q0 64 -9 116.5t-30 90t-56 58t-86 20.5q-40 0 -73.5 -11t-65.5 -33t-64 -56t-70 -81v-737h-178v1044h138l20 -152q38 44 75 77t76 55t83 33t94 11q60 0 107 -14.5t83 -41t62 -62.5t42 -81t23 -96t7 -105v-1093h-178z" />
<glyph unicode="&#x3b8;" horiz-adv-x="1137" d="M562 -23q-75 0 -138 22t-114.5 65.5t-90.5 108.5t-65.5 151.5t-40 195t-13.5 237.5q0 127 13 235.5t39 197t65.5 156.5t92 115t119.5 70.5t147 23.5q78 0 142.5 -22.5t116 -67t89.5 -110.5t63 -152.5t38 -192.5t13 -232q0 -132 -14 -243t-41 -200t-67 -156t-93 -112 t-118.5 -67.5t-142.5 -22.5zM288 700q2 -103 12 -185.5t27.5 -147t42.5 -110.5t56.5 -75.5t69.5 -43.5t80 -14t78 14.5t65.5 45t53 77.5t40.5 111t27 146t12 182h-564zM852 839q-2 99 -12.5 180t-27.5 144.5t-41.5 110t-55.5 76.5t-69 44q-38 15 -84 15q-64 0 -114 -34.5 t-84 -104.5t-54 -178q-20 -107 -24 -253h566z" />
<glyph unicode="&#x3b9;" horiz-adv-x="598" d="M562 0q-15 -4 -31.5 -7t-34 -5t-35.5 -3t-37 -1q-50 0 -92 12.5t-73 44t-49 83.5t-18 132v648h-154v140h333v-744q0 -38 4 -65t11.5 -46t18.5 -30t25 -17.5t31 -9t37 -2.5h64v-130z" />
<glyph unicode="&#x3ba;" horiz-adv-x="974" d="M728 0l-327 518l-75 -78v-440h-178v1044h178v-418q46 50 92 102t93 105t93 106t90 105h226l-388 -400l414 -644h-218z" />
<glyph unicode="&#x3bb;" horiz-adv-x="927" d="M714 0l-258 818h-2q-32 -94 -64 -190t-62.5 -197.5t-61 -208.5t-60.5 -222h-184q76 262 166 522q89 260 190 522l-63 200q-16 52 -32.5 84t-34.5 50t-38 25t-42 7h-64v132q10 2 21 4t23 4t25 3t27 1q50 0 91.5 -11t75 -38t61.5 -74t52 -120l418 -1311h-184z" />
<glyph unicode="&#x3bd;" horiz-adv-x="923" d="M359 0q-33 98 -63 189t-58 179t-54 172t-50 168t-47 167t-45 169h188q29 -114 58.5 -224t59.5 -218t62 -213.5t66 -210.5h2q30 66 56 132t47 134.5t38.5 139t31.5 144.5t24.5 153t18.5 163h176q-8 -96 -22 -185.5t-33 -175t-45 -168.5t-58.5 -167t-72.5 -170 q-41 -86 -89 -178h-191z" />
<glyph unicode="&#x3be;" horiz-adv-x="773" d="M483 -388q24 38 43.5 71t33.5 62t21 57q7 30 7 60q0 28 -11.5 48.5t-37 38.5t-66.5 34q-41 17 -99 33q-72 21 -128 51.5t-93 76t-55.5 107t-18.5 143.5q0 54 9.5 103t26.5 90.5t40 76t49 62t55 46.5t57 30q-35 16 -66 46t-54.5 71.5t-37 95t-13.5 115.5q0 63 13.5 118.5 t38.5 102t61 83t81 62.5t97 39.5t111 13.5q26 0 49.5 -2t45.5 -5t42 -7.5t39 -8.5l-23 -142q-18 4 -35 8t-36 7t-39 5q-22 1 -46 1q-48 0 -88 -19.5t-69 -55.5t-44.5 -85t-15.5 -108q0 -60 12.5 -107.5t37.5 -80.5t63 -51q40 -18 92 -18h140v-147h-92q-54 0 -98 -11.5 t-79 -32.5t-61 -50t-43 -63.5t-25 -72.5q-8 -37 -8 -77q0 -64 12 -108t38 -75t67 -52t100 -38q74 -22 126.5 -45.5t87 -53.5t50.5 -67t16 -87q0 -52 -11.5 -98t-31 -89t-45.5 -83q-27 -40 -55 -80z" />
<glyph unicode="&#x3bf;" horiz-adv-x="1100" d="M542 -24q-110 0 -194.5 37t-143 106t-88.5 168t-30 222q0 85 14 159.5t42 136.5t68 110.5t92.5 82.5t117 52t138.5 18q110 0 195 -37.5t143 -107t88 -169t30 -223.5q0 -84 -14 -157.5t-41 -135.5t-67.5 -110.5t-93 -82t-116.5 -51.5t-140 -18zM554 122q46 0 83.5 13 t68 37.5t52.5 59t37 77.5t23 93.5t8 107.5q0 60 -7 114t-22 100t-38 82.5t-54 62t-71 39.5q-40 13 -88 13q-68 0 -119 -28.5t-84.5 -80.5t-50.5 -123t-17 -157q0 -60 7.5 -114t21.5 -99.5t37 -82t54 -61.5t71 -39t88 -14z" />
<glyph unicode="&#x3c0;" horiz-adv-x="1145" d="M1092 0q-10 -4 -24.5 -6.5t-32 -5t-36.5 -3.5t-37 -1q-48 0 -86 14t-66 47.5t-45 87t-24 133.5q-4 48 -8 99.5t-7 105t-5.5 107.5t-4.5 109t-3 109t-1 108h-318q0 -76 -3 -153t-8 -155.5t-12 -156t-17 -153t-24 -147.5t-30 -139h-177q16 67 29.5 139t24.5 147.5t19 153 t13 156t8 156.5q3 76 3 152h-164v140h1036v-140h-204q0 -50 1 -100.5t3 -102t4 -102.5t5.5 -101t8 -98t8.5 -94q6 -54 15 -88t24 -53t37 -27t52 -8h46v-130z" />
<glyph unicode="&#x3c1;" horiz-adv-x="1061" d="M121 -425v949q0 94 14 171t40.5 138t64.5 105t87.5 73t109 43t127.5 14q98 0 174 -35.5t129 -101.5t80.5 -160.5t27.5 -212.5q0 -136 -30.5 -242t-90 -179.5t-146 -112t-198.5 -38.5q-30 0 -59.5 3.5t-56.5 9.5t-51 14t-43 17v-455h-179zM300 182q24 -12 48 -21t49 -15.5 t53 -10t58 -3.5q46 0 85 13t70 37.5t54 60t38 81.5t23 101t8 119q0 86 -15 155t-45 118.5t-75 76t-105 26.5q-40 0 -74 -11t-61.5 -33t-48 -55.5t-34.5 -79.5t-21 -105t-7 -131v-323z" />
<glyph unicode="&#x3c2;" horiz-adv-x="815" d="M472 -379q24 38 43 70t33 61t21.5 57.5t7.5 60.5q0 18 -4.5 33t-14 27t-25.5 22.5t-39.5 20t-54.5 19.5t-71 21q-48 14 -87.5 33.5t-71 46t-54.5 61t-38 77.5t-23 95t-8 116q0 102 15 187t42 154t66 121.5t88 87.5t107 52.5t124 17.5q32 0 63 -3t61.5 -9.5t60 -17 t57.5 -24.5l-41 -136q-22 10 -45 18t-47.5 14t-49 9t-49.5 3q-46 0 -83 -15t-66 -42t-51 -67t-36 -89.5t-21 -108t-7 -124.5q0 -72 10 -124t33 -90t63 -64t98 -42q74 -22 126 -43.5t85 -49t48 -63.5t15 -86q0 -52 -11 -97.5t-31 -88t-46 -82.5t-55 -81z" />
<glyph unicode="&#x3c3;" horiz-adv-x="1112" d="M876 895q16 -17 32 -38t31 -46.5t29 -56t24 -66.5t16 -78t6 -92q0 -80 -14.5 -152t-42.5 -132t-69.5 -108t-94.5 -81t-118 -51t-141 -18q-110 0 -193 37t-140 105t-86 164t-29 215q0 126 32 227.5t96 172.5t160 109t226 38h432v-149h-156zM671 895h-88q-56 0 -100 -13.5 t-78.5 -37.5t-58.5 -58t-40 -75.5t-23.5 -90t-7.5 -100.5q0 -58 6.5 -109t20.5 -95.5t36 -80t52 -60.5t69 -39t87 -14q68 0 120.5 29t88 79t53.5 119t18 149q0 76 -14 137t-36 110.5t-49.5 86.5t-55.5 63z" />
<glyph unicode="&#x3c4;" horiz-adv-x="706" d="M594 0q-10 -4 -25.5 -6.5t-35 -5t-41.5 -3.5t-44 -1q-34 0 -64 6t-54.5 19.5t-44 35t-32.5 52.5t-20.5 73t-7.5 94v640h-215v140h649v-140h-256v-588q0 -40 3.5 -69t10 -50t17 -33.5t24.5 -20t32.5 -10.5t41.5 -3h62v-130z" />
<glyph unicode="&#x3c5;" horiz-adv-x="1080" d="M142 1044h179v-636q0 -74 11.5 -127t37.5 -88t66.5 -52t98.5 -17q40 0 75 10t62.5 33t48.5 59t35 86t21.5 116t7.5 148q0 42 -0.5 81t-2.5 77t-5 75t-6 74.5t-7 77t-8 83.5h178q4 -40 8 -77.5t7.5 -74t6 -73.5t4.5 -75t3 -78t1 -84q0 -110 -14 -197.5t-40 -155 t-64.5 -115.5t-88 -78.5t-109.5 -45t-130 -14.5q-94 0 -165 24.5t-117.5 74.5t-70 126t-23.5 179v664z" />
<glyph unicode="&#x3c6;" horiz-adv-x="1311" d="M568 -425v402q-78 4 -144 22.5t-120 51.5t-95 78t-69.5 103t-43 127t-14.5 147q0 79 15 150t43.5 131.5t70 109.5t95.5 84.5t120 57t142 26.5v471h175v-470q78 -4 144 -22.5t120 -51t95.5 -78.5t69.5 -103.5t42.5 -126t14.5 -146.5q0 -80 -14.5 -151t-43.5 -131.5 t-71 -109t-96 -84.5t-119.5 -57t-141.5 -27v-403h-175zM570 922q-51 -4 -93.5 -19.5t-76.5 -42t-60 -61.5t-43 -78t-26 -92t-9 -102q0 -57 8.5 -108t25 -95t42 -79t60 -61.5t77.5 -42.5q43 -17 95 -21v802zM741 120q76 6 134 38t96.5 85t58.5 123t20 150q0 57 -9 108 t-25.5 94.5t-42 79t-59.5 61.5t-77.5 42t-95.5 20v-801z" />
<glyph unicode="&#x3c7;" horiz-adv-x="936" d="M930 -422q-12 -4 -24 -7t-24 -5t-25 -3.5t-27 -1.5q-30 0 -55 3t-45 10.5t-36 20.5t-30 31t-26 44t-23 59l-167 451l-254 -605h-204l371 751l-200 493q-12 28 -22.5 46.5t-23.5 29.5t-30 15t-39 4h-36v125q12 4 24 6.5t24.5 5t26 4t25.5 1.5q28 0 51.5 -3t43 -10 t36.5 -19t32 -30t28 -44t25 -59l160 -424l245 577h199l-357 -724l207 -522q12 -30 23 -48t23 -29t28 -15t40 -4h36v-124z" />
<glyph unicode="&#x3c8;" horiz-adv-x="1411" d="M626 -425v401q-124 4 -215 29t-151 75t-89 126t-29 180v658h179v-630q0 -75 17.5 -128t54.5 -87.5t95 -52.5t138 -21v1411h174v-1411q50 2 93 13.5t78.5 34t62 57.5t45.5 84.5t28 114.5t9 147q0 42 -1 81t-2.5 77t-4 75t-5.5 74.5t-7 76.5q-6 40 -10 84h179 q4 -40 8.5 -77.5t7.5 -74t5.5 -73.5t4.5 -75t3 -78t1 -84q0 -109 -16.5 -195.5t-47 -153.5t-74 -115t-98.5 -79t-120 -46t-139 -17v-401h-174z" />
<glyph unicode="&#x3c9;" horiz-adv-x="1392" d="M691 148q-16 -37 -39.5 -68.5t-55 -54.5t-70.5 -36.5t-87 -13.5q-81 0 -145 32t-108 97.5t-67 166.5t-23 239q0 77 8 147.5t24 136t38 127t49 122.5h176q-24 -60 -43.5 -123t-34 -128.5t-22 -133.5t-7.5 -138q0 -100 12 -175t34.5 -125.5t55 -76t74.5 -25.5q28 0 50 10 t39 29t28.5 46t19 62t11.5 76t4 89v296h169v-292q0 -47 3.5 -88.5t12 -76.5t21 -63t29.5 -47.5t39 -30t50 -10.5q42 0 74 24t54 73t34 123q12 72 12 172q0 70 -8 140t-22.5 137t-34 131t-43.5 125h176q18 -40 34 -80.5t29 -81.5t23.5 -83t18 -87t11.5 -93t4 -99 q0 -138 -25 -240.5t-70 -169.5t-110 -100.5t-146 -33.5q-48 0 -87.5 11.5t-71.5 34t-56 55t-38 72.5h-3z" />
<glyph unicode="&#x3ca;" horiz-adv-x="598" d="M562 0q-15 -4 -31.5 -7t-34 -5t-35.5 -3t-37 -1q-50 0 -92 12.5t-73 44t-49 83.5t-18 132v648h-154v140h333v-744q0 -38 4 -65t11.5 -46t18.5 -30t25 -17.5t31 -9t37 -2.5h64v-130zM452 1272q-22 0 -41.5 8t-33 22t-21.5 33t-8 43q0 23 8 42t21.5 33t33 21.5t41.5 7.5 t41 -7.5t32.5 -21.5t21 -33.5t7.5 -41.5q0 -23 -7.5 -42.5t-21 -33.5t-32.5 -22t-41 -8zM106 1272q-23 0 -42.5 8t-33 22t-21 33t-7.5 43q0 23 7.5 42t21 33t32.5 21.5t43 7.5q22 0 41 -7.5t32 -21.5t21 -33.5t8 -41.5q0 -23 -8 -42.5t-21 -33.5t-32 -22t-41 -8z" />
<glyph unicode="&#x3cb;" horiz-adv-x="1080" d="M142 1044h179v-636q0 -74 11.5 -127t37.5 -88t66.5 -52t98.5 -17q40 0 75 10t62.5 33t48.5 59t35 86t21.5 116t7.5 148q0 42 -0.5 81t-2.5 77t-5 75t-6 74.5t-7 77t-8 83.5h178q4 -40 8 -77.5t7.5 -74t6 -73.5t4.5 -75t3 -78t1 -84q0 -110 -14 -197.5t-40 -155 t-64.5 -115.5t-88 -78.5t-109.5 -45t-130 -14.5q-94 0 -165 24.5t-117.5 74.5t-70 126t-23.5 179v664zM724 1272q-22 0 -41.5 8t-33 22t-21.5 33t-8 43q0 23 8 42t21.5 33t32.5 21q20 8 42 8t41 -7.5t32.5 -21.5t21 -33.5t7.5 -41.5q0 -23 -7.5 -42.5t-21 -33.5t-32.5 -22 t-41 -8zM360 1272q-22 0 -41 8t-32.5 22t-21 33t-7.5 43q0 23 7.5 42t21 33t32.5 21.5t41 7.5q23 0 42 -7.5t32.5 -21.5t21.5 -33.5t8 -41.5q0 -23 -8 -42.5t-21.5 -33.5t-32.5 -22t-42 -8z" />
<glyph unicode="&#x3cc;" horiz-adv-x="1100" d="M542 -24q-110 0 -194.5 37t-143 106t-88.5 168t-30 222q0 85 14 159.5t42 136.5t68 110.5t92.5 82.5t117 52t138.5 18q110 0 195 -37.5t143 -107t88 -169t30 -223.5q0 -84 -14 -157.5t-41 -135.5t-67.5 -110.5t-93 -82t-116.5 -51.5t-140 -18zM554 122q46 0 83.5 13 t68 37.5t52.5 59t37 77.5t23 93.5t8 107.5q0 60 -7 114t-22 100t-38 82.5t-54 62t-71 39.5q-40 13 -88 13q-68 0 -119 -28.5t-84.5 -80.5t-50.5 -123t-17 -157q0 -60 7.5 -114t21.5 -99.5t37 -82t54 -61.5t71 -39t88 -14zM465 1214l54 335l160 -17l-91 -331z" />
<glyph unicode="&#x3cd;" horiz-adv-x="1080" d="M142 1044h179v-636q0 -74 11.5 -127t37.5 -88t66.5 -52t98.5 -17q40 0 75 10t62.5 33t48.5 59t35 86t21.5 116t7.5 148q0 42 -0.5 81t-2.5 77t-5 75t-6 74.5t-7 77t-8 83.5h178q4 -40 8 -77.5t7.5 -74t6 -73.5t4.5 -75t3 -78t1 -84q0 -110 -14 -197.5t-40 -155 t-64.5 -115.5t-88 -78.5t-109.5 -45t-130 -14.5q-94 0 -165 24.5t-117.5 74.5t-70 126t-23.5 179v664zM492 1214l54 335l160 -17l-91 -331z" />
<glyph unicode="&#x3ce;" horiz-adv-x="1392" d="M691 148q-16 -37 -39.5 -68.5t-55 -54.5t-70.5 -36.5t-87 -13.5q-81 0 -145 32t-108 97.5t-67 166.5t-23 239q0 77 8 147.5t24 136t38 127t49 122.5h176q-24 -60 -43.5 -123t-34 -128.5t-22 -133.5t-7.5 -138q0 -100 12 -175t34.5 -125.5t55 -76t74.5 -25.5q28 0 50 10 t39 29t28.5 46t19 62t11.5 76t4 89v296h169v-292q0 -47 3.5 -88.5t12 -76.5t21 -63t29.5 -47.5t39 -30t50 -10.5q42 0 74 24t54 73t34 123q12 72 12 172q0 70 -8 140t-22.5 137t-34 131t-43.5 125h176q18 -40 34 -80.5t29 -81.5t23.5 -83t18 -87t11.5 -93t4 -99 q0 -138 -25 -240.5t-70 -169.5t-110 -100.5t-146 -33.5q-48 0 -87.5 11.5t-71.5 34t-56 55t-38 72.5h-3zM605 1214l54 335l160 -17l-91 -331z" />
<glyph unicode="&#x3d0;" horiz-adv-x="1070" d="M703 896q66 -8 118.5 -37t88.5 -79t56 -121t20 -163q0 -82 -17 -151t-48 -127t-74.5 -102.5t-96.5 -75t-114.5 -46.5t-127.5 -16q-65 0 -119.5 16t-97.5 51.5t-76 92t-55 137t-33 187t-11 242.5t16 251t46.5 209t74 165.5t99.5 120t122 73.5t142 25q80 0 138 -21 t96.5 -60t57 -94.5t18.5 -123.5q0 -42 -8 -79.5t-23 -70.5t-35 -63t-45 -55t-53.5 -46.5t-58.5 -38.5zM295 842q86 26 153.5 54t117.5 57t85 60t57 65.5t31 72t9 78.5q0 42 -8.5 74.5t-27 54.5t-47.5 33t-69 11t-77 -16t-69 -47t-58 -78t-46 -109.5t-33 -140t-18 -169.5z M295 690q0 -90 4.5 -167t15.5 -140t28 -111.5t42 -81t59.5 -49.5t79.5 -17q38 0 73 11t65.5 31.5t55.5 51t43.5 69.5t28.5 86t10 101q0 68 -12.5 121.5t-39 91t-68 56.5t-100.5 19q-30 0 -64.5 -5t-71 -15t-74.5 -23t-75 -29z" />
<glyph unicode="&#x3d1;" horiz-adv-x="1090" d="M776 1044q-6 61 -16 112t-23 91.5t-29 71.5t-36 51t-44 30t-52 10q-34 0 -60 -11t-44 -32t-27 -51t-9 -68q0 -50 17.5 -87.5t51 -63.5t82 -39.5t111.5 -13.5h78zM964 902q0 -14 0.5 -29.5t1 -32t0.5 -34.5v-34q0 -149 -14.5 -266t-41 -205.5t-65.5 -150.5t-89 -100.5 t-109 -56t-129 -17.5q-62 0 -115 15t-98 46.5t-80 80t-59 114.5t-37 151t-13 190q0 40 1 75.5t2 69t2 64.5t3 62.5t5 63.5t6 68h178q-2 -34 -4.5 -64.5t-4.5 -60l-4 -59t-3 -60t-1.5 -64.5t-0.5 -71q0 -84 7.5 -151.5t21.5 -120.5t35 -91t48 -62.5t59 -36t70 -11.5 q40 0 74 13.5t62 44t50 79.5t36 120.5t22 166t8 216.5q0 16 -0.5 30.5t-0.5 27t-0.5 23.5t-0.5 21v19t-1 17h-93q-42 0 -82.5 5.5t-78.5 16t-72.5 26.5t-64 37t-53 48t-40.5 59t-26 69.5t-9 80.5q0 47 10 88.5t30 76.5t48.5 62t64 46t77.5 29t90 10q54 0 100.5 -15t84 -43 t68 -71t53 -100t38.5 -128t24 -155h118v-142h-108z" />
<glyph unicode="&#x3d5;" horiz-adv-x="1284" d="M556 -425v402q-75 4 -139 22.5t-116 50.5t-92.5 77t-67.5 102.5t-41 126t-14 147.5q0 70 9.5 131.5t26.5 115.5t40.5 101t51.5 89t59.5 78t65.5 67l125 -95q-42 -38 -77.5 -85.5t-62.5 -105.5t-42.5 -126.5t-15.5 -148.5q0 -57 8 -108t23 -94.5t39 -78.5t56 -61t73 -42 t91 -20v501q0 112 15 195.5t48 139t87 83t132 27.5q58 0 107.5 -17t89.5 -49.5t70.5 -79t51.5 -105t31 -128t10 -146.5q0 -80 -14 -151t-42 -131.5t-68 -110t-92 -85t-116 -57.5t-137 -27v-404h-173zM729 120q73 6 127 39t90 86.5t54 124t18 150.5q0 92 -13 166t-37 126 t-60 80.5t-80 28.5q-32 0 -52 -19.5t-30 -57.5t-13.5 -96t-3.5 -136v-492z" />
<glyph unicode="&#x400;" horiz-adv-x="1005" d="M166 0v1430h711v-150h-525v-462h458v-148h-458v-519h533v-151h-719zM212 1697l80 137l328 -196l-60 -101z" />
<glyph unicode="&#x401;" horiz-adv-x="1005" d="M166 0v1430h711v-150h-525v-462h458v-148h-458v-519h533v-151h-719zM721 1549q-21 0 -39.5 8t-32 21.5t-21 32.5t-7.5 41t7.5 41t21 32.5t32 21.5t39.5 8q22 0 40.5 -8t32 -21.5t21 -32.5t7.5 -41t-7.5 -41t-21 -32.5t-32 -21.5t-40.5 -8zM321 1549q-21 0 -39.5 8 t-31.5 21.5t-21 32.5t-8 41t8 41t21 32.5t32 21.5t39 8q22 0 41 -8t32 -21.5t21 -32.5t8 -41t-8 -41t-21 -32.5t-32 -21.5t-41 -8z" />
<glyph unicode="&#x402;" horiz-adv-x="1259" d="M697 -3v150h49q60 0 108 18t81 52t51 83t18 110q0 41 -9 76.5t-25 65.5t-41 53t-57.5 39t-73.5 24q-42 9 -90 9h-193v-677h-185v1275h-308v155h826v-155h-333v-449h215q74 0 137.5 -12t115 -36t91.5 -58t67 -79t41 -99t14 -116q0 -68 -15 -126.5t-44 -106.5t-69 -84.5 t-89.5 -61.5t-107 -37.5t-119.5 -12.5h-55z" />
<glyph unicode="&#x403;" horiz-adv-x="840" d="M166 0v1430h650v-154h-464v-1276h-186zM478 1538l-60 100l328 197l80 -137z" />
<glyph unicode="&#x404;" horiz-adv-x="1074" d="M1026 63q-37 -19 -76.5 -34t-81.5 -26t-86.5 -16.5t-88.5 -5.5q-138 0 -248.5 46.5t-187.5 138t-117 225.5q-41 133 -41 305q0 115 18.5 216t54.5 185t87.5 149.5t118 110.5t146.5 68t172 23q45 0 87.5 -4.5t83.5 -14t80.5 -24t77.5 -34.5l-57 -142q-32 16 -64.5 28 t-66 20t-69.5 12.5t-72 4.5q-58 0 -109 -16t-93 -45t-75 -71.5t-57 -95t-39.5 -115.5t-21.5 -133h595v-148h-599q4 -124 32.5 -223t82.5 -168t131 -105t177 -36q34 0 67 5t66 13.5t64 21t63 28.5z" />
<glyph unicode="&#x405;" horiz-adv-x="928" d="M118 180q32 -12 65 -21t67.5 -15t69.5 -9t71 -3q65 0 114 17.5t81 49t48.5 75.5t16.5 98q0 36 -8.5 65.5t-23.5 55t-37 48t-51 43.5t-64 42.5t-77 44.5q-48 27 -88 54t-72 55.5t-56.5 59.5t-41 66.5t-24.5 76.5t-8 88q0 58 14 109t40.5 93.5t64 76t85 56.5t103 35.5 t118.5 12.5q30 0 63 -3t64.5 -8t61.5 -12t55 -16l-30 -150q-26 9 -52.5 16t-54.5 12t-56 7t-55 2q-56 0 -98.5 -17t-70.5 -45.5t-42 -66.5q-13 -39 -13 -81q0 -36 7.5 -65t22.5 -54t37 -47t49 -43t60 -41t70 -42q49 -28 91 -55.5t76 -56.5t60 -60.5t44 -67t27 -76t9 -88.5 q0 -67 -15 -124.5t-44 -103.5t-70 -82t-93 -60t-115 -37t-134 -13q-24 0 -48.5 1.5t-48.5 4t-48 6t-48 8.5t-47.5 11t-47.5 13z" />
<glyph unicode="&#x406;" horiz-adv-x="519" d="M166 0v1430h186v-1430h-186z" />
<glyph unicode="&#x407;" horiz-adv-x="519" d="M166 0v1430h186v-1430h-186zM446 1549q-22 0 -40.5 8t-32 21.5t-21.5 32.5t-8 41t8 40.5t21.5 32.5t32 22t40.5 8t40 -8t31.5 -22t20.5 -33q8 -18 8 -40t-7.5 -41t-21 -32.5t-31.5 -21.5t-40 -8zM74 1549q-21 0 -39.5 8t-31.5 21.5t-21 32.5t-8 41t8 40.5t21 32.5t32 22 t39 8q22 0 41 -8t32 -22t21 -33q8 -18 8 -40t-8 -41t-21 -32.5t-32 -21.5t-41 -8z" />
<glyph unicode="&#x408;" horiz-adv-x="630" d="M38 142h92q28 0 50 5t38.5 17t28 31.5t18.5 47.5t11 65.5t4 85.5v1036h185v-1022q0 -64 -5.5 -121t-18 -104t-34 -84t-54 -63t-77 -39.5t-103.5 -13.5q-15 0 -32.5 0.5t-35.5 2.5t-35.5 4.5t-31.5 6.5v145z" />
<glyph unicode="&#x409;" horiz-adv-x="1764" d="M850 0v1276h-325q-20 -214 -40.5 -380.5t-42.5 -296t-47 -226.5t-54 -165t-63.5 -112t-76 -68t-90.5 -33t-111 -7v176q38 0 65 6.5t52 26t47 57.5t42 101t39 156.5t38 223t38 299.5t41 396h673v-548h180q72 0 135.5 -11t117.5 -34t97 -58t74 -82t47 -107q16 -62 16 -134 t-15.5 -134t-45 -113t-71.5 -90t-96 -65.5t-118 -40t-136 -13.5h-370zM1242 150q58 0 106 18.5t84 55t55 90.5t19 122q0 70 -19 125t-57 93t-96 58t-134 20h-165v-582h207z" />
<glyph unicode="&#x40a;" horiz-adv-x="1801" d="M887 0v666h-535v-666h-186v1430h186v-606h535v606h185v-548h180q72 0 135.5 -11t118 -34t97.5 -58t73.5 -82t46.5 -108t16 -133t-15.5 -134.5t-44.5 -113t-71.5 -89.5t-96 -65.5t-117.5 -40t-136 -13.5h-371zM1279 150q58 0 106.5 18.5t84 55t55 90.5t19.5 122 q0 70 -19 125t-57 93t-96 58t-134 20h-166v-582h207z" />
<glyph unicode="&#x40b;" horiz-adv-x="1289" d="M1008 0v367q0 64 -8 112.5t-25 82.5t-41.5 55.5t-56.5 34t-71 17t-89 4.5h-202v-673h-185v1275h-308v155h826v-155h-333v-449h219q74 0 136 -8t113 -28t90 -53.5t66 -82t41 -115.5t14 -155v-384h-186z" />
<glyph unicode="&#x40c;" horiz-adv-x="1129" d="M872 0l-417 668h-103v-668h-186v1430h186v-610h103q54 70 110 147t110.5 156t104.5 157t94 150h208q-58 -90 -114 -175.5t-114 -170t-118 -166.5t-120 -158l475 -760h-219zM565 1538l-60 100l328 197l80 -137z" />
<glyph unicode="&#x40d;" horiz-adv-x="1312" d="M960 0v870l10 249l-126 -236l-513 -883h-165v1430h186v-870l-10 -250l126 236l512 884h166v-1430h-186zM378 1697l80 137l328 -196l-60 -101z" />
<glyph unicode="&#x40e;" horiz-adv-x="1077" d="M156 144h110q28 0 50 3t40.5 11.5t35 24t31.5 38.5t31 56t34 78q-66 131 -128.5 264t-122 268t-115.5 271t-109 272h205q24 -68 50.5 -137t54 -138t56.5 -137t58.5 -135t59.5 -133t61 -130l25 -67h3l15 52q27 74 50.5 138.5t47 133t47 138t46 139.5t44 139t41.5 137h194 q-41 -128 -84.5 -256.5t-90 -257t-95.5 -256.5t-103 -258q-36 -90 -67 -156t-59.5 -112t-57.5 -76t-61.5 -46.5t-70.5 -23.5q-38 -6 -88 -6q-16 0 -34 1t-36 3t-35 5t-33 7v146zM876 1837q2 -39 -5 -78t-23 -74.5t-41.5 -66t-62 -53t-82.5 -35.5q-48 -13 -106 -13 q-59 0 -105.5 13.5t-81.5 36t-59.5 53.5t-40 66.5t-21.5 74t-4 76.5h162q-2 -45 7.5 -81t29 -61t49.5 -38t70 -13q36 0 65 13t49 37t30 60t8 83h162z" />
<glyph unicode="&#x40f;" horiz-adv-x="1265" d="M551 -354v354h-385v1430h186v-1274h562v1274h185v-1430h-385v-354h-163z" />
<glyph unicode="&#x410;" horiz-adv-x="1227" d="M974 0q-12 46 -24 93t-24.5 95l-25 96t-26.5 94h-535q-14 -47 -27 -94.5t-25.5 -95.5t-24.5 -95.5t-24 -92.5h-190q52 190 106 374.5t112 363t118 351.5t124 341h210q68 -180 131 -359.5t120.5 -359t110 -357.5t99.5 -354h-205zM836 527q-20 68 -42.5 139.5t-45.5 143.5 t-47 144t-48 143q-6 18 -12 37t-12.5 38.5t-11.5 38.5t-11 35h-2q-6 -17 -12 -35.5t-12 -38t-12 -38t-12 -36.5q-24 -70 -47 -141.5t-45.5 -144t-44 -144.5t-42.5 -141h459z" />
<glyph unicode="&#x411;" horiz-adv-x="1086" d="M166 0v1430h752v-152h-568v-441h189q70 0 130.5 -10.5t112 -31.5t92 -54t69.5 -77.5t44 -102t15 -127.5t-16 -131t-45 -109t-70 -84t-91.5 -61t-109 -37t-124.5 -12h-380zM562 149q54 0 98.5 17.5t77.5 52t50.5 84.5t17.5 114q0 66 -17 116.5t-52 85.5t-88 53.5 t-124 18.5h-175v-542h212z" />
<glyph unicode="&#x412;" horiz-adv-x="1086" d="M166 0v1430h346q68 0 124.5 -11t102 -32t79.5 -51t57.5 -70t35 -88t11.5 -102q0 -56 -12 -105t-33.5 -88t-53 -69t-71.5 -48q54 -12 100 -42t79 -75t52 -103t19 -126q0 -70 -16 -128t-45 -105t-71 -82t-93 -58t-111 -35t-127 -12h-373zM526 812q57 0 96.5 18t63.5 50 t35 76t11 95q0 35 -6 65.5t-18 56t-30.5 46.5t-44 35t-59.5 22t-76 8h-148v-472h176zM555 148q37 0 70 8t61 22t50.5 36t38 50t23.5 63t8 77q0 61 -16 110.5t-50 83.5t-87.5 53t-127.5 19h-175v-522h205z" />
<glyph unicode="&#x413;" horiz-adv-x="840" d="M166 0v1430h650v-154h-464v-1276h-186z" />
<glyph unicode="&#x414;" horiz-adv-x="1329" d="M928 1276h-382q-14 -140 -27 -254t-25.5 -209t-25 -173t-25.5 -141.5t-27.5 -115t-29.5 -92.5t-31.5 -74t-36.5 -63h610v1122zM1134 -354v354h-970v-354h-164v508h118q23 32 42.5 66.5t36.5 77t33 97t31 124t29 158t28 199.5t28 247.5t30 306.5h737v-1276h184v-508h-163z " />
<glyph unicode="&#x415;" horiz-adv-x="1005" d="M166 0v1430h711v-150h-525v-462h458v-148h-458v-519h533v-151h-719z" />
<glyph unicode="&#x416;" horiz-adv-x="1726" d="M1460 0l-402 668h-102v-668h-186v668h-102l-405 -668h-216l463 756q-57 76 -114.5 158t-112 166t-110 173t-107.5 177h208q42 -72 89.5 -150t98.5 -157t103 -155q53 -78 103 -148h102v610h186v-610h102q52 70 104.5 147t103 156t98.5 157t88 150h208q-68 -112 -115 -188 t-101.5 -159t-112 -165t-113.5 -158l461 -760h-219z" />
<glyph unicode="&#x417;" horiz-adv-x="974" d="M94 171q31 -10 64 -17.5t66.5 -12.5t67.5 -7t66 -2q84 0 145 18.5t101 54t59 85t19 111.5q0 51 -13.5 91t-38 70t-56.5 50.5t-70.5 33t-80 18t-84.5 5.5h-111v147h104q50 0 93 9t78 26.5t62 41t45.5 53t28 63t9.5 69.5q0 50 -15 91.5t-45 71.5t-76 47q-46 16 -106 16 q-36 0 -72 -4t-71 -12t-69 -20t-66 -28l-36 136q37 18 79 32t87.5 24t93.5 16t94 6q64 0 119 -12t99 -33t78 -52t56 -70.5t33.5 -86t11.5 -100.5q0 -62 -17.5 -116t-50.5 -99t-80 -77t-103 -50v-4q43 -6 81 -20t70.5 -36.5t58.5 -52t44 -66.5t27 -80t9 -91q0 -66 -15 -123.5 t-44 -105t-73 -84.5t-101 -62.5t-127.5 -38.5t-153.5 -13q-38 0 -78.5 3.5t-80 9.5t-76.5 16q-37 8 -68 20z" />
<glyph unicode="&#x418;" horiz-adv-x="1312" d="M960 0v870l10 249l-126 -236l-513 -883h-165v1430h186v-870l-10 -250l126 236l512 884h166v-1430h-186z" />
<glyph unicode="&#x419;" horiz-adv-x="1312" d="M960 0v870l10 249l-126 -236l-513 -883h-165v1430h186v-870l-10 -250l126 236l512 884h166v-1430h-186zM972 1837q2 -39 -5 -78t-23 -74.5t-41.5 -66t-62 -53t-82.5 -35.5q-48 -13 -106 -13q-59 0 -105.5 13.5t-81.5 36t-59.5 53.5t-40 66.5t-21.5 74t-4 76.5h162 q-2 -45 7.5 -81t29 -61t49.5 -38t70 -13q36 0 65 13t49 37t30 60t8 83h162z" />
<glyph unicode="&#x41a;" horiz-adv-x="1129" d="M872 0l-417 668h-103v-668h-186v1430h186v-610h103q54 70 110 147t110.5 156t104.5 157t94 150h208q-58 -90 -114 -175.5t-114 -170t-118 -166.5t-120 -158l475 -760h-219z" />
<glyph unicode="&#x41b;" horiz-adv-x="1265" d="M886 0v1276h-361q-20 -214 -40 -380.5t-42 -296t-47 -226.5t-54.5 -165t-63.5 -112t-76 -68t-91 -33t-111 -7v176q38 0 66 6.5t52 26t46.5 57.5t42.5 101t39 156.5t37.5 223t37.5 299.5t41 396h710v-1430h-186z" />
<glyph unicode="&#x41c;" horiz-adv-x="1704" d="M1368 0q-2 105 -4 209.5t-6 207t-10 204t-13 201.5t-16 199t-21 196h-2l-362 -1217h-182l-362 1217h-2q-8 -96 -17 -194.5t-15.5 -198.5t-12 -202.5t-9.5 -206t-7 -207.5t-3 -208h-175q2 116 5.5 234t9 237.5t13.5 239.5t18.5 240t23.5 239.5t28 239.5h269l338 -1143h4 l337 1143h267q15 -120 27 -240t22 -238.5t17.5 -237t13.5 -237t10 -237.5l4 -240h-188z" />
<glyph unicode="&#x41d;" horiz-adv-x="1276" d="M925 0v665h-573v-665h-186v1430h186v-606h573v606h185v-1430h-185z" />
<glyph unicode="&#x41e;" horiz-adv-x="1405" d="M694 -24q-100 0 -182 23t-148 67t-116 108t-82.5 145t-49 178t-16.5 209q0 111 17.5 209.5t52 181.5t86.5 149t119 112t151 71t184 25q98 0 180 -24t148 -68.5t116 -108t84 -144.5t51 -177t17 -206q0 -112 -18 -211t-52 -183t-85 -150t-119 -111.5t-153 -70t-185 -24.5z M710 130q73 0 131 22t102 60.5t75.5 92t51 117t28.5 135.5t9 148q0 86 -9.5 163.5t-31 143.5t-54 119t-78.5 90t-106 57.5t-134 20.5q-72 0 -130 -21.5t-102 -60t-75 -91.5t-51 -116.5t-29 -135.5t-9 -146q0 -88 10 -166t31 -145t54 -120t79 -90t105 -57t133 -20z" />
<glyph unicode="&#x41f;" horiz-adv-x="1276" d="M925 0v1276h-573v-1276h-186v1430h944v-1430h-185z" />
<glyph unicode="&#x420;" horiz-adv-x="1059" d="M166 0v1430h346q46 0 88.5 -4t80.5 -14q68 -16 122.5 -51.5t92.5 -87t58 -118t20 -145.5q0 -108 -31 -193t-90 -145t-144 -91.5t-195 -31.5h-162v-549h-186zM526 698q62 0 109 21.5t78.5 61t47.5 94.5t16 121q0 50 -10.5 95t-31.5 80t-51 60t-68 35q-14 4 -28 7t-30 5 t-31 2.5t-29 0.5h-146v-583h174z" />
<glyph unicode="&#x421;" horiz-adv-x="1073" d="M1028 63q-36 -18 -76 -33.5t-83 -26t-87 -16.5t-89 -6q-138 0 -248.5 46.5t-187 137.5t-117.5 225q-41 132 -41 306q0 116 18.5 217t54.5 184.5t87.5 149t118 110.5t146 68t171.5 23q45 0 87 -4.5t83 -14t80 -24.5t77 -34l-60 -146q-31 16 -63 27.5t-65 19.5t-67.5 12 t-71.5 4q-64 0 -118.5 -19t-98.5 -54t-77.5 -86t-56 -115t-34.5 -140t-12 -160q0 -140 29 -247t83 -179t132 -108.5t178 -36.5q36 0 71 5.5t68 14.5t63 21t58 26l48 -147v0z" />
<glyph unicode="&#x422;" horiz-adv-x="988" d="M401 0v1276h-379v154h945v-154h-379v-1276h-187z" />
<glyph unicode="&#x423;" horiz-adv-x="1077" d="M156 144h110q28 0 50 3t40.5 11.5t35 24t31.5 38.5t31 56t34 78q-66 131 -128.5 264t-122 268t-115.5 271t-109 272h205q24 -68 50.5 -137t54 -138t56.5 -137t58.5 -135t59.5 -133t61 -130l25 -67h3l15 52q27 74 50.5 138.5t47 133t47 138t46 139.5t44 139t41.5 137h194 q-41 -128 -84.5 -256.5t-90 -257t-95.5 -256.5t-103 -258q-36 -90 -67 -156t-59.5 -112t-57.5 -76t-61.5 -46.5t-70.5 -23.5q-38 -6 -88 -6q-16 0 -34 1t-36 3t-35 5t-33 7v146z" />
<glyph unicode="&#x424;" horiz-adv-x="1468" d="M642 0v156q-99 4 -180.5 26t-144.5 59t-109 89t-76 116t-44 141t-14 165q0 135 36 244.5t107.5 189.5t178 126t246.5 54v148h184v-148q99 -4 180.5 -26t144.5 -59t109 -88t76 -116t44 -141t14 -164q0 -135 -36 -245t-108 -190.5t-178.5 -126.5t-245.5 -54v-156h-184z M644 1214q-70 -3 -125.5 -20.5t-97.5 -47.5t-71.5 -70t-47.5 -88t-26 -103t-8 -117q0 -69 8.5 -127.5t27 -108t48.5 -89t72 -68t97 -45.5t123 -21v905zM823 309q70 3 126 20.5t98 47t71.5 69.5t47.5 89t26 104t8 117q0 104 -20 185t-64.5 140t-117 93t-175.5 40v-905z" />
<glyph unicode="&#x425;" horiz-adv-x="1142" d="M896 0l-330 604l-327 -604h-217l430 742l-390 688h220l296 -543l292 543h211l-390 -680l429 -750h-224z" />
<glyph unicode="&#x426;" horiz-adv-x="1315" d="M1120 -354v354h-954v1430h186v-1274h562v1274h185v-1274h184v-510h-163z" />
<glyph unicode="&#x427;" horiz-adv-x="1132" d="M780 0v556q-25 -3 -51.5 -5.5t-55.5 -4.5t-58 -3.5t-57 -1.5q-76 0 -138 9t-113 29.5t-90 53.5t-66.5 82.5t-41 117t-13.5 153.5v444h185v-426q0 -64 8.5 -112.5t25.5 -82t41.5 -55.5t57 -34t71.5 -16.5t91 -4.5q28 0 55 1t53 2.5t50 4.5t46 7v716h186v-1430h-186z" />
<glyph unicode="&#x428;" horiz-adv-x="1847" d="M166 0v1430h185v-1274h481v1274h184v-1274h480v1274h184v-1430h-1514z" />
<glyph unicode="&#x429;" horiz-adv-x="1896" d="M1702 -354v354h-1536v1430h185v-1274h481v1274h184v-1274h480v1274h184v-1274h184v-510h-162z" />
<glyph unicode="&#x42a;" horiz-adv-x="1277" d="M351 0v1276h-323v154h508v-548h192q72 0 135 -11t117.5 -34t98 -58t73.5 -82t46 -107q16 -62 16 -134t-15 -134t-44.5 -113t-72 -90t-96.5 -65.5t-117.5 -40t-136.5 -13.5h-381zM754 150q58 0 107 18.5t84 55t54.5 90.5t19.5 122q0 70 -19 125t-57.5 93t-96.5 58t-134 20 h-176v-582h218z" />
<glyph unicode="&#x42b;" horiz-adv-x="1572" d="M166 0v1430h186v-548h180q72 0 135 -11t117 -34t97 -58t74 -82t47 -107q16 -62 16 -134t-15.5 -134t-45 -113t-71.5 -90t-96 -65.5t-118 -39.5q-64 -14 -136 -14h-370zM558 150q58 0 107 18.5t84 55t54.5 90.5t19.5 122q0 70 -19 125t-57 93t-95.5 58t-133.5 20h-166 v-582h206zM1220 0v1430h186v-1430h-186z" />
<glyph unicode="&#x42c;" horiz-adv-x="1103" d="M166 0v1430h186v-548h202q72 0 135 -11t117.5 -34t98 -58t73.5 -82t46 -107q16 -62 16 -134t-15 -134t-44.5 -113t-72 -90t-96.5 -65.5t-118 -40t-136 -13.5h-392zM580 150q58 0 106.5 19t84 55.5t55 90t19.5 121.5q0 70 -19 125t-57.5 93t-96.5 58t-134 20h-186v-582 h228z" />
<glyph unicode="&#x42d;" horiz-adv-x="1068" d="M172 670v148h596q-9 114 -40.5 202.5t-85 149t-126 92.5t-162.5 32q-32 0 -63 -4.5t-63 -13t-63 -20.5q-31 -10 -63 -26l-51 137q38 20 76.5 34.5t80.5 25.5t85.5 16t87.5 5q136 0 245 -46.5t185.5 -138t117.5 -225.5t41 -305q0 -115 -19 -216t-54.5 -185t-87 -149 t-117.5 -110t-145 -68.5t-168 -23.5q-45 0 -87 4.5t-83 14.5t-82 26t-82 38l49 147q38 -20 73 -33.5t70 -22.5t70 -13t73 -4q60 0 111 17.5t94 50.5t77 80t57 106.5t37 129.5t16 148h-600z" />
<glyph unicode="&#x42e;" horiz-adv-x="1845" d="M166 0v1430h186v-608h238q8 88 28.5 169t54 151t81.5 127.5t110 99t139 63.5t168 22q94 0 174 -24t143.5 -68t112 -108t81 -145t48.5 -177t16 -206q0 -113 -17 -212t-50 -182.5t-82 -149.5t-115 -112t-148 -70t-178 -24q-94 0 -172 22t-141 64.5t-110 103t-79 137.5 t-49 167t-19 194h-234v-664h-186zM1170 130q69 0 124.5 21t97.5 60t72 92t49 117t27.5 135.5t8.5 149.5q0 88 -9.5 164.5t-29.5 143t-51.5 119t-75 90.5t-101 57.5t-127.5 19.5q-68 0 -123.5 -21t-97.5 -59.5t-72 -91.5t-48.5 -116t-27.5 -135q-8 -70 -8 -148q0 -90 9 -168 t29 -144t51 -119t75 -90t101 -57t127 -20z" />
<glyph unicode="&#x42f;" horiz-adv-x="1109" d="M757 0v628h-190l-297 -628h-211l319 658q-38 10 -71 27t-62 40t-52 53t-39 67t-24 79t-8 90q0 62 13 116.5t40 101t67 83t93 62t119 39.5t144 14h344v-1430h-185zM757 1281h-175q-46 0 -84 -9.5t-68 -26.5t-51 -40t-34 -50.5t-19 -58.5t-6 -64q0 -54 14 -101t45.5 -82 t83 -55t123.5 -20h171v507z" />
<glyph unicode="&#x430;" horiz-adv-x="998" d="M716 0l-14 114q-31 -31 -64.5 -56.5t-70.5 -43.5t-78.5 -28t-89.5 -10q-73 0 -131.5 20t-100 59t-63.5 95t-22 130q0 84 32.5 145.5t91 102t139.5 59.5t181 19h152v82q0 60 -11 105t-36 74.5t-67 44t-103 14.5q-34 0 -68.5 -4t-69.5 -12t-69.5 -19.5t-67.5 -25.5l-34 136 q36 15 77 27t84 21t87 14t88 5q68 0 122 -12.5t94.5 -35t69 -54t46.5 -69.5t26 -82q8 -43 8 -91v-724h-138zM678 480h-161q-63 0 -110 -13t-78 -37t-47 -60t-16 -81q0 -40 11 -72.5t32 -55t52 -35t73 -12.5q36 0 69 10t62 27.5t57 41.5q28 25 56 53v234z" />
<glyph unicode="&#x431;" horiz-adv-x="1078" d="M265 861q18 43 50.5 79t74 62t92 40t104.5 14q94 0 169 -36t127 -103.5t79 -163t27 -214.5q0 -86 -14 -160.5t-40 -137.5t-65 -112t-89.5 -83t-112.5 -52t-134 -18q-66 0 -123 15.5t-104.5 48t-85 83t-63.5 121t-39.5 162.5t-13.5 206q0 104 4.5 190.5t13.5 158t23 130.5 t33.5 107t45.5 86t58 71q27 27 62 50t77.5 41t91.5 32t104 23l211 35q18 4 33 7t28 7t23 7t18 6v-166q-6 -4 -15 -7.5t-20.5 -6.5t-24.5 -7q-14 -4 -30 -6l-212 -35q-49 -8 -87.5 -18.5t-69 -22.5t-55 -28t-42.5 -34q-16 -16 -30 -37t-25 -47t-20 -56.5t-16 -66t-12 -76.5 t-9 -88h3zM548 124q40 0 74.5 12t62.5 35t49.5 57t35.5 77t21.5 96t7.5 113q0 57 -6.5 108.5t-20 95.5t-34 79.5t-48 60.5t-62 38.5t-76.5 13.5q-39 0 -73.5 -11.5t-63.5 -33.5t-52 -53.5t-39 -72.5t-24 -91t-8 -106q0 -32 2 -66t7 -69t14 -70t23 -66.5t33 -58t45 -46.5 t59 -31t73 -11z" />
<glyph unicode="&#x432;" horiz-adv-x="1007" d="M148 1044q83 7 164.5 10.5t161.5 3.5q69 0 125 -8.5t99.5 -24.5t75.5 -39t52 -52.5t30 -65.5q10 -34 10 -76q0 -43 -11 -80.5t-32.5 -67t-52 -51t-67.5 -34.5q48 -8 87.5 -28.5t68.5 -53.5t45 -77t16 -94q0 -52 -13 -95.5t-38 -79t-61 -62.5t-83 -46t-103 -28t-122 -9 q-41 0 -84.5 1t-86.5 3t-90 4.5t-91 5.5v1044zM487 602q52 0 89 12t60.5 33.5t34.5 52t11 68.5t-13 67.5t-40 50t-69 30.5q-44 11 -102 11q-17 0 -33.5 -0.5t-32.5 -1t-32 -1.5q-18 0 -36 -2v-320h163zM324 480v-355q23 -2 48 -3.5t48.5 -2.5t45.5 -1h49q49 0 89 11t68.5 34 t44 56.5t15.5 77.5t-15 77.5t-45.5 57.5t-77 36t-108.5 12h-162z" />
<glyph unicode="&#x433;" horiz-adv-x="706" d="M148 0v1044h534v-150h-356v-894h-178z" />
<glyph unicode="&#x434;" horiz-adv-x="1123" d="M759 896h-292q-9 -82 -18 -151t-18 -130t-18.5 -113t-20 -97t-22 -82t-24 -69t-26.5 -58t-30 -48h469v748zM943 -336v336h-787v-336h-156v484h102q20 24 36 51.5t31 61t28 75.5t25.5 93t24 114t22.5 138t21.5 164t21.5 199h626v-896h162v-484h-157z" />
<glyph unicode="&#x435;" horiz-adv-x="1016" d="M894 32q-38 -12 -80 -22.5t-86.5 -18t-92 -11.5t-97.5 -4q-115 0 -199.5 34t-140 102t-83 169t-27.5 236q0 126 29 227.5t86 173.5t140 111t193 39q68 0 122.5 -16t97.5 -45t74.5 -70t51.5 -93t30 -113.5t10 -130.5q0 -8 -0.5 -20.5t-1 -27t-1 -28.5t-0.5 -27h-643 q0 -58 6 -108.5t20 -92.5t36.5 -74t55 -54.5t75.5 -34t99 -11.5q44 0 83.5 3.5t76.5 10t72.5 15.5t70.5 19zM742 626q2 70 -11 127t-41 96.5t-69 61t-96 21.5q-43 0 -78 -12.5t-62 -34.5t-47 -51.5t-34 -63.5t-21 -71t-7 -73h466z" />
<glyph unicode="&#x436;" horiz-adv-x="1417" d="M1172 0l-284 473h-90v-473h-178v473h-90l-284 -473h-209l343 562q-28 38 -56 78t-55 80l-54 80t-53 80t-49 77t-55 87h200q62 -108 131 -215.5t141 -210.5h90v426h178v-426h90q72 104 140.5 211t131.5 215h200q-42 -66 -80 -125t-78 -119t-81 -119t-84 -115l344 -566 h-209z" />
<glyph unicode="&#x437;" horiz-adv-x="871" d="M88 152q28 -8 58 -15t60.5 -11t60.5 -6t60 -2q68 0 118.5 12t82.5 36t48 57.5t16 76.5q0 34 -11 61t-32 47t-48.5 33.5t-60 21.5t-67.5 11.5t-73 3.5h-84v132h76q67 0 118.5 12t84.5 35t50 55t17 72q0 34 -13 61t-39 47t-66 30t-93 10q-31 0 -61 -2.5t-60 -8.5t-59 -15 t-56 -21l-25 127q34 14 70.5 24t75 17.5t78.5 10.5q40 4 80 4q86 0 152.5 -18t111 -52.5t67 -82.5t22.5 -107q0 -46 -14.5 -87t-41.5 -74t-63 -56t-78 -34v-2q50 -7 92 -27t73.5 -51.5t49 -74t17.5 -95.5q0 -52 -14 -96.5t-40 -81t-64.5 -64t-88 -46.5t-110 -29t-130.5 -10 q-34 0 -69.5 3t-70.5 8t-68.5 13t-62.5 18z" />
<glyph unicode="&#x438;" horiz-adv-x="1111" d="M784 0v547l10 221l-110 -186l-386 -582h-150v1044h178v-548l-10 -220l111 186l385 582h152v-1044h-180z" />
<glyph unicode="&#x439;" horiz-adv-x="1105" d="M784 0v547l10 221l-110 -186l-386 -582h-150v1044h178v-548l-10 -220l111 186l385 582h152v-1044h-180zM868 1526q1 -43 -5.5 -83.5t-23 -77.5t-42 -68t-61.5 -54t-83 -35t-105 -12t-104 12.5t-81.5 36t-60 54.5t-39.5 68t-21.5 77t-5.5 82h162q-1 -49 8.5 -87t29 -63.5 t49 -39t69.5 -13.5q37 0 65.5 12.5t48.5 38.5t30 64t8 88h162z" />
<glyph unicode="&#x43a;" horiz-adv-x="972" d="M734 0l-314 473h-94v-473h-178v1044h178v-426h94q80 104 153 212t137 214h200q-38 -60 -79 -121.5t-84 -122t-87 -120t-90 -116.5l374 -564h-210z" />
<glyph unicode="&#x43b;" d="M698 0v896h-250q-18 -152 -35.5 -270.5t-36.5 -210t-40.5 -160t-46 -116t-54 -78.5t-64.5 -48t-76.5 -23t-94.5 -4v168q30 0 52 5t42 19t38 41t34 71t31.5 110t31 157t30.5 211t33 276h585v-1044h-179z" />
<glyph unicode="&#x43c;" horiz-adv-x="1432" d="M1146 0q-6 88 -13 175t-15 172.5t-17 168.5q-9 84 -20 166l-21 199h-3l-57 -207l-214 -674h-165l-213 686l-54 195h-2l-21 -198q-6 -50 -17 -152.5t-19 -186.5t-15.5 -171t-13.5 -173h-164q6 85 13 171.5t16 174.5t19 175.5t21 175t24 174.5t26 173h251l181 -588l58 -220 h3l60 220l185 588h249q14 -87 26 -174.5t24 -174.5t21.5 -174.5t18 -175t15.5 -173.5t12 -172h-179z" />
<glyph unicode="&#x43d;" horiz-adv-x="1103" d="M777 0v476h-451v-476h-178v1044h178v-420h451v420h179v-1044h-179z" />
<glyph unicode="&#x43e;" horiz-adv-x="1100" d="M542 -24q-110 0 -194.5 37t-143 106t-88.5 168t-30 222q0 85 14 159.5t42 136.5t68 110.5t92.5 82.5t117 52t138.5 18q110 0 195 -37.5t143 -107t88 -169t30 -223.5q0 -84 -14 -157.5t-41 -135.5t-67.5 -110.5t-93 -82t-116.5 -51.5t-140 -18zM554 122q46 0 83.5 13 t68 37.5t52.5 59t37 77.5t23 93.5t8 107.5q0 60 -7 114t-22 100t-38 82.5t-54 62t-71 39.5q-40 13 -88 13q-68 0 -119 -28.5t-84.5 -80.5t-50.5 -123t-17 -157q0 -60 7.5 -114t21.5 -99.5t37 -82t54 -61.5t71 -39t88 -14z" />
<glyph unicode="&#x43f;" horiz-adv-x="1103" d="M777 0v896h-451v-896h-178v1044h808v-1044h-179z" />
</font>
</defs>
</svg>
