<?xml version="1.0" encoding="utf-8"?>
<!-- Generator: Adobe Illustrator 18.1.1, SVG Export Plug-In . SVG Version: 6.00 Build 0)  -->
<svg version="1.1" id="Calque_1" xmlns="http://www.w3.org/2000/svg" xmlns:xlink="http://www.w3.org/1999/xlink" x="0px" y="0px"
	 viewBox="0 0 2834.6 1417.3" enable-background="new 0 0 2834.6 1417.3" xml:space="preserve">
<g>
	<g>
		<g>
			<g>
				<path fill="#E3051D" d="M2588.7,783.8c0-18.9,15.4-34.3,34.3-34.3c19,0,34.4,15.4,34.4,34.3v0.2v251.1l-0.6,10.9
					c-10.7,34.1-46.9,31-46.9,31c-22.3,0.8-33.3-15-33.3-15l-93.4-167.5c-1-1.6-3.8,0.4-3.9,2v149.5c0,19.4-15.7,35.2-35.1,35.2
					c-19.4,0-35.3-15.8-35.3-35.2V799.9c0-7.4,3.8-13.2,3.8-13.2c3.1-5.7,8.3-18.3,27.9-26.5c18.8-7.8,46.1,1.6,55.9,17.6
					c32.1,52.6,58.8,106.6,89.3,157.9c3.1,0.5,2.9-4.6,2.9-4.6V783.8z"/>
				<path fill="#E3051D" d="M2733.8,778.4c0,14.1-11.5,25.4-25.4,25.4c-14.2,0-25.5-11.5-25.5-25.4c0-13.8,11.2-25.4,25.5-25.4
					C2722.5,753,2733.8,764.5,2733.8,778.4 M2686.6,778.4c0,12,9.6,22,21.8,22c11.9,0,21.7-9.8,21.7-22c0-11.9-9.4-22-21.7-22
					C2696,756.4,2686.6,766.5,2686.6,778.4 M2709.8,764.1c1.8,0,10.2,0,10.2,7.9c0,3.2-1.4,6.1-5.4,7.1v0.1c4,1.1,4.7,3.5,4.9,7.3
					c0.2,4.9,0.2,5.5,0.9,6.7h-3.6c-0.6-0.9-0.7-1.7-0.9-5.4c0-4.6-0.8-6.9-7.5-6.9h-7.3v12.3h-3.6v-29.1H2709.8z M2701.2,777.5h7.3
					c1.9,0,7.9,0,7.9-5.3c0-4.7-5.3-4.7-7.2-4.7h-8V777.5z"/>
			</g>
			<g>
				<g>
					<path fill="#E3051D" d="M703.7,762.1c16.9,6.5,24.9,19.9,36,31.5c19.1,20.1,35.5,40.4,56.3,59c1.3,1.2,5.1,1.2,6.1,0
						c26.3-31.3,47.5-63,79.8-88.4c17.7-13.8,46.4-3.7,51.9,19.7c2.7,11.4-1.2,21.9-7.3,30c-30.8,40.6-60.7,74.1-91.5,112.3
						c-0.9,42.2,0,77.7,0,121.9c0,17.4-20.7,31.1-34.6,30.8c-10,0-22.2-4.4-28.4-15.7c-3-5.2-5.1-11.5-5.3-16.6
						c-1.6-39.9-3.4-79.8-3.3-119.8c-44.3-56.5-103-106.2-105.4-127C655.2,776,672.9,750.3,703.7,762.1"/>
					<path fill="#E3051D" d="M1228,1007.8V793.8c-0.2-54.6-75.2-45.7-72.7-1.2v266.2c0,0,0,22.2,26.7,20.1h118.5
						c0,0,34.1,0.7,36.2-33c0,0-0.3-29.4-28.2-35.5l-76.9-0.3c0,0-4.9-1.2-3.8-6.4"/>
					<path fill="#E3051D" d="M1111.3,1044c-3,29.5-24.5,35.9-37.6,35c-9.4-1.7-27.3-5.1-31.4-26.1c-2.6-13.5-3.2-34-3.6-37
						c-0.1-0.8-87.9-0.3-88-0.3c-15.3,20-30.4,44.2-44.5,57.8c-5.1,4.9-12.7,6.2-18.2,5.8c-13.8-0.8-28.8-8-33.9-22.1
						c-3.2-8.5-6.2-18.4-0.2-27.1c41.3-59.4,78.5-109,121.1-166.8c23.5-31.9,44.5-60.2,68.6-90.9c12.4-15.8,23.2-16.3,34.5-16.6
						c-0.7,0,30.5-0.7,33.2,28.1v259.9 M1023.7,945.9c0.3,0,15.4,0.5,15.4,0c0.5-16.8,0-36.9-0.3-53.2c-12.6,16.6-22.9,31.3-35,47.5
						c-1.1,1.5-1.9,5.1,1.6,5.4C1011.9,946,1020.3,945.3,1023.7,945.9"/>
					<path fill="#E3051D" d="M688.6,919.9c0,88.9-72.1,160.9-161.1,160.9c-88.9,0-161-72-161-160.9c0-89,72.1-161.1,161-161.1
						C616.5,758.8,688.6,831,688.6,919.9 M528.1,833.5c-47.8,0-86.5,38.7-86.5,86.5c0,47.7,38.8,86.4,86.5,86.4
						c47.8,0,86.5-38.7,86.5-86.4C614.5,872.2,575.9,833.5,528.1,833.5"/>
					<path fill="#E3051D" d="M1433.6,899.5c7.1-56.8,45.2-104.9,95.9-126.4c61.1-26.1,134.2-11.5,176.8,41.7
						c9.2,11.5,6.4,26.7-2.1,38.3c-8.9,11.9-23.2,18.1-36,13.2c-21.6-8.4-36.5-27.8-60.5-32.8c-49.5-10.2-96.1,22.7-103.2,70.9
						c-7.1,47.9,20.2,93.8,68.9,103c34.1,6.4,60.9-12,89-31.7c13.3-9.4,35.6-4.7,43.9,12c5,10,8.7,20.8,2.6,31.6
						c-22.9,40.5-69.5,55.1-112.6,59.2c-33.1,3.2-63.2-8.3-91.5-25.5C1452.8,1021.4,1425.7,961.2,1433.6,899.5"/>
					<path fill="#E3051D" d="M1731.1,1043.2v-260c2.6-28.7,34-28.1,33.2-28.1c11.3,0.2,22.1,0.8,34.5,16.6
						c24.2,30.8,45,59,68.6,90.9c42.7,57.7,79.8,107.4,121.1,166.8c6,8.6,2.9,18.5-0.2,27c-5.2,14-20.2,21.2-34,22
						c-5.5,0.4-13.1-1-18.2-5.7c-14.1-13.6-29.2-37.8-44.6-57.8c-0.1,0-87.9-0.6-88,0.2c-0.3,3.1-0.9,23.6-3.5,37
						c-4.1,20.9-22,24.4-31.4,26.1c-1.4,0.3,1.9-0.2,0,0c-13.1,0.9-34.6-5.4-37.6-34.9 M1837,944.9c3.5-0.1,2.8-3.8,1.6-5.3
						c-12.1-16.3-22.5-31-35-47.5c-0.3,16.3-0.8,36.3-0.2,53.1c0,0.6,15,0,15.4,0C1822,944.7,1830.6,945.3,1837,944.9"/>
					<path fill="#E3051D" d="M174.6,787c20.1-16.6,30.3-23.1,62.3-27.3c27.1-3.6,50.9,7.8,54.3,9c42.6,14.3,71.4,63.4,65.7,112
						c-3.4,28.9-20.5,55-41.8,73.8c20.6,45.5,59,75.2,52.9,97.8c-4.2,15.6-8.5,19.6-22.3,25.6c-8.8,3.8-21.5,2.8-28.8-3.4
						c-35.7-30.4-54.6-74.3-84.7-105.7c-7.4-7.7-10.7-4.3-10.7-0.1c0.1,36.8,0.4,64.2-1.6,82.2c-1.1,10.8-11.3,23.2-18.3,26.7
						c-19.2,9.6-45.3-2-48.6-23.6c-0.7-3.9-6-20.6-6.3-96.6c-0.1-37.6,0-45.9,0-105.7C146.8,827.2,158.4,800.3,174.6,787
						 M251.5,900.5c20.5,0,37.1-15.3,37.1-34.2c0-18.9-16.6-34.3-37.1-34.3c-20.5,0-37.1,15.3-37.1,34.3
						C214.4,885.2,231,900.5,251.5,900.5"/>
					<path fill="#E3051D" d="M2588.4,783.8c0-19,15.4-34.5,34.5-34.5c19.1,0,34.5,15.4,34.5,34.5v0.2v252.3l-0.7,11
						c-10.7,34.3-47.1,31.1-47.1,31.1c-22.4,0.8-33.4-15-33.4-15l-93.9-168.2c-1-1.6-3.8,0.4-3.9,2v150.2
						c0,19.5-15.8,35.4-35.3,35.4c-19.5,0-35.4-15.9-35.4-35.4V799.9c0-7.5,3.8-13.2,3.8-13.2c3.1-5.7,8.4-18.4,28.1-26.7
						c18.9-7.9,46.3,1.6,56.1,17.6c32.3,52.8,59.1,107.1,89.7,158.7c3.1,0.5,2.9-4.6,2.9-4.6V783.8z"/>
					<path fill="#E3051D" d="M2188.7,783.8c0-19,15.4-34.5,34.5-34.5c19,0,34.5,15.4,34.5,34.5v0.2v252.3l-0.7,11
						c-10.7,34.3-47.1,31.1-47.1,31.1c-22.5,0.8-33.4-15-33.4-15l-94-168.2c-0.9-1.6-3.8,0.4-3.9,2v150.2
						c0,19.5-15.8,35.4-35.3,35.4c-19.5,0-35.3-15.9-35.3-35.4V799.9c0-7.5,3.7-13.2,3.7-13.2c3.2-5.7,8.4-18.4,28.1-26.7
						c18.9-7.9,46.4,1.6,56.2,17.6c32.2,52.8,59,107.1,89.5,158.7c3.2,0.5,3-4.6,3-4.6V783.8z"/>
					<path fill="#E3051D" d="M2370.4,1045.3c0,20.6-16.8,37.4-37.4,37.4c-20.6,0-37.3-16.8-37.3-37.4v-0.2V786.3
						c0-20.6,16.7-37.3,37.3-37.3c20.6,0,37.3,16.7,37.3,37.3v0.2V1045.3z"/>
				</g>
			</g>
			<g>
				<g>
					<path fill="#E3051D" d="M1117.4,636.5c-8.5,0-17-3.9-22.5-11.3c-9.3-12.4-6.8-30.1,5.7-39.4c74.7-55.9,189-89.3,305.7-89.3h0
						c116.3,0,230.3,33.4,304.9,89.3c12.5,9.3,15,26.9,5.6,39.4c-9.2,12.4-26.9,15-39.3,5.7c-50.4-37.7-148.1-78-271.2-78h0
						c-123.7,0-221.6,40.3-272,78C1129.2,634.7,1123.3,636.5,1117.4,636.5z"/>
					<path fill="#E3051D" d="M1143.1,684.6c-5.5,0-11.1-2.4-14.9-7c-6.7-8.2-5.5-20.3,2.7-27.1c64.6-53.1,167.5-84.7,275.4-84.7
						c107.3,0,210,31.7,274.5,84.7c8.2,6.7,9.4,18.9,2.7,27.1c-6.8,8.2-18.9,9.4-27.1,2.7c-57.9-47.6-151.4-76-250.2-76
						c-97.7,0-193.9,29.1-250.9,76C1151.8,683.1,1147.4,684.6,1143.1,684.6z"/>
				</g>
				<g>
					<g>
						<path fill="#E3051D" d="M992.4,279.7c-11.4,0-22.8,3.1-32.7,9c-14.8,8.8-25.4,22.8-29.7,39.5c-4.2,16.7-1.8,34,7,48.8
							c11.4,19.3,32.6,31.4,55.2,31.6l0.4,0c11.5,0,22.8-3.1,32.7-9c14.8-8.8,25.3-22.8,29.6-39.4c4.3-16.7,1.8-34-7-48.8
							C1036.6,291.9,1015.2,279.7,992.4,279.7z"/>
					</g>
					<g>
						<path fill="#E3051D" d="M1405.9,329.3c-35.6,0-64.6,28.9-64.6,64.5c0,35.6,29,64.5,64.6,64.5c35.6,0,64.5-28.9,64.5-64.5
							C1470.3,358.3,1441.4,329.3,1405.9,329.3z"/>
						<path fill="#E3051D" d="M1405.9,167.9c-35.6,0-64.6,28.9-64.6,64.5c0,35.6,29,64.5,64.6,64.5c35.6,0,64.5-28.9,64.5-64.5
							C1470.3,196.8,1441.4,167.9,1405.9,167.9z"/>
						<path fill="#E3051D" d="M1234.3,351.8c-5.7,0-11.5,0.8-17.1,2.3c-34.3,9.4-54.6,44.9-45.2,79.2c7.6,27.7,33,47.2,61.9,47.4
							l1.5,0c5.4-0.1,10.7-0.9,15.9-2.3c16.6-4.5,30.4-15.3,39-30.3c8.5-15,10.7-32.3,6.2-48.9
							C1288.8,371.3,1263.3,351.8,1234.3,351.8z"/>
						<path fill="#E3051D" d="M1074.6,418.7c-11.5,0-22.8,3.1-32.7,9c-14.8,8.7-25.4,22.8-29.7,39.5c-4.2,16.7-1.8,34.1,6.9,48.9
							c11.4,19.3,32.6,31.4,55.3,31.6l0.4,0c11.5,0,22.8-3.1,32.8-9c14.8-8.8,25.3-22.8,29.6-39.5c4.3-16.7,1.8-34-6.9-48.8
							C1118.7,430.9,1097.4,418.7,1074.6,418.7z"/>
						<path fill="#E3051D" d="M1594.4,354.1c-5.6-1.5-11.3-2.3-17-2.3c-29,0-54.5,19.5-62.2,47.5c-9.4,34.3,10.9,69.8,45.2,79.2
							c5.6,1.5,11.3,2.3,17.1,2.3c28.9,0,54.5-19.5,62.2-47.5C1649,399,1628.7,363.5,1594.4,354.1z"/>
						<path fill="#E3051D" d="M1637,198.3c-5.6-1.5-11.2-2.3-17-2.3c-29,0-54.5,19.5-62.2,47.5c-9.4,34.3,10.9,69.8,45.2,79.2
							c5.6,1.5,11.3,2.3,17,2.3c28.9,0,54.5-19.5,62.2-47.5C1691.6,243.2,1671.3,207.7,1637,198.3z"/>
						<path fill="#E3051D" d="M1769.7,427.7c-9.9-5.9-21.3-9-32.7-9c-22.7,0-44,12.1-55.6,31.7c-8.8,14.8-11.2,32.2-7,48.8
							c4.2,16.7,14.8,30.7,29.6,39.5c10,5.9,21.3,9,32.8,9c22.7,0,44-12.1,55.5-31.6c8.8-14.8,11.2-32.2,6.9-48.9
							C1795.1,450.5,1784.5,436.5,1769.7,427.7z"/>
						<path fill="#E3051D" d="M1881.6,328.2c-4.3-16.7-14.8-30.7-29.6-39.5c-9.9-5.9-21.2-9-32.7-9c-22.7,0-44,12.1-55.5,31.7
							c-8.8,14.8-11.3,32.2-7,48.9c4.3,16.7,14.8,30.7,29.6,39.4c9.9,5.9,21.3,9,32.8,9c22.7,0,44-12.1,55.6-31.7
							C1883.4,362.2,1885.9,344.9,1881.6,328.2z"/>
						<path fill="#E3051D" d="M1191.7,325c5.7,0,11.5-0.8,17-2.3c34.3-9.4,54.5-44.9,45.2-79.2c-7.6-28-33.2-47.5-62.2-47.5
							c-5.7,0-11.5,0.8-17,2.3c-34.3,9.4-54.6,44.9-45.2,79.2c7.6,27.7,33.1,47.2,61.9,47.4L1191.7,325z"/>
					</g>
				</g>
			</g>
		</g>
	</g>
</g>
</svg>
