<svg width="121" height="76" viewBox="0 0 121 76" fill="none" xmlns="http://www.w3.org/2000/svg">
<path d="M77.9606 0L45.1621 37.2889L33.7622 13.1141L19.7111 28.7879L14.6739 20.0212L0.622803 35.6949L16.0891 62.1779L32.9669 42.8676L48.1131 75.3548L77.9606 0Z" fill="#F8A815"/>
<path d="M67.3055 52.9144H56.5915L55.0646 56.7069H47.22L58.8027 30.178H65.5681L76.5193 56.7069H68.8323L67.3055 52.9144ZM64.7257 46.4273L61.9617 39.3104L59.1976 46.4273H64.7257Z" fill="white"/>
<path d="M72.0232 30.178H96.5542L94.2397 37.3072H88.0637V56.707H80.3881V37.3072H72.0229V30.178H72.0232Z" fill="white"/>
<path d="M98.9077 30.178H121V37.3072H112.635V56.707H104.959V37.3072H96.6575L98.9077 30.178Z" fill="white"/>
</svg>
