<svg width="21" height="66" fill="none" xmlns="http://www.w3.org/2000/svg"><path d="M10.557 44h-.107v-.111c0-2.874 1.1-5.63 3.058-7.663 1.959-2.032 4.615-3.173 7.385-3.173H21v.111c0 2.874-1.1 5.63-3.059 7.662C15.983 42.858 13.327 44 10.557 44zm-.107-.111V44h-.096c-2.744 0-5.376-1.141-7.318-3.173C1.095 38.795.003 36.039 0 33.164v-.111h.106c2.744 0 5.375 1.141 7.314 3.173 1.94 2.032 3.03 4.789 3.03 7.663zm.107-10.836h-.107v-.113c0-2.901 1.1-5.684 3.058-7.736C15.467 23.153 18.123 22 20.893 22H21v.113c0 2.901-1.1 5.684-3.059 7.735-1.958 2.052-4.614 3.205-7.384 3.205zm-.107-.113v.113h-.096c-2.744 0-5.376-1.153-7.318-3.204C1.095 27.798.003 25.015 0 22.113V22h.106c2.744 0 5.375 1.153 7.314 3.204 1.94 2.052 3.03 4.835 3.03 7.736zM10.557 22h-.107v-.113c0-2.901 1.1-5.684 3.058-7.735 1.959-2.052 4.615-3.205 7.385-3.205H21v.113c0 2.901-1.1 5.684-3.059 7.736C15.983 20.847 13.327 22 10.557 22zm-.107-.113V22h-.096c-2.744 0-5.376-1.152-7.318-3.204C1.095 16.746.003 13.962 0 11.06v-.113h.106c2.744 0 5.375 1.153 7.314 3.205 1.94 2.051 3.03 4.834 3.03 7.735zm.107-10.94h-.107v-.111c0-2.874 1.1-5.63 3.058-7.662C15.467 1.142 18.123 0 20.893 0H21v.111c0 2.874-1.1 5.63-3.059 7.663-1.958 2.032-4.614 3.173-7.384 3.173zm-.107-.111v.111h-.096c-2.744 0-5.376-1.14-7.318-3.173C1.095 5.742.003 2.986 0 .111V0h.106C2.85 0 5.481 1.142 7.42 3.174c1.94 2.032 3.03 4.788 3.03 7.662zM10.557 66h-.107v-.112c0-2.873 1.1-5.63 3.058-7.662 1.959-2.032 4.615-3.173 7.385-3.173H21v.1c0 2.875-1.1 5.632-3.058 7.666-1.958 2.034-4.614 3.178-7.385 3.181zm-.107-.112V66h-.096c-1.36 0-2.706-.28-3.962-.826a10.336 10.336 0 01-3.36-2.351 10.896 10.896 0 01-2.244-3.52A11.297 11.297 0 010 55.154v-.1h.106c2.744 0 5.375 1.141 7.314 3.173 1.94 2.032 3.03 4.789 3.03 7.662zm.107-10.835h-.107v-.113c0-2.901 1.1-5.684 3.058-7.736C15.467 45.153 18.123 44 20.893 44H21v.113c0 2.901-1.1 5.684-3.059 7.735-1.958 2.052-4.614 3.205-7.384 3.205zm-.107-.113v.113h-.096c-2.744 0-5.376-1.153-7.318-3.204C1.095 49.798.003 47.015 0 44.113V44h.106c2.744 0 5.375 1.153 7.314 3.204 1.94 2.052 3.03 4.835 3.03 7.736z" fill="#E4B910"/></svg>