<svg width="11" height="7" fill="none" xmlns="http://www.w3.org/2000/svg"><path fill-rule="evenodd" clip-rule="evenodd" d="M9.561.025a.58.58 0 00-.159.09 436.18 436.18 0 00-2.464 2.628c-1.781 1.906-2.435 2.59-2.53 2.649a.502.502 0 01-.48.033c-.057-.025-.651-.523-1.395-1.169-.858-.745-1.332-1.14-1.405-1.172-.342-.146-.732.099-.733.46 0 .075.017.175.038.223.028.061.532.535 1.7 1.598.915.83 1.709 1.538 1.766 1.57a.52.52 0 00.521-.011c.131-.083 5.705-6.039 5.783-6.18.174-.314-.05-.706-.423-.742a.55.55 0 00-.219.023z" fill="#fff"/></svg>