<svg width="208" height="33" fill="none" xmlns="http://www.w3.org/2000/svg"><g clip-path="url(#clip0_1_94)"><path d="M20 0H.685C.307 0 0 .3 0 .672V4.13c0 .37.307.671.685.671H20c.378 0 .685-.3.685-.671V.67A.679.679 0 0020 0zm0 6.002H.685c-.378 0-.685.3-.685.672v3.459c0 .371.307.672.685.672H20a.679.679 0 00.685-.672v-3.46a.679.679 0 00-.685-.67z" fill="#398E3D"/><path d="M33.074 19.948V.676a.683.683 0 00-.69-.676h-3.521a.683.683 0 00-.69.676v19.271c0 .374.309.676.69.676h3.522c.38 0 .69-.302.69-.675zm-6.125 0V.676a.683.683 0 00-.69-.676h-3.522c-.38 0-.69.302-.69.676v19.272c0 .373.31.675.69.675h3.522c.381 0 .69-.302.69-.675z" fill="#E4B910"/><path d="M13.45 32.845h18.947a.67.67 0 00.677-.664v-3.475a.67.67 0 00-.677-.664H13.45a.67.67 0 00-.678.664v3.475a.67.67 0 00.678.664zm0-6.002h18.947a.67.67 0 00.677-.664v-3.475a.67.67 0 00-.677-.664H13.45a.67.67 0 00-.678.664v3.475a.67.67 0 00.678.664z" fill="#398E3D"/><path d="M0 13.538v18.639c0 .369.305.668.681.668H4.22a.675.675 0 00.682-.668v-18.64a.675.675 0 00-.682-.667H.681a.675.675 0 00-.681.668zm6.125 0v18.639c0 .369.305.668.681.668h3.538a.675.675 0 00.682-.668v-18.64a.675.675 0 00-.682-.667H6.806a.675.675 0 00-.681.668z" fill="#E4B910"/><path d="M16.537 19.975c2.002 0 3.625-1.59 3.625-3.553 0-1.961-1.623-3.552-3.625-3.552s-3.625 1.59-3.625 3.553c0 1.961 1.623 3.552 3.625 3.552z" fill="#398E3D"/><path d="M45.65.1h1.188l6.006 14.168h-1.505l-1.807-4.43h-6.597l-1.806 4.43h-1.51L45.65.1zm3.446 8.64L46.24 1.75l-2.857 6.99h5.713zM63.81 1.335h-5.15v12.932h-1.426V1.335h-5.151V.101H63.81v1.234zM69.064.1h1.189l6.006 14.168h-1.506l-1.806-4.43H66.35l-1.807 4.43h-1.525L69.064.1zm3.439 8.64l-2.857-6.99-2.856 6.99h5.713zm18.653 5.528V2.717l-5.234 8.976h-.895l-5.254-8.976v11.55h-1.426V.1h1.466l5.641 9.706L91.124.1h1.446v14.166h-1.414zm14.762-1.238v1.238h-9.711V.1h9.509v1.234h-8.087v5.11h7.068v1.164h-7.068v5.42h8.289zm2.686 1.238V.1h1.426v8.23l7.963-8.25h1.565l-5.903 6.232 6.208 7.955h-1.608L112.74 7.15l-2.71 2.76v4.357h-1.426zm22.804-1.238v1.238h-9.71V.1h9.528v1.234h-8.102v5.11h7.064v1.164h-7.064v5.42h8.284zm4.113-10.355v11.593h-1.422V.1h1.188l9.481 11.81V.12h1.426v14.146h-1.323l-9.35-11.592zM158.872.1h1.189l6.006 14.168h-1.505l-1.807-4.43h-6.613l-1.806 4.43h-1.525L158.872.1zm3.447 8.64l-2.856-6.99-2.857 6.99h5.713zm11.097 5.625a6.046 6.046 0 01-2.69-.606 6.93 6.93 0 01-2.155-1.646 7.658 7.658 0 01-1.418-2.33 7.175 7.175 0 01-.5-2.632 7.437 7.437 0 01.5-2.717 7.43 7.43 0 011.394-2.287 6.63 6.63 0 012.12-1.576A6.162 6.162 0 01173.333 0a6.387 6.387 0 013.483.858 5.6 5.6 0 012.036 2.248l-1.101.718a4.444 4.444 0 00-1.85-1.941 5.433 5.433 0 00-2.588-.617 4.677 4.677 0 00-2.159.489 5.254 5.254 0 00-1.668 1.35A5.855 5.855 0 00168.436 5a6.822 6.822 0 00-.356 2.194 6.23 6.23 0 00.396 2.263c.261.7.655 1.344 1.161 1.899.487.54 1.078.98 1.739 1.296a4.92 4.92 0 002.155.459 5.13 5.13 0 002.504-.649 7.742 7.742 0 002.251-2.007v1.475c-1.374 1.623-2.997 2.435-4.87 2.435zm4.64-5.987h-3.217V7.303h4.421v6.965h-1.188l-.016-5.89zm4.136 5.89V.1h6.106a3.834 3.834 0 011.711.388c.513.251.972.596 1.351 1.017.381.425.684.91.896 1.437.208.511.315 1.057.317 1.607a4.678 4.678 0 01-.397 1.914 4.24 4.24 0 01-1.117 1.518 3.711 3.711 0 01-1.7.815l3.542 5.47h-1.608l-3.399-5.229h-4.279v5.23h-1.423zm1.423-6.468h4.726a2.469 2.469 0 001.486-.458c.426-.313.762-.73.975-1.208a3.665 3.665 0 00.348-1.584 3.292 3.292 0 00-.396-1.588 3.299 3.299 0 00-1.062-1.164 2.562 2.562 0 00-1.474-.45h-4.603V7.8zm17.693 6.565a6.28 6.28 0 01-2.773-.598 6.561 6.561 0 01-2.136-1.627 7.578 7.578 0 01-1.87-4.958 7.334 7.334 0 011.946-4.996A6.967 6.967 0 01198.642.59a6.448 6.448 0 015.455.027 6.73 6.73 0 012.128 1.658 7.86 7.86 0 011.375 2.33 7.354 7.354 0 01.359 4.003 7.432 7.432 0 01-1.805 3.61 6.688 6.688 0 01-2.156 1.584 6.26 6.26 0 01-2.69.563zm-5.352-7.183c0 .759.134 1.511.396 2.225.247.692.62 1.334 1.101 1.895a5.34 5.34 0 001.7 1.32 5.073 5.073 0 004.398-.024 5.315 5.315 0 001.676-1.34 5.987 5.987 0 001.069-1.905 6.412 6.412 0 00-.028-4.368 5.962 5.962 0 00-1.109-1.895 5.336 5.336 0 00-1.7-1.32 5.124 5.124 0 00-4.358.02c-.65.32-1.226.767-1.691 1.316a6.275 6.275 0 00-1.078 1.941 6.328 6.328 0 00-.376 2.135zM49.128 21.314a3.65 3.65 0 00-.706-.606 4.852 4.852 0 00-.91-.465 6.47 6.47 0 00-1.082-.315 5.893 5.893 0 00-1.225-.12c-1.252 0-2.176.234-2.773.702-.28.234-.5.528-.645.86a2.288 2.288 0 00-.187 1.05c-.03.468.11.93.396 1.305.359.367.81.635 1.308.776.59.198 1.347.389 2.262.614.904.174 1.79.425 2.65.75a4.068 4.068 0 011.716 1.164c.434.58.65 1.289.61 2.007a3.52 3.52 0 01-.396 1.681 3.408 3.408 0 01-1.074 1.188 4.863 4.863 0 01-1.636.699 8.95 8.95 0 01-2.084.229 9.758 9.758 0 01-2.131-.23 8.732 8.732 0 01-1.934-.67 7.558 7.558 0 01-1.668-1.13l.705-1.13a5.2 5.2 0 00.92.745 8.1 8.1 0 001.188.625c.457.19.932.331 1.418.423a7.94 7.94 0 001.565.152 4.97 4.97 0 002.679-.614 2.05 2.05 0 00.732-.782 2 2 0 00.23-1.038 1.967 1.967 0 00-.487-1.394 3.517 3.517 0 00-1.454-.862c-.78-.26-1.573-.478-2.377-.652a16.305 16.305 0 01-2.528-.753 3.528 3.528 0 01-1.549-1.095 2.96 2.96 0 01-.515-1.813 3.658 3.658 0 01.658-2.205 4.064 4.064 0 011.81-1.367 7.103 7.103 0 012.647-.462 7.986 7.986 0 011.77.186 6.238 6.238 0 012.822 1.437l-.725 1.11zm13.546 10.203v1.23h-9.648V18.679h9.465v1.227h-8.046v5.074h7.012v1.165h-7.012v5.373h8.229zm15.376 1.231V21.295l-5.186 8.894h-.892l-5.214-8.894v11.453H65.34v-14.07h1.458l5.598 9.628 5.654-9.628h1.438v14.07H78.05zm14.659-1.231v1.23h-9.636V18.679h9.465v1.227h-8.05v5.074h7.032v1.165h-7.032v5.373h8.22zm4.092-10.284v11.515h-1.414v-14.07h1.188l9.406 11.729v-11.71h1.414v14.05h-1.311l-9.283-11.514zm18.645-2.555h1.188l5.963 14.07h-1.494l-1.79-4.407h-6.561l-1.795 4.399h-1.518l6.007-14.062zm3.411 8.58l-2.825-6.953-2.837 6.953h5.662z" fill="#fff"/></g><defs><clipPath id="clip0_1_94"><path fill="#fff" d="M0 0h208v33H0z"/></clipPath></defs></svg>