<svg width="209" height="627" fill="none" xmlns="http://www.w3.org/2000/svg"><path d="M105.069 418H104v-1.059c0-27.302 10.95-53.485 30.441-72.79C153.932 324.845 180.367 314 207.931 314H209v1.059c0 27.302-10.95 53.485-30.44 72.79C159.069 407.154 132.634 418 105.069 418z" fill="#fff" fill-opacity=".2"/><path d="M104 416.941V418h-.953A103.047 103.047 0 010 315.059V314h1.06A102.938 102.938 0 01104 416.941zM105.069 314H104v-1.069A103.929 103.929 0 01207.931 209H209v1.069A103.932 103.932 0 01105.069 314z" fill="#fff" fill-opacity=".2"/><path d="M104 312.931V314h-.953c-27.311 0-53.506-10.946-72.828-30.434C10.897 264.078.03 237.643 0 210.069V209h1.06c27.3 0 53.484 10.95 72.79 30.441 19.305 19.49 30.15 45.926 30.15 73.49zM105.069 209H104v-1.069A103.929 103.929 0 01207.931 104H209v1.069A103.932 103.932 0 01105.069 209z" fill="#fff" fill-opacity=".2"/><path d="M104 207.931V209h-.953c-27.311 0-53.506-10.946-72.828-30.434C10.897 159.078.03 132.643 0 105.069V104h1.06c27.3 0 53.484 10.95 72.79 30.441 19.305 19.49 30.15 45.926 30.15 73.49zM105.069 104H104v-1.059c0-27.302 10.95-53.485 30.441-72.79C153.932 10.846 180.367 0 207.931 0H209v1.059c0 27.302-10.95 53.485-30.44 72.79C159.069 93.154 132.634 104 105.069 104zM104 102.941V104h-.953A103.047 103.047 0 010 1.059V0h1.06A102.941 102.941 0 01104 102.941zM105.069 627H104v-1.059c0-27.302 10.95-53.485 30.441-72.79C153.932 533.846 180.367 523 207.931 523H209v.953c0 27.312-10.946 53.506-30.434 72.828-19.488 19.322-45.923 30.191-73.497 30.219zM104 625.941V627h-.953a103.04 103.04 0 01-72.865-30.182A103.042 103.042 0 010 523.953V523h1.06A102.942 102.942 0 01104 625.941zM105.069 523H104v-1.069A103.929 103.929 0 01207.931 418H209v1.069A103.932 103.932 0 01105.069 523z" fill="#fff" fill-opacity=".2"/><path d="M104 521.931V523h-.953c-27.311 0-53.506-10.946-72.828-30.434C10.897 473.078.03 446.643 0 419.069V418h1.06c27.3 0 53.484 10.95 72.79 30.441 19.305 19.49 30.15 45.926 30.15 73.49z" fill="#fff" fill-opacity=".2"/></svg>