<svg
    xmlns="http://www.w3.org/2000/svg"
    xmlns:xlink="http://www.w3.org/1999/xlink"
    width="40px" height="40px">
    <path fill-rule="evenodd"  fill="rgb(21, 43, 117)"
          d="M20.000,-0.000 C31.046,-0.000 40.000,8.954 40.000,20.000 C40.000,31.045 31.046,40.000 20.000,40.000 C8.954,40.000 -0.000,31.045 -0.000,20.000 C-0.000,8.954 8.954,-0.000 20.000,-0.000 Z"/>
    <path fill-rule="evenodd"  fill="rgb(255, 255, 255)"
          d="M23.000,27.999 C23.300,27.999 23.500,27.899 23.700,27.699 C24.100,27.299 24.100,26.699 23.700,26.299 L16.400,18.999 L23.700,11.699 C24.100,11.300 24.100,10.698 23.700,10.299 C23.300,9.899 22.700,9.899 22.300,10.299 L14.300,18.299 C13.900,18.699 13.900,19.299 14.300,19.700 L22.300,27.699 C22.500,27.899 22.700,27.999 23.000,27.999 Z"/>
</svg>
