<svg
    xmlns="http://www.w3.org/2000/svg"
    xmlns:xlink="http://www.w3.org/1999/xlink"
    width="40px" height="40px">
    <path fill-rule="evenodd"  fill="rgb(21, 43, 117)"
          d="M20.000,-0.000 C31.046,-0.000 40.000,8.954 40.000,20.000 C40.000,31.045 31.046,40.000 20.000,40.000 C8.954,40.000 -0.000,31.045 -0.000,20.000 C-0.000,8.954 8.954,-0.000 20.000,-0.000 Z"/>
    <path fill-rule="evenodd"  fill="rgb(255, 255, 255)"
          d="M17.000,27.999 C16.700,27.999 16.500,27.899 16.300,27.699 C15.900,27.299 15.900,26.699 16.300,26.299 L23.600,18.999 L16.300,11.699 C15.900,11.300 15.900,10.698 16.300,10.299 C16.700,9.899 17.300,9.899 17.700,10.299 L25.700,18.299 C26.100,18.699 26.100,19.299 25.700,19.700 L17.700,27.699 C17.500,27.899 17.300,27.999 17.000,27.999 Z"/>
</svg>
