<svg
    xmlns="http://www.w3.org/2000/svg"
    xmlns:xlink="http://www.w3.org/1999/xlink"
    width="18px" height="18px">
    <path fill-rule="evenodd"  fill="rgb(15, 169, 226)"
          d="M9.000,17.999 C2.000,17.999 -0.000,15.994 -0.000,8.999 C-0.000,2.004 2.000,-0.001 9.000,-0.001 C16.000,-0.001 18.000,2.004 18.000,8.999 C18.000,15.994 16.000,17.999 9.000,17.999 ZM9.000,2.000 C3.111,2.000 2.000,3.112 2.000,8.999 C2.000,14.886 3.113,15.999 9.000,15.999 C14.887,15.999 16.000,14.887 16.000,8.999 C16.000,3.111 14.890,2.000 9.000,2.000 ZM8.000,12.999 L4.000,8.999 L5.414,7.585 L8.004,10.175 L12.598,5.581 L14.013,6.995 L9.413,11.589 L8.000,12.999 Z"/>
</svg>
