<svg
    xmlns="http://www.w3.org/2000/svg"
    xmlns:xlink="http://www.w3.org/1999/xlink"
    width="99.25px" height="73.25px">
    <path fill-rule="evenodd"  stroke="rgb(255, 255, 255)" stroke-width="1.5px" stroke-linecap="butt" stroke-linejoin="miter" fill="rgb(14, 169, 226)"
          d="M62.614,0.735 C43.249,0.735 27.493,16.664 27.493,36.246 C27.493,55.824 43.247,71.752 62.614,71.752 C81.981,71.752 97.733,55.821 97.733,36.243 C97.733,16.664 81.979,0.735 62.614,0.735 ZM62.614,65.796 C46.497,65.796 33.384,52.537 33.384,36.246 C33.384,19.950 46.497,6.692 62.614,6.692 C78.731,6.692 91.842,19.948 91.842,36.243 C91.842,52.537 78.731,65.796 62.614,65.796 ZM65.559,35.009 L65.559,14.381 C65.559,12.736 64.240,11.403 62.614,11.403 C60.988,11.403 59.669,12.736 59.669,14.381 L59.669,36.243 C59.669,36.633 59.747,37.004 59.883,37.347 C59.884,37.355 59.886,37.363 59.888,37.371 C60.040,37.744 60.262,38.080 60.542,38.360 L70.482,48.410 C71.057,48.992 71.811,49.282 72.565,49.282 C73.319,49.282 74.073,48.992 74.649,48.410 C75.799,47.246 75.799,45.362 74.649,44.199 L65.559,35.009 ZM8.267,26.769 L21.272,26.769 C22.900,26.769 24.218,25.435 24.218,23.791 C24.218,22.147 22.900,20.814 21.272,20.814 L8.267,20.814 C6.640,20.814 5.322,22.147 5.322,23.791 C5.322,25.435 6.640,26.769 8.267,26.769 ZM21.602,36.243 C21.602,34.600 20.285,33.266 18.657,33.266 L3.688,33.266 C2.060,33.266 0.743,34.600 0.743,36.243 C0.743,37.887 2.060,39.222 3.688,39.222 L18.657,39.222 C20.285,39.222 21.602,37.887 21.602,36.243 ZM18.737,14.317 L27.815,14.317 C29.443,14.317 30.760,12.983 30.760,11.339 C30.760,9.695 29.443,8.361 27.815,8.361 L18.737,8.361 C17.110,8.361 15.792,9.695 15.792,11.339 C15.792,12.983 17.110,14.317 18.737,14.317 ZM24.218,48.698 C24.218,47.054 22.900,45.720 21.272,45.720 L8.267,45.720 C6.640,45.720 5.322,47.054 5.322,48.698 C5.322,50.341 6.640,51.676 8.267,51.676 L21.272,51.676 C22.900,51.676 24.218,50.344 24.218,48.698 ZM27.815,58.172 L18.737,58.172 C17.110,58.172 15.792,59.506 15.792,61.150 C15.792,62.793 17.110,64.128 18.737,64.128 L27.815,64.128 C29.443,64.128 30.760,62.793 30.760,61.150 C30.760,59.506 29.443,58.172 27.815,58.172 Z"/>
</svg>
