<svg
    xmlns="http://www.w3.org/2000/svg"
    xmlns:xlink="http://www.w3.org/1999/xlink"
    width="9px" height="14px">
    <path fill-rule="evenodd"  fill="rgb(21, 43, 117)"
          d="M-0.003,13.999 L-0.003,11.054 L8.999,11.054 L8.999,13.999 L-0.003,13.999 ZM4.844,9.140 C4.760,9.246 4.632,9.307 4.498,9.307 C4.363,9.307 4.236,9.246 4.151,9.140 L0.537,4.627 C0.428,4.492 0.406,4.306 0.480,4.148 C0.554,3.991 0.711,3.891 0.883,3.891 L3.058,3.891 L3.058,0.450 C3.058,0.201 3.258,-0.001 3.504,-0.001 L5.491,-0.001 C5.738,-0.001 5.937,0.201 5.937,0.450 L5.937,3.891 L8.112,3.891 C8.284,3.891 8.441,3.991 8.515,4.148 C8.589,4.306 8.567,4.492 8.459,4.627 L4.844,9.140 Z"/>
</svg>
