<svg
    xmlns="http://www.w3.org/2000/svg"
    xmlns:xlink="http://www.w3.org/1999/xlink"
    width="69px" height="73px">
    <path fill-rule="evenodd"  fill="rgb(14, 169, 226)"
          d="M64.555,36.075 C64.435,36.380 64.435,36.697 64.564,37.023 L68.635,45.096 C69.028,45.812 69.096,46.818 68.812,47.778 C68.563,48.698 67.968,49.421 67.092,49.864 L59.087,53.992 C58.804,54.108 58.607,54.383 58.535,54.738 L57.125,63.697 C56.777,65.457 55.302,66.727 53.617,66.727 C53.454,66.727 53.325,66.697 53.221,66.673 C53.159,66.660 53.106,66.647 53.067,66.647 L44.152,65.215 C43.861,65.157 43.565,65.267 43.308,65.528 L36.950,71.959 C36.286,72.630 35.432,72.999 34.544,72.999 C33.592,72.999 32.732,72.639 32.060,71.959 L25.702,65.528 C25.513,65.277 25.159,65.156 24.869,65.213 L15.989,66.644 C15.754,66.727 15.562,66.727 15.393,66.727 C13.620,66.727 12.144,65.451 11.884,63.694 L10.471,54.726 C10.419,54.464 10.253,54.127 9.946,54.002 L1.916,49.863 C1.099,49.404 0.444,48.607 0.198,47.778 C-0.129,46.955 -0.069,45.995 0.374,45.099 L4.456,36.921 C4.574,36.618 4.574,36.301 4.445,35.974 L0.375,27.901 C-0.019,27.186 -0.087,26.179 0.198,25.219 C0.446,24.301 1.041,23.577 1.919,23.133 L9.842,19.006 C10.128,18.890 10.325,18.615 10.395,18.260 L11.806,9.301 C12.153,7.540 13.628,6.271 15.314,6.271 C15.477,6.271 15.606,6.301 15.710,6.324 C15.772,6.338 15.826,6.351 15.864,6.351 L24.779,7.784 C25.137,7.780 25.412,7.684 25.624,7.470 L31.902,1.041 C32.575,0.359 33.434,-0.001 34.387,-0.001 C35.340,-0.001 36.198,0.359 36.871,1.040 L43.229,7.470 C43.417,7.719 43.772,7.847 44.062,7.786 L52.942,6.354 C53.177,6.271 53.369,6.271 53.538,6.271 C55.310,6.271 56.786,7.546 57.048,9.304 L58.459,18.272 C58.528,18.615 58.725,18.890 58.984,18.995 L67.014,23.134 C67.832,23.593 68.487,24.390 68.733,25.219 C69.059,26.042 69.000,27.002 68.556,27.899 L64.555,36.075 ZM66.439,26.013 C66.383,25.731 66.237,25.550 65.965,25.412 L57.957,21.283 C56.932,20.765 56.245,19.816 56.073,18.681 L54.660,9.712 C54.630,9.444 54.492,9.215 54.269,9.054 C54.047,8.894 53.766,8.820 53.492,8.849 L44.637,10.277 C43.554,10.444 42.346,10.038 41.557,9.240 L35.199,2.810 C34.842,2.449 34.166,2.449 33.810,2.810 L27.452,9.240 C26.615,10.087 25.523,10.455 24.374,10.277 L15.503,8.847 C14.944,8.790 14.409,9.174 14.351,9.698 L12.936,18.683 C12.764,19.817 12.076,20.765 11.050,21.284 L3.044,25.333 C2.822,25.445 2.632,25.687 2.571,25.932 C2.500,26.296 2.514,26.531 2.627,26.760 L6.707,34.855 C7.224,35.813 7.226,37.014 6.708,38.061 L2.626,46.161 C2.518,46.379 2.497,46.688 2.571,46.985 C2.627,47.267 2.772,47.447 3.045,47.586 L11.055,51.795 C12.076,52.311 12.764,53.260 12.937,54.396 L14.349,63.366 C14.408,63.903 14.944,64.292 15.518,64.228 L24.332,62.807 C24.535,62.717 24.731,62.717 24.890,62.717 C25.842,62.717 26.701,63.077 27.374,63.757 L33.723,70.180 C34.153,70.544 34.764,70.549 35.120,70.188 L41.478,63.757 C42.316,62.911 43.409,62.541 44.556,62.721 L53.427,64.150 C53.685,64.177 53.969,64.104 54.191,63.944 C54.414,63.782 54.552,63.555 54.580,63.300 L55.994,54.314 C56.167,53.181 56.854,52.232 57.880,51.714 L65.966,47.665 C66.187,47.552 66.377,47.311 66.438,47.066 C66.510,46.703 66.495,46.467 66.383,46.239 L62.302,38.143 C61.785,37.185 61.784,35.983 62.301,34.937 L66.383,26.837 C66.491,26.618 66.512,26.310 66.439,26.013 ZM43.472,50.216 C43.398,50.216 43.324,50.215 43.249,50.213 L29.050,50.213 C27.812,50.213 26.635,49.757 25.701,48.921 C25.220,49.430 24.515,49.737 23.791,49.737 L19.710,49.737 C18.206,49.737 16.982,48.500 16.982,46.978 L16.982,32.450 C16.982,30.929 18.206,29.691 19.710,29.691 L23.791,29.691 C24.435,29.691 25.042,29.909 25.526,30.310 C25.642,30.228 25.754,30.172 25.857,30.119 L25.989,30.088 C26.005,30.081 31.110,28.630 31.110,24.273 L31.110,18.398 C31.110,17.847 31.435,17.399 32.001,17.169 L32.111,17.148 C34.146,16.652 35.931,16.903 37.155,17.844 C38.532,18.826 39.234,20.537 39.234,22.923 L39.234,27.707 L46.003,27.707 C48.853,27.707 51.085,29.964 51.085,32.847 L51.085,33.006 L49.200,45.350 C48.878,48.409 46.743,50.216 43.472,50.216 ZM23.968,32.450 C23.968,32.295 23.865,32.192 23.712,32.192 L19.631,32.192 C19.481,32.192 19.376,32.298 19.376,32.450 L19.376,46.978 C19.376,47.131 19.481,47.236 19.631,47.236 L23.712,47.236 C23.865,47.236 23.968,47.133 23.968,46.978 L23.968,32.450 ZM46.081,30.286 L38.076,30.286 C37.360,30.286 36.840,29.761 36.840,29.036 L36.840,22.923 C36.840,21.419 36.486,20.406 35.788,19.912 C35.194,19.432 34.400,19.399 33.661,19.462 L33.661,24.273 C33.661,30.618 26.680,32.562 26.609,32.580 L26.518,32.582 L26.518,45.152 C26.518,46.608 27.654,47.792 29.050,47.792 L43.256,47.792 C45.375,47.792 46.512,46.891 46.731,45.038 L48.617,32.722 C48.613,31.400 47.477,30.286 46.081,30.286 Z"/>
</svg>
