<svg
    xmlns="http://www.w3.org/2000/svg"
    xmlns:xlink="http://www.w3.org/1999/xlink"
    width="21px" height="30px">
    <path fill-rule="evenodd"  fill="rgb(247, 169, 0)"
          d="M11.253,29.617 C11.080,29.859 10.799,30.004 10.499,30.004 C10.200,30.004 9.919,29.859 9.746,29.617 C9.348,29.059 -0.000,15.887 -0.000,10.412 C-0.000,4.671 4.710,-0.000 10.499,-0.000 C16.289,-0.000 20.999,4.671 20.999,10.412 C20.999,15.887 11.651,29.059 11.253,29.617 ZM10.499,1.829 C5.728,1.829 1.845,5.679 1.845,10.412 C1.845,14.131 7.528,23.161 10.499,27.483 C13.471,23.160 19.153,14.129 19.153,10.412 C19.153,5.679 15.271,1.829 10.499,1.829 ZM5.791,10.412 C5.791,7.836 7.903,5.741 10.499,5.741 C13.095,5.741 15.207,7.836 15.207,10.412 C15.207,12.987 13.095,15.082 10.499,15.082 C7.903,15.082 5.791,12.987 5.791,10.412 ZM13.361,10.412 C13.361,8.846 12.077,7.572 10.499,7.572 C8.921,7.572 7.637,8.846 7.637,10.412 C7.637,11.977 8.921,13.252 10.499,13.252 C12.077,13.252 13.361,11.977 13.361,10.412 Z"/>
</svg>
