<svg
    xmlns="http://www.w3.org/2000/svg"
    xmlns:xlink="http://www.w3.org/1999/xlink"
    width="28px" height="28px">
    <path fill-rule="evenodd"  fill="rgb(255, 255, 255)"
          d="M16.436,19.620 C16.094,19.962 15.539,19.962 15.197,19.620 C14.854,19.277 14.854,18.722 15.197,18.379 C15.539,18.037 16.094,18.037 16.436,18.379 C16.779,18.722 16.779,19.277 16.436,19.620 L16.436,19.620 ZM7.759,1.025 L10.238,3.504 C10.384,3.650 10.507,3.811 10.623,3.975 C10.669,4.042 10.713,4.111 10.753,4.180 C10.808,4.270 10.855,4.365 10.900,4.460 C11.007,4.687 11.098,4.919 11.156,5.159 C11.433,6.308 11.135,7.567 10.238,8.463 C10.181,8.520 10.095,8.723 10.051,8.796 C9.217,10.147 9.376,11.939 10.548,13.111 L13.957,16.520 L13.956,16.520 L13.957,16.520 C14.300,16.863 14.300,17.418 13.957,17.759 C13.615,18.102 13.060,18.102 12.718,17.759 L9.309,14.351 C7.341,12.384 7.264,9.247 9.066,7.181 L9.066,7.181 C9.693,6.492 9.664,5.409 8.999,4.744 L6.520,2.265 C5.835,1.580 4.725,1.580 4.040,2.265 L2.801,3.504 C2.753,3.553 2.717,3.608 2.691,3.667 C0.449,6.452 2.865,12.866 8.999,18.999 C15.110,25.112 21.499,27.531 24.301,25.332 C24.369,25.301 24.434,25.258 24.494,25.198 L24.602,25.090 L24.603,25.089 L25.733,23.958 C26.418,23.273 26.418,22.164 25.733,21.480 L23.255,18.999 C22.589,18.334 21.526,18.322 20.837,18.948 C20.831,18.943 20.824,18.939 20.818,18.934 C20.800,18.954 20.794,18.980 20.775,18.999 C20.432,19.342 19.878,19.342 19.535,18.999 C19.193,18.657 19.193,18.102 19.535,17.759 C20.431,16.863 21.690,16.565 22.838,16.842 C23.080,16.900 23.314,16.991 23.541,17.099 C23.633,17.143 23.726,17.190 23.815,17.242 C23.887,17.285 23.958,17.329 24.027,17.377 C24.190,17.492 24.349,17.614 24.494,17.759 L26.973,20.239 C28.342,21.609 28.342,23.828 26.973,25.198 L25.423,26.747 C22.343,29.828 14.576,27.057 7.759,20.239 C0.942,13.423 -1.829,5.655 1.251,2.575 L2.801,1.025 C4.170,-0.344 6.390,-0.344 7.759,1.025 L7.759,1.025 Z"/>
</svg>
