<svg
    xmlns="http://www.w3.org/2000/svg"
    xmlns:xlink="http://www.w3.org/1999/xlink"
    width="40px" height="40px">
    <path fill-rule="evenodd"  fill="rgb(247, 169, 0)"
          d="M20.000,-0.000 C31.046,-0.000 40.000,8.954 40.000,20.000 C40.000,31.046 31.046,40.000 20.000,40.000 C8.954,40.000 -0.000,31.046 -0.000,20.000 C-0.000,8.954 8.954,-0.000 20.000,-0.000 Z"/>
    <path fill-rule="evenodd"  fill="rgb(255, 255, 255)"
          d="M28.000,21.000 L21.000,21.000 L21.000,28.000 C21.000,28.552 20.552,29.000 20.000,29.000 C19.448,29.000 19.000,28.552 19.000,28.000 L19.000,21.000 L12.000,21.000 C11.448,21.000 11.000,20.552 11.000,20.000 C11.000,19.448 11.448,19.000 12.000,19.000 L19.000,19.000 L19.000,12.000 C19.000,11.448 19.448,11.000 20.000,11.000 C20.552,11.000 21.000,11.448 21.000,12.000 L21.000,19.000 L28.000,19.000 C28.552,19.000 29.000,19.448 29.000,20.000 C29.000,20.552 28.552,21.000 28.000,21.000 Z"/>
</svg>
