<svg
    xmlns="http://www.w3.org/2000/svg"
    xmlns:xlink="http://www.w3.org/1999/xlink"
    width="34px" height="26px">
    <path fill-rule="evenodd"  fill="rgb(247, 169, 0)"
          d="M32.248,14.270 C31.080,13.033 29.786,12.413 28.370,12.413 C28.511,10.999 29.078,9.673 30.070,8.434 C31.061,7.198 32.265,6.296 33.683,5.729 L30.283,-0.001 C29.290,0.354 28.121,0.901 26.776,1.644 C25.430,2.386 24.137,3.412 22.898,4.721 C21.658,6.030 20.596,7.675 19.711,9.654 C18.824,11.636 18.383,14.041 18.383,16.870 C18.383,19.629 19.126,21.840 20.614,23.501 C22.101,25.164 24.155,25.995 26.776,25.995 C28.830,25.995 30.548,25.377 31.930,24.138 C33.311,22.902 34.002,21.256 34.002,19.204 C34.002,17.153 33.417,15.509 32.248,14.270 ZM13.867,14.270 C12.698,13.033 11.405,12.413 9.989,12.413 C10.130,10.999 10.696,9.673 11.689,8.434 C12.680,7.198 13.884,6.296 15.301,5.729 L11.901,-0.001 C10.908,0.354 9.740,0.901 8.395,1.644 C7.048,2.386 5.755,3.412 4.517,4.721 C3.277,6.030 2.214,7.675 1.329,9.654 C0.443,11.636 0.001,14.041 0.001,16.870 C0.001,19.629 0.745,21.840 2.232,23.501 C3.720,25.164 5.773,25.995 8.395,25.995 C10.449,25.995 12.167,25.377 13.548,24.138 C14.929,22.902 15.620,21.256 15.620,19.204 C15.620,17.153 15.036,15.509 13.867,14.270 Z"/>
</svg>
