<svg
    xmlns="http://www.w3.org/2000/svg"
    xmlns:xlink="http://www.w3.org/1999/xlink"
    width="17px" height="17px">
    <path fill-rule="evenodd"  fill="rgb(247, 169, 0)"
          d="M3.923,1.890 L4.813,2.798 C5.557,2.326 6.393,1.981 7.283,1.817 L7.301,0.546 C7.301,0.238 7.555,-0.017 7.864,0.002 L9.389,0.020 C9.698,0.020 9.952,0.274 9.934,0.583 L9.916,1.853 C10.805,2.035 11.623,2.398 12.349,2.907 L13.257,2.017 C13.475,1.799 13.838,1.799 14.056,2.035 L15.127,3.125 C15.345,3.343 15.345,3.706 15.109,3.924 L14.201,4.813 C14.673,5.558 15.018,6.393 15.182,7.283 L16.453,7.302 C16.762,7.302 17.016,7.556 16.998,7.864 L16.979,9.389 C16.979,9.698 16.725,9.953 16.417,9.934 L15.145,9.916 C15.037,10.443 14.855,10.952 14.637,11.424 L13.184,9.971 C13.330,9.535 13.402,9.063 13.402,8.572 C13.457,5.867 11.278,3.633 8.572,3.597 C5.866,3.543 3.633,5.722 3.596,8.427 C3.542,11.133 5.721,13.367 8.427,13.403 C8.899,13.403 9.353,13.348 9.770,13.239 L11.241,14.710 C10.751,14.928 10.242,15.092 9.716,15.182 L9.698,16.453 C9.698,16.762 9.443,17.017 9.135,16.998 L7.609,16.980 C7.301,16.980 7.046,16.726 7.065,16.417 L7.083,15.146 C6.193,14.965 5.376,14.602 4.650,14.093 L3.742,14.982 C3.524,15.201 3.160,15.201 2.943,14.965 L1.871,13.875 C1.653,13.657 1.653,13.294 1.889,13.076 L2.797,12.186 C2.325,11.442 1.980,10.606 1.817,9.717 L0.546,9.698 C0.237,9.698 -0.017,9.444 0.001,9.136 L0.019,7.610 C0.019,7.302 0.273,7.047 0.582,7.065 L1.853,7.083 C2.035,6.194 2.398,5.376 2.906,4.650 L2.016,3.742 C1.798,3.524 1.798,3.161 2.035,2.943 L3.124,1.872 C3.342,1.654 3.705,1.654 3.923,1.890 ZM5.285,7.719 C5.013,8.827 5.303,10.025 6.157,10.897 C6.865,11.605 7.809,11.932 8.735,11.859 C9.280,11.823 9.807,12.005 10.188,12.386 L13.075,15.273 C13.275,15.473 13.584,15.473 13.784,15.273 L14.165,14.892 L10.733,11.460 C10.569,11.296 10.551,11.042 10.678,10.879 C10.842,10.679 11.132,10.679 11.314,10.842 L14.764,14.293 L15.145,13.911 C15.345,13.712 15.345,13.403 15.145,13.203 L12.385,10.443 C11.986,10.043 11.786,9.462 11.841,8.899 C11.949,7.919 11.641,6.902 10.896,6.157 C9.988,5.250 8.681,4.977 7.519,5.340 C7.446,5.358 7.428,5.467 7.482,5.522 L8.899,6.938 C9.298,7.337 9.298,8.010 8.899,8.409 L8.281,9.026 C7.882,9.426 7.210,9.426 6.810,9.026 L5.467,7.683 C5.412,7.610 5.303,7.646 5.285,7.719 Z"/>
</svg>
