<svg
    xmlns="http://www.w3.org/2000/svg"
    xmlns:xlink="http://www.w3.org/1999/xlink"
    width="82.425px" height="81.425px">
    <path fill-rule="evenodd"  stroke="rgb(255, 255, 255)" stroke-width="0.95px" stroke-linecap="butt" stroke-linejoin="miter" fill="rgb(14, 169, 226)"
          d="M69.637,68.724 C61.702,76.566 51.333,80.487 40.963,80.487 C30.594,80.487 20.224,76.566 12.289,68.813 C-3.491,53.218 -3.491,27.821 12.289,12.226 C20.224,4.384 30.594,0.463 40.963,0.463 C51.333,0.463 61.702,4.384 69.637,12.137 C85.417,27.821 85.417,53.129 69.637,68.724 ZM66.211,15.523 C59.448,8.840 50.521,5.186 40.963,5.186 C31.405,5.186 22.478,8.840 15.715,15.523 C8.953,22.207 5.256,31.029 5.256,40.475 C5.256,49.921 8.953,58.743 15.715,65.427 C22.478,72.110 31.405,75.764 40.963,75.764 C50.521,75.764 59.448,72.110 66.211,65.427 C72.973,58.743 76.670,49.921 76.670,40.475 C76.670,31.029 72.973,22.207 66.211,15.523 ZM47.816,44.218 L39.430,44.218 L35.192,44.218 L35.192,48.941 L49.349,48.941 C50.701,48.941 51.874,50.099 51.874,51.436 C51.874,52.773 50.792,53.931 49.349,53.931 L35.192,53.931 L35.192,62.219 C35.192,63.555 34.020,64.714 32.667,64.714 C31.315,64.714 30.143,63.644 30.143,62.219 L30.143,53.931 L25.905,53.931 C24.552,53.931 23.380,52.773 23.380,51.436 C23.380,50.099 24.462,48.941 25.905,48.941 L30.143,48.941 L30.143,44.218 L25.905,44.218 C24.552,44.218 23.380,43.149 23.380,41.722 C23.380,40.386 24.462,39.227 25.905,39.227 L30.143,39.227 L30.143,18.553 C30.143,17.216 31.225,16.058 32.667,16.058 L47.906,16.058 C55.751,16.058 62.153,22.207 62.153,30.048 C62.153,37.891 55.661,44.218 47.816,44.218 ZM47.996,21.137 L35.282,21.137 L35.282,39.227 L39.520,39.227 L47.906,39.227 C52.956,39.227 57.104,35.217 57.194,30.227 C57.194,25.236 53.046,21.137 47.996,21.137 Z"/>
</svg>
