<svg
    xmlns="http://www.w3.org/2000/svg"
    xmlns:xlink="http://www.w3.org/1999/xlink"
    width="85px" height="57px">
    <path fill-rule="evenodd"  fill="rgb(14, 169, 226)"
          d="M83.663,47.517 C82.732,48.420 81.518,48.925 80.233,48.948 L78.895,48.948 C78.456,53.129 74.872,56.366 70.640,56.366 C70.622,56.366 70.606,56.366 70.589,56.366 C66.355,56.366 62.772,53.129 62.334,48.948 L34.102,48.948 C33.981,53.408 30.306,57.000 25.805,57.000 C21.304,57.000 17.629,53.408 17.509,48.948 L17.097,48.948 C14.471,48.948 12.335,46.817 12.335,44.198 L12.335,33.253 C12.335,30.634 14.471,28.503 17.097,28.503 L51.521,28.503 L51.521,12.808 C51.512,12.753 51.512,12.670 51.522,12.588 C51.591,12.019 52.105,11.602 52.681,11.679 L68.800,11.677 C69.100,11.645 69.412,11.782 69.612,12.034 L82.758,26.861 C84.068,28.356 84.797,30.271 84.810,32.256 L84.991,44.105 C84.985,45.371 84.512,46.582 83.663,47.517 ZM70.614,54.104 C73.940,54.104 76.646,51.405 76.646,48.088 C76.646,44.771 73.940,42.073 70.614,42.073 C67.288,42.073 64.582,44.771 64.582,48.088 C64.582,51.405 67.288,54.104 70.614,54.104 ZM25.805,54.714 C28.962,54.714 31.837,51.556 31.837,48.088 C31.837,44.771 29.131,42.073 25.805,42.073 C22.479,42.073 19.773,44.771 19.773,48.088 C19.773,51.556 22.648,54.714 25.805,54.714 ZM82.542,32.352 C82.540,30.877 82.012,29.452 81.054,28.333 L68.245,13.939 L53.788,13.939 L53.788,29.634 C53.735,30.246 53.267,30.713 52.674,30.764 L17.097,30.765 C17.034,30.764 16.978,30.763 16.921,30.765 C15.596,30.811 14.556,31.924 14.603,33.245 L14.603,44.198 C14.603,45.570 15.722,46.686 17.097,46.686 L17.630,46.686 C18.246,43.170 21.010,40.468 24.564,39.932 C29.023,39.259 33.206,42.277 33.980,46.686 L62.439,46.686 C63.055,43.170 65.818,40.468 69.374,39.932 C71.564,39.600 73.755,40.142 75.539,41.455 C77.272,42.727 78.420,44.580 78.789,46.686 L80.229,46.686 C81.625,46.641 82.724,45.510 82.723,44.109 L82.542,32.352 ZM73.534,30.765 L59.639,30.765 L59.619,30.764 C59.025,30.713 58.557,30.246 58.506,29.654 L58.505,19.864 C58.505,19.240 59.014,18.733 59.639,18.733 L65.172,18.733 C65.475,18.725 65.815,18.841 66.053,19.066 L74.326,28.855 C74.614,29.190 74.699,29.657 74.545,30.074 C74.343,30.477 73.959,30.733 73.534,30.765 ZM64.614,20.995 L60.773,20.995 L60.773,28.503 L71.030,28.503 L64.614,20.995 ZM45.686,23.853 C45.500,23.999 45.276,24.077 45.043,24.077 C45.005,24.077 44.969,24.075 44.932,24.071 L19.365,24.071 C18.739,24.071 18.231,23.564 18.231,22.940 L18.231,1.138 C18.231,0.515 18.739,0.007 19.365,0.007 L44.944,0.007 C44.998,-0.001 45.081,-0.000 45.164,0.008 C45.735,0.077 46.145,0.595 46.076,1.165 L46.078,22.940 C46.085,22.995 46.086,23.077 46.076,23.157 C46.044,23.434 45.905,23.682 45.686,23.853 ZM34.740,2.268 L29.569,2.268 L29.569,6.430 L34.740,6.430 L34.740,2.268 ZM43.811,2.268 L37.008,2.268 L37.008,7.561 C37.008,8.185 36.499,8.692 35.874,8.692 L28.436,8.692 C27.810,8.692 27.302,8.185 27.302,7.561 L27.302,2.268 L20.499,2.268 L20.499,21.809 L43.811,21.809 L43.811,2.268 ZM11.752,13.402 C11.711,13.402 11.670,13.399 11.628,13.394 L1.145,13.396 C1.069,13.404 0.991,13.403 0.914,13.394 C0.637,13.361 0.389,13.223 0.217,13.005 C0.045,12.787 -0.033,12.514 0.001,12.238 C-0.001,11.641 0.507,11.134 1.133,11.134 L11.655,11.134 C12.280,11.134 12.789,11.641 12.789,12.265 C12.797,12.320 12.797,12.402 12.787,12.484 C12.724,13.012 12.273,13.402 11.752,13.402 ZM11.655,4.983 L4.489,4.983 C3.876,4.931 3.408,4.463 3.356,3.871 L3.355,3.852 C3.355,3.228 3.864,2.721 4.489,2.721 L11.655,2.721 C11.710,2.713 11.792,2.713 11.874,2.723 C12.445,2.791 12.855,3.309 12.787,3.879 C12.789,4.476 12.280,4.983 11.655,4.983 ZM4.489,19.638 L11.642,19.638 C11.720,19.630 11.797,19.629 11.874,19.640 C12.445,19.708 12.855,20.226 12.787,20.795 C12.789,21.392 12.280,21.899 11.655,21.899 L4.489,21.899 C3.876,21.847 3.408,21.380 3.356,20.788 C3.355,20.145 3.864,19.638 4.489,19.638 Z"/>
</svg>
