<?xml version="1.0" encoding="UTF-8"?>
<svg width="38px" height="25px" viewBox="0 0 38 25" version="1.1" xmlns="http://www.w3.org/2000/svg" xmlns:xlink="http://www.w3.org/1999/xlink">
    <!-- Generator: Sketch 47.1 (45422) - http://www.bohemiancoding.com/sketch -->
    <title>icon-bill</title>
    <desc>Created with Sketch.</desc>
    <defs></defs>
    <g id="01" stroke="none" stroke-width="1" fill="none" fill-rule="evenodd">
        <g id="01-2" transform="translate(-220.000000, -156.000000)" fill-rule="nonzero">
            <g id="Group-12" transform="translate(0.000000, 49.000000)">
                <g id="header/new/menu" transform="translate(0.000000, 89.000000)">
                    <g id="Group-2" transform="translate(40.000000, 2.000000)">
                        <g id="icon-bill" transform="translate(181.000000, 17.000000)">
                            <path d="M34.2468085,23.1319149 L2.1106383,23.1319149 C1.0893617,23.1319149 0.204255319,22.3148936 0.204255319,21.2255319 L0.204255319,11.012766 C0.204255319,10.1276596 0.680851064,8.97021277 1.29361702,8.35744681 L8.30638298,1.34468085 C8.91914894,0.731914894 10.0765957,0.255319149 10.9617021,0.255319149 L34.1106383,0.255319149 C35.1319149,0.255319149 35.9489362,1.07234043 35.9489362,2.16170213 L35.9489362,21.3617021 C36.0851064,22.2468085 35.2680851,23.1319149 34.2468085,23.1319149 Z" id="Shape" stroke="#878787"></path>
                            <path d="M29.412766,18.093617 L16.8170213,18.093617 C15.5234043,18.093617 14.5021277,17.0723404 14.5021277,15.7787234 L14.5021277,7.13191489 C14.5021277,5.83829787 15.5234043,4.81702128 16.8170213,4.81702128 L29.412766,4.81702128 C30.706383,4.81702128 31.7276596,5.83829787 31.7276596,7.13191489 L31.7276596,15.7106383 C31.7276596,17.0042553 30.706383,18.093617 29.412766,18.093617 Z" id="Shape" stroke="#878787"></path>
                            <path d="M31.2510638,13.1404255 L15.2510638,13.1404255 C14.9787234,13.1404255 14.706383,12.9968085 14.706383,12.7574468 C14.706383,12.5180851 14.9106383,12.3744681 15.2510638,12.3744681 L31.2510638,12.3744681 C31.5234043,12.3744681 31.7957447,12.5180851 31.7957447,12.7574468 C31.7957447,12.9968085 31.5234043,13.1404255 31.2510638,13.1404255 Z" id="Shape" fill="#878787"></path>
                            <path d="M31.2510638,9.32765957 L15.2510638,9.32765957 C14.9787234,9.32765957 14.706383,9.18404255 14.706383,8.94468085 C14.706383,8.70531915 14.9106383,8.56170213 15.2510638,8.56170213 L31.2510638,8.56170213 C31.5234043,8.56170213 31.7957447,8.70531915 31.7957447,8.94468085 C31.7957447,9.18404255 31.5234043,9.32765957 31.2510638,9.32765957 Z" id="Shape" fill="#878787"></path>
                            <path d="M23.3617021,18.093617 C23.1702128,18.093617 22.9787234,17.8893617 22.9787234,17.5489362 L22.9787234,12.9191489 C22.9787234,12.6468085 23.1223404,12.3744681 23.3617021,12.3744681 C23.6010638,12.3744681 23.7446809,12.5787234 23.7446809,12.9191489 L23.7446809,17.5489362 C23.7446809,17.8212766 23.5531915,18.093617 23.3617021,18.093617 Z" id="Shape" fill="#878787"></path>
                            <path d="M23.3617021,9.34468085 C23.106383,9.21702128 22.9787234,9.04680851 22.9787234,8.83404255 L22.9787234,5.25957447 C22.9787234,5.00425532 23.1223404,4.74893617 23.3617021,4.74893617 C23.6010638,4.74893617 23.7446809,4.94042553 23.7446809,5.25957447 L23.7446809,8.83404255 C23.7446809,9.04680851 23.6170213,9.21702128 23.3617021,9.34468085 Z" id="Shape" fill="#878787"></path>
                        </g>
                    </g>
                </g>
            </g>
        </g>
    </g>
</svg>