<?xml version="1.0" encoding="UTF-8"?>
<svg width="139px" height="49px" viewBox="0 0 139 49" version="1.1" xmlns="http://www.w3.org/2000/svg" xmlns:xlink="http://www.w3.org/1999/xlink">
    <!-- Generator: Sketch 47.1 (45422) - http://www.bohemiancoding.com/sketch -->
    <title>icon-logo</title>
    <desc>Created with Sketch.</desc>
    <defs></defs>
    <g id="01" stroke="none" stroke-width="1" fill="none" fill-rule="evenodd">
        <g id="01-2" transform="translate(-40.000000, -69.000000)">
            <g id="Group-12" transform="translate(0.000000, 49.000000)">
                <g id="Group-449" transform="translate(40.000000, 20.000000)">
                    <g id="icon-logo">
                        <path d="M138.4327,30.009 C138.4327,30.009 135.4541,30.427 131.9082,30.427 C127.6531,30.427 126.802,29.033 126.802,25.827 L126.802,21.784 C126.802,18.438 127.5112,17.044 131.9082,17.044 C135.0286,17.044 138.0071,17.462 138.0071,17.462 L138.5745,11.328 C138.5745,11.328 134.7449,10.771 131.3408,10.771 C122.4051,10.771 119.2847,13.698 119.2847,20.669 L119.2847,26.803 C119.2847,34.47 123.2561,36.701 131.3408,36.701 C134.6031,36.701 139,36.143 139,36.143 L138.4327,30.009 Z" id="Fill-450" fill="#E30613"></path>
                        <polygon id="Fill-452" fill="#E30613" points="94.0378 17.602 101.4133 17.602 101.4133 36.282 109.0725 36.282 109.0725 17.602 116.448 17.602 116.8735 11.328 93.6122 11.328"></polygon>
                        <polygon id="Fill-453" fill="#E30613" points="78.4357 33.773 82.549 24.293 82.9745 24.293 83.8255 36.282 91.201 36.282 89.499 11.328 82.4071 11.328 76.3082 25.548 75.8827 25.548 69.3582 11.328 62.4082 11.328 60.7061 36.282 67.9398 36.282 68.649 24.293 69.0745 24.293 73.6133 33.773"></polygon>
                        <path d="M49.64286,4.879 L49.64286,43.913 C49.64286,46.562 47.37347,48.793 44.67857,48.793 L4.96429,48.793 C2.26939,48.793 0,46.562 0,43.913 L0,4.879 C0,2.23 2.26939,0 4.96429,0 L44.67857,0 C47.37347,0 49.64286,2.23 49.64286,4.879 Z M24.82143,42.38 C34.04082,42.38 38.29592,35.131 38.29592,27.881 C38.29592,17.704 31.20408,6.273 24.82143,6.273 C18.58061,6.273 11.34694,17.844 11.34694,28.021 C11.34694,35.131 15.4602,42.38 24.82143,42.38 Z" id="Fill-454" fill="#E30613"></path>
                        <path d="M38.29592,28.057 C38.29592,35.307 34.04082,42.556 24.82143,42.556 C15.4602,42.556 11.34694,35.307 11.34694,28.197 C11.34694,18.02 18.58061,6.449 24.82143,6.449 C31.20408,6.449 38.29592,17.88 38.29592,28.057 Z" id="Fill-455" fill="#FFFFFF"></path>
                    </g>
                </g>
            </g>
        </g>
    </g>
</svg>