<?xml version="1.0" encoding="UTF-8"?>
<svg width="40px" height="40px" viewBox="0 0 40 40" version="1.1" xmlns="http://www.w3.org/2000/svg" xmlns:xlink="http://www.w3.org/1999/xlink">
    <!-- Generator: Sketch 47.1 (45422) - http://www.bohemiancoding.com/sketch -->
    <title>icon-myphone</title>
    <desc>Created with Sketch.</desc>
    <defs></defs>
    <g id="Page-1" stroke="none" stroke-width="1" fill="none" fill-rule="evenodd">
        <g id="icon-myphone" transform="translate(7.000000, 0.000000)" fill-rule="nonzero" fill="#878787">
            <path d="M23.2,39.8 L3.8,39.8 C1.8,39.8 0.2,38.2 0.2,36.2 L0.2,3.9 C0.2,1.9 1.8,0.3 3.8,0.3 L23.2,0.3 C25.2,0.3 26.8,1.9 26.8,3.9 L26.8,36.1 C26.8,38.1 25.2,39.8 23.2,39.8 L23.2,39.8 Z M3.8,1.2 C2.3,1.2 1.2,2.4 1.2,3.8 L1.2,36 C1.2,37.5 2.4,38.6 3.8,38.6 L23.2,38.6 C24.7,38.6 25.8,37.4 25.8,36 L25.8,3.9 C25.8,2.4 24.6,1.3 23.2,1.3 L3.8,1.3 L3.8,1.2 Z" id="Shape"></path>
            <path d="M5.4,11 C5.3,11 5.1,11 5,10.9 C4.8,10.7 4.8,10.4 5,10.2 L9.7,5.5 C9.9,5.3 10.2,5.3 10.4,5.5 C10.6,5.7 10.6,6 10.4,6.2 L5.7,10.9 C5.6,11 5.5,11 5.4,11 L5.4,11 Z M6,16.3 C5.9,16.3 5.7,16.3 5.6,16.2 C5.4,16 5.4,15.7 5.6,15.5 L15,6.2 C15.2,6 15.5,6 15.7,6.2 C15.9,6.4 15.9,6.7 15.7,6.9 L6.4,16.2 C6.3,16.3 6.2,16.3 6,16.3 L6,16.3 Z M13.5,35.3 C12.3,35.3 11.3,34.3 11.3,33.1 C11.3,31.9 12.3,30.9 13.5,30.9 C14.7,30.9 15.7,31.9 15.7,33.1 C15.7,34.3 14.7,35.3 13.5,35.3 Z M13.5,31.9 C12.8,31.9 12.3,32.4 12.3,33.1 C12.3,33.8 12.8,34.3 13.5,34.3 C14.2,34.3 14.7,33.8 14.7,33.1 C14.7,32.4 14.2,31.9 13.5,31.9 L13.5,31.9 Z" id="Shape"></path>
        </g>
    </g>
</svg>