<?xml version="1.0" encoding="UTF-8"?>
<svg width="22px" height="22px" viewBox="0 0 22 22" version="1.1" xmlns="http://www.w3.org/2000/svg" xmlns:xlink="http://www.w3.org/1999/xlink">
    <!-- Generator: Sketch 47.1 (45422) - http://www.bohemiancoding.com/sketch -->
    <title>lk</title>
    <desc>Created with Sketch.</desc>
    <defs></defs>
    <g id="01" stroke="none" stroke-width="1" fill="none" fill-rule="evenodd" stroke-linecap="round" stroke-linejoin="round">
        <g id="menu-02.7-375" transform="translate(-69.000000, -24.000000)" stroke="#ACB8C1">
            <g id="Group-15" transform="translate(70.000000, 19.000000)">
                <g id="lk" transform="translate(0.000000, 6.000000)">
                    <path d="M16.7631198,7.18715642 C16.7631198,7.25524192 16.7631198,7.39141292 16.7631198,7.45949842 C16.7631198,11.3403719 13.7344889,14.472305 10.0719585,14.5403905 C10.0719585,14.5403905 10.0015252,14.5403905 10.0015252,14.5403905 C10.0015252,14.5403905 9.93109196,14.5403905 9.93109196,14.5403905 C6.33899487,14.472305 3.38079726,11.4765429 3.23993071,7.73184042" id="Shape"></path>
                    <path d="M3.16949743,6.50630142 C4.93032934,5.75736091 6.47986142,4.66799291 7.67722711,3.1701119 C10.2832583,5.34884791 13.4527558,6.30204491 16.5518199,5.96161741" id="Shape"></path>
                    <path d="M3.16949743,6.50630142 C3.59209709,3.0339409 6.47986142,0.37860638 9.93109196,0.37860638 C13.1710227,0.37860638 15.9179204,2.76159889 16.6222532,5.96161741" id="Shape"></path>
                    <path d="M13.8753554,15.9021005 C17.3970192,16.651041 19.9326172,18.421264 19.9326172,20.463829" id="Shape"></path>
                    <path d="M0,20.6 C0,18.6255205 2.39473139,16.8552975 5.91639521,16.106357" id="Shape"></path>
                </g>
            </g>
        </g>
    </g>
</svg>