<?xml version="1.0" encoding="UTF-8"?>
<svg width="24px" height="24px" viewBox="0 0 24 24" version="1.1" xmlns="http://www.w3.org/2000/svg" xmlns:xlink="http://www.w3.org/1999/xlink">
    <!-- Generator: Sketch 47.1 (45422) - http://www.bohemiancoding.com/sketch -->
    <title>icon-profile</title>
    <desc>Created with Sketch.</desc>
    <defs></defs>
    <g id="01" stroke="none" stroke-width="1" fill="none" fill-rule="evenodd" stroke-linecap="round" stroke-linejoin="round">
        <g id="menu-02.2" transform="translate(-1450.000000, -13.000000)" stroke="#ACB8C1">
            <g id="Group-10" transform="translate(0.000000, -1.000000)">
                <g id="Group-19" transform="translate(1450.000000, 14.000000)">
                    <path d="M18.7631198,8.18715642 C18.7631198,8.25524192 18.7631198,8.39141292 18.7631198,8.45949842 C18.7631198,12.3403719 15.7344889,15.472305 12.0719585,15.5403905 C12.0719585,15.5403905 12.0015252,15.5403905 12.0015252,15.5403905 C12.0015252,15.5403905 11.931092,15.5403905 11.931092,15.5403905 C8.33899487,15.472305 5.38079726,12.4765429 5.23993071,8.73184042" id="Shape"></path>
                    <path d="M5.16949743,7.50630142 C6.93032934,6.75736091 8.47986142,5.66799291 9.67722711,4.1701119 C12.2832583,6.34884791 15.4527558,7.30204491 18.5518199,6.96161741" id="Shape"></path>
                    <path d="M5.16949743,7.50630142 C5.59209709,4.0339409 8.47986142,1.37860638 11.931092,1.37860638 C15.1710227,1.37860638 17.9179204,3.76159889 18.6222532,6.96161741" id="Shape"></path>
                    <path d="M15.8753554,16.9021005 C19.3970192,17.651041 21.9326172,19.421264 21.9326172,21.463829" id="Shape"></path>
                    <path d="M2,21.6 C2,19.6255205 4.39473139,17.8552975 7.91639521,17.106357" id="Shape"></path>
                </g>
            </g>
        </g>
    </g>
</svg>