<?xml version="1.0" encoding="UTF-8"?>
<svg width="24px" height="24px" viewBox="0 0 24 24" version="1.1" xmlns="http://www.w3.org/2000/svg" xmlns:xlink="http://www.w3.org/1999/xlink">
    <!-- Generator: Sketch 47.1 (45422) - http://www.bohemiancoding.com/sketch -->
    <title>icon-balance</title>
    <desc>Created with Sketch.</desc>
    <defs></defs>
    <g id="01" stroke="none" stroke-width="1" fill="none" fill-rule="evenodd">
        <g id="menu-02.2" transform="translate(-1186.000000, -12.000000)" fill-rule="nonzero" fill="#B2BDC5">
            <g id="Group-10" transform="translate(0.000000, -1.000000)">
                <g id="Group-18" transform="translate(1186.000000, 13.000000)">
                    <path d="M22,22 L5,22 C3.86290323,22 3.18548387,21.7440758 3,21 C2,20.464455 2,19.4407583 2,19 L2,4 C2,4.17061611 2.12701613,4 2,4 C2.55040323,4 2.63508065,4.12796209 3,4 L3,19 C2.63508065,19.3554502 2.63508065,20.2085308 3,21 C3.52419355,21.1469194 4.07459677,21.3175355 5,21 L22,21 C22.2802419,21.3175355 22.3649194,21.2748815 22,21 L22,6 C22.3649194,6.00473934 22.3225806,5.91943128 22,6 C22.0685484,5.91943128 21.8991935,5.79146919 22,6 C21.8991935,5.36492891 22.0262097,5.23696682 22,5 C22.6612903,5.23696682 23,5.57819905 23,6 L23,21 C22.9576613,21.6587678 22.6189516,22 22,22 Z" id="Shape"></path>
                    <path d="M20,5 C19.5555556,5 19.4074074,4.86363636 19,5 L19,3 C19.4074074,2.77272727 19.3703704,2.68181818 19,3 C19.1481481,2.68181818 19,2.54545455 19,2 C19,2.09090909 19.1851852,2 19,2 C19.7037037,2 20,2.36363636 20,3 L20,5 C20,4.81818182 19.8518519,5 20,5 Z" id="Shape"></path>
                    <path d="M4,6 C2.90740741,5.95876289 2,5.05154639 2,4 C2,2.90721649 2.90740741,2 4,2 L20,2 C20.1049383,2 20.2777778,2.12371134 20,2 C20.2777778,2.53608247 20.1481481,2.65979381 20,3 L4,3 C3.2962963,2.6185567 2.64814815,3.2371134 3,4 C2.64814815,4.72164948 3.2962963,5.34020619 4,5 L23,5 C22.8271605,5.34020619 23,5.46391753 23,6 C23,5.87628866 22.8703704,6 23,6 L4,6 Z" id="Shape"></path>
                    <path d="M19,16 C17.9043556,16 17,15.0952381 17,14 C17,12.9047619 17.9043556,12 19,12 C20.0938482,12 20.9982038,12.9047619 21,14 C21.0458014,15.0952381 20.1414458,16 19,16 Z M19,13 C18.4439658,13 18,13.4444444 18,14 C18,14.5555556 18.4439658,15 19,15 C19.5538804,15 19.9978462,14.5555556 20,14 C20.0348434,13.4444444 19.5908775,13 19,13 Z" id="Shape"></path>
                </g>
            </g>
        </g>
    </g>
</svg>