<?xml version="1.0" encoding="UTF-8"?>
<svg width="36px" height="36px" viewBox="0 0 36 36" version="1.1" xmlns="http://www.w3.org/2000/svg" xmlns:xlink="http://www.w3.org/1999/xlink">
    <!-- Generator: Sketch 47.1 (45422) - http://www.bohemiancoding.com/sketch -->
    <title>icon-services</title>
    <desc>Created with Sketch.</desc>
    <defs></defs>
    <g id="01" stroke="none" stroke-width="1" fill="none" fill-rule="evenodd" stroke-linecap="round" stroke-linejoin="round">
        <g id="menu-02.2" transform="translate(-615.000000, -149.000000)" stroke="#878787">
            <g id="Group-12" transform="translate(0.000000, 49.000000)">
                <g id="header/new/menu" transform="translate(0.000000, 89.000000)">
                    <g id="Group-2" transform="translate(40.000000, 2.000000)">
                        <g id="Group-13" transform="translate(575.000000, 9.000000)">
                            <g id="Page-1" transform="translate(0.000000, 2.000000)">
                                <path d="M35.5135135,28.0108108 L22.1757812,28.0108108" id="Stroke-1"></path>
                                <path d="M15.0054054,28.0108108 L0.486486486,28.0108108" id="Stroke-3"></path>
                                <path d="M35.5135135,16 L10.4950032,16" id="Stroke-5"></path>
                                <path d="M3.54119821,16 L0.486486486,16" id="Stroke-7"></path>
                                <path d="M35.5135135,3.98918919 L33.4362161,3.98918919" id="Stroke-9"></path>
                                <path d="M25.5047831,3.98918919 L0.486486486,3.98918919" id="Stroke-11"></path>
                                <path d="M32.9945946,3.98918919 C32.9945946,5.92345946 31.4261622,7.49189189 29.4918919,7.49189189 C27.5576216,7.49189189 25.9891892,5.92345946 25.9891892,3.98918919 C25.9891892,2.05491892 27.5576216,0.486486486 29.4918919,0.486486486 C31.4261622,0.486486486 32.9945946,2.05491892 32.9945946,3.98918919 Z" id="Stroke-13"></path>
                                <path d="M10.5027027,16 C10.5027027,17.9342703 8.93427027,19.5027027 7,19.5027027 C5.06572973,19.5027027 3.4972973,17.9342703 3.4972973,16 C3.4972973,14.0657297 5.06572973,12.4972973 7,12.4972973 C8.93427027,12.4972973 10.5027027,14.0657297 10.5027027,16 Z" id="Stroke-15"></path>
                                <path d="M22.0108108,28.0108108 C22.0108108,29.9450811 20.4423784,31.5135135 18.5081081,31.5135135 C16.5738378,31.5135135 15.0054054,29.9450811 15.0054054,28.0108108 C15.0054054,26.0765405 16.5738378,24.5081081 18.5081081,24.5081081 C20.4423784,24.5081081 22.0108108,26.0765405 22.0108108,28.0108108 Z" id="Stroke-17"></path>
                            </g>
                        </g>
                    </g>
                </g>
            </g>
        </g>
    </g>
</svg>