<?xml version="1.0" encoding="UTF-8"?>
<svg width="36px" height="36px" viewBox="0 0 36 36" version="1.1" xmlns="http://www.w3.org/2000/svg" xmlns:xlink="http://www.w3.org/1999/xlink">
    <!-- Generator: Sketch 47.1 (45422) - http://www.bohemiancoding.com/sketch -->
    <title>icon-payments</title>
    <desc>Created with Sketch.</desc>
    <defs></defs>
    <g id="01" stroke="none" stroke-width="1" fill="none" fill-rule="evenodd">
        <g id="menu-02.2" transform="translate(-1010.000000, -149.000000)" fill="#878787">
            <g id="Group-12" transform="translate(0.000000, 49.000000)">
                <g id="header/new/menu" transform="translate(0.000000, 89.000000)">
                    <g id="Group-2" transform="translate(40.000000, 2.000000)">
                        <g id="Group-9" transform="translate(970.000000, 9.000000)">
                            <g id="Group-5" transform="translate(0.000000, 2.000000)">
                                <path d="M35.2632,18.021 C35.0105,18.021 34.8421,18.189 34.8421,18.442 L34.8421,21.642 C34.8421,22.232 34.3368,22.737 33.7474,22.737 L29.3684,22.737 C28.7789,22.737 28.2737,22.232 28.2737,21.642 L28.2737,18.442 C28.2737,17.853 28.7789,17.347 29.3684,17.347 L33.7474,17.347 C33.7474,17.347 33.7474,17.347 33.7474,17.347 C33.7474,17.347 33.7474,17.347 33.7474,17.347 C34,17.347 34.1684,17.179 34.1684,16.926 L34.1684,10.274 C34.1684,9.179 33.3263,8.337 32.2316,8.337 L30.3789,8.337 L30.3789,2.021 C30.3789,1.516 30.2105,1.011 29.7895,0.674 C29.3684,0.337 28.8632,0.253 28.3579,0.337 L2.1684,5.642 C1.0737,5.811 0.3158,6.821 0.3158,7.832 L0.3158,8.674 L0.3158,28.8 L0.3158,29.642 C0.3158,30.737 1.1579,31.579 2.2526,31.579 L32.3158,31.579 C33.4105,31.579 34.2526,30.737 34.2526,29.642 L34.2526,24.505 C34.2526,24.253 34.0842,24.084 33.8316,24.084 C33.5789,24.084 33.4105,24.253 33.4105,24.505 L33.4105,29.642 C33.4105,30.232 32.9053,30.737 32.3158,30.737 L2.2526,30.737 C1.6632,30.737 1.1579,30.232 1.1579,29.642 L1.1579,28.8 L1.1579,8.758 L1.1579,7.916 C1.1579,7.326 1.6632,6.653 2.3368,6.568 L28.5263,1.179 C28.7789,1.095 29.0316,1.179 29.2842,1.347 C29.4526,1.516 29.5368,1.768 29.5368,2.021 L29.5368,8.337 L3.5158,8.337 C3.2632,8.337 3.0947,8.505 3.0947,8.758 C3.0947,9.011 3.2632,9.179 3.5158,9.179 L32.2316,9.179 C32.8211,9.179 33.3263,9.684 33.3263,10.274 L33.3263,16.505 L29.3684,16.505 C28.2737,16.505 27.4316,17.347 27.4316,18.442 L27.4316,21.642 C27.4316,22.737 28.2737,23.579 29.3684,23.579 L33.7474,23.579 C34.8421,23.579 35.6842,22.737 35.6842,21.642 L35.6842,18.442 C35.6842,18.189 35.5158,18.021 35.2632,18.021 Z" id="Fill-505"></path>
                                <path d="M31.5579,21.558 C30.7158,21.558 30.0421,20.884 30.0421,20.042 C30.0421,19.2 30.7158,18.526 31.5579,18.526 C32.4,18.526 33.0737,19.2 33.0737,20.042 C33.0737,20.884 32.4842,21.558 31.5579,21.558 Z M31.5579,19.284 C31.1368,19.284 30.8842,19.621 30.8842,19.958 C30.8842,20.295 31.2211,20.632 31.5579,20.632 C31.8947,20.632 32.2316,20.295 32.2316,19.958 C32.2316,19.621 31.9789,19.284 31.5579,19.284 Z" id="Fill-507"></path>
                            </g>
                        </g>
                    </g>
                </g>
            </g>
        </g>
    </g>
</svg>