<svg xmlns="http://www.w3.org/2000/svg" width="38" height="25" viewBox="0 0 38 25">
    <g fill="none" fill-rule="nonzero">
        <path stroke="#878787" d="M35.247 24.132H3.11a1.903 1.903 0 0 1-1.907-1.906V12.013c0-.885.477-2.043 1.09-2.656l7.012-7.012c.613-.613 1.77-1.09 2.656-1.09H35.11c1.02 0 1.838.817 1.838 1.907v19.2c.136.885-.68 1.77-1.702 1.77z"/>
        <path stroke="#878787" d="M30.413 19.094H17.817a2.296 2.296 0 0 1-2.315-2.315V8.132a2.296 2.296 0 0 1 2.315-2.315h12.596a2.296 2.296 0 0 1 2.315 2.315v8.579c0 1.293-1.022 2.383-2.315 2.383z"/>
        <path fill="#878787" d="M32.251 14.14h-16c-.272 0-.545-.143-.545-.383 0-.239.205-.383.545-.383h16c.272 0 .545.144.545.383 0 .24-.273.383-.545.383zM32.251 10.328h-16c-.272 0-.545-.144-.545-.383 0-.24.205-.383.545-.383h16c.272 0 .545.143.545.383 0 .239-.273.383-.545.383z"/>
        <path fill="#878787" d="M24.362 19.094c-.192 0-.383-.205-.383-.545v-4.63c0-.272.143-.545.383-.545.24 0 .383.205.383.545v4.63c0 .272-.192.545-.383.545zM24.362 10.345c-.256-.128-.383-.298-.383-.511V6.26c0-.256.143-.511.383-.511.24 0 .383.191.383.51v3.575c0 .213-.128.383-.383.51z"/>
    </g>
</svg>
