<?xml version="1.0" encoding="UTF-8"?>
<svg width="21px" height="20px" viewBox="0 0 21 20" version="1.1" xmlns="http://www.w3.org/2000/svg" xmlns:xlink="http://www.w3.org/1999/xlink">
    <!-- Generator: Sketch 47.1 (45422) - http://www.bohemiancoding.com/sketch -->
    <title>ruble</title>
    <desc>Created with Sketch.</desc>
    <defs></defs>
    <g id="01" stroke="none" stroke-width="1" fill="none" fill-rule="evenodd">
        <g id="menu-02.7-375" transform="translate(-72.000000, -86.000000)" fill-rule="nonzero" fill="#B2BDC5">
            <g id="ruble" transform="translate(72.000000, 86.000000)">
                <path d="M20,20 L3,20 C1.86290323,20 1.18548387,19.7440758 1,19 C0,18.464455 0,17.4407583 0,17 L0,2 C0,2.17061611 0.127016129,2 0,2 C0.550403226,2 0.635080645,2.12796209 1,2 L1,17 C0.635080645,17.3554502 0.635080645,18.2085308 1,19 C1.52419355,19.1469194 2.07459677,19.3175355 3,19 L20,19 C20.2802419,19.3175355 20.3649194,19.2748815 20,19 L20,4 C20.3649194,4.00473934 20.3225806,3.91943128 20,4 C20.0685484,3.91943128 19.8991935,3.79146919 20,4 C19.8991935,3.36492891 20.0262097,3.23696682 20,3 C20.6612903,3.23696682 21,3.57819905 21,4 L21,19 C20.9576613,19.6587678 20.6189516,20 20,20 Z" id="Shape"></path>
                <path d="M18,3 C17.5555556,3 17.4074074,2.86363636 17,3 L17,1 C17.4074074,0.772727273 17.3703704,0.681818182 17,1 C17.1481481,0.681818182 17,0.545454545 17,0 C17,0.0909090909 17.1851852,0 17,0 C17.7037037,0 18,0.363636364 18,1 L18,3 C18,2.81818182 17.8518519,3 18,3 Z" id="Shape"></path>
                <path d="M2,4 C0.907407407,3.95876289 0,3.05154639 0,2 C0,0.907216495 0.907407407,0 2,0 L18,0 C18.1049383,0 18.2777778,0.12371134 18,0 C18.2777778,0.536082474 18.1481481,0.659793814 18,1 L2,1 C1.2962963,0.618556701 0.648148148,1.2371134 1,2 C0.648148148,2.72164948 1.2962963,3.34020619 2,3 L21,3 C20.8271605,3.34020619 21,3.46391753 21,4 C21,3.87628866 20.8703704,4 21,4 L2,4 Z" id="Shape"></path>
                <path d="M17,14 C15.9043556,14 15,13.0952381 15,12 C15,10.9047619 15.9043556,10 17,10 C18.0938482,10 18.9982038,10.9047619 19,12 C19.0458014,13.0952381 18.1414458,14 17,14 Z M17,11 C16.4439658,11 16,11.4444444 16,12 C16,12.5555556 16.4439658,13 17,13 C17.5538804,13 17.9978462,12.5555556 18,12 C18.0348434,11.4444444 17.5908775,11 17,11 Z" id="Shape"></path>
            </g>
        </g>
    </g>
</svg>