<?xml version="1.0" encoding="UTF-8"?>
<svg width="21px" height="21px" viewBox="0 0 21 21" version="1.1" xmlns="http://www.w3.org/2000/svg" xmlns:xlink="http://www.w3.org/1999/xlink">
    <!-- Generator: Sketch 47.1 (45422) - http://www.bohemiancoding.com/sketch -->
    <title>tv</title>
    <desc>Created with Sketch.</desc>
    <defs></defs>
    <g id="01" stroke="none" stroke-width="1" fill="none" fill-rule="evenodd">
        <g id="menu-02.7-375" transform="translate(-72.000000, -313.000000)">
            <g id="tv" transform="translate(71.000000, 312.000000)">
                <g id="Group-10" transform="translate(14.500000, 14.500000) rotate(-45.000000) translate(-14.500000, -14.500000) translate(3.000000, 6.000000)" stroke="#B7C3CC">
                    <rect id="Rectangle-8" x="10" y="0.5" width="3" height="7" rx="1"></rect>
                    <path d="M2,2 L2,8 L7,8 L7,2 L6,2 L6,0 L3.0197129,0 L2.99348635,2 L2,2 Z" id="Rectangle-9" transform="translate(4.500000, 4.000000) rotate(-270.000000) translate(-4.500000, -4.000000) "></path>
                    <path d="M16,2 L16,8 L21,8 L21,2 L20,2 L20,0 L17.0197129,0 L16.9934864,2 L16,2 Z" id="Rectangle-9-Copy" transform="translate(18.500000, 4.000000) rotate(-90.000000) translate(-18.500000, -4.000000) "></path>
                    <g id="Group-12" transform="translate(11.500000, 12.500000) rotate(-315.000000) translate(-11.500000, -12.500000) translate(9.000000, 10.000000)">
                        <path d="M0.5,5 C2.98528137,5 5,2.98528137 5,0.5" id="Oval-3-Copy-4"></path>
                        <path d="M0.5,3 C1.88071187,3 3,1.88071187 3,0.5" id="Oval-3-Copy-5"></path>
                        <path d="M0.5,1 C0.776142375,1 1,0.776142375 1,0.5" id="Oval-3-Copy-6"></path>
                    </g>
                </g>
                <rect id="Rectangle-10" x="1" y="1" width="21" height="20"></rect>
            </g>
        </g>
    </g>
</svg>