<svg xmlns="http://www.w3.org/2000/svg" width="35" height="35"><path fill-rule="evenodd" fill="#111116" d="M33.355 34.999H8.333a.513.513 0 110-1.026h12.051v-8.585c0-.886.721-1.607 1.607-1.607h8.005c.886 0 1.607.721 1.607 1.607v8.585h1.752a.62.62 0 00.62-.619V13.481h-5.77v3.452a1.08 1.08 0 01-1.079 1.078H25.94v1.187a1.08 1.08 0 01-1.079 1.079h-1.133a1.08 1.08 0 01-1.078-1.079v-1.187h-1.24v3.471c0 .584-.475 1.06-1.06 1.06h-5.735v3.451a1.08 1.08 0 01-1.079 1.078H12.35v1.187a1.08 1.08 0 01-1.079 1.079h-1.132a1.08 1.08 0 01-1.079-1.079v-1.187H7.82v3.471a1.06 1.06 0 01-1.059 1.059H1.025v1.753c0 .342.278.62.62.62h4.637a.513.513 0 110 1.025H1.645A1.647 1.647 0 010 33.354v-3.983a1.06 1.06 0 011.06-1.059h5.735V24.86a1.08 1.08 0 011.079-1.079H9.06v-7.08l-7.354 5.252a1.068 1.068 0 01-1.121.082A1.074 1.074 0 010 21.076v-1.392c0-.348.169-.675.452-.878l1.51-1.078a.512.512 0 11.596.834l-1.51 1.078a.055.055 0 00-.023.044v1.392c0 .01 0 .032.029.047a.048.048 0 00.056-.004L27.157 2.514a.055.055 0 00.023-.044V1.079c0-.011 0-.033-.029-.047-.03-.016-.048-.003-.056.003L4.608 17.097a.513.513 0 01-.596-.834L26.499.201c.33-.236.76-.267 1.121-.081.361.185.585.553.585.959v1.392c0 .347-.169.675-.452.878L25.94 4.643v10.079h1.24v-3.471c0-.584.475-1.06 1.059-1.06h5.701c.585 0 1.06.476 1.06 1.06v22.103c0 .907-.738 1.645-1.645 1.645zm-9.68-1.025h4.637v-6.869a.034.034 0 00-.034-.034h-4.569a.034.034 0 00-.034.034v6.869zm6.902-8.586a.582.582 0 00-.581-.581h-8.005a.582.582 0 00-.581.581v8.586h1.24v-6.869a1.06 1.06 0 011.059-1.059h4.569c.584 0 1.06.476 1.06 1.059v6.869h1.239v-8.586zM6.795 29.337H1.06a.035.035 0 00-.035.034v1.205h5.716c.03 0 .054-.024.054-.054v-1.185zm2.265-4.53H7.874a.054.054 0 00-.054.053v1.186h1.24v-1.239zm2.265-9.724l-1.24.885v1.524l1.24-.886v-1.523zm0 2.783l-1.24.886v9.506c0 .029.024.054.054.054h1.132c.03 0 .054-.025.054-.054V17.866zm3.29 3.65h5.716c.03 0 .053-.024.053-.053v-1.186h-5.735a.034.034 0 00-.034.034v1.205zm-2.265 4.53h1.186c.03 0 .054-.024.054-.053v-1.186h-1.24v1.239zm10.3-19.052l-10.3 7.357v9.43h1.24v-3.47c0-.585.475-1.06 1.059-1.06h5.735V15.8a1.08 1.08 0 011.08-1.078h1.186V6.994zm0 8.753h-1.186a.054.054 0 00-.054.053v1.186h1.24v-1.239zm2.265-10.371l-1.24.885v1.524l1.24-.886V5.376zm0 2.784l-1.24.885v10.153c0 .029.024.053.054.053h1.132c.03 0 .054-.024.054-.053V8.16zm2.265 7.587h-1.24v1.239h1.186c.03 0 .054-.024.054-.053v-1.186zm6.795-4.496a.035.035 0 00-.035-.034h-5.701a.034.034 0 00-.034.034v1.205h5.77v-1.205zM26.56 30.01h.283a.513.513 0 110 1.025h-.283a.513.513 0 110-1.025z"/></svg>