<svg xmlns="http://www.w3.org/2000/svg" width="39" height="29"><path fill-rule="evenodd" fill="#111116" d="M25.118 9.584c0 3.11-2.52 5.643-5.618 5.643-3.098 0-5.618-2.533-5.618-5.643 0-3.112 2.52-5.644 5.618-5.644 3.098 0 5.618 2.532 5.618 5.644zm-10.098 0c0 2.481 2.01 4.5 4.48 4.5 2.47 0 4.48-2.019 4.48-4.5 0-2.482-2.01-4.501-4.48-4.501-2.471 0-4.48 2.019-4.48 4.501zm5.048-2.375v.241h.512a.57.57 0 010 1.142h-.512v2.567c.435-.166.789-.515.95-.971a.567.567 0 01.726-.346.572.572 0 01.346.729 2.756 2.756 0 01-2.59 1.836 2.755 2.755 0 01-2.59-1.836.572.572 0 01.346-.729.567.567 0 01.726.346c.161.456.515.805.949.97V8.592h-.511a.57.57 0 010-1.142h.511v-.241a.57.57 0 01.569-.572.57.57 0 01.568.572zm17.669 7.105l-2.762 3.188v2.424l.744 1.519.003.006.655 1.336a1.183 1.183 0 01-.246 1.378c-.862.823-1.881 1.483-2.928 2.042-5.122 2.73-11.267 3.012-16.924 2.68a32.934 32.934 0 01-3.119-.328c-1.859-.289-3.695-.753-5.445-1.449-2.67-1.062-4.199-2.301-4.872-2.945a1.18 1.18 0 01-.246-1.378l.654-1.336.004-.007.744-1.518V17.47l-2.736-3.156C-.221 12.602-.419 10.083.78 8.186a4.473 4.473 0 011.903-1.695l.024-.01 3.544-1.433a.572.572 0 01.424 1.06L3.144 7.536A3.336 3.336 0 001.74 8.798c-.916 1.45-.756 3.454.38 4.766l2.696 3.109h29.368l2.695-3.109c1.137-1.312 1.297-3.316.381-4.766a3.336 3.336 0 00-1.404-1.262L20.731 1.422l-.024-.01a2.886 2.886 0 00-1.198-.269h-.018a2.89 2.89 0 00-1.199.269l-.023.01-8.413 3.4a.572.572 0 01-.424-1.06L17.833.367A4.02 4.02 0 0119.451 0l.048-.001.049.001a4.026 4.026 0 011.619.367l15.126 6.114.024.01a4.476 4.476 0 011.903 1.696c1.199 1.896 1 4.415-.483 6.127zm-3.9 3.503H5.136v1.604h28.701v-1.604zm.196 2.775H4.94l-.451.921c2.672 1.782 7.364 3.735 14.999 3.58h.023a37.526 37.526 0 004.52-.171.568.568 0 01.623.511.57.57 0 01-.508.626c-1.833.185-3.668.185-5.507.185-7.302 0-11.929-1.913-14.656-3.698l-.365.746a.038.038 0 00.008.045c2.638 2.543 6.611 3.658 10.123 4.153 3.65.513 7.579.517 11.235.033 2.484-.329 4.96-.962 7.215-2.077 1.127-.558 2.233-1.235 3.148-2.109a.038.038 0 00.009-.045l-.366-.746c-2.055 1.349-4.525 2.344-7.353 2.963a.571.571 0 01-.242-1.117c2.746-.6 5.128-1.568 7.089-2.879l-.451-.921z"/></svg>