<svg xmlns="http://www.w3.org/2000/svg" width="35" height="35"><path fill-rule="evenodd" fill="#111116" d="M35 17.499a.682.682 0 01-.368.606l-6.594 3.43 6.594 3.429a.685.685 0 010 1.213l-16.816 8.745a.682.682 0 01-.632 0L.368 26.177a.685.685 0 010-1.213l6.594-3.429-6.594-3.43a.682.682 0 010-1.212l6.594-3.429-6.594-3.43a.684.684 0 010-1.212L17.184.076a.69.69 0 01.632 0l5.679 2.954a.684.684 0 11-.631 1.212L17.5 1.452 2.165 9.428 17.5 17.403l15.335-7.975-4.514-2.347a.684.684 0 01.631-1.213l5.68 2.954a.684.684 0 010 1.212l-6.594 3.43 6.594 3.429a.684.684 0 01.368.606zM2.165 25.57L17.5 33.546l15.335-7.976-6.278-3.265-8.741 4.546a.682.682 0 01-.632 0l-8.741-4.546-6.278 3.265zm6.278-11.336l-6.278 3.265 2.714 1.412 6.279-3.266-2.715-1.411zm4.196 2.182L6.36 19.681l2.715 1.412 6.279-3.265-2.715-1.412zm13.918-2.182l-8.741 4.546a.695.695 0 01-.632 0l-.35-.182-6.278 3.266 2.728 1.418 15.311-7.988-2.038-1.06zm3.517 1.829l-15.311 7.989 2.737 1.423 15.335-7.976-2.761-1.436zM25.908 5.739a.684.684 0 010-1.367c.18 0 .356.073.483.2s.2.303.2.483a.688.688 0 01-.683.684z"/></svg>