<svg xmlns="http://www.w3.org/2000/svg" width="16" height="16"><path fill-rule="evenodd" fill="#FFF" d="M14.289.134H1.71C.845.134.137.842.137 1.706v12.58c0 .865.708 1.573 1.573 1.573h12.579c.865 0 1.572-.708 1.572-1.573V1.706c0-.864-.707-1.572-1.572-1.572zm-6.29 4.717a3.154 3.154 0 013.145 3.145 3.154 3.154 0 01-3.145 3.145 3.155 3.155 0 01-3.145-3.145 3.155 3.155 0 013.145-3.145zm-5.896 9.435c-.236 0-.393-.157-.393-.393V7.21h1.651c-.079.236-.079.55-.079.786a4.731 4.731 0 004.717 4.717 4.732 4.732 0 004.718-4.717c0-.236 0-.55-.079-.786h1.651v6.683c0 .236-.157.393-.393.393H2.103zM14.289 3.672c0 .236-.157.393-.393.393h-1.573c-.235 0-.393-.157-.393-.393V2.1c0-.236.158-.394.393-.394h1.573c.236 0 .393.158.393.394v1.572z"/></svg>