<svg xmlns="http://www.w3.org/2000/svg" width="35" height="35"><path fill-rule="evenodd" fill="#111116" d="M34.877 19.562a1.343 1.343 0 01-1.328 1.19h-1.651a14.6 14.6 0 01-1.917 4.629l1.167 1.167c.479.478.521 1.243.098 1.78a17.45 17.45 0 01-2.917 2.917 1.345 1.345 0 01-1.781-.097l-1.167-1.167a14.618 14.618 0 01-4.628 1.917v1.651c0 .676-.512 1.247-1.19 1.328a17.66 17.66 0 01-4.126 0 1.344 1.344 0 01-1.19-1.328v-1.651a14.623 14.623 0 01-4.629-1.917l-1.167 1.167a1.342 1.342 0 01-1.78.097 17.291 17.291 0 01-2.917-2.917 1.342 1.342 0 01.097-1.78l1.168-1.167a14.577 14.577 0 01-1.917-4.629H1.451a1.343 1.343 0 01-1.328-1.19 17.446 17.446 0 010-4.125 1.343 1.343 0 011.328-1.19h1.651a14.606 14.606 0 011.917-4.63L3.852 8.451a1.343 1.343 0 01-.098-1.781 17.431 17.431 0 012.917-2.917 1.344 1.344 0 011.78.098l1.167 1.167a14.623 14.623 0 014.629-1.917v-1.65c0-.677.512-1.248 1.19-1.329.686-.081 1.38-.123 2.063-.123.682 0 1.376.042 2.063.123.678.081 1.19.652 1.19 1.329v1.651a14.598 14.598 0 014.629 1.916l1.167-1.167a1.342 1.342 0 011.78-.097 17.28 17.28 0 012.917 2.916 1.343 1.343 0 01-.098 1.781l-1.167 1.166a14.583 14.583 0 011.917 4.63h1.651c.676 0 1.247.511 1.328 1.19a17.442 17.442 0 010 4.125zm-1.018-4.004a.319.319 0 00-.31-.286h-2.068a.513.513 0 01-.503-.415 13.584 13.584 0 00-2.079-5.021.512.512 0 01.063-.649l1.461-1.461a.317.317 0 00.017-.421 16.47 16.47 0 00-2.746-2.746.317.317 0 00-.42.017l-1.462 1.461a.512.512 0 01-.649.063 13.594 13.594 0 00-5.021-2.079.513.513 0 01-.415-.503V1.451a.319.319 0 00-.285-.311c-.647-.076-1.3-.115-1.942-.115-.642 0-1.296.039-1.942.115a.318.318 0 00-.285.311v2.067a.513.513 0 01-.415.503A13.594 13.594 0 009.837 6.1a.512.512 0 01-.649-.063L7.726 4.576a.318.318 0 00-.421-.017A16.434 16.434 0 004.56 7.305a.316.316 0 00.017.421l1.461 1.461c.173.173.2.446.063.649a13.582 13.582 0 00-2.079 5.022.513.513 0 01-.504.414H1.451a.318.318 0 00-.31.286 16.462 16.462 0 000 3.883.317.317 0 00.31.285h2.068c.245 0 .456.174.503.415a13.589 13.589 0 002.079 5.022.512.512 0 01-.063.648l-1.461 1.462a.315.315 0 00-.017.42 16.45 16.45 0 002.745 2.747c.129.101.31.094.421-.018l1.462-1.461a.511.511 0 01.649-.062 13.592 13.592 0 005.021 2.078.513.513 0 01.415.504v2.068c0 .157.122.29.285.309a16.479 16.479 0 003.884 0 .316.316 0 00.285-.309v-2.068c0-.246.174-.457.415-.504a13.592 13.592 0 005.021-2.078.512.512 0 01.649.062l1.462 1.461a.317.317 0 00.421.018 16.45 16.45 0 002.745-2.746.316.316 0 00-.017-.421l-1.461-1.461a.514.514 0 01-.063-.649 13.589 13.589 0 002.079-5.022.513.513 0 01.503-.415h2.068a.317.317 0 00.31-.285 16.466 16.466 0 000-3.883zm-5.448 2.481a10.895 10.895 0 01-3.187 7.185 10.898 10.898 0 01-7.726 3.2c-2.502 0-4.922-.853-6.868-2.429a.513.513 0 01.646-.797 9.864 9.864 0 002.971 1.653v-2.322a.575.575 0 00-.171-.412l-2.645-2.646a1.6 1.6 0 01-.472-1.138v-1.858a1.61 1.61 0 01-1.096-1.523 1.61 1.61 0 011.609-1.609 1.61 1.61 0 011.609 1.609 1.61 1.61 0 01-1.096 1.523v1.858c0 .156.06.302.171.413l2.645 2.646c.304.304.472.707.472 1.137v2.617a9.94 9.94 0 002.716.24l.094-.005v-2.852c0-.43.167-.833.471-1.137l3.194-3.194a1.6 1.6 0 011.138-.472h4.259c.129-.559.21-1.132.24-1.714H21.79a.581.581 0 00-.413.171l-1.55 1.55a1.596 1.596 0 01-1.137.471h-1.858a1.609 1.609 0 110-1.026h1.858c.156 0 .302-.06.412-.17l1.55-1.55a1.6 1.6 0 011.138-.472h5.595c-.03-.58-.11-1.153-.238-1.714H20.12a1.61 1.61 0 01-1.524 1.096 1.61 1.61 0 01-1.609-1.608c0-.887.722-1.609 1.609-1.609.708 0 1.31.46 1.524 1.096h6.731a9.869 9.869 0 00-.786-1.715h-4.729a1.062 1.062 0 01-1.061-1.06V7.996a9.922 9.922 0 00-1.714-.339v2.265c0 .429-.168.833-.472 1.137l-1.549 1.55a1.598 1.598 0 01-1.138.471h-1.31a1.61 1.61 0 01-1.524 1.097 1.612 1.612 0 01-1.609-1.609c0-.887.722-1.609 1.609-1.609.708 0 1.31.46 1.524 1.096h1.31a.579.579 0 00.412-.171l1.55-1.55a.58.58 0 00.171-.412V7.601A9.872 9.872 0 0010.5 10.5a9.877 9.877 0 00-2.887 6.51 9.874 9.874 0 002.188 6.713.513.513 0 01-.796.646 10.892 10.892 0 01-2.416-7.41 10.898 10.898 0 013.186-7.184 10.902 10.902 0 017.185-3.187 10.901 10.901 0 017.409 2.416.513.513 0 11-.646.797A9.849 9.849 0 0021.3 8.357v3.115c0 .019.016.035.036.035h4.044c-.06-.078-.12-.155-.181-.231a.513.513 0 11.796-.646 10.888 10.888 0 012.429 6.862v.013c0 .177-.004.356-.013.534zm-16.356-1.088a.584.584 0 10-1.167.001.584.584 0 001.167-.001zm10.831 3.801a.583.583 0 00-.413.171l-3.194 3.194a.578.578 0 00-.17.412v2.738a9.868 9.868 0 005.39-2.768 9.876 9.876 0 002.351-3.747h-3.964zm-7.578-1.644a.584.584 0 10.001 1.167.584.584 0 00-.001-1.167zm3.288-4.931a.583.583 0 100 1.166.583.583 0 000-1.166zm-6.028-2.193a.584.584 0 10.002 1.168.584.584 0 00-.002-1.168z"/></svg>