<svg xmlns="http://www.w3.org/2000/svg" width="36" height="41"><path fill-rule="evenodd" fill="#111116" d="M30.001 14.362a.6.6 0 01-.825-.209l-.185-.309a.601.601 0 011.035-.615l.184.309a.601.601 0 01-.209.824zm.189 11.867a.602.602 0 01.247.815l-.17.316a.602.602 0 01-1.062-.568l.17-.317a.603.603 0 01.815-.246zm-11.929 7.107a.601.601 0 110 1.203h-.36a.602.602 0 110-1.203h.36zM6.628 26.475l.169.317a.6.6 0 01-.53.885.601.601 0 01-.531-.317l-.17-.316a.602.602 0 111.062-.569zm-.319-12.028a.601.601 0 01-.516-.909l.184-.309a.601.601 0 011.034.615l-.184.309a.6.6 0 01-.518.294zm11.592-6.785a.602.602 0 110-1.202h.36a.602.602 0 110 1.202h-.36zm12.337 12.837c0 6.74-5.489 12.223-12.237 12.223-1.838 0-3.607-.398-5.256-1.183a.6.6 0 11.518-1.085c.875.417 1.789.711 2.731.884v-4.083a1.62 1.62 0 01-.694-1.311l-.009-.58-.496.299a1.62 1.62 0 01-.841.234c-.293 0-.582-.08-.835-.228l-3.476 2.026c.462.534.978 1.028 1.547 1.474a.6.6 0 11-.744.946 12.156 12.156 0 01-4.682-9.616c0-6.739 5.49-12.223 12.237-12.223 6.748 0 12.237 5.484 12.237 12.223zm-1.203 0c0-1.37-.253-2.681-.712-3.892l-3.437 2.077a1.638 1.638 0 01-.81 1.485l-.501.292.505.286a1.636 1.636 0 01.831 1.458l3.472 2.025c.421-1.166.651-2.422.652-3.731zm-6.191-1.004l.625-.365a.428.428 0 00.155-.59l-1.149-1.967a.435.435 0 00-.59-.155l-.623.363a4.896 4.896 0 011.582 2.714zm-1.538 4.673l.635.358c.1.057.216.071.328.04a.427.427 0 00.26-.203l1.122-1.983a.429.429 0 00-.164-.587l-.633-.357a4.93 4.93 0 01-1.548 2.732zm6.602 1.178l-3.423-1.996-.791 1.398 3.401 1.983c.304-.439.575-.902.813-1.385zm-7.899 5.99a11.037 11.037 0 006.345-3.645l-3.524-2.054a1.666 1.666 0 01-.679.148c-.279 0-.554-.071-.803-.212l-.506-.286.009.58c.006.437-.158.85-.463 1.162a1.599 1.599 0 01-.379.29v4.017zm-2.811.154a11.274 11.274 0 001.607 0v-3.96l-1.607.021v3.939zm-.694-5.563a.428.428 0 00.432.425h.006l2.28-.031a.427.427 0 00.425-.437l-.011-.725a4.953 4.953 0 01-3.143.043l.011.725zm-4.098-3.392l1.176 1.951a.43.43 0 00.592.147l.625-.376a4.943 4.943 0 01-1.623-2.689l-.623.375a.431.431 0 00-.147.592zm2.233-5.663l-.632-.345a.423.423 0 00-.328-.036.426.426 0 00-.258.207l-1.094 1.997a.432.432 0 00.171.586l.637.347a4.894 4.894 0 011.504-2.756zM8.9 26.735l3.428-1.998-.829-1.376-3.411 1.989c.236.48.507.943.812 1.385zm-1.931-6.236c0 1.295.223 2.554.647 3.734l3.532-2.061c.044-.503.319-.979.784-1.259l.497-.299-.509-.278a1.635 1.635 0 01-.831-1.669l-3.409-2.06a10.956 10.956 0 00-.711 3.892zm1.202-5l3.407 2.058.773-1.41-3.346-2.021c-.31.435-.589.894-.834 1.373zm7.823-5.837a11.036 11.036 0 00-6.231 3.516l3.574 2.16.004-.001a1.625 1.625 0 011.244.134l.641.35v-.729c0-.582.308-1.093.768-1.382V9.662zm2.811-.154a11.231 11.231 0 00-1.607 0v3.95h1.607v-3.95zm.768 5.584a.431.431 0 00-.431-.431h-2.281a.431.431 0 00-.431.431v.725c.037-.012.073-.025.111-.036a.6.6 0 11.355 1.149 3.718 3.718 0 00-2.634 3.569 3.74 3.74 0 007.479 0 3.718 3.718 0 00-2.635-3.569.6.6 0 11.356-1.149l.111.036v-.725zm.436-5.43v4.048c.46.289.768.8.768 1.382v.579l.502-.292a1.634 1.634 0 011.465-.089l3.496-2.112a11.036 11.036 0 00-6.231-3.516zm3.619 6.499l.811 1.387 3.393-2.049a11.108 11.108 0 00-.834-1.373l-3.37 2.035zm-3.091 4.338a2.537 2.537 0 01-5.071 0 2.537 2.537 0 015.071 0zm-2.536-1.33c-.734 0-1.331.597-1.331 1.33a1.332 1.332 0 002.663 0c0-.733-.597-1.33-1.332-1.33zm16.883-6.525l-2.228 1.346a15.992 15.992 0 011.382 6.509c0 2.228-.458 4.351-1.284 6.28l2.25 1.312a2.007 2.007 0 11-2.025 3.464l-2.256-1.316a16.04 16.04 0 01-10.714 6.153v2.602a2.009 2.009 0 01-4.015 0v-2.602a16.042 16.042 0 01-10.715-6.153l-2.256 1.316a2.009 2.009 0 01-2.746-.721 1.991 1.991 0 01-.208-1.52c.136-.519.467-.952.93-1.223l2.25-1.312a15.918 15.918 0 01-1.285-6.28c0-2.316.496-4.518 1.385-6.508l-2.23-1.347a1.99 1.99 0 01-.91-1.236A1.996 1.996 0 01.44 9.89a2.012 2.012 0 012.757-.678l2.235 1.351a16.034 16.034 0 0110.561-5.957V2.005c0-1.034.807-1.912 1.838-1.999a1.969 1.969 0 011.512.518c.423.389.666.945.666 1.528v2.553c1.555.193 3.065.612 4.508 1.254a.6.6 0 11-.489 1.099 14.736 14.736 0 00-6.027-1.275c-8.178 0-14.832 6.647-14.832 14.816s6.654 14.816 14.832 14.816c8.179 0 14.833-6.647 14.833-14.816 0-4.974-2.48-9.589-6.633-12.347a.601.601 0 11.666-1.001 16.054 16.054 0 013.71 3.407l2.228-1.346a2.01 2.01 0 012.757.678c.278.458.36.998.232 1.518-.128.52-.452.959-.91 1.236zM17.197 4.501a15.352 15.352 0 011.608 0V2.052a.876.876 0 00-.277-.644.778.778 0 00-.596-.203.807.807 0 00-.735.8v2.496zm-12.48 7.035l-2.143-1.295a.805.805 0 00-1.104.271.796.796 0 00-.092.608.799.799 0 00.364.495l2.141 1.294c.256-.473.534-.931.834-1.373zm-.95 16.334l-2.161 1.26a.802.802 0 10.81 1.387l2.163-1.262a16.073 16.073 0 01-.812-1.385zm15.038 8.628a16.466 16.466 0 01-1.608 0v2.496a.805.805 0 001.608 0v-2.496zm12.618-7.243l2.164 1.262a.806.806 0 001.182-.898.8.8 0 00-.372-.489l-2.161-1.26c-.248.476-.52.938-.813 1.385zm3.109-18.743a.804.804 0 00-1.103-.271l-2.138 1.292c.301.443.58.901.834 1.372l2.135-1.29a.8.8 0 00.272-1.103z"/></svg>