<svg xmlns="http://www.w3.org/2000/svg" width="42" height="23"><path fill-rule="evenodd" fill="#111116" d="M41.915 12.685a.626.626 0 00-.407-.299 275.714 275.714 0 00-7.956-1.611l-.053-.495a3.415 3.415 0 013.392-3.784.624.624 0 00.523-.284l1.612-2.485a.625.625 0 00-.513-.982h-4.996a.625.625 0 00-.624.625c0 .346.279.625.624.625h3.847l-.82 1.264a4.658 4.658 0 00-3.118 1.535 4.683 4.683 0 00-1.167 3.619l.013.127c-8.468-1.535-15.015-2.265-19.682-2.6l1.464-.759c.648.002 3.43.046 6.976.626a3.141 3.141 0 003.542-2.368.626.626 0 00-.502-.769l-3.903-.656.036-.019h10.403a.625.625 0 000-1.25h-2.841L28.38.81a.629.629 0 00-.279-.73.64.64 0 00-.542-.043l-7.716 2.745c-.027.009-8.567 4.431-8.567 4.431a5.295 5.295 0 00-4.235-2.528L.655 4.371a.625.625 0 00-.631.452.648.648 0 00.09.532l1.59 2.415c-.74.05-1.122.101-1.165.107a.625.625 0 00-.501.835L5.12 22.589c.09.246.324.41.586.41h32.682a.625.625 0 00.595-.435l2.987-9.376a.628.628 0 00-.055-.503zM23.084 5.772a1.88 1.88 0 01-1.853.8 50.773 50.773 0 00-4.922-.559l2.011-1.042 4.764.801zm3.372-3.027h-2.782L26.81 1.63l-.354 1.115zM10.164 7.789l-.002.001a100.931 100.931 0 00-3.468-.12l-.606-1.78.892.043a4.043 4.043 0 013.184 1.856zM1.822 5.68l2.926.144.625 1.835c-.859.001-1.599.015-2.223.037L1.822 5.68zm36.111 16.069H6.141l-2.279-6.223a83.238 83.238 0 015.684.084.624.624 0 00.057-1.249c-2.745-.126-4.817-.116-6.194-.074l-.613-1.671c4.718-.209 16.331-.032 36.686 4.269l-.498 1.563c-9.774-2.037-18.615-3.35-26.299-3.903a.624.624 0 10-.092 1.246c7.596.548 16.339 1.843 26.01 3.855l-.67 2.103zm1.93-6.061c-21.144-4.477-32.998-4.54-37.517-4.302l-.858-2.344c3.084-.234 15.42-.672 39.084 4.421l-.709 2.225z"/></svg>